<svg preserveAspectRatio="none" width="100%" height="100%" overflow="visible" style="display: block;" viewBox="0 0 12 15" fill="none" xmlns="http://www.w3.org/2000/svg">
<path id="Vector" d="M6.6483 0.248731C6.47928 0.0894687 6.25007 0 6.01108 0C5.77208 0 5.54287 0.0894687 5.37385 0.248731L0.275159 5.05453C0.189075 5.1329 0.120411 5.22664 0.0731743 5.33029C0.0259377 5.43393 0.00107397 5.54541 3.40301e-05 5.65821C-0.00100591 5.77101 0.0217989 5.88287 0.0671174 5.98728C0.112436 6.09168 0.179361 6.18653 0.263987 6.2663C0.348613 6.34606 0.449245 6.40914 0.560013 6.45186C0.67078 6.49458 0.789464 6.51607 0.909139 6.51509C1.02881 6.51411 1.14708 6.49067 1.25705 6.44615C1.36701 6.40163 1.46646 6.33691 1.54961 6.25577L5.10977 2.90012V14.1505C5.10977 14.3758 5.20473 14.5919 5.37375 14.7512C5.54278 14.9105 5.77203 15 6.01108 15C6.25012 15 6.47937 14.9105 6.6484 14.7512C6.81742 14.5919 6.91238 14.3758 6.91238 14.1505V2.90012L10.4725 6.25577C10.6425 6.41052 10.8702 6.49615 11.1065 6.49421C11.3428 6.49228 11.5689 6.40293 11.736 6.24542C11.9031 6.08791 11.9979 5.87484 12 5.65209C12.002 5.42935 11.9112 5.21476 11.747 5.05453L6.6483 0.248731Z" fill="var(--fill-0, #FF7702)"/>
</svg>
