<svg preserveAspectRatio="none" width="100%" height="100%" overflow="visible" style="display: block;" viewBox="0 0 107 107" fill="none" xmlns="http://www.w3.org/2000/svg">
<g id="Group">
<circle id="Ellipse" cx="53.5" cy="53.5" r="53.5" fill="var(--fill-0, #F6F5F9)"/>
<g id="Mask Group">
<mask id="mask0_0_204" style="mask-type:alpha" maskUnits="userSpaceOnUse" x="0" y="0" width="107" height="107">
<circle id="Ellipse_2" cx="53.5" cy="53.5" r="53.5" fill="var(--fill-0, #E5F8FF)"/>
</mask>
<g mask="url(#mask0_0_204)">
<g id="Group_2">
<path id="Vector" d="M65.0546 57.0374C64.9683 57.0662 64.8725 57.1047 64.7862 57.1336C64.5657 57.3261 64.2782 57.4415 64.0098 57.4512C63.9714 57.4512 63.9331 57.4512 63.8947 57.4415C62.8307 57.8072 61.7764 58.1826 60.7124 58.5482C59.3896 59.0102 58.0572 59.4721 56.7344 59.934C57.2999 61.6566 57.8559 63.3792 58.4214 65.1018C58.4981 65.073 58.5844 65.0345 58.6611 65.0056C61.4217 63.87 64.1823 62.7248 66.9429 61.5893C66.3199 60.0784 65.6872 58.5579 65.0546 57.047V57.0374Z" fill="var(--fill-0, white)"/>
<path id="Vector_2" d="M58.1731 52.9281C62.3236 50.6377 64.0969 46.182 64.7966 41.7167C64.8541 41.3414 65.2376 41.0238 65.5826 40.9276C66.3016 40.7255 67.1642 40.6004 67.8256 40.2636C68.7459 39.792 69.1484 38.2811 69.2347 37.3284C69.3114 36.4527 68.9855 34.9418 67.9886 34.7012C67.7969 34.6531 67.6148 34.6723 67.4231 34.7012C67.308 34.9707 67.2026 35.2401 67.078 35.4999C66.5508 36.6548 65.1034 35.8849 64.9788 34.9322C64.6912 32.7476 64.327 30.5631 64.0969 28.3689C63.9915 28.4074 63.8093 28.3112 63.9435 27.9359C63.4259 27.0698 62.8987 26.2133 62.3332 25.376C61.3267 23.8555 60.0039 22.489 58.9974 20.9492C57.2145 23.1434 54.3197 24.5773 51.8083 25.5396C50.8689 25.8957 50.0542 24.6639 50.5334 23.8748C50.5622 23.8266 50.5909 23.7689 50.6293 23.7208C49.6612 24.2212 48.6739 24.6831 47.6866 25.1354C45.8366 25.9631 43.9674 26.7618 42.0982 27.5509C41.8969 29.9279 41.6956 32.3049 41.5039 34.6819C41.3985 35.9811 39.7402 36.1832 39.2897 34.9803C39.2322 34.8359 39.1842 34.6916 39.1267 34.5472C39.0788 34.528 39.0405 34.5087 38.9925 34.4798C37.0179 33.248 36.97 36.8568 37.2096 37.8769C37.6026 39.5514 38.8583 40.2924 40.507 40.533C40.8521 40.5812 41.2451 40.9853 41.293 41.3222C41.7436 44.1611 42.4241 47.0385 44.1112 49.4155C47.1977 53.7461 53.4379 55.5168 58.1635 52.9088L58.1731 52.9281ZM48.3288 33.8928C46.8718 33.8928 46.8814 31.6313 48.3288 31.6313C49.7762 31.6313 49.7762 33.8928 48.3288 33.8928ZM58.7578 33.8928C57.3008 33.8928 57.3104 31.6313 58.7578 31.6313C60.2052 31.6313 60.2052 33.8928 58.7578 33.8928ZM56.9845 28.0706C57.7226 27.8685 58.499 27.7819 59.2658 27.8108C59.9368 27.83 60.6557 27.8974 61.2788 28.1572C61.5663 28.2727 61.7868 28.417 61.9497 28.6769C62.1127 28.9367 62.1319 29.2639 62.0648 29.5526C62.0073 29.8221 61.7772 30.0915 61.5472 30.2263C61.3267 30.361 60.9241 30.4476 60.6749 30.3418C60.4161 30.2359 60.1477 30.1685 59.8697 30.13C59.3233 30.0723 58.7674 30.0723 58.2306 30.13C58.0101 30.1685 57.7992 30.207 57.5884 30.2648C56.9749 30.4284 56.3902 30.0627 56.1985 29.4756C56.0067 28.8982 56.4189 28.2342 56.9845 28.0802V28.0706ZM53.965 38.9451C55.422 38.9451 55.4125 41.2067 53.965 41.2067C52.5176 41.2067 52.5176 38.9451 53.965 38.9451ZM51.9329 45.1234C51.9329 45.1234 51.9521 45.1427 51.9617 45.1523C51.9809 45.1619 52 45.1812 52.0096 45.1908C52.0959 45.2485 52.1917 45.3063 52.278 45.3544C52.3259 45.3833 52.3738 45.4025 52.4218 45.4218C52.5368 45.4699 52.5176 45.4699 52.3739 45.4025C52.4314 45.4506 52.5368 45.4603 52.6039 45.4891C52.7093 45.5276 52.8148 45.5565 52.9202 45.5757C52.9969 45.595 53.1695 45.6624 53.2461 45.6431C53.0928 45.6239 53.064 45.6239 53.1503 45.6335C53.1886 45.6335 53.2366 45.6335 53.2749 45.6431C53.3803 45.6527 53.4954 45.6624 53.6104 45.6624C53.7254 45.6624 53.8404 45.6624 53.9555 45.6624C54.013 45.6624 54.0705 45.6624 54.128 45.6431C54.0896 45.6431 54.0417 45.6527 54.0034 45.6624C54.2047 45.672 54.4827 45.5661 54.6744 45.4988C54.6935 45.4988 54.8661 45.4218 54.8948 45.4121C54.9524 45.3833 55.0099 45.3544 55.0195 45.3448C55.1153 45.2967 55.2016 45.2389 55.2974 45.1812C55.3453 45.1523 55.3837 45.1234 55.422 45.0946C55.4029 45.1138 55.4029 45.1138 55.3933 45.1234C55.8821 44.7385 56.486 44.6904 56.9749 45.1331C57.3966 45.518 57.435 46.3552 56.9749 46.7306C56.0259 47.5101 54.8469 47.9527 53.62 47.9239C52.4218 47.9046 51.2715 47.5197 50.3609 46.7306C49.8816 46.3168 49.9679 45.5565 50.3609 45.1331C50.7922 44.6615 51.5112 44.7481 51.9521 45.1331L51.9329 45.1234ZM45.5298 28.6769C45.6928 28.3978 45.9228 28.2727 46.2008 28.1572C46.8239 27.8974 47.5428 27.83 48.2138 27.8108C48.971 27.7915 49.757 27.8781 50.4951 28.0706C51.1086 28.2342 51.4153 28.8694 51.2811 29.466C51.1469 30.0627 50.4663 30.4091 49.8912 30.2551C49.6803 30.1974 49.4599 30.1589 49.249 30.1204C48.7026 30.0627 48.1562 30.053 47.6099 30.1204C47.3319 30.1685 47.0635 30.2263 46.8047 30.3321C46.5363 30.4476 46.1816 30.3514 45.9324 30.2166C45.6736 30.0819 45.5011 29.8125 45.4148 29.543C45.3285 29.2735 45.3861 28.9175 45.5298 28.6673V28.6769Z" fill="var(--fill-0, white)"/>
<path id="Vector_3" d="M77.4475 103.451C77.6105 101.44 77.7638 99.4287 77.9172 97.4174C76.6519 91.3257 75.147 85.2437 74.4664 79.0558C74.4185 78.6516 74.5623 78.3725 74.7924 78.1993C74.3418 76.4671 73.853 74.7252 73.1532 73.0988C72.3864 71.3281 72.4439 69.2591 72.8848 67.4114C72.9711 67.036 73.1149 66.6511 73.2874 66.2565C71.562 65.4097 69.8175 64.6013 68.0633 63.8218C67.9579 63.7737 67.8716 63.7159 67.8045 63.6582C67.4499 63.8026 67.0952 63.9469 66.7405 64.1009C63.8361 65.3038 60.9317 66.4971 58.0178 67.7001C57.4426 67.9407 56.8291 67.4595 56.647 66.9398L56.3307 67.931C56.6854 69.1821 56.7333 70.5871 56.8579 71.8574C57.1071 74.3788 57.2797 76.9001 57.4522 79.4215C58.219 90.6425 58.6696 101.883 59.4843 113.094C59.5419 113.941 59.6089 114.788 59.6856 115.625C59.7144 115.952 59.7431 116.289 59.7815 116.616C59.7911 116.732 59.8102 116.847 59.8198 116.963C59.8198 117.001 59.8198 117.02 59.8198 117.04C59.8198 117.049 59.8198 117.049 59.8198 117.069C59.9348 117.733 59.9924 118.272 59.4843 118.81C58.7558 119.58 57.9602 120.292 57.1742 121.014C56.2253 121.9 55.2571 122.804 54.1836 123.536C53.225 124.2 52.4677 124.2 51.7297 123.256C51.883 123.459 51.4421 122.977 51.3654 122.9C51.1354 122.669 50.8862 122.448 50.6369 122.236C50.1097 121.765 49.5633 121.313 49.0074 120.87C48.2789 120.283 47.4833 119.648 46.8986 119.205C46.4577 118.868 46.3043 118.502 46.381 117.944C46.3714 118.041 46.3522 118.185 46.3618 118.041C46.3618 117.973 46.381 117.906 46.3906 117.838C46.4097 117.656 46.4289 117.473 46.4481 117.29C46.5056 116.78 46.5535 116.279 46.6015 115.769C46.7548 114.182 46.8986 112.594 47.0328 111.006C47.7996 102.431 48.5281 93.8567 49.3333 85.2822C49.688 81.452 50.0522 77.6219 50.4644 73.8014C50.6657 71.9248 50.704 69.8461 51.2312 68.0176C51.0779 67.6423 50.9149 67.267 50.7615 66.8821C50.4836 67.2093 50.0522 67.4017 49.6209 67.2574C49.1704 67.1034 48.7294 66.9494 48.2789 66.7858C45.4416 65.7946 42.6139 64.813 39.7766 63.8218C39.6041 63.918 39.4123 63.995 39.2015 64.0816C38.3963 64.4185 37.6103 64.7841 36.7571 65.0055C35.118 65.4289 33.4214 65.631 31.744 65.8331C30.239 66.0256 28.7053 66.1892 27.2388 66.6126C26.031 66.9687 24.8903 67.5846 23.8167 68.2197C21.0465 69.8461 18.7269 72.0884 16.8481 74.6964C16.8194 74.7445 16.781 74.7733 16.7427 74.8118C16.7618 75.0139 16.6947 75.2449 16.5414 75.4662C12.8893 80.5956 9.28516 85.7441 5.78646 90.9697C3.61055 94.2224 1.2717 97.3597 -0.722079 100.738C-2.70627 104.106 -4.82466 108.051 -4.74798 112.074C-4.72881 112.911 -4.59461 113.748 -4.29746 114.528C-3.90445 115.558 -3.46352 116.79 -2.69669 117.598C-1.75731 118.599 -0.539956 119.282 0.610302 119.994C1.866 120.774 3.10252 121.553 4.34863 122.342C8.08697 124.7 11.8541 127.019 15.8225 128.963C15.5828 127.962 15.5445 126.894 15.7074 125.855C16.0046 124.017 16.2826 122.121 16.7427 120.321C17.1165 118.868 17.7587 117.665 18.5543 116.501C14.7105 114.22 11.5186 110.938 7.58853 108.783C6.31366 108.08 7.45434 106.127 8.72921 106.829C9.80278 107.416 10.8188 108.099 11.8157 108.812L12.2087 108.176C11.8732 107.82 11.7295 107.224 12.0362 106.82C14.8064 103.211 17.0686 99.2362 19.8388 95.6178C20.2126 95.127 20.7973 94.8672 21.3821 95.2136L22.4077 93.5199C22.053 88.814 21.66 84.1178 21.1807 79.4215C21.037 77.9683 23.2895 77.9876 23.4333 79.4215C23.8934 83.9638 24.2673 88.5157 24.6219 93.0676C25.0149 98.1296 25.36 103.192 25.6859 108.263C27.325 107.426 29.1367 107.041 30.8621 106.463C32.4053 105.953 34.1691 105.53 35.6357 106.531C36.7188 107.272 37.016 108.648 36.4792 109.822C36.0095 110.852 35.0797 111.458 34.0924 111.939C32.3382 112.796 30.517 113.527 28.7053 114.249C28.4178 114.682 28.1206 115.115 27.8139 115.538C30.6033 115.423 33.3926 115.269 36.1916 115.423C36.2875 115.423 36.3737 115.442 36.46 115.471C38.2046 115.798 39.9299 117.232 39.4219 119.195C39.1248 120.331 38.4059 121.091 37.4665 121.495C37.9458 122.612 37.6774 124.065 36.6517 125.018C36.6325 125.037 36.6038 125.046 36.5846 125.066C36.7859 125.441 36.9201 125.884 36.9489 126.394C37.0447 128.203 35.7027 129.704 33.9199 129.916C31.7823 130.166 29.6256 130.272 27.488 130.647C27.5455 132.389 27.603 134.131 27.6509 135.873C27.6605 136.287 27.4305 136.624 27.1046 136.826H29.3476C29.3188 136.239 29.6735 135.613 30.4308 135.613C45.1157 135.449 59.8007 135.286 74.4856 135.122C75.1374 135.122 75.4921 135.565 75.5592 136.075L76.4411 136.123C76.4411 136.123 76.5081 136.094 76.5369 136.085L76.1631 134.641C75.5017 134.805 74.7444 134.458 74.8211 133.602C74.9745 131.889 75.1278 130.176 75.2812 128.463C76.0193 120.129 76.7382 111.795 77.39 103.451H77.4475ZM10.282 106.415C10.0137 106.502 9.65899 106.444 9.40977 106.3C9.13179 106.136 9.0072 105.905 8.89217 105.626C8.81549 105.443 8.74838 105.27 8.6717 105.087C8.17325 103.846 7.67481 102.604 7.17636 101.363C6.93673 100.776 7.43516 100.141 7.96237 99.9676C8.23076 99.881 8.58541 99.9388 8.83463 100.083C9.11261 100.247 9.23723 100.478 9.35226 100.757L9.57273 101.296L11.0681 105.02C11.3077 105.607 10.8093 106.242 10.282 106.415ZM67.239 122.188C60.9701 127.654 53.8481 131.985 46.1317 135.065C44.7802 135.603 44.1955 133.409 45.5279 132.88C52.8608 129.954 59.676 125.778 65.6382 120.581C66.7309 119.628 68.3317 121.226 67.2294 122.179L67.239 122.188Z" fill="var(--fill-0, white)"/>
<path id="Vector_4" d="M52.7555 58.2406C52.9376 58.2984 53.1772 58.3561 53.369 58.4427C53.3785 58.4235 53.6853 58.462 53.8482 58.4716C53.9441 58.4716 54.0879 58.4523 54.155 58.4427H54.1741C54.3946 58.3369 54.6534 58.2791 54.8834 58.1925C57.5195 57.2783 60.1555 56.364 62.7915 55.4402C62.6764 54.4008 62.5806 53.3711 62.5135 52.3318C59.0052 55.9598 53.7907 57.4707 48.8159 55.6423C47.148 55.036 45.6239 54.1218 44.3107 52.9573C44.2819 53.7561 44.2148 54.5644 44.1094 55.3536L46.6495 56.2004C48.6912 56.8837 50.7234 57.567 52.7651 58.2406H52.7555Z" fill="var(--fill-0, white)"/>
<path id="Vector_5" d="M50.8812 60.0016C48.1589 59.097 45.4462 58.1828 42.724 57.2782C42.6664 57.2782 42.5993 57.2685 42.5418 57.2589C42.4172 57.23 42.3118 57.1819 42.2159 57.1146C42.1872 57.1146 42.168 57.0953 42.1392 57.0857C41.8133 58.3271 41.497 59.5782 41.1711 60.8196C41.0848 61.1468 41.0081 61.4836 40.9219 61.8108C40.9794 61.8301 41.0369 61.8493 41.0944 61.8686C43.8167 62.8213 46.5294 63.7644 49.2517 64.7171C49.7884 63.1485 50.3348 61.5702 50.8716 60.0016H50.8812Z" fill="var(--fill-0, white)"/>
<path id="Vector_6" d="M20.4131 131.321C21.5346 131.716 22.7999 131.658 23.768 130.927C24.6882 130.224 25.3208 128.781 26.4807 128.55C28.5511 128.136 30.7366 127.818 32.8454 127.703C33.4014 127.674 33.9957 127.78 34.4366 127.347C34.8296 126.962 34.6571 126.692 34.6954 126.211C34.6954 126.134 34.6283 126.086 34.5996 126.048C34.4654 126.038 34.3216 126.048 34.2066 126.048C33.7848 126.048 33.3631 126.067 32.9413 126.086C30.8708 126.173 28.8004 126.375 26.7299 126.423C25.2633 126.452 25.3017 124.267 26.7299 124.161C28.4745 124.036 30.2094 123.863 31.9444 123.748C32.7304 123.699 33.5068 123.68 34.2833 123.651C34.7817 123.632 35.2226 123.526 35.4431 123.007C35.5869 122.67 35.5773 122.4 35.2897 122.227C34.82 121.938 33.919 122.102 33.3918 122.073C32.6825 122.035 31.9732 122.073 31.2542 122.102C30.9667 122.112 30.6695 122.14 30.382 122.16C30.1423 122.179 29.8931 122.198 29.6535 122.217C28.4744 122.314 27.2763 122.41 26.1069 122.342C24.669 122.256 24.6499 120.062 26.1069 120.081C27.2859 120.1 28.4649 120.042 29.6343 119.965C30.2094 119.917 30.775 119.879 31.3405 119.85C32.0786 119.792 32.8167 119.744 33.5548 119.696C34.1203 119.658 34.6859 119.629 35.2514 119.619C35.6348 119.609 36.1524 119.696 36.5167 119.571C37.6669 119.157 37.3602 117.877 36.2291 117.733C32.6633 117.531 29.1263 117.848 25.5605 117.925C24.7745 117.945 24.0651 116.924 24.5828 116.222C25.3975 115.125 26.1835 114.018 26.9695 112.902C27.3721 112.334 27.9856 112.17 28.5991 111.92C29.7493 111.449 30.8996 110.977 32.0307 110.467C32.7783 110.13 34.0149 109.765 34.4366 108.995C34.5804 108.744 34.5708 108.6 34.475 108.504C34.1778 108.196 33.6027 108.206 33.2193 108.225C32.3374 108.254 31.4651 108.716 30.6312 108.966C29.8068 109.216 28.9633 109.447 28.1486 109.726C26.6341 110.246 25.5509 110.977 24.6307 112.296C23.9118 113.316 23.1354 114.288 22.3685 115.269C21.362 116.549 20.1447 117.868 19.4833 119.378C18.7931 120.957 18.5918 122.737 18.3138 124.421C18.0742 125.874 17.6716 127.279 18.0838 128.742C18.4193 129.935 19.2245 130.946 20.4131 131.36V131.321Z" fill="var(--fill-0, white)"/>
<path id="Vector_7" d="M76.9434 77.5162C79.7807 76.7559 82.618 75.9861 85.4649 75.2258C85.1869 74.6099 84.8706 74.0036 84.6981 73.3203C84.3722 71.9923 84.9856 70.7124 85.6374 69.5961C86.3276 68.4124 87.0465 67.2575 87.7175 66.0642C88.2734 65.073 88.9636 64.0048 89.1937 62.8692C89.4045 60.6462 88.6281 58.0863 87.5833 56.1617C87.3628 55.7478 87.1136 55.3148 86.7589 54.9972C86.711 54.9491 86.5289 54.8336 86.6247 54.8721C86.6056 54.8721 86.596 54.8625 86.5768 54.8529C86.4522 54.8529 86.3084 54.901 86.1838 54.9491C85.8004 55.0838 85.5128 55.3533 85.369 55.7093C85.3115 55.8537 85.2828 55.9981 85.254 56.1424C85.254 56.152 85.254 56.152 85.254 56.1617C85.1582 57.2587 83.7778 57.6148 83.1644 56.6813C83.1165 56.614 82.7905 56.152 82.5317 56.0558C82.2346 55.9499 81.6115 56.1809 81.6978 56.614C81.8799 57.5282 80.931 58.452 80.0395 57.8939C79.5123 57.5571 79.2535 57.1336 78.6975 57.5282C78.2279 57.865 78.0553 58.2307 78.0361 58.8081C77.9882 59.8571 76.4641 60.4345 75.9369 59.3759C75.6494 58.7985 74.3841 58.7504 73.9527 59.2315C73.7323 59.4818 73.7514 60.0207 73.6843 60.3383C73.5789 60.8098 73.3872 61.2525 73.2626 61.7144C73.1859 62.0031 73.0038 63.0809 73.483 63.0232C73.7323 62.9943 74.0582 62.4651 74.1828 62.263C74.2786 62.0994 74.3362 61.9935 74.3937 61.8203C74.4033 61.7914 74.4128 61.7722 74.4224 61.7529C74.4224 61.724 74.4128 61.6952 74.4032 61.6663C73.9719 60.2613 76.1286 59.6935 76.5792 61.06C76.6271 61.1947 76.6463 61.3295 76.6654 61.4738C77.0584 63.437 76.0232 65.2847 75.3522 67.0939C74.7579 68.7011 74.5854 70.6161 75.2372 72.2233C75.9369 73.9459 76.4737 75.7262 76.953 77.5162H76.9434Z" fill="var(--fill-0, white)"/>
<path id="Vector_8" d="M95.6349 108.533C95.4144 105.867 94.8105 103.211 94.245 100.603C93.6219 97.7157 92.9509 94.8479 92.2704 91.9801C91.0722 86.8989 89.7877 81.8081 88.8771 76.6595C84.8608 77.7373 80.8444 78.8152 76.8281 79.893C77.1253 82.2989 77.5279 84.6855 78.0071 87.0625C78.1222 87.024 78.2468 86.9951 78.3618 86.9566C81.4292 86.0424 84.4869 85.1185 87.5543 84.2043C88.9538 83.7905 89.5385 85.975 88.1582 86.3889C87.7172 86.5236 87.2667 86.6583 86.8258 86.793C84.0364 87.6303 81.2566 88.4675 78.4673 89.2952C79.1766 92.6538 79.953 96.0027 80.6144 99.3613C81.1704 102.21 81.6017 105.058 81.9468 107.936C82.2823 110.717 83.0012 113.691 85.6947 115.076C87.746 116.125 90.5066 116.366 92.6729 115.529C95.4815 114.441 95.8745 111.198 95.6444 108.542L95.6349 108.533Z" fill="var(--fill-0, white)"/>
<path id="Vector_9" d="M53.2812 19.2851C53.3971 19.0534 53.3199 19.0341 53.2812 19.2851Z" fill="var(--fill-0, #78C8E6)"/>
<path id="Vector_10" d="M75.2188 271.449C75.2188 271.449 75.2188 271.449 75.2188 271.459C75.2381 271.44 75.2478 271.42 75.2672 271.401C75.2769 271.391 75.2962 271.372 75.3059 271.362C75.3059 271.353 75.2672 271.391 75.2284 271.449H75.2188Z" fill="var(--fill-0, #78C8E6)"/>
<path id="Vector_11" d="M77.0312 270.323C77.0312 270.323 77.099 270.294 77.1378 270.275C77.1087 270.284 77.0603 270.304 77.0312 270.323Z" fill="var(--fill-0, #78C8E6)"/>
<path id="Vector_12" d="M75.0335 265.299C75.1485 265.097 75.3114 264.963 75.4935 264.876C75.3593 264.78 75.2347 264.664 75.1389 264.549C74.4679 264.876 73.471 264.549 73.471 263.577C73.4518 255.243 73.6244 246.899 73.8448 238.565C74.3145 220.829 75.0143 203.103 75.6086 185.376C75.8961 176.831 76.1741 168.285 76.3754 159.73C76.4713 155.861 76.5479 152.002 76.5959 148.133C76.615 146.411 76.7588 144.63 76.5863 142.917C76.385 140.983 75.8195 139.078 75.7715 137.134C75.7619 136.575 76.0878 136.239 76.4904 136.114L75.6086 136.065C75.6852 136.681 75.3306 137.374 74.535 137.384C72.9438 137.403 71.3622 137.422 69.771 137.442C69.771 137.692 69.771 137.952 69.771 138.202C69.7518 140.04 69.7423 141.868 69.7231 143.706C69.7231 144.342 69.2151 144.813 68.592 144.842C67.9881 144.871 67.4609 144.303 67.4609 143.706C67.4609 143.447 67.4609 143.177 67.4609 142.917C67.4801 141.099 67.4897 139.289 67.5088 137.47C67.0104 137.47 66.5215 137.48 66.0231 137.49C66.0231 137.509 66.0231 137.528 66.0231 137.547V143.706C66.0231 144.342 65.5055 144.813 64.892 144.842C64.2785 144.871 63.7609 144.303 63.7609 143.706V137.547C63.7609 137.547 63.7609 137.528 63.7609 137.509C56.2363 137.596 48.7213 137.673 41.1967 137.759C41.1967 137.904 41.1967 138.057 41.1967 138.202C41.1775 140.04 41.1679 141.868 41.1488 143.706C41.1488 144.342 40.6408 144.813 40.0177 144.842C39.4138 144.871 38.8866 144.303 38.8866 143.706C38.8866 143.447 38.8866 143.177 38.8866 142.917C38.9058 141.204 38.9154 139.501 38.9345 137.788C38.4457 137.788 37.9472 137.798 37.4584 137.807V143.706C37.4584 144.342 36.9407 144.813 36.3273 144.842C35.7138 144.871 35.1962 144.303 35.1962 143.706V137.827C33.605 137.846 32.0234 137.865 30.4322 137.884C29.7325 137.884 29.3778 137.374 29.349 136.835H27.1061C26.9335 136.941 26.7322 137.009 26.5213 137.018C26.4926 137.018 26.4542 137.018 26.4255 137.018L26.4542 137.711C27.0006 137.73 27.5278 138.096 27.5086 138.799C27.4703 140.916 27.0677 143.004 27.0581 145.131C27.0485 147.142 27.0294 149.163 27.0102 151.174C26.9814 155.543 26.9431 159.912 26.9047 164.282C26.761 181.941 26.598 199.6 26.4446 217.259C26.3009 233.311 26.1571 249.353 26.0612 265.405C26.0612 265.992 25.697 266.329 25.2656 266.454C30.1926 268.052 36.2697 268.456 40.8324 265.607C41.5801 258.419 42.2799 251.22 42.9221 244.022C44.1586 230.183 45.2322 216.335 46.1812 202.468C47.1109 188.908 47.9257 175.339 48.635 161.76C48.7117 160.307 50.9643 160.307 50.8876 161.76C50.8205 163.098 50.7438 164.436 50.6671 165.764L51.9516 166.659C51.9516 166.572 51.942 166.485 51.9324 166.408C51.8558 164.946 54.1083 164.955 54.185 166.408C54.2042 166.793 54.2329 167.188 54.2521 167.573C54.5876 173.26 54.9519 178.938 55.3161 184.616C55.8625 193.19 56.428 201.765 56.984 210.33C57.5783 219.443 58.1822 228.557 58.7861 237.67C59.2653 244.878 59.735 252.077 60.2143 259.285C60.3389 261.18 60.4635 263.076 60.5881 264.982C61.0866 265.261 61.4029 265.867 61.0195 266.493C60.9236 266.647 60.8278 266.801 60.7415 266.955C62.0739 266.916 63.4063 266.839 64.7291 266.724C67.3555 266.493 70.2695 266.242 72.685 265.097C73.8353 264.549 74.8609 266.002 74.1899 266.781C74.5158 266.762 74.8322 266.724 75.1485 266.637C74.8226 266.291 74.7746 265.684 75.0047 265.29L75.0335 265.299ZM29.1573 140.964C29.3395 140.964 29.5216 140.964 29.7037 140.964C30.9594 140.964 32.2247 140.954 33.4804 140.945C34.113 140.945 34.5827 141.464 34.6115 142.08C34.6402 142.696 34.0747 143.206 33.4804 143.216C33.2983 143.216 33.1161 143.216 32.934 143.216C31.6783 143.216 30.413 143.225 29.1573 143.235C28.5247 143.235 28.055 142.715 28.0262 142.099C27.9975 141.483 28.563 140.973 29.1573 140.964ZM38.8195 254.752C36.9216 255.965 35.0236 257.177 33.1353 258.39C33.1065 259.333 33.0682 260.276 33.0394 261.219C33.0011 262.672 30.7389 262.672 30.7869 261.219C30.7965 260.767 30.8156 260.314 30.8252 259.862C30.4226 260.112 30.0296 260.372 29.627 260.622C29.1094 260.949 28.3809 260.728 28.0838 260.218C27.7674 259.679 27.9783 258.996 28.4863 258.669C29.2915 258.149 30.0967 257.639 30.9019 257.119C31.1511 249.324 31.4578 241.52 31.7837 233.725C32.1863 224.188 32.6273 214.641 33.0778 205.104C33.5091 196.145 33.9501 187.176 34.4006 178.216C34.7361 171.518 35.0907 164.82 35.4358 158.122C35.57 155.495 35.7138 152.868 35.8576 150.25C35.9343 148.797 38.1868 148.797 38.1102 150.25C38.1102 150.299 38.1102 150.347 38.1102 150.385C38.1293 153.58 37.7651 156.833 37.6021 160.028C37.2283 167.101 36.8641 174.174 36.5094 181.248C36.0493 190.371 35.5988 199.494 35.1674 208.617C34.7169 218.106 34.2856 227.585 33.8926 237.074C33.6337 243.262 33.4037 249.459 33.2024 255.647C34.6882 254.694 36.1739 253.751 37.6596 252.798C38.1773 252.471 38.9058 252.693 39.2029 253.203C39.5192 253.742 39.3083 254.425 38.8003 254.752H38.8195ZM43.8615 139.713C48.6925 139.636 53.5332 139.568 58.3643 139.491C59.8213 139.472 59.8117 141.734 58.3643 141.753C53.5332 141.83 48.6925 141.897 43.8615 141.974C42.4045 141.994 42.414 139.732 43.8615 139.713ZM46.2003 160.557C44.7817 160.875 44.1874 158.69 45.5964 158.373C46.1907 158.238 46.785 158.103 47.3793 157.969C48.6734 157.67 49.9674 157.381 51.271 157.083C51.2519 156.573 51.2327 156.073 51.2135 155.563C51.0793 152.05 50.9451 148.537 50.8205 145.015C50.763 143.553 53.0252 143.562 53.0731 145.015C53.0923 145.525 53.1115 146.026 53.1306 146.536C53.2552 149.885 53.3798 153.224 53.5044 156.573C55.642 156.092 57.77 155.611 59.9076 155.12C61.3262 154.802 61.9205 156.987 60.5114 157.304L58.7285 157.709C54.5493 158.652 50.3796 159.604 46.2003 160.548V160.557ZM60.799 163.194C59.1024 162.79 57.3962 162.386 55.6995 161.972C55.0861 161.828 54.7793 161.164 54.9135 160.576C55.0477 159.97 55.7283 159.653 56.3034 159.787C56.5431 159.845 56.7827 159.903 57.0223 159.961C58.719 160.365 60.4252 160.769 62.1218 161.183C62.7353 161.327 63.042 161.991 62.9078 162.578C62.7736 163.184 62.093 163.502 61.5179 163.367C61.2783 163.31 61.0386 163.252 60.799 163.194ZM71.0363 259.91C68.6016 261.488 65.6876 262.335 62.7832 262.104C62.1697 262.056 61.6521 261.623 61.6521 260.969C61.6521 260.391 62.1697 259.785 62.7832 259.833C64.1252 259.939 65.4096 259.795 66.6462 259.439C66.4065 259.256 66.2531 258.977 66.2627 258.582C66.2627 258.303 66.2819 258.024 66.2819 257.755C66.3873 252.664 66.4161 247.582 66.4544 242.492C66.5215 234.013 66.5791 225.545 66.6366 217.066C66.6941 207.558 66.7516 198.05 66.8187 188.542C66.8762 180.362 66.9241 172.173 67.0008 163.993C67.0392 159.489 67.0392 154.976 67.1733 150.472C67.2117 149.019 69.4739 149.019 69.4259 150.472C69.4259 150.751 69.4068 151.03 69.4068 151.299C69.3013 156.39 69.2726 161.471 69.2342 166.562C69.1671 175.041 69.1096 183.509 69.0521 191.988C68.9946 201.496 68.9371 211.004 68.87 220.512C68.8125 228.692 68.7645 236.881 68.6878 245.061C68.6495 249.565 68.6495 254.078 68.5153 258.582C68.5153 258.63 68.5057 258.678 68.4961 258.726C68.9658 258.496 69.4355 258.245 69.886 257.947C70.4036 257.61 71.1322 257.841 71.4293 258.351C71.7456 258.9 71.5347 259.573 71.0267 259.901L71.0363 259.91ZM71.4389 142.831C71.1226 142.802 70.8733 142.715 70.6433 142.504C70.4228 142.301 70.327 141.994 70.3174 141.705C70.3078 141.426 70.4516 141.099 70.6433 140.906C70.8254 140.723 71.1705 140.55 71.4389 140.579C71.6019 140.598 71.7648 140.608 71.9277 140.627C73.0588 140.742 74.1803 140.858 75.3114 140.973C75.6277 141.002 75.877 141.089 76.107 141.301C76.3275 141.503 76.4233 141.811 76.4329 142.099C76.4425 142.378 76.2987 142.706 76.107 142.898C75.9249 143.081 75.5798 143.254 75.3114 143.225C75.1485 143.206 74.9855 143.187 74.8226 143.177C73.6915 143.062 72.57 142.946 71.4389 142.831Z" fill="var(--fill-0, #D5D5D5)"/>
<path id="Vector_13" d="M92.1016 277.541C89.3122 276.02 86.1202 275.885 83.1583 274.875C82.9474 274.807 82.7941 274.692 82.6694 274.557C82.6023 274.519 82.5448 274.461 82.4873 274.403C81.9697 273.845 81.4617 273.277 80.944 272.719C80.8961 272.738 80.8482 272.767 80.7907 272.787C80.1484 272.989 79.5158 273.22 78.8928 273.46C78.7682 273.508 78.6435 273.556 78.5285 273.605C78.4614 273.633 78.3943 273.662 78.3272 273.682C78.3464 273.682 78.356 273.672 78.3655 273.662C78.6339 273.556 78.4518 273.624 78.3655 273.662C78.3655 273.662 78.356 273.662 78.3464 273.662C78.0972 273.768 77.8383 273.884 77.5891 274.009C77.3782 274.115 77.1769 274.22 76.9852 274.346C76.899 274.403 76.8127 274.471 76.7264 274.528C76.7935 274.49 76.8319 274.461 76.8606 274.442C76.8894 274.423 76.899 274.413 76.9086 274.413C76.9086 274.413 76.8894 274.423 76.8606 274.442C76.8223 274.471 76.7648 274.509 76.7264 274.548C76.2759 274.99 75.5858 274.961 75.1352 274.548C74.6847 274.134 74.7135 273.364 75.1352 272.95C75.4611 272.623 75.8637 272.373 76.2663 272.161C77.2249 271.651 78.2505 271.237 79.2857 270.881C79.142 270.717 78.9886 270.563 78.8448 270.4C78.6723 270.207 78.4902 270.015 78.3176 269.823C77.9246 269.957 77.5316 270.092 77.1482 270.246C76.9948 270.313 76.9948 270.313 77.0332 270.294C77.0332 270.294 77.0332 270.294 77.0236 270.294C76.899 270.352 76.7743 270.41 76.6497 270.467C76.4101 270.583 76.1609 270.717 75.9308 270.852C75.8254 270.91 75.7295 270.977 75.6241 271.045C75.6241 271.045 75.5762 271.083 75.4995 271.131C75.4324 271.189 75.3557 271.256 75.2982 271.324C75.2982 271.324 75.2598 271.372 75.1832 271.449C74.8285 271.94 74.2246 272.103 73.6783 271.805C73.1606 271.526 72.9497 270.746 73.2757 270.256C73.6016 269.755 74.0329 269.389 74.5314 269.053C75.1927 268.61 75.9308 268.283 76.6689 267.994C76.4772 267.782 76.2759 267.571 76.0842 267.359C75.9692 267.234 75.8542 267.109 75.7391 266.993C75.72 266.974 75.6145 266.897 75.6049 266.887C75.5474 266.858 75.4899 266.83 75.4324 266.801C75.3269 266.753 75.2407 266.685 75.1736 266.599C74.8573 266.685 74.5409 266.724 74.215 266.743C74.1288 266.849 74.0042 266.945 73.8508 267.012C71.1764 268.273 68.1091 268.629 65.2047 268.908C63.3835 269.081 61.543 269.197 59.7122 269.216C59.6451 269.216 59.578 269.216 59.5109 269.197C58.9645 270.342 58.5811 271.555 58.629 272.815C58.7249 275.241 61.0733 275.443 62.9713 275.577C67.3039 275.885 71.579 277.136 75.4803 279.003C77.4454 279.946 79.3912 280.986 81.5288 281.496C83.6855 282.006 85.9668 281.833 88.1236 281.448C89.2451 281.246 90.3474 280.986 91.4497 280.697C92.1303 280.514 93.2806 280.418 93.6448 279.706C94.1528 278.676 92.8396 277.906 92.1016 277.512V277.541Z" fill="var(--fill-0, #898989)"/>
<path id="Vector_14" d="M77.1347 270.284C77.1347 270.284 77.1347 270.284 77.1443 270.284C77.1636 270.284 77.1829 270.265 77.2022 270.255C77.1829 270.265 77.154 270.275 77.125 270.284H77.1347Z" fill="var(--fill-0, #78C8E6)"/>
<path id="Vector_15" d="M75.5253 271.161C75.5253 271.161 75.5834 271.122 75.6028 271.102C75.6028 271.102 75.6222 271.093 75.6222 271.083C75.6416 271.073 75.5641 271.122 75.5156 271.161H75.5253Z" fill="var(--fill-0, #78C8E6)"/>
<path id="Vector_16" d="M75.1562 271.527C75.1562 271.527 75.1758 271.507 75.1856 271.498C75.1856 271.488 75.2052 271.478 75.215 271.458C75.1954 271.478 75.1758 271.507 75.1562 271.527Z" fill="var(--fill-0, #78C8E6)"/>
<path id="Vector_17" d="M39.7141 29.0812C39.7812 28.3209 39.8387 27.5607 39.9058 26.8004C39.9537 26.2519 40.2317 25.9247 40.7301 25.7129C42.6664 24.895 44.8519 23.9615 46.8648 23.0569C48.3889 22.3736 49.9034 21.6518 51.3125 20.7472C51.8589 20.4008 52.3956 20.0255 52.8653 19.5732C53.1721 19.2748 53.4213 18.8514 53.7951 18.6397C54.3511 18.3125 55.348 18.5723 55.4534 19.3133C55.5589 20.1121 55.0029 20.9782 54.5045 21.7192C55.8464 20.9301 57.3897 19.8907 57.984 18.4472C58.4154 17.3982 59.7381 17.3501 60.1599 18.4472C60.6488 19.7175 61.6457 20.6799 62.47 21.7288C63.2848 22.7682 64.0324 23.8652 64.7514 24.9719C65.3744 25.9343 66.1508 26.8966 66.3042 28.0515C66.4001 28.7443 66.4863 29.4372 66.5822 30.1301C66.9943 28.6481 67.3107 27.1276 67.464 25.5975C67.6557 23.6728 68.0775 17.9275 64.8184 18.1393C64.3008 18.1681 63.8887 17.7543 63.7353 17.3116C63.2656 16.0125 62.5659 14.6556 61.5019 13.7509C58.8083 11.8166 55.348 11.1622 52.0889 11.3066C49.1558 11.4317 46.3951 12.4614 44.0563 14.2321C42.9539 15.0694 41.9475 16.0702 41.0752 17.148C40.3659 18.0238 39.6182 19.0054 39.3211 20.1121C38.6501 22.5949 38.9664 25.4724 39.4553 27.9648C39.5319 28.3402 39.6278 28.7155 39.7236 29.0908L39.7141 29.0812Z" fill="var(--fill-0, #323232)"/>
<path id="Vector_18" d="M75.4531 271.208C75.4531 271.208 75.4918 271.179 75.5111 271.17C75.5111 271.17 75.5207 271.17 75.5304 271.16C75.5111 271.179 75.4821 271.199 75.4628 271.208H75.4531Z" fill="var(--fill-0, #78C8E6)"/>
<path id="Vector_19" d="M64.1264 28.2441C64.1264 28.2441 64.0974 28.1958 64.0781 28.1765C64.0781 28.2441 64.0974 28.3213 64.1071 28.3889C64.165 28.3696 64.2036 28.3116 64.1264 28.2441Z" fill="var(--fill-0, #78C8E6)"/>
<path id="Vector_20" d="M53.0338 60.6559C52.66 61.7337 52.2957 62.8115 51.9219 63.8894C52.0177 64.0145 52.0848 64.1492 52.1423 64.3032L53.1488 66.7187H54.3374C54.6154 65.8333 54.903 64.9576 55.1809 64.0722C55.248 63.8509 55.3726 63.6776 55.526 63.5333C55.2097 62.5709 54.8934 61.6086 54.5866 60.6462C54.0499 60.7713 53.5418 60.7425 53.0338 60.6462V60.6559Z" fill="var(--fill-0, #CBB0EC)"/>
<path id="Vector_21" d="M59.3064 278.56C61.5303 278.926 63.7637 279.292 65.9875 279.667C66.0259 279.33 66.0642 278.984 66.1025 278.647C66.1121 278.541 66.1409 278.435 66.1696 278.339C64.9044 278.089 63.6487 277.935 62.3642 277.848C61.3769 277.781 60.3704 277.685 59.4407 277.319C59.4215 277.319 59.4023 277.3 59.3735 277.29C59.3448 277.714 59.3256 278.137 59.2969 278.56H59.3064Z" fill="var(--fill-0, #D5D5D5)"/>
<path id="Vector_22" d="M40.8833 280.254C39.2154 281.332 37.097 281.852 35.247 282.198C32.7931 282.66 30.1955 282.978 27.6937 282.882C25.5944 282.805 23.6102 282.083 21.7698 281.111C21.7027 281.082 21.6452 281.044 21.5781 281.005C21.6069 281.303 21.6644 281.573 21.7986 281.794C22.2012 282.468 23.3323 282.814 24.0416 283.036C26.2463 283.719 28.6234 283.786 30.9144 283.69C32.9657 283.603 35.0553 283.363 37.0299 282.805C38.4198 282.41 39.6755 281.631 40.8737 280.813V280.254H40.8833Z" fill="var(--fill-0, #D5D5D5)"/>
<path id="Vector_23" d="M22.9047 279.147C23.7098 279.571 24.5246 279.946 25.4065 280.206C26.6526 280.581 27.8795 280.639 29.1736 280.591C31.4645 280.504 33.7554 280.264 35.9888 279.725C37.1008 279.455 38.2127 279.119 39.2287 278.58C39.8901 278.224 40.8487 277.646 40.887 276.992C40.9733 275.413 40.5132 273.758 40.3502 272.19C40.2256 271.006 40.0243 269.832 39.8901 268.648C36.056 270.236 31.5508 270.246 27.4578 269.37C26.5088 270.919 25.3681 272.334 24.1604 273.681C23.5469 274.355 22.665 275.038 22.272 275.875C21.9845 276.491 21.8503 277.28 21.8599 277.954C21.8599 278.705 22.2912 278.82 22.9142 279.157L22.9047 279.147ZM27.7741 271.612C30.4197 270.833 33.3528 271.218 35.7109 272.652C36.2476 272.979 36.401 273.652 36.1135 274.201C35.8355 274.74 35.0782 274.913 34.5702 274.605C32.6818 273.46 30.4772 273.181 28.3684 273.797C27.7645 273.98 27.1702 273.585 26.9785 273.008C26.7868 272.421 27.1989 271.785 27.7645 271.612H27.7741Z" fill="var(--fill-0, #898989)"/>
<path id="Vector_24" d="M64.069 28.1767C64.069 28.1767 64.069 28.1285 64.069 28.0997C64.069 28.0419 63.9918 27.8398 64.0304 27.7725C63.9918 27.8398 63.9724 27.8976 63.9531 27.9553C63.9531 27.9553 63.9531 27.9649 63.9531 27.9746C63.9821 28.0227 64.0207 28.1093 64.069 28.1767Z" fill="var(--fill-0, #78C8E6)"/>
<path id="Vector_25" d="M54.7995 74.1094C54.6941 72.791 54.5695 71.4726 54.4161 70.1541C54.3969 70.0194 54.3777 69.8847 54.3681 69.7403C54.3681 69.6922 54.3586 69.6345 54.349 69.596C54.3202 69.4131 54.2915 69.2207 54.2627 69.0378C54.2627 69.0186 54.2627 68.9993 54.2531 68.9801H53.3712C53.3521 69.0956 53.3329 69.211 53.3137 69.3265C53.2754 69.5479 53.2467 69.7692 53.2179 69.9905C53.1508 70.4525 53.1891 70.1445 53.1412 70.5968C52.9399 72.1751 52.7674 73.7533 52.6044 75.3412C51.713 83.8965 50.9749 92.471 50.2176 101.036C49.8822 104.876 49.5467 108.706 49.2016 112.546C49.0482 114.278 48.9236 116.02 48.7031 117.742C49.5083 118.368 50.3135 118.993 51.1091 119.648C51.7513 120.177 52.4031 120.716 53.007 121.303C53.0741 121.361 53.1412 121.438 53.1987 121.495C53.4288 121.322 53.6492 121.149 53.8793 120.957C54.5215 120.418 55.135 119.859 55.7485 119.282C56.3811 118.695 57.0137 118.089 57.6272 117.473C57.5314 116.857 57.493 116.231 57.4451 115.625C57.3109 114.105 57.2055 112.574 57.1 111.054C56.5441 102.614 56.1223 94.1647 55.6143 85.7249C55.3746 81.8563 55.135 77.978 54.8187 74.1094H54.7995Z" fill="var(--fill-0, #CBB0EC)"/>
<path id="Vector_26" d="M46.194 160.557C50.3733 159.614 54.543 158.661 58.7222 157.718L60.5051 157.314C61.9238 156.997 61.3199 154.812 59.9013 155.13C57.7637 155.611 55.6357 156.092 53.4982 156.583C53.3735 153.234 53.2489 149.894 53.1243 146.545C53.1052 146.035 53.086 145.535 53.0668 145.025C53.0093 143.572 50.7567 143.562 50.8142 145.025C50.9484 148.538 51.0826 152.05 51.2072 155.572C51.2264 156.082 51.2456 156.583 51.2647 157.093C49.9707 157.391 48.6767 157.68 47.373 157.978C46.7787 158.113 46.1844 158.248 45.5901 158.382C44.1715 158.7 44.7754 160.885 46.194 160.567V160.557Z" fill="var(--fill-0, #323232)"/>
<path id="Vector_27" d="M55.6921 161.981C57.3888 162.386 59.095 162.79 60.7916 163.204C61.0313 163.261 61.2709 163.319 61.5105 163.377C62.0857 163.512 62.7566 163.194 62.9004 162.588C63.0346 162.01 62.7279 161.346 62.1144 161.192C60.4178 160.788 58.7116 160.384 57.0149 159.97C56.7753 159.912 56.5357 159.855 56.296 159.797C55.7209 159.662 55.0499 159.98 54.9061 160.586C54.7719 161.163 55.0787 161.827 55.6921 161.981Z" fill="var(--fill-0, #323232)"/>
<path id="Vector_28" d="M64.0897 28.3882C64.0897 28.3208 64.0706 28.2439 64.061 28.1765C64.013 28.1091 63.9747 28.0225 63.9459 27.9744C63.9459 27.9744 63.9459 27.9648 63.9459 27.9552C63.8117 28.3305 63.9938 28.4267 64.0993 28.3882H64.0897Z" fill="var(--fill-0, #323232)"/>
<path id="Vector_29" d="M48.3235 31.6313C46.8761 31.6313 46.8665 33.8928 48.3235 33.8928C49.7805 33.8928 49.7805 31.6313 48.3235 31.6313Z" fill="var(--fill-0, #323232)"/>
<path id="Vector_30" d="M53.9599 41.2067C55.4073 41.2067 55.4169 38.9451 53.9599 38.9451C52.5029 38.9451 52.5029 41.2067 53.9599 41.2067Z" fill="var(--fill-0, #323232)"/>
<path id="Vector_31" d="M50.3357 45.1233C49.9427 45.5468 49.8564 46.307 50.3357 46.7208C51.2463 47.51 52.3966 47.8949 53.5948 47.9142C54.8313 47.9334 56.0007 47.4907 56.9497 46.7208C57.4098 46.3455 57.3715 45.5083 56.9497 45.1233C56.4704 44.6807 55.857 44.7192 55.3681 45.1137C55.3777 45.1041 55.3777 45.1041 55.3968 45.0848C55.3585 45.1137 55.3106 45.1426 55.2722 45.1715C55.186 45.2292 55.0901 45.2869 54.9942 45.3351C54.9847 45.3351 54.9272 45.3736 54.8697 45.4024C54.8409 45.4024 54.6779 45.4794 54.6492 45.489C54.4575 45.5564 54.1891 45.6623 53.9782 45.6526C54.0165 45.6526 54.0645 45.643 54.1028 45.6334C54.0453 45.6334 53.9878 45.643 53.9303 45.6526C53.8152 45.6526 53.7002 45.6623 53.5852 45.6526C53.4702 45.6526 53.3647 45.6526 53.2497 45.6334C53.2114 45.6334 53.1634 45.6334 53.1251 45.6238C53.0388 45.6141 53.0676 45.6238 53.221 45.6334C53.1443 45.6526 52.9813 45.5853 52.895 45.566C52.7896 45.5372 52.6842 45.5083 52.5787 45.4794C52.5116 45.4602 52.4062 45.4409 52.3487 45.3928C52.4925 45.4602 52.5116 45.4602 52.3966 45.412C52.3487 45.3928 52.3007 45.3639 52.2528 45.3447C52.157 45.2966 52.0707 45.2388 51.9844 45.1811C51.9652 45.1715 51.9461 45.1522 51.9365 45.1426C51.9269 45.1426 51.9365 45.1426 51.9077 45.1137C51.4572 44.7288 50.7479 44.6422 50.3166 45.1137L50.3357 45.1233Z" fill="var(--fill-0, #323232)"/>
<path id="Vector_32" d="M58.7454 31.6313C57.298 31.6313 57.2884 33.8929 58.7454 33.8929C60.2024 33.8929 60.2024 31.6313 58.7454 31.6313Z" fill="var(--fill-0, #323232)"/>
<path id="Vector_33" d="M57.5703 30.255C57.7812 30.1973 58.0017 30.1588 58.2126 30.1203C58.7589 30.0625 59.3149 30.0529 59.8517 30.1203C60.1296 30.1684 60.398 30.2261 60.6568 30.332C60.9061 30.4379 61.2991 30.3513 61.5291 30.2165C61.7592 30.0818 61.9892 29.8123 62.0468 29.5429C62.1139 29.2542 62.0947 28.927 61.9317 28.6671C61.7592 28.3977 61.5483 28.2629 61.2607 28.1475C60.6377 27.8876 59.9188 27.8203 59.2478 27.801C58.4905 27.7818 57.7045 27.8684 56.9664 28.0609C56.4009 28.2148 55.9887 28.8692 56.1804 29.4563C56.3722 30.0433 56.9568 30.4186 57.5703 30.2454V30.255Z" fill="var(--fill-0, #323232)"/>
<path id="Vector_34" d="M45.9253 30.2262C46.1746 30.361 46.5196 30.4572 46.7976 30.3417C47.0564 30.2359 47.3248 30.1685 47.6028 30.13C48.1492 30.0723 48.7051 30.0723 49.2419 30.13C49.4624 30.1685 49.6733 30.207 49.8841 30.2647C50.4497 30.4187 51.1399 30.0723 51.2741 29.4756C51.4083 28.879 51.0919 28.2534 50.488 28.0802C49.75 27.8781 48.9735 27.7915 48.2067 27.8204C47.5357 27.8396 46.8168 27.907 46.1937 28.1668C45.9062 28.2823 45.6857 28.4074 45.5228 28.6865C45.379 28.9271 45.3214 29.2831 45.4077 29.5622C45.494 29.8317 45.6665 30.1011 45.9253 30.2359V30.2262Z" fill="var(--fill-0, #323232)"/>
<path id="Vector_35" d="M50.1712 165.408L50.6889 165.764C50.7655 164.426 50.8422 163.088 50.9093 161.76C50.986 160.307 48.7334 160.307 48.6567 161.76C47.9474 175.339 47.1327 188.908 46.2029 202.468C45.2539 216.325 44.1899 230.183 42.9438 244.022C42.3016 251.22 41.6018 258.419 40.8542 265.607C36.301 268.446 30.2143 268.042 25.2873 266.454C25.7187 266.339 26.0829 265.992 26.0829 265.405C26.1884 249.353 26.3322 233.311 26.4664 217.259C26.6197 199.6 26.7827 181.941 26.9264 164.282C26.9648 159.913 26.9936 155.544 27.0319 151.174C27.0511 149.163 27.0606 147.142 27.0798 145.131C27.099 143.004 27.492 140.925 27.5303 138.799C27.5399 138.096 27.0223 137.73 26.4759 137.711C25.9008 137.692 25.2873 138.048 25.2777 138.799C25.2394 140.685 24.8464 142.542 24.8272 144.428C24.8081 146.18 24.7985 147.931 24.7889 149.683C24.7601 153.551 24.7314 157.42 24.7026 161.289C24.6355 169.844 24.5588 178.399 24.4822 186.955C24.3288 204.662 24.1659 222.359 24.0125 240.067C23.9454 248.516 23.8783 256.956 23.8208 265.405C23.8208 265.925 24.1083 266.262 24.4726 266.406C23.6195 266.714 23.4373 268.225 24.5588 268.6C24.7505 268.668 24.9519 268.716 25.1436 268.783C24.185 270.217 23.0635 271.535 21.8845 272.806C21.2998 273.431 20.648 274.047 20.2646 274.827C19.9003 275.568 19.7278 276.395 19.6319 277.213C19.5936 277.512 19.584 277.82 19.584 278.128C19.4977 278.282 19.4306 278.464 19.4306 278.686C19.4115 279.927 19.1526 281.323 19.6319 282.516C20.0537 283.565 21.0314 284.238 22.0283 284.691C24.2905 285.74 26.8689 285.99 29.3228 286C31.7671 286.009 34.2402 285.778 36.627 285.249C38.707 284.787 40.5091 283.805 42.2728 282.603C43.078 282.054 43.1259 281.486 43.1259 280.582V277.964C43.1259 277.8 43.0972 277.666 43.0492 277.541C43.2793 276.376 42.963 275.058 42.8 273.903C42.6466 272.758 42.5604 271.612 42.4262 270.467C42.3207 269.582 42.1099 268.716 42.0332 267.821C42.0332 267.792 42.0236 267.773 42.0236 267.744C42.4933 267.648 42.9342 267.301 42.9917 266.695C44.42 253.174 45.6277 239.634 46.7013 226.074C47.8036 212.226 48.7622 198.368 49.6057 184.501C49.9891 178.265 50.3438 172.029 50.6793 165.783L50.1617 165.427L50.1712 165.408ZM40.8829 280.813C39.6847 281.621 38.429 282.41 37.0391 282.805C35.055 283.363 32.9749 283.603 30.9236 283.69C28.6327 283.786 26.2555 283.719 24.0508 283.036C23.3415 282.814 22.2104 282.468 21.8078 281.794C21.6736 281.573 21.6161 281.303 21.5874 281.005C21.6545 281.043 21.712 281.072 21.779 281.111C23.6195 282.092 25.6036 282.805 27.7029 282.882C30.2047 282.978 32.8024 282.67 35.2562 282.198C37.1062 281.852 39.2246 281.332 40.8925 280.254V280.813H40.8829ZM40.8733 276.992C40.835 277.656 39.8764 278.224 39.215 278.58C38.199 279.128 37.0871 279.456 35.9751 279.725C33.7513 280.264 31.4508 280.514 29.1599 280.591C27.8754 280.639 26.6389 280.572 25.3928 280.206C24.5109 279.946 23.6961 279.571 22.891 279.148C22.2583 278.811 21.8366 278.695 21.8366 277.945C21.8366 277.271 21.9612 276.482 22.2487 275.866C22.6417 275.029 23.5236 274.346 24.1371 273.672C25.3544 272.325 26.4855 270.9 27.4345 269.361C31.5275 270.236 36.0231 270.236 39.8668 268.639C40.001 269.822 40.2023 270.997 40.327 272.18C40.4899 273.749 40.95 275.404 40.8637 276.982L40.8733 276.992Z" fill="var(--fill-0, #323232)"/>
<path id="Vector_36" d="M78.8764 143.495C78.771 141.358 78.0617 139.289 78.0233 137.153C78.0137 136.662 77.7453 136.345 77.4098 136.181L76.6046 136.133H76.4896C76.087 136.258 75.7515 136.585 75.7707 137.143C75.8091 139.097 76.3842 140.993 76.5855 142.927C76.758 144.64 76.6238 146.42 76.5951 148.143C76.5471 152.012 76.4705 155.871 76.3746 159.739C76.1733 168.285 75.8953 176.84 75.6078 185.386C75.0039 203.112 74.3041 220.839 73.844 238.575C73.6236 246.909 73.451 255.243 73.4702 263.586C73.4702 264.558 74.4767 264.876 75.1381 264.558C75.4736 264.395 75.7228 264.077 75.7228 263.586C75.6845 247.631 76.2596 231.675 76.8059 215.729C77.4098 198.031 78.1096 180.343 78.5601 162.646C78.6751 158.248 78.771 153.85 78.8285 149.452C78.8572 147.469 78.9723 145.468 78.8764 143.485V143.495Z" fill="var(--fill-0, #323232)"/>
<path id="Vector_37" d="M77.3929 136.181C77.1437 136.065 76.8465 136.027 76.5781 136.094V136.143L77.3929 136.191V136.181Z" fill="var(--fill-0, #323232)"/>
<path id="Vector_38" d="M76.5813 136.085C76.5813 136.085 76.5134 136.114 76.4844 136.123H76.6006L76.5909 136.085H76.5813Z" fill="var(--fill-0, #323232)"/>
<path id="Vector_39" d="M62.7778 262.104C65.6822 262.335 68.5961 261.488 71.0308 259.91C71.5389 259.583 71.7498 258.909 71.4335 258.361C71.1363 257.851 70.4078 257.62 69.8902 257.957C69.4397 258.255 68.97 258.505 68.5003 258.736C68.5003 258.688 68.5195 258.64 68.5195 258.592C68.6537 254.088 68.6536 249.575 68.692 245.071C68.7591 236.891 68.8166 228.701 68.8741 220.521C68.9316 211.013 68.9891 201.505 69.0562 191.997C69.1138 183.519 69.1617 175.05 69.2384 166.572C69.2767 161.481 69.3055 156.4 69.4109 151.309C69.4109 151.03 69.4205 150.751 69.4301 150.481C69.4684 149.028 67.2158 149.028 67.1775 150.481C67.0433 154.985 67.0433 159.499 67.0049 164.002C66.9378 172.182 66.8803 180.372 66.8228 188.552C66.7653 198.06 66.7078 207.568 66.6407 217.076C66.5832 225.554 66.5353 234.023 66.4586 242.501C66.4202 247.592 66.3915 252.673 66.286 257.764C66.286 258.043 66.2764 258.322 66.2669 258.592C66.2573 258.986 66.4106 259.275 66.6503 259.448C65.4138 259.804 64.1293 259.949 62.7873 259.843C62.1834 259.795 61.6562 260.401 61.6562 260.978C61.6562 261.633 62.1739 262.066 62.7873 262.114L62.7778 262.104Z" fill="var(--fill-0, #323232)"/>
<path id="Vector_40" d="M28.0853 260.218C28.3824 260.728 29.1109 260.949 29.6285 260.622C30.0311 260.372 30.4241 260.112 30.8267 259.862C30.8171 260.314 30.7979 260.767 30.7884 261.219C30.75 262.672 33.0026 262.672 33.0409 261.219C33.0697 260.276 33.108 259.333 33.1368 258.39C35.0347 257.177 36.9326 255.965 38.821 254.752C39.3386 254.425 39.5399 253.741 39.2236 253.203C38.9264 252.693 38.1979 252.471 37.6803 252.798C36.1946 253.751 34.7088 254.694 33.2231 255.647C33.4244 249.459 33.6544 243.261 33.9132 237.074C34.3062 227.585 34.7376 218.096 35.1881 208.617C35.6194 199.494 36.07 190.371 36.5301 181.248C36.8847 174.174 37.249 167.101 37.6228 160.028C37.7858 156.833 38.15 153.59 38.1308 150.385C38.1308 150.337 38.1308 150.289 38.1308 150.25C38.2075 148.797 35.9549 148.797 35.8782 150.25C35.7345 152.878 35.6003 155.505 35.4565 158.122C35.1018 164.82 34.7567 171.518 34.4213 178.216C33.9707 187.176 33.5202 196.135 33.0985 205.104C32.6479 214.641 32.207 224.188 31.8044 233.725C31.4785 241.52 31.1622 249.315 30.9226 257.119C30.1174 257.639 29.3122 258.149 28.507 258.669C27.9894 258.996 27.7881 259.679 28.1044 260.218H28.0853Z" fill="var(--fill-0, #323232)"/>
<path id="Vector_41" d="M75.5961 136.075C75.529 135.575 75.1743 135.122 74.5225 135.122C59.8375 135.286 45.1526 135.449 30.4676 135.613C29.7103 135.613 29.3557 136.239 29.3844 136.826C29.4132 137.364 29.7679 137.884 30.4676 137.875C32.0588 137.855 33.6404 137.836 35.2316 137.817V143.697C35.2316 144.293 35.7492 144.852 36.3627 144.832C36.9761 144.803 37.4938 144.332 37.4938 143.697V137.798C37.9826 137.798 38.4811 137.788 38.9699 137.778C38.9507 139.491 38.9412 141.195 38.922 142.908C38.922 143.167 38.922 143.437 38.922 143.697C38.922 144.293 39.4492 144.852 40.0531 144.832C40.6665 144.803 41.1746 144.332 41.1842 143.697C41.2033 141.859 41.2129 140.03 41.2321 138.192C41.2321 138.048 41.2321 137.894 41.2321 137.749C48.7567 137.663 56.2717 137.586 63.7963 137.499C63.7963 137.509 63.7963 137.518 63.7963 137.538V143.697C63.7963 144.293 64.3139 144.852 64.9274 144.832C65.5409 144.803 66.0585 144.332 66.0585 143.697V137.538C66.0585 137.538 66.0585 137.499 66.0585 137.48C66.5569 137.48 67.0458 137.47 67.5442 137.461C67.5251 139.28 67.5155 141.089 67.4963 142.908C67.4963 143.167 67.4963 143.437 67.4963 143.697C67.4963 144.293 68.0235 144.852 68.6274 144.832C69.2409 144.803 69.7489 144.332 69.7585 143.697C69.7777 141.859 69.7872 140.03 69.8064 138.192C69.8064 137.942 69.8064 137.682 69.8064 137.432C71.3976 137.413 72.9792 137.393 74.5704 137.374C75.366 137.374 75.7302 136.672 75.644 136.056L75.5961 136.075Z" fill="var(--fill-0, #323232)"/>
<path id="Vector_42" d="M58.3576 139.491C53.5265 139.568 48.6859 139.636 43.8548 139.713C42.4074 139.732 42.3978 142.003 43.8548 141.974C48.6859 141.897 53.5265 141.83 58.3576 141.753C59.805 141.734 59.8146 139.462 58.3576 139.491Z" fill="var(--fill-0, #323232)"/>
<path id="Vector_43" d="M71.9245 140.617C71.7615 140.598 71.5986 140.579 71.4356 140.569C71.1672 140.54 70.8221 140.713 70.64 140.896C70.4483 141.089 70.295 141.416 70.3141 141.695C70.3237 141.984 70.4196 142.292 70.64 142.494C70.8701 142.706 71.1193 142.792 71.4356 142.821C72.5667 142.936 73.6882 143.052 74.8193 143.167C74.9823 143.187 75.1452 143.196 75.3081 143.216C75.5765 143.244 75.9216 143.071 76.1038 142.888C76.2955 142.696 76.4488 142.369 76.4297 142.09C76.4201 141.801 76.3242 141.493 76.1038 141.291C75.8737 141.079 75.6245 140.993 75.3081 140.964C74.1771 140.848 73.0556 140.733 71.9245 140.617Z" fill="var(--fill-0, #323232)"/>
<path id="Vector_44" d="M46.128 135.064C53.8443 131.985 60.9663 127.654 67.2352 122.188C68.3375 121.235 66.7368 119.638 65.644 120.591C59.6914 125.778 52.8666 129.964 45.5337 132.89C44.2013 133.419 44.786 135.613 46.1376 135.074L46.128 135.064Z" fill="var(--fill-0, #323232)"/>
<path id="Vector_45" d="M26.4609 137.009C26.4609 137.009 26.5185 137.009 26.5568 137.009C26.7677 137.009 26.969 136.932 27.1415 136.826H26.4609V136.999V137.009Z" fill="var(--fill-0, #323232)"/>
<path id="Vector_46" d="M25.9531 136.835C26.0969 136.932 26.2694 136.999 26.4516 137.009V136.835H25.9531Z" fill="var(--fill-0, #323232)"/>
<path id="Vector_47" d="M97.2081 103.894C96.6617 100.949 96.0003 98.0334 95.3197 95.1175C93.7669 88.4196 91.9744 81.7312 90.8625 74.937C90.7666 74.3308 90.0093 74.0035 89.4726 74.1479C88.907 74.3019 88.3319 74.4559 87.7663 74.6098C87.6513 74.3981 87.5363 74.196 87.4213 73.9939C87.2487 73.6667 87.0858 73.3395 86.9516 72.9931C86.6065 72.0981 87.3638 71.0973 87.8239 70.3178C88.5236 69.1437 89.2329 67.9792 89.8943 66.7763C90.479 65.7177 91.1884 64.534 91.3993 63.3311C91.4088 63.2734 91.4088 63.2156 91.4088 63.1579C91.4088 63.1194 91.428 63.0809 91.4376 63.0328C91.6293 61.4545 91.2555 59.7512 90.8146 58.2403C90.3544 56.662 89.7314 54.9971 88.6578 53.7268C87.1721 51.9657 84.8716 52.5624 83.7117 54.1407C83.2133 53.8327 82.6573 53.6595 82.0534 53.7172C81.1044 53.8135 80.3088 54.439 79.8583 55.2474C79.1298 54.9875 78.4205 55.0068 77.5482 55.5746C76.9923 55.9306 76.5705 56.3829 76.283 56.893C75.2381 56.5273 73.9728 56.6428 73.0335 57.1528C72.0845 57.6629 71.7394 58.4809 71.5381 59.4913C71.3464 60.4537 70.8959 61.3487 70.8863 62.3495C70.8863 62.4457 70.8863 62.542 70.8959 62.6382C70.4358 62.4265 69.9853 62.2244 69.5252 62.0127L66.755 55.3147C66.5345 54.7758 65.9977 54.3043 65.3651 54.5256C65.2309 54.5737 65.0871 54.6218 64.9529 54.67C64.8187 53.2938 64.7037 51.908 64.627 50.5319C64.6174 50.2913 64.5311 50.0603 64.3969 49.8678C65.7101 47.7218 66.4195 45.3737 66.8413 42.9293C67.8861 42.6598 68.9884 42.3711 69.7361 41.6109C70.9726 40.3694 71.634 38.1945 71.4327 36.4719C71.241 34.8456 70.34 32.9978 68.6433 32.5455C68.5091 32.5071 68.3749 32.4974 68.2407 32.4782C69.1322 29.8317 69.6786 27.0313 69.8032 24.279C69.9374 21.2283 69.276 16.2433 65.576 15.8777C64.9817 14.4341 64.1573 12.9906 62.9687 12.0283C62.9304 11.9994 62.892 11.9801 62.8537 11.9513C62.8153 11.9128 62.7866 11.8839 62.7387 11.8454C60.0835 9.89184 56.6615 9.09309 53.412 9.00648C50.105 8.91987 46.8747 9.69937 44.0565 11.4605C41.4876 13.058 39.0529 15.4446 37.6343 18.1488C36.3786 20.5547 36.5895 23.7304 36.9058 26.3384C37.1454 28.3016 37.6247 30.1782 38.219 32.0355C37.3563 32.0644 36.5224 32.4108 35.9185 33.0845C34.9024 34.22 34.6724 35.8753 34.8258 37.338C34.9695 38.7431 35.4009 40.2636 36.5032 41.2259C37.2509 41.8803 38.219 42.3326 39.2063 42.5828C39.6568 45.2197 40.3757 47.8565 41.8327 50.118C41.8998 50.2239 41.9765 50.3201 42.0532 50.426C42.0628 51.09 42.0532 51.7637 42.034 52.4277C42.0149 53.034 41.9861 53.6402 41.9382 54.2465C41.9382 54.362 41.9094 54.4871 41.8998 54.6026C41.8135 54.5737 41.7273 54.5449 41.641 54.516C41.0659 54.3235 40.4045 54.7373 40.2511 55.3051C39.6952 57.4608 39.1392 59.6164 38.5737 61.7721C38.5449 61.8202 38.5161 61.8683 38.4874 61.9261C37.1933 62.4457 35.9473 62.898 34.5286 63.1483C31.9214 63.6198 29.2086 63.6583 26.6589 64.4089C21.8566 65.8236 17.7827 69.5575 14.9167 73.532C14.7537 73.763 14.6962 73.9843 14.7058 74.1864C14.6675 74.2249 14.6387 74.2634 14.6004 74.3019C11.2263 79.0366 7.89054 83.7906 4.64106 88.612C2.23511 92.1823 -0.333805 95.6564 -2.53847 99.3518C-4.71437 103.009 -6.8711 107.185 -6.99571 111.535C-7.06281 113.71 -6.33431 115.567 -5.42369 117.502C-4.21592 120.071 -1.34986 121.409 0.941068 122.843C6.40479 126.269 11.8302 129.714 17.754 132.293C18.3483 132.822 19.0576 133.246 19.9011 133.506C21.339 133.948 23.0164 133.9 24.3584 133.178C24.6939 132.996 25.0006 132.774 25.2978 132.524C25.3361 133.631 25.3649 134.747 25.4032 135.854C25.4128 136.239 25.6237 136.595 25.94 136.806H26.4385H27.119C27.4449 136.614 27.675 136.268 27.6654 135.854C27.6079 134.112 27.5504 132.37 27.5024 130.628C29.64 130.253 31.7967 130.147 33.9343 129.897C35.7076 129.685 37.0496 128.193 36.9633 126.375C36.9345 125.865 36.8099 125.422 36.599 125.047C36.6182 125.027 36.647 125.018 36.6661 124.998C37.6918 124.046 37.9602 122.602 37.4809 121.476C38.4203 121.072 39.1488 120.312 39.4364 119.176C39.9444 117.213 38.219 115.779 36.4745 115.452C36.3882 115.433 36.3019 115.413 36.2061 115.404C33.4071 115.25 30.6273 115.404 27.8283 115.519C28.1351 115.096 28.4322 114.663 28.7198 114.23C30.5314 113.508 32.3527 112.777 34.1068 111.92C35.0846 111.439 36.0143 110.833 36.4936 109.803C37.0304 108.629 36.7332 107.253 35.6501 106.512C34.1835 105.501 32.4198 105.925 30.8765 106.444C29.1415 107.022 27.3299 107.407 25.7004 108.244C25.3744 103.182 25.0294 98.1104 24.6364 93.0484C24.2817 88.4965 23.9079 83.9446 23.4478 79.4023C23.304 77.9684 21.0418 77.9492 21.1952 79.4023C21.6649 84.0986 22.0579 88.7949 22.4221 93.5007C22.7001 97.1192 22.9493 100.747 23.1986 104.366C23.3232 106.233 23.4382 108.1 23.5628 109.967C23.074 110.534 22.633 111.15 22.1537 111.785C21.4348 112.757 20.6776 113.7 19.9299 114.653C15.9807 112.372 12.7504 109.004 8.75323 106.8C7.47836 106.098 6.33769 108.051 7.61256 108.754C11.533 110.91 14.725 114.201 18.5783 116.472C17.7828 117.646 17.1405 118.839 16.7667 120.293C16.3066 122.092 16.019 123.988 15.7315 125.826C15.5685 126.865 15.6068 127.934 15.8465 128.934C11.8877 126.991 8.11101 124.671 4.37267 122.313C3.12656 121.524 1.88044 120.745 0.634326 119.965C-0.515931 119.253 -1.73328 118.57 -2.67266 117.569C-3.4395 116.761 -3.88043 115.529 -4.27344 114.499C-4.57059 113.71 -4.71437 112.882 -4.72395 112.045C-4.80064 108.013 -2.68225 104.067 -0.698055 100.709C1.29573 97.3309 3.63459 94.1936 5.81049 90.9409C9.3092 85.7153 12.9229 80.5571 16.5654 75.4374C16.7283 75.2161 16.7859 74.9851 16.7667 74.7831C16.805 74.7446 16.8434 74.7061 16.8721 74.6676C18.7509 72.0596 21.0706 69.8173 23.8408 68.191C24.9239 67.5558 26.0646 66.9399 27.2628 66.5838C28.7294 66.1508 30.2535 65.9872 31.768 65.8043C33.4454 65.5926 35.1421 65.3905 36.7812 64.9767C37.6343 64.7554 38.4203 64.3897 39.2255 64.0529C39.4364 63.9663 39.6281 63.8796 39.8006 63.793C42.6379 64.7842 45.4656 65.7755 48.3029 66.7571C48.7535 66.911 49.1944 67.065 49.6449 67.2286C50.0762 67.3826 50.5076 67.1805 50.7856 66.8533C50.9389 67.2286 51.1019 67.6039 51.2553 67.9889C50.7281 69.8173 50.6897 71.896 50.4884 73.7726C50.0762 77.5931 49.712 81.4233 49.3573 85.2534C48.5618 93.828 47.8236 102.402 47.0568 110.977C46.913 112.565 46.7693 114.153 46.6255 115.741C46.5776 116.251 46.5296 116.751 46.4721 117.261C46.4529 117.444 46.4338 117.627 46.4146 117.81C46.4146 117.877 46.3954 117.944 46.3858 118.012C46.3667 118.156 46.3858 118.012 46.405 117.916C46.3283 118.464 46.4817 118.839 46.9226 119.176C47.5073 119.619 48.3029 120.254 49.0314 120.841C49.5778 121.284 50.1242 121.736 50.661 122.208C50.9102 122.419 51.1498 122.641 51.3895 122.872C51.4661 122.949 51.9071 123.43 51.7537 123.228C52.4918 124.171 53.249 124.171 54.2076 123.507C55.2812 122.766 56.2493 121.861 57.1983 120.985C57.9747 120.264 58.7799 119.552 59.5084 118.782C60.0164 118.243 59.9589 117.713 59.8438 117.04C59.8438 117.03 59.8438 117.021 59.8438 117.011C59.8438 116.992 59.8438 116.972 59.8438 116.934C59.8342 116.818 59.8151 116.703 59.8055 116.588C59.7672 116.26 59.7384 115.923 59.7097 115.596C59.633 114.749 59.5659 113.912 59.5084 113.065C58.6936 101.854 58.2431 90.6137 57.4762 79.3927C57.3037 76.8713 57.1216 74.35 56.8819 71.8286C56.7573 70.5487 56.7094 69.1533 56.3547 67.9023L56.671 66.911C56.8532 67.4307 57.4667 67.9119 58.0418 67.6713C60.9462 66.4684 63.8506 65.275 66.7646 64.0721C67.1192 63.9278 67.4739 63.7834 67.8286 63.6294C67.9052 63.6872 67.9915 63.7449 68.0874 63.793C69.8415 64.5725 71.5861 65.3809 73.3115 66.2278C73.1485 66.6223 73.0047 67.0073 72.9089 67.3826C72.4679 69.2303 72.4104 71.2994 73.1772 73.0701C73.877 74.6964 74.3659 76.4383 74.8164 78.1705C74.5863 78.3438 74.4425 78.6325 74.4904 79.027C75.171 85.2149 76.6759 91.297 77.9412 97.3886C77.7879 99.4 77.6249 101.411 77.4715 103.423C76.8197 111.766 76.1008 120.1 75.3627 128.434C75.2094 130.147 75.056 131.86 74.9026 133.573C74.826 134.429 75.5832 134.776 76.2446 134.612C76.6951 134.506 77.1073 134.16 77.1552 133.573C77.6058 128.713 78.0275 123.853 78.4397 119.003C78.8039 114.749 79.1586 110.505 79.5037 106.252C79.5612 106.704 79.6283 107.166 79.6858 107.628C80.0596 110.862 80.7594 114.268 83.5104 116.328C85.648 117.935 88.6386 118.474 91.2459 118.147C94.1886 117.781 96.4604 116.212 97.4573 113.354C98.5117 110.332 97.8024 106.926 97.2368 103.875L97.2081 103.894ZM18.31 124.383C18.5879 122.698 18.7892 120.918 19.4794 119.34C20.1408 117.829 21.3486 116.511 22.3646 115.231C23.1315 114.249 23.9175 113.277 24.6268 112.257C25.547 110.948 26.6302 110.217 28.1447 109.687C28.9594 109.408 29.803 109.177 30.6273 108.927C31.4708 108.667 32.3431 108.215 33.2154 108.186C33.5988 108.177 34.1739 108.167 34.4711 108.465C34.5669 108.571 34.5765 108.706 34.4327 108.956C34.011 109.726 32.7744 110.101 32.0268 110.428C30.8957 110.939 29.7454 111.41 28.5952 111.882C27.9817 112.132 27.3682 112.295 26.9656 112.863C26.1796 113.98 25.3936 115.086 24.5789 116.183C24.0517 116.886 24.7706 117.906 25.5566 117.887C29.1224 117.81 32.6594 117.492 36.2252 117.694C37.3563 117.839 37.663 119.118 36.5128 119.532C36.1485 119.667 35.6309 119.571 35.2475 119.58C34.682 119.6 34.1164 119.629 33.5509 119.657C32.8128 119.706 32.0747 119.754 31.3366 119.811C30.7711 119.84 30.2055 119.888 29.6304 119.927C28.4514 120.004 27.2724 120.062 26.103 120.042C24.646 120.023 24.6651 122.217 26.103 122.304C27.2724 122.371 28.461 122.275 29.6496 122.179C29.8892 122.16 30.1384 122.14 30.3781 122.121C30.6656 122.102 30.9628 122.073 31.2504 122.063C31.9597 122.025 32.669 121.996 33.3879 122.034C33.9055 122.063 34.8161 121.9 35.2858 122.188C35.5734 122.362 35.583 122.631 35.4392 122.968C35.2187 123.488 34.7778 123.593 34.2794 123.613C33.4934 123.642 32.7169 123.651 31.9405 123.709C30.196 123.824 28.461 123.998 26.726 124.123C25.2978 124.229 25.2594 126.423 26.726 126.384C28.7965 126.336 30.8669 126.134 32.9374 126.047C33.3592 126.028 33.7809 126.009 34.2027 126.009C34.3273 126.009 34.4711 125.999 34.5957 126.009C34.6244 126.047 34.7011 126.096 34.6915 126.173C34.6628 126.654 34.8257 126.933 34.4327 127.308C33.9918 127.741 33.3975 127.626 32.8416 127.664C30.7327 127.789 28.5472 128.097 26.4768 128.511C25.3169 128.742 24.6843 130.186 23.7641 130.888C22.8056 131.619 21.5307 131.677 20.4092 131.283C19.2206 130.869 18.4154 129.858 18.0799 128.665C17.6677 127.202 18.0799 125.797 18.31 124.344V124.383ZM39.3118 20.1024C39.6089 18.9957 40.3661 18.0237 41.0659 17.1383C41.9382 16.0605 42.9351 15.0597 44.047 14.2224C46.3954 12.4517 49.1465 11.422 52.0796 11.2969C55.3387 11.1525 58.799 11.8165 61.4925 13.7412C62.5469 14.6458 63.2563 16.0124 63.726 17.3019C63.8889 17.7446 64.3011 18.168 64.8091 18.1295C68.0682 17.9178 67.6464 23.6631 67.4547 25.5878C67.3013 27.1179 66.985 28.6384 66.5729 30.1204C66.477 29.4275 66.3907 28.7346 66.2949 28.0417C66.1415 26.8869 65.3651 25.9246 64.742 24.9622C64.0231 23.8459 63.2754 22.7585 62.4607 21.7191C61.6363 20.6702 60.6394 19.7078 60.1506 18.4375C59.7288 17.3404 58.406 17.3885 57.9747 18.4375C57.3804 19.8714 55.8371 20.9107 54.4951 21.7095C54.9936 20.9685 55.5495 20.0927 55.4441 19.3036C55.3387 18.5626 54.3514 18.2932 53.7858 18.63C53.412 18.8513 53.1724 19.2747 52.856 19.5635C52.3864 20.0158 51.8496 20.3814 51.3032 20.7375C49.8941 21.6325 48.37 22.3543 46.8555 23.0472C44.8426 23.9518 42.6571 24.8949 40.7208 25.7032C40.2224 25.915 39.9348 26.2422 39.8965 26.7907C39.8294 27.5509 39.7719 28.3112 39.7048 29.0715C39.6089 28.6961 39.5131 28.3208 39.4364 27.9455C38.9475 25.4627 38.6312 22.5756 39.3022 20.0927L39.3118 20.1024ZM53.2778 19.2844C53.3928 19.0534 53.3161 19.0342 53.2778 19.2844ZM41.296 41.3414C41.2384 40.995 40.855 40.6004 40.5099 40.5523C38.8612 40.3117 37.6055 39.5707 37.2125 37.8962C36.9729 36.8665 37.0208 33.2673 38.9954 34.4991C39.0433 34.528 39.0817 34.5472 39.1296 34.5665C39.1871 34.7108 39.2351 34.8552 39.2926 34.9995C39.7431 36.2025 41.4014 36.0004 41.5068 34.7012C41.7081 32.3242 41.9094 29.9472 42.1011 27.5702C43.9703 26.7811 45.8395 25.9823 47.6895 25.1547C48.6768 24.712 49.6737 24.2501 50.6322 23.74C50.6034 23.7882 50.5747 23.8459 50.5363 23.894C50.0571 24.6832 50.8718 25.915 51.8112 25.5589C54.3322 24.5965 57.2174 23.1626 59.0003 20.9685C60.0068 22.5082 61.3296 23.8748 62.3361 25.3953C62.892 26.2325 63.4288 27.089 63.9464 27.9551C63.9656 27.8974 63.9848 27.8493 64.0231 27.7723C63.9944 27.83 64.0615 28.0321 64.0615 28.0995C64.0615 28.1284 64.0615 28.1476 64.0615 28.1765C64.0806 28.1957 64.0902 28.2342 64.1094 28.2438C64.1861 28.3112 64.1477 28.3689 64.0902 28.3882C64.3203 30.5823 64.6749 32.7669 64.9721 34.9514C65.0967 35.9138 66.5441 36.6836 67.0713 35.5192C67.1863 35.2594 67.3014 34.9899 67.4164 34.7204C67.5985 34.682 67.7902 34.6723 67.9819 34.7204C68.9788 34.9514 69.3047 36.4719 69.228 37.3477C69.1418 38.3004 68.7488 39.8017 67.819 40.2828C67.1576 40.6197 66.2949 40.7448 65.576 40.9469C65.2309 41.0431 64.8475 41.3607 64.7899 41.736C64.0902 46.2013 62.3265 50.6473 58.1664 52.9473C53.4407 55.5553 47.2006 53.7942 44.1141 49.454C42.427 47.077 41.7369 44.1996 41.296 41.3607V41.3414ZM49.2615 64.7169C46.5392 63.7642 43.8265 62.8211 41.1042 61.8683C41.0467 61.8491 40.9892 61.8298 40.9317 61.8106C41.018 61.4738 41.0946 61.1466 41.1809 60.8194C41.5068 59.5779 41.8231 58.3269 42.149 57.0855C42.1778 57.0855 42.197 57.1047 42.2257 57.1143C42.3216 57.1817 42.427 57.2298 42.5516 57.2587C42.6092 57.2683 42.6667 57.2779 42.7338 57.2779C45.4561 58.1825 48.1687 59.0968 50.891 60.0014C50.3542 61.57 49.8078 63.1482 49.2711 64.7169H49.2615ZM57.0928 111.054C57.1982 112.575 57.2941 114.105 57.4379 115.625C57.4954 116.231 57.5242 116.867 57.62 117.473C56.997 118.079 56.3739 118.685 55.7413 119.282C55.1278 119.85 54.5047 120.418 53.8721 120.957C53.6516 121.149 53.4312 121.332 53.1915 121.495C53.1244 121.428 53.0573 121.361 52.9998 121.303C52.3959 120.716 51.7537 120.177 51.1019 119.648C50.3159 118.993 49.5107 118.368 48.6959 117.742C48.9068 116.02 49.0314 114.278 49.1944 112.546C49.5395 108.706 49.8749 104.876 50.2104 101.036C50.9677 92.471 51.7058 83.8965 52.5972 75.3412C52.7602 73.763 52.9327 72.1751 53.134 70.5968C53.1915 70.1445 53.1436 70.4525 53.2107 69.9906C53.2395 69.7692 53.2778 69.5479 53.3066 69.3265C53.3257 69.2111 53.3449 69.0956 53.3641 68.9801H54.2459C54.2459 68.9801 54.2459 69.0186 54.2555 69.0378C54.2843 69.2207 54.313 69.4131 54.3418 69.596C54.3418 69.6345 54.3514 69.6922 54.3609 69.7403C54.3801 69.8751 54.3993 70.0098 54.4089 70.1542C54.5718 71.4726 54.6869 72.791 54.7923 74.1094C55.1086 77.9781 55.3579 81.8467 55.5879 85.725C56.0959 94.1648 56.5177 102.614 57.0736 111.054H57.0928ZM51.9262 63.8796C52.3001 62.8018 52.6643 61.724 53.0382 60.6461C53.5462 60.7424 54.0542 60.7712 54.591 60.6461C54.9073 61.6085 55.2236 62.5708 55.5304 63.5332C55.377 63.6679 55.2524 63.8508 55.1853 64.0721C54.9073 64.9575 54.6198 65.8332 54.3418 66.7186H53.1532L52.1467 64.3031C52.0796 64.1491 52.0125 64.0144 51.9262 63.8893V63.8796ZM54.8786 58.1825C54.6485 58.2595 54.3897 58.3269 54.1692 58.4327C54.1692 58.4327 54.1597 58.4327 54.1501 58.4327C54.083 58.4327 53.9392 58.4616 53.8433 58.4616C53.6804 58.4616 53.3737 58.4135 53.3641 58.4327C53.1819 58.3461 52.9423 58.298 52.7506 58.2307C50.7089 57.5474 48.6768 56.8641 46.635 56.1905L44.0949 55.3436C44.2003 54.5545 44.2674 53.7461 44.2962 52.9473C45.6094 54.1118 47.1431 55.026 48.8014 55.6323C53.7762 57.4512 58.9907 55.9499 62.499 52.3218C62.5757 53.3612 62.662 54.4005 62.777 55.4302C60.141 56.3444 57.505 57.2587 54.869 58.1825H54.8786ZM58.6552 64.996C58.5786 65.0248 58.4923 65.0633 58.4156 65.0922C57.8501 63.3696 57.2941 61.647 56.7286 59.9244C58.0514 59.4625 59.3838 59.0005 60.7066 58.5386C61.7705 58.1729 62.8249 57.7976 63.8889 57.4319C63.9273 57.4319 63.9656 57.4415 64.004 57.4415C64.2724 57.4319 64.5599 57.3068 64.7804 57.1239C64.8667 57.0951 64.9625 57.0566 65.0488 57.0277C65.6718 58.5386 66.3045 60.0591 66.9371 61.57C64.1765 62.7056 61.4159 63.8508 58.6552 64.9863V64.996ZM75.3436 67.0939C76.0146 65.2847 77.0402 63.4466 76.6568 61.4738C76.6376 61.3294 76.6184 61.1947 76.5705 61.06C76.12 59.6838 73.9729 60.2612 74.3946 61.6662C74.3946 61.6951 74.4042 61.724 74.4138 61.7529C74.4138 61.7721 74.3946 61.7913 74.385 61.8202C74.3275 61.9934 74.27 62.1089 74.1741 62.2629C74.0495 62.465 73.7332 62.9943 73.4744 63.0231C73.0047 63.0809 73.1773 62.0031 73.2539 61.7144C73.3786 61.2428 73.5703 60.8097 73.6757 60.3382C73.7428 60.0206 73.7236 59.4817 73.9441 59.2315C74.3754 58.7599 75.6407 58.7984 75.9283 59.3758C76.4555 60.4344 77.9892 59.857 78.0275 58.8081C78.0563 58.2306 78.2192 57.8553 78.6889 57.5281C79.2449 57.1336 79.5037 57.557 80.0309 57.8938C80.9223 58.452 81.8713 57.5378 81.6892 56.6139C81.6029 56.1712 82.2259 55.9499 82.5231 56.0557C82.7819 56.152 83.1078 56.6043 83.1557 56.6813C83.7692 57.6147 85.1495 57.2587 85.2454 56.1616C85.2454 56.1616 85.2454 56.1616 85.2454 56.1424C85.2837 55.998 85.3029 55.844 85.3604 55.7093C85.5042 55.3532 85.7917 55.0838 86.1752 54.949C86.2998 54.9105 86.434 54.8624 86.5682 54.8528C86.5777 54.8528 86.5969 54.8624 86.6161 54.872C86.5203 54.8336 86.6928 54.949 86.7503 54.9972C87.105 55.3147 87.3446 55.7478 87.5747 56.1616C88.6195 58.0767 89.3959 60.6461 89.185 62.8692C88.955 64.0047 88.2648 65.073 87.7088 66.0642C87.0379 67.2575 86.319 68.4219 85.6288 69.596C84.977 70.7219 84.3539 71.9922 84.6894 73.3203C84.862 74.0132 85.1687 74.6098 85.4562 75.2257C82.6189 75.986 79.7817 76.7559 76.9348 77.5161C76.4459 75.7262 75.9187 73.9458 75.219 72.2232C74.5671 70.6161 74.7397 68.701 75.334 67.0939H75.3436ZM92.6645 115.519C90.5078 116.357 87.7376 116.116 85.6863 115.067C83.0024 113.691 82.2835 110.717 81.9384 107.926C81.5933 105.049 81.1619 102.2 80.606 99.3518C79.9542 95.9932 79.1682 92.6443 78.4589 89.2857C81.2482 88.4484 84.028 87.6112 86.8174 86.7836C87.2583 86.6488 87.7088 86.5141 88.1498 86.3794C89.5397 85.9656 88.9454 83.781 87.5459 84.1948C84.4785 85.1091 81.4208 86.0329 78.3534 86.9472C78.2384 86.9856 78.1138 87.0145 77.9987 87.053C77.5291 84.676 77.1169 82.2894 76.8197 79.8835C80.8361 78.8057 84.8524 77.7278 88.8687 76.65C89.7697 81.7986 91.0542 86.8894 92.2619 91.9706C92.9425 94.8384 93.6135 97.7158 94.2365 100.593C94.8021 103.201 95.406 105.857 95.6265 108.523C95.8469 111.179 95.4635 114.422 92.6549 115.51L92.6645 115.519Z" fill="var(--fill-0, #323232)"/>
<path id="Vector_48" d="M21.4209 95.2425C20.8362 94.9057 20.2515 95.1655 19.8777 95.6467C17.1075 99.2555 14.8453 103.23 12.0751 106.848C11.7012 107.33 11.9984 108.119 12.4777 108.398C13.0624 108.735 13.6471 108.475 14.0209 107.994C16.7911 104.385 19.0533 100.41 21.8235 96.7919C22.1973 96.3107 21.9002 95.5312 21.4305 95.2521L21.4209 95.2425Z" fill="var(--fill-0, #323232)"/>
<path id="Vector_49" d="M9.36272 100.766C9.24769 100.478 9.11349 100.247 8.84509 100.093C8.60546 99.9484 8.25081 99.8906 7.97283 99.9772C7.44563 100.15 6.94717 100.786 7.18681 101.373C7.68526 102.614 8.1837 103.855 8.68214 105.097C8.75883 105.28 8.82592 105.453 8.9026 105.636C9.01763 105.925 9.15184 106.155 9.42023 106.309C9.65987 106.454 10.0145 106.512 10.2925 106.425C10.8197 106.252 11.3182 105.617 11.0785 105.03L9.5832 101.305L9.36272 100.766Z" fill="var(--fill-0, #323232)"/>
<path id="Vector_50" d="M28.0161 142.099C28.0449 142.705 28.5145 143.235 29.1472 143.235C30.4029 143.235 31.6682 143.225 32.9239 143.215C33.106 143.215 33.2881 143.215 33.4702 143.215C34.0645 143.215 34.6301 142.696 34.6013 142.08C34.5726 141.474 34.1029 140.944 33.4702 140.944C32.2145 140.944 30.9493 140.954 29.6936 140.964C29.5114 140.964 29.3293 140.964 29.1472 140.964C28.5529 140.964 27.9969 141.483 28.0161 142.099Z" fill="var(--fill-0, #323232)"/>
<path id="Vector_51" d="M75.1834 271.497C75.1834 271.497 75.1641 271.507 75.1641 271.516C75.1834 271.507 75.1834 271.497 75.193 271.487L75.1834 271.497Z" fill="var(--fill-0, #323232)"/>
<path id="Vector_52" d="M94.9596 276.857C93.886 275.721 92.3619 275.125 90.9432 274.576C88.7194 273.72 86.323 273.498 84.0609 272.786C82.8148 271.429 81.5686 270.063 80.3225 268.706C79.7186 268.042 79.1052 267.378 78.5013 266.714C77.9261 266.088 77.351 265.251 76.565 264.895C76.2103 264.731 75.8078 264.712 75.4818 264.876C76.1145 265.347 77.0059 265.713 76.5554 266.608C77.0059 265.703 76.1145 265.338 75.4818 264.876C75.2997 264.962 75.1464 265.097 75.0218 265.299C74.7917 265.694 74.8396 266.3 75.1655 266.646C75.2422 266.723 75.3285 266.8 75.4243 266.848C75.4818 266.877 75.5394 266.906 75.5969 266.935C75.5969 266.945 75.7119 267.022 75.7311 267.041C75.8557 267.156 75.9611 267.282 76.0761 267.407C76.2679 267.618 76.4692 267.83 76.6609 268.042C75.9228 268.331 75.1751 268.658 74.5233 269.1C74.0344 269.437 73.6031 269.803 73.2676 270.303C72.9417 270.794 73.1526 271.574 73.6702 271.853C74.207 272.141 74.8013 271.987 75.1559 271.516C75.1751 271.497 75.1943 271.477 75.2039 271.458C75.2039 271.458 75.2039 271.458 75.2039 271.449C75.2422 271.391 75.2901 271.352 75.2806 271.362C75.3477 271.295 75.4147 271.227 75.4818 271.169C75.4627 271.179 75.4531 271.189 75.4243 271.208C75.4435 271.189 75.4723 271.169 75.4914 271.16C75.5394 271.121 75.6065 271.073 75.5969 271.083C75.6927 271.015 75.7982 270.948 75.9036 270.89C76.1337 270.746 76.3733 270.621 76.6225 270.505C76.7471 270.448 76.8718 270.39 76.9964 270.332C76.9964 270.332 76.9963 270.332 77.0059 270.332C77.0347 270.323 77.073 270.303 77.1114 270.284C77.1401 270.274 77.1593 270.265 77.1881 270.255C77.1689 270.265 77.1497 270.274 77.1305 270.284C77.514 270.13 77.907 269.986 78.3 269.861C78.4725 270.053 78.6547 270.246 78.8272 270.438C78.971 270.602 79.1243 270.756 79.2681 270.919C78.2329 271.275 77.2072 271.689 76.2487 272.199C75.8461 272.411 75.4435 272.661 75.1176 272.988C74.6958 273.412 74.6671 274.172 75.1176 274.586C75.5681 275 76.2679 275.028 76.7088 274.586C76.7471 274.547 76.8047 274.509 76.843 274.48C76.8142 274.499 76.7759 274.528 76.7088 274.567C76.7951 274.509 76.8813 274.441 76.9676 274.384C77.1593 274.259 77.3702 274.153 77.5715 274.047C77.8207 273.922 78.0699 273.806 78.3287 273.7C78.3287 273.7 78.3383 273.7 78.3479 273.7C78.3288 273.7 78.3192 273.71 78.3096 273.72C78.3767 273.691 78.4438 273.662 78.5109 273.643C78.6355 273.595 78.7601 273.546 78.8751 273.498C79.4982 273.258 80.1308 273.027 80.7731 272.825C80.821 272.805 80.8785 272.786 80.9264 272.757C81.444 273.315 81.9521 273.883 82.4697 274.441C82.5272 274.499 82.5847 274.547 82.6518 274.595C82.7764 274.73 82.9298 274.846 83.1407 274.913C86.1026 275.923 89.2945 276.058 92.0839 277.579C92.8124 277.973 94.1352 278.753 93.6272 279.773C93.2725 280.485 92.1223 280.581 91.4321 280.764C90.3298 281.053 89.2274 281.313 88.1059 281.515C85.9492 281.909 83.6583 282.073 81.5111 281.563C79.3831 281.062 77.4277 280.013 75.4627 279.07C71.5518 277.194 67.2863 275.943 62.9536 275.644C61.0653 275.51 58.7072 275.308 58.6114 272.882C58.5635 271.622 58.9469 270.419 59.4933 269.264C59.5604 269.274 59.6179 269.283 59.6946 269.283C61.5254 269.264 63.3658 269.149 65.187 268.975C68.0914 268.696 71.1588 268.35 73.8331 267.079C73.9865 267.002 74.1111 266.916 74.1974 266.81C74.8684 266.031 73.8427 264.587 72.6925 265.126C70.2769 266.271 67.363 266.521 64.7365 266.752C63.4137 266.868 62.0813 266.945 60.749 266.983C60.8448 266.829 60.9407 266.675 61.027 266.521C61.4104 265.886 61.1036 265.29 60.5956 265.01C60.471 263.115 60.3464 261.219 60.2218 259.313C59.7425 252.105 59.2632 244.907 58.7935 237.699C58.1896 228.586 57.5953 219.472 56.9914 210.359C56.4259 201.784 55.87 193.21 55.3236 184.645C54.9593 178.967 54.5855 173.279 54.2596 167.601C54.2404 167.217 54.2117 166.822 54.1925 166.437C54.1158 164.984 51.8536 164.974 51.9399 166.437C51.9399 166.524 51.9495 166.61 51.9591 166.687C52.2466 171.788 52.5821 176.878 52.908 181.969C53.4448 190.323 53.9816 198.666 54.528 207.019C55.1319 216.2 55.7358 225.381 56.3396 234.562C56.8381 242.116 57.3365 249.68 57.835 257.235C58.0363 260.314 58.1992 263.413 58.4293 266.492C57.394 268.302 56.5218 270.197 56.3684 272.324C56.2821 273.595 56.6272 274.788 57.3269 275.731C57.2407 275.895 57.1832 276.068 57.1736 276.26C57.1065 277.348 57.0394 278.445 56.9723 279.532C56.9435 279.985 57.3365 280.552 57.7966 280.62C60.749 281.111 63.7013 281.592 66.644 282.082C67.4205 282.208 67.986 281.775 68.0723 280.995L68.3119 278.859C70.1619 279.33 71.9736 279.936 73.699 280.745C75.9899 281.823 78.2521 283.093 80.7251 283.709C83.2269 284.334 85.8246 284.18 88.3456 283.757C89.5821 283.545 90.7995 283.257 92.0072 282.939C93.1287 282.65 94.3461 282.39 95.1513 281.476C96.359 280.11 96.129 278.146 94.9308 276.886L94.9596 276.857ZM66.1072 278.647C66.0689 278.984 66.0306 279.33 65.9922 279.667C63.7684 279.301 61.535 278.936 59.3111 278.56C59.3399 278.137 59.3591 277.713 59.3878 277.29C59.407 277.29 59.4262 277.309 59.4549 277.319C60.3847 277.685 61.3816 277.781 62.3785 277.848C63.663 277.935 64.9187 278.089 66.1839 278.339C66.1552 278.435 66.1264 278.541 66.1168 278.647H66.1072Z" fill="var(--fill-0, #323232)"/>
<path id="Vector_53" d="M75.5272 271.161C75.5272 271.161 75.5175 271.161 75.5078 271.17C75.5853 271.122 75.624 271.093 75.6337 271.083C75.6337 271.083 75.6144 271.093 75.6144 271.102C75.5853 271.122 75.5562 271.141 75.5369 271.161H75.5272Z" fill="var(--fill-0, #323232)"/>
<path id="Vector_54" d="M77.1359 270.284C77.1359 270.284 77.0681 270.314 77.0293 270.333C76.9906 270.352 76.9906 270.352 77.1456 270.284C77.1456 270.284 77.1456 270.284 77.1359 270.284Z" fill="var(--fill-0, #323232)"/>
<path id="Vector_55" d="M75.2166 271.459C75.2166 271.459 75.1972 271.478 75.1875 271.498C75.265 271.42 75.3038 271.372 75.3038 271.372C75.2941 271.382 75.2747 271.401 75.265 271.411C75.2456 271.43 75.2359 271.449 75.2166 271.469V271.459Z" fill="var(--fill-0, #323232)"/>
<path id="Vector_56" d="M76.875 274.461C76.9433 274.413 76.9238 274.422 76.875 274.461Z" fill="var(--fill-0, #323232)"/>
<path id="Vector_57" d="M78.375 273.672C78.6453 273.566 78.4619 273.633 78.375 273.672Z" fill="var(--fill-0, #323232)"/>
<path id="Vector_58" d="M28.3733 273.797C30.4725 273.181 32.6867 273.46 34.5751 274.605C35.0831 274.913 35.8403 274.73 36.1183 274.201C36.4059 273.653 36.2525 272.979 35.7157 272.652C33.3577 271.218 30.4246 270.833 27.779 271.612C27.2134 271.776 26.8012 272.421 26.9929 273.008C27.1751 273.585 27.7694 273.98 28.3828 273.797H28.3733Z" fill="var(--fill-0, #323232)"/>
</g>
</g>
</g>
</g>
</svg>
