<svg preserveAspectRatio="none" width="100%" height="100%" overflow="visible" style="display: block;" viewBox="0 0 95 95" fill="none" xmlns="http://www.w3.org/2000/svg">
<g id="Group">
<circle id="Ellipse" cx="47.5" cy="47.5" r="47.5" fill="var(--fill-0, #F6F5F9)"/>
<g id="Mask Group">
<mask id="mask0_0_204" style="mask-type:alpha" maskUnits="userSpaceOnUse" x="0" y="0" width="95" height="95">
<circle id="Ellipse_2" cx="47.5" cy="47.5" r="47.5" fill="var(--fill-0, #E5F8FF)"/>
</mask>
<g mask="url(#mask0_0_204)">
<g id="Group_2">
<path id="Vector" d="M36.2963 248.824C34.8155 249.781 32.9347 250.243 31.2922 250.55C29.1135 250.96 26.8072 251.242 24.5859 251.157C22.7221 251.088 20.9605 250.448 19.3264 249.585C19.2669 249.559 19.2158 249.525 19.1562 249.491C19.1818 249.756 19.2329 249.995 19.352 250.191C19.7094 250.789 20.7137 251.097 21.3434 251.293C23.3009 251.9 25.4114 251.96 27.4454 251.874C29.2667 251.798 31.122 251.584 32.8751 251.088C34.1091 250.738 35.224 250.046 36.2878 249.32V248.824H36.2963Z" fill="var(--fill-0, #D5D5D5)"/>
<path id="Vector_2" d="M66.7812 241.006C66.7812 241.006 66.7812 241.006 66.7812 241.015C66.7985 240.998 66.8071 240.981 66.8243 240.963C66.8329 240.955 66.8501 240.938 66.8587 240.929C66.8587 240.92 66.8243 240.955 66.7899 241.006H66.7812Z" fill="var(--fill-0, #78C8E6)"/>
<path id="Vector_3" d="M68.3906 240.007C68.3906 240.007 68.4508 239.981 68.4852 239.964C68.4594 239.972 68.4164 239.99 68.3906 240.007Z" fill="var(--fill-0, #78C8E6)"/>
<path id="Vector_4" d="M57.7621 50.6406C57.6855 50.6663 57.6004 50.7004 57.5238 50.7261C57.3281 50.897 57.0728 50.9995 56.8345 51.008C56.8004 51.008 56.7664 51.008 56.7323 50.9995C55.7877 51.3242 54.8515 51.6574 53.9069 51.9821C52.7324 52.3922 51.5494 52.8023 50.375 53.2124C50.8771 54.7419 51.3707 56.2713 51.8729 57.8007C51.9409 57.7751 52.0175 57.7409 52.0856 57.7152C54.5366 56.707 56.9877 55.6903 59.4387 54.682C58.8855 53.3406 58.3238 51.9906 57.7621 50.6492V50.6406Z" fill="var(--fill-0, white)"/>
<path id="Vector_5" d="M68.7604 91.8494C68.905 90.0637 69.0412 88.2779 69.1774 86.4922C68.054 81.0837 66.7178 75.6837 66.1136 70.1898C66.071 69.8309 66.1987 69.5832 66.403 69.4294C66.003 67.8914 65.5689 66.3449 64.9477 64.9009C64.2668 63.3288 64.3179 61.4918 64.7094 59.8513C64.786 59.5181 64.9136 59.1763 65.0668 58.826C63.5349 58.0741 61.986 57.3564 60.4286 56.6643C60.335 56.6216 60.2584 56.5703 60.1988 56.519C59.8839 56.6472 59.569 56.7754 59.2541 56.9121C56.6755 57.9801 54.0968 59.0396 51.5096 60.1076C50.999 60.3212 50.4543 59.894 50.2926 59.4326L50.0118 60.3127C50.3267 61.4234 50.3692 62.6709 50.4798 63.7987C50.7011 66.0373 50.8543 68.2759 51.0075 70.5145C51.6883 80.477 52.0883 90.4567 52.8117 100.411C52.8628 101.163 52.9224 101.914 52.9904 102.658C53.016 102.948 53.0415 103.247 53.0756 103.538C53.0841 103.64 53.1011 103.743 53.1096 103.845C53.1096 103.88 53.1096 103.897 53.1096 103.914C53.1096 103.922 53.1096 103.922 53.1096 103.939C53.2117 104.529 53.2628 105.008 52.8117 105.486C52.1649 106.17 51.4586 106.802 50.7607 107.443C49.9182 108.229 49.0586 109.032 48.1054 109.681C47.2544 110.271 46.582 110.271 45.9267 109.433C46.0629 109.613 45.6715 109.186 45.6034 109.117C45.3991 108.912 45.1778 108.716 44.9566 108.528C44.4885 108.109 44.0034 107.707 43.5098 107.314C42.863 106.793 42.1566 106.229 41.6375 105.836C41.246 105.537 41.1098 105.213 41.1779 104.717C41.1694 104.802 41.1524 104.931 41.1609 104.802C41.1609 104.743 41.1779 104.683 41.1864 104.623C41.2035 104.461 41.2205 104.298 41.2375 104.136C41.2886 103.683 41.3311 103.239 41.3737 102.786C41.5098 101.376 41.6375 99.9664 41.7566 98.5566C42.4375 90.9437 43.0842 83.3308 43.7991 75.7179C44.114 72.3173 44.4374 68.9167 44.8034 65.5246C44.9821 63.8585 45.0161 62.013 45.4842 60.3896C45.348 60.0564 45.2034 59.7231 45.0672 59.3813C44.8204 59.6719 44.4374 59.8427 44.0545 59.7146C43.6545 59.5779 43.263 59.4412 42.863 59.2959C40.3439 58.4159 37.8333 57.5443 35.3142 56.6643C35.161 56.7497 34.9908 56.8181 34.8036 56.895C34.0887 57.194 33.3908 57.5187 32.6334 57.7152C31.1781 58.0912 29.6718 58.2706 28.1824 58.45C26.8463 58.6209 25.4846 58.7662 24.1825 59.1421C23.1102 59.4582 22.0974 60.0051 21.1442 60.569C18.6847 62.013 16.6252 64.0038 14.9571 66.3193C14.9316 66.362 14.8976 66.3876 14.8635 66.4218C14.8805 66.6012 14.821 66.8063 14.6848 67.0028C11.4423 71.5569 8.24237 76.128 5.13605 80.7676C3.20417 83.6555 1.12762 86.4409 -0.642559 89.4399C-2.40423 92.4304 -4.28504 95.9335 -4.21695 99.505C-4.19993 100.248 -4.08079 100.992 -3.81696 101.684C-3.46803 102.598 -3.07655 103.692 -2.39571 104.409C-1.56169 105.298 -0.48086 105.905 0.540397 106.537C1.65527 107.229 2.75312 107.921 3.85948 108.622C7.17856 110.715 10.5232 112.774 14.0465 114.5C13.8338 113.612 13.7997 112.663 13.9444 111.74C14.2082 110.108 14.455 108.425 14.8635 106.827C15.1954 105.537 15.7656 104.469 16.472 103.435C13.0593 101.41 10.2253 98.4968 6.73602 96.5829C5.60413 95.9592 6.61688 94.2247 7.74877 94.8484C8.70194 95.3696 9.60405 95.9763 10.4891 96.6085L10.8381 96.0446C10.5402 95.7285 10.4126 95.1987 10.6849 94.8399C13.1444 91.6358 15.1529 88.107 17.6124 84.8944C17.9443 84.4586 18.4635 84.228 18.9826 84.5355L19.8932 83.0318C19.5783 78.8536 19.2294 74.6841 18.8039 70.5145C18.6762 69.2243 20.6762 69.2414 20.8038 70.5145C21.2123 74.5474 21.5442 78.5888 21.8591 82.6302C22.2081 87.1244 22.5144 91.6187 22.8038 96.1215C24.2591 95.3782 25.8676 95.0364 27.3995 94.5237C28.7696 94.0709 30.3356 93.695 31.6377 94.5836C32.5994 95.2415 32.8632 96.4633 32.3866 97.5057C31.9696 98.4199 31.1441 98.9582 30.2675 99.3854C28.7101 100.146 27.0931 100.795 25.4846 101.436C25.2293 101.821 24.9655 102.205 24.6931 102.581C27.1697 102.478 29.6462 102.342 32.1313 102.478C32.2164 102.478 32.293 102.496 32.3696 102.521C33.9185 102.812 35.4504 104.085 34.9993 105.828C34.7355 106.836 34.0972 107.511 33.2632 107.87C33.6887 108.861 33.4504 110.151 32.5398 110.997C32.5228 111.014 32.4972 111.023 32.4802 111.04C32.6589 111.373 32.7781 111.766 32.8036 112.219C32.8887 113.825 31.6972 115.158 30.1143 115.346C28.2165 115.568 26.3016 115.662 24.4038 115.995C24.4548 117.542 24.5059 119.088 24.5484 120.635C24.5569 121.002 24.3527 121.301 24.0634 121.481H26.0548C26.0293 120.96 26.3442 120.404 27.0165 120.404C40.0545 120.259 53.0926 120.114 66.1306 119.968C66.7093 119.968 67.0242 120.361 67.0838 120.814L67.8668 120.857C67.8668 120.857 67.9263 120.831 67.9519 120.823L67.62 119.541C67.0327 119.686 66.3604 119.379 66.4285 118.618C66.5647 117.098 66.7008 115.577 66.837 114.056C67.4923 106.657 68.1306 99.2572 68.7093 91.8494H68.7604ZM9.12746 94.481C8.88917 94.5579 8.57428 94.5067 8.35301 94.3785C8.1062 94.2332 7.99558 94.0282 7.89346 93.7804C7.82538 93.6181 7.76579 93.4643 7.69771 93.3019C7.25516 92.1997 6.81262 91.0975 6.37008 89.9953C6.15732 89.4741 6.59985 88.9102 7.06793 88.7564C7.30622 88.6795 7.6211 88.7308 7.84237 88.8589C8.08918 89.0042 8.19982 89.2092 8.30195 89.457L8.4977 89.9355L9.82533 93.2421C10.0381 93.7633 9.59554 94.3272 9.12746 94.481ZM59.6967 108.485C54.1309 113.338 47.8076 117.183 40.9566 119.917C39.7567 120.396 39.2375 118.448 40.4205 117.978C46.931 115.38 52.9819 111.672 58.2754 107.058C59.2456 106.212 60.6669 107.631 59.6882 108.476L59.6967 108.485Z" fill="var(--fill-0, white)"/>
<path id="Vector_6" d="M66.6161 235.546C66.7182 235.367 66.8629 235.247 67.0246 235.17C66.9054 235.085 66.7948 234.982 66.7097 234.88C66.1139 235.17 65.2289 234.88 65.2289 234.017C65.2118 226.617 65.365 219.209 65.5608 211.81C65.9778 196.063 66.599 180.325 67.1267 164.586C67.382 156.999 67.6288 149.412 67.8075 141.816C67.8926 138.381 67.9607 134.955 68.0033 131.52C68.0203 129.991 68.148 128.41 67.9948 126.889C67.8161 125.172 67.3139 123.48 67.2714 121.754C67.2629 121.259 67.5522 120.959 67.9097 120.848L67.1267 120.806C67.1948 121.352 66.8799 121.968 66.1735 121.976C64.7608 121.993 63.3566 122.01 61.9438 122.027C61.9438 122.25 61.9438 122.48 61.9438 122.702C61.9268 124.334 61.9183 125.958 61.9013 127.59C61.9013 128.154 61.4502 128.572 60.897 128.598C60.3609 128.624 59.8928 128.12 59.8928 127.59C59.8928 127.359 59.8928 127.12 59.8928 126.889C59.9098 125.274 59.9183 123.668 59.9354 122.053C59.4928 122.053 59.0588 122.062 58.6162 122.07C58.6162 122.087 58.6162 122.104 58.6162 122.121V127.59C58.6162 128.154 58.1567 128.572 57.612 128.598C57.0673 128.624 56.6078 128.12 56.6078 127.59V122.121C56.6078 122.121 56.6078 122.104 56.6078 122.087C49.927 122.164 43.2548 122.233 36.5741 122.309C36.5741 122.438 36.5741 122.574 36.5741 122.702C36.5571 124.334 36.5486 125.958 36.5315 127.59C36.5315 128.154 36.0805 128.572 35.5273 128.598C34.9912 128.624 34.5231 128.12 34.5231 127.59C34.5231 127.359 34.5231 127.12 34.5231 126.889C34.5401 125.368 34.5486 123.856 34.5656 122.335C34.1316 122.335 33.689 122.344 33.255 122.352V127.59C33.255 128.154 32.7955 128.572 32.2508 128.598C31.7061 128.624 31.2465 128.12 31.2465 127.59V122.369C29.8338 122.386 28.4296 122.403 27.0168 122.421C26.3956 122.421 26.0807 121.968 26.0552 121.489H24.0637C23.9105 121.583 23.7318 121.643 23.5446 121.652C23.519 121.652 23.485 121.652 23.4594 121.652L23.485 122.267C23.9701 122.284 24.4382 122.609 24.4211 123.232C24.3871 125.112 24.0297 126.966 24.0211 128.854C24.0126 130.64 23.9956 132.434 23.9786 134.22C23.9531 138.099 23.919 141.978 23.885 145.857C23.7573 161.536 23.6127 177.215 23.4765 192.893C23.3488 207.145 23.2212 221.388 23.136 235.64C23.136 236.161 22.8127 236.46 22.4297 236.571C26.8041 237.99 32.1997 238.349 36.2507 235.819C36.9145 229.437 37.5358 223.046 38.106 216.655C39.2038 204.368 40.157 192.073 40.9995 179.761C41.8251 167.722 42.5485 155.675 43.1782 143.619C43.2463 142.329 45.2463 142.329 45.1782 143.619C45.1186 144.806 45.0505 145.994 44.9824 147.173L46.1228 147.968C46.1228 147.891 46.1143 147.814 46.1058 147.746C46.0377 146.447 48.0377 146.455 48.1058 147.746C48.1228 148.087 48.1483 148.438 48.1654 148.779C48.4632 153.829 48.7866 158.87 49.11 163.911C49.5951 171.524 50.0972 179.137 50.5908 186.741C51.1185 194.833 51.6547 202.924 52.1908 211.016C52.6163 217.415 53.0333 223.806 53.4589 230.206C53.5695 231.889 53.6802 233.572 53.7908 235.264C54.2333 235.512 54.5142 236.05 54.1737 236.606C54.0886 236.742 54.0036 236.879 53.927 237.016C55.1099 236.981 56.2929 236.913 57.4673 236.811C59.7992 236.606 62.3864 236.383 64.531 235.367C65.5523 234.88 66.4629 236.17 65.8672 236.862C66.1565 236.845 66.4374 236.811 66.7182 236.734C66.4288 236.426 66.3863 235.888 66.5905 235.537L66.6161 235.546ZM25.8849 125.155C26.0466 125.155 26.2083 125.155 26.37 125.155C27.4849 125.155 28.6083 125.146 29.7232 125.138C30.2849 125.138 30.7019 125.599 30.7274 126.146C30.7529 126.693 30.2508 127.145 29.7232 127.154C29.5615 127.154 29.3998 127.154 29.2381 127.154C28.1232 127.154 26.9998 127.163 25.8849 127.171C25.3232 127.171 24.9062 126.71 24.8807 126.163C24.8552 125.616 25.3573 125.163 25.8849 125.155ZM34.4635 226.182C32.7784 227.258 31.0933 228.335 29.4168 229.411C29.3912 230.249 29.3572 231.086 29.3317 231.923C29.2976 233.213 27.2892 233.213 27.3317 231.923C27.3402 231.522 27.3572 231.12 27.3658 230.719C27.0083 230.941 26.6594 231.171 26.3019 231.394C25.8424 231.684 25.1956 231.488 24.9318 231.035C24.6509 230.556 24.8381 229.95 25.2892 229.659C26.0041 229.198 26.719 228.745 27.4339 228.283C27.6551 221.363 27.9274 214.433 28.2168 207.512C28.5742 199.045 28.9657 190.569 29.3657 182.102C29.7487 174.147 30.1402 166.184 30.5402 158.229C30.838 152.283 31.1529 146.336 31.4593 140.389C31.5784 138.056 31.7061 135.724 31.8338 133.4C31.9018 132.11 33.9018 132.11 33.8337 133.4C33.8337 133.443 33.8337 133.485 33.8337 133.519C33.8507 136.356 33.5273 139.244 33.3827 142.081C33.0508 148.361 32.7274 154.641 32.4125 160.921C32.004 169.021 31.604 177.121 31.221 185.221C30.821 193.645 30.438 202.061 30.0891 210.486C29.8593 215.98 29.6551 221.482 29.4764 226.976C30.7955 226.13 32.1146 225.293 33.4337 224.447C33.8933 224.157 34.5401 224.353 34.8039 224.806C35.0848 225.284 34.8975 225.891 34.4465 226.182H34.4635ZM38.94 124.044C43.2293 123.976 47.5271 123.916 51.8164 123.847C53.1099 123.83 53.1014 125.838 51.8164 125.855C47.5271 125.924 43.2293 125.983 38.94 126.052C37.6464 126.069 37.6549 124.061 38.94 124.044ZM41.0166 142.551C39.757 142.833 39.2294 140.893 40.4804 140.611C41.008 140.492 41.5357 140.372 42.0634 140.252C43.2123 139.987 44.3612 139.731 45.5186 139.466C45.5016 139.013 45.4846 138.569 45.4675 138.116C45.3484 134.998 45.2293 131.879 45.1186 128.752C45.0676 127.453 47.076 127.462 47.1186 128.752C47.1356 129.205 47.1526 129.649 47.1696 130.102C47.2803 133.075 47.3909 136.04 47.5015 139.013C49.3994 138.586 51.2887 138.159 53.1866 137.723C54.4461 137.441 54.9737 139.381 53.7227 139.663L52.1398 140.022C48.4292 140.859 44.7271 141.705 41.0166 142.542V142.551ZM53.978 144.892C52.4717 144.533 50.9568 144.174 49.4504 143.807C48.9058 143.679 48.6334 143.089 48.7526 142.568C48.8717 142.03 49.476 141.748 49.9866 141.867C50.1994 141.918 50.4121 141.97 50.6249 142.021C52.1312 142.38 53.6461 142.739 55.1525 143.106C55.6971 143.234 55.9695 143.824 55.8503 144.345C55.7312 144.883 55.1269 145.165 54.6163 145.046C54.4035 144.994 54.1908 144.943 53.978 144.892ZM63.0672 230.761C60.9055 232.163 58.3184 232.914 55.7397 232.709C55.195 232.667 54.7354 232.282 54.7354 231.701C54.7354 231.188 55.195 230.65 55.7397 230.693C56.9312 230.787 58.0716 230.659 59.1694 230.343C58.9567 230.18 58.8205 229.932 58.829 229.582C58.829 229.334 58.846 229.087 58.846 228.847C58.9396 224.327 58.9652 219.816 58.9992 215.296C59.0588 207.769 59.1098 200.25 59.1609 192.722C59.212 184.281 59.263 175.839 59.3226 167.397C59.3737 160.135 59.4162 152.864 59.4843 145.601C59.5183 141.602 59.5183 137.595 59.6375 133.596C59.6715 132.306 61.68 132.306 61.6374 133.596C61.6374 133.844 61.6204 134.092 61.6204 134.331C61.5268 138.851 61.5013 143.362 61.4672 147.882C61.4077 155.41 61.3566 162.929 61.3055 170.456C61.2545 178.898 61.2034 187.34 61.1438 195.781C61.0928 203.044 61.0502 210.315 60.9821 217.578C60.9481 221.576 60.9481 225.583 60.8289 229.582C60.8289 229.625 60.8204 229.668 60.8119 229.71C61.2289 229.505 61.6459 229.283 62.0459 229.018C62.5055 228.719 63.1523 228.924 63.4161 229.377C63.697 229.864 63.5097 230.462 63.0587 230.753L63.0672 230.761ZM63.4247 126.812C63.1438 126.787 62.9225 126.71 62.7183 126.522C62.5225 126.342 62.4374 126.069 62.4289 125.813C62.4204 125.565 62.5481 125.274 62.7183 125.103C62.88 124.941 63.1864 124.787 63.4247 124.813C63.5693 124.83 63.714 124.839 63.8587 124.856C64.8629 124.958 65.8586 125.061 66.8629 125.163C67.1437 125.189 67.365 125.266 67.5692 125.454C67.765 125.633 67.8501 125.907 67.8586 126.163C67.8671 126.411 67.7395 126.701 67.5692 126.872C67.4075 127.034 67.1012 127.188 66.8629 127.163C66.7182 127.145 66.5735 127.128 66.4288 127.12C65.4246 127.017 64.4289 126.915 63.4247 126.812Z" fill="var(--fill-0, #D5D5D5)"/>
<path id="Vector_7" d="M81.769 246.414C79.2925 245.064 76.4585 244.945 73.8288 244.048C73.6415 243.988 73.5054 243.885 73.3947 243.766C73.3352 243.732 73.2841 243.68 73.233 243.629C72.7735 243.133 72.3224 242.629 71.8628 242.134C71.8203 242.151 71.7777 242.177 71.7267 242.194C71.1565 242.373 70.5948 242.578 70.0416 242.792C69.931 242.834 69.8203 242.877 69.7182 242.92C69.6586 242.946 69.599 242.971 69.5395 242.988C69.5565 242.988 69.565 242.98 69.5735 242.971C69.8118 242.877 69.6501 242.937 69.5735 242.971C69.5735 242.971 69.565 242.971 69.5565 242.971C69.3352 243.065 69.1055 243.168 68.8842 243.279C68.6969 243.373 68.5182 243.467 68.348 243.578C68.2714 243.629 68.1948 243.689 68.1182 243.74C68.1778 243.706 68.2118 243.68 68.2374 243.663C68.2629 243.646 68.2714 243.638 68.2799 243.638C68.2799 243.638 68.2629 243.646 68.2374 243.663C68.2033 243.689 68.1523 243.723 68.1182 243.757C67.7182 244.15 67.1055 244.125 66.7055 243.757C66.3055 243.39 66.331 242.706 66.7055 242.339C66.9949 242.048 67.3523 241.826 67.7097 241.638C68.5608 241.185 69.4714 240.818 70.3905 240.502C70.2629 240.357 70.1267 240.22 69.999 240.075C69.8459 239.904 69.6842 239.733 69.531 239.562C69.1821 239.682 68.8331 239.801 68.4927 239.938C68.3565 239.998 68.3565 239.998 68.3906 239.981C68.3906 239.981 68.3906 239.981 68.3821 239.981C68.2714 240.032 68.1608 240.083 68.0501 240.134C67.8374 240.237 67.6161 240.357 67.4119 240.476C67.3182 240.528 67.2332 240.587 67.1395 240.647C67.1395 240.647 67.097 240.681 67.0289 240.724C66.9693 240.775 66.9013 240.835 66.8502 240.895C66.8502 240.895 66.8161 240.938 66.748 241.006C66.4332 241.442 65.897 241.587 65.4119 241.322C64.9524 241.074 64.7651 240.382 65.0545 239.947C65.3438 239.502 65.7268 239.178 66.1693 238.878C66.7566 238.485 67.4119 238.195 68.0672 237.939C67.897 237.751 67.7182 237.563 67.548 237.375C67.4459 237.264 67.3438 237.153 67.2417 237.05C67.2246 237.033 67.131 236.965 67.1225 236.956C67.0714 236.93 67.0204 236.905 66.9693 236.879C66.8757 236.836 66.7991 236.777 66.7395 236.7C66.4587 236.777 66.1779 236.811 65.8885 236.828C65.8119 236.922 65.7013 237.007 65.5651 237.067C63.1907 238.186 60.4673 238.503 57.8887 238.75C56.2717 238.904 54.6377 239.007 53.0122 239.024C52.9526 239.024 52.893 239.024 52.8334 239.007C52.3483 240.023 52.0079 241.1 52.0505 242.219C52.1356 244.372 54.2206 244.552 55.9057 244.671C59.7524 244.945 63.5481 246.056 67.0119 247.713C68.7565 248.551 70.4842 249.473 72.382 249.926C74.2969 250.379 76.3223 250.225 78.2372 249.883C79.2329 249.704 80.2116 249.473 81.1903 249.217C81.7946 249.055 82.8158 248.969 83.1392 248.337C83.5903 247.423 82.4244 246.739 81.769 246.389V246.414Z" fill="var(--fill-0, #898989)"/>
<path id="Vector_8" d="M52.6569 247.32C54.6314 247.644 56.6143 247.969 58.5887 248.302C58.6228 248.003 58.6568 247.696 58.6909 247.397C58.6994 247.303 58.7249 247.209 58.7504 247.123C57.6271 246.901 56.5122 246.764 55.3718 246.687C54.4952 246.628 53.6016 246.542 52.7761 246.218C52.7591 246.218 52.742 246.2 52.7165 246.192C52.691 246.568 52.674 246.944 52.6484 247.32H52.6569Z" fill="var(--fill-0, #D5D5D5)"/>
<path id="Vector_9" d="M66.7266 241.076C66.7266 241.076 66.7439 241.058 66.7526 241.049C66.7526 241.041 66.77 241.032 66.7787 241.015C66.7613 241.032 66.7439 241.058 66.7266 241.076Z" fill="var(--fill-0, #78C8E6)"/>
<path id="Vector_10" d="M66.7516 241.049C66.7516 241.049 66.7345 241.057 66.7345 241.066C66.7516 241.057 66.7516 241.049 66.7602 241.04L66.7516 241.049Z" fill="var(--fill-0, #323232)"/>
<path id="Vector_11" d="M67.0555 240.75C67.0555 240.75 67.1071 240.716 67.1243 240.698C67.1243 240.698 67.1415 240.69 67.1415 240.681C67.1587 240.673 67.0899 240.716 67.0469 240.75H67.0555Z" fill="var(--fill-0, #78C8E6)"/>
<path id="Vector_12" d="M66.9922 240.792C66.9922 240.792 67.0265 240.767 67.0436 240.758C67.0436 240.758 67.0522 240.758 67.0608 240.75C67.0436 240.767 67.0179 240.784 67.0008 240.792H66.9922Z" fill="var(--fill-0, #78C8E6)"/>
<path id="Vector_13" d="M68.4851 239.972C68.4851 239.972 68.4851 239.972 68.4937 239.972C68.5109 239.972 68.528 239.955 68.5451 239.946C68.528 239.955 68.5023 239.963 68.4766 239.972H68.4851Z" fill="var(--fill-0, #78C8E6)"/>
<path id="Vector_14" d="M20.3343 247.841C21.0492 248.217 21.7726 248.55 22.5555 248.781C23.6619 249.114 24.7512 249.166 25.9001 249.123C27.9341 249.046 29.9682 248.832 31.9511 248.354C32.9383 248.115 33.9255 247.816 34.8277 247.337C35.4149 247.021 36.2659 246.508 36.2999 245.927C36.3765 244.526 35.968 243.057 35.8234 241.664C35.7127 240.613 35.534 239.57 35.4149 238.52C32.0107 239.929 28.0108 239.938 24.3768 239.16C23.5343 240.536 22.5215 241.792 21.4492 242.988C20.9045 243.586 20.1215 244.193 19.7726 244.936C19.5173 245.483 19.3982 246.184 19.4067 246.782C19.4067 247.448 19.7896 247.551 20.3428 247.85L20.3343 247.841ZM24.6576 241.151C27.0065 240.459 29.6107 240.801 31.7043 242.074C32.1809 242.364 32.3171 242.963 32.0617 243.45C31.8149 243.928 31.1426 244.082 30.6915 243.808C29.015 242.792 27.0576 242.544 25.1853 243.091C24.6491 243.253 24.1215 242.903 23.9513 242.39C23.7811 241.869 24.147 241.305 24.6491 241.151H24.6576Z" fill="var(--fill-0, #898989)"/>
<path id="Vector_15" d="M41.0121 142.551C44.7227 141.713 48.4248 140.868 52.1353 140.03L53.7183 139.671C54.9778 139.389 54.4417 137.45 53.1821 137.732C51.2843 138.159 49.395 138.586 47.4971 139.022C47.3865 136.049 47.2759 133.084 47.1652 130.11C47.1482 129.658 47.1312 129.213 47.1142 128.76C47.0631 127.47 45.0631 127.462 45.1142 128.76C45.2333 131.879 45.3525 134.998 45.4631 138.125C45.4801 138.578 45.4972 139.022 45.5142 139.475C44.3653 139.74 43.2164 139.996 42.0589 140.261C41.5313 140.381 41.0036 140.5 40.476 140.62C39.2164 140.902 39.7526 142.841 41.0121 142.559V142.551Z" fill="var(--fill-0, #323232)"/>
<path id="Vector_16" d="M49.4442 143.815C50.9506 144.174 52.4655 144.533 53.9718 144.901C54.1846 144.952 54.3973 145.003 54.6101 145.054C55.1207 145.174 55.7165 144.892 55.8441 144.354C55.9633 143.841 55.6909 143.251 55.1463 143.115C53.6399 142.756 52.125 142.397 50.6187 142.03C50.4059 141.978 50.1932 141.927 49.9804 141.876C49.4698 141.756 48.874 142.038 48.7464 142.576C48.6272 143.089 48.8996 143.679 49.4442 143.815Z" fill="var(--fill-0, #323232)"/>
<path id="Vector_17" d="M55.7379 232.709C58.3166 232.914 60.9038 232.162 63.0654 230.761C63.5165 230.471 63.7037 229.873 63.4229 229.386C63.1591 228.933 62.5122 228.728 62.0527 229.027C61.6527 229.292 61.2357 229.514 60.8187 229.719C60.8187 229.676 60.8357 229.633 60.8357 229.591C60.9548 225.592 60.9548 221.585 60.9889 217.586C61.0484 210.323 61.0995 203.052 61.1506 195.79C61.2016 187.348 61.2527 178.906 61.3123 170.465C61.3633 162.937 61.4059 155.418 61.474 147.891C61.508 143.371 61.5335 138.86 61.6272 134.34C61.6272 134.092 61.6357 133.844 61.6442 133.605C61.6782 132.315 59.6783 132.315 59.6442 133.605C59.5251 137.604 59.5251 141.611 59.491 145.609C59.4314 152.872 59.3804 160.143 59.3293 167.406C59.2783 175.847 59.2272 184.289 59.1676 192.731C59.1166 200.258 59.074 207.777 59.0059 215.305C58.9719 219.825 58.9464 224.336 58.8527 228.856C58.8527 229.104 58.8442 229.351 58.8357 229.591C58.8272 229.941 58.9634 230.197 59.1761 230.351C58.0783 230.667 56.9379 230.795 55.7464 230.701C55.2103 230.659 54.7422 231.197 54.7422 231.71C54.7422 232.291 55.2017 232.675 55.7464 232.718L55.7379 232.709Z" fill="var(--fill-0, #323232)"/>
<path id="Vector_18" d="M44.5421 146.857L45.0016 147.173C45.0697 145.986 45.1378 144.798 45.1974 143.619C45.2655 142.329 43.2655 142.329 43.1974 143.619C42.5677 155.675 41.8443 167.722 41.0188 179.761C40.1762 192.065 39.2316 204.368 38.1252 216.655C37.555 223.046 36.9337 229.437 36.2699 235.82C32.2274 238.34 26.8233 237.981 22.4489 236.571C22.8319 236.469 23.1553 236.161 23.1553 235.64C23.2489 221.388 23.3765 207.145 23.4957 192.893C23.6319 177.215 23.7765 161.536 23.9042 145.857C23.9382 141.978 23.9638 138.099 23.9978 134.22C24.0148 132.434 24.0233 130.64 24.0403 128.854C24.0574 126.966 24.4063 125.121 24.4403 123.232C24.4489 122.609 23.9893 122.284 23.5042 122.267C22.9936 122.25 22.4489 122.566 22.4404 123.232C22.4063 124.907 22.0574 126.556 22.0404 128.231C22.0234 129.786 22.0149 131.341 22.0064 132.896C21.9808 136.331 21.9553 139.765 21.9298 143.2C21.8702 150.796 21.8021 158.392 21.734 165.988C21.5978 181.709 21.4532 197.422 21.317 213.143C21.2574 220.645 21.1979 228.138 21.1468 235.64C21.1468 236.101 21.4021 236.4 21.7255 236.529C20.9681 236.802 20.8064 238.144 21.8021 238.477C21.9723 238.537 22.151 238.579 22.3212 238.639C21.4702 239.912 20.4745 241.083 19.4277 242.211C18.9085 242.766 18.3298 243.313 17.9894 244.005C17.666 244.663 17.5128 245.398 17.4277 246.124C17.3937 246.389 17.3852 246.662 17.3852 246.936C17.3086 247.072 17.249 247.235 17.249 247.431C17.232 248.533 17.0022 249.772 17.4277 250.832C17.8022 251.763 18.6702 252.361 19.5553 252.763C21.5638 253.694 23.8531 253.916 26.0318 253.925C28.202 253.933 30.3977 253.728 32.5168 253.258C34.3635 252.848 35.9635 251.977 37.5295 250.909C38.2443 250.422 38.2869 249.917 38.2869 249.114V246.79C38.2869 246.645 38.2614 246.525 38.2188 246.414C38.4231 245.38 38.1422 244.21 37.9975 243.185C37.8614 242.168 37.7848 241.151 37.6656 240.134C37.572 239.348 37.3848 238.579 37.3167 237.785C37.3167 237.759 37.3082 237.742 37.3082 237.716C37.7252 237.631 38.1167 237.323 38.1677 236.785C39.4358 224.78 40.5081 212.759 41.4613 200.72C42.44 188.425 43.291 176.121 44.04 163.809C44.3804 158.272 44.6953 152.735 44.9931 147.19L44.5336 146.874L44.5421 146.857ZM36.2954 249.319C35.2316 250.037 34.1168 250.738 32.8827 251.088C31.1211 251.584 29.2743 251.797 27.4531 251.874C25.4191 251.96 23.3084 251.9 21.351 251.293C20.7213 251.097 19.717 250.789 19.3596 250.191C19.2404 249.994 19.1894 249.755 19.1639 249.49C19.2234 249.524 19.2745 249.55 19.3341 249.584C20.9681 250.456 22.7297 251.088 24.5935 251.156C26.8148 251.242 29.1211 250.968 31.2998 250.55C32.9423 250.242 34.8231 249.781 36.3039 248.824V249.319H36.2954ZM36.2869 245.927C36.2529 246.517 35.4018 247.021 34.8146 247.337C33.9125 247.824 32.9253 248.115 31.9381 248.354C29.9636 248.832 27.9211 249.054 25.8871 249.123C24.7467 249.166 23.6489 249.106 22.5425 248.781C21.7596 248.55 21.0362 248.217 20.3213 247.841C19.7596 247.542 19.3851 247.44 19.3851 246.773C19.3851 246.175 19.4957 245.474 19.7511 244.928C20.1 244.184 20.883 243.578 21.4276 242.98C22.5085 241.783 23.5127 240.519 24.3552 239.152C27.9892 239.929 31.9806 239.929 35.3933 238.511C35.5125 239.562 35.6912 240.604 35.8018 241.655C35.9465 243.048 36.355 244.518 36.2784 245.919L36.2869 245.927Z" fill="var(--fill-0, #323232)"/>
<path id="Vector_19" d="M24.9376 231.035C25.2015 231.487 25.8482 231.684 26.3078 231.393C26.6652 231.171 27.0142 230.941 27.3716 230.718C27.3631 231.12 27.3461 231.522 27.3376 231.923C27.3035 233.213 29.3035 233.213 29.3375 231.923C29.3631 231.086 29.3971 230.249 29.4226 229.411C31.1077 228.335 32.7928 227.258 34.4694 226.181C34.9289 225.891 35.1076 225.284 34.8268 224.806C34.563 224.353 33.9162 224.157 33.4566 224.447C32.1375 225.293 30.8184 226.13 29.4992 226.976C29.678 221.482 29.8822 215.98 30.112 210.486C30.4609 202.061 30.8439 193.637 31.2439 185.22C31.6268 177.121 32.0269 169.021 32.4354 160.921C32.7502 154.641 33.0736 148.361 33.4055 142.081C33.5502 139.244 33.8736 136.365 33.8566 133.519C33.8566 133.477 33.8566 133.434 33.8566 133.4C33.9247 132.11 31.9247 132.11 31.8566 133.4C31.729 135.732 31.6098 138.065 31.4822 140.389C31.1673 146.336 30.8609 152.283 30.563 158.229C30.1631 166.184 29.7631 174.139 29.3886 182.102C28.9886 190.569 28.5971 199.045 28.2397 207.512C27.9503 214.433 27.6695 221.354 27.4567 228.283C26.7418 228.745 26.027 229.198 25.3121 229.659C24.8525 229.949 24.6738 230.556 24.9546 231.035H24.9376Z" fill="var(--fill-0, #323232)"/>
<path id="Vector_20" d="M70.0277 127.402C69.9341 125.505 69.3044 123.668 69.2703 121.771C69.2618 121.336 69.0235 121.054 68.7256 120.908L68.0108 120.866H67.9086C67.5512 120.977 67.2533 121.267 67.2704 121.763C67.3044 123.497 67.815 125.181 67.9938 126.898C68.1469 128.419 68.0278 129.999 68.0023 131.529C67.9597 134.964 67.8916 138.39 67.8065 141.825C67.6278 149.412 67.381 157.008 67.1257 164.595C66.5895 180.334 65.9683 196.072 65.5598 211.819C65.364 219.218 65.2108 226.618 65.2279 234.025C65.2279 234.888 66.1214 235.17 66.7087 234.888C67.0065 234.743 67.2278 234.461 67.2278 234.025C67.1938 219.859 67.7044 205.693 68.1895 191.535C68.7256 175.822 69.3469 160.118 69.7469 144.405C69.849 140.5 69.9341 136.596 69.9852 132.691C70.0107 130.931 70.1129 129.154 70.0277 127.394V127.402Z" fill="var(--fill-0, #323232)"/>
<path id="Vector_21" d="M84.3065 245.808C83.3534 244.799 82.0002 244.27 80.7406 243.783C78.7662 243.022 76.6386 242.826 74.6301 242.193C73.5238 240.989 72.4174 239.775 71.311 238.571C70.7749 237.981 70.2302 237.391 69.694 236.802C69.1834 236.247 68.6728 235.503 67.9749 235.187C67.66 235.042 67.3026 235.025 67.0132 235.17C67.5749 235.589 68.3664 235.913 67.9664 236.708C68.3664 235.905 67.5749 235.58 67.0132 235.17C66.8515 235.247 66.7154 235.367 66.6047 235.546C66.4005 235.896 66.443 236.435 66.7324 236.742C66.8005 236.81 66.8771 236.879 66.9622 236.922C67.0132 236.947 67.0643 236.973 67.1154 236.998C67.1154 237.007 67.2175 237.075 67.2345 237.092C67.3452 237.195 67.4388 237.306 67.5409 237.417C67.7111 237.605 67.8898 237.793 68.06 237.981C67.4047 238.237 66.7409 238.528 66.1622 238.921C65.7282 239.22 65.3452 239.545 65.0473 239.989C64.758 240.425 64.9452 241.117 65.4048 241.365C65.8814 241.621 66.409 241.484 66.7239 241.065C66.7409 241.048 66.7579 241.031 66.7664 241.014C66.7664 241.014 66.7664 241.014 66.7664 241.006C66.8005 240.954 66.843 240.92 66.8345 240.929C66.8941 240.869 66.9537 240.809 67.0132 240.758C66.9962 240.766 66.9877 240.775 66.9622 240.792C66.9792 240.775 67.0047 240.758 67.0218 240.749C67.0643 240.715 67.1239 240.672 67.1154 240.681C67.2005 240.621 67.2941 240.561 67.3877 240.51C67.5919 240.382 67.8047 240.271 68.026 240.168C68.1366 240.117 68.2473 240.066 68.3579 240.015C68.3579 240.015 68.3579 240.015 68.3664 240.015C68.3919 240.006 68.426 239.989 68.46 239.972C68.4856 239.963 68.5026 239.955 68.5281 239.946C68.5111 239.955 68.4941 239.963 68.477 239.972C68.8175 239.835 69.1664 239.707 69.5153 239.596C69.6685 239.767 69.8302 239.938 69.9834 240.109C70.1111 240.254 70.2472 240.391 70.3749 240.536C69.4558 240.852 68.5451 241.219 67.6941 241.672C67.3366 241.86 66.9792 242.082 66.6898 242.373C66.3154 242.749 66.2898 243.424 66.6898 243.791C67.0898 244.159 67.7111 244.184 68.1026 243.791C68.1366 243.757 68.1877 243.723 68.2217 243.697C68.1962 243.714 68.1621 243.74 68.1026 243.774C68.1792 243.723 68.2558 243.663 68.3324 243.612C68.5026 243.501 68.6898 243.407 68.8685 243.313C69.0898 243.202 69.3111 243.099 69.5408 243.005C69.5408 243.005 69.5494 243.005 69.5579 243.005C69.5409 243.005 69.5323 243.014 69.5238 243.022C69.5834 242.996 69.643 242.971 69.7025 242.954C69.8132 242.911 69.9238 242.868 70.0259 242.826C70.5791 242.612 71.1408 242.407 71.711 242.228C71.7536 242.21 71.8046 242.193 71.8472 242.168C72.3067 242.663 72.7578 243.167 73.2174 243.663C73.2684 243.714 73.3195 243.757 73.3791 243.8C73.4897 243.919 73.6259 244.022 73.8131 244.082C76.4429 244.979 79.2768 245.098 81.7534 246.448C82.4002 246.799 83.5746 247.491 83.1236 248.396C82.8087 249.029 81.7874 249.114 81.1747 249.277C80.196 249.533 79.2173 249.764 78.2215 249.943C76.3067 250.293 74.2727 250.439 72.3663 249.986C70.477 249.541 68.7409 248.61 66.9962 247.773C63.5239 246.107 59.7368 244.996 55.89 244.731C54.2135 244.611 52.1199 244.432 52.0348 242.279C51.9922 241.159 52.3327 240.091 52.8178 239.066C52.8773 239.075 52.9284 239.083 52.9965 239.083C54.622 239.066 56.256 238.964 57.873 238.81C60.4517 238.562 63.175 238.254 65.5494 237.127C65.6856 237.058 65.7962 236.981 65.8728 236.887C66.4686 236.195 65.5579 234.914 64.5367 235.392C62.392 236.409 59.8049 236.631 57.473 236.836C56.2986 236.939 55.1156 237.007 53.9326 237.041C54.0177 236.904 54.1029 236.768 54.1795 236.631C54.5199 236.067 54.2475 235.537 53.7965 235.29C53.6858 233.606 53.5752 231.923 53.4646 230.231C53.039 223.832 52.6135 217.441 52.1965 211.041C51.6603 202.95 51.1327 194.858 50.5965 186.767C50.0944 179.154 49.6008 171.541 49.1157 163.937C48.7923 158.896 48.4604 153.846 48.1711 148.805C48.154 148.463 48.1285 148.113 48.1115 147.771C48.0434 146.481 46.0349 146.472 46.1115 147.771C46.1115 147.848 46.12 147.925 46.1285 147.993C46.3838 152.522 46.6817 157.042 46.9711 161.562C47.4477 168.978 47.9243 176.386 48.4093 183.802C48.9455 191.953 49.4817 200.105 50.0178 208.256C50.4604 214.963 50.9029 221.679 51.3454 228.386C51.5242 231.12 51.6688 233.871 51.8731 236.605C50.954 238.212 50.1795 239.895 50.0433 241.783C49.9668 242.911 50.2731 243.971 50.8944 244.808C50.8178 244.953 50.7667 245.107 50.7582 245.278C50.6986 246.243 50.6391 247.217 50.5795 248.183C50.554 248.584 50.9029 249.089 51.3114 249.148C53.9327 249.584 56.5539 250.011 59.1666 250.447C59.8559 250.558 60.3581 250.174 60.4347 249.482L60.6474 247.585C62.2899 248.003 63.8984 248.542 65.4303 249.259C67.4643 250.216 69.4728 251.344 71.6685 251.891C73.8897 252.446 76.196 252.31 78.4343 251.934C79.5322 251.746 80.613 251.489 81.6853 251.207C82.681 250.951 83.7619 250.72 84.4767 249.909C85.5491 248.695 85.3448 246.952 84.281 245.833L84.3065 245.808ZM58.69 247.397C58.6559 247.696 58.6219 248.003 58.5879 248.302C56.6134 247.978 54.6305 247.653 52.6561 247.32C52.6816 246.944 52.6986 246.568 52.7241 246.192C52.7412 246.192 52.7582 246.209 52.7837 246.218C53.6092 246.542 54.4943 246.628 55.3794 246.688C56.5198 246.765 57.6347 246.901 58.7581 247.123C58.7326 247.209 58.707 247.303 58.6985 247.397H58.69Z" fill="var(--fill-0, #323232)"/>
<path id="Vector_22" d="M68.25 243.681C68.3106 243.637 68.2933 243.646 68.25 243.681Z" fill="var(--fill-0, #323232)"/>
<path id="Vector_23" d="M69.5859 242.98C69.8259 242.886 69.6631 242.946 69.5859 242.98Z" fill="var(--fill-0, #323232)"/>
<path id="Vector_24" d="M66.7836 241.015C66.7836 241.015 66.7664 241.032 66.7578 241.049C66.8266 240.981 66.861 240.938 66.861 240.938C66.8524 240.946 66.8352 240.963 66.8266 240.972C66.8094 240.989 66.8008 241.006 66.7836 241.024V241.015Z" fill="var(--fill-0, #323232)"/>
<path id="Vector_25" d="M25.1897 243.091C27.0535 242.544 29.0194 242.792 30.696 243.808C31.147 244.082 31.8193 243.92 32.0661 243.45C32.3214 242.963 32.1853 242.364 31.7087 242.074C29.6151 240.801 27.0109 240.459 24.662 241.151C24.1599 241.296 23.794 241.869 23.9642 242.39C24.1259 242.903 24.6535 243.253 25.1982 243.091H25.1897Z" fill="var(--fill-0, #323232)"/>
<path id="Vector_26" d="M67.0563 240.75C67.0563 240.75 67.0477 240.75 67.0391 240.759C67.1079 240.716 67.1423 240.69 67.1509 240.681C67.1509 240.681 67.1337 240.69 67.1337 240.698C67.1079 240.716 67.0821 240.733 67.0649 240.75H67.0563Z" fill="var(--fill-0, #323232)"/>
<path id="Vector_27" d="M68.4887 239.972C68.4887 239.972 68.4285 239.998 68.3941 240.015C68.3597 240.032 68.3597 240.032 68.4973 239.972C68.4973 239.972 68.4973 239.972 68.4887 239.972Z" fill="var(--fill-0, #323232)"/>
<path id="Vector_28" d="M68.7156 120.908C68.4943 120.806 68.2305 120.771 67.9922 120.831V120.874L68.7156 120.917V120.908Z" fill="var(--fill-0, #323232)"/>
<path id="Vector_29" d="M67.9923 120.823C67.9923 120.823 67.9321 120.849 67.9062 120.857H68.0095L68.0008 120.823H67.9923Z" fill="var(--fill-0, #323232)"/>
<path id="Vector_30" d="M67.1164 120.814C67.0568 120.37 66.7419 119.968 66.1632 119.968C53.1252 120.114 40.0871 120.259 27.0491 120.404C26.3767 120.404 26.0618 120.959 26.0874 121.481C26.1129 121.959 26.4278 122.42 27.0491 122.412C28.4618 122.395 29.866 122.378 31.2788 122.361V127.581C31.2788 128.111 31.7383 128.606 32.283 128.589C32.8277 128.564 33.2873 128.145 33.2873 127.581V122.344C33.7213 122.344 34.1638 122.335 34.5978 122.326C34.5808 123.847 34.5723 125.36 34.5553 126.881C34.5553 127.111 34.5553 127.35 34.5553 127.581C34.5553 128.111 35.0234 128.606 35.5595 128.589C36.1042 128.564 36.5553 128.145 36.5638 127.581C36.5808 125.949 36.5893 124.326 36.6063 122.694C36.6063 122.566 36.6063 122.429 36.6063 122.301C43.2871 122.224 49.9593 122.156 56.64 122.079C56.64 122.087 56.64 122.096 56.64 122.113V127.581C56.64 128.111 57.0996 128.606 57.6442 128.589C58.1889 128.564 58.6485 128.145 58.6485 127.581V122.113C58.6485 122.113 58.6485 122.079 58.6485 122.062C59.091 122.062 59.525 122.053 59.9676 122.045C59.9505 123.659 59.942 125.266 59.925 126.881C59.925 127.111 59.925 127.35 59.925 127.581C59.925 128.111 60.3931 128.606 60.9293 128.589C61.4739 128.564 61.925 128.145 61.9335 127.581C61.9505 125.949 61.959 124.326 61.9761 122.694C61.9761 122.472 61.9761 122.241 61.9761 122.019C63.3888 122.002 64.793 121.985 66.2058 121.968C66.9121 121.968 67.2355 121.344 67.1589 120.797L67.1164 120.814Z" fill="var(--fill-0, #323232)"/>
<path id="Vector_31" d="M24.8754 126.163C24.901 126.701 25.318 127.171 25.8797 127.171C26.9945 127.171 28.1179 127.163 29.2328 127.154C29.3945 127.154 29.5562 127.154 29.7179 127.154C30.2455 127.154 30.7477 126.693 30.7221 126.146C30.6966 125.608 30.2796 125.138 29.7179 125.138C28.603 125.138 27.4796 125.146 26.3648 125.155C26.2031 125.155 26.0414 125.155 25.8797 125.155C25.352 125.155 24.8584 125.616 24.8754 126.163Z" fill="var(--fill-0, #323232)"/>
<path id="Vector_32" d="M63.8609 124.847C63.7162 124.83 63.5715 124.813 63.4269 124.805C63.1886 124.779 62.8822 124.933 62.7205 125.095C62.5503 125.266 62.4141 125.556 62.4311 125.804C62.4396 126.061 62.5247 126.334 62.7205 126.513C62.9247 126.701 63.146 126.778 63.4269 126.804C64.4311 126.906 65.4268 127.009 66.4311 127.112C66.5757 127.129 66.7204 127.137 66.8651 127.154C67.1034 127.18 67.4098 127.026 67.5715 126.864C67.7417 126.693 67.8778 126.402 67.8608 126.155C67.8523 125.898 67.7672 125.625 67.5715 125.445C67.3672 125.257 67.1459 125.181 66.8651 125.155C65.8608 125.052 64.8651 124.95 63.8609 124.847Z" fill="var(--fill-0, #323232)"/>
<path id="Vector_33" d="M51.8121 123.847C47.5228 123.916 43.225 123.976 38.9358 124.044C37.6507 124.061 37.6422 126.077 38.9358 126.052C43.225 125.983 47.5228 125.924 51.8121 125.855C53.0972 125.838 53.1057 123.822 51.8121 123.847Z" fill="var(--fill-0, #323232)"/>
<path id="Vector_34" d="M23.0391 121.489C23.1667 121.575 23.3199 121.635 23.4816 121.644V121.489H23.0391Z" fill="var(--fill-0, #323232)"/>
<path id="Vector_35" d="M23.4922 121.644C23.4922 121.644 23.5433 121.644 23.5773 121.644C23.7645 121.644 23.9432 121.575 24.0964 121.481H23.4922V121.635V121.644Z" fill="var(--fill-0, #323232)"/>
<path id="Vector_36" d="M18.1241 116.594C19.1198 116.944 20.2432 116.893 21.1028 116.244C21.9198 115.62 22.4815 114.338 23.5112 114.133C25.3495 113.766 27.2899 113.484 29.1622 113.381C29.6558 113.356 30.1835 113.45 30.5749 113.065C30.9239 112.723 30.7707 112.484 30.8047 112.057C30.8047 111.988 30.7451 111.946 30.7196 111.912C30.6005 111.903 30.4728 111.912 30.3707 111.912C29.9962 111.912 29.6218 111.929 29.2473 111.946C27.4091 112.023 25.5708 112.202 23.7325 112.245C22.4304 112.27 22.4645 110.331 23.7325 110.237C25.2814 110.126 26.8218 109.972 28.3622 109.87C29.0601 109.827 29.7494 109.81 30.4388 109.784C30.8813 109.767 31.2728 109.673 31.4685 109.212C31.5962 108.913 31.5877 108.673 31.3324 108.52C30.9154 108.263 30.1154 108.408 29.6473 108.383C29.0175 108.349 28.3878 108.383 27.7495 108.408C27.4942 108.417 27.2303 108.443 26.975 108.46C26.7622 108.477 26.541 108.494 26.3282 108.511C25.2814 108.596 24.2176 108.682 23.1793 108.622C21.9028 108.545 21.8858 106.597 23.1793 106.614C24.2261 106.631 25.2729 106.58 26.3112 106.512C26.8218 106.469 27.3239 106.435 27.8261 106.409C28.4814 106.358 29.1367 106.315 29.792 106.272C30.2941 106.238 30.7962 106.213 31.2983 106.204C31.6388 106.196 32.0983 106.272 32.4217 106.161C33.443 105.794 33.1706 104.658 32.1664 104.529C29.0005 104.35 25.8601 104.632 22.6942 104.7C21.9964 104.717 21.3666 103.812 21.8262 103.188C22.5496 102.214 23.2474 101.231 23.9453 100.24C24.3027 99.7361 24.8474 99.5908 25.3921 99.3687C26.4133 98.95 27.4346 98.5313 28.4388 98.0785C29.1026 97.7795 30.2005 97.4548 30.5749 96.7712C30.7026 96.5491 30.6941 96.4209 30.609 96.3355C30.3451 96.0621 29.8345 96.0706 29.4941 96.0877C28.7111 96.1133 27.9367 96.5235 27.1963 96.7456C26.4644 96.9678 25.7155 97.1728 24.9921 97.4206C23.6474 97.882 22.6857 98.5313 21.8687 99.7019C21.2304 100.608 20.5411 101.471 19.8603 102.342C18.9667 103.478 17.8858 104.649 17.2986 105.99C16.6858 107.392 16.5071 108.972 16.2603 110.468C16.0476 111.758 15.6901 113.005 16.0561 114.304C16.3539 115.363 17.0688 116.261 18.1241 116.628V116.594Z" fill="var(--fill-0, white)"/>
<path id="Vector_37" d="M51.6467 46.9923C55.3318 44.9588 56.9062 41.0028 57.5275 37.0383C57.5785 36.7051 57.9189 36.4231 58.2253 36.3377C58.8636 36.1582 59.6295 36.0472 60.2168 35.7481C61.0338 35.3294 61.3912 33.988 61.4678 33.1421C61.5359 32.3646 61.2465 31.0232 60.3615 30.8096C60.1912 30.7668 60.0296 30.7839 59.8593 30.8096C59.7572 31.0488 59.6636 31.288 59.553 31.5187C59.0849 32.544 57.7998 31.8605 57.6892 31.0146C57.4338 29.0751 57.1105 27.1355 56.9062 25.1875C56.8126 25.2216 56.6509 25.1362 56.77 24.803C56.3105 24.034 55.8424 23.2735 55.3403 22.5302C54.4467 21.1802 53.2722 19.9669 52.3786 18.5999C50.7957 20.5479 48.2255 21.821 45.9958 22.6755C45.1617 22.9916 44.4383 21.8979 44.8639 21.1973C44.8894 21.1546 44.9149 21.1033 44.949 21.0606C44.0894 21.5049 43.2129 21.915 42.3363 22.3166C40.6938 23.0514 39.0342 23.7606 37.3747 24.4612C37.1959 26.5716 37.0172 28.682 36.847 30.7925C36.7534 31.9459 35.2811 32.1254 34.8811 31.0573C34.83 30.9292 34.7875 30.801 34.7364 30.6728C34.6939 30.6558 34.6598 30.6387 34.6173 30.613C32.8641 29.5194 32.8216 32.7235 33.0343 33.6291C33.3832 35.1158 34.4981 35.7737 35.9619 35.9874C36.2683 36.0301 36.6172 36.3889 36.6598 36.688C37.0598 39.2085 37.664 41.7632 39.1619 43.8737C41.9022 47.7186 47.4426 49.2907 51.6382 46.9752L51.6467 46.9923ZM42.9065 30.0918C41.6129 30.0918 41.6214 28.0839 42.9065 28.0839C44.1915 28.0839 44.1915 30.0918 42.9065 30.0918ZM52.1659 30.0918C50.8723 30.0918 50.8808 28.0839 52.1659 28.0839C53.4509 28.0839 53.4509 30.0918 52.1659 30.0918ZM50.5914 24.9226C51.2467 24.7432 51.9361 24.6663 52.6169 24.6919C53.2127 24.709 53.8509 24.7688 54.4041 24.9995C54.6594 25.102 54.8552 25.2302 54.9998 25.4609C55.1445 25.6916 55.1616 25.9821 55.102 26.2384C55.0509 26.4776 54.8467 26.7169 54.6424 26.8365C54.4467 26.9561 54.0892 27.033 53.868 26.939C53.6382 26.845 53.3999 26.7852 53.1531 26.751C52.668 26.6998 52.1744 26.6998 51.6978 26.751C51.5021 26.7852 51.3148 26.8194 51.1276 26.8707C50.5829 27.0159 50.0638 26.6912 49.8936 26.17C49.7234 25.6574 50.0893 25.0678 50.5914 24.9311V24.9226ZM47.9106 34.5775C49.2042 34.5775 49.1957 36.5854 47.9106 36.5854C46.6255 36.5854 46.6255 34.5775 47.9106 34.5775ZM46.1064 40.0629C46.1064 40.0629 46.1234 40.08 46.1319 40.0886C46.149 40.0971 46.166 40.1142 46.1745 40.1228C46.2511 40.174 46.3362 40.2253 46.4128 40.268C46.4553 40.2936 46.4979 40.3107 46.5404 40.3278C46.6426 40.3705 46.6255 40.3705 46.4979 40.3107C46.549 40.3534 46.6426 40.362 46.7021 40.3876C46.7957 40.4218 46.8894 40.4474 46.983 40.4645C47.0511 40.4816 47.2043 40.5414 47.2723 40.5243C47.1362 40.5072 47.1106 40.5072 47.1872 40.5158C47.2213 40.5158 47.2638 40.5158 47.2979 40.5243C47.3915 40.5329 47.4936 40.5414 47.5957 40.5414C47.6979 40.5414 47.8 40.5414 47.9021 40.5414C47.9532 40.5414 48.0042 40.5414 48.0553 40.5243C48.0213 40.5243 47.9787 40.5329 47.9447 40.5414C48.1234 40.55 48.3702 40.456 48.5404 40.3962C48.5574 40.3962 48.7106 40.3278 48.7361 40.3193C48.7872 40.2936 48.8383 40.268 48.8468 40.2595C48.9319 40.2167 49.0085 40.1655 49.0936 40.1142C49.1361 40.0886 49.1702 40.0629 49.2042 40.0373C49.1872 40.0544 49.1872 40.0544 49.1787 40.0629C49.6127 39.7212 50.1489 39.6785 50.5829 40.0715C50.9574 40.4133 50.9914 41.1566 50.5829 41.4898C49.7404 42.1819 48.6936 42.5749 47.6042 42.5493C46.5404 42.5322 45.5192 42.1905 44.7107 41.4898C44.2852 41.1224 44.3618 40.4474 44.7107 40.0715C45.0937 39.6528 45.7319 39.7297 46.1234 40.0715L46.1064 40.0629ZM40.4214 25.4609C40.5661 25.2131 40.7703 25.102 41.0171 24.9995C41.5703 24.7688 42.2086 24.709 42.8043 24.6919C43.4767 24.6748 44.1745 24.7517 44.8298 24.9226C45.3745 25.0678 45.6469 25.6318 45.5277 26.1615C45.4086 26.6912 44.8043 26.9988 44.2937 26.8621C44.1064 26.8108 43.9107 26.7767 43.7235 26.7425C43.2384 26.6912 42.7533 26.6827 42.2682 26.7425C42.0214 26.7852 41.7831 26.8365 41.5533 26.9305C41.315 27.033 41.0001 26.9476 40.7788 26.8279C40.5491 26.7083 40.3959 26.4691 40.3193 26.2299C40.2427 25.9906 40.2938 25.6745 40.4214 25.4523V25.4609Z" fill="var(--fill-0, white)"/>
<path id="Vector_38" d="M46.8405 51.709C47.0022 51.7603 47.215 51.8116 47.3852 51.8885C47.3937 51.8714 47.666 51.9056 47.8107 51.9141C47.8958 51.9141 48.0235 51.897 48.083 51.8885H48.1001C48.2958 51.7945 48.5256 51.7432 48.7298 51.6663C51.0702 50.8546 53.4106 50.0429 55.751 49.2227C55.6488 48.2999 55.5637 47.3857 55.5042 46.4629C52.3893 49.6841 47.7596 51.0255 43.3427 49.4021C41.8619 48.8638 40.5087 48.0521 39.3428 47.0183C39.3172 47.7274 39.2577 48.4451 39.1641 49.1458L41.4193 49.8977C43.2321 50.5043 45.0363 51.1109 46.849 51.709H46.8405Z" fill="var(--fill-0, white)"/>
<path id="Vector_39" d="M45.1783 53.2725C42.7614 52.4693 40.3529 51.6576 37.9359 50.8545C37.8848 50.8545 37.8253 50.8459 37.7742 50.8374C37.6636 50.8118 37.57 50.769 37.4849 50.7092C37.4593 50.7092 37.4423 50.6921 37.4168 50.6836C37.1274 51.7858 36.8466 52.8966 36.5572 53.9988C36.4806 54.2893 36.4125 54.5883 36.3359 54.8788C36.387 54.8959 36.4381 54.913 36.4891 54.9301C38.9061 55.776 41.3146 56.6133 43.7315 57.4592C44.2081 56.0664 44.6932 54.6652 45.1698 53.2725H45.1783Z" fill="var(--fill-0, white)"/>
<path id="Vector_40" d="M68.3164 68.8228C70.8355 68.1478 73.3546 67.4643 75.8822 66.7893C75.6354 66.2425 75.3546 65.7042 75.2014 65.0975C74.912 63.9184 75.4567 62.7821 76.0354 61.7909C76.6482 60.74 77.2865 59.7147 77.8822 58.6552C78.3758 57.7751 78.9886 56.8267 79.1928 55.8185C79.38 53.8448 78.6907 51.572 77.763 49.8632C77.5673 49.4958 77.346 49.1113 77.0312 48.8293C76.9886 48.7866 76.8269 48.6841 76.912 48.7183C76.895 48.7183 76.8865 48.7097 76.8694 48.7012C76.7588 48.7012 76.6312 48.7439 76.5205 48.7866C76.1801 48.9062 75.9248 49.1455 75.7971 49.4616C75.7461 49.5898 75.7205 49.7179 75.695 49.8461C75.695 49.8547 75.695 49.8546 75.695 49.8632C75.6099 50.8372 74.3844 51.1534 73.8397 50.3246C73.7972 50.2648 73.5078 49.8546 73.278 49.7692C73.0142 49.6752 72.461 49.8803 72.5376 50.2648C72.6993 51.0765 71.8568 51.8967 71.0653 51.4011C70.5972 51.1021 70.3674 50.7262 69.8738 51.0765C69.4568 51.3755 69.3036 51.7002 69.2866 52.2128C69.2441 53.1442 67.8909 53.6568 67.4228 52.717C67.1675 52.2043 66.0441 52.1616 65.6611 52.5888C65.4654 52.8109 65.4824 53.2894 65.4229 53.5714C65.3292 53.9901 65.159 54.3831 65.0484 54.7932C64.9803 55.0495 64.8186 56.0065 65.2441 55.9552C65.4654 55.9296 65.7548 55.4597 65.8654 55.2802C65.9505 55.135 66.0016 55.041 66.0526 54.8872C66.0612 54.8616 66.0697 54.8445 66.0782 54.8274C66.0782 54.8018 66.0696 54.7761 66.0611 54.7505C65.6782 53.503 67.593 52.9989 67.993 54.2122C68.0356 54.3318 68.0526 54.4514 68.0696 54.5796C68.4186 56.3226 67.4994 57.9631 66.9037 59.5694C66.376 60.9963 66.2229 62.6966 66.8016 64.1235C67.4228 65.6529 67.8994 67.2336 68.3249 68.8228H68.3164Z" fill="var(--fill-0, white)"/>
<path id="Vector_41" d="M84.9085 96.3605C84.7128 93.9937 84.1766 91.6355 83.6745 89.32C83.1213 86.7568 82.5256 84.2106 81.9213 81.6644C80.8575 77.1531 79.7171 72.6332 78.9086 68.062C75.3427 69.019 71.7768 69.9759 68.2109 70.9329C68.4748 73.0689 68.8322 75.1879 69.2577 77.2983C69.3599 77.2641 69.4705 77.2385 69.5726 77.2043C72.296 76.3926 75.0108 75.5724 77.7342 74.7607C78.9767 74.3933 79.4958 76.3328 78.2703 76.7002C77.8788 76.8198 77.4789 76.9395 77.0874 77.0591C74.6108 77.8024 72.1428 78.5458 69.6662 79.2806C70.296 82.2625 70.9854 85.2359 71.5726 88.2178C72.0662 90.7469 72.4492 93.276 72.7556 95.8307C73.0534 98.3 73.6917 100.94 76.0831 102.171C77.9044 103.102 80.3554 103.315 82.2787 102.572C84.7723 101.607 85.1213 98.7272 84.917 96.369L84.9085 96.3605Z" fill="var(--fill-0, white)"/>
<path id="Vector_42" d="M48.6549 65.798C48.5612 64.6274 48.4506 63.4569 48.3144 62.2863C48.2974 62.1667 48.2804 62.047 48.2719 61.9189C48.2719 61.8762 48.2634 61.8249 48.2549 61.7907C48.2293 61.6284 48.2038 61.4575 48.1783 61.2952C48.1783 61.2781 48.1783 61.261 48.1698 61.2439H47.3868C47.3698 61.3464 47.3527 61.449 47.3357 61.5515C47.3017 61.748 47.2762 61.9445 47.2506 62.141C47.1911 62.5512 47.2251 62.2777 47.1825 62.6793C47.0038 64.0806 46.8506 65.4818 46.706 66.8916C45.9145 74.4874 45.2592 82.1003 44.5869 89.7047C44.289 93.1138 43.9911 96.5145 43.6847 99.9236C43.5486 101.462 43.4379 103.008 43.2422 104.537C43.9571 105.093 44.672 105.648 45.3783 106.229C45.9485 106.699 46.5272 107.178 47.0634 107.699C47.123 107.75 47.1825 107.818 47.2336 107.87C47.4379 107.716 47.6336 107.562 47.8378 107.391C48.408 106.913 48.9527 106.417 49.4974 105.905C50.0591 105.383 50.6208 104.845 51.1654 104.298C51.0803 103.751 51.0463 103.196 51.0037 102.658C50.8846 101.308 50.791 99.9492 50.6974 98.5992C50.2038 91.106 49.8293 83.6041 49.3783 76.1108C49.1655 72.6761 48.9527 69.2327 48.6719 65.798H48.6549Z" fill="var(--fill-0, #CBB0EC)"/>
<path id="Vector_43" d="M40.9535 119.917C47.8044 117.183 54.1277 113.338 59.6936 108.485C60.6723 107.639 59.251 106.221 58.2808 107.067C52.9958 111.672 46.9364 115.389 40.4258 117.986C39.2429 118.456 39.762 120.404 40.962 119.926L40.9535 119.917Z" fill="var(--fill-0, #323232)"/>
<path id="Vector_44" d="M47.0888 53.8533C46.7569 54.8102 46.4335 55.7672 46.1016 56.7241C46.1867 56.8352 46.2462 56.9548 46.2973 57.0915L47.1909 59.2361H48.2462C48.493 58.4501 48.7483 57.6725 48.9951 56.8865C49.0547 56.69 49.1653 56.5362 49.3015 56.408C49.0206 55.5536 48.7398 54.6991 48.4675 53.8447C47.9909 53.9558 47.5398 53.9302 47.0888 53.8447V53.8533Z" fill="var(--fill-0, #CBB0EC)"/>
<path id="Vector_45" d="M44.6896 40.0627C44.3406 40.4387 44.264 41.1137 44.6896 41.4811C45.4981 42.1817 46.5193 42.5235 47.5831 42.5406C48.681 42.5577 49.7192 42.1646 50.5618 41.4811C50.9703 41.1479 50.9362 40.4045 50.5618 40.0627C50.1363 39.6697 49.5916 39.7039 49.1576 40.0542C49.1661 40.0457 49.1661 40.0457 49.1831 40.0286C49.1491 40.0542 49.1065 40.0798 49.0725 40.1055C48.9959 40.1567 48.9107 40.208 48.8256 40.2507C48.8171 40.2507 48.7661 40.2849 48.715 40.3105C48.6895 40.3105 48.5448 40.3789 48.5193 40.3874C48.3491 40.4472 48.1108 40.5412 47.9235 40.5327C47.9576 40.5327 48.0001 40.5241 48.0342 40.5156C47.9831 40.5156 47.9321 40.5241 47.881 40.5327C47.7789 40.5327 47.6767 40.5412 47.5746 40.5327C47.4725 40.5327 47.3789 40.5327 47.2768 40.5156C47.2427 40.5156 47.2002 40.5156 47.1661 40.507C47.0895 40.4985 47.1151 40.5071 47.2512 40.5156C47.1831 40.5327 47.0384 40.4729 46.9618 40.4558C46.8682 40.4301 46.7746 40.4045 46.681 40.3789C46.6214 40.3618 46.5278 40.3447 46.4768 40.302C46.6044 40.3618 46.6214 40.3618 46.5193 40.3191C46.4768 40.302 46.4342 40.2764 46.3917 40.2593C46.3066 40.2165 46.23 40.1653 46.1534 40.114C46.1363 40.1055 46.1193 40.0884 46.1108 40.0798C46.1023 40.0798 46.1108 40.0798 46.0853 40.0542C45.6853 39.7124 45.0555 39.6355 44.6726 40.0542L44.6896 40.0627Z" fill="var(--fill-0, #323232)"/>
<path id="Vector_46" d="M47.9077 36.5853C49.1928 36.5853 49.2013 34.5774 47.9077 34.5774C46.6141 34.5774 46.6141 36.5853 47.9077 36.5853Z" fill="var(--fill-0, #323232)"/>
<path id="Vector_47" d="M52.1545 28.084C50.8694 28.084 50.8609 30.0919 52.1545 30.0919C53.4481 30.0919 53.4481 28.084 52.1545 28.084Z" fill="var(--fill-0, #323232)"/>
<path id="Vector_48" d="M42.9045 28.084C41.6194 28.084 41.6109 30.0919 42.9045 30.0919C44.1981 30.0919 44.1981 28.084 42.9045 28.084Z" fill="var(--fill-0, #323232)"/>
<path id="Vector_49" d="M47.3047 17.1222C47.4075 16.9165 47.339 16.8994 47.3047 17.1222Z" fill="var(--fill-0, #78C8E6)"/>
<path id="Vector_50" d="M35.2598 25.8197C35.3193 25.1447 35.3704 24.4697 35.43 23.7947C35.4725 23.3077 35.7194 23.0172 36.1619 22.8293C37.881 22.103 39.8214 21.2742 41.6086 20.471C42.9618 19.8644 44.3064 19.2236 45.5575 18.4204C46.0426 18.1128 46.5191 17.7796 46.9361 17.378C47.2085 17.1132 47.4298 16.7372 47.7617 16.5493C48.2553 16.2587 49.1404 16.4894 49.234 17.1473C49.3276 17.8565 48.834 18.6255 48.3915 19.2834C49.5829 18.5828 50.9531 17.66 51.4808 16.3784C51.8637 15.447 53.0382 15.4043 53.4126 16.3784C53.8467 17.5062 54.7318 18.3606 55.4637 19.2919C56.1871 20.2147 56.8509 21.1888 57.4892 22.1713C58.0423 23.0258 58.7317 23.8802 58.8678 24.9055C58.953 25.5207 59.0295 26.1359 59.1146 26.7511C59.4806 25.4352 59.7614 24.0853 59.8976 22.7267C60.0678 21.0179 60.4423 15.917 57.5487 16.1049C57.0891 16.1306 56.7232 15.7632 56.587 15.3701C56.17 14.2167 55.5488 13.0119 54.6041 12.2088C52.2127 10.4914 49.1404 9.91039 46.2468 10.0386C43.6426 10.1496 41.1916 11.0639 39.115 12.636C38.1363 13.3793 37.2427 14.2679 36.4683 15.2249C35.8385 16.0024 35.1747 16.8739 34.9109 17.8565C34.3151 20.0609 34.596 22.6157 35.03 24.8286C35.0981 25.1618 35.1832 25.4951 35.2683 25.8283L35.2598 25.8197Z" fill="var(--fill-0, #323232)"/>
<path id="Vector_51" d="M56.9335 25.0766C56.9335 25.0766 56.9078 25.0337 56.8906 25.0166C56.8906 25.0766 56.9078 25.1451 56.9163 25.2051C56.9678 25.188 57.0021 25.1366 56.9335 25.0766Z" fill="var(--fill-0, #78C8E6)"/>
<path id="Vector_52" d="M56.8841 25.0166C56.8841 25.0166 56.8841 24.9739 56.8841 24.9482C56.8841 24.897 56.8155 24.7175 56.8498 24.6577C56.8155 24.7175 56.7984 24.7688 56.7812 24.8201C56.7812 24.8201 56.7812 24.8286 56.7812 24.8371C56.807 24.8799 56.8412 24.9568 56.8841 25.0166Z" fill="var(--fill-0, #78C8E6)"/>
<path id="Vector_53" d="M56.9042 25.2043C56.9042 25.1445 56.8872 25.0762 56.8787 25.0164C56.8361 24.9565 56.8021 24.8796 56.7765 24.8369C56.7765 24.8369 56.7765 24.8284 56.7765 24.8198C56.6574 25.153 56.8191 25.2385 56.9127 25.2043H56.9042Z" fill="var(--fill-0, #323232)"/>
<path id="Vector_54" d="M40.7768 26.8364C40.9981 26.956 41.3045 27.0415 41.5513 26.939C41.781 26.845 42.0193 26.7852 42.2661 26.751C42.7512 26.6997 43.2448 26.6997 43.7214 26.751C43.9172 26.7852 44.1044 26.8193 44.2916 26.8706C44.7938 27.0073 45.4065 26.6997 45.5257 26.17C45.6448 25.6402 45.364 25.0849 44.8278 24.9311C44.1725 24.7516 43.4831 24.6747 42.8023 24.7004C42.2066 24.7175 41.5683 24.7773 41.0151 25.008C40.7598 25.1105 40.5641 25.2216 40.4194 25.4694C40.2917 25.683 40.2406 25.9991 40.3172 26.2469C40.3938 26.4861 40.547 26.7254 40.7768 26.845V26.8364Z" fill="var(--fill-0, #323232)"/>
<path id="Vector_55" d="M51.1122 26.8618C51.2995 26.8105 51.4952 26.7763 51.6824 26.7421C52.1675 26.6909 52.6611 26.6823 53.1377 26.7421C53.3845 26.7849 53.6228 26.8361 53.8526 26.9301C54.0739 27.0241 54.4228 26.9472 54.6271 26.8276C54.8313 26.708 55.0356 26.4687 55.0866 26.2295C55.1462 25.9732 55.1292 25.6827 54.9845 25.452C54.8313 25.2127 54.6441 25.0931 54.3888 24.9906C53.8356 24.7599 53.1973 24.7001 52.6016 24.683C51.9292 24.6659 51.2314 24.7428 50.5761 24.9137C50.0739 25.0504 49.708 25.6314 49.8782 26.1526C50.0484 26.6738 50.5676 27.007 51.1122 26.8532V26.8618Z" fill="var(--fill-0, #323232)"/>
<path id="Vector_56" d="M86.3024 92.2425C85.8173 89.628 85.2301 87.0391 84.6259 84.4502C83.2472 78.5034 81.6557 72.5652 80.6685 66.533C80.5834 65.9947 79.911 65.7042 79.4345 65.8323C78.9323 65.969 78.4217 66.1057 77.9196 66.2424C77.8175 66.0545 77.7154 65.875 77.6132 65.6956C77.46 65.4051 77.3153 65.1146 77.1962 64.807C76.8898 64.0124 77.5622 63.1238 77.9707 62.4317C78.5919 61.3893 79.2217 60.3555 79.8089 59.2874C80.3281 58.3476 80.9578 57.2966 81.1451 56.2286C81.1536 56.1774 81.1536 56.1261 81.1536 56.0748C81.1536 56.0406 81.1706 56.0065 81.1791 55.9637C81.3493 54.5625 81.0174 53.0502 80.6259 51.7087C80.2174 50.3075 79.6643 48.8293 78.7111 47.7015C77.392 46.1379 75.3494 46.6676 74.3197 48.0689C73.8771 47.7955 73.3835 47.6417 72.8474 47.6929C72.0048 47.7784 71.2984 48.3338 70.8985 49.0515C70.2517 48.8208 69.6219 48.8379 68.8474 49.342C68.3538 49.6581 67.9794 50.0597 67.7241 50.5125C66.7964 50.1879 65.673 50.2904 64.839 50.7432C63.9965 51.1961 63.6901 51.9223 63.5114 52.8195C63.3412 53.6739 62.9412 54.4685 62.9327 55.3571C62.9327 55.4425 62.9326 55.528 62.9412 55.6134C62.5327 55.4255 62.1327 55.246 61.7242 55.0581L59.2647 49.1113C59.0689 48.6328 58.5923 48.2141 58.0306 48.4106C57.9115 48.4534 57.7838 48.4961 57.6647 48.5388C57.5455 47.317 57.4434 46.0866 57.3753 44.8648C57.3668 44.6512 57.2902 44.4461 57.1711 44.2752C58.337 42.3699 58.9668 40.2851 59.3412 38.1149C60.2689 37.8756 61.2476 37.6193 61.9114 36.9443C63.0092 35.8421 63.5965 33.9111 63.4178 32.3817C63.2476 30.9377 62.4476 29.2972 60.9412 28.8956C60.8221 28.8615 60.7029 28.8529 60.5838 28.8358C61.3752 26.4862 61.8603 23.9998 61.971 21.5562C62.0901 18.8476 61.5029 14.4217 58.2179 14.0971C57.6902 12.8154 56.9583 11.5338 55.903 10.6794C55.869 10.6537 55.8349 10.6366 55.8009 10.611C55.7668 10.5768 55.7413 10.5512 55.6988 10.517C53.3414 8.78254 50.3031 8.07338 47.4181 7.99648C44.4819 7.91958 41.6139 8.61166 39.1118 10.1753C36.831 11.5936 34.6694 13.7126 33.4098 16.1135C32.295 18.2495 32.4822 21.0691 32.763 23.3846C32.9758 25.1276 33.4013 26.7938 33.929 28.4428C33.163 28.4684 32.4226 28.776 31.8864 29.3741C30.9843 30.3823 30.7801 31.8519 30.9163 33.1507C31.0439 34.3981 31.4269 35.7481 32.4056 36.6025C33.0694 37.1835 33.929 37.5851 34.8055 37.8073C35.2055 40.1484 35.8438 42.4895 37.1374 44.4974C37.197 44.5914 37.2651 44.6768 37.3331 44.7708C37.3417 45.3604 37.3332 45.9585 37.3161 46.548C37.2991 47.0863 37.2736 47.6246 37.231 48.1629C37.231 48.2654 37.2055 48.3765 37.197 48.479C37.1204 48.4534 37.0438 48.4277 36.9672 48.4021C36.4566 48.2312 35.8694 48.5986 35.7332 49.1027C35.2396 51.0166 34.746 52.9305 34.2439 54.8444C34.2183 54.8872 34.1928 54.9299 34.1672 54.9812C33.0183 55.4425 31.912 55.8441 30.6524 56.0663C28.3376 56.4849 25.9291 56.5191 23.6653 57.1856C19.4016 58.4416 15.7846 61.7567 13.24 65.2855C13.0953 65.4905 13.0442 65.6871 13.0528 65.8665C13.0187 65.9007 12.9932 65.9349 12.9592 65.969C9.96347 70.1728 7.00183 74.3936 4.11677 78.6743C1.98065 81.8442 -0.300166 84.9287 -2.25757 88.2096C-4.18945 91.4564 -6.1043 95.1646 -6.21494 99.0266C-6.27451 100.958 -5.62772 102.607 -4.81922 104.324C-3.7469 106.605 -1.20227 107.793 0.831731 109.066C5.6827 112.108 10.4996 115.167 15.7591 117.457C16.2868 117.926 16.9165 118.302 17.6654 118.533C18.942 118.926 20.4313 118.883 21.6228 118.243C21.9207 118.08 22.193 117.884 22.4569 117.662C22.4909 118.644 22.5164 119.635 22.5505 120.618C22.559 120.96 22.7462 121.276 23.027 121.464H23.4696H24.0738C24.3632 121.293 24.5674 120.985 24.5589 120.618C24.5079 119.071 24.4568 117.525 24.4142 115.978C26.3121 115.645 28.2269 115.551 30.1248 115.329C31.6992 115.141 32.8907 113.817 32.8141 112.202C32.7886 111.749 32.6779 111.356 32.4907 111.023C32.5077 111.006 32.5332 110.997 32.5503 110.98C33.4609 110.134 33.6992 108.852 33.2737 107.853C34.1077 107.494 34.7545 106.819 35.0098 105.811C35.4609 104.068 33.929 102.795 32.3801 102.504C32.3035 102.487 32.2269 102.47 32.1418 102.461C29.6567 102.325 27.1887 102.461 24.7036 102.564C24.9759 102.188 25.2398 101.804 25.4951 101.419C27.1035 100.778 28.7206 100.129 30.278 99.3684C31.146 98.9412 31.9716 98.4029 32.3971 97.4887C32.8737 96.4463 32.6098 95.2244 31.6482 94.5665C30.346 93.6694 28.7801 94.0453 27.4099 94.5067C25.8695 95.0194 24.2611 95.3612 22.8143 96.1045C22.5249 91.6102 22.2186 87.1074 21.8696 82.6132C21.5547 78.5718 21.2228 74.5303 20.8143 70.4975C20.6867 69.2244 18.6782 69.2073 18.8144 70.4975C19.2314 74.667 19.5803 78.8366 19.9037 83.0148C20.1505 86.2274 20.3718 89.4486 20.5931 92.6612C20.7037 94.3188 20.8058 95.9763 20.9165 97.6339C20.4824 98.138 20.0909 98.6849 19.6654 99.2488C19.0271 100.112 18.3548 100.949 17.691 101.795C14.1847 99.77 11.3166 96.7795 7.76776 94.8229C6.63587 94.1991 5.62312 95.9336 6.75501 96.5573C10.2358 98.4713 13.0698 101.393 16.491 103.41C15.7846 104.452 15.2144 105.512 14.8825 106.802C14.474 108.4 14.2187 110.083 13.9634 111.715C13.8187 112.638 13.8527 113.586 14.0655 114.475C10.5507 112.749 7.19757 110.689 3.87848 108.596C2.77212 107.896 1.66575 107.203 0.55939 106.511C-0.461867 105.879 -1.54269 105.272 -2.37672 104.384C-3.05756 103.666 -3.44904 102.572 -3.79797 101.658C-4.06179 100.958 -4.18945 100.223 -4.19796 99.4795C-4.26605 95.8994 -2.38523 92.3963 -0.623565 89.4144C1.14661 86.4154 3.22318 83.6299 5.15505 80.742C8.26138 76.1025 11.4698 71.5228 14.7038 66.9772C14.8485 66.7807 14.8996 66.5757 14.8825 66.3962C14.9166 66.3621 14.9506 66.3279 14.9761 66.2937C16.6442 63.9782 18.7037 61.9874 21.1632 60.5434C22.1249 59.9795 23.1377 59.4327 24.2015 59.1166C25.5036 58.7321 26.8568 58.5868 28.2014 58.4245C29.6908 58.2365 31.1971 58.0571 32.6524 57.6897C33.4098 57.4932 34.1077 57.1685 34.8226 56.8694C35.0098 56.7925 35.18 56.7156 35.3332 56.6387C37.8523 57.5188 40.3629 58.3989 42.882 59.2704C43.282 59.4071 43.6735 59.5438 44.0734 59.689C44.4564 59.8257 44.8394 59.6463 45.0862 59.3558C45.2224 59.689 45.367 60.0223 45.5032 60.364C45.0351 61.9874 45.0011 63.833 44.8224 65.4991C44.4564 68.8912 44.133 72.2918 43.8181 75.6924C43.1118 83.3053 42.4564 90.9182 41.7756 98.5311C41.648 99.9409 41.5203 101.351 41.3927 102.76C41.3501 103.213 41.3075 103.658 41.2565 104.11C41.2395 104.273 41.2224 104.435 41.2054 104.597C41.2054 104.657 41.1884 104.717 41.1799 104.777C41.1629 104.905 41.1799 104.777 41.1969 104.691C41.1288 105.178 41.265 105.512 41.6565 105.811C42.1756 106.204 42.882 106.768 43.5288 107.289C44.0139 107.682 44.499 108.084 44.9756 108.502C45.1968 108.69 45.4096 108.887 45.6224 109.092C45.6904 109.16 46.0819 109.587 45.9458 109.408C46.6011 110.245 47.2734 110.245 48.1244 109.656C49.0776 108.998 49.9372 108.195 50.7797 107.417C51.4691 106.776 52.1839 106.144 52.8307 105.46C53.2818 104.982 53.2307 104.512 53.1286 103.914C53.1286 103.905 53.1286 103.897 53.1286 103.888C53.1286 103.871 53.1286 103.854 53.1286 103.82C53.1201 103.717 53.1031 103.615 53.0946 103.512C53.0605 103.222 53.035 102.923 53.0094 102.632C52.9414 101.88 52.8818 101.137 52.8307 100.385C52.1073 90.4311 51.7073 80.4515 51.0265 70.4889C50.8733 68.2503 50.7116 66.0117 50.4988 63.7732C50.3882 62.6368 50.3457 61.3979 50.0308 60.2871L50.3116 59.4071C50.4733 59.8685 51.018 60.2957 51.5286 60.0821C54.1073 59.014 56.686 57.9545 59.2731 56.8865C59.588 56.7584 59.9029 56.6302 60.2178 56.4935C60.2859 56.5448 60.3625 56.596 60.4476 56.6387C62.005 57.3308 63.5539 58.0485 65.0858 58.8004C64.9411 59.1507 64.8135 59.4925 64.7284 59.8257C64.3369 61.4662 64.2858 63.3032 64.9667 64.8754C65.5879 66.3193 66.022 67.8658 66.422 69.4038C66.2177 69.5576 66.09 69.8139 66.1326 70.1642C66.7368 75.6582 68.073 81.0581 69.1964 86.4666C69.0602 88.2524 68.9155 90.0381 68.7794 91.8238C68.2006 99.2317 67.5623 106.631 66.907 114.03C66.7709 115.551 66.6347 117.072 66.4986 118.593C66.4305 119.353 67.1028 119.661 67.69 119.516C68.09 119.422 68.456 119.114 68.4985 118.593C68.8985 114.278 69.273 109.963 69.6389 105.657C69.9623 101.88 70.2772 98.1124 70.5836 94.3358C70.6346 94.7374 70.6942 95.1476 70.7453 95.5577C71.0772 98.4285 71.6984 101.453 74.1409 103.282C76.0388 104.709 78.6941 105.187 81.0089 104.897C83.6216 104.572 85.6386 103.179 86.5237 100.641C87.4598 97.9586 86.8301 94.9339 86.3279 92.2254L86.3024 92.2425ZM16.2527 110.433C16.4995 108.938 16.6782 107.357 17.291 105.956C17.8782 104.615 18.9505 103.444 19.8526 102.308C20.5335 101.436 21.2313 100.573 21.8611 99.6674C22.6781 98.5054 23.6398 97.8561 24.9845 97.3861C25.7079 97.1384 26.4568 96.9333 27.1887 96.7111C27.9376 96.4804 28.712 96.0789 29.4865 96.0532C29.8269 96.0447 30.3375 96.0361 30.6014 96.301C30.6865 96.395 30.695 96.5146 30.5673 96.7368C30.1929 97.4203 29.095 97.7535 28.4312 98.044C27.427 98.4969 26.4057 98.9156 25.3845 99.3342C24.8398 99.5564 24.2951 99.7016 23.9377 100.206C23.2398 101.197 22.542 102.179 21.8186 103.153C21.3505 103.777 21.9888 104.683 22.6866 104.666C25.8525 104.597 28.9929 104.315 32.1588 104.495C33.163 104.623 33.4353 105.759 32.4141 106.127C32.0907 106.246 31.6311 106.161 31.2907 106.17C30.7886 106.187 30.2865 106.212 29.7844 106.238C29.129 106.281 28.4737 106.323 27.8184 106.375C27.3163 106.4 26.8142 106.443 26.3036 106.477C25.2568 106.546 24.21 106.597 23.1717 106.58C21.8781 106.563 21.8952 108.511 23.1717 108.588C24.21 108.647 25.2653 108.562 26.3206 108.477C26.5333 108.459 26.7546 108.442 26.9674 108.425C27.2227 108.408 27.4865 108.383 27.7418 108.374C28.3716 108.34 29.0014 108.314 29.6397 108.348C30.0993 108.374 30.9077 108.229 31.3247 108.485C31.5801 108.639 31.5886 108.878 31.4609 109.177C31.2652 109.639 30.8737 109.733 30.4312 109.75C29.7333 109.775 29.044 109.784 28.3546 109.835C26.8057 109.938 25.2653 110.091 23.7249 110.202C22.4568 110.296 22.4228 112.245 23.7249 112.21C25.5632 112.168 27.4014 111.988 29.2397 111.911C29.6142 111.894 29.9886 111.877 30.3631 111.877C30.4737 111.877 30.6014 111.869 30.712 111.877C30.7375 111.911 30.8056 111.954 30.7971 112.022C30.7716 112.45 30.9163 112.697 30.5673 113.031C30.1758 113.415 29.6482 113.313 29.1546 113.347C27.2823 113.458 25.3419 113.731 23.5036 114.099C22.4739 114.304 21.9122 115.585 21.0952 116.209C20.2441 116.858 19.1122 116.91 18.1165 116.559C17.0612 116.192 16.3463 115.295 16.0485 114.235C15.6825 112.937 16.0485 111.689 16.2527 110.399V110.433ZM34.8992 17.848C35.163 16.8654 35.8353 16.0024 36.4566 15.2163C37.231 14.2594 38.1161 13.3708 39.1033 12.6274C41.1884 11.0553 43.6309 10.1411 46.2351 10.03C49.1287 9.90184 52.2009 10.4914 54.5924 12.2002C55.5285 13.0034 56.1583 14.2167 56.5753 15.3616C56.72 15.7546 57.086 16.1306 57.537 16.0964C60.4306 15.9084 60.0561 21.0093 59.8859 22.7182C59.7497 24.0767 59.4689 25.4267 59.1029 26.7425C59.0178 26.1273 58.9412 25.5121 58.8561 24.8969C58.72 23.8716 58.0306 23.0172 57.4774 22.1628C56.8392 21.1717 56.1753 20.2062 55.4519 19.2834C54.72 18.3521 53.835 17.4976 53.4009 16.3698C53.0265 15.3958 51.852 15.4385 51.4691 16.3698C50.9414 17.6429 49.5712 18.5657 48.3797 19.2748C48.8223 18.6169 49.3159 17.8394 49.2223 17.1388C49.1287 16.4809 48.2521 16.2417 47.75 16.5407C47.4181 16.7372 47.2053 17.1132 46.9245 17.3695C46.5074 17.7711 46.0309 18.0957 45.5458 18.4119C44.2947 19.2065 42.9416 19.8473 41.5969 20.4625C39.8097 21.2657 37.8693 22.103 36.1502 22.8207C35.7077 23.0087 35.4523 23.2992 35.4183 23.7862C35.3587 24.4612 35.3077 25.1362 35.2481 25.8112C35.163 25.478 35.0779 25.1447 35.0098 24.8115C34.5758 22.6071 34.2949 20.0438 34.8906 17.8394L34.8992 17.848ZM47.2989 17.1217C47.4011 16.9166 47.333 16.8996 47.2989 17.1217ZM36.6608 36.7051C36.6098 36.3975 36.2693 36.0472 35.963 36.0044C34.4992 35.7908 33.3843 35.1329 33.0354 33.6462C32.8226 32.732 32.8651 29.5365 34.6183 30.6301C34.6609 30.6558 34.6949 30.6728 34.7375 30.6899C34.7885 30.8181 34.8311 30.9463 34.8821 31.0744C35.2821 32.1425 36.7544 31.963 36.8481 30.8096C37.0268 28.6991 37.2055 26.5887 37.3757 24.4783C39.0353 23.7777 40.6948 23.0685 42.3373 22.3337C43.2139 21.9406 44.099 21.5305 44.95 21.0777C44.9245 21.1204 44.899 21.1717 44.8649 21.2144C44.4394 21.915 45.1628 23.0087 45.9968 22.6925C48.2351 21.8381 50.7967 20.565 52.3797 18.6169C53.2733 19.984 54.4477 21.1973 55.3413 22.5473C55.8349 23.2906 56.3115 24.0511 56.7711 24.82C56.7881 24.7688 56.8051 24.7261 56.8392 24.6577C56.8136 24.709 56.8732 24.8884 56.8732 24.9482C56.8732 24.9739 56.8732 24.9909 56.8732 25.0166C56.8902 25.0337 56.8987 25.0678 56.9158 25.0764C56.9838 25.1362 56.9498 25.1874 56.8987 25.2045C57.103 27.1526 57.4179 29.0922 57.6817 31.0317C57.7923 31.8861 59.0774 32.5697 59.5455 31.5358C59.6476 31.3051 59.7497 31.0659 59.8519 30.8266C60.0136 30.7925 60.1838 30.7839 60.354 30.8266C61.2391 31.0317 61.5284 32.3817 61.4603 33.1592C61.3837 34.0051 61.0348 35.338 60.2093 35.7652C59.6221 36.0642 58.8561 36.1753 58.2179 36.3547C57.9115 36.4402 57.5711 36.7222 57.52 37.0554C56.8987 41.0199 55.3328 44.9673 51.6392 47.0094C47.4436 49.3249 41.9033 47.7613 39.1629 43.9078C37.6651 41.7974 37.0523 39.2427 36.6608 36.7222V36.7051ZM43.733 57.459C41.3161 56.6131 38.9076 55.7758 36.4906 54.9299C36.4396 54.9128 36.3885 54.8957 36.3374 54.8786C36.414 54.5796 36.4821 54.2891 36.5587 53.9986C36.848 52.8964 37.1289 51.7856 37.4183 50.6834C37.4438 50.6834 37.4608 50.7005 37.4864 50.709C37.5715 50.7689 37.6651 50.8116 37.7757 50.8372C37.8268 50.8457 37.8778 50.8543 37.9374 50.8543C40.3544 51.6575 42.7628 52.4692 45.1798 53.2723C44.7032 54.665 44.2181 56.0663 43.7415 57.459H43.733ZM50.6861 98.5994C50.7797 99.9494 50.8648 101.308 50.9925 102.658C51.0435 103.196 51.0691 103.76 51.1542 104.298C50.601 104.837 50.0478 105.375 49.4861 105.905C48.9414 106.409 48.3883 106.913 47.8266 107.391C47.6308 107.562 47.4351 107.725 47.2223 107.87C47.1628 107.81 47.1032 107.75 47.0521 107.699C46.516 107.178 45.9457 106.699 45.367 106.229C44.6692 105.648 43.9543 105.093 43.2309 104.538C43.4182 103.008 43.5288 101.462 43.6735 99.9238C43.9798 96.5146 44.2777 93.114 44.5756 89.7049C45.2479 82.1005 45.9032 74.4876 46.6947 66.8918C46.8393 65.4906 46.9925 64.0808 47.1712 62.6795C47.2223 62.2779 47.1798 62.5513 47.2393 62.1412C47.2649 61.9447 47.2989 61.7482 47.3245 61.5517C47.3415 61.4491 47.3585 61.3466 47.3755 61.2441H48.1585C48.1585 61.2441 48.1585 61.2782 48.167 61.2953C48.1925 61.4577 48.218 61.6286 48.2436 61.7909C48.2436 61.8251 48.2521 61.8763 48.2606 61.9191C48.2776 62.0387 48.2946 62.1583 48.3032 62.2865C48.4478 63.457 48.55 64.6276 48.6436 65.7981C48.9244 69.2329 49.1457 72.6677 49.35 76.111C49.801 83.6043 50.1755 91.1061 50.6691 98.5994H50.6861ZM46.0989 56.7156C46.4309 55.7587 46.7543 54.8017 47.0862 53.8448C47.5372 53.9302 47.9883 53.9558 48.4649 53.8448C48.7457 54.6992 49.0265 55.5536 49.2989 56.408C49.1627 56.5277 49.0521 56.69 48.9925 56.8865C48.7457 57.6726 48.4904 58.4501 48.2436 59.2362H47.1883L46.2947 57.0916C46.2351 56.9549 46.1755 56.8352 46.0989 56.7242V56.7156ZM48.7202 51.6575C48.5159 51.7258 48.2861 51.7856 48.0904 51.8796C48.0904 51.8796 48.0819 51.8796 48.0734 51.8796C48.0138 51.8796 47.8861 51.9052 47.801 51.9052C47.6564 51.9052 47.384 51.8625 47.3755 51.8796C47.2138 51.8027 47.001 51.76 46.8308 51.7002C45.0181 51.0935 43.2139 50.4869 41.4011 49.8888L39.1459 49.1369C39.2395 48.4363 39.2991 47.7186 39.3246 47.0094C40.4905 48.0432 41.8522 48.855 43.3245 49.3932C47.7415 51.0081 52.3712 49.6752 55.486 46.454C55.5541 47.3768 55.6307 48.2996 55.7328 49.2138C53.3924 50.0255 51.052 50.8372 48.7117 51.6575H48.7202ZM52.0733 57.7068C52.0052 57.7324 51.9286 57.7666 51.8605 57.7922C51.3584 56.2628 50.8648 54.7334 50.3627 53.204C51.5371 52.7938 52.7201 52.3837 53.8945 51.9736C54.8392 51.6489 55.7753 51.3157 56.72 50.991C56.754 50.991 56.7881 50.9995 56.8221 50.9995C57.0604 50.991 57.3158 50.8799 57.5115 50.7176C57.5881 50.692 57.6732 50.6578 57.7498 50.6322C58.303 51.9736 58.8647 53.3236 59.4264 54.665C56.9753 55.6732 54.5243 56.69 52.0733 57.6982V57.7068ZM66.89 59.5694C67.4858 57.9631 68.3964 56.3311 68.056 54.5796C68.0389 54.4514 68.0219 54.3318 67.9794 54.2122C67.5794 52.9904 65.673 53.503 66.0475 54.7505C66.0475 54.7761 66.056 54.8017 66.0645 54.8274C66.0645 54.8445 66.0475 54.8615 66.039 54.8872C65.9879 55.041 65.9369 55.1435 65.8517 55.2802C65.7411 55.4596 65.4603 55.9296 65.2305 55.9552C64.8135 56.0065 64.9667 55.0495 65.0348 54.7932C65.1454 54.3745 65.3156 53.99 65.4092 53.5714C65.4688 53.2894 65.4518 52.8109 65.6475 52.5888C66.0305 52.1701 67.1538 52.2043 67.4092 52.7169C67.8772 53.6568 69.2389 53.1441 69.2729 52.2128C69.2985 51.7002 69.4432 51.367 69.8602 51.0765C70.3538 50.7261 70.5836 51.1021 71.0517 51.4011C71.8431 51.8967 72.6857 51.085 72.524 50.2647C72.4474 49.8717 73.0005 49.6752 73.2644 49.7692C73.4941 49.8546 73.7835 50.2562 73.8261 50.3246C74.3707 51.1533 75.5962 50.8372 75.6813 49.8632C75.6813 49.8632 75.6813 49.8632 75.6813 49.8461C75.7154 49.7179 75.7324 49.5812 75.7835 49.4616C75.9111 49.1454 76.1664 48.9062 76.5069 48.7866C76.6175 48.7524 76.7366 48.7097 76.8558 48.7011C76.8643 48.7011 76.8813 48.7097 76.8984 48.7182C76.8132 48.6841 76.9664 48.7866 77.0175 48.8293C77.3324 49.1113 77.5451 49.4958 77.7494 49.8632C78.677 51.5635 79.3664 53.8448 79.1792 55.8185C78.9749 56.8267 78.3621 57.7751 77.8685 58.6552C77.2728 59.7147 76.6345 60.7485 76.0218 61.7909C75.4431 62.7906 74.8899 63.9184 75.1877 65.0975C75.3409 65.7127 75.6133 66.2424 75.8686 66.7893C73.3495 67.4643 70.8304 68.1478 68.3028 68.8228C67.8687 67.2336 67.4007 65.6529 66.7794 64.1235C66.2007 62.6966 66.3539 60.9963 66.8815 59.5694H66.89ZM82.2685 102.564C80.3536 103.307 77.8941 103.094 76.0728 102.162C73.6899 100.941 73.0516 98.3004 72.7452 95.8225C72.4389 93.2678 72.0559 90.7387 71.5623 88.2096C70.9836 85.2277 70.2857 82.2543 69.6559 79.2724C72.1325 78.529 74.6005 77.7857 77.0771 77.0509C77.4685 76.9313 77.8685 76.8116 78.26 76.692C79.494 76.3246 78.9664 74.3851 77.7239 74.7525C75.0005 75.5642 72.2857 76.3844 69.5623 77.1961C69.4602 77.2303 69.3495 77.2559 69.2474 77.2901C68.8304 75.1797 68.4645 73.0607 68.2006 70.9247C71.7665 69.9677 75.3324 69.0108 78.8983 68.0538C79.6983 72.625 80.8387 77.1449 81.911 81.6562C82.5153 84.2024 83.111 86.7571 83.6642 89.3119C84.1663 91.6273 84.7025 93.9855 84.8982 96.3523C85.0939 98.7105 84.7535 101.59 82.2599 102.555L82.2685 102.564Z" fill="var(--fill-0, #323232)"/>
<path id="Vector_57" d="M8.31488 89.4653C8.21276 89.2089 8.0936 89.0039 7.85531 88.8672C7.64255 88.739 7.32767 88.6877 7.08087 88.7646C6.61279 88.9184 6.17024 89.4824 6.383 90.0036C6.82555 91.1058 7.26809 92.208 7.71064 93.3102C7.77872 93.4725 7.83829 93.6263 7.90637 93.7887C8.0085 94.045 8.12765 94.25 8.36595 94.3867C8.57871 94.5149 8.8936 94.5662 9.1404 94.4893C9.60848 94.3355 10.051 93.7716 9.83827 93.2504L8.51063 89.9438L8.31488 89.4653Z" fill="var(--fill-0, #323232)"/>
<path id="Vector_58" d="M19.0179 84.5611C18.4988 84.2621 17.9796 84.4928 17.6477 84.92C15.1882 88.124 13.1797 91.6528 10.7202 94.8655C10.3883 95.2927 10.6521 95.9933 11.0776 96.2411C11.5968 96.5401 12.1159 96.3094 12.4478 95.8822C14.9073 92.6781 16.9158 89.1494 19.3754 85.9367C19.7073 85.5095 19.4434 84.8174 19.0264 84.5697L19.0179 84.5611Z" fill="var(--fill-0, #323232)"/>
</g>
</g>
</g>
</g>
</svg>
