<svg preserveAspectRatio="none" width="100%" height="100%" overflow="visible" style="display: block;" viewBox="0 0 306.001 75" fill="none" xmlns="http://www.w3.org/2000/svg">
<g id="Group">
<path id="Vector" d="M32.1081 1.66573V15.4911L1.03699 15.7799L17.6334 43.1787C17.8956 43.6186 17.9057 44.1525 17.6569 44.6059L1 73.3345H55.224L55.2711 58.945L266.082 59.1834V1.43066L32.1081 1.66909V1.66573Z" fill="var(--fill-0, white)"/>
<path id="Vector_2" d="M235.281 57.7595H33.7837V2.85439H60.2183C61.0151 2.85439 61.6472 2.22307 61.6472 1.4272C61.6472 0.631324 61.0151 0 60.2183 0H32.3581C31.568 0 30.919 0.648115 30.919 1.43727V13.6406L1.40464 14.1645C0.89357 14.1779 0.42957 14.4499 0.180759 14.8899C-0.0680523 15.3398 -0.0579654 15.8771 0.204295 16.3171L16.4443 43.9173L0.177397 72.871C-0.0613277 73.3109 -0.0613277 73.8582 0.190846 74.2982C0.453106 74.7246 0.917106 75 1.42818 75H55.5446C56.3314 75 56.9736 74.3586 56.9736 73.5728V60.6105H235.284C236.071 60.6105 236.713 59.9691 236.713 59.1833C236.713 58.3975 236.071 57.7561 235.284 57.7561L235.281 57.7595ZM52.7505 72.1456H3.86249L19.3291 44.6058C19.578 44.1558 19.5679 43.6185 19.3056 43.1786L3.89948 16.9685L30.9157 16.4917V59.2572C30.9157 59.9389 31.2956 60.5601 31.9042 60.8691C35.5557 62.7295 48.3089 69.2509 52.8212 71.8467C52.9624 71.9273 52.9119 72.1422 52.7505 72.1422V72.1456Z" fill="var(--fill-0, #853173)"/>
<path id="Vector_3" d="M266.571 60.6106H242.728C241.942 60.6106 241.299 59.9726 241.299 59.1834C241.299 58.3943 241.938 57.7562 242.728 57.7562H265.142V2.85787H67.804C67.0172 2.85787 66.375 2.21983 66.375 1.43067C66.375 0.641518 67.0138 0.00683594 67.804 0.00683594H266.574C267.361 0.00683594 268.003 0.644877 268.003 1.43403V59.1868C268.003 59.9726 267.364 60.614 266.574 60.614L266.571 60.6106Z" fill="var(--fill-0, #853173)"/>
<g id="Group_2">
<path id="Vector_4" d="M246.669 2.85126H246.057C246.037 2.85126 246.02 2.8479 246 2.8479V57.7613H246.669V2.85126Z" fill="var(--fill-0, white)"/>
<path id="Vector_5" d="M272.371 2.85132H246.672V57.7579H272.371V2.85132Z" fill="var(--fill-0, white)"/>
<path id="Vector_6" d="M253.492 72.1487H302.15L286.755 44.6064C286.507 44.1563 286.517 43.619 286.778 43.179L302.113 16.9666L275.222 16.4897V59.2591C275.222 59.9408 274.844 60.5622 274.238 60.8711C270.604 62.7317 257.909 69.2537 253.418 71.8498C253.278 71.9304 253.328 72.1453 253.488 72.1453L253.492 72.1487Z" fill="var(--fill-0, white)"/>
<path id="Vector_7" d="M246.669 1.63555V0H246.057C246.037 0 246.02 0.00335841 246 0.00671682V1.63555H246.669Z" fill="var(--fill-0, #853173)"/>
<path id="Vector_8" d="M289.634 43.9179L305.798 16.3152C306.059 15.8752 306.069 15.3412 305.822 14.8878C305.574 14.4479 305.112 14.1758 304.604 14.1624L275.226 13.6385V1.4374C275.226 0.648173 274.58 0 273.794 0H246.672V1.63555L273.556 1.66241V15.489L304.483 15.7778L287.964 43.1791C287.703 43.619 287.693 44.153 287.94 44.6064L304.517 73.3376H250.547L250.501 58.9468H246.672V60.6092H249.292V73.5727C249.292 74.3585 249.932 75 250.715 75H304.58C305.089 75 305.551 74.728 305.812 74.2981C306.059 73.8581 306.059 73.3107 305.825 72.8708L289.637 43.9146L289.634 43.9179Z" fill="var(--fill-0, #853173)"/>
<path id="Vector_9" d="M246.669 58.9536H246V60.6127H246.669V58.9536Z" fill="var(--fill-0, #853173)"/>
<path id="Vector_10" d="M246.669 57.7612H246V58.9535H246.669V57.7612Z" fill="var(--fill-0, #853173)"/>
<path id="Vector_11" d="M272.371 2.85124V57.7579H246.672V58.9501H250.501L250.547 73.3342H304.52L287.944 44.603C287.696 44.153 287.706 43.6156 287.967 43.1757L304.486 15.7744L273.559 15.4856V1.66237L246.675 1.6355V2.85124H272.375H272.371ZM274.242 60.8778C274.848 60.5689 275.226 59.9476 275.226 59.2658V16.4931L302.117 16.97L286.782 43.1824C286.521 43.6223 286.511 44.1563 286.759 44.6097L302.154 72.152H253.492C253.329 72.152 253.282 71.9371 253.422 71.8565C257.914 69.2604 270.611 62.7384 274.242 60.8778Z" fill="var(--fill-0, #853173)"/>
<path id="Vector_12" d="M246 2.84788C246.02 2.84788 246.037 2.85124 246.057 2.85124H246.669V1.6355H246V2.84788Z" fill="var(--fill-0, #853173)"/>
</g>
</g>
</svg>
