<svg preserveAspectRatio="none" width="100%" height="100%" overflow="visible" style="display: block;" viewBox="0 0 95 95" fill="none" xmlns="http://www.w3.org/2000/svg">
<g id="Group">
<circle id="Ellipse" cx="47.5" cy="47.5" r="47.5" fill="var(--fill-0, #F6F5F9)"/>
<g id="Mask Group">
<mask id="mask0_0_120" style="mask-type:alpha" maskUnits="userSpaceOnUse" x="0" y="0" width="95" height="95">
<circle id="Ellipse_2" cx="47.5" cy="47.5" r="47.5" fill="var(--fill-0, #FBFAF5)"/>
</mask>
<g mask="url(#mask0_0_120)">
<g id="Group_2">
<path id="Vector" d="M25.0263 12.166C16.5719 12.166 10.7266 18.677 10.7266 26.292C10.7266 34.8131 16.6953 40.6833 25.0263 40.6833C33.3573 40.6833 39.326 34.7605 39.326 26.292C39.326 18.6245 33.4505 12.166 25.0263 12.166Z" fill="var(--fill-0, #CCB0EC)"/>
<path id="Vector_2" d="M25.0263 11.8259C21.8404 11.8309 18.6722 12.7747 16.116 14.6897C13.7109 16.502 11.9379 19.0203 11.0464 21.8866C10.1246 24.8454 10.1725 28.1297 11.064 31.0911C11.88 33.8597 13.5472 36.3029 15.8339 38.0802C18.2013 39.8926 21.1227 40.8388 24.0894 40.999C27.1241 41.1618 30.2571 40.576 32.8989 39.044C35.3242 37.6271 37.2306 35.4793 38.3463 32.9135C39.5577 30.0873 39.9506 26.9807 39.4821 23.9443C39.0238 20.9804 37.6487 18.2318 35.5458 16.0815C33.3648 13.8936 30.5316 12.4668 27.4666 12.0112C26.6582 11.8885 25.8422 11.8284 25.0263 11.8259C24.5855 11.8259 24.583 12.5093 25.0263 12.5093C28.0811 12.5143 31.0856 13.4155 33.5436 15.2404C35.8253 16.9551 37.5051 19.3407 38.3438 22.0593C39.2152 24.8655 39.1824 27.957 38.3866 30.7807C37.6563 33.3716 36.1981 35.7121 34.0901 37.4094C31.9167 39.1566 29.154 40.0904 26.3736 40.2956C23.4522 40.5134 20.4578 40.0203 17.8789 38.6034C15.4864 37.2817 13.5799 35.2365 12.4315 32.7658C11.8246 31.4516 11.4191 30.0547 11.2252 28.6204C11.0086 27.1334 11.0111 25.6215 11.2302 24.1345C11.6584 21.3008 12.9654 18.6674 14.9651 16.6022C17.0504 14.4969 19.7678 13.1226 22.7068 12.682C23.4749 12.5669 24.2506 12.5093 25.0263 12.5118C25.467 12.5118 25.4695 11.8284 25.0263 11.8284V11.8259Z" fill="var(--fill-0, #211715)"/>
<path id="Vector_3" d="M25.0299 14.8679C18.1772 14.8679 13.4375 20.1448 13.4375 26.3179C13.4375 33.2244 18.2779 37.9831 25.0299 37.9831C31.7818 37.9831 36.6223 33.1818 36.6223 26.3179C36.6223 20.0998 31.8599 14.8679 25.0299 14.8679Z" fill="var(--fill-0, white)"/>
<path id="Vector_4" d="M25.0265 14.5271C22.43 14.5321 19.8436 15.2981 17.7608 16.8627C15.809 18.3346 14.3685 20.3747 13.6406 22.7003C12.9053 25.136 12.9002 27.7319 13.6306 30.17C14.2854 32.438 15.6403 34.4406 17.5039 35.9C19.4356 37.387 21.813 38.168 24.2382 38.3032C26.7063 38.4408 29.255 37.9677 31.4083 36.7311C33.3903 35.5821 34.9517 33.8373 35.8684 31.7471C36.8682 29.4316 37.1931 26.8832 36.8078 24.395C36.4351 21.9868 35.3169 19.7564 33.6094 18.0066C31.8339 16.2218 29.527 15.0553 27.0312 14.6823C26.3663 14.5822 25.6964 14.5296 25.024 14.5296C24.5833 14.5296 24.5808 15.2105 25.024 15.213C27.4946 15.1955 29.9022 15.9665 31.8968 17.4184C33.7277 18.7952 35.0776 20.7102 35.7526 22.893C36.4603 25.156 36.4351 27.6492 35.7979 29.9272C35.2287 32.0325 34.0148 33.9074 32.3224 35.2917C30.5721 36.6986 28.3408 37.447 26.1019 37.6098C23.7471 37.7825 21.3345 37.3845 19.2568 36.2405C17.3226 35.1691 15.7838 33.5144 14.8621 31.5143C13.8774 29.3465 13.5475 26.9408 13.9076 24.5902C14.2526 22.3023 15.3053 20.177 16.9197 18.5098C18.6045 16.8126 20.7981 15.7036 23.1729 15.3507C23.7874 15.2581 24.407 15.213 25.0265 15.2155C25.4672 15.2155 25.4698 14.5321 25.0265 14.5346V14.5271Z" fill="var(--fill-0, #211715)"/>
<path id="Vector_5" d="M24.6795 35.1441C24.6795 35.3493 24.6795 35.5546 24.6795 35.7599C24.6795 35.85 24.7172 35.9376 24.7802 36.0027C24.9137 36.1354 25.1303 36.1354 25.2663 36.0027C25.3292 35.9376 25.3645 35.8525 25.367 35.7599C25.367 35.5546 25.367 35.3493 25.367 35.1441C25.367 35.0539 25.3292 34.9663 25.2663 34.9012C25.1328 34.7686 24.9162 34.7686 24.7802 34.9012C24.7172 34.9663 24.682 35.0514 24.6795 35.1441Z" fill="var(--fill-0, #211715)"/>
<path id="Vector_6" d="M20.3352 33.8043C20.2319 33.9821 20.1262 34.1598 20.0229 34.3375C19.9776 34.4176 19.965 34.5127 19.9876 34.6004C20.0128 34.6855 20.0682 34.7581 20.1438 34.8031C20.2244 34.8482 20.3201 34.8607 20.4082 34.8382C20.4939 34.8131 20.5669 34.7581 20.6122 34.683C20.7155 34.5052 20.8213 34.3275 20.9245 34.1498C20.9698 34.0697 20.9824 33.9745 20.9598 33.8869C20.9094 33.7042 20.7205 33.5991 20.5367 33.6491C20.451 33.6742 20.378 33.7292 20.3327 33.8043H20.3352Z" fill="var(--fill-0, #211715)"/>
<path id="Vector_7" d="M29.1088 34.1476C29.212 34.3253 29.3178 34.5031 29.4211 34.6808C29.4664 34.7559 29.5394 34.8135 29.6251 34.836C29.7132 34.8585 29.8089 34.846 29.8895 34.8009C29.9676 34.7559 30.023 34.6833 30.0456 34.5982C30.0683 34.5106 30.0557 34.4154 30.0104 34.3353C29.9071 34.1576 29.8013 33.9799 29.6981 33.8021C29.6528 33.727 29.5797 33.6695 29.4941 33.6469C29.4059 33.6244 29.3102 33.6369 29.2297 33.682C29.1516 33.727 29.0962 33.7996 29.0735 33.8847C29.0508 33.9724 29.0634 34.0675 29.1088 34.1476Z" fill="var(--fill-0, #211715)"/>
<path id="Vector_8" d="M32.4406 31.0788C32.6194 31.1815 32.7982 31.2866 32.977 31.3892C33.0576 31.4343 33.1533 31.4468 33.2415 31.4243C33.4253 31.3742 33.5311 31.1865 33.4807 31.0037C33.4555 30.9186 33.4001 30.846 33.3246 30.801C33.1458 30.6983 32.9669 30.5932 32.7881 30.4906C32.7075 30.4455 32.6118 30.433 32.5237 30.4555C32.4381 30.4806 32.365 30.5356 32.3197 30.6107C32.2744 30.6908 32.2618 30.786 32.2845 30.8736C32.3096 30.9587 32.365 31.0313 32.4406 31.0763V31.0788Z" fill="var(--fill-0, #211715)"/>
<path id="Vector_9" d="M17.2505 30.4906C17.0717 30.5932 16.8928 30.6983 16.714 30.801C16.6385 30.846 16.5806 30.9186 16.5579 31.0037C16.5352 31.0914 16.5478 31.1865 16.5931 31.2666C16.6385 31.3442 16.7115 31.3993 16.7971 31.4218C16.8853 31.4443 16.981 31.4318 17.0616 31.3867C17.2404 31.2841 17.4192 31.179 17.598 31.0763C17.7617 30.9812 17.8171 30.7734 17.7214 30.6107C17.6761 30.5331 17.603 30.4781 17.5174 30.4555C17.4293 30.433 17.3336 30.4455 17.253 30.4906H17.2505Z" fill="var(--fill-0, #211715)"/>
<path id="Vector_10" d="M25.0424 26.7706H29.0014C29.4421 26.7706 29.4447 26.0872 29.0014 26.0872H25.0424C24.6017 26.0872 24.5992 26.7706 25.0424 26.7706Z" fill="var(--fill-0, #211715)"/>
<path id="Vector_11" d="M34.4092 26.0818C34.2027 26.0818 33.9962 26.0818 33.7897 26.0818C33.699 26.0818 33.6109 26.1193 33.5454 26.1819C33.4119 26.3146 33.4119 26.5299 33.5454 26.665C33.6109 26.7276 33.6965 26.7627 33.7897 26.7652C33.9962 26.7652 34.2027 26.7652 34.4092 26.7652C34.4999 26.7652 34.5881 26.7276 34.6535 26.665C34.787 26.5324 34.787 26.3171 34.6535 26.1819C34.5881 26.1193 34.5024 26.0843 34.4092 26.0818Z" fill="var(--fill-0, #211715)"/>
<path id="Vector_12" d="M16.253 26.0818C16.0465 26.0818 15.84 26.0818 15.6335 26.0818C15.5428 26.0818 15.4547 26.1193 15.3892 26.1819C15.2557 26.3146 15.2557 26.5299 15.3892 26.665C15.4547 26.7276 15.5403 26.7627 15.6335 26.7652C15.84 26.7652 16.0465 26.7652 16.253 26.7652C16.3437 26.7652 16.4318 26.7276 16.4973 26.665C16.6308 26.5324 16.6308 26.3171 16.4973 26.1819C16.4318 26.1193 16.3462 26.0843 16.253 26.0818Z" fill="var(--fill-0, #211715)"/>
<path id="Vector_13" d="M32.977 21.4637C32.7982 21.5664 32.6194 21.6715 32.4406 21.7741C32.365 21.8192 32.3071 21.8918 32.2845 21.9769C32.2618 22.0645 32.2744 22.1596 32.3197 22.2397C32.365 22.3173 32.4381 22.3724 32.5237 22.3949C32.6118 22.4175 32.7075 22.4049 32.7881 22.3599C32.9669 22.2573 33.1458 22.1521 33.3246 22.0495C33.4001 22.0044 33.458 21.9318 33.4807 21.8467C33.5034 21.7591 33.4908 21.664 33.4455 21.5839C33.4001 21.5063 33.3271 21.4512 33.2415 21.4287C33.1533 21.4061 33.0576 21.4187 32.977 21.4637Z" fill="var(--fill-0, #211715)"/>
<path id="Vector_14" d="M16.7156 22.052C16.8944 22.1546 17.0732 22.2598 17.252 22.3624C17.3326 22.4075 17.4283 22.42 17.5164 22.3974C17.7003 22.3474 17.806 22.1596 17.7557 21.9769C17.7305 21.8918 17.6751 21.8192 17.5995 21.7741C17.4207 21.6715 17.2419 21.5664 17.0631 21.4637C16.9825 21.4187 16.8868 21.4061 16.7987 21.4287C16.6148 21.4787 16.509 21.6665 16.5594 21.8492C16.5846 21.9343 16.64 22.0069 16.7156 22.052Z" fill="var(--fill-0, #211715)"/>
<path id="Vector_15" d="M24.6953 20.4625V26.4228C24.6953 26.8608 25.3828 26.8634 25.3828 26.4228C25.3803 24.7957 25.3803 23.1685 25.3828 21.5414V20.465C25.3828 20.0269 24.6953 20.0244 24.6953 20.465V20.4625Z" fill="var(--fill-0, #211715)"/>
<path id="Vector_16" d="M29.4211 18.1691C29.3178 18.3469 29.212 18.5246 29.1088 18.7023C29.0634 18.7824 29.0508 18.8776 29.0735 18.9652C29.1239 19.1479 29.3128 19.253 29.4966 19.203C29.5822 19.1779 29.6553 19.1229 29.7006 19.0478C29.8039 18.87 29.9096 18.6923 30.0129 18.5146C30.0582 18.4345 30.0708 18.3393 30.0481 18.2517C29.9978 18.069 29.8089 17.9639 29.6251 18.0139C29.5394 18.039 29.4664 18.094 29.4211 18.1691Z" fill="var(--fill-0, #211715)"/>
<path id="Vector_17" d="M20.0229 18.5122C20.1262 18.69 20.2319 18.8677 20.3352 19.0454C20.4309 19.2082 20.6399 19.2632 20.8036 19.1681C20.8817 19.123 20.9371 19.0504 20.9598 18.9653C20.9824 18.8777 20.9698 18.7826 20.9245 18.7025C20.8213 18.5248 20.7155 18.347 20.6122 18.1693C20.5165 18.0066 20.3075 17.9515 20.1438 18.0466C20.0657 18.0917 20.0103 18.1643 19.9876 18.2494C19.965 18.337 19.9776 18.4321 20.0229 18.5122Z" fill="var(--fill-0, #211715)"/>
<path id="Vector_18" d="M24.6795 17.0905C24.6795 17.2958 24.6795 17.5011 24.6795 17.7063C24.6795 17.7965 24.7172 17.8841 24.7802 17.9492C24.9137 18.0818 25.1303 18.0818 25.2663 17.9492C25.3292 17.8841 25.3645 17.799 25.367 17.7063C25.367 17.5011 25.367 17.2958 25.367 17.0905C25.367 17.0004 25.3292 16.9128 25.2663 16.8477C25.1328 16.715 24.9162 16.715 24.7802 16.8477C24.7172 16.9128 24.682 16.9979 24.6795 17.0905Z" fill="var(--fill-0, #211715)"/>
</g>
<g id="Group_3">
<path id="Vector_19" d="M55.5782 216.158C55.5782 216.213 55.5782 216.276 55.5782 216.331C55.5782 216.464 55.5782 216.59 55.5939 216.723C55.5939 216.739 55.5939 216.763 55.5939 216.786C55.6096 216.833 55.6331 216.912 55.641 216.935C55.5861 216.77 55.641 216.888 55.6802 216.967C55.6802 216.967 55.6802 216.967 55.6959 216.975C55.7116 216.99 55.7351 217.006 55.7429 217.014C55.7429 217.014 55.7664 217.022 55.8057 217.045C55.837 217.053 55.8684 217.061 55.8998 217.069C56.0018 217.092 56.0959 217.116 56.1979 217.147C56.441 217.21 56.6842 217.265 56.9352 217.304C56.9352 217.304 56.9666 217.304 56.9901 217.304C57.0137 217.304 57.0372 217.304 57.0451 217.304C57.1627 217.312 57.2725 217.328 57.3902 217.328C57.5236 217.328 57.6569 217.328 57.7903 217.328C57.1078 216.849 56.2999 216.535 55.5625 216.127L55.5782 216.158Z" fill="var(--fill-0, white)"/>
<path id="Vector_20" d="M43.7441 176.111C43.7677 176.661 43.7912 177.202 43.8148 177.752C44.105 184.033 44.3952 190.313 44.6149 196.594C44.6698 198.25 44.8815 199.985 44.5286 201.618C44.105 203.565 43.399 205.457 42.7636 207.342C42.3086 208.668 41.6733 210.278 41.3752 211.628C42.4028 212.931 43.5167 214.109 45.3522 214.125C45.4385 214.125 45.517 214.14 45.5954 214.156C47.7604 214.462 49.9332 212.884 50.9765 211.094C50.9608 210.835 50.9294 210.576 50.9137 210.309C50.7255 207.106 51.204 203.832 51.4315 200.645C51.4786 199.923 51.5805 199.2 51.6747 198.478C52.0747 195.33 52.5218 192.197 52.9768 189.057C53.4945 185.446 54.0201 181.834 54.5692 178.223C54.679 177.477 54.7888 176.731 54.8908 175.978C53.7769 175.993 52.663 176.009 51.5413 176.017C48.9448 176.048 46.3484 176.08 43.752 176.111H43.7441Z" fill="var(--fill-0, white)"/>
<path id="Vector_21" d="M50.1259 214.658C48.7531 215.608 47.098 216.119 45.4037 215.962C45.388 215.962 45.3723 215.962 45.3566 215.962C43.9839 215.954 42.7367 215.499 41.6698 214.643C41.4031 214.431 41.1443 214.164 40.9011 213.897C40.7599 214.855 40.6815 215.828 40.7364 216.786C40.7521 217.092 40.7913 217.391 40.8697 217.689C40.9246 217.885 40.9952 218.066 41.0737 218.176C41.2855 218.466 41.6933 218.89 41.9836 219.22C42.1797 219.44 42.3837 219.691 42.6425 219.832C43.223 220.154 44.1486 220.028 44.7761 219.903C45.6233 219.738 46.4234 219.424 47.1686 218.984C48.3845 218.254 49.1924 217.328 49.6552 216.009C49.8121 215.561 49.9768 215.114 50.1259 214.651V214.658Z" fill="var(--fill-0, white)"/>
<path id="Vector_22" d="M68.2744 175.813C65.2544 175.852 62.2423 175.892 59.2223 175.923C58.6496 183.923 59.0732 191.986 58.579 199.986C58.4457 202.113 58.3123 204.209 57.6613 206.251C57.2926 207.397 56.8376 208.512 56.4219 209.642C57.4965 210.105 58.4378 210.89 59.3399 211.621C60.4381 212.508 61.4892 213.442 62.5796 214.337C63.3169 214.941 64.2739 215.781 65.0976 216.064C66.3526 216.504 67.9215 216.292 69.255 215.821C68.2588 214.8 67.341 213.615 66.5723 212.484C65.4819 210.875 64.9407 209.179 64.7446 207.255C64.3131 203.055 65.0034 198.973 65.7957 194.859C67.0116 188.516 68.1333 182.157 69.2628 175.797C68.9334 175.797 68.6118 175.805 68.2823 175.813H68.2744Z" fill="var(--fill-0, white)"/>
<path id="Vector_23" d="M72.0674 218.074C71.6673 217.736 71.228 217.469 70.7966 217.179C69.016 217.987 67.0549 218.27 65.1096 217.964C63.9565 217.783 62.9838 216.998 62.0817 216.299C60.8894 215.373 59.7598 214.368 58.5988 213.403C57.736 212.688 56.8418 211.934 55.8299 211.416C55.7593 211.667 55.6887 211.919 55.6338 212.178C55.5083 212.735 55.3357 213.489 55.72 213.991C55.9867 214.345 56.5045 214.541 56.8888 214.729C58.3008 215.428 59.4852 216.386 60.8109 217.226C63.7682 219.094 67.1726 220.602 70.726 220.531C71.3065 220.523 72.8596 220.531 72.9538 219.832C73.0401 219.243 72.491 218.435 72.0674 218.074Z" fill="var(--fill-0, white)"/>
<path id="Vector_24" d="M55.8597 217.069C55.8597 217.069 55.8439 217.061 55.8359 217.053C55.8439 217.053 55.8518 217.061 55.8597 217.069Z" fill="var(--fill-0, #78C8E6)"/>
<path id="Vector_25" d="M55.822 217.053C55.8064 217.045 55.7828 217.029 55.7671 217.021C55.7593 217.021 55.7828 217.045 55.822 217.053Z" fill="var(--fill-0, #78C8E6)"/>
<path id="Vector_26" d="M65.46 104.913C64.9972 105.07 64.5266 105.211 64.0559 105.344C64.0559 105.368 64.0559 105.392 64.0559 105.415C63.9461 106.208 63.7971 106.899 64.3697 107.574C64.7933 108.077 65.4287 108.328 66.064 108.406C69.8292 108.909 73.6337 109.207 77.4224 109.584C77.1557 107.731 76.889 105.87 76.6223 104.018C73.2807 104.591 69.9077 104.991 66.6053 105.839C65.915 106.02 65.4679 105.454 65.46 104.905V104.913Z" fill="var(--fill-0, white)"/>
<path id="Vector_27" d="M38.2077 109.513C40.9924 109.285 43.7849 109.065 46.5696 108.838C47.1893 108.79 47.8169 108.759 48.4366 108.688C49.3465 108.579 50.2956 108.131 50.7192 107.267C51.033 106.639 50.8918 106.074 50.8055 105.415C50.7898 105.289 50.7976 105.171 50.8212 105.061C49.6524 104.881 48.8758 104.308 49.1033 102.997C47.2991 103.193 45.495 103.389 43.6908 103.585C42.828 103.68 42.6083 102.714 43.0005 102.141C41.9808 102.777 40.9532 103.397 39.8942 103.962C39.3059 104.276 38.7019 104.598 38.0822 104.904C37.7449 106.467 37.4154 108.037 37.0781 109.599C37.4546 109.568 37.8234 109.536 38.1999 109.513H38.2077Z" fill="var(--fill-0, white)"/>
<path id="Vector_28" d="M48.8103 100.162C48.9353 100.107 48.7244 99.998 48.8103 100.162Z" fill="var(--fill-0, white)"/>
<path id="Vector_29" d="M39.076 74.0276C37.8523 74.4672 36.6365 74.9147 35.4206 75.3701C31.0043 77.003 26.6038 78.6674 22.1953 80.3239C22.3993 80.6065 22.611 80.8892 22.815 81.1639C25.7801 85.1679 28.7374 89.1796 31.7025 93.1835C31.7966 93.1364 31.8986 93.0893 31.9927 93.0422C32.0947 92.9951 32.1967 92.9401 32.2986 92.893C35.4363 91.3307 38.574 89.7684 41.7117 88.214C41.8529 88.1433 41.9862 88.1119 42.1117 88.1119C42.2373 88.0412 42.3784 88.002 42.5196 87.9863C42.3235 86.7773 42.2294 85.5525 42.6373 84.4063C42.6922 84.2493 42.7471 84.0923 42.8255 83.9353C43.2099 83.1659 43.7904 82.5143 44.3316 81.847C42.5745 79.2405 40.8253 76.634 39.0682 74.0276H39.076Z" fill="var(--fill-0, white)"/>
<path id="Vector_30" d="M59.1956 88.3709C59.1564 88.3316 59.1093 88.3316 59.0623 88.3316C59.0152 88.3552 58.9916 88.3552 58.9916 88.3552C57.9562 88.7477 57.2267 87.3974 58.1523 86.7222C57.9719 86.8557 58.2073 86.6751 58.2857 86.573C58.3641 86.471 58.4582 86.3454 58.4504 86.2119C58.4347 85.8743 58.3328 85.9842 58.1367 85.89C58.0974 85.8665 57.9797 85.8822 57.9091 85.89C57.8464 85.8979 57.8229 85.9057 57.9091 85.89C57.9091 85.89 57.917 85.89 57.9248 85.89C57.2424 86.0156 56.5992 85.4818 56.7874 84.7517C56.8659 84.4612 57.0071 84.0608 56.96 83.7782C56.8973 83.4327 56.5129 82.9538 56.105 83.1815C55.2186 83.684 54.1596 82.4121 54.9833 81.7291C55.2186 81.5328 56.105 80.7792 55.501 80.4494C55.3441 80.3631 54.7636 80.7242 54.5832 80.8263C53.5242 81.4151 52.6614 82.2551 51.7436 83.0402C50.7709 83.8724 49.6335 84.4612 48.5275 85.0892C47.8686 85.4661 46.8959 84.8302 47.1704 84.0451C47.3744 83.4641 47.5862 82.8832 47.8451 82.3258C48.1667 81.6349 48.7079 81.0068 48.8256 80.2296C48.8727 79.892 48.8413 79.6094 48.7079 79.3032C48.6373 79.1305 48.5432 78.9656 48.449 78.8008C48.4334 78.7772 48.4334 78.7694 48.4255 78.7537C48.2687 78.7694 48.0726 78.7929 48.0412 78.8086C47.9 78.8793 47.8764 78.9107 47.7902 79.0755C47.5941 79.4602 47.5234 79.947 47.3665 80.3474C47.0214 81.2267 46.5351 81.9882 45.9624 82.734C45.3898 83.4641 44.6603 84.1786 44.3308 85.0578C43.9229 86.1413 44.2995 87.5387 44.4956 88.6456C44.574 89.0853 44.4328 89.4229 44.072 89.6898C43.9308 89.7919 43.7974 89.8939 43.6562 89.996C43.7268 90.2237 43.7975 90.4435 43.8838 90.6633C43.9151 90.7497 43.9543 90.8439 43.9935 90.9302C44.0092 90.9538 44.0798 91.1343 44.0955 91.1579C44.1975 91.3777 44.2995 91.5975 44.4172 91.8174C44.6368 92.2413 44.8721 92.6574 45.1231 93.0656C45.6565 93.9214 46.0801 94.518 46.7861 95.2246C46.8567 95.2953 46.9273 95.3581 46.9979 95.4209C47.0685 95.4837 47.1312 95.5543 47.2018 95.6171C47.2254 95.6329 47.3509 95.7349 47.3744 95.7506C47.4293 95.7899 47.4921 95.837 47.5548 95.8762C47.5784 95.8919 47.594 95.8998 47.6176 95.9155C47.6725 95.9469 47.7274 95.9783 47.7823 96.0097C47.8137 95.9861 47.8451 95.9547 47.8843 95.9312C50.4964 94.2904 53.2654 92.9165 55.9481 91.4013C57.0149 90.8046 58.3092 90.2472 59.0858 89.2659C59.1956 89.1246 59.3839 88.9126 59.4231 88.7163C59.3839 88.7477 59.2819 88.4572 59.2035 88.3787L59.1956 88.3709Z" fill="var(--fill-0, white)"/>
<path id="Vector_31" d="M37.2353 103.264C37.8236 102.981 38.4041 102.675 38.9689 102.369C41.6595 100.916 44.1931 99.2049 46.719 97.5013C46.4209 97.3286 46.1463 97.1244 45.8718 96.8968C44.6089 95.8055 43.6283 94.306 42.8596 92.8379C42.538 92.2255 42.1929 91.5347 41.9575 90.8203C41.7614 90.7417 41.6045 90.5769 41.5026 90.3806C41.4241 90.4199 41.3457 90.4591 41.2672 90.4984C38.0276 92.1078 34.7879 93.7172 31.5483 95.3266C30.7246 95.7349 29.9873 94.8791 30.1834 94.2196C29.7912 93.6858 29.3911 93.1519 28.9989 92.6181C28.8812 92.4611 28.7714 92.3119 28.6538 92.1549C28.3714 94.4552 27.9086 96.779 28.34 99.0479C28.7009 100.963 29.752 103.334 31.611 104.214C32.6935 104.732 33.98 104.457 35.0782 104.127C35.5802 103.97 36.0744 103.774 36.5607 103.562C36.7255 103.342 36.9686 103.256 37.2275 103.264H37.2353Z" fill="var(--fill-0, white)"/>
<path id="Vector_32" d="M43.6877 101.733L45.8135 101.497C46.3155 101.442 46.8097 101.387 47.3118 101.332C47.0058 100.712 46.9195 100.005 47.1392 99.4324C45.9782 100.21 44.8173 100.987 43.6406 101.741C43.6563 101.741 43.672 101.733 43.6955 101.733H43.6877Z" fill="var(--fill-0, white)"/>
<path id="Vector_33" d="M57.2894 94.4241C57.2894 94.4241 57.2657 94.432 57.2578 94.4399C57.2815 94.4874 57.3053 94.4795 57.2894 94.4241Z" fill="var(--fill-0, white)"/>
<path id="Vector_34" d="M57.4221 80.1116C57.5633 80.5826 57.5319 81.0772 57.3672 81.5483C57.7829 81.7445 58.1438 82.0586 58.3869 82.4668C58.7242 83.0242 58.8184 83.5816 58.7791 84.1626C59.438 84.351 59.9871 84.8063 60.2068 85.5679C60.3401 86.0154 60.3166 86.4472 60.1911 86.8554C60.4578 87.0281 60.6853 87.2715 60.8657 87.562H66.1448V80.1116H57.4143H57.4221Z" fill="var(--fill-0, white)"/>
<path id="Vector_35" d="M33.0938 69.4269C36.5295 69.3719 39.9574 69.3248 43.3932 69.2698C43.7226 68.7674 44.0521 68.2571 44.3815 67.7546C44.0991 67.7939 43.8168 67.841 43.5265 67.8803C40.0515 68.3984 36.5687 68.9087 33.0938 69.4269Z" fill="var(--fill-0, white)"/>
<path id="Vector_36" d="M49.0589 64.0095C49.4433 64.1115 49.8355 64.2136 50.2277 64.3156C49.4198 62.9339 48.6511 61.5208 48 60.0684C48.3373 61.3716 48.6589 62.6827 48.9648 64.0016C48.9962 64.0016 49.0276 64.0016 49.0589 64.0173V64.0095Z" fill="var(--fill-0, white)"/>
<path id="Vector_37" d="M84.8001 92.8536C84.5178 91.4169 84.2353 89.9802 83.953 88.5435C83.3646 85.5602 82.7763 82.5769 82.188 79.5936C81.6311 76.7595 81.2154 73.8547 80.5015 71.0598C79.9995 69.0893 79.6073 66.7183 78.1247 65.2188C77.1364 64.2139 75.8891 63.3975 74.7439 62.5888C74.0771 62.1178 73.3947 61.6624 72.7123 61.2228C72.6495 61.1914 72.5867 61.1521 72.5318 61.1129C72.1239 60.8538 71.7239 60.5947 71.3081 60.3435C70.8375 60.0609 70.3354 59.8018 69.8413 59.5427C69.7079 60.2257 69.5745 60.9088 69.4412 61.5839C68.3587 67.1423 67.284 72.7006 66.2015 78.2668H67.0644C67.5664 78.2668 67.99 78.6908 67.99 79.1932V88.4886C67.99 88.991 67.5664 89.415 67.0644 89.415H61.0949C61.0244 89.6269 60.9146 89.8389 60.7891 90.043C61.9657 91.2128 63.1423 92.3747 64.3739 93.4738C64.4523 93.2069 64.6405 92.9714 64.97 92.8615C68.1861 91.7545 71.3944 90.6554 74.6105 89.5484C75.7401 89.1637 76.2186 90.9459 75.1047 91.3306C72.1788 92.3355 69.253 93.3404 66.3271 94.3453C66.5702 97.4777 67.3233 100.547 67.5429 103.735C72.0769 102.722 76.7128 102.337 81.2153 101.168C82.2743 100.893 83.4352 100.61 84.306 99.9115C85.2629 99.1342 85.4747 97.9488 85.4277 96.7712C85.3728 95.4522 85.0433 94.1568 84.7844 92.8693L84.8001 92.8536ZM73.5045 89.7133C72.9789 89.5641 72.7906 89.0774 72.8612 88.5749C73.5358 83.7938 74.0614 78.997 74.736 74.2237C74.8066 73.7291 75.442 73.4543 75.8734 73.5799C76.399 73.7291 76.5873 74.2158 76.5167 74.7183C75.8421 79.4994 75.3165 84.2963 74.6419 89.0695C74.5713 89.5641 73.9359 89.8389 73.5045 89.7133ZM78.8856 88.3708C78.768 88.5671 78.5562 88.7319 78.3365 88.7948C78.2502 88.8183 78.1561 88.8419 78.0698 88.8654C77.4423 89.0381 76.8148 89.203 76.1872 89.3757C75.6852 89.5092 75.2067 89.2108 75.0498 88.7319C74.9792 88.5121 75.0263 88.2216 75.1439 88.0175C75.2616 87.8213 75.4734 87.6564 75.693 87.5936C75.7793 87.57 75.8734 87.5465 75.9597 87.5229C76.5873 87.3502 77.2148 87.1853 77.8423 87.0126C78.3444 86.8792 78.8229 87.1775 78.9798 87.6564C79.0504 87.8762 79.0033 88.1667 78.8856 88.3708Z" fill="var(--fill-0, white)"/>
<path id="Vector_38" d="M58.1157 92.3119C58.9393 93.3482 59.6296 94.6043 58.1235 95.0989C57.6136 95.2638 57.1352 95.5229 56.6253 95.672C56.2252 95.7898 55.7938 95.7741 55.4173 95.8134C54.7662 95.884 54.0916 96.1352 53.4562 96.2923C52.9463 96.4179 52.4286 96.5592 51.9188 96.677C51.0794 96.8654 49.5263 96.9282 49.0243 97.7604C48.9458 97.886 48.9772 98.0194 48.9694 98.1372C49.1262 98.1529 49.3302 98.2 49.487 98.2157C51.4952 97.8153 53.5111 97.4463 55.5192 97.0616C56.6723 96.8418 57.1587 98.4983 56.0134 98.8438C54.7819 99.2128 53.5268 99.5189 52.2639 99.7545C51.4403 99.9115 50.3735 100.147 49.4008 100.116C49.3302 100.131 49.2596 100.147 49.1812 100.155C49.0792 100.178 48.9615 100.21 48.8595 100.218C48.9537 100.351 48.9458 100.54 49.0713 100.681C49.2753 100.909 49.3459 100.885 49.6518 100.861C50.1068 100.83 50.5539 100.775 51.0088 100.712C51.5814 100.5 52.1776 100.367 52.7738 100.249C53.9504 100.021 55.1506 99.8644 56.3429 99.778C57.3861 99.6995 57.5979 101.387 56.586 101.592C55.1976 101.874 53.8092 102.133 52.4051 102.361C52.0913 102.408 51.7384 102.487 51.3697 102.549C51.2755 102.589 51.1579 102.636 51.0873 102.699C50.9618 102.777 50.9696 102.777 51.1187 102.706C51.1108 102.777 51.0951 102.848 51.0873 102.918C51.0481 103.013 51.0088 103.115 50.9696 103.209C51.001 103.217 51.0324 103.225 51.0794 103.225C51.4324 103.209 51.7933 103.264 52.1541 103.248C52.8679 103.217 53.5818 103.099 54.2799 102.95C54.476 102.91 54.6799 102.856 54.876 102.808C55.5192 102.549 56.2409 102.4 56.8528 102.267C58.0137 102.015 58.4687 103.672 57.3469 104.049C56.9469 104.182 56.2174 104.402 55.3545 104.614C55.1898 104.708 55.0486 104.81 54.9623 104.936C54.9153 105.007 54.8839 105.124 54.8446 105.226C54.9858 105.195 55.1898 105.219 55.3388 105.211C55.9742 105.172 56.6096 105.069 57.2371 104.967C59.9512 104.52 62.7595 103.955 65.3559 103.013C65.403 102.997 65.45 102.989 65.4892 102.981L64.744 96.6298L64.6342 95.6956C64.3832 95.7349 64.1165 95.6799 63.8812 95.4758C62.3672 94.1882 60.9553 92.783 59.5433 91.3855C59.4962 91.4248 59.4492 91.4562 59.4021 91.4954C58.9942 91.7859 58.5628 92.0607 58.1314 92.3198L58.1157 92.3119Z" fill="var(--fill-0, white)"/>
<g id="Vector_39">
</g>
<path id="Vector_40" d="M65.6443 102.957C65.4404 100.838 65.0325 98.7494 64.7344 96.6218L65.4796 102.973C65.5345 102.957 65.5894 102.957 65.6443 102.957Z" fill="var(--fill-0, #78C8E6)"/>
<path id="Vector_41" d="M57.258 94.439C57.258 94.439 57.2815 94.4311 57.2893 94.4233C57.2893 94.3919 57.2658 94.3527 57.2266 94.3135C57.2266 94.3762 57.2423 94.4155 57.258 94.439Z" fill="var(--fill-0, #78C8E6)"/>
<path id="Vector_42" d="M56.4276 93.7954C56.5452 93.7483 56.6551 93.7012 56.7727 93.654C56.6943 93.552 56.6237 93.4421 56.5452 93.3479C56.5217 93.3165 56.4982 93.2851 56.4746 93.2537C55.9883 93.5127 55.5098 93.7718 55.0234 94.0309C55.5098 93.9524 55.9569 93.9916 56.4354 93.8032L56.4276 93.7954Z" fill="var(--fill-0, #78C8E6)"/>
<path id="Vector_43" d="M59 88.3629C59 88.3629 59.0392 88.3472 59.0628 88.3394C59.0235 88.3394 59 88.3629 59 88.3629Z" fill="var(--fill-0, white)"/>
<path id="Vector_44" d="M59.1024 88.324C59.1024 88.324 59.0783 88.324 59.0703 88.34C59.0783 88.34 59.0863 88.34 59.0943 88.324H59.1024Z" fill="var(--fill-0, white)"/>
<path id="Vector_45" d="M46.6743 66.1529C46.839 66.2942 46.9488 66.5062 46.9802 66.726C47.2783 67.2363 47.5764 67.7387 47.8745 68.249C47.9764 68.4218 48.0784 68.5945 48.1804 68.7672C47.4587 65.6504 46.7763 62.518 45.9291 59.4326C45.6153 59.5661 45.3016 59.7074 44.9878 59.8408C43.6464 60.4061 42.2737 60.9321 40.9559 61.5602C40.8539 61.6308 40.7441 61.6858 40.6264 61.7172C39.8106 62.1097 39.0184 62.5415 38.2653 63.044C37.1828 63.7662 36.1788 64.6455 35.4257 65.7054C35.1433 66.0979 34.8923 66.5219 34.6727 66.9537C34.6178 67.0636 34.5629 67.1813 34.508 67.2991C34.508 67.3069 34.5001 67.3227 34.4923 67.3305C34.4923 67.3462 34.4766 67.3619 34.4688 67.3776C38.2104 66.8202 41.9521 66.2707 45.6938 65.7132C46.1331 65.6504 46.4704 65.8546 46.6665 66.1529H46.6743Z" fill="var(--fill-0, white)"/>
<path id="Vector_46" d="M44.7891 70.5102C45.0558 70.9498 45.3225 71.3895 45.5892 71.8291L48.6406 76.8693C48.8367 76.885 49.0249 76.9164 49.1975 76.9792C49.9584 77.2619 50.484 78.4866 50.6487 79.2167C50.7271 79.57 50.735 79.9233 50.6958 80.2687C50.8683 80.5513 51.0409 80.834 51.2135 81.1166C51.6684 80.7162 52.1313 80.3158 52.6098 79.939C50.3977 76.1863 48.1935 72.4258 45.9814 68.6731C45.5813 69.2855 45.1891 69.8978 44.7891 70.5102Z" fill="var(--fill-0, #E4D8F3)"/>
<path id="Vector_47" d="M59.5376 67.7154C58.2982 67.9431 57.2079 67.8096 55.9763 67.5741C55.3566 67.4563 54.737 67.3229 54.1173 67.1894C55.4194 69.2463 56.7843 71.2718 58.1963 73.2502C58.2669 73.1482 58.3375 73.0461 58.4002 72.944C59.671 71.0363 60.8946 69.0972 62.0556 67.1188C61.2241 67.3464 60.3848 67.5584 59.5376 67.7154Z" fill="var(--fill-0, #E4D8F3)"/>
<path id="Vector_48" d="M54.9833 78.2663H56.9836V74.6942C56.7718 74.3959 56.56 74.0975 56.3482 73.7992C54.7009 71.4361 53.1086 69.0338 51.6025 66.5765C50.8808 66.3959 50.1591 66.2075 49.4453 66.0112C50.065 68.7198 50.6769 71.4283 51.4142 74.1054C51.4299 74.1761 51.4456 74.2389 51.4456 74.3095C52.2221 75.6284 52.9909 76.9395 53.7675 78.2585H54.9755L54.9833 78.2663Z" fill="var(--fill-0, #E4D8F3)"/>
<path id="Vector_49" d="M68.1768 56.5361C69.3377 57.282 70.6477 57.8237 71.8479 58.5224C71.0164 54.1181 69.4083 49.8787 68.6082 45.4744C68.2552 45.5058 67.9179 45.4744 67.5806 45.3723C67.1413 46.8169 66.4589 48.1829 65.5411 49.3919C65.3764 49.6117 65.2038 49.8159 65.0312 50.02C65.3764 52.4066 66.0196 55.1465 68.1768 56.544V56.5361Z" fill="var(--fill-0, white)"/>
<path id="Vector_50" d="M49.9336 56.3315C49.6512 56.7947 49.3296 57.1951 48.9688 57.5484C49.5022 59.0322 50.216 60.4532 50.969 61.8349C51.5416 62.8869 52.13 63.9232 52.7497 64.9595C54.0989 65.2892 55.4559 65.6111 56.8287 65.8624C57.919 66.0586 58.7034 66.0272 59.8016 65.776C61.0017 65.5091 62.1862 65.1793 63.3707 64.8339C64.6336 62.5807 65.8808 60.2098 66.4299 57.6975C66.4456 57.6347 66.4613 57.5798 66.4849 57.5248C66.1083 57.2186 65.7632 56.8811 65.4573 56.4885C64.3355 55.0518 63.7629 53.3089 63.4335 51.5347C60.8056 53.5916 57.3856 54.4002 54.0675 53.1362C53.1105 52.7751 52.2084 52.2648 51.3848 51.6524C51.1416 53.2854 50.7886 54.9262 49.9414 56.3393L49.9336 56.3315Z" fill="var(--fill-0, white)"/>
<path id="Vector_51" d="M64.6562 66.3492C62.954 69.4503 61.0165 72.4414 59.0083 75.3227C58.9534 75.409 58.8828 75.4718 58.8201 75.5346V78.2667H64.3973C64.3738 78.1568 64.3738 78.039 64.3973 77.9056C64.5542 77.1127 64.7033 76.3197 64.8601 75.5268C65.4955 72.2452 66.1387 68.9635 66.7741 65.6741C66.0681 65.9017 65.3622 66.1294 64.6562 66.3414V66.3492Z" fill="var(--fill-0, #E4D8F3)"/>
<path id="Vector_52" d="M66.5575 62.6201C66.33 63.099 66.1025 63.57 65.8594 64.0489C66.2437 63.9233 66.6281 63.7977 67.0125 63.6721C67.0674 63.6564 67.1145 63.6485 67.1615 63.6407C67.4832 61.9999 67.7969 60.3669 68.1185 58.7261C68.1185 58.7025 68.1342 58.679 68.1421 58.6554C68.1264 58.6476 68.1028 58.6319 68.0871 58.624C67.7342 60.0058 67.1615 61.3404 66.5575 62.6279V62.6201Z" fill="var(--fill-0, white)"/>
<path id="Vector_53" d="M68.8768 36.8539C68.5317 36.6184 67.8963 36.8932 67.5668 37.0581C67.4962 37.0973 67.4256 37.1209 67.355 37.1366C67.308 37.1601 67.2688 37.1994 67.206 37.2151C66.7667 37.3328 66.147 37.0659 66.0686 36.5713C65.8646 35.2445 65.5744 33.8628 65.143 32.5125C62.5465 32.4968 59.9894 31.5861 57.8008 30.2279C55.8711 29.0267 54.0121 27.4016 52.9453 25.3525C52.9217 25.3761 52.8982 25.3996 52.8668 25.4311C52.9374 25.5959 52.9531 25.7922 52.8903 26.0199C51.8314 29.6705 50.843 33.6901 48.0269 36.43C47.87 37.011 47.0621 37.4585 46.4424 36.9324C46.2541 36.7754 45.7757 36.6734 45.5325 36.744C45.3285 36.8068 45.3128 36.8696 45.2108 37.0973C44.9285 37.7489 44.9363 38.5419 44.9912 39.2327C45.0383 39.8372 45.1795 40.3711 45.4305 40.8029C45.8933 40.6773 46.3875 40.6851 46.8268 40.85C47.5563 41.1248 48.1054 41.6979 48.3329 42.4123C48.4348 42.5615 48.4976 42.7342 48.5054 42.9305C48.5603 45.0188 49.4389 47.0521 50.796 48.6301C53.1963 51.4171 57.1654 52.8931 60.6326 51.1895C63.4408 49.8077 65.4411 46.9579 66.0686 43.8961C65.9666 43.5978 65.9117 43.2759 65.9431 42.9776C65.998 42.428 66.1863 41.9648 66.5314 41.5409C67.0491 40.9128 67.959 40.6066 68.767 40.7636C69.1278 40.2926 69.3004 39.641 69.371 39.0836C69.4495 38.4712 69.4651 37.2779 68.869 36.8696L68.8768 36.8539ZM57.5812 41.4938C58.7735 41.4938 58.7656 43.3387 57.5812 43.3387C56.3967 43.3387 56.3967 41.4938 57.5812 41.4938ZM51.2038 34.852C50.992 34.7421 50.8508 34.5223 50.7803 34.3024C50.7097 34.0826 50.7567 33.7921 50.8744 33.588C51.0077 33.3603 51.196 33.2583 51.4235 33.1641C51.8784 32.9757 52.3334 32.8657 52.8197 32.8029C53.4002 32.7323 53.9807 32.8029 54.5533 32.8971C54.7886 32.9364 54.9848 33.1327 55.1024 33.3211C55.2358 33.5331 55.2514 33.8 55.1965 34.0355C55.1495 34.2553 54.9612 34.4751 54.7729 34.5851C54.5454 34.7185 54.318 34.7185 54.0591 34.6793C54.0434 34.6793 54.0199 34.6793 54.0042 34.6714C53.6434 34.6243 53.2747 34.6165 52.9139 34.6479C52.5687 34.7107 52.2314 34.8127 51.902 34.9462C51.6823 35.0404 51.3921 34.9619 51.1882 34.852H51.2038ZM53.4551 37.6626C52.2628 37.6626 52.2706 35.8176 53.4551 35.8176C54.6396 35.8176 54.6396 37.6626 53.4551 37.6626ZM60.4757 46.2199C58.9617 47.8686 56.0907 47.9157 54.5298 46.3141C54.1689 45.9452 54.1846 45.3799 54.5298 45.0109C54.8671 44.6498 55.4946 44.6655 55.8319 45.0109C55.9025 45.0816 55.9731 45.1444 56.0437 45.2072C56.0829 45.2307 56.1143 45.2543 56.1535 45.2778C56.232 45.3328 56.3182 45.3799 56.4045 45.4191C56.4045 45.4191 56.4281 45.427 56.4437 45.4349C56.4437 45.4349 56.4987 45.4349 56.5222 45.4741C56.6948 45.5369 56.8752 45.584 57.0556 45.6233C57.087 45.6233 57.1183 45.6233 57.134 45.6311C57.1497 45.6311 57.1654 45.6311 57.1732 45.6311C57.2752 45.639 57.3694 45.6468 57.4713 45.6468C57.5655 45.6468 57.6596 45.6468 57.7616 45.6311C57.7616 45.6311 57.7616 45.6311 57.7694 45.6311C57.8165 45.6233 57.8871 45.6154 57.9028 45.6154C57.9499 45.6076 58.4833 45.482 58.4754 45.4427C58.4754 45.4427 58.2871 45.5291 58.4205 45.4663C58.4754 45.4348 58.5303 45.4113 58.5852 45.3878C58.6715 45.3406 58.7578 45.2857 58.8441 45.2307C58.8754 45.2072 58.9853 45.0894 58.899 45.1915C58.8127 45.2935 58.9225 45.1679 58.946 45.1444C59.0245 45.0737 59.0951 45.0031 59.1657 44.9245C59.5108 44.5477 60.1148 44.5948 60.4678 44.9245C60.8443 45.27 60.7973 45.8745 60.4678 46.2278L60.4757 46.2199ZM61.5739 37.6626C60.3816 37.6626 60.3894 35.8176 61.5739 35.8176C62.7584 35.8176 62.7584 37.6626 61.5739 37.6626ZM64.3036 34.3024C64.2566 34.5223 64.0683 34.7421 63.8801 34.852C63.6997 34.9619 63.3702 35.0326 63.1662 34.9462C62.8368 34.8049 62.5073 34.7107 62.1543 34.6479C61.7935 34.6165 61.4248 34.6243 61.064 34.6714C61.0483 34.6714 61.0248 34.6714 61.0091 34.6793C60.7502 34.7185 60.5306 34.7107 60.2953 34.5851C60.0835 34.4751 59.9422 34.2553 59.8717 34.0355C59.8011 33.8157 59.8482 33.5252 59.9658 33.3211C60.0678 33.1405 60.3031 32.9285 60.5149 32.8971C61.0875 32.8029 61.668 32.7323 62.2485 32.8029C62.7348 32.8657 63.1897 32.9757 63.6447 33.1641C63.8016 33.2112 63.935 33.2897 64.0526 33.3996C64.0997 33.4624 64.1467 33.5252 64.1938 33.588C64.3272 33.8 64.3428 34.0669 64.2879 34.3024H64.3036Z" fill="var(--fill-0, white)"/>
<path id="Vector_54" d="M57.133 45.623C57.133 45.623 57.0938 45.623 57.0703 45.623C57.1331 45.6387 57.1409 45.6309 57.133 45.623Z" fill="var(--fill-0, #78C8E6)"/>
<path id="Vector_55" d="M57.8047 45.6233C57.9062 45.6233 57.8359 45.6155 57.7812 45.6233C57.7969 45.6233 57.8047 45.6233 57.8203 45.6233H57.8047Z" fill="var(--fill-0, #78C8E6)"/>
<path id="Vector_56" d="M57.0708 45.6155C57.0708 45.6155 57.0708 45.6155 57.0629 45.6155C57.055 45.6155 57.0392 45.6155 57.0312 45.6155C57.0392 45.6155 57.0629 45.6155 57.0787 45.6155H57.0708Z" fill="var(--fill-0, #78C8E6)"/>
<path id="Vector_57" d="M57.0703 45.6152C57.0703 45.6152 57.1093 45.6152 57.1328 45.6152C57.125 45.6152 57.0937 45.6074 57.0547 45.6074C57.0547 45.6074 57.0547 45.6074 57.0625 45.6074L57.0703 45.6152Z" fill="var(--fill-0, #323232)"/>
<path id="Vector_58" d="M56.5394 45.474C56.5394 45.474 56.5395 45.474 56.5315 45.4661C56.5315 45.4661 56.5236 45.4661 56.5156 45.4661C56.5156 45.4661 56.5394 45.474 56.5394 45.482V45.474Z" fill="var(--fill-0, #78C8E6)"/>
<path id="Vector_59" d="M56.5002 45.4584C56.5002 45.4584 56.5002 45.4584 56.5081 45.4584C56.4924 45.4427 56.4688 45.4348 56.4453 45.427C56.4453 45.427 56.4453 45.4427 56.5002 45.4584Z" fill="var(--fill-0, #78C8E6)"/>
<path id="Vector_60" d="M56.5234 45.4661C56.5234 45.4661 56.4531 45.427 56.4453 45.427C56.4687 45.4348 56.4922 45.4504 56.5078 45.4583C56.5078 45.4583 56.5156 45.4583 56.5234 45.4583V45.4661Z" fill="var(--fill-0, #323232)"/>
<path id="Vector_61" d="M46.0083 57.3913C46.8084 57.0145 47.538 56.5356 48.0714 55.8133C49.2401 54.2431 49.4833 52.0685 49.7343 50.1764C48.4557 48.7947 47.4988 47.1146 47.0203 45.3011C46.8712 45.3639 46.7222 45.4188 46.5731 45.4424C46.024 45.5445 45.5063 45.4817 44.9965 45.2461C44.9965 45.2461 44.9886 45.2461 44.9807 45.2383C44.4395 49.9409 43.5296 54.6043 42.0078 59.0871C42.1255 59.0321 42.251 58.985 42.3687 58.9301C43.5845 58.4276 44.8082 57.9487 46.0005 57.3913H46.0083Z" fill="var(--fill-0, white)"/>
<path id="Vector_62" d="M56.5385 45.4743C56.5385 45.4743 56.5228 45.4665 56.515 45.4586C56.515 45.4586 56.515 45.4586 56.5071 45.4586C56.46 45.4429 56.4522 45.4351 56.4522 45.4272C56.4365 45.4272 56.413 45.4115 56.413 45.4115C56.3267 45.3644 56.2483 45.3251 56.162 45.2702C56.1227 45.2466 56.0914 45.2231 56.0521 45.1995C55.9815 45.1367 55.911 45.0739 55.8404 45.0033C55.5031 44.6578 54.8677 44.6421 54.5382 45.0033C54.1931 45.3722 54.1774 45.9375 54.5382 46.3065C56.0992 47.9081 58.9702 47.8609 60.4841 46.2123C60.8136 45.859 60.8606 45.2545 60.4841 44.9091C60.1311 44.5793 59.5272 44.5322 59.182 44.9091C59.1114 44.9876 59.0408 45.0582 58.9624 45.1289C58.9388 45.1524 58.829 45.278 58.9153 45.176C59.0016 45.0739 58.8996 45.1917 58.8604 45.2152C58.7741 45.2702 58.6878 45.3251 58.6015 45.3723C58.5466 45.4037 58.4917 45.4272 58.4368 45.4508C58.3035 45.5214 58.4917 45.4272 58.4917 45.4272C58.4917 45.4665 57.9661 45.5921 57.9191 45.5999C57.9034 45.5999 57.8328 45.6078 57.7857 45.6156C57.8406 45.6156 57.9113 45.6156 57.8093 45.6156C57.7936 45.6156 57.7857 45.6156 57.77 45.6156C57.77 45.6156 57.77 45.6156 57.7622 45.6156C57.668 45.6156 57.5739 45.6313 57.4719 45.6313C57.37 45.6313 57.2758 45.6313 57.1739 45.6156C57.166 45.6156 57.1503 45.6156 57.1346 45.6156C57.1425 45.6156 57.1347 45.6156 57.0719 45.6156C57.0562 45.6156 57.0405 45.6156 57.0249 45.6156C57.0327 45.6156 57.0484 45.6156 57.0562 45.6156C56.8758 45.5764 56.7032 45.5293 56.5228 45.4665C56.5228 45.4665 56.5307 45.4665 56.5307 45.4743H56.5385Z" fill="var(--fill-0, #323232)"/>
<path id="Vector_63" d="M68.8794 43.0715C68.8637 43.0087 68.848 42.9538 68.8323 42.891C68.8088 42.8517 68.7852 42.8046 68.7538 42.7654C68.7303 42.734 68.699 42.7104 68.6754 42.6869C68.6362 42.6633 68.5891 42.6319 68.5499 42.6083C68.5028 42.5926 68.4558 42.5769 68.4087 42.5691C68.3616 42.5691 68.3067 42.5691 68.2597 42.5691C68.2126 42.5769 68.1655 42.5926 68.1185 42.6083C68.0792 42.6319 68.0322 42.6555 67.993 42.6869C67.9616 42.7104 67.938 42.7418 67.9145 42.7654C67.891 42.8046 67.8596 42.8517 67.8361 42.891C67.8204 42.9381 67.8047 42.9852 67.7969 43.0323C67.7969 43.0794 67.7969 43.1343 67.7969 43.1815C67.8047 43.2286 67.8204 43.2757 67.8361 43.3228C67.8596 43.362 67.8831 43.4091 67.9145 43.4484C67.938 43.4798 67.9694 43.5033 67.993 43.5269C68.0322 43.5504 68.0792 43.5818 68.1185 43.6054C68.1655 43.6211 68.2126 43.6368 68.2597 43.6447C68.3067 43.6447 68.3616 43.6447 68.4087 43.6447C68.4558 43.6368 68.5028 43.6211 68.5499 43.6054C68.5891 43.5818 68.6362 43.5583 68.6754 43.5269C68.7068 43.5033 68.7303 43.4719 68.7538 43.4484C68.7774 43.4091 68.8088 43.362 68.8323 43.3228C68.848 43.26 68.8715 43.205 68.8794 43.1422C68.8794 43.1344 68.8794 43.1186 68.8794 43.1108C68.8794 43.1029 68.8794 43.0873 68.8794 43.0794V43.0715Z" fill="var(--fill-0, white)"/>
<path id="Vector_64" d="M46.4882 43.4405C46.5118 43.4013 46.5432 43.3542 46.5667 43.3149C46.5824 43.2521 46.6059 43.1972 46.6138 43.1343C46.6138 43.1265 46.6138 43.1108 46.6138 43.103C46.6138 43.0951 46.6138 43.0794 46.6138 43.0715C46.5981 43.0087 46.5824 42.9538 46.5667 42.891C46.5432 42.8517 46.5196 42.8046 46.4882 42.7654C46.4647 42.734 46.4333 42.7104 46.4098 42.6869C46.3706 42.6633 46.3235 42.6319 46.2843 42.6083C46.2372 42.5926 46.1901 42.5769 46.1431 42.5691C46.096 42.5691 46.0411 42.5691 45.994 42.5691C45.947 42.5769 45.8999 42.5926 45.8528 42.6083C45.8136 42.6319 45.7666 42.6555 45.7274 42.6869C45.696 42.7104 45.6725 42.7418 45.6489 42.7654C45.6254 42.8046 45.594 42.8517 45.5705 42.891C45.5548 42.9381 45.5391 42.9852 45.5312 43.0323C45.5312 43.0794 45.5312 43.1343 45.5312 43.1815C45.5391 43.2286 45.5548 43.2757 45.5705 43.3228C45.594 43.362 45.6176 43.4091 45.6489 43.4484C45.6725 43.4798 45.7038 43.5033 45.7274 43.5269C45.7666 43.5504 45.8136 43.5818 45.8528 43.6054C45.8999 43.6211 45.947 43.6368 45.994 43.6447C46.0411 43.6447 46.096 43.6447 46.1431 43.6447C46.1901 43.6368 46.2372 43.6211 46.2843 43.6054C46.3235 43.5818 46.3706 43.5583 46.4098 43.5269C46.4412 43.5033 46.4647 43.4719 46.4882 43.4484V43.4405Z" fill="var(--fill-0, white)"/>
<path id="Vector_65" d="M57.5788 41.4937C56.3943 41.4937 56.3865 43.3386 57.5788 43.3386C58.7711 43.3386 58.7711 41.4937 57.5788 41.4937Z" fill="var(--fill-0, #323232)"/>
<path id="Vector_66" d="M61.5739 37.6623C62.7584 37.6623 62.7662 35.8174 61.5739 35.8174C60.3816 35.8174 60.3816 37.6623 61.5739 37.6623Z" fill="var(--fill-0, #323232)"/>
<path id="Vector_67" d="M53.4538 35.8174C52.2693 35.8174 52.2615 37.6623 53.4538 37.6623C54.6461 37.6623 54.6461 35.8174 53.4538 35.8174Z" fill="var(--fill-0, #323232)"/>
<path id="Vector_68" d="M52.8495 25.1718C52.324 24.112 53.9163 23.1699 54.4419 24.2376C55.3597 26.0982 56.9991 27.5506 58.7405 28.6262C60.4584 29.6939 62.4116 30.4633 64.4354 30.6281C63.4862 28.4849 62.1057 26.5928 60.0584 25.4073C59.0308 24.8107 59.9564 23.217 60.9918 23.8136C64.961 26.1139 66.8593 30.6831 67.675 35.056C67.9261 34.9932 68.1771 34.9461 68.4281 34.9304C69.1027 31.6723 68.7026 28.0923 66.9455 25.2503C64.8119 21.8117 61.1252 19.8883 57.1168 19.8568C56.4579 19.8568 56.1676 19.2759 56.2382 18.7734C56.0029 18.7734 55.7754 18.8048 55.5401 18.8833C55.6813 19.3387 55.5165 19.849 54.9204 19.9511C51.312 20.5791 48.5352 23.6723 46.8409 26.7498C45.9388 28.3985 45.3583 30.0629 45.4368 31.9628C45.476 32.9363 45.625 33.9255 45.876 34.8754C46.182 34.899 46.4801 34.9618 46.7703 35.0638C49.304 32.5516 50.1433 28.8381 51.1081 25.5173C51.3748 24.5987 52.575 24.74 52.8652 25.4231C52.8887 25.3995 52.9123 25.376 52.9437 25.3446C52.9123 25.2817 52.8731 25.2268 52.8417 25.164L52.8495 25.1718Z" fill="var(--fill-0, white)"/>
<path id="Vector_69" d="M63.8853 34.8522C64.0735 34.7423 64.2618 34.5224 64.3088 34.3026C64.3637 34.0671 64.3481 33.8002 64.2147 33.5882C64.1676 33.5254 64.1206 33.4626 64.0735 33.3998C63.9559 33.282 63.8225 33.2035 63.6656 33.1642C63.2106 32.9758 62.7557 32.8659 62.2694 32.8031C61.6889 32.7325 61.1084 32.8031 60.5358 32.8973C60.324 32.9287 60.0886 33.1407 59.9867 33.3213C59.869 33.5175 59.8219 33.808 59.8925 34.0357C59.9631 34.2555 60.1043 34.4753 60.3161 34.5852C60.5514 34.7109 60.7711 34.7187 61.03 34.6795C61.0457 34.6795 61.0692 34.6794 61.0849 34.6716C61.4457 34.6245 61.8144 34.6166 62.1752 34.648C62.5204 34.7109 62.8577 34.8129 63.1871 34.9464C63.3911 35.0327 63.7205 34.9621 63.9009 34.8522H63.8853Z" fill="var(--fill-0, #323232)"/>
<path id="Vector_70" d="M54.5562 32.8973C53.9836 32.8031 53.4031 32.7325 52.8226 32.8031C52.3363 32.8659 51.8814 32.9758 51.4264 33.1642C51.1911 33.2585 51.0106 33.3605 50.8773 33.5882C50.7596 33.7845 50.7126 34.0749 50.7832 34.3026C50.8538 34.5224 50.9949 34.7423 51.2067 34.8522C51.4107 34.9621 51.6931 35.0406 51.9206 34.9464C52.25 34.8051 52.5795 34.7109 52.9325 34.648C53.2933 34.6166 53.662 34.6245 54.0228 34.6716C54.0385 34.6716 54.0621 34.6716 54.0777 34.6795C54.3288 34.7187 54.5562 34.7187 54.7915 34.5852C54.9798 34.4753 55.168 34.2555 55.2151 34.0357C55.27 33.8002 55.2543 33.5332 55.121 33.3213C54.9955 33.1328 54.7994 32.9366 54.5719 32.8973H54.5562Z" fill="var(--fill-0, #323232)"/>
<path id="Vector_71" d="M86.5752 92.3667C85.375 86.2745 84.1748 80.1823 82.9747 74.0901C82.4883 71.6249 82.0883 69.097 81.1548 66.7496C80.7312 65.6819 80.1821 64.6456 79.3506 63.837C78.3231 62.8399 77.068 61.992 75.907 61.1598C75.2481 60.6888 74.5892 60.2335 73.9146 59.7938C73.138 54.5966 71.075 49.6506 70.2906 44.4612C70.5259 44.1158 70.675 43.7233 70.7142 43.2993C70.7299 43.2365 70.7377 43.1737 70.7377 43.103C70.7377 42.6084 70.5808 42.1609 70.322 41.7841C70.9417 40.9127 71.2162 39.7743 71.2633 38.7301C71.3103 37.6624 71.0201 36.3357 70.2043 35.5584C71.0358 31.7272 70.5887 27.4957 68.455 24.1669C65.9527 20.2651 61.7404 18.059 57.128 18.0198C56.6025 18.0198 56.3044 18.3809 56.2495 18.7813C56.4691 18.7813 56.6888 18.8363 56.9005 18.9462C56.6809 18.8363 56.4613 18.7892 56.2495 18.7813C56.1789 19.2838 56.4691 19.8569 57.128 19.8647C61.1442 19.8961 64.8232 21.8196 66.9568 25.2582C68.7218 28.1002 69.114 31.6801 68.4394 34.9382C68.1884 34.9539 67.9295 34.9932 67.6863 35.0638C66.8627 30.6909 64.9722 26.1218 61.003 23.8215C59.9755 23.2248 59.042 24.8186 60.0696 25.4152C62.1169 26.6007 63.4975 28.5006 64.4467 30.636C62.4229 30.4711 60.4696 29.7017 58.7518 28.634C57.0104 27.5506 55.3709 26.1061 54.4532 24.2454C53.9276 23.1777 52.3352 24.112 52.8608 25.1797C52.8921 25.2425 52.9314 25.2974 52.9627 25.3603C54.0296 27.4015 55.8886 29.0344 57.8183 30.2356C60.0068 31.5938 62.5641 32.5045 65.1605 32.5202C65.5919 33.8627 65.8822 35.2523 66.0861 36.579C66.1646 37.0736 66.7843 37.3484 67.2235 37.2228C67.2784 37.2071 67.3255 37.1757 67.3725 37.1443C67.4431 37.1286 67.5137 37.0972 67.5843 37.0658C67.9138 36.8931 68.5492 36.6261 68.8943 36.8617C69.4905 37.2699 69.4826 38.4554 69.3964 39.0756C69.3258 39.633 69.1454 40.2846 68.7924 40.7556C67.9844 40.5986 67.0745 40.9048 66.5568 41.5329C66.2038 41.9568 66.0155 42.42 65.9684 42.9696C65.9371 43.2758 65.992 43.5976 66.094 43.8881C65.4664 46.9499 63.4661 49.7998 60.6579 51.1815C57.1908 52.8851 53.2216 51.4092 50.8213 48.6221C49.4642 47.0441 48.5857 45.0186 48.5308 42.9225C48.5308 42.7262 48.4602 42.5456 48.3582 42.4043C48.1307 41.6899 47.5816 41.1168 46.8521 40.842C46.4129 40.6771 45.9187 40.6693 45.4559 40.7949C45.2049 40.3553 45.0636 39.8293 45.0166 39.2247C44.9617 38.5339 44.9538 37.7409 45.2362 37.0893C45.3382 36.8617 45.346 36.7989 45.5578 36.736C45.801 36.6654 46.2874 36.7675 46.4678 36.9245C47.0796 37.4505 47.8876 37.0108 48.0523 36.422C50.8684 33.6821 51.8567 29.6703 52.9157 26.0119C52.9784 25.7842 52.9628 25.5879 52.8922 25.4231C52.6019 24.74 51.4018 24.5987 51.1351 25.5173C50.1702 28.8382 49.323 32.5516 46.7972 35.0638C46.507 34.9618 46.2089 34.899 45.903 34.8754C45.6441 33.9255 45.4951 32.9363 45.4637 31.9628C45.3931 30.0629 45.9658 28.3985 46.8678 26.7498C48.5622 23.6723 51.3312 20.5791 54.9473 19.9511C55.5435 19.849 55.7004 19.3308 55.567 18.8834C55.4337 18.4516 55.0258 18.0747 54.4532 18.1689C50.3977 18.8755 47.1737 22.3534 45.2754 25.8156C44.2792 27.6291 43.5889 29.529 43.6125 31.6173C43.6282 32.8892 43.8086 34.2159 44.1537 35.4485C43.3458 36.2414 43.1575 37.5839 43.1575 38.6516C43.1575 39.7665 43.3536 41.0461 43.9812 42.0039C43.8321 42.2944 43.738 42.6084 43.7066 42.9539C43.6831 43.1894 43.7066 43.4406 43.7694 43.6761C43.5105 43.8175 43.2987 44.0687 43.2595 44.4298C42.6947 49.7841 41.5887 55.0912 39.6982 60.1392C36.7253 61.6152 33.9249 63.6093 32.7404 66.8203C32.6228 67.1421 32.6934 67.4091 32.8503 67.6053C30.7872 67.9115 28.7163 68.2177 26.6533 68.5239L23.9941 68.9164C23.5705 68.9792 23.3666 69.254 23.3352 69.568C22.4881 69.5837 21.6409 69.5916 20.7859 69.6073C20.0642 69.6151 19.6641 70.3767 19.9858 70.9969C21.1702 73.2815 22.3625 75.566 23.547 77.8506C23.1313 78.0076 22.7155 78.1647 22.2998 78.3217C21.7036 78.5493 21.1075 78.7692 20.5191 78.9968C20.025 79.1853 19.5778 79.829 19.97 80.355C22.3233 83.5346 24.6688 86.7142 27.022 89.8937C26.975 92.563 26.2533 95.193 26.3944 97.8701C26.5043 99.9035 27.1475 101.945 28.332 103.617C29.4929 105.25 31.1245 106.404 33.1954 106.333C34.1681 106.302 35.1172 106.082 36.0429 105.768C35.7134 107.299 35.3918 108.838 35.0623 110.369C34.9447 110.91 35.3211 111.585 35.9487 111.538C36.4272 111.499 36.9135 111.46 37.392 111.421C36.4429 121.069 36.0821 130.734 36.5763 140.429C37.0704 149.984 38.1058 159.515 39.3295 168.998C39.6119 171.157 39.8943 173.316 40.2159 175.467C40.2708 175.86 40.7336 176.15 41.1023 176.142C41.3769 176.142 41.6593 176.142 41.9338 176.135C42.1299 179.997 42.2633 183.86 42.428 187.722C42.5613 190.918 42.7026 194.121 42.8045 197.324C42.8359 198.242 42.8673 199.161 42.8751 200.08C42.8751 200.197 42.8751 200.315 42.8751 200.441C42.8751 200.637 42.8751 200.574 42.8751 200.582C42.7418 201.501 42.4515 202.411 42.177 203.298C41.5181 205.442 40.7258 207.546 40.0591 209.689C39.8943 210.207 39.7139 210.749 39.5962 211.29C39.5413 211.369 39.4943 211.455 39.4708 211.557C39.1021 213.222 38.8197 214.965 38.8903 216.668C38.9216 217.453 39.0236 218.285 39.4001 218.984C39.6276 219.4 39.9885 219.738 40.2944 220.099C40.5925 220.444 40.8827 220.806 41.2357 221.096C42.8359 222.431 45.3696 221.881 47.1032 221.12C48.8053 220.374 50.4683 219.063 51.1664 217.288C51.7391 215.828 52.2803 214.266 52.5627 212.696C52.9157 211.793 52.7667 210.851 52.751 209.791C52.7275 208.127 52.8451 206.462 52.9706 204.806C53.0961 203.133 53.1745 201.446 53.3628 199.773C53.6609 197.143 54.0453 194.553 54.4139 191.923C55.167 186.6 55.9043 181.277 56.7515 175.97H57.379C56.8535 183.326 57.1829 190.753 56.8378 198.125C56.7358 200.307 56.7358 202.607 56.1867 204.727C55.6455 206.847 54.6728 208.825 54.061 210.929C53.8099 211.809 53.5903 212.782 53.7001 213.685C53.6766 213.771 53.6609 213.858 53.6609 213.952C53.6844 214.753 53.7158 215.561 53.7394 216.362C53.755 216.888 53.7786 217.398 54.0688 217.869C54.6257 218.772 55.669 219 56.6417 219.133C57.6771 219.275 58.689 219.188 59.7244 219.11C59.8813 219.094 60.0304 219.047 60.1638 218.976C62.6739 220.554 65.4115 221.826 68.3453 222.25C70.3455 222.541 74.903 222.808 74.801 219.714C74.7461 217.901 73.4126 216.755 72.0398 215.82C71.3574 215.357 70.8397 214.768 70.2828 214.156C69.5846 213.394 68.8865 212.617 68.2903 211.769C67.0588 210.019 66.6195 208.252 66.4862 206.14C66.345 203.974 66.4783 201.807 66.7999 199.656C67.451 195.314 68.408 191.004 69.1846 186.678C69.8435 183.051 70.4789 179.416 71.1299 175.789C71.4515 175.789 71.781 175.781 72.1026 175.773C72.4713 175.773 72.9263 175.491 72.989 175.098C74.0166 168.833 74.8638 162.537 75.6404 156.241C76.3542 150.439 76.9739 144.622 77.4445 138.788C77.6171 136.637 77.8053 134.494 77.7818 132.335C77.7583 130.27 77.6485 128.213 77.5073 126.157C77.17 121.187 76.6758 116.21 75.8914 111.295C75.9071 111.295 75.9227 111.295 75.9384 111.295C76.7935 111.381 77.6406 111.468 78.4957 111.562C79.1624 111.633 79.4605 110.918 79.382 110.392C79.0604 108.163 78.7388 105.941 78.4172 103.711C79.0447 103.585 79.6723 103.452 80.2998 103.311C82.5746 102.769 85.3828 102.227 86.6222 99.9977C87.9087 97.6817 87.0458 94.8083 86.5673 92.3903L86.5752 92.3667ZM67.804 43.0245C67.8118 42.9774 67.8275 42.9303 67.8432 42.8832C67.8667 42.844 67.8903 42.7969 67.9216 42.7576C67.9452 42.7262 67.9766 42.7026 68.0001 42.6791C68.0393 42.6555 68.0864 42.6241 68.1256 42.6006C68.1727 42.5849 68.2197 42.5692 68.2668 42.5613C68.3138 42.5613 68.3688 42.5613 68.4158 42.5613C68.4629 42.5692 68.5099 42.5849 68.557 42.6006C68.5962 42.6241 68.6433 42.6477 68.6825 42.6791C68.7139 42.7026 68.7374 42.734 68.761 42.7576C68.7845 42.7969 68.8159 42.844 68.8394 42.8832C68.8551 42.946 68.8787 43.001 68.8865 43.0638C68.8865 43.0716 68.8865 43.0873 68.8865 43.0952C68.8865 43.103 68.8865 43.1187 68.8865 43.1266C68.8708 43.1894 68.8551 43.2443 68.8394 43.3072C68.8159 43.3464 68.7923 43.3935 68.761 43.4328C68.7374 43.4642 68.7061 43.4877 68.6825 43.5113C68.6433 43.5348 68.5962 43.5662 68.557 43.5898C68.5099 43.6055 68.4629 43.6212 68.4158 43.629C68.3688 43.629 68.3138 43.629 68.2668 43.629C68.2197 43.6212 68.1727 43.6055 68.1256 43.5898C68.0864 43.5662 68.0393 43.5427 68.0001 43.5113C67.9687 43.4877 67.9452 43.4563 67.9216 43.4328C67.8981 43.3935 67.8667 43.3464 67.8432 43.3072C67.8275 43.26 67.8118 43.2129 67.804 43.1658C67.804 43.1187 67.804 43.0638 67.804 43.0167V43.0245ZM65.5449 49.3837C66.4626 48.1746 67.1451 46.8086 67.5843 45.3641C67.9216 45.474 68.2589 45.5054 68.6119 45.4661C69.4199 49.8704 71.0279 54.1177 71.8516 58.5141C70.6514 57.8154 69.3415 57.2737 68.1805 56.5279C66.0155 55.1304 65.3801 52.3905 65.035 50.0039C65.2154 49.7998 65.3801 49.5878 65.5449 49.3758V49.3837ZM56.8456 102.274C56.2338 102.408 55.5121 102.549 54.8689 102.816C54.6728 102.863 54.4689 102.91 54.2728 102.957C53.5668 103.107 52.8608 103.217 52.147 103.256C51.7861 103.271 51.4331 103.217 51.0723 103.232C51.0252 103.232 50.986 103.232 50.9625 103.217C51.0017 103.122 51.0409 103.028 51.0802 102.926C51.088 102.855 51.1037 102.785 51.1115 102.714C50.9703 102.785 50.9547 102.777 51.0802 102.706C51.1508 102.636 51.2684 102.596 51.3625 102.557C51.7312 102.486 52.0764 102.416 52.398 102.369C53.7943 102.149 55.1905 101.89 56.579 101.599C57.5909 101.395 57.3791 99.7072 56.3358 99.7857C55.1435 99.8721 53.9433 100.029 52.7666 100.257C52.1705 100.375 51.5743 100.508 51.0017 100.72C50.5546 100.783 50.0996 100.838 49.6447 100.869C49.3387 100.893 49.2681 100.916 49.0642 100.689C48.9387 100.555 48.9465 100.359 48.8524 100.225C48.9544 100.225 49.0721 100.178 49.174 100.163C49.2446 100.147 49.3152 100.131 49.3936 100.123C50.3742 100.155 51.441 99.9192 52.2568 99.7622C53.5197 99.5266 54.7748 99.2205 56.0063 98.8515C57.1594 98.506 56.673 96.8495 55.5121 97.0693C53.504 97.454 51.488 97.823 49.4799 98.2234C49.3309 98.2077 49.1191 98.1606 48.9622 98.1449C48.9701 98.0271 48.9465 97.8937 49.0171 97.7681C49.5113 96.9359 51.0723 96.8652 51.9116 96.6847C52.4294 96.5669 52.9392 96.4256 53.4491 96.3C54.0845 96.1429 54.7591 95.8917 55.4101 95.8211C55.7867 95.7818 56.2181 95.7975 56.6182 95.6798C57.128 95.5306 57.6065 95.2715 58.1164 95.1067C59.6146 94.6121 58.9243 93.3559 58.1085 92.3196C58.54 92.0605 58.9714 91.7858 59.3793 91.4953C59.4264 91.4639 59.4735 91.4246 59.5205 91.3854C60.9325 92.7828 62.3444 94.196 63.8583 95.4756C64.0937 95.6798 64.3682 95.7347 64.6114 95.6955L64.7212 96.6297C65.0193 98.7573 65.4272 100.846 65.6311 102.965C65.5762 102.965 65.5213 102.965 65.4664 102.981C65.4193 102.989 65.3801 102.997 65.3331 103.012C62.7366 103.947 59.9284 104.512 57.2143 104.967C56.5868 105.069 55.9514 105.171 55.316 105.211C55.167 105.218 54.963 105.195 54.8218 105.226C54.861 105.124 54.8924 104.999 54.9395 104.936C55.0258 104.81 55.167 104.708 55.3317 104.614C56.1946 104.41 56.9241 104.182 57.3241 104.049C58.4537 103.672 57.9988 102.015 56.83 102.267L56.8456 102.274ZM47.315 101.34C46.8129 101.395 46.3187 101.45 45.8167 101.505L43.6909 101.741C43.6909 101.741 43.6596 101.748 43.636 101.748C44.8127 100.995 45.9814 100.225 47.1345 99.4403C46.9149 100.013 47.0012 100.72 47.3071 101.34H47.315ZM47.213 95.6091C47.1424 95.5463 47.0718 95.4835 47.009 95.4128C46.9384 95.35 46.8678 95.2872 46.7972 95.2166C46.0912 94.51 45.6677 93.9133 45.1342 93.0576C44.8832 92.6494 44.6479 92.2333 44.4283 91.8093C44.3184 91.5895 44.2086 91.3697 44.1067 91.1499C44.0988 91.1263 44.0204 90.9536 44.0047 90.9222C43.9655 90.8358 43.9341 90.7495 43.8949 90.6552C43.8086 90.4354 43.738 90.2156 43.6674 89.9879C43.8086 89.8859 43.942 89.7838 44.0832 89.6818C44.444 89.4148 44.5852 89.0772 44.5067 88.6376C44.3106 87.5306 43.9341 86.1332 44.342 85.0498C44.6714 84.1626 45.4088 83.4561 45.9736 82.726C46.5541 81.9801 47.0325 81.2186 47.3777 80.3393C47.5346 79.9389 47.5973 79.4443 47.8013 79.0675C47.8876 78.9026 47.9111 78.8712 48.0523 78.8006C48.0837 78.7849 48.2798 78.7613 48.4367 78.7456C48.4445 78.7613 48.4523 78.777 48.4602 78.7927C48.5465 78.9576 48.6406 79.1224 48.7191 79.2952C48.8524 79.6092 48.8916 79.884 48.8367 80.2216C48.7191 80.9909 48.1778 81.6268 47.8562 82.3177C47.5974 82.8751 47.3855 83.4639 47.1816 84.037C46.907 84.8221 47.8719 85.458 48.5387 85.0812C49.6447 84.4531 50.7821 83.8565 51.7548 83.0321C52.6725 82.2471 53.5354 81.407 54.5944 80.8182C54.7669 80.724 55.3474 80.355 55.5121 80.4414C56.1161 80.7711 55.2376 81.5248 54.9944 81.7211C54.1629 82.4041 55.2297 83.6759 56.1161 83.1735C56.524 82.9458 56.9084 83.4247 56.9712 83.7701C57.0182 84.0527 56.877 84.461 56.7986 84.7436C56.6103 85.4659 57.2535 85.9997 57.936 85.882C57.9281 85.882 57.9203 85.882 57.9203 85.882C57.9909 85.8741 58.1007 85.8663 58.1478 85.882C58.3439 85.9762 58.4537 85.8741 58.4615 86.2039C58.4615 86.3373 58.3753 86.4708 58.2968 86.565C58.2184 86.6671 57.983 86.8398 58.1635 86.7142C57.23 87.3893 57.9674 88.7397 59.0028 88.3471C59.0028 88.3471 59.0263 88.3314 59.0656 88.3236C59.0734 88.3236 59.0891 88.3236 59.0969 88.3079C59.0812 88.3079 59.0813 88.3079 59.0734 88.3236C59.1126 88.3236 59.1675 88.3236 59.2067 88.3628C59.2852 88.4413 59.3872 88.7318 59.4264 88.7004C59.3872 88.8967 59.2067 89.1086 59.0891 89.25C58.3125 90.2313 57.0182 90.7809 55.9514 91.3854C53.2687 92.9006 50.4997 94.2745 47.8876 95.9153C47.8484 95.9388 47.817 95.9702 47.7856 95.9938C47.7307 95.9624 47.6758 95.931 47.6208 95.8996C47.5973 95.8839 47.5817 95.876 47.5581 95.8603C47.4954 95.8211 47.4404 95.7818 47.3777 95.7347C47.362 95.719 47.2287 95.6169 47.2051 95.6012L47.213 95.6091ZM56.3436 73.8075C56.5554 74.1058 56.7672 74.4041 56.979 74.7025V78.2746H53.7707C52.9941 76.9556 52.2254 75.6446 51.4488 74.3256C51.4488 74.2628 51.4331 74.1921 51.4175 74.1215C50.6801 71.4444 50.0682 68.7359 49.4486 66.0273C50.1702 66.2236 50.884 66.4042 51.6057 66.5926C53.1118 69.0499 54.7042 71.4522 56.3514 73.8153L56.3436 73.8075ZM54.1159 67.1892C54.7356 67.3227 55.3552 67.4562 55.9749 67.5739C57.2065 67.8095 58.2968 67.9429 59.5362 67.7152C60.3834 67.5582 61.2227 67.3463 62.0542 67.1186C60.8933 69.097 59.6696 71.0361 58.3988 72.9439C58.3282 73.0459 58.2576 73.148 58.1949 73.2501C56.7829 71.2717 55.418 69.254 54.1159 67.1892ZM49.0642 64.0097C49.0642 64.0097 49.0014 64.0018 48.9701 63.994C48.6641 62.6829 48.3426 61.3718 48.0053 60.0607C48.6563 61.5131 49.425 62.9263 50.233 64.308C49.8408 64.2059 49.4564 64.1117 49.0642 64.0018V64.0097ZM52.6098 79.9468C52.1313 80.3158 51.6685 80.7162 51.2135 81.1244C51.0409 80.8418 50.8684 80.5591 50.6958 80.2765C50.735 79.9311 50.7272 79.5778 50.6487 79.2245C50.4762 78.4865 49.9584 77.2697 49.1975 76.987C49.025 76.9242 48.8367 76.8928 48.6406 76.8771L45.5892 71.8369C45.3225 71.3973 45.0558 70.9576 44.7891 70.518C45.1892 69.9056 45.5814 69.2933 45.9814 68.6809C48.1935 72.4336 50.3977 76.1941 52.6098 79.9468ZM57.2928 94.4236C57.3084 94.4707 57.2849 94.4864 57.2614 94.4393C57.2536 94.4158 57.2378 94.3687 57.23 94.3137C57.2614 94.3608 57.2849 94.4001 57.2928 94.4236ZM56.7672 93.6543C56.6574 93.7014 56.5397 93.7563 56.4221 93.7956C55.9436 93.9761 55.5043 93.9447 55.0101 94.0232C55.4965 93.7642 55.9749 93.5129 56.4613 93.246C56.4848 93.2774 56.5084 93.3088 56.5319 93.3402C56.6103 93.4423 56.6888 93.5443 56.7594 93.6464L56.7672 93.6543ZM48.8132 100.163C48.9387 100.108 48.7269 99.9977 48.8132 100.163ZM60.1951 86.8555C60.3206 86.4472 60.3442 86.0154 60.2108 85.5679C59.9833 84.8064 59.4421 84.3511 58.7832 84.1627C58.8224 83.5817 58.7361 83.0243 58.391 82.4669C58.1478 82.0665 57.7869 81.7525 57.3712 81.5483C57.5359 81.0773 57.5673 80.5827 57.4261 80.1116H66.1567V87.562H60.8776C60.6893 87.2716 60.4618 87.0282 60.203 86.8555H60.1951ZM64.8624 75.5346C64.7055 76.3276 64.5565 77.1205 64.3996 77.9134C64.3761 78.039 64.3761 78.1647 64.3996 78.2746H58.8224V75.5425C58.893 75.4797 58.9557 75.4169 59.0106 75.3305C61.0188 72.4493 62.9484 69.4581 64.6585 66.3571C65.3644 66.1451 66.0704 65.9174 66.7764 65.6898C66.141 68.9714 65.4978 72.253 64.8624 75.5425V75.5346ZM65.8665 64.0489C66.1018 63.5779 66.3371 63.099 66.5646 62.6201C67.1686 61.3326 67.7334 59.9979 68.0942 58.6162C68.1099 58.624 68.1335 58.6397 68.1491 58.6476C68.1491 58.6712 68.1334 58.6947 68.1256 58.7183C67.804 60.3591 67.4902 61.992 67.1686 63.6328C67.1216 63.6407 67.0745 63.6485 67.0196 63.6642C66.6352 63.7899 66.2508 63.9155 65.8665 64.0411V64.0489ZM51.3782 51.6525C52.2019 52.2649 53.104 52.7674 54.061 53.1363C57.379 54.4003 60.7991 53.5917 63.4269 51.5348C63.7642 53.3091 64.329 55.0519 65.4507 56.4886C65.7567 56.8812 66.1097 57.2187 66.4783 57.5249C66.4548 57.5799 66.4391 57.6348 66.4234 57.6976C65.8665 60.2099 64.6192 62.5887 63.3642 64.834C62.1797 65.1873 60.9952 65.5092 59.7951 65.7761C58.7047 66.0195 57.9203 66.0587 56.8221 65.8625C55.4494 65.6191 54.0923 65.2972 52.7431 64.9596C52.1313 63.9312 51.5351 62.887 50.9625 61.835C50.2094 60.4454 49.4956 59.0323 48.9622 57.5485C49.3231 57.1952 49.6447 56.8027 49.927 56.3316C50.7664 54.9185 51.1194 53.2777 51.3704 51.6447L51.3782 51.6525ZM45.5343 43.0245C45.5422 42.9774 45.5578 42.9303 45.5735 42.8832C45.5971 42.844 45.6206 42.7969 45.652 42.7576C45.6755 42.7262 45.7069 42.7026 45.7304 42.6791C45.7696 42.6555 45.8167 42.6241 45.8559 42.6006C45.903 42.5849 45.95 42.5692 45.9971 42.5613C46.0442 42.5613 46.0991 42.5613 46.1461 42.5613C46.1932 42.5692 46.2403 42.5849 46.2874 42.6006C46.3266 42.6241 46.3736 42.6477 46.4129 42.6791C46.4442 42.7026 46.4677 42.734 46.4913 42.7576C46.5148 42.7969 46.5462 42.844 46.5698 42.8832C46.5854 42.946 46.609 43.001 46.6168 43.0638C46.6168 43.0716 46.6168 43.0873 46.6168 43.0952C46.6168 43.103 46.6168 43.1187 46.6168 43.1266C46.6011 43.1894 46.5854 43.2443 46.5698 43.3072C46.5462 43.3464 46.5227 43.3935 46.4913 43.4328C46.4677 43.4642 46.4364 43.4877 46.4129 43.5113C46.3736 43.5348 46.3266 43.5662 46.2874 43.5898C46.2403 43.6055 46.1932 43.6212 46.1461 43.629C46.0991 43.629 46.0442 43.629 45.9971 43.629C45.95 43.6212 45.903 43.6055 45.8559 43.5898C45.8167 43.5662 45.7696 43.5427 45.7304 43.5113C45.699 43.4877 45.6755 43.4563 45.652 43.4328C45.6285 43.3935 45.5971 43.3464 45.5735 43.3072C45.5578 43.26 45.5422 43.2129 45.5343 43.1658C45.5343 43.1187 45.5343 43.0638 45.5343 43.0167V43.0245ZM44.9852 45.2385C44.9852 45.2385 44.9931 45.2384 45.0009 45.2463C45.5108 45.4818 46.0207 45.5446 46.5776 45.4426C46.7266 45.419 46.8757 45.3641 47.0247 45.3013C47.5032 47.1148 48.4602 48.7949 49.7388 50.1766C49.4878 52.0686 49.2446 54.2433 48.0758 55.8135C47.5424 56.5357 46.8129 57.0146 46.0128 57.3915C44.8205 57.9489 43.5968 58.4278 42.3809 58.9302C42.2633 58.9773 42.1378 59.0323 42.0201 59.0872C43.5419 54.6044 44.4518 49.9411 44.9931 45.2385H44.9852ZM34.4975 67.3227C34.4975 67.3227 34.5054 67.2992 34.5132 67.2913C34.5681 67.1735 34.6152 67.0636 34.6779 66.9459C34.8976 66.5141 35.1486 66.0901 35.431 65.6976C36.184 64.6377 37.1959 63.7585 38.2706 63.0362C39.0236 62.5337 39.8159 62.1019 40.6317 61.7094C40.7494 61.678 40.8592 61.6309 40.9611 61.5524C42.2868 60.9322 43.6517 60.3983 44.9931 59.8331C45.3147 59.6996 45.6206 59.5661 45.9344 59.4248C46.7737 62.5102 47.464 65.6426 48.1857 68.7594C48.0837 68.5867 47.9817 68.414 47.8797 68.2413C47.5816 67.731 47.2835 67.2285 46.9855 66.7182C46.9541 66.4984 46.8443 66.2864 46.6796 66.1451C46.4835 65.8468 46.1383 65.6426 45.7069 65.7054C41.9652 66.2629 38.2235 66.8124 34.4818 67.3698C34.4818 67.3541 34.4975 67.3384 34.5054 67.3227H34.4975ZM43.5262 67.8801C43.8086 67.8409 44.091 67.7938 44.3812 67.7545C44.0517 68.257 43.7223 68.7673 43.3929 69.2697C39.9571 69.3247 36.5292 69.3718 33.0934 69.4267C36.5684 68.9086 40.0512 68.3983 43.5262 67.8801ZM22.2684 71.4444C28.4888 71.3502 34.7172 71.256 40.9376 71.1618C41.0945 71.1618 41.2592 71.1618 41.424 71.1618C41.9495 71.1539 42.4751 71.146 43.0007 71.1382C44.2714 73.2344 45.5343 75.3227 46.8051 77.4188C46.6246 77.5601 46.4599 77.7172 46.3501 77.8977C46.0363 78.4002 45.9265 78.989 45.7304 79.5385C45.652 79.7662 45.55 79.9782 45.448 80.1902C43.7145 77.6151 41.9809 75.0322 40.2473 72.4571C40.0591 72.1824 39.7139 71.9625 39.3688 71.9939C39.3139 71.9939 39.2589 72.0096 39.204 72.0332C34.5446 73.7132 29.9087 75.464 25.2727 77.2147C24.2765 75.2913 23.2725 73.3757 22.2762 71.4522L22.2684 71.4444ZM22.8253 81.1715C22.6214 80.8889 22.4096 80.6062 22.2057 80.3315C26.6063 78.6671 31.0147 77.0106 35.431 75.3776C36.6468 74.9223 37.8705 74.4748 39.0864 74.0351C40.8435 76.6416 42.5927 79.2481 44.3498 81.8545C43.8086 82.5218 43.2281 83.1656 42.8438 83.9428C42.7653 84.0999 42.7104 84.2569 42.6555 84.4139C42.2476 85.5601 42.3417 86.7848 42.5378 87.9938C42.3966 88.0095 42.2554 88.0488 42.1299 88.1194C42.0044 88.1194 41.8632 88.1587 41.7299 88.2215C38.5922 89.7838 35.4545 91.3461 32.3169 92.9006C32.2149 92.9477 32.1129 93.0026 32.0109 93.0497C31.9168 93.0968 31.8148 93.144 31.7207 93.1911C28.7556 89.1872 25.7983 85.1754 22.8332 81.1715H22.8253ZM36.5684 103.57C36.0821 103.782 35.5879 103.978 35.0858 104.135C33.9876 104.465 32.7012 104.74 31.6187 104.221C29.7596 103.334 28.7163 100.963 28.3476 99.0556C27.9162 96.7789 28.379 94.4629 28.6614 92.1626C28.7791 92.3196 28.8889 92.4688 29.0066 92.6258C29.3988 93.1597 29.7989 93.6935 30.1911 94.2274C29.995 94.879 30.7323 95.7426 31.5559 95.3343C34.7956 93.7249 38.0353 92.1155 41.2749 90.5061C41.3534 90.4668 41.4318 90.4276 41.5102 90.3883C41.6122 90.5846 41.777 90.7495 41.9652 90.828C42.2005 91.5424 42.5457 92.2254 42.8673 92.8456C43.636 94.3137 44.6087 95.8132 45.8795 96.9045C46.1462 97.14 46.4286 97.3363 46.7266 97.509C44.193 99.2126 41.6593 100.924 38.9766 102.376C38.4118 102.683 37.8313 102.989 37.243 103.271C36.9841 103.271 36.741 103.358 36.5763 103.57H36.5684ZM37.0861 109.599C37.4234 108.037 37.7529 106.467 38.0902 104.904C38.7099 104.606 39.3139 104.284 39.9022 103.962C40.9611 103.389 41.9887 102.769 43.0085 102.141C42.6084 102.714 42.828 103.68 43.6987 103.585C45.5029 103.389 47.3071 103.193 49.1113 102.997C48.8759 104.308 49.6604 104.889 50.8291 105.061C50.8056 105.171 50.7978 105.289 50.8134 105.415C50.9076 106.074 51.0409 106.632 50.7272 107.268C50.3036 108.123 49.3545 108.579 48.4445 108.689C47.8248 108.759 47.1973 108.791 46.5776 108.838C43.7929 109.065 41.0004 109.285 38.2157 109.513C37.8391 109.544 37.4705 109.576 37.0939 109.599H37.0861ZM49.6525 216.017C49.1819 217.343 48.3818 218.27 47.1659 218.992C46.4207 219.432 45.6206 219.746 44.7734 219.911C44.1459 220.028 43.2203 220.162 42.6398 219.84C42.3809 219.699 42.177 219.447 41.9809 219.228C41.6828 218.898 41.2828 218.474 41.071 218.183C40.9925 218.074 40.9219 217.893 40.867 217.697C40.7886 217.398 40.7494 217.1 40.7337 216.794C40.6788 215.828 40.7572 214.863 40.8984 213.905C41.1494 214.172 41.4004 214.431 41.6671 214.651C42.7339 215.506 43.9812 215.962 45.3539 215.97C45.3696 215.97 45.3853 215.97 45.401 215.97C47.0953 216.127 48.7504 215.616 50.1231 214.666C49.9663 215.122 49.8094 215.577 49.6525 216.024V216.017ZM54.5551 178.215C54.0139 181.826 53.4805 185.438 52.9627 189.049C52.5156 192.189 52.0607 195.322 51.6606 198.47C51.5665 199.192 51.4724 199.915 51.4175 200.637C51.1978 203.824 50.7115 207.098 50.8997 210.301C50.9154 210.568 50.9468 210.835 50.9625 211.086C49.9192 212.876 47.7464 214.454 45.5814 214.148C45.5029 214.132 45.4245 214.117 45.3382 214.117C43.5027 214.109 42.3888 212.923 41.3612 211.62C41.6514 210.27 42.2947 208.668 42.7496 207.334C43.3929 205.449 44.091 203.557 44.5146 201.61C44.8676 199.977 44.6636 198.235 44.6009 196.586C44.3812 190.305 44.091 184.025 43.8007 177.744C43.7772 177.202 43.7537 176.653 43.7302 176.103C46.3266 176.072 48.923 176.04 51.5194 176.009C52.6333 175.993 53.7472 175.978 54.8689 175.97C54.7591 176.716 54.6571 177.469 54.5473 178.215H54.5551ZM57.4104 217.351C57.2928 217.351 57.183 217.336 57.0653 217.328C57.0653 217.328 57.0339 217.328 57.0104 217.328C56.9868 217.328 56.9633 217.328 56.9555 217.328C56.7044 217.288 56.4613 217.233 56.2181 217.171C56.1161 217.147 56.022 217.116 55.92 217.092C55.8886 217.092 55.8573 217.076 55.8259 217.069C55.8337 217.069 55.8416 217.069 55.8495 217.084C55.8416 217.084 55.8337 217.076 55.8259 217.069C55.7867 217.061 55.7631 217.037 55.771 217.037C55.7553 217.037 55.7396 217.014 55.7239 216.998C55.7161 216.99 55.7161 216.998 55.7082 216.99C55.6768 216.912 55.6141 216.794 55.669 216.959C55.669 216.943 55.6376 216.864 55.6219 216.81C55.6219 216.786 55.6219 216.762 55.6219 216.747C55.6219 216.613 55.6141 216.488 55.6062 216.354C55.6062 216.299 55.6062 216.236 55.6062 216.181C56.3436 216.59 57.1516 216.904 57.834 217.383C57.7007 217.383 57.5673 217.383 57.4339 217.383L57.4104 217.351ZM70.8005 217.179C71.2319 217.469 71.6712 217.744 72.0713 218.074C72.4948 218.427 73.0439 219.235 72.9577 219.832C72.8557 220.523 71.3103 220.515 70.7299 220.531C67.1686 220.601 63.7721 219.094 60.8148 217.226C59.4891 216.386 58.3047 215.428 56.8927 214.729C56.5083 214.541 55.9985 214.344 55.7239 213.991C55.3396 213.489 55.5043 212.735 55.6376 212.178C55.6926 211.926 55.7631 211.667 55.8337 211.416C56.8456 211.926 57.7399 212.68 58.6027 213.402C59.7637 214.368 60.8932 215.373 62.0856 216.299C62.9876 216.998 63.9525 217.783 65.1134 217.964C67.0667 218.27 69.0199 217.987 70.8005 217.179ZM65.788 194.859C64.9958 198.973 64.3055 203.055 64.7369 207.255C64.933 209.179 65.4743 210.882 66.5646 212.484C67.3333 213.614 68.2511 214.8 69.2473 215.82C67.9138 216.291 66.345 216.503 65.0899 216.064C64.2663 215.773 63.3092 214.941 62.5719 214.337C61.4815 213.442 60.4304 212.507 59.3322 211.62C58.4301 210.89 57.4889 210.105 56.4142 209.642C56.83 208.511 57.2928 207.396 57.6536 206.25C58.3047 204.209 58.438 202.113 58.5714 199.985C59.0734 191.985 58.642 183.923 59.2146 175.923C62.2346 175.883 65.2468 175.844 68.2668 175.813C68.5962 175.813 68.9179 175.805 69.2473 175.797C68.1177 182.156 66.996 188.515 65.7802 194.859H65.788ZM75.7815 136.457C74.9971 147.024 73.7342 157.568 72.2046 168.048C71.9222 170.011 71.6241 171.966 71.3103 173.921C68.0864 173.96 64.8702 173.999 61.6463 174.038C56.0691 174.109 50.484 174.18 44.9068 174.243C43.8949 174.258 42.883 174.266 41.8711 174.282C41.0631 168.739 40.3964 163.165 39.8081 157.583C38.6942 147.087 37.9882 136.59 38.2314 126.039C38.349 121.101 38.7334 116.186 39.2197 111.271C40.2081 111.193 41.1886 111.114 42.177 111.036C42.3495 111.02 42.53 111.004 42.7026 110.997C44.1302 110.879 45.5578 110.769 46.9855 110.651C47.9425 110.573 48.97 110.573 49.8721 110.227C51.0566 109.78 52.0607 108.924 52.5157 107.723C52.8451 106.844 52.7196 105.98 52.5941 105.085C52.7118 105.077 52.8294 105.061 52.9392 105.054C52.8608 105.485 52.9078 105.925 53.1588 106.31C53.6766 107.111 54.6963 107.111 55.5435 107.04C57.4261 106.875 59.3009 106.482 61.1443 106.066C61.4816 105.988 61.8189 105.909 62.1483 105.831C62.0934 106.318 62.0699 106.804 62.1875 107.299C62.4542 108.359 63.2465 109.277 64.2192 109.764C65.1448 110.227 66.1645 110.274 67.1764 110.376C69.1218 110.581 71.0672 110.777 73.0125 110.981C73.3498 111.012 73.6871 111.052 74.0244 111.083C74.0244 111.13 74.0245 111.169 74.0323 111.224C74.7697 115.684 75.2246 120.198 75.5619 124.704C75.86 128.622 76.0718 132.539 75.7737 136.465L75.7815 136.457ZM66.0704 108.414C65.435 108.327 64.7997 108.084 64.3761 107.582C63.8035 106.899 63.9446 106.216 64.0623 105.423C64.0623 105.399 64.0623 105.375 64.0623 105.352C64.533 105.218 65.0036 105.077 65.4664 104.92C65.4742 105.462 65.9214 106.027 66.6117 105.854C69.9141 105.006 73.2793 104.606 76.6287 104.033C76.8954 105.886 77.1621 107.746 77.4288 109.599C73.6401 109.23 69.8356 108.924 66.0704 108.422V108.414ZM84.316 99.8956C83.4453 100.602 82.2844 100.877 81.2254 101.152C76.7228 102.322 72.0869 102.714 67.553 103.719C67.3333 100.532 66.5803 97.4619 66.3371 94.3294C69.263 93.3245 72.1889 92.3196 75.1148 91.3147C76.2287 90.93 75.7502 89.1479 74.6206 89.5326C71.4045 90.6396 68.1962 91.7387 64.9801 92.8456C64.6506 92.9555 64.4623 93.1989 64.3839 93.458C63.1524 92.3589 61.9679 91.1891 60.7991 90.0272C60.9246 89.8231 61.0266 89.6189 61.105 89.3991H67.0745C67.5765 89.3991 68.0001 88.9752 68.0001 88.4727V79.1774C68.0001 78.6749 67.5765 78.251 67.0745 78.251H66.2116C67.2941 72.6927 68.3688 67.1343 69.4513 61.5681C69.5846 60.8851 69.718 60.2021 69.8513 59.5269C70.3534 59.786 70.8475 60.045 71.3182 60.3277C71.7339 60.571 72.134 60.838 72.5419 61.097C72.5968 61.1441 72.6517 61.1755 72.7223 61.2069C73.4126 61.6466 74.0872 62.1019 74.754 62.573C75.8992 63.3816 77.1464 64.1981 78.1348 65.203C79.6174 66.7103 80.0095 69.0813 80.5116 71.044C81.2254 73.8389 81.6412 76.7437 82.1981 79.5778C82.7864 82.5611 83.3747 85.5444 83.963 88.5277C84.2454 89.9644 84.5278 91.4011 84.8102 92.8378C85.0612 94.1253 85.3985 95.4285 85.4535 96.7396C85.5005 97.9094 85.2887 99.1027 84.3317 99.8799L84.316 99.8956Z" fill="var(--fill-0, #323232)"/>
<path id="Vector_72" d="M55.8206 217.053C55.7892 217.029 55.7657 217.021 55.7578 217.021C55.7735 217.029 55.797 217.045 55.8127 217.053H55.8206Z" fill="var(--fill-0, #323232)"/>
<path id="Vector_73" d="M52.1309 164.751C55.9197 155.236 59.1593 145.516 61.8342 135.624C62.5873 132.837 63.2933 130.035 63.96 127.216C64.2346 126.062 62.4539 125.567 62.1794 126.722C59.8261 136.684 56.9159 146.513 53.4331 156.146C52.4526 158.863 51.425 161.563 50.3582 164.248C49.9189 165.355 51.6995 165.834 52.1388 164.743L52.1309 164.751Z" fill="var(--fill-0, #323232)"/>
<path id="Vector_74" d="M59.0625 88.3394C59.0391 88.3472 59.0234 88.355 59 88.3628C59 88.3628 59.0235 88.3628 59.0703 88.3394H59.0625Z" fill="var(--fill-0, #323232)"/>
<path id="Vector_75" d="M57.9156 85.8899C57.8529 85.8977 57.8293 85.9056 57.9156 85.8899Z" fill="var(--fill-0, #323232)"/>
<path id="Vector_76" d="M75.862 73.5799C75.4305 73.4542 74.7952 73.729 74.7246 74.2236C74.05 79.0048 73.5244 83.8016 72.8498 88.5749C72.7792 89.0695 72.9753 89.5641 73.4931 89.7132C73.9245 89.8388 74.5598 89.5641 74.6304 89.0695C75.305 84.2883 75.8306 79.4915 76.5052 74.7182C76.5758 74.2236 76.3797 73.729 75.862 73.5799Z" fill="var(--fill-0, #323232)"/>
<path id="Vector_77" d="M77.8413 87.0124C77.2138 87.1851 76.5862 87.35 75.9587 87.5227C75.8724 87.5463 75.7783 87.5698 75.692 87.5934C75.4724 87.6562 75.2606 87.821 75.1429 88.0173C75.0253 88.2136 74.9782 88.5041 75.0488 88.7317C75.2057 89.2106 75.6842 89.509 76.1862 89.3755C76.8138 89.2028 77.4413 89.0379 78.0688 88.8652C78.1551 88.8416 78.2492 88.8181 78.3355 88.7945C78.5552 88.7317 78.767 88.5669 78.8846 88.3706C79.0023 88.1743 79.0493 87.8838 78.9787 87.6562C78.8219 87.1773 78.3434 86.8789 77.8413 87.0124Z" fill="var(--fill-0, #323232)"/>
<path id="Vector_78" d="M42.9979 71.1302C42.4723 71.138 41.9468 71.1459 41.4212 71.1537C41.2565 71.1537 41.0996 71.1537 40.9349 71.1537C34.7144 71.2479 28.4861 71.3421 22.2656 71.4364C23.2618 73.3598 24.2659 75.2754 25.2621 77.1988C29.898 75.4481 34.534 73.6974 39.1934 72.0173C39.2483 72.0016 39.3033 71.9859 39.3582 71.9781C39.7033 71.9388 40.0563 72.1586 40.2367 72.4413C41.9703 75.0163 43.7039 77.5992 45.4374 80.1743C45.5394 79.9623 45.6414 79.7503 45.7198 79.5227C45.9159 78.9731 46.0179 78.3843 46.3395 77.8819C46.4571 77.7013 46.614 77.5443 46.7944 77.403C45.5237 75.3068 44.2608 73.2185 42.99 71.1223L42.9979 71.1302Z" fill="var(--fill-0, #E4D8F3)"/>
</g>
</g>
</g>
</g>
</svg>
