<svg preserveAspectRatio="none" width="100%" height="100%" overflow="visible" style="display: block;" viewBox="0 0 107 107" fill="none" xmlns="http://www.w3.org/2000/svg">
<g id="Group">
<circle id="Ellipse" cx="53.5" cy="53.5" r="53.5" fill="var(--fill-0, #F6F5F9)"/>
<g id="Mask Group">
<mask id="mask0_0_120" style="mask-type:alpha" maskUnits="userSpaceOnUse" x="0" y="0" width="107" height="107">
<circle id="Ellipse_2" cx="53.5" cy="53.5" r="53.5" fill="var(--fill-0, #FBFAF5)"/>
</mask>
<g mask="url(#mask0_0_120)">
<g id="Group_2">
<path id="Vector" d="M28.1841 13.703C18.6618 13.703 12.0781 21.0364 12.0781 29.6132C12.0781 39.2107 18.8008 45.8224 28.1841 45.8224C37.5675 45.8224 44.2901 39.1515 44.2901 29.6132C44.2901 20.9772 37.6724 13.703 28.1841 13.703Z" fill="var(--fill-0, #CCB0EC)"/>
<path id="Vector_2" d="M28.1895 13.3199C24.6012 13.3255 21.0328 14.3885 18.1537 16.5454C15.4448 18.5867 13.4478 21.4231 12.4437 24.6514C11.4055 27.984 11.4594 31.6831 12.4636 35.0186C13.3826 38.1369 15.2604 40.8887 17.836 42.8905C20.5024 44.9318 23.7928 45.9976 27.1343 46.178C30.5523 46.3613 34.081 45.7015 37.0565 43.976C39.7882 42.3802 41.9354 39.9611 43.192 37.0711C44.5564 33.8879 44.9989 30.389 44.4713 26.969C43.9551 23.6307 42.4063 20.5349 40.0378 18.113C37.5813 15.6488 34.3902 14.0417 30.9381 13.5285C30.0275 13.3904 29.1085 13.3227 28.1895 13.3199C27.6931 13.3199 27.6902 14.0896 28.1895 14.0896C31.6302 14.0952 35.0142 15.1103 37.7827 17.1657C40.3526 19.097 42.2446 21.784 43.1892 24.8459C44.1706 28.0065 44.1338 31.4886 43.2374 34.6689C42.4148 37.5871 40.7724 40.2233 38.3982 42.1349C35.9503 44.1029 32.8386 45.1546 29.707 45.3858C26.4166 45.6311 23.0439 45.0756 20.1393 43.4798C17.4446 41.9911 15.2973 39.6876 14.0038 36.9048C13.3202 35.4246 12.8635 33.8513 12.6451 32.2357C12.4011 30.561 12.404 28.858 12.6508 27.1832C13.133 23.9916 14.6052 21.0255 16.8574 18.6994C19.2061 16.3283 22.2667 14.7804 25.577 14.2842C26.4421 14.1545 27.3158 14.0896 28.1895 14.0924C28.6858 14.0924 28.6887 13.3227 28.1895 13.3227V13.3199Z" fill="var(--fill-0, #211715)"/>
<path id="Vector_3" d="M28.1895 16.7459C20.4712 16.7459 15.1328 22.6893 15.1328 29.6422C15.1328 37.4211 20.5847 42.7809 28.1895 42.7809C35.7943 42.7809 41.2462 37.3732 41.2462 29.6422C41.2462 22.6386 35.8823 16.7459 28.1895 16.7459Z" fill="var(--fill-0, white)"/>
<path id="Vector_4" d="M28.1911 16.3622C25.2666 16.3678 22.3534 17.2306 20.0076 18.9928C17.8092 20.6506 16.1867 22.9485 15.367 25.5678C14.5387 28.3111 14.533 31.2349 15.3556 33.9811C16.0931 36.5355 17.6192 38.7911 19.7182 40.4348C21.8939 42.1096 24.5716 42.9893 27.3032 43.1415C30.083 43.2966 32.9536 42.7637 35.3789 41.3709C37.6113 40.0768 39.3699 38.1116 40.4025 35.7573C41.5286 33.1493 41.8945 30.2791 41.4605 27.4766C41.0407 24.7642 39.7812 22.2521 37.8581 20.2813C35.8583 18.271 33.26 16.9571 30.449 16.537C29.7001 16.4242 28.9456 16.365 28.1882 16.365C27.6918 16.365 27.689 17.1319 28.1882 17.1347C30.9709 17.115 33.6826 17.9834 35.9292 19.6187C37.9914 21.1694 39.5118 23.3263 40.272 25.7849C41.069 28.3337 41.0407 31.1419 40.323 33.7076C39.682 36.0788 38.3147 38.1905 36.4086 39.7497C34.4372 41.3343 31.924 42.1773 29.4023 42.3605C26.7501 42.5551 24.0327 42.1068 21.6925 40.8183C19.514 39.6116 17.7809 37.7479 16.7427 35.4951C15.6336 33.0535 15.262 30.344 15.6676 27.6965C16.0562 25.1195 17.2419 22.7257 19.0602 20.848C20.9578 18.9364 23.4285 17.6873 26.1033 17.2898C26.7955 17.1855 27.4933 17.1347 28.1911 17.1375C28.6875 17.1375 28.6903 16.3678 28.1911 16.3706V16.3622Z" fill="var(--fill-0, #211715)"/>
<path id="Vector_5" d="M27.7969 39.5834C27.7969 39.8146 27.7969 40.0458 27.7969 40.277C27.7969 40.3785 27.8394 40.4772 27.9103 40.5505C28.0607 40.6999 28.3046 40.6999 28.4578 40.5505C28.5287 40.4772 28.5684 40.3813 28.5713 40.277C28.5713 40.0458 28.5713 39.8146 28.5713 39.5834C28.5713 39.4819 28.5287 39.3832 28.4578 39.3099C28.3075 39.1605 28.0635 39.1605 27.9103 39.3099C27.8394 39.3832 27.7997 39.4791 27.7969 39.5834Z" fill="var(--fill-0, #211715)"/>
<path id="Vector_6" d="M22.9039 38.0744C22.7876 38.2746 22.6684 38.4748 22.5521 38.675C22.5011 38.7652 22.4869 38.8723 22.5124 38.971C22.5408 39.0669 22.6032 39.1486 22.6883 39.1994C22.779 39.2501 22.8868 39.2642 22.9861 39.2388C23.0826 39.2107 23.1648 39.1486 23.2159 39.064C23.3322 38.8639 23.4513 38.6637 23.5676 38.4635C23.6187 38.3733 23.6328 38.2661 23.6073 38.1674C23.5506 37.9616 23.3378 37.8432 23.1308 37.8996C23.0343 37.9278 22.9521 37.9898 22.901 38.0744H22.9039Z" fill="var(--fill-0, #211715)"/>
<path id="Vector_7" d="M32.7865 38.4611C32.9028 38.6612 33.0219 38.8614 33.1382 39.0616C33.1893 39.1462 33.2715 39.211 33.368 39.2364C33.4673 39.2618 33.5751 39.2477 33.6658 39.1969C33.7538 39.1462 33.8162 39.0644 33.8417 38.9686C33.8672 38.8699 33.853 38.7627 33.802 38.6725C33.6857 38.4723 33.5665 38.2722 33.4502 38.072C33.3992 37.9874 33.3169 37.9225 33.2205 37.8972C33.1212 37.8718 33.0134 37.8859 32.9226 37.9366C32.8347 37.9874 32.7723 38.0692 32.7468 38.165C32.7213 38.2637 32.7354 38.3708 32.7865 38.4611Z" fill="var(--fill-0, #211715)"/>
<path id="Vector_8" d="M36.5398 35.0046C36.7412 35.1202 36.9426 35.2386 37.144 35.3542C37.2348 35.405 37.3426 35.4191 37.4419 35.3937C37.6489 35.3373 37.7681 35.1259 37.7113 34.92C37.683 34.8242 37.6206 34.7424 37.5355 34.6917C37.3341 34.5761 37.1327 34.4576 36.9313 34.3421C36.8405 34.2913 36.7327 34.2772 36.6334 34.3026C36.537 34.3308 36.4547 34.3928 36.4037 34.4774C36.3526 34.5676 36.3384 34.6747 36.364 34.7734C36.3923 34.8693 36.4547 34.9511 36.5398 35.0018V35.0046Z" fill="var(--fill-0, #211715)"/>
<path id="Vector_9" d="M19.4331 34.3422C19.2317 34.4578 19.0303 34.5762 18.8289 34.6918C18.7438 34.7425 18.6786 34.8243 18.653 34.9201C18.6275 35.0188 18.6417 35.126 18.6927 35.2162C18.7438 35.3036 18.8261 35.3656 18.9225 35.391C19.0218 35.4164 19.1296 35.4023 19.2203 35.3515C19.4217 35.2359 19.6231 35.1175 19.8245 35.0019C20.0089 34.8948 20.0713 34.6608 19.9635 34.4775C19.9125 34.3901 19.8302 34.3281 19.7338 34.3027C19.6345 34.2773 19.5267 34.2914 19.4359 34.3422H19.4331Z" fill="var(--fill-0, #211715)"/>
<path id="Vector_10" d="M28.2015 30.1521H32.6606C33.157 30.1521 33.1598 29.3824 32.6606 29.3824H28.2015C27.7051 29.3824 27.7023 30.1521 28.2015 30.1521Z" fill="var(--fill-0, #211715)"/>
<path id="Vector_11" d="M38.7576 29.3765C38.525 29.3765 38.2924 29.3765 38.0598 29.3765C37.9577 29.3765 37.8584 29.4188 37.7846 29.4893C37.6343 29.6387 37.6343 29.8812 37.7846 30.0335C37.8584 30.104 37.9548 30.1434 38.0598 30.1462C38.2924 30.1462 38.525 30.1462 38.7576 30.1462C38.8597 30.1462 38.959 30.104 39.0327 30.0335C39.1831 29.884 39.1831 29.6416 39.0327 29.4893C38.959 29.4188 38.8625 29.3794 38.7576 29.3765Z" fill="var(--fill-0, #211715)"/>
<path id="Vector_12" d="M18.3044 29.3765C18.0718 29.3765 17.8392 29.3765 17.6067 29.3765C17.5045 29.3765 17.4053 29.4188 17.3315 29.4893C17.1812 29.6387 17.1812 29.8812 17.3315 30.0335C17.4053 30.104 17.5017 30.1434 17.6067 30.1462C17.8392 30.1462 18.0718 30.1462 18.3044 30.1462C18.4066 30.1462 18.5058 30.104 18.5796 30.0335C18.7299 29.884 18.7299 29.6416 18.5796 29.4893C18.5058 29.4188 18.4094 29.3794 18.3044 29.3765Z" fill="var(--fill-0, #211715)"/>
<path id="Vector_13" d="M37.144 24.1749C36.9426 24.2905 36.7412 24.4089 36.5398 24.5245C36.4547 24.5752 36.3895 24.657 36.364 24.7528C36.3384 24.8515 36.3526 24.9587 36.4037 25.0489C36.4547 25.1363 36.537 25.1983 36.6334 25.2237C36.7327 25.2491 36.8405 25.235 36.9313 25.1842C37.1327 25.0686 37.3341 24.9502 37.5355 24.8346C37.6206 24.7839 37.6858 24.7021 37.7113 24.6062C37.7369 24.5076 37.7227 24.4004 37.6716 24.3102C37.6206 24.2228 37.5383 24.1608 37.4419 24.1354C37.3426 24.11 37.2348 24.1241 37.144 24.1749Z" fill="var(--fill-0, #211715)"/>
<path id="Vector_14" d="M18.8306 24.8375C19.032 24.9531 19.2334 25.0715 19.4348 25.1871C19.5256 25.2379 19.6334 25.252 19.7326 25.2266C19.9397 25.1702 20.0588 24.9587 20.0021 24.7529C19.9737 24.657 19.9113 24.5753 19.8262 24.5245C19.6248 24.4089 19.4235 24.2905 19.2221 24.1749C19.1313 24.1242 19.0235 24.1101 18.9242 24.1354C18.7171 24.1918 18.598 24.4033 18.6547 24.6091C18.6831 24.705 18.7455 24.7867 18.8306 24.8375Z" fill="var(--fill-0, #211715)"/>
<path id="Vector_15" d="M27.8125 23.0473V29.7605C27.8125 30.2539 28.5869 30.2567 28.5869 29.7605C28.584 27.9278 28.584 26.0952 28.5869 24.2625V23.0501C28.5869 22.5567 27.8125 22.5539 27.8125 23.0501V23.0473Z" fill="var(--fill-0, #211715)"/>
<path id="Vector_16" d="M33.1382 20.4643C33.0219 20.6645 32.9028 20.8647 32.7865 21.0648C32.7354 21.1551 32.7213 21.2622 32.7468 21.3609C32.8035 21.5667 33.0163 21.6851 33.2233 21.6287C33.3198 21.6005 33.402 21.5385 33.4531 21.4539C33.5694 21.2538 33.6885 21.0536 33.8048 20.8534C33.8559 20.7632 33.8701 20.656 33.8445 20.5573C33.7878 20.3515 33.5751 20.2331 33.368 20.2895C33.2715 20.3177 33.1893 20.3797 33.1382 20.4643Z" fill="var(--fill-0, #211715)"/>
<path id="Vector_17" d="M22.5521 20.8507C22.6684 21.0509 22.7876 21.2511 22.9039 21.4512C23.0116 21.6345 23.2471 21.6965 23.4315 21.5894C23.5194 21.5386 23.5818 21.4569 23.6073 21.361C23.6328 21.2623 23.6187 21.1552 23.5676 21.065C23.4513 20.8648 23.3322 20.6646 23.2159 20.4644C23.1081 20.2812 22.8726 20.2191 22.6883 20.3263C22.6003 20.377 22.5379 20.4588 22.5124 20.5547C22.4869 20.6533 22.5011 20.7605 22.5521 20.8507Z" fill="var(--fill-0, #211715)"/>
<path id="Vector_18" d="M27.7969 19.2494C27.7969 19.4806 27.7969 19.7118 27.7969 19.943C27.7969 20.0445 27.8394 20.1432 27.9103 20.2165C28.0607 20.3659 28.3046 20.3659 28.4578 20.2165C28.5287 20.1432 28.5684 20.0473 28.5713 19.943C28.5713 19.7118 28.5713 19.4806 28.5713 19.2494C28.5713 19.1479 28.5287 19.0492 28.4578 18.9759C28.3075 18.8265 28.0635 18.8265 27.9103 18.9759C27.8394 19.0492 27.7997 19.1451 27.7969 19.2494Z" fill="var(--fill-0, #211715)"/>
</g>
<g id="Group_3">
<path id="Vector_19" d="M62.5958 243.463C62.5958 243.524 62.5958 243.595 62.5958 243.657C62.5958 243.807 62.5958 243.949 62.6135 244.099C62.6135 244.117 62.6135 244.143 62.6135 244.17C62.6312 244.223 62.6577 244.311 62.6665 244.338C62.6047 244.152 62.6665 244.285 62.7107 244.373C62.7107 244.373 62.7107 244.373 62.7284 244.382C62.746 244.4 62.7725 244.417 62.7814 244.426C62.7814 244.426 62.8078 244.435 62.852 244.462C62.8873 244.471 62.9227 244.479 62.958 244.488C63.0729 244.515 63.1789 244.541 63.2938 244.577C63.5676 244.647 63.8415 244.709 64.1243 244.753C64.1243 244.753 64.1596 244.753 64.1861 244.753C64.2126 244.753 64.2391 244.753 64.248 244.753C64.3805 244.762 64.5042 244.78 64.6367 244.78C64.7869 244.78 64.9371 244.78 65.0873 244.78C64.3187 244.241 63.4086 243.887 62.5781 243.427L62.5958 243.463Z" fill="var(--fill-0, white)"/>
<path id="Vector_20" d="M49.2697 198.357C49.2962 198.976 49.3227 199.586 49.3492 200.205C49.6761 207.279 50.0031 214.353 50.2504 221.427C50.3123 223.293 50.5508 225.247 50.1532 227.086C49.6761 229.279 48.881 231.41 48.1653 233.532C47.6529 235.027 46.9373 236.839 46.6016 238.36C47.759 239.828 49.0135 241.154 51.0809 241.172C51.1781 241.172 51.2665 241.19 51.3548 241.208C53.7933 241.552 56.2406 239.775 57.4156 237.759C57.398 237.467 57.3626 237.175 57.345 236.875C57.1329 233.267 57.6719 229.58 57.9281 225.99C57.9811 225.176 58.096 224.363 58.202 223.549C58.6526 220.003 59.1561 216.475 59.6686 212.938C60.2517 208.871 60.8437 204.803 61.4621 200.736C61.5858 199.896 61.7095 199.055 61.8243 198.207C60.5698 198.224 59.3152 198.242 58.0517 198.251C55.1273 198.286 52.203 198.322 49.2786 198.357H49.2697Z" fill="var(--fill-0, white)"/>
<path id="Vector_21" d="M56.4548 241.773C54.9086 242.843 53.0445 243.418 51.1361 243.241C51.1184 243.241 51.1008 243.241 51.0831 243.241C49.537 243.232 48.1322 242.719 46.9306 241.756C46.6302 241.517 46.3386 241.216 46.0647 240.916C45.9057 241.994 45.8174 243.091 45.8792 244.17C45.8969 244.515 45.9411 244.851 46.0294 245.187C46.0913 245.408 46.1708 245.611 46.2591 245.735C46.4977 246.062 46.9571 246.539 47.284 246.911C47.5049 247.158 47.7346 247.441 48.0261 247.601C48.6799 247.963 49.7224 247.822 50.4293 247.68C51.3834 247.494 52.2847 247.141 53.124 246.646C54.4934 245.823 55.4034 244.78 55.9247 243.294C56.1014 242.79 56.2869 242.286 56.4548 241.765V241.773Z" fill="var(--fill-0, white)"/>
<path id="Vector_22" d="M76.8966 198.021C73.4951 198.065 70.1025 198.11 66.701 198.145C66.056 207.155 66.5331 216.237 65.9765 225.247C65.8263 227.643 65.6761 230.004 64.9428 232.303C64.5276 233.594 64.0151 234.85 63.5469 236.123C64.7573 236.645 65.8175 237.529 66.8335 238.352C68.0704 239.351 69.2543 240.403 70.4824 241.411C71.3129 242.092 72.3908 243.038 73.3184 243.356C74.732 243.852 76.499 243.613 78.001 243.082C76.8789 241.933 75.8453 240.598 74.9794 239.324C73.7514 237.512 73.1417 235.602 72.9208 233.435C72.4349 228.704 73.2124 224.106 74.1048 219.473C75.4742 212.328 76.7376 205.166 78.0098 198.003C77.6388 198.003 77.2765 198.012 76.9055 198.021H76.8966Z" fill="var(--fill-0, white)"/>
<path id="Vector_23" d="M81.1699 245.62C80.7193 245.24 80.2245 244.939 79.7386 244.612C77.7331 245.523 75.5243 245.841 73.3332 245.496C72.0344 245.293 70.9389 244.409 69.9228 243.622C68.5799 242.578 67.3077 241.446 66.0001 240.359C65.0282 239.554 64.021 238.705 62.8813 238.122C62.8018 238.405 62.7223 238.688 62.6605 238.979C62.5191 239.607 62.3247 240.456 62.7576 241.022C63.058 241.42 63.6411 241.641 64.074 241.853C65.6643 242.64 66.9984 243.719 68.4916 244.665C71.8224 246.77 75.6568 248.467 79.6591 248.388C80.3129 248.379 82.0622 248.388 82.1682 247.601C82.2654 246.938 81.647 246.027 81.1699 245.62Z" fill="var(--fill-0, white)"/>
<path id="Vector_24" d="M62.9174 244.488C62.9174 244.488 62.8996 244.479 62.8906 244.47C62.8996 244.47 62.9085 244.479 62.9174 244.488Z" fill="var(--fill-0, #78C8E6)"/>
<path id="Vector_25" d="M62.876 244.47C62.8584 244.461 62.8319 244.444 62.8142 244.435C62.8054 244.435 62.8319 244.461 62.876 244.47Z" fill="var(--fill-0, #78C8E6)"/>
<path id="Vector_26" d="M73.7286 118.165C73.2074 118.342 72.6773 118.501 72.1472 118.651C72.1472 118.678 72.1472 118.704 72.1472 118.731C72.0235 119.624 71.8557 120.402 72.5006 121.163C72.9777 121.728 73.6933 122.011 74.409 122.1C78.6498 122.666 82.9348 123.002 87.2021 123.426C86.9017 121.339 86.6013 119.244 86.301 117.157C82.5372 117.802 78.7381 118.253 75.0186 119.208C74.2411 119.412 73.7375 118.775 73.7286 118.156V118.165Z" fill="var(--fill-0, white)"/>
<path id="Vector_27" d="M43.0379 123.346C46.1743 123.09 49.3196 122.842 52.4561 122.586C53.154 122.533 53.8608 122.497 54.5588 122.418C55.5837 122.294 56.6527 121.79 57.1298 120.817C57.4832 120.11 57.3241 119.473 57.227 118.73C57.2093 118.589 57.2181 118.456 57.2446 118.332C55.9282 118.129 55.0535 117.484 55.3098 116.007C53.2777 116.228 51.2457 116.449 49.2136 116.67C48.2418 116.776 47.9944 115.689 48.4361 115.043C47.2876 115.759 46.1302 116.458 44.9374 117.095C44.2748 117.448 43.5945 117.811 42.8965 118.156C42.5166 119.915 42.1455 121.684 41.7656 123.443C42.1897 123.408 42.605 123.373 43.0291 123.346H43.0379Z" fill="var(--fill-0, white)"/>
<path id="Vector_28" d="M54.977 112.814C55.1178 112.753 54.8803 112.63 54.977 112.814Z" fill="var(--fill-0, white)"/>
<path id="Vector_29" d="M44.013 83.3785C42.6348 83.8737 41.2653 84.3777 39.8959 84.8906C34.9217 86.7298 29.9653 88.6044 25 90.4702C25.2297 90.7885 25.4682 91.1069 25.6979 91.4163C29.0376 95.926 32.3684 100.444 35.7081 104.954C35.8141 104.901 35.9289 104.848 36.035 104.795C36.1498 104.742 36.2647 104.68 36.3795 104.627C39.9136 102.867 43.4476 101.108 46.9816 99.3569C47.1406 99.2773 47.2908 99.2419 47.4322 99.2419C47.5736 99.1623 47.7325 99.1181 47.8916 99.1004C47.6707 97.7387 47.5647 96.3593 48.0241 95.0683C48.086 94.8914 48.1478 94.7146 48.2362 94.5377C48.6691 93.6712 49.3229 92.9372 49.9325 92.1856C47.9534 89.2499 45.9832 86.3142 44.0042 83.3785H44.013Z" fill="var(--fill-0, white)"/>
<path id="Vector_30" d="M66.6741 99.5335C66.6299 99.4893 66.5769 99.4893 66.5239 99.4893C66.4709 99.5158 66.4444 99.5158 66.4444 99.5158C65.2781 99.958 64.4565 98.4371 65.499 97.6766C65.2958 97.8269 65.5609 97.6235 65.6493 97.5086C65.7376 97.3936 65.8436 97.2522 65.8348 97.1019C65.8171 96.7216 65.7023 96.8454 65.4814 96.7393C65.4372 96.7128 65.3047 96.7305 65.2251 96.7393C65.1545 96.7481 65.1279 96.757 65.2251 96.7393C65.2251 96.7393 65.234 96.7393 65.2428 96.7393C64.4742 96.8808 63.7497 96.2795 63.9617 95.4572C64.0501 95.13 64.2091 94.679 64.1561 94.3607C64.0854 93.9716 63.6525 93.4322 63.1931 93.6887C62.1947 94.2546 61.002 92.8221 61.9297 92.0528C62.1947 91.8317 63.1931 90.9829 62.5128 90.6115C62.3361 90.5142 61.6823 90.921 61.4791 91.0359C60.2864 91.6991 59.3145 92.6452 58.2808 93.5295C57.1853 94.4668 55.9042 95.13 54.6585 95.8374C53.9163 96.2618 52.8207 95.5456 53.13 94.6613C53.3597 94.007 53.5983 93.3526 53.8898 92.7248C54.252 91.9467 54.8617 91.2393 54.9942 90.3639C55.0472 89.9837 55.0118 89.6653 54.8616 89.3205C54.7821 89.1259 54.6761 88.9403 54.5701 88.7546C54.5524 88.728 54.5524 88.7192 54.5436 88.7015C54.3669 88.7192 54.146 88.7457 54.1107 88.7634C53.9517 88.843 53.9251 88.8783 53.828 89.064C53.6071 89.4973 53.5275 90.0456 53.3508 90.4965C52.9621 91.4869 52.4143 92.3446 51.7694 93.1846C51.1244 94.007 50.3027 94.8117 49.9317 95.802C49.4723 97.0223 49.8964 98.5962 50.1172 99.843C50.2056 100.338 50.0466 100.718 49.6402 101.019C49.4811 101.134 49.3309 101.249 49.1719 101.364C49.2514 101.62 49.3309 101.868 49.4281 102.116C49.4635 102.213 49.5076 102.319 49.5518 102.416C49.5694 102.443 49.649 102.646 49.6666 102.673C49.7815 102.92 49.8964 103.168 50.0289 103.415C50.2763 103.893 50.5413 104.362 50.824 104.821C51.4248 105.785 51.9019 106.457 52.697 107.253C52.7766 107.333 52.8561 107.403 52.9356 107.474C53.0151 107.545 53.0858 107.624 53.1653 107.695C53.1918 107.713 53.3332 107.828 53.3597 107.845C53.4215 107.89 53.4922 107.943 53.5629 107.987C53.5894 108.005 53.6071 108.013 53.6336 108.031C53.6954 108.067 53.7573 108.102 53.8191 108.137C53.8545 108.111 53.8898 108.075 53.934 108.049C56.876 106.201 59.9948 104.653 63.0164 102.947C64.2179 102.275 65.6757 101.647 66.5504 100.542C66.6741 100.382 66.8862 100.144 66.9303 99.9226C66.8862 99.958 66.7713 99.6308 66.6829 99.5424L66.6741 99.5335Z" fill="var(--fill-0, white)"/>
<path id="Vector_31" d="M41.9358 116.308C42.5985 115.989 43.2523 115.644 43.8884 115.3C46.9188 113.664 49.7726 111.736 52.6174 109.817C52.2817 109.623 51.9725 109.393 51.6632 109.136C50.2408 107.907 49.1364 106.218 48.2706 104.565C47.9083 103.875 47.5196 103.097 47.2546 102.292C47.0337 102.204 46.857 102.018 46.7421 101.797C46.6538 101.841 46.5654 101.886 46.4771 101.93C42.8282 103.743 39.1793 105.555 35.5304 107.368C34.6028 107.828 33.7723 106.864 33.9931 106.121C33.5514 105.52 33.1008 104.919 32.659 104.317C32.5265 104.14 32.4028 103.972 32.2703 103.796C31.9522 106.386 31.431 109.004 31.9169 111.559C32.3233 113.717 33.5072 116.387 35.6011 117.378C36.8204 117.961 38.2693 117.652 39.5062 117.28C40.0716 117.103 40.6283 116.882 41.176 116.644C41.3616 116.396 41.6354 116.299 41.927 116.308H41.9358Z" fill="var(--fill-0, white)"/>
<path id="Vector_32" d="M49.2093 114.583L51.6036 114.318C52.169 114.256 52.7257 114.194 53.2911 114.132C52.9465 113.434 52.8493 112.638 53.0967 111.992C51.7891 112.868 50.4815 113.743 49.1562 114.592C49.1739 114.592 49.1916 114.583 49.2181 114.583H49.2093Z" fill="var(--fill-0, white)"/>
<path id="Vector_33" d="M64.5278 106.351C64.5278 106.351 64.5011 106.36 64.4922 106.369C64.5189 106.423 64.5456 106.414 64.5278 106.351Z" fill="var(--fill-0, white)"/>
<path id="Vector_34" d="M64.6712 90.2311C64.8303 90.7616 64.7949 91.3187 64.6094 91.8493C65.0776 92.0703 65.484 92.424 65.7579 92.8838C66.1378 93.5116 66.2438 94.1395 66.1997 94.7938C66.9418 95.006 67.5603 95.5189 67.8077 96.3766C67.9579 96.8806 67.9313 97.367 67.79 97.8268C68.0904 98.0213 68.3466 98.2954 68.5498 98.6226H74.4958V90.2311H64.6624H64.6712Z" fill="var(--fill-0, white)"/>
<path id="Vector_35" d="M37.2734 78.1966C41.1432 78.1347 45.0041 78.0816 48.8739 78.0197C49.2449 77.4538 49.616 76.879 49.987 76.3131C49.669 76.3573 49.3509 76.4104 49.024 76.4546C45.1101 77.0382 41.1874 77.613 37.2734 78.1966Z" fill="var(--fill-0, white)"/>
<path id="Vector_36" d="M55.2552 72.0951C55.6881 72.21 56.1299 72.325 56.5716 72.4399C55.6616 70.8837 54.7958 69.292 54.0625 67.6562C54.4424 69.124 54.8046 70.6007 55.1492 72.0862C55.1845 72.0862 55.2199 72.0862 55.2552 72.1039V72.0951Z" fill="var(--fill-0, white)"/>
<path id="Vector_37" d="M95.5128 104.583C95.1947 102.965 94.8767 101.346 94.5586 99.7282C93.896 96.3681 93.2334 93.008 92.5707 89.6478C91.9434 86.4557 91.4752 83.184 90.6712 80.0361C90.1058 77.8166 89.664 75.1462 87.9942 73.4573C86.881 72.3254 85.4762 71.4058 84.1863 70.495C83.4353 69.9645 82.6667 69.4516 81.898 68.9565C81.8273 68.9211 81.7566 68.8769 81.6948 68.8327C81.2354 68.5409 80.7848 68.2491 80.3165 67.9661C79.7864 67.6478 79.221 67.356 78.6644 67.0642C78.5142 67.8335 78.364 68.6028 78.2138 69.3632C76.9945 75.6237 75.7841 81.8841 74.5649 88.1535H75.5368C76.1022 88.1535 76.5793 88.631 76.5793 89.1969V99.6663C76.5793 100.232 76.1022 100.71 75.5368 100.71H68.8133C68.7338 100.949 68.6101 101.187 68.4688 101.417C69.794 102.735 71.1193 104.043 72.5064 105.281C72.5947 104.981 72.8067 104.715 73.1778 104.592C76.8002 103.345 80.4137 102.107 84.0361 100.86C85.3083 100.427 85.8473 102.434 84.5927 102.867C81.2972 103.999 78.0018 105.131 74.7063 106.263C74.9802 109.791 75.8283 113.248 76.0757 116.838C81.1824 115.698 86.4039 115.264 91.4752 113.947C92.6679 113.637 93.9755 113.319 94.9562 112.532C96.0341 111.657 96.2726 110.322 96.2196 108.995C96.1578 107.51 95.7867 106.051 95.4951 104.6L95.5128 104.583ZM82.7903 101.046C82.1984 100.878 81.9863 100.33 82.0658 99.7636C82.8257 94.3785 83.4176 88.9758 84.1774 83.5996C84.2569 83.0425 84.9726 82.733 85.4585 82.8745C86.0505 83.0425 86.2625 83.5907 86.183 84.1567C85.4232 89.5417 84.8312 94.9445 84.0714 100.321C83.9919 100.878 83.2763 101.187 82.7903 101.046ZM88.8512 99.5337C88.7187 99.7548 88.4801 99.9405 88.2327 100.011C88.1356 100.038 88.0295 100.064 87.9323 100.091C87.2255 100.285 86.5188 100.471 85.8119 100.666C85.2465 100.816 84.7076 100.48 84.5309 99.9405C84.4513 99.6929 84.5043 99.3657 84.6369 99.1358C84.7694 98.9147 85.008 98.729 85.2553 98.6583C85.3525 98.6318 85.4585 98.6053 85.5557 98.5787C86.2625 98.3842 86.9693 98.1985 87.6761 98.004C88.2416 97.8536 88.7805 98.1897 88.9572 98.729C89.0367 98.9766 88.9837 99.3038 88.8512 99.5337Z" fill="var(--fill-0, white)"/>
<path id="Vector_38" d="M65.4566 103.972C66.3843 105.14 67.1618 106.554 65.4654 107.112C64.8912 107.297 64.3522 107.589 63.778 107.757C63.3274 107.89 62.8414 107.872 62.4173 107.916C61.684 107.996 60.9242 108.279 60.2086 108.456C59.6343 108.597 59.0512 108.756 58.4769 108.889C57.5316 109.101 55.7822 109.172 55.2168 110.109C55.1285 110.251 55.1638 110.401 55.155 110.534C55.3317 110.551 55.5613 110.604 55.738 110.622C57.9998 110.171 60.2704 109.755 62.5322 109.322C63.8309 109.075 64.3787 110.94 63.0888 111.329C61.7017 111.745 60.2881 112.09 58.8657 112.355C57.938 112.532 56.7364 112.797 55.6409 112.762C55.5614 112.78 55.4819 112.797 55.3935 112.806C55.2787 112.833 55.1461 112.868 55.0312 112.877C55.1373 113.027 55.1285 113.239 55.2698 113.399C55.4995 113.655 55.579 113.628 55.9236 113.602C56.436 113.567 56.9396 113.505 57.452 113.434C58.097 113.195 58.7685 113.045 59.4399 112.912C60.7652 112.656 62.1169 112.479 63.4599 112.382C64.6349 112.293 64.8735 114.194 63.7337 114.424C62.1699 114.743 60.6062 115.034 59.0247 115.291C58.6713 115.344 58.2737 115.432 57.8585 115.503C57.7525 115.547 57.6199 115.6 57.5404 115.671C57.3991 115.76 57.4079 115.76 57.5757 115.68C57.5669 115.76 57.5493 115.839 57.5404 115.919C57.4963 116.025 57.4521 116.14 57.4079 116.246C57.4432 116.255 57.4786 116.264 57.5316 116.264C57.9292 116.246 58.3356 116.308 58.742 116.29C59.546 116.255 60.35 116.122 61.1363 115.954C61.3572 115.91 61.5868 115.848 61.8077 115.795C62.5322 115.503 63.345 115.335 64.0342 115.185C65.3417 114.902 65.8542 116.768 64.5908 117.192C64.1402 117.342 63.3185 117.59 62.3467 117.829C62.1612 117.935 62.0021 118.05 61.9049 118.191C61.8519 118.271 61.8166 118.403 61.7724 118.518C61.9314 118.483 62.1611 118.51 62.329 118.501C63.0446 118.456 63.7603 118.342 64.4671 118.227C67.524 117.723 70.687 117.086 73.6114 116.025C73.6644 116.007 73.7174 115.998 73.7616 115.989L72.9222 108.836L72.7985 107.784C72.5158 107.828 72.2154 107.766 71.9504 107.536C70.2452 106.086 68.6549 104.503 67.0646 102.929C67.0116 102.973 66.9586 103.009 66.9056 103.053C66.4461 103.38 65.9602 103.69 65.4743 103.981L65.4566 103.972Z" fill="var(--fill-0, white)"/>
<g id="Vector_39">
</g>
<path id="Vector_40" d="M73.939 115.963C73.7092 113.575 73.2498 111.223 72.9141 108.827L73.7534 115.98C73.8152 115.963 73.8771 115.963 73.939 115.963Z" fill="var(--fill-0, #78C8E6)"/>
<path id="Vector_41" d="M64.4885 106.368C64.4885 106.368 64.515 106.359 64.5238 106.351C64.5238 106.315 64.4973 106.271 64.4531 106.227C64.4531 106.298 64.4708 106.342 64.4885 106.368Z" fill="var(--fill-0, #78C8E6)"/>
<path id="Vector_42" d="M63.5581 105.644C63.6906 105.591 63.8143 105.537 63.9468 105.484C63.8585 105.369 63.7789 105.246 63.6906 105.14C63.6641 105.104 63.6376 105.069 63.6111 105.033C63.0633 105.325 62.5243 105.617 61.9766 105.909C62.5243 105.82 63.028 105.865 63.5669 105.652L63.5581 105.644Z" fill="var(--fill-0, #78C8E6)"/>
<path id="Vector_43" d="M66.4531 99.5246C66.4531 99.5246 66.4973 99.507 66.5238 99.4981C66.4796 99.4981 66.4531 99.5246 66.4531 99.5246Z" fill="var(--fill-0, white)"/>
<path id="Vector_44" d="M66.5673 99.4808C66.5673 99.4808 66.5403 99.4808 66.5312 99.4989C66.5403 99.4989 66.5493 99.4989 66.5583 99.4808H66.5673Z" fill="var(--fill-0, white)"/>
<path id="Vector_45" d="M52.5676 74.5092C52.7532 74.6684 52.8768 74.9071 52.9122 75.1547C53.2479 75.7295 53.5836 76.2954 53.9194 76.8702C54.0342 77.0647 54.1491 77.2593 54.264 77.4538C53.4511 73.9433 52.6825 70.4152 51.7283 66.9401C51.3749 67.0904 51.0215 67.2496 50.6681 67.3999C49.1573 68.0365 47.6111 68.629 46.1269 69.3364C46.012 69.416 45.8883 69.4779 45.7558 69.5132C44.837 69.9554 43.9446 70.4417 43.0964 71.0076C41.8772 71.8211 40.7463 72.8115 39.8982 74.0052C39.5801 74.4473 39.2974 74.9248 39.05 75.4112C38.9882 75.535 38.9263 75.6676 38.8645 75.8002C38.8645 75.8091 38.8556 75.8268 38.8468 75.8356C38.8468 75.8533 38.8291 75.871 38.8203 75.8887C43.0346 75.2608 47.2489 74.6419 51.4633 74.0141C51.958 73.9433 52.3379 74.1732 52.5588 74.5092H52.5676Z" fill="var(--fill-0, white)"/>
<path id="Vector_46" d="M50.4453 79.4168C50.7457 79.912 51.0461 80.4072 51.3465 80.9024L54.7833 86.5792C55.0042 86.5969 55.2162 86.6323 55.4106 86.703C56.2676 87.0213 56.8596 88.4008 57.0451 89.2231C57.1335 89.621 57.1423 90.0189 57.0981 90.408C57.2925 90.7263 57.4868 91.0447 57.6812 91.363C58.1936 90.912 58.7149 90.4611 59.2539 90.0366C56.7624 85.8099 54.2797 81.5744 51.7883 77.3477C51.3377 78.0374 50.8959 78.7271 50.4453 79.4168Z" fill="var(--fill-0, #E4D8F3)"/>
<path id="Vector_47" d="M67.0581 76.2691C65.6622 76.5255 64.4341 76.3752 63.047 76.1099C62.3491 75.9773 61.6511 75.827 60.9531 75.6766C62.4197 77.9934 63.9571 80.2747 65.5474 82.503C65.6269 82.3881 65.7064 82.2731 65.7771 82.1582C67.2084 80.0094 68.5866 77.8254 69.8942 75.5971C68.9577 75.8535 68.0123 76.0922 67.0581 76.2691Z" fill="var(--fill-0, #E4D8F3)"/>
<path id="Vector_48" d="M61.925 88.153H64.178V84.1296C63.9394 83.7936 63.7009 83.4576 63.4623 83.1216C61.607 80.46 59.8135 77.7542 58.1171 74.9865C57.3043 74.7831 56.4915 74.5709 55.6875 74.3499C56.3855 77.4005 57.0746 80.4512 57.9051 83.4665C57.9228 83.546 57.9404 83.6168 57.9404 83.6964C58.8151 85.1819 59.6809 86.6586 60.5556 88.1441H61.9162L61.925 88.153Z" fill="var(--fill-0, #E4D8F3)"/>
<path id="Vector_49" d="M76.7929 63.6775C78.1004 64.5175 79.5759 65.1277 80.9277 65.9147C79.9911 60.954 78.18 56.1791 77.2788 51.2185C76.8812 51.2538 76.5013 51.2185 76.1214 51.1035C75.6266 52.7305 74.858 54.2691 73.8243 55.6309C73.6388 55.8785 73.4444 56.1084 73.25 56.3383C73.6387 59.0264 74.3632 62.1124 76.7929 63.6863V63.6775Z" fill="var(--fill-0, white)"/>
<path id="Vector_50" d="M56.2429 63.4473C55.9249 63.969 55.5627 64.42 55.1562 64.8179C55.757 66.4891 56.561 68.0896 57.4092 69.6459C58.0541 70.8308 58.7168 71.998 59.4147 73.1652C60.9344 73.5366 62.4628 73.8991 64.009 74.1821C65.2371 74.4031 66.1205 74.3678 67.3574 74.0848C68.7092 73.7842 70.0433 73.4128 71.3774 73.0237C72.7998 70.4859 74.2046 67.8155 74.8231 64.9859C74.8407 64.9152 74.8584 64.8533 74.8849 64.7914C74.4608 64.4465 74.0721 64.0663 73.7275 63.6242C72.4641 62.006 71.8191 60.043 71.4481 58.0446C68.4883 60.3613 64.6363 61.2721 60.899 59.8484C59.8212 59.4417 58.8051 58.8669 57.8775 58.1772C57.6036 60.0164 57.206 61.8645 56.2518 63.4561L56.2429 63.4473Z" fill="var(--fill-0, white)"/>
<path id="Vector_51" d="M72.8233 74.7303C70.9061 78.2231 68.7238 81.5921 66.462 84.8372C66.4002 84.9345 66.3207 85.0053 66.25 85.076V88.1532H72.5317C72.5052 88.0294 72.5052 87.8967 72.5317 87.7464C72.7084 86.8533 72.8763 85.9602 73.053 85.0672C73.7686 81.371 74.4931 77.6748 75.2087 73.9699C74.4136 74.2263 73.6184 74.4827 72.8233 74.7215V74.7303Z" fill="var(--fill-0, #E4D8F3)"/>
<path id="Vector_52" d="M74.966 70.5299C74.7098 71.0693 74.4536 71.5999 74.1797 72.1393C74.6126 71.9978 75.0455 71.8563 75.4785 71.7148C75.5403 71.6972 75.5933 71.6883 75.6463 71.6795C76.0086 69.8314 76.3619 67.9922 76.7242 66.1441C76.7242 66.1176 76.7419 66.091 76.7507 66.0645C76.733 66.0557 76.7065 66.038 76.6889 66.0291C76.2913 67.5854 75.6463 69.0886 74.966 70.5388V70.5299Z" fill="var(--fill-0, white)"/>
<path id="Vector_53" d="M77.5775 41.5093C77.1887 41.244 76.473 41.5535 76.102 41.7392C76.0225 41.7834 75.943 41.8099 75.8635 41.8276C75.8105 41.8541 75.7663 41.8983 75.6956 41.916C75.2008 42.0487 74.5029 41.748 74.4145 41.1909C74.1848 39.6966 73.8579 38.1403 73.372 36.6194C70.4476 36.6017 67.5674 35.576 65.1024 34.0462C62.929 32.6933 60.8351 30.8629 59.6335 28.5551C59.607 28.5816 59.5804 28.6081 59.5451 28.6435C59.6246 28.8292 59.6423 29.0502 59.5716 29.3067C58.3789 33.4184 57.2657 37.9458 54.0939 41.0318C53.9172 41.6861 53.0072 42.1901 52.3092 41.5977C52.0972 41.4208 51.5583 41.3059 51.2844 41.3855C51.0547 41.4562 51.037 41.5269 50.9221 41.7834C50.604 42.5173 50.6129 43.4104 50.6747 44.1885C50.7278 44.8694 50.8868 45.4707 51.1695 45.957C51.6908 45.8155 52.2474 45.8244 52.7422 46.0101C53.5638 46.3196 54.1823 46.9651 54.4385 47.7697C54.5533 47.9377 54.624 48.1323 54.6328 48.3533C54.6947 50.7054 55.6842 52.9956 57.2127 54.773C59.9162 57.912 64.3867 59.5744 68.2918 57.6556C71.4548 56.0993 73.7077 52.8895 74.4145 49.441C74.2996 49.1049 74.2378 48.7424 74.2732 48.4064C74.335 47.7874 74.5471 47.2657 74.9358 46.7882C75.5189 46.0808 76.5438 45.736 77.4538 45.9128C77.8602 45.3823 78.0546 44.6484 78.1341 44.0205C78.2224 43.3308 78.2401 41.9868 77.5686 41.527L77.5775 41.5093ZM64.855 46.7352C66.1979 46.7352 66.1891 48.8132 64.855 48.8132C63.5209 48.8132 63.5209 46.7352 64.855 46.7352ZM57.6721 39.2544C57.4335 39.1307 57.2745 38.8831 57.195 38.6355C57.1155 38.3879 57.1685 38.0607 57.301 37.8308C57.4512 37.5744 57.6633 37.4594 57.9195 37.3533C58.4319 37.1411 58.9443 37.0173 59.4921 36.9466C60.1459 36.867 60.7997 36.9466 61.4447 37.0527C61.7097 37.0969 61.9306 37.3179 62.0631 37.5302C62.2133 37.7689 62.231 38.0695 62.1691 38.3348C62.1161 38.5824 61.9041 38.83 61.692 38.9538C61.4358 39.1041 61.1796 39.1041 60.8881 39.0599C60.8704 39.0599 60.8439 39.0599 60.8262 39.0511C60.4198 38.998 60.0045 38.9892 59.5981 39.0245C59.2094 39.0953 58.8295 39.2102 58.4584 39.3606C58.211 39.4667 57.8842 39.3782 57.6545 39.2544H57.6721ZM60.2077 42.42C58.8648 42.42 58.8736 40.3421 60.2077 40.3421C61.5418 40.3421 61.5418 42.42 60.2077 42.42ZM68.1151 52.0583C66.4099 53.9153 63.1763 53.9683 61.4181 52.1644C61.0117 51.7488 61.0294 51.1122 61.4181 50.6966C61.798 50.2898 62.5049 50.3075 62.8848 50.6966C62.9643 50.7762 63.0438 50.8469 63.1233 50.9176C63.1675 50.9442 63.2028 50.9707 63.247 50.9972C63.3353 51.0591 63.4325 51.1122 63.5297 51.1564C63.5297 51.1564 63.5562 51.1652 63.5739 51.1741C63.5739 51.1741 63.6358 51.1741 63.6623 51.2183C63.8566 51.289 64.0598 51.3421 64.263 51.3863C64.2984 51.3863 64.3337 51.3863 64.3514 51.3951C64.369 51.3951 64.3867 51.3951 64.3955 51.3951C64.5104 51.404 64.6164 51.4128 64.7313 51.4128C64.8373 51.4128 64.9433 51.4128 65.0582 51.3951C65.0582 51.3951 65.0582 51.3951 65.067 51.3951C65.12 51.3863 65.1996 51.3775 65.2172 51.3775C65.2703 51.3686 65.871 51.2271 65.8622 51.1829C65.8622 51.1829 65.6501 51.2802 65.8003 51.2095C65.8622 51.1741 65.924 51.1476 65.9859 51.121C66.0831 51.068 66.1802 51.0061 66.2774 50.9442C66.3127 50.9176 66.4364 50.785 66.3393 50.9C66.2421 51.0149 66.3658 50.8734 66.3923 50.8469C66.4806 50.7673 66.5602 50.6877 66.6397 50.5993C67.0284 50.1749 67.7087 50.2279 68.1063 50.5993C68.5304 50.9884 68.4773 51.6693 68.1063 52.0672L68.1151 52.0583ZM69.352 42.42C68.0091 42.42 68.0179 40.3421 69.352 40.3421C70.6861 40.3421 70.6861 42.42 69.352 42.42ZM72.4266 38.6355C72.3736 38.8831 72.1616 39.1307 71.9495 39.2544C71.7463 39.3782 71.3752 39.4578 71.1455 39.3606C70.7745 39.2014 70.4034 39.0953 70.0058 39.0245C69.5994 38.9892 69.1842 38.998 68.7777 39.0511C68.7601 39.0511 68.7336 39.0511 68.7159 39.0599C68.4243 39.1041 68.177 39.0953 67.9119 38.9538C67.6734 38.83 67.5143 38.5824 67.4348 38.3348C67.3553 38.0872 67.4083 37.7601 67.5409 37.5302C67.6557 37.3268 67.9207 37.088 68.1593 37.0527C68.8042 36.9466 69.458 36.867 70.1118 36.9466C70.6596 37.0173 71.172 37.1411 71.6845 37.3533C71.8612 37.4064 72.0114 37.4948 72.1439 37.6186C72.1969 37.6893 72.2499 37.7601 72.3029 37.8308C72.4531 38.0696 72.4708 38.3702 72.4089 38.6355H72.4266Z" fill="var(--fill-0, white)"/>
<path id="Vector_54" d="M64.3519 51.386C64.3519 51.386 64.3078 51.386 64.2812 51.386C64.3519 51.4037 64.3607 51.3948 64.3519 51.386Z" fill="var(--fill-0, #78C8E6)"/>
<path id="Vector_55" d="M65.1045 51.3864C65.2189 51.3864 65.1397 51.3776 65.0781 51.3864C65.0957 51.3864 65.1045 51.3864 65.1221 51.3864H65.1045Z" fill="var(--fill-0, #78C8E6)"/>
<path id="Vector_56" d="M64.279 51.3775C64.279 51.3775 64.279 51.3775 64.2701 51.3775C64.2611 51.3775 64.2433 51.3775 64.2344 51.3775C64.2433 51.3775 64.27 51.3775 64.2878 51.3775H64.279Z" fill="var(--fill-0, #78C8E6)"/>
<path id="Vector_57" d="M64.2832 51.3773C64.2832 51.3773 64.3272 51.3773 64.3536 51.3773C64.3448 51.3773 64.3096 51.3685 64.2656 51.3685C64.2656 51.3685 64.2656 51.3685 64.2744 51.3685L64.2832 51.3773Z" fill="var(--fill-0, #323232)"/>
<path id="Vector_58" d="M63.6831 51.2183C63.6831 51.2183 63.6831 51.2183 63.6742 51.2094C63.6742 51.2094 63.6652 51.2094 63.6562 51.2094C63.6562 51.2094 63.6831 51.2183 63.6831 51.2273V51.2183Z" fill="var(--fill-0, #78C8E6)"/>
<path id="Vector_59" d="M63.64 51.2008C63.64 51.2008 63.64 51.2008 63.6488 51.2008C63.6311 51.1831 63.6046 51.1742 63.5781 51.1654C63.5781 51.1654 63.5781 51.1831 63.64 51.2008Z" fill="var(--fill-0, #78C8E6)"/>
<path id="Vector_60" d="M63.6661 51.2094C63.6661 51.2094 63.5869 51.1654 63.5781 51.1654C63.6045 51.1742 63.6309 51.1918 63.6485 51.2006C63.6485 51.2006 63.6573 51.2006 63.6661 51.2006V51.2094Z" fill="var(--fill-0, #323232)"/>
<path id="Vector_61" d="M51.8184 64.6409C52.7195 64.2165 53.5412 63.6771 54.142 62.8636C55.4584 61.0951 55.7323 58.6457 56.015 56.5147C54.5749 54.9584 53.497 53.0661 52.9581 51.0235C52.7902 51.0942 52.6224 51.1561 52.4545 51.1827C51.836 51.2976 51.2529 51.2269 50.6786 50.9616C50.6786 50.9616 50.6698 50.9616 50.661 50.9528C50.0513 56.2494 49.0265 61.5018 47.3125 66.5509C47.445 66.489 47.5864 66.4359 47.7189 66.374C49.0884 65.8081 50.4666 65.2687 51.8095 64.6409H51.8184Z" fill="var(--fill-0, white)"/>
<path id="Vector_62" d="M63.6761 51.2185C63.6761 51.2185 63.6585 51.2097 63.6497 51.2008C63.6497 51.2008 63.6497 51.2008 63.6408 51.2008C63.5878 51.1831 63.579 51.1743 63.579 51.1654C63.5613 51.1654 63.5348 51.1478 63.5348 51.1478C63.4376 51.0947 63.3493 51.0505 63.2521 50.9886C63.2079 50.9621 63.1726 50.9355 63.1284 50.909C63.0489 50.8383 62.9694 50.7675 62.8899 50.688C62.51 50.2989 61.7943 50.2812 61.4232 50.688C61.0345 51.1036 61.0168 51.7402 61.4232 52.1558C63.1814 53.9597 66.415 53.9066 68.1202 52.0497C68.4913 51.6518 68.5443 50.9709 68.1202 50.5819C67.7226 50.2105 67.0423 50.1574 66.6536 50.5819C66.5741 50.6703 66.4945 50.7499 66.4062 50.8294C66.3797 50.856 66.256 50.9974 66.3532 50.8825C66.4504 50.7675 66.3355 50.9002 66.2913 50.9267C66.1942 50.9886 66.097 51.0505 65.9998 51.1036C65.9379 51.1389 65.8761 51.1655 65.8143 51.192C65.6641 51.2716 65.8761 51.1654 65.8761 51.1654C65.8761 51.2097 65.2841 51.3511 65.2311 51.36C65.2135 51.36 65.134 51.3688 65.0809 51.3777C65.1428 51.3777 65.2223 51.3777 65.1075 51.3777C65.0898 51.3777 65.0809 51.3777 65.0633 51.3777C65.0633 51.3777 65.0632 51.3777 65.0544 51.3777C64.9484 51.3777 64.8424 51.3954 64.7275 51.3954C64.6127 51.3954 64.5066 51.3954 64.3918 51.3777C64.3829 51.3777 64.3653 51.3777 64.3476 51.3777C64.3565 51.3777 64.3477 51.3777 64.277 51.3777C64.2593 51.3777 64.2416 51.3777 64.224 51.3777C64.2328 51.3777 64.2505 51.3777 64.2593 51.3777C64.0561 51.3335 63.8617 51.2804 63.6585 51.2097C63.6585 51.2097 63.6674 51.2097 63.6674 51.2185H63.6761Z" fill="var(--fill-0, #323232)"/>
<path id="Vector_63" d="M77.5786 48.5123C77.5609 48.4416 77.5433 48.3797 77.5256 48.309C77.4991 48.2648 77.4726 48.2117 77.4372 48.1675C77.4107 48.1321 77.3754 48.1056 77.3489 48.0791C77.3047 48.0525 77.2517 48.0172 77.2075 47.9906C77.1545 47.9729 77.1015 47.9553 77.0485 47.9464C76.9955 47.9464 76.9336 47.9464 76.8806 47.9464C76.8276 47.9553 76.7746 47.9729 76.7216 47.9906C76.6774 48.0172 76.6244 48.0437 76.5803 48.0791C76.5449 48.1056 76.5184 48.141 76.4919 48.1675C76.4654 48.2117 76.43 48.2648 76.4035 48.309C76.3859 48.362 76.3682 48.4151 76.3594 48.4681C76.3594 48.5212 76.3594 48.5831 76.3594 48.6361C76.3682 48.6892 76.3859 48.7422 76.4035 48.7953C76.43 48.8395 76.4565 48.8926 76.4919 48.9368C76.5184 48.9722 76.5537 48.9987 76.5803 49.0252C76.6244 49.0517 76.6774 49.0871 76.7216 49.1136C76.7746 49.1313 76.8276 49.149 76.8806 49.1578C76.9336 49.1578 76.9955 49.1578 77.0485 49.1578C77.1015 49.149 77.1545 49.1313 77.2075 49.1136C77.2517 49.0871 77.3047 49.0606 77.3489 49.0252C77.3842 48.9987 77.4107 48.9633 77.4372 48.9368C77.4637 48.8926 77.4991 48.8395 77.5256 48.7953C77.5433 48.7246 77.5698 48.6627 77.5786 48.5919C77.5786 48.5831 77.5786 48.5654 77.5786 48.5566C77.5786 48.5477 77.5786 48.53 77.5786 48.5212V48.5123Z" fill="var(--fill-0, white)"/>
<path id="Vector_64" d="M52.3591 48.9278C52.3856 48.8836 52.421 48.8306 52.4475 48.7864C52.4652 48.7156 52.4917 48.6537 52.5005 48.583C52.5005 48.5741 52.5005 48.5565 52.5005 48.5476C52.5005 48.5388 52.5005 48.5211 52.5005 48.5122C52.4828 48.4415 52.4652 48.3796 52.4475 48.3089C52.421 48.2647 52.3944 48.2116 52.3591 48.1674C52.3326 48.132 52.2973 48.1055 52.2708 48.079C52.2266 48.0524 52.1736 48.0171 52.1294 47.9905C52.0764 47.9729 52.0234 47.9552 51.9704 47.9463C51.9173 47.9463 51.8555 47.9463 51.8025 47.9463C51.7495 47.9552 51.6965 47.9729 51.6435 47.9905C51.5993 48.0171 51.5463 48.0436 51.5021 48.079C51.4668 48.1055 51.4403 48.1409 51.4138 48.1674C51.3873 48.2116 51.3519 48.2647 51.3254 48.3089C51.3077 48.3619 51.2901 48.415 51.2812 48.468C51.2812 48.5211 51.2812 48.583 51.2812 48.636C51.2901 48.6891 51.3077 48.7422 51.3254 48.7952C51.3519 48.8394 51.3785 48.8925 51.4138 48.9367C51.4403 48.9721 51.4756 48.9986 51.5021 49.0251C51.5463 49.0516 51.5993 49.087 51.6435 49.1135C51.6965 49.1312 51.7495 49.1489 51.8025 49.1578C51.8555 49.1578 51.9173 49.1578 51.9704 49.1578C52.0234 49.1489 52.0764 49.1312 52.1294 49.1135C52.1736 49.087 52.2266 49.0605 52.2708 49.0251C52.3061 48.9986 52.3326 48.9632 52.3591 48.9367V48.9278Z" fill="var(--fill-0, white)"/>
<path id="Vector_65" d="M64.8476 46.735C63.5135 46.735 63.5047 48.813 64.8476 48.813C66.1906 48.813 66.1906 46.735 64.8476 46.735Z" fill="var(--fill-0, #323232)"/>
<path id="Vector_66" d="M69.3509 42.4196C70.685 42.4196 70.6939 40.3417 69.3509 40.3417C68.008 40.3417 68.008 42.4196 69.3509 42.4196Z" fill="var(--fill-0, #323232)"/>
<path id="Vector_67" d="M60.207 40.3417C58.8729 40.3417 58.8641 42.4196 60.207 42.4196C61.5499 42.4196 61.5499 40.3417 60.207 40.3417Z" fill="var(--fill-0, #323232)"/>
<path id="Vector_68" d="M59.529 28.3516C58.937 27.1579 60.7305 26.0968 61.3225 27.2994C62.3562 29.395 64.2027 31.0309 66.164 32.2423C68.0989 33.4449 70.2989 34.3114 72.5783 34.4971C71.5093 32.0831 69.9543 29.9521 67.6484 28.6169C66.491 27.9448 67.5335 26.1498 68.6998 26.8219C73.1703 29.4127 75.3083 34.559 76.2272 39.4843C76.5099 39.4135 76.7926 39.3605 77.0754 39.3428C77.8352 35.6732 77.3846 31.641 75.4055 28.44C73.0024 24.567 68.8499 22.4006 64.3352 22.3653C63.5931 22.3653 63.2662 21.7109 63.3457 21.145C63.0807 21.145 62.8244 21.1804 62.5594 21.2688C62.7184 21.7816 62.5328 22.3564 61.8614 22.4714C57.7973 23.1788 54.6697 26.6627 52.7613 30.1289C51.7453 31.9859 51.0915 33.8605 51.1798 36.0003C51.224 37.0968 51.3919 38.211 51.6746 39.2809C52.0192 39.3074 52.3549 39.3782 52.6818 39.4931C55.5355 36.6635 56.4809 32.481 57.5676 28.7407C57.868 27.7061 59.2197 27.8653 59.5466 28.6346C59.5731 28.608 59.5997 28.5815 59.635 28.5461C59.5997 28.4754 59.5555 28.4135 59.5201 28.3428L59.529 28.3516Z" fill="var(--fill-0, white)"/>
<path id="Vector_69" d="M71.9563 39.2547C72.1683 39.1309 72.3804 38.8833 72.4334 38.6357C72.4952 38.3704 72.4775 38.0698 72.3274 37.831C72.2743 37.7603 72.2213 37.6895 72.1683 37.6188C72.0358 37.4862 71.8856 37.3977 71.7089 37.3535C71.1965 37.1413 70.6841 37.0175 70.1363 36.9468C69.4825 36.8672 68.8287 36.9468 68.1837 37.0529C67.9452 37.0882 67.6801 37.327 67.5653 37.5304C67.4327 37.7514 67.3797 38.0786 67.4592 38.335C67.5388 38.5826 67.6978 38.8302 67.9363 38.954C68.2014 39.0955 68.4488 39.1043 68.7403 39.0601C68.758 39.0601 68.7845 39.0601 68.8022 39.0513C69.2086 38.9982 69.6239 38.9894 70.0303 39.0247C70.419 39.0955 70.7989 39.2104 71.17 39.3608C71.3997 39.458 71.7707 39.3784 71.9739 39.2547H71.9563Z" fill="var(--fill-0, #323232)"/>
<path id="Vector_70" d="M61.4511 37.0528C60.8061 36.9467 60.1523 36.8672 59.4985 36.9467C58.9507 37.0175 58.4383 37.1413 57.9259 37.3535C57.6609 37.4596 57.4576 37.5746 57.3074 37.831C57.1749 38.052 57.1219 38.3792 57.2014 38.6356C57.2809 38.8832 57.44 39.1308 57.6785 39.2546C57.9082 39.3784 58.2263 39.4668 58.4825 39.3607C58.8536 39.2016 59.2246 39.0954 59.6222 39.0247C60.0286 38.9893 60.4439 38.9982 60.8503 39.0512C60.868 39.0512 60.8945 39.0512 60.9122 39.0601C61.1949 39.1043 61.4511 39.1043 61.7161 38.954C61.9282 38.8302 62.1402 38.5826 62.1932 38.335C62.255 38.0697 62.2374 37.7691 62.0872 37.5303C61.9458 37.3181 61.7249 37.0971 61.4687 37.0528H61.4511Z" fill="var(--fill-0, #323232)"/>
<path id="Vector_71" d="M97.5074 104.034C96.1556 97.1724 94.8038 90.3107 93.452 83.4489C92.9043 80.6724 92.4537 77.8251 91.4023 75.1812C90.9252 73.9786 90.3068 72.8114 89.3703 71.9007C88.2129 70.7777 86.7992 69.8227 85.4917 68.8854C84.7495 68.3548 84.0074 67.842 83.2476 67.3468C82.3729 61.4931 80.0493 55.9223 79.1658 50.0774C79.4308 49.6884 79.5987 49.2463 79.6429 48.7688C79.6605 48.698 79.6694 48.6273 79.6694 48.5477C79.6694 47.9906 79.4927 47.4866 79.2011 47.0622C79.8991 46.0806 80.2083 44.7985 80.2613 43.6224C80.3143 42.4199 79.9875 40.9255 79.0686 40.0501C80.0051 35.735 79.5015 30.9689 77.0984 27.2197C74.28 22.825 69.5356 20.3402 64.3406 20.296C63.7486 20.296 63.4129 20.7028 63.351 21.1537C63.5984 21.1537 63.8458 21.2156 64.0844 21.3394C63.837 21.2156 63.5896 21.1626 63.351 21.1537C63.2715 21.7197 63.5984 22.3652 64.3406 22.374C68.8641 22.4094 73.0078 24.5758 75.4109 28.4488C77.3988 31.6498 77.8405 35.6819 77.0807 39.3515C76.798 39.3692 76.5064 39.4134 76.2326 39.493C75.3049 34.5678 73.1756 29.4214 68.7051 26.8306C67.5477 26.1586 66.4963 27.9536 67.6537 28.6256C69.9596 29.9608 71.5146 32.1007 72.5837 34.5059C70.3042 34.3202 68.1043 33.4536 66.1694 32.251C64.208 31.0308 62.3615 29.4038 61.3278 27.3081C60.7359 26.1055 58.9423 27.1578 59.5343 28.3604C59.5696 28.4311 59.6138 28.493 59.6492 28.5637C60.8507 30.8628 62.9446 32.702 65.118 34.0549C67.583 35.5846 70.4633 36.6104 73.3877 36.6281C73.8736 38.1401 74.2005 39.7052 74.4302 41.1996C74.5186 41.7567 75.2165 42.0662 75.7113 41.9247C75.7732 41.907 75.8261 41.8716 75.8791 41.8363C75.9586 41.8186 76.0382 41.7832 76.1177 41.7478C76.4888 41.5533 77.2044 41.2527 77.5931 41.5179C78.2646 41.9778 78.2558 43.313 78.1586 44.0115C78.0791 44.6393 77.8759 45.3733 77.4783 45.9038C76.5683 45.7269 75.5434 46.0718 74.9603 46.7792C74.5627 47.2567 74.3507 47.7784 74.2977 48.3974C74.2623 48.7422 74.3242 49.1048 74.4391 49.4319C73.7323 52.8805 71.4793 56.0903 68.3163 57.6466C64.4112 59.5654 59.9407 57.903 57.2372 54.764C55.7087 52.9866 54.7192 50.7053 54.6574 48.3443C54.6574 48.1233 54.5778 47.9199 54.463 47.7607C54.2068 46.9561 53.5883 46.3106 52.7667 46.0011C52.2719 45.8154 51.7153 45.8065 51.1941 45.948C50.9113 45.4528 50.7523 44.8604 50.6992 44.1795C50.6374 43.4014 50.6286 42.5083 50.9467 41.7744C51.0615 41.5179 51.0703 41.4472 51.3089 41.3765C51.5828 41.2969 52.1306 41.4118 52.3338 41.5887C53.0229 42.1811 53.9329 41.686 54.1185 41.0228C57.2902 37.9367 58.4034 33.4182 59.5961 29.2976C59.6668 29.0412 59.6492 28.8202 59.5697 28.6345C59.2428 27.8652 57.891 27.706 57.5906 28.7406C56.5039 32.4809 55.5497 36.6634 52.7048 39.493C52.3779 39.3781 52.0422 39.3073 51.6976 39.2808C51.4061 38.2109 51.2382 37.0967 51.2029 36.0002C51.1233 33.8604 51.7683 31.9858 52.7844 30.1288C54.6927 26.6626 57.8115 23.1787 61.8844 22.4713C62.5559 22.3563 62.7326 21.7727 62.5824 21.2687C62.4322 20.7824 61.9728 20.3579 61.3278 20.464C56.7601 21.2599 53.1289 25.1771 50.9908 29.0766C49.8688 31.1192 49.0913 33.2591 49.1178 35.6112C49.1355 37.0436 49.3387 38.538 49.7274 39.9263C48.8174 40.8194 48.6054 42.3314 48.6054 43.534C48.6054 44.7897 48.8263 46.231 49.5331 47.3097C49.3652 47.6369 49.2592 47.9906 49.2238 48.3797C49.1973 48.645 49.2238 48.9279 49.2945 49.1932C49.003 49.3524 48.7644 49.6353 48.7202 50.0421C48.0841 56.0726 46.8384 62.0501 44.7091 67.7358C41.3606 69.3982 38.2065 71.6442 36.8724 75.2608C36.7399 75.6233 36.8194 75.924 36.9961 76.145C34.6725 76.4899 32.3401 76.8347 30.0164 77.1796L27.0213 77.6217C26.5442 77.6925 26.3146 78.0019 26.2792 78.3556C25.325 78.3733 24.3709 78.3822 23.4078 78.3999C22.595 78.4087 22.1444 79.2664 22.5066 79.965C23.8407 82.5381 25.1836 85.1113 26.5177 87.6844C26.0495 87.8613 25.5813 88.0382 25.113 88.215C24.4415 88.4714 23.7701 88.719 23.1074 88.9755C22.5508 89.1877 22.0472 89.9127 22.489 90.5052C25.1395 94.0864 27.7812 97.6676 30.4317 101.249C30.3787 104.255 29.5658 107.217 29.7249 110.233C29.8486 112.523 30.5731 114.822 31.9071 116.705C33.2147 118.545 35.0524 119.844 37.3849 119.765C38.4804 119.73 39.5495 119.482 40.592 119.128C40.2209 120.853 39.8587 122.586 39.4876 124.31C39.3551 124.92 39.7791 125.681 40.4859 125.627C41.0249 125.583 41.5727 125.539 42.1116 125.495C41.0426 136.362 40.6362 147.247 41.1928 158.168C41.7494 168.929 42.9156 179.664 44.2938 190.345C44.6119 192.777 44.93 195.209 45.2922 197.632C45.3541 198.074 45.8753 198.401 46.2906 198.392C46.5998 198.392 46.9179 198.392 47.2271 198.383C47.448 202.734 47.5982 207.084 47.7837 211.435C47.9339 215.034 48.093 218.641 48.2078 222.249C48.2432 223.284 48.2785 224.318 48.2873 225.353C48.2873 225.485 48.2873 225.618 48.2873 225.76C48.2873 225.981 48.2873 225.91 48.2873 225.919C48.1371 226.953 47.8102 227.979 47.501 228.978C46.7588 231.392 45.8665 233.762 45.1156 236.176C44.93 236.76 44.7268 237.37 44.5943 237.98C44.5324 238.068 44.4794 238.166 44.4529 238.28C44.0377 240.155 43.7196 242.118 43.7991 244.037C43.8344 244.921 43.9493 245.858 44.3734 246.645C44.6296 247.114 45.036 247.494 45.3806 247.901C45.7163 248.29 46.0432 248.697 46.4408 249.024C48.2432 250.527 51.0969 249.908 53.0494 249.051C54.9666 248.211 56.8396 246.734 57.6259 244.735C58.2709 243.091 58.8806 241.331 59.1986 239.563C59.5962 238.546 59.4283 237.485 59.4106 236.291C59.3841 234.416 59.5166 232.542 59.658 230.676C59.7994 228.792 59.8877 226.891 60.0998 225.008C60.4355 222.046 60.8684 219.128 61.2837 216.165C62.1318 210.17 62.9623 204.175 63.9165 198.198H64.6233C64.0313 206.483 64.4024 214.848 64.0137 223.151C63.8988 225.609 63.8989 228.2 63.2804 230.588C62.6708 232.975 61.5752 235.203 60.8861 237.573C60.6034 238.563 60.356 239.66 60.4796 240.677C60.4531 240.774 60.4355 240.871 60.4355 240.977C60.462 241.879 60.4974 242.79 60.5239 243.692C60.5415 244.284 60.568 244.859 60.8949 245.39C61.5222 246.407 62.6972 246.663 63.7928 246.813C64.959 246.973 66.0987 246.875 67.265 246.787C67.4417 246.769 67.6096 246.716 67.7598 246.637C70.587 248.414 73.6704 249.846 76.9747 250.324C79.2277 250.651 84.3608 250.952 84.2459 247.468C84.1841 245.425 82.6821 244.134 81.136 243.082C80.3673 242.56 79.7842 241.897 79.157 241.207C78.3706 240.35 77.5843 239.474 76.9129 238.519C75.5258 236.547 75.031 234.558 74.8808 232.179C74.7218 229.739 74.8719 227.298 75.2342 224.875C75.9675 219.985 77.0454 215.131 77.9201 210.259C78.6622 206.173 79.3778 202.079 80.1111 197.994C80.4734 197.994 80.8445 197.985 81.2067 197.977C81.6219 197.977 82.1344 197.658 82.2051 197.216C83.3624 190.16 84.3166 183.068 85.1913 175.976C85.9953 169.442 86.6932 162.89 87.2234 156.32C87.4177 153.897 87.6298 151.483 87.6032 149.051C87.5767 146.726 87.4531 144.409 87.294 142.092C86.9141 136.495 86.3575 130.889 85.474 125.353C85.4917 125.353 85.5094 125.353 85.527 125.353C86.4901 125.451 87.4443 125.548 88.4073 125.654C89.1583 125.734 89.494 124.929 89.4056 124.336C89.0434 121.825 88.6811 119.323 88.3189 116.812C89.0257 116.67 89.7325 116.52 90.4393 116.361C93.0015 115.75 96.1644 115.14 97.5604 112.629C99.0093 110.021 98.0375 106.784 97.4985 104.061L97.5074 104.034ZM76.3651 48.4593C76.3739 48.4062 76.3916 48.3532 76.4093 48.3001C76.4358 48.2559 76.4622 48.2028 76.4976 48.1586C76.5241 48.1233 76.5595 48.0967 76.586 48.0702C76.6301 48.0437 76.6831 48.0083 76.7273 47.9818C76.7803 47.9641 76.8333 47.9464 76.8863 47.9376C76.9393 47.9376 77.0012 47.9376 77.0542 47.9376C77.1072 47.9464 77.1602 47.9641 77.2132 47.9818C77.2574 48.0083 77.3104 48.0348 77.3546 48.0702C77.39 48.0967 77.4164 48.1321 77.4429 48.1586C77.4695 48.2028 77.5048 48.2559 77.5313 48.3001C77.549 48.3709 77.5755 48.4327 77.5843 48.5035C77.5843 48.5123 77.5843 48.53 77.5843 48.5389C77.5843 48.5477 77.5843 48.5654 77.5843 48.5742C77.5667 48.645 77.549 48.7069 77.5313 48.7776C77.5048 48.8218 77.4783 48.8749 77.4429 48.9191C77.4164 48.9545 77.3811 48.981 77.3546 49.0075C77.3104 49.034 77.2574 49.0694 77.2132 49.0959C77.1602 49.1136 77.1072 49.1313 77.0542 49.1401C77.0012 49.1401 76.9393 49.1401 76.8863 49.1401C76.8333 49.1313 76.7803 49.1136 76.7273 49.0959C76.6831 49.0694 76.6301 49.0429 76.586 49.0075C76.5506 48.981 76.5241 48.9456 76.4976 48.9191C76.4711 48.8749 76.4358 48.8218 76.4093 48.7776C76.3916 48.7245 76.3739 48.6715 76.3651 48.6184C76.3651 48.5654 76.3651 48.5035 76.3651 48.4504V48.4593ZM73.8206 55.6217C74.8543 54.2599 75.6229 52.7213 76.1177 51.0943C76.4976 51.2181 76.8775 51.2535 77.2751 51.2093C78.1851 56.1699 79.9963 60.9537 80.924 65.9055C79.5722 65.1185 78.0967 64.5083 76.7892 63.6683C74.3507 62.0943 73.635 59.0083 73.2463 56.3202C73.4495 56.0903 73.6351 55.8516 73.8206 55.6128V55.6217ZM64.0225 115.193C63.3334 115.344 62.5206 115.503 61.7961 115.803C61.5752 115.857 61.3455 115.91 61.1246 115.963C60.3295 116.131 59.5343 116.254 58.7303 116.299C58.3239 116.316 57.9263 116.254 57.5199 116.272C57.4669 116.272 57.4227 116.272 57.3962 116.254C57.4404 116.148 57.4846 116.042 57.5288 115.927C57.5376 115.848 57.5553 115.768 57.5641 115.689C57.4051 115.768 57.3874 115.759 57.5288 115.68C57.6083 115.6 57.7408 115.556 57.8468 115.512C58.2621 115.432 58.6508 115.353 59.0131 115.299C60.5857 115.052 62.1583 114.76 63.7221 114.433C64.8619 114.203 64.6233 112.302 63.4483 112.39C62.1053 112.488 60.7535 112.664 59.4283 112.921C58.7568 113.053 58.0853 113.204 57.4404 113.443C56.9368 113.513 56.4244 113.575 55.9119 113.611C55.5674 113.637 55.4879 113.664 55.2582 113.407C55.1168 113.257 55.1256 113.036 55.0196 112.885C55.1345 112.885 55.267 112.832 55.3819 112.815C55.4614 112.797 55.5409 112.779 55.6292 112.771C56.7336 112.806 57.9352 112.541 58.854 112.364C60.2765 112.098 61.6901 111.754 63.0772 111.338C64.3759 110.949 63.8281 109.083 62.5205 109.331C60.2588 109.764 57.9882 110.18 55.7264 110.631C55.5585 110.613 55.32 110.56 55.1433 110.542C55.1521 110.41 55.1256 110.259 55.2052 110.118C55.7618 109.18 57.5199 109.101 58.4653 108.898C59.0484 108.765 59.6226 108.606 60.1969 108.464C60.9126 108.287 61.6724 108.004 62.4057 107.925C62.8298 107.881 63.3157 107.898 63.7663 107.766C64.3406 107.598 64.8795 107.306 65.4538 107.12C67.1413 106.563 66.3638 105.148 65.4449 103.981C65.9309 103.689 66.4168 103.38 66.8763 103.053C66.9293 103.017 66.9823 102.973 67.0353 102.929C68.6256 104.503 70.2159 106.094 71.921 107.536C72.1861 107.766 72.4953 107.828 72.7692 107.783L72.8929 108.836C73.2287 111.232 73.6881 113.584 73.9178 115.971C73.8559 115.971 73.7941 115.972 73.7322 115.989C73.6792 115.998 73.635 116.007 73.582 116.025C70.6576 117.077 67.4947 117.713 64.4378 118.226C63.731 118.341 63.0153 118.456 62.2997 118.5C62.1318 118.509 61.9021 118.483 61.7431 118.518C61.7872 118.403 61.8226 118.262 61.8756 118.191C61.9728 118.049 62.1318 117.935 62.3174 117.828C63.2892 117.599 64.1108 117.342 64.5614 117.192C65.8337 116.767 65.3213 114.902 64.0049 115.185L64.0225 115.193ZM53.288 114.141C52.7225 114.203 52.1659 114.265 51.6004 114.327L49.2062 114.592C49.2062 114.592 49.1708 114.601 49.1443 114.601C50.4696 113.752 51.786 112.885 53.0847 112.001C52.8373 112.647 52.9346 113.443 53.2791 114.141H53.288ZM53.1731 107.686C53.0936 107.615 53.0141 107.545 52.9434 107.465C52.8639 107.394 52.7843 107.324 52.7048 107.244C51.9097 106.448 51.4326 105.776 50.8318 104.812C50.5491 104.352 50.284 103.884 50.0366 103.406C49.9129 103.159 49.7893 102.911 49.6744 102.664C49.6656 102.637 49.5772 102.443 49.5595 102.407C49.5154 102.31 49.48 102.213 49.4358 102.107C49.3387 101.859 49.2592 101.611 49.1796 101.355C49.3387 101.24 49.4889 101.125 49.6479 101.01C50.0543 100.709 50.2134 100.329 50.125 99.834C49.9041 98.5872 49.48 97.0132 49.9395 95.793C50.3105 94.7938 51.141 93.998 51.7772 93.1756C52.4309 92.3356 52.9699 91.4779 53.3586 90.4875C53.5353 90.0365 53.606 89.4795 53.8357 89.055C53.9329 88.8693 53.9594 88.834 54.1185 88.7544C54.1538 88.7367 54.3747 88.7102 54.5514 88.6925C54.5602 88.7102 54.569 88.7279 54.5778 88.7455C54.675 88.9312 54.7811 89.1169 54.8694 89.3115C55.0196 89.6652 55.0638 89.9746 55.002 90.3549C54.8694 91.2214 54.2598 91.9377 53.8976 92.7158C53.606 93.3436 53.3674 94.0068 53.1377 94.6523C52.8285 95.5366 53.9153 96.2528 54.6662 95.8284C55.912 95.121 57.193 94.4489 58.2886 93.5205C59.3223 92.6362 60.2941 91.6901 61.4869 91.0269C61.6812 90.9208 62.335 90.5052 62.5205 90.6025C63.2008 90.9738 62.2113 91.8227 61.9375 92.0438C61.0009 92.8131 62.2025 94.2456 63.2009 93.6796C63.6603 93.4232 64.0932 93.9626 64.1639 94.3517C64.2169 94.67 64.0579 95.1298 63.9695 95.4481C63.7575 96.2616 64.4819 96.8629 65.2506 96.7303C65.2418 96.7303 65.2329 96.7303 65.2329 96.7303C65.3124 96.7215 65.4361 96.7126 65.4892 96.7303C65.71 96.8364 65.8337 96.7214 65.8425 97.0928C65.8425 97.2432 65.7454 97.3935 65.657 97.4996C65.5687 97.6145 65.3036 97.8091 65.5068 97.6676C64.4554 98.4281 65.2859 99.949 66.4521 99.5068C66.4521 99.5068 66.4787 99.4891 66.5228 99.4803C66.5317 99.4803 66.5493 99.4803 66.5582 99.4626C66.5405 99.4626 66.5405 99.4626 66.5317 99.4803C66.5759 99.4803 66.6377 99.4803 66.6819 99.5245C66.7702 99.6129 66.8851 99.9401 66.9293 99.9047C66.8851 100.126 66.6818 100.365 66.5493 100.524C65.6747 101.629 64.2169 102.248 63.0153 102.929C59.9937 104.635 56.875 106.183 53.9329 108.031C53.8887 108.057 53.8534 108.093 53.818 108.119C53.7562 108.084 53.6943 108.049 53.6325 108.013C53.606 107.996 53.5884 107.987 53.5618 107.969C53.4912 107.925 53.4293 107.881 53.3586 107.828C53.3409 107.81 53.1908 107.695 53.1643 107.677L53.1731 107.686ZM63.4571 83.1306C63.6956 83.4666 63.9341 83.8026 64.1727 84.1386V88.1619H60.5592C59.6845 86.6764 58.8187 85.1997 57.944 83.7142C57.944 83.6434 57.9263 83.5639 57.9087 83.4843C57.0782 80.469 56.389 77.4183 55.6911 74.3677C56.5039 74.5888 57.3079 74.7921 58.1207 75.0044C59.817 77.772 61.6105 80.4778 63.4659 83.1394L63.4571 83.1306ZM60.9479 75.6764C61.6459 75.8267 62.3439 75.977 63.0418 76.1097C64.4289 76.3749 65.657 76.5253 67.0529 76.2688C68.0071 76.092 68.9525 75.8532 69.889 75.5968C68.5814 77.8251 67.2032 80.0092 65.7719 82.1579C65.6924 82.2729 65.6128 82.3878 65.5422 82.5028C63.9519 80.2745 62.4146 78.0019 60.9479 75.6764ZM55.2582 72.0952C55.2582 72.0952 55.1875 72.0863 55.1521 72.0775C54.8076 70.6008 54.4454 69.1241 54.0655 67.6474C54.7988 69.2833 55.6646 70.8749 56.5746 72.4312C56.1328 72.3162 55.6999 72.2101 55.2582 72.0863V72.0952ZM59.2516 90.0454C58.7127 90.461 58.1914 90.9119 57.679 91.3718C57.4846 91.0534 57.2902 90.7351 57.0959 90.4168C57.14 90.0277 57.1312 89.6298 57.0429 89.2319C56.8485 88.4007 56.2653 87.0301 55.4083 86.7118C55.214 86.641 55.002 86.6057 54.7811 86.588L51.3442 80.9111C51.0439 80.4159 50.7434 79.9208 50.4431 79.4256C50.8936 78.7359 51.3354 78.0462 51.786 77.3565C54.2775 81.5832 56.7601 85.8187 59.2516 90.0454ZM64.5261 106.351C64.5438 106.404 64.5173 106.422 64.4908 106.369C64.482 106.342 64.4643 106.289 64.4554 106.227C64.4908 106.28 64.5173 106.324 64.5261 106.351ZM63.9342 105.484C63.8105 105.537 63.678 105.599 63.5454 105.643C63.0065 105.847 62.5118 105.812 61.9551 105.9C62.5029 105.608 63.0418 105.325 63.5896 105.025C63.6161 105.06 63.6426 105.095 63.6691 105.131C63.7575 105.246 63.8458 105.361 63.9253 105.475L63.9342 105.484ZM54.9754 112.815C55.1168 112.753 54.8782 112.629 54.9754 112.815ZM67.7951 97.8268C67.9365 97.3669 67.963 96.8806 67.8128 96.3766C67.5566 95.5189 66.9469 95.006 66.2048 94.7938C66.249 94.1395 66.1518 93.5116 65.763 92.8838C65.4892 92.4329 65.0827 92.0792 64.6144 91.8493C64.8 91.3187 64.8353 90.7616 64.6763 90.2311H74.5097V98.6226H68.5637C68.3517 98.2954 68.0955 98.0213 67.8039 97.8268H67.7951ZM73.052 85.0759C72.8753 85.969 72.7074 86.8621 72.5307 87.7552C72.5042 87.8967 72.5042 88.0382 72.5307 88.1619H66.249V85.0848C66.3285 85.014 66.3991 84.9433 66.461 84.846C68.7228 81.6008 70.8962 78.2319 72.8222 74.7391C73.6174 74.5003 74.4126 74.2439 75.2077 73.9875C74.4921 77.6836 73.7676 81.3798 73.052 85.0848V85.0759ZM74.1828 72.1394C74.4479 71.6088 74.7129 71.0695 74.9691 70.5301C75.6494 69.0799 76.2856 67.5767 76.692 66.0204C76.7097 66.0292 76.7362 66.0469 76.7538 66.0558C76.7538 66.0823 76.7361 66.1088 76.7273 66.1354C76.3651 67.9834 76.0117 69.8227 75.6495 71.6707C75.5964 71.6796 75.5434 71.6884 75.4816 71.7061C75.0487 71.8476 74.6157 71.9891 74.1828 72.1306V72.1394ZM57.8645 58.1771C58.7922 58.8669 59.8082 59.4328 60.8861 59.8484C64.6233 61.272 68.4754 60.3612 71.4351 58.0445C71.815 60.0429 72.4512 62.0059 73.7146 63.6241C74.0592 64.0662 74.4567 64.4464 74.872 64.7913C74.8455 64.8532 74.8278 64.9151 74.8101 64.9858C74.1828 67.8154 72.778 70.4947 71.3644 73.0236C70.0303 73.4215 68.6963 73.7841 67.3445 74.0847C66.1164 74.3589 65.2329 74.4031 63.996 74.182C62.4499 73.9079 60.9214 73.5453 59.4018 73.1651C58.7127 72.0068 58.0412 70.8307 57.3962 69.6458C56.5481 68.0807 55.7441 66.4891 55.1433 64.8178C55.5497 64.4199 55.9119 63.9778 56.23 63.4472C57.1753 61.8556 57.5729 60.0075 57.8557 58.1683L57.8645 58.1771ZM51.2824 48.4593C51.2912 48.4062 51.3089 48.3532 51.3266 48.3001C51.3531 48.2559 51.3796 48.2028 51.4149 48.1586C51.4414 48.1233 51.4768 48.0967 51.5033 48.0702C51.5474 48.0437 51.6004 48.0083 51.6446 47.9818C51.6976 47.9641 51.7506 47.9464 51.8036 47.9376C51.8566 47.9376 51.9185 47.9376 51.9715 47.9376C52.0245 47.9464 52.0776 47.9641 52.1306 47.9818C52.1748 48.0083 52.2277 48.0348 52.2719 48.0702C52.3073 48.0967 52.3337 48.1321 52.3602 48.1586C52.3867 48.2028 52.4221 48.2559 52.4486 48.3001C52.4663 48.3709 52.4928 48.4327 52.5016 48.5035C52.5016 48.5123 52.5016 48.53 52.5016 48.5389C52.5016 48.5477 52.5016 48.5654 52.5016 48.5742C52.484 48.645 52.4663 48.7069 52.4486 48.7776C52.4221 48.8218 52.3956 48.8749 52.3602 48.9191C52.3337 48.9545 52.2984 48.981 52.2719 49.0075C52.2277 49.034 52.1748 49.0694 52.1306 49.0959C52.0776 49.1136 52.0245 49.1313 51.9715 49.1401C51.9185 49.1401 51.8566 49.1401 51.8036 49.1401C51.7506 49.1313 51.6976 49.1136 51.6446 49.0959C51.6004 49.0694 51.5474 49.0429 51.5033 49.0075C51.4679 48.981 51.4414 48.9456 51.4149 48.9191C51.3884 48.8749 51.3531 48.8218 51.3266 48.7776C51.3089 48.7245 51.2912 48.6715 51.2824 48.6184C51.2824 48.5654 51.2824 48.5035 51.2824 48.4504V48.4593ZM50.6639 50.9529C50.6639 50.9529 50.6728 50.9528 50.6816 50.9617C51.2559 51.227 51.8302 51.2977 52.4575 51.1828C52.6253 51.1562 52.7932 51.0943 52.9611 51.0236C53.5 53.0662 54.5779 54.9585 56.018 56.5148C55.7352 58.6458 55.4614 61.0952 54.1449 62.8637C53.5442 63.6772 52.7225 64.2165 51.8213 64.641C50.4784 65.2688 49.1001 65.8082 47.7307 66.3741C47.5982 66.4272 47.4568 66.4891 47.3243 66.551C49.0383 61.5019 50.0632 56.2495 50.6728 50.9529H50.6639ZM38.8515 75.8267C38.8515 75.8267 38.8603 75.8002 38.8692 75.7913C38.931 75.6587 38.984 75.5349 39.0547 75.4023C39.302 74.9159 39.5848 74.4384 39.9029 73.9963C40.751 72.8026 41.8907 71.8122 43.1011 70.9987C43.9493 70.4328 44.8416 69.9465 45.7605 69.5043C45.893 69.469 46.0167 69.4159 46.1315 69.3275C47.6247 68.6289 49.162 68.0277 50.6728 67.391C51.035 67.2407 51.3796 67.0903 51.733 66.9312C52.6783 70.4063 53.4558 73.9344 54.2686 77.4449C54.1538 77.2503 54.0389 77.0558 53.9241 76.8613C53.5883 76.2865 53.2526 75.7206 52.9169 75.1458C52.8815 74.8982 52.7579 74.6595 52.5723 74.5003C52.3515 74.1643 51.9627 73.9344 51.4767 74.0052C47.2624 74.633 43.0481 75.2519 38.8338 75.8798C38.8338 75.8621 38.8515 75.8444 38.8603 75.8267H38.8515ZM49.0206 76.4545C49.3387 76.4103 49.6567 76.3572 49.9836 76.313C49.6125 76.879 49.2415 77.4537 48.8704 78.0196C45.0007 78.0815 41.1398 78.1346 37.27 78.1965C41.184 77.6129 45.1067 77.0381 49.0206 76.4545ZM25.0776 80.469C32.0838 80.3629 39.0989 80.2568 46.1051 80.1507C46.2818 80.1507 46.4673 80.1507 46.6528 80.1507C47.2448 80.1418 47.8367 80.133 48.4287 80.1241C49.86 82.4851 51.2824 84.8372 52.7137 87.1981C52.5105 87.3573 52.3249 87.5341 52.2012 87.7375C51.8478 88.3034 51.7241 88.9666 51.5033 89.5856C51.4149 89.842 51.3001 90.0808 51.1852 90.3195C49.2327 87.4192 47.2801 84.51 45.3276 81.6097C45.1155 81.3002 44.7268 81.0526 44.3381 81.088C44.2762 81.088 44.2144 81.1056 44.1525 81.1322C38.9045 83.0245 33.683 84.9963 28.4615 86.9682C27.3394 84.8018 26.2085 82.6442 25.0865 80.4778L25.0776 80.469ZM25.7049 91.4248C25.4752 91.1065 25.2367 90.7882 25.007 90.4787C29.9634 88.6041 34.9287 86.7383 39.9029 84.8991C41.2723 84.3862 42.6505 83.8822 44.02 83.387C45.999 86.3227 47.9692 89.2584 49.9483 92.1941C49.3387 92.9457 48.6849 93.6708 48.252 94.5462C48.1636 94.7231 48.1018 94.8999 48.0399 95.0767C47.5805 96.3677 47.6865 97.7472 47.9074 99.1089C47.7484 99.1266 47.5893 99.1708 47.448 99.2504C47.3066 99.2504 47.1476 99.2946 46.9974 99.3653C43.4634 101.125 39.9294 102.885 36.3954 104.635C36.2805 104.689 36.1656 104.75 36.0508 104.803C35.9448 104.857 35.8299 104.91 35.7239 104.963C32.3842 100.453 29.0534 95.9345 25.7138 91.4248H25.7049ZM41.1839 116.652C40.6362 116.891 40.0796 117.112 39.5141 117.289C38.2772 117.66 36.8283 117.97 35.609 117.386C33.5151 116.387 32.34 113.717 31.9248 111.568C31.4389 109.004 31.9601 106.395 32.2782 103.804C32.4107 103.981 32.5344 104.149 32.6669 104.326C33.1087 104.927 33.5593 105.529 34.001 106.13C33.7802 106.864 34.6107 107.836 35.5383 107.377C39.1872 105.564 42.8361 103.751 46.485 101.939C46.5733 101.894 46.6617 101.85 46.75 101.806C46.8649 102.027 47.0504 102.213 47.2625 102.301C47.5275 103.106 47.9162 103.875 48.2785 104.574C49.1443 106.227 50.2399 107.916 51.6711 109.145C51.9715 109.41 52.2896 109.631 52.6253 109.826C49.7716 111.745 46.9179 113.672 43.8963 115.308C43.2602 115.653 42.6064 115.998 41.9437 116.316C41.6522 116.316 41.3783 116.414 41.1928 116.652H41.1839ZM41.767 123.443C42.1469 121.684 42.518 119.915 42.8979 118.156C43.5959 117.82 44.2762 117.457 44.9388 117.094C46.1316 116.449 47.2889 115.75 48.4375 115.043C47.9869 115.689 48.2343 116.776 49.215 116.67C51.247 116.449 53.2791 116.228 55.3112 116.007C55.0461 117.484 55.9296 118.138 57.246 118.332C57.2195 118.456 57.2107 118.589 57.2284 118.73C57.3344 119.473 57.4846 120.101 57.1312 120.817C56.6541 121.781 55.5851 122.294 54.5602 122.418C53.8622 122.497 53.1554 122.533 52.4575 122.586C49.321 122.842 46.1757 123.09 43.0393 123.346C42.6152 123.381 42.2 123.417 41.7759 123.443H41.767ZM55.9208 243.303C55.3907 244.797 54.4895 245.841 53.1201 246.654C52.2808 247.149 51.3796 247.503 50.4254 247.689C49.7186 247.822 48.6761 247.972 48.0223 247.609C47.7307 247.45 47.501 247.167 47.2801 246.92C46.9444 246.548 46.4938 246.071 46.2553 245.744C46.1669 245.62 46.0874 245.416 46.0255 245.195C45.9372 244.859 45.893 244.523 45.8754 244.178C45.8135 243.091 45.9018 242.003 46.0609 240.924C46.3436 241.225 46.6263 241.517 46.9267 241.764C48.1283 242.728 49.5331 243.241 51.0792 243.25C51.0969 243.25 51.1145 243.25 51.1322 243.25C53.0406 243.427 54.9047 242.852 56.4509 241.782C56.2742 242.295 56.0975 242.808 55.9208 243.312V243.303ZM61.4427 200.727C60.8331 204.794 60.2323 208.862 59.6492 212.929C59.1456 216.466 58.6331 219.994 58.1826 223.54C58.0765 224.354 57.9705 225.167 57.9087 225.981C57.6613 229.571 57.1135 233.258 57.3255 236.866C57.3432 237.166 57.3786 237.467 57.3962 237.75C56.2212 239.766 53.7739 241.543 51.3354 241.199C51.2471 241.181 51.1587 241.163 51.0615 241.163C48.9941 241.154 47.7395 239.819 46.5821 238.351C46.909 236.83 47.6335 235.026 48.146 233.523C48.8704 231.401 49.6568 229.27 50.1339 227.077C50.5314 225.238 50.3017 223.275 50.231 221.418C49.9836 214.344 49.6567 207.27 49.3298 200.196C49.3033 199.586 49.2769 198.967 49.2503 198.348C52.1747 198.313 55.0991 198.277 58.0235 198.242C59.2781 198.224 60.5327 198.206 61.7961 198.198C61.6724 199.038 61.5575 199.886 61.4338 200.727H61.4427ZM64.6587 244.806C64.5261 244.806 64.4024 244.789 64.2699 244.78C64.2699 244.78 64.2346 244.78 64.2081 244.78C64.1816 244.78 64.1551 244.78 64.1462 244.78C63.8635 244.735 63.5896 244.674 63.3157 244.603C63.2009 244.576 63.0948 244.541 62.98 244.514C62.9446 244.514 62.9093 244.497 62.874 244.488C62.8828 244.488 62.8917 244.488 62.9005 244.506C62.8917 244.506 62.8828 244.497 62.874 244.488C62.8298 244.479 62.8033 244.453 62.8121 244.453C62.7944 244.453 62.7768 244.426 62.7591 244.408C62.7503 244.399 62.7503 244.408 62.7414 244.399C62.7061 244.311 62.6354 244.178 62.6973 244.364C62.6973 244.346 62.6619 244.258 62.6442 244.196C62.6442 244.17 62.6442 244.143 62.6442 244.125C62.6442 243.975 62.6354 243.834 62.6266 243.683C62.6266 243.621 62.6266 243.551 62.6266 243.489C63.4571 243.949 64.3671 244.302 65.1357 244.842C64.9855 244.842 64.8353 244.842 64.6851 244.842L64.6587 244.806ZM79.7401 244.612C80.226 244.939 80.7208 245.248 81.1714 245.62C81.6485 246.018 82.2669 246.928 82.1697 247.6C82.0549 248.379 80.3143 248.37 79.6606 248.387C75.6494 248.467 71.8239 246.769 68.493 244.665C66.9999 243.719 65.6658 242.64 64.0755 241.853C63.6426 241.641 63.0683 241.42 62.7591 241.022C62.3262 240.456 62.5117 239.607 62.6619 238.979C62.7238 238.696 62.8033 238.404 62.8828 238.121C64.0225 238.696 65.0297 239.545 66.0016 240.358C67.3091 241.446 68.5814 242.578 69.9243 243.621C70.9403 244.408 72.0271 245.293 73.3347 245.496C75.5346 245.841 77.7345 245.522 79.7401 244.612ZM74.0945 219.473C73.2021 224.106 72.4246 228.704 72.9106 233.435C73.1314 235.601 73.7411 237.52 74.9691 239.324C75.835 240.597 76.8687 241.932 77.9907 243.082C76.4888 243.612 74.7218 243.851 73.3082 243.356C72.3805 243.029 71.3026 242.092 70.4721 241.411C69.244 240.403 68.0601 239.35 66.8232 238.351C65.8072 237.529 64.747 236.645 63.5366 236.123C64.0049 234.85 64.5261 233.594 64.9325 232.303C65.6659 230.004 65.816 227.643 65.9662 225.247C66.5317 216.236 66.0458 207.155 66.6907 198.145C70.0922 198.1 73.4848 198.056 76.8863 198.021C77.2574 198.021 77.6196 198.012 77.9907 198.003C76.7185 205.165 75.4551 212.328 74.0856 219.473H74.0945ZM85.3503 153.693C84.4668 165.595 83.0444 177.471 81.3215 189.276C81.0035 191.486 80.6677 193.688 80.3143 195.89C76.6831 195.934 73.0608 195.978 69.4296 196.022C63.1478 196.102 56.8573 196.181 50.5756 196.252C49.4359 196.27 48.2962 196.279 47.1564 196.296C46.2464 190.054 45.4955 183.776 44.8328 177.489C43.5782 165.666 42.7831 153.844 43.057 141.96C43.1895 136.398 43.6224 130.862 44.1702 125.327C45.2834 125.238 46.3878 125.15 47.501 125.062C47.6953 125.044 47.8986 125.026 48.093 125.017C49.7009 124.885 51.3089 124.761 52.9169 124.628C53.9947 124.54 55.1521 124.54 56.1681 124.151C57.5022 123.647 58.6332 122.683 59.1456 121.33C59.5167 120.34 59.3753 119.367 59.2339 118.359C59.3665 118.35 59.499 118.332 59.6227 118.324C59.5343 118.81 59.5873 119.305 59.87 119.738C60.4531 120.64 61.6017 120.64 62.5559 120.561C64.6763 120.375 66.7879 119.933 68.8642 119.464C69.2441 119.376 69.6239 119.287 69.995 119.199C69.9332 119.747 69.9067 120.295 70.0392 120.853C70.3396 122.046 71.2319 123.081 72.3275 123.629C73.37 124.151 74.5185 124.204 75.6582 124.319C77.8493 124.549 80.0404 124.77 82.2315 125C82.6114 125.035 82.9914 125.079 83.3713 125.115C83.3713 125.168 83.3713 125.212 83.3801 125.274C84.2106 130.296 84.723 135.381 85.1029 140.456C85.4386 144.869 85.6772 149.281 85.3415 153.702L85.3503 153.693ZM74.4125 122.108C73.6969 122.011 72.9813 121.737 72.5042 121.171C71.8592 120.402 72.0182 119.632 72.1508 118.739C72.1508 118.713 72.1508 118.686 72.1508 118.66C72.6809 118.509 73.2109 118.35 73.7322 118.173C73.7411 118.783 74.2447 119.42 75.0222 119.226C78.7417 118.271 82.532 117.82 86.3045 117.174C86.6049 119.261 86.9053 121.357 87.2057 123.443C82.9383 123.028 78.6534 122.683 74.4125 122.117V122.108ZM94.9629 112.514C93.9822 113.31 92.6746 113.619 91.4818 113.929C86.4105 115.246 81.189 115.689 76.0824 116.82C75.835 113.23 74.9868 109.773 74.7129 106.245C78.0084 105.113 81.3039 103.981 84.5994 102.849C85.8539 102.416 85.315 100.409 84.0428 100.842C80.4204 102.089 76.8068 103.327 73.1844 104.574C72.8134 104.697 72.6013 104.971 72.513 105.263C71.1259 104.025 69.7918 102.708 68.4754 101.399C68.6168 101.169 68.7316 100.939 68.8199 100.692H75.5434C76.1089 100.692 76.586 100.214 76.586 99.6483V89.1788C76.586 88.6129 76.1089 88.1354 75.5434 88.1354H74.5716C75.7908 81.875 77.0012 75.6145 78.2204 69.3452C78.3706 68.5759 78.5208 67.8066 78.671 67.0461C79.2365 67.3379 79.7931 67.6297 80.3232 67.9481C80.7914 68.2222 81.242 68.5228 81.7014 68.8146C81.7633 68.8677 81.8251 68.9031 81.9046 68.9384C82.6821 69.4336 83.442 69.9465 84.1929 70.477C85.4829 71.3878 86.8876 72.3074 88.0008 73.4392C89.6707 75.137 90.1124 77.8074 90.6778 80.018C91.4818 83.1659 91.9501 86.4377 92.5774 89.6298C93.24 92.9899 93.9026 96.3501 94.5653 99.7102C94.8833 101.328 95.2014 102.947 95.5195 104.565C95.8022 106.015 96.1821 107.483 96.2439 108.959C96.297 110.277 96.0584 111.621 94.9805 112.496L94.9629 112.514Z" fill="var(--fill-0, #323232)"/>
<path id="Vector_72" d="M62.8754 244.47C62.84 244.444 62.8135 244.435 62.8047 244.435C62.8224 244.444 62.8489 244.461 62.8665 244.47H62.8754Z" fill="var(--fill-0, #323232)"/>
<path id="Vector_73" d="M58.7152 185.562C62.9825 174.845 66.6314 163.898 69.6441 152.756C70.4923 149.617 71.2875 146.46 72.0384 143.286C72.3477 141.986 70.3421 141.429 70.0329 142.729C67.3823 153.95 64.1046 165.021 60.1818 175.87C59.0774 178.93 57.9201 181.972 56.7185 184.996C56.2237 186.243 58.2292 186.782 58.724 185.553L58.7152 185.562Z" fill="var(--fill-0, #323232)"/>
<path id="Vector_74" d="M66.5235 99.4981C66.4971 99.5069 66.4795 99.5157 66.4531 99.5245C66.4531 99.5245 66.4795 99.5245 66.5323 99.4981H66.5235Z" fill="var(--fill-0, #323232)"/>
<path id="Vector_75" d="M65.2352 96.7393C65.1645 96.7481 65.138 96.7569 65.2352 96.7393Z" fill="var(--fill-0, #323232)"/>
<path id="Vector_76" d="M85.4473 82.8743C84.9614 82.7328 84.2458 83.0423 84.1662 83.5994C83.4064 88.9844 82.8145 94.3872 82.0547 99.7634C81.9752 100.32 82.1961 100.878 82.7792 101.046C83.2651 101.187 83.9807 100.878 84.0602 100.32C84.82 94.9354 85.412 89.5327 86.1718 84.1565C86.2513 83.5994 86.0304 83.0423 85.4473 82.8743Z" fill="var(--fill-0, #323232)"/>
<path id="Vector_77" d="M87.6748 98.0037C86.968 98.1982 86.2612 98.3839 85.5544 98.5785C85.4572 98.605 85.3512 98.6315 85.254 98.658C85.0066 98.7288 84.7681 98.9145 84.6356 99.1355C84.503 99.3566 84.45 99.6838 84.5295 99.9402C84.7062 100.48 85.2452 100.816 85.8106 100.665C86.5174 100.471 87.2242 100.285 87.931 100.091C88.0282 100.064 88.1342 100.037 88.2314 100.011C88.4788 99.9402 88.7174 99.7545 88.8499 99.5335C88.9824 99.3124 89.0354 98.9852 88.9559 98.7288C88.7792 98.1894 88.2403 97.8534 87.6748 98.0037Z" fill="var(--fill-0, #323232)"/>
<path id="Vector_78" d="M48.4292 80.1152C47.8372 80.124 47.2453 80.1329 46.6533 80.1417C46.4678 80.1417 46.2911 80.1417 46.1056 80.1417C39.0994 80.2478 32.0843 80.3539 25.0781 80.46C26.2002 82.6264 27.3311 84.784 28.4531 86.9504C33.6746 84.9785 38.8962 83.0067 44.1442 81.1144C44.206 81.0967 44.2679 81.079 44.3297 81.0702C44.7185 81.0259 45.116 81.2735 45.3192 81.5919C47.2718 84.4922 49.2243 87.4014 51.1769 90.3017C51.2917 90.0629 51.4066 89.8242 51.4949 89.5678C51.7158 88.9488 51.8306 88.2856 52.1929 87.7197C52.3254 87.5163 52.5021 87.3395 52.7053 87.1803C51.2741 84.8194 49.8516 82.4673 48.4204 80.1063L48.4292 80.1152Z" fill="var(--fill-0, #E4D8F3)"/>
</g>
</g>
</g>
</g>
</svg>
