<svg preserveAspectRatio="none" width="100%" height="100%" overflow="visible" style="display: block;" viewBox="0 0 264.998 65" fill="none" xmlns="http://www.w3.org/2000/svg">
<g id="Group">
<path id="Vector" d="M27.8075 1.44372V13.4257L0.899218 13.676L15.272 37.4216C15.4992 37.8029 15.5079 38.2656 15.2924 38.6585L0.867188 63.5566H47.8264L47.8671 51.0857L230.433 51.2924V1.23999L27.8075 1.44663V1.44372Z" fill="var(--fill-0, white)"/>
<path id="Vector_2" d="M203.758 50.0582H29.2574V2.47381H52.1503C52.8404 2.47381 53.3878 1.92666 53.3878 1.2369C53.3878 0.547148 52.8404 0 52.1503 0H28.0228C27.3385 0 26.7765 0.5617 26.7765 1.24563V11.8219L1.21645 12.2759C0.77385 12.2875 0.372017 12.5233 0.156541 12.9045C-0.0589347 13.2945 -0.0501992 13.7602 0.176924 14.1414L14.2411 38.0617L0.153629 63.1548C-0.0531111 63.5361 -0.0531111 64.0105 0.165277 64.3917C0.3924 64.7614 0.794233 65 1.23683 65H48.1028C48.7842 65 49.3404 64.4441 49.3404 63.7631V52.5291H203.761C204.442 52.5291 204.998 51.9732 204.998 51.2922C204.998 50.6112 204.442 50.0553 203.761 50.0553L203.758 50.0582ZM45.6831 62.5262H3.345L16.7394 38.6583C16.9549 38.2683 16.9462 37.8027 16.7191 37.4214L3.37703 14.7061L26.7736 14.2928V51.3562C26.7736 51.947 27.1027 52.4854 27.6297 52.7532C30.792 54.3655 41.8366 60.0175 45.7442 62.2672C45.8665 62.337 45.8229 62.5233 45.6831 62.5233V62.5262Z" fill="var(--fill-0, #853173)"/>
<path id="Vector_3" d="M230.85 52.5291H210.202C209.521 52.5291 208.965 51.9762 208.965 51.2922C208.965 50.6083 209.518 50.0553 210.202 50.0553H229.613V2.47676H58.7141C58.0327 2.47676 57.4766 1.92379 57.4766 1.23985C57.4766 0.555918 58.0298 0.00585938 58.7141 0.00585938H230.853C231.534 0.00585938 232.091 0.558828 232.091 1.24276V51.2951C232.091 51.9762 231.537 52.5321 230.853 52.5321L230.85 52.5291Z" fill="var(--fill-0, #853173)"/>
<g id="Group_2">
<path id="Vector_4" d="M213.619 2.47106H213.088C213.071 2.47106 213.056 2.46815 213.039 2.46815V50.0597H213.619V2.47106Z" fill="var(--fill-0, white)"/>
<path id="Vector_5" d="M235.873 2.47108H213.617V50.0568H235.873V2.47108Z" fill="var(--fill-0, white)"/>
<path id="Vector_6" d="M219.526 62.5289H261.664L248.332 38.6589C248.118 38.2689 248.126 37.8032 248.352 37.4219L261.633 14.7045L238.344 14.2912V51.3579C238.344 51.9488 238.017 52.4872 237.492 52.755C234.345 54.3675 223.351 60.0199 219.462 62.2698C219.34 62.3397 219.384 62.526 219.523 62.526L219.526 62.5289Z" fill="var(--fill-0, white)"/>
<path id="Vector_7" d="M213.619 1.41747V0H213.089C213.071 0 213.057 0.00291062 213.039 0.00582124V1.41747H213.619Z" fill="var(--fill-0, #853173)"/>
<path id="Vector_8" d="M250.823 38.0622L264.822 14.1398C265.048 13.7585 265.057 13.2957 264.842 12.9028C264.628 12.5215 264.228 12.2857 263.787 12.2741L238.346 11.82V1.24575C238.346 0.56175 237.786 0 237.105 0H213.617V1.41747L236.899 1.44076V13.4238L263.683 13.6741L249.377 37.4219C249.151 37.8032 249.142 38.2659 249.356 38.6589L263.712 63.5592H216.973L216.933 51.0872H213.617V52.528H215.887V63.763C215.887 64.4441 216.44 65 217.118 65H263.767C264.208 65 264.608 64.7642 264.834 64.3917C265.048 64.0104 265.048 63.536 264.845 63.1547L250.826 38.0593L250.823 38.0622Z" fill="var(--fill-0, #853173)"/>
<path id="Vector_9" d="M213.619 51.0932H213.039V52.5311H213.619V51.0932Z" fill="var(--fill-0, #853173)"/>
<path id="Vector_10" d="M213.619 50.0597H213.039V51.0922H213.619V50.0597Z" fill="var(--fill-0, #853173)"/>
<path id="Vector_11" d="M235.873 2.47096V50.0567H213.617V51.09H216.933L216.973 63.5562H263.715L249.359 38.6558C249.145 38.2658 249.154 37.8001 249.38 37.4188L263.686 13.671L236.902 13.4207V1.4406L213.62 1.41732V2.47096H235.876H235.873ZM237.494 52.7607C238.018 52.4929 238.346 51.9544 238.346 51.3636V14.2939L261.634 14.7072L248.354 37.4246C248.128 37.8059 248.119 38.2687 248.333 38.6616L261.666 62.5316H219.524C219.382 62.5316 219.341 62.3454 219.463 62.2755C223.353 60.0256 234.349 54.3732 237.494 52.7607Z" fill="var(--fill-0, #853173)"/>
<path id="Vector_12" d="M213.039 2.46727C213.056 2.46727 213.071 2.47018 213.088 2.47018H213.619V1.41732H213.039V2.46727Z" fill="var(--fill-0, #853173)"/>
</g>
</g>
</svg>
