<svg preserveAspectRatio="xMidYMid meet" width="100%" height="100%" overflow="visible" style="display: block;" viewBox="0 0 25.1576 42.633" fill="none" xmlns="http://www.w3.org/2000/svg">
<g id="Group">
<path id="Vector" d="M16.1385 42.2582C16.2301 41.8189 16.3184 41.383 16.4101 40.9437C16.0265 41.0084 15.6394 41.0561 15.2524 41.0868C14.2713 41.1685 14.2815 39.6361 15.2524 39.5544C16.4746 39.4522 17.7612 39.1798 18.6541 38.2739C19.72 37.191 20.0969 35.5496 20.7657 34.2249C21.2783 33.2135 22.0897 32.3077 22.3578 31.1839C22.5276 30.4654 22.1304 29.4779 21.3326 30.101C20.6468 30.6323 20.2496 31.579 19.754 32.2737C19.2923 32.9241 18.834 33.9151 18.0294 34.1909C16.9091 34.5723 15.9314 33.4894 15.3135 32.6993C15.0453 32.3554 14.7941 31.9706 14.5904 31.5653C14.4512 31.4121 14.3664 31.218 14.363 31.0273C14.1932 30.5505 14.0982 30.0534 14.1355 29.5494C14.2713 27.7581 16.1215 26.6071 17.3946 25.5651C17.7137 25.3029 18.1618 25.2484 18.4741 25.5651C18.8883 25.9873 19.2583 26.4607 19.6046 26.9409C19.9237 27.3835 20.2055 28.16 20.8336 28.1872C21.0271 28.1191 21.2206 28.0544 21.4107 27.9863C21.4854 27.9182 21.5363 27.8331 21.5431 27.7343C21.5601 27.4142 21.1323 26.8285 20.9795 26.539C20.82 26.2393 20.657 25.9431 20.4771 25.6536C20.2191 25.2416 19.9271 24.8534 19.6352 24.4685C19.367 24.1144 19.1192 23.5423 18.7491 23.2971C18.2433 22.96 17.4862 23.3107 17.011 23.5491C16.2505 23.9305 15.5512 24.4311 14.862 24.9283C14.8586 24.9283 14.8552 24.9317 14.8484 24.9351C14.4648 25.2416 13.7825 25.1973 13.6127 24.5809C13.2461 23.2494 12.8794 21.9145 12.5162 20.583C12.0307 18.8088 11.5452 17.0312 11.0802 15.2502C10.9376 14.7019 10.8595 13.9698 10.374 13.6905C10.228 13.6054 10.1873 13.602 10.0481 13.6122C10.0413 13.6122 9.9327 13.6327 9.87159 13.6837C9.72561 13.8097 9.64074 13.9698 9.57624 14.1469C9.51513 14.3205 9.48118 14.4704 9.47779 14.5589C9.47779 14.6475 9.49137 14.7394 9.50155 14.8279C9.50155 14.8416 9.50494 14.8484 9.50834 14.8722C9.51852 14.9335 9.52871 14.9982 9.53889 15.0595C9.59661 15.4103 9.6679 15.761 9.73919 16.1118C9.92591 17.021 10.1296 17.9268 10.3401 18.8327C10.6117 20.0075 10.89 21.1824 11.182 22.3538C11.199 22.4287 11.2058 22.4968 11.2058 22.5649C11.4536 23.4844 11.7014 24.4038 11.9458 25.3267C12.2005 26.2836 10.7271 26.6854 10.4725 25.7353C10.1975 24.7103 9.92251 23.6853 9.64413 22.6603C9.24354 21.1824 8.84295 19.7044 8.42878 18.2299C8.25225 17.5999 8.11985 16.9018 7.85165 16.3093C7.6853 15.9415 7.16929 15.7304 6.91467 16.0675C6.79925 16.2207 6.83659 16.4046 6.79585 16.5749C6.8298 16.7588 6.85696 16.9427 6.88752 17.1232C6.99615 17.7429 7.11158 18.3627 7.227 18.9825C7.40353 19.936 7.58346 20.8861 7.76678 21.8362C7.78376 21.9247 7.78376 22.0099 7.77357 22.0882C8.16398 23.7432 8.51365 25.405 8.84295 27.0737C9.03306 28.0374 7.5597 28.446 7.36958 27.4823C7.00633 25.6366 6.61932 23.7909 6.1746 21.9622C6.05917 21.4854 5.94035 21.0053 5.80116 20.5353C5.72987 20.2868 5.645 19.7725 5.38699 19.6465C5.13238 19.5205 4.87437 19.8338 4.76234 20.0858C4.51451 20.6477 4.76234 21.2709 4.88455 21.8294C5.27157 23.5559 5.50242 25.3063 5.74685 27.0566C5.99806 28.8853 6.31379 30.7038 6.60235 32.5291C6.92825 34.5621 7.45446 36.5099 7.95689 38.5021C8.27601 39.7723 8.69018 41.4409 8.00103 42.6328H16.0672C16.0706 42.6056 16.074 42.5783 16.0774 42.5511C16.0977 42.4591 16.1147 42.3672 16.1351 42.2752L16.1385 42.2582Z" fill="var(--fill-0, white)"/>
<path id="Vector_2" d="M4.56119 5.51095C4.64946 5.59949 4.73772 5.68462 4.82259 5.77316C5.10437 6.05581 5.62378 6.07965 5.90216 5.77316C6.18053 5.46668 6.2043 4.99333 5.90216 4.69026C5.28769 4.07388 4.67322 3.45751 4.05875 2.84114C3.97049 2.7526 3.88561 2.66746 3.79735 2.57892C3.51558 2.29628 2.99616 2.27244 2.71779 2.57892C2.43941 2.88541 2.41564 3.35875 2.71779 3.66183C3.33225 4.27821 3.94672 4.89458 4.56119 5.51095Z" fill="var(--fill-0, #323232)"/>
<path id="Vector_3" d="M7.99946 3.49778C8.03002 3.61697 8.06396 3.73956 8.09452 3.85875C8.19636 4.24696 8.64448 4.51939 9.03489 4.39339C9.43209 4.26399 9.67991 3.86556 9.56788 3.4501C9.34382 2.60898 9.11976 1.76785 8.89231 0.926721C8.86175 0.807533 8.82781 0.684939 8.79725 0.565751C8.69541 0.177539 8.24729 -0.0948909 7.85688 0.0311079C7.45968 0.160512 7.21186 0.558941 7.32389 0.974396C7.54795 1.81552 7.77201 2.65665 7.99946 3.49778Z" fill="var(--fill-0, #323232)"/>
<path id="Vector_4" d="M4.26981 9.06946C4.36826 8.64039 4.1408 8.2692 3.73681 8.12618C2.92545 7.84353 2.11747 7.55748 1.3061 7.27483C1.19068 7.23397 1.07525 7.1931 0.963222 7.15565C0.586394 7.02284 0.111115 7.30548 0.0228487 7.69029C-0.075602 8.11937 0.151853 8.49055 0.55584 8.63358C1.36721 8.91622 2.17518 9.20227 2.98655 9.48492C3.10198 9.52579 3.2174 9.56665 3.32943 9.60411C3.70626 9.73692 4.18154 9.45427 4.26981 9.06946Z" fill="var(--fill-0, #323232)"/>
<path id="Vector_5" d="M25.1406 35.4917C25.144 35.5087 25.1508 35.5188 25.1576 35.5256C25.1576 35.5256 25.1542 35.512 25.1406 35.4917Z" fill="var(--fill-0, #323232)"/>
<path id="Vector_6" d="M23.5312 29.3484L23.928 30.5164C23.8907 30.0976 23.7517 29.6923 23.5312 29.3484Z" fill="var(--fill-0, #323232)"/>
<g id="Group_2">
<g id="Vector_7">
</g>
<path id="Vector_8" d="M23.9266 30.5165L23.5294 29.3484C23.4446 29.2156 23.5532 29.328 23.4446 29.2156C23.4921 29.1986 23.397 29.2327 23.4446 29.2156L22.3412 25.8477C22.0459 25.2756 21.7166 24.7239 21.3397 24.2029C20.6947 23.3175 20.0701 22.0303 18.9566 21.7204C17.5104 21.3186 16.0132 22.2312 14.7945 23.0928C14.0204 20.2867 13.243 17.4807 12.5131 14.6645C12.2891 13.7961 12.0548 12.9584 11.2604 12.4305C10.3065 11.7971 9.09452 12.0662 8.45629 12.9992C8.12699 13.4794 8.00138 13.9766 7.9878 14.4942C7.46839 14.3171 6.88108 14.3205 6.39222 14.5589C4.96299 15.2502 5.27531 16.8303 5.51974 18.1073C5.00033 18.029 4.45037 18.1788 4.00225 18.5772C2.89892 19.5546 3.12977 20.9406 3.41833 22.2176C3.83929 24.0939 4.07693 26.0044 4.34173 27.908C4.74572 30.7719 5.13273 33.6699 5.86262 36.4725C6.16137 37.6167 6.4737 38.7609 6.73849 39.9153C6.77923 40.0958 6.82337 40.2763 6.85392 40.4602C6.87089 40.719 6.87768 40.9948 6.84034 41.2502C6.803 41.4988 6.7351 41.7406 6.6061 41.9585C6.59931 41.9688 6.37185 42.1867 6.62646 41.9926C6.41598 42.156 6.2734 42.3774 6.25303 42.6192H8.00477C8.69393 41.4273 8.28315 39.7587 7.96064 38.4885C7.4582 36.4929 6.932 34.5484 6.6061 32.5154C6.31414 30.6936 6.00181 28.8717 5.75059 27.043C5.50956 25.2926 5.27871 23.5389 4.8883 21.8158C4.76269 21.2573 4.51487 20.6341 4.76609 20.0722C4.87472 19.8236 5.13613 19.5103 5.39074 19.6329C5.64875 19.7589 5.73022 20.2731 5.80491 20.5217C5.9441 20.9951 6.06292 21.4718 6.17834 21.9486C6.62307 23.7772 7.01008 25.623 7.37333 27.4687C7.56344 28.4358 9.03681 28.0272 8.8467 27.06C8.5174 25.3948 8.16773 23.7296 7.77732 22.0746C7.7875 21.9962 7.7875 21.9111 7.77053 21.8226C7.58721 20.8725 7.40728 19.919 7.23075 18.9689C7.11532 18.3491 6.9999 17.7293 6.89126 17.1095C6.86071 16.9256 6.83016 16.7417 6.7996 16.5613C6.84034 16.391 6.7996 16.2071 6.91842 16.0539C7.17304 15.7167 7.68905 15.9279 7.8554 16.2956C8.12359 16.8882 8.25599 17.5863 8.43253 18.2163C8.85009 19.6908 9.25068 21.1687 9.64788 22.6467C9.92626 23.6717 10.2012 24.6967 10.4762 25.7217C10.7308 26.6718 12.2042 26.27 11.9496 25.3131C11.7052 24.3936 11.4573 23.4742 11.2095 22.5513C11.2095 22.4832 11.2061 22.4151 11.1857 22.3402C10.8972 21.1687 10.6154 19.9939 10.3438 18.819C10.1333 17.9132 9.92965 17.0074 9.74294 16.0981C9.67164 15.7474 9.60035 15.3966 9.54264 15.0459C9.53246 14.9846 9.52227 14.9199 9.51209 14.8586C9.50869 14.8347 9.50869 14.8279 9.5053 14.8143C9.49511 14.7258 9.48153 14.6372 9.48153 14.5453C9.48153 14.4533 9.51548 14.3035 9.57998 14.1332C9.64449 13.9562 9.73275 13.7961 9.87534 13.6701C9.93644 13.619 10.0485 13.5986 10.0519 13.5986C10.1911 13.5884 10.2318 13.5918 10.3778 13.6769C10.8598 13.9562 10.9413 14.6883 11.0839 15.2366C11.549 17.0176 12.0345 18.7918 12.5199 20.5694C12.8832 21.9043 13.2498 23.2358 13.6165 24.5673C13.7862 25.1837 14.4686 25.2279 14.8522 24.9215C14.8556 24.9215 14.859 24.918 14.8658 24.9146C15.5549 24.4175 16.2543 23.9169 17.0147 23.5355C17.4866 23.2971 18.247 22.9463 18.7529 23.2835C19.1195 23.5287 19.3673 24.1008 19.6389 24.4549C19.9343 24.8431 20.2262 25.2279 20.4808 25.64C20.6608 25.9294 20.8271 26.2257 20.9833 26.5254C21.1361 26.8148 21.5672 27.4006 21.5468 27.7207C21.54 27.8194 21.4891 27.9012 21.4144 27.9727C21.2209 28.0408 21.0274 28.1055 20.8373 28.1736C20.2093 28.1463 19.9241 27.3699 19.6084 26.9272C19.2655 26.4471 18.8955 25.9737 18.4779 25.5514C18.1656 25.2347 17.7174 25.2892 17.3983 25.5514C16.1253 26.5901 14.2751 27.7445 14.1393 29.5357C14.1019 30.0397 14.1936 30.5369 14.3667 31.0137C14.3667 31.2044 14.455 31.3985 14.5942 31.5517C14.7979 31.957 15.0457 32.3418 15.3173 32.6857C15.9351 33.4758 16.9129 34.5621 18.0332 34.1773C18.8377 33.9014 19.296 32.9105 19.7577 32.26C20.2534 31.5653 20.6506 30.622 21.3364 30.0874C22.1341 29.4676 22.5313 30.4518 22.3616 31.1703C22.0968 32.2941 21.282 33.1999 20.7694 34.2113C20.1006 35.536 19.7238 37.1808 18.6578 38.2603C17.765 39.1695 16.4783 39.4386 15.2562 39.5407C14.2852 39.6224 14.2751 41.1549 15.2562 41.0731C15.6432 41.0391 16.0302 40.9948 16.4138 40.9301C16.3222 41.3694 16.2339 41.8053 16.1422 42.2446C16.1219 42.3365 16.1049 42.4285 16.0845 42.5204C16.0777 42.5477 16.0777 42.5749 16.0743 42.6022H17.6258C17.7378 42.0641 17.8464 41.5295 17.9585 40.9914C17.9788 40.8995 17.9958 40.8075 18.0162 40.7156C18.0332 40.6372 18.0366 40.5555 18.0332 40.4772C18.2233 40.3989 18.4134 40.3103 18.5933 40.2116C19.7102 39.5952 20.4435 38.5838 20.9867 37.4532C21.5842 36.2103 22.0595 34.9605 22.7927 33.7856C23.3936 32.8219 24.0319 31.6845 23.93 30.5063L23.9266 30.5165ZM9.49511 14.7871C9.49511 14.7871 9.49511 14.7871 9.49851 14.8075C9.49851 14.7973 9.49851 14.7871 9.49511 14.7871C9.49511 14.7871 9.49511 14.7973 9.49851 14.8075C9.49851 14.7905 9.49511 14.7837 9.49511 14.7871ZM19.1569 30.4007C18.8106 30.9013 18.4813 31.4121 18.1316 31.9059C17.9924 32.1068 17.765 32.6687 17.5171 32.747C17.5138 32.747 17.0962 32.3997 16.9875 32.2907C16.7499 32.0523 16.5258 31.7969 16.3357 31.5211C16.3222 31.5006 16.3086 31.4768 16.2916 31.4564C16.295 31.4564 16.2984 31.4564 16.3052 31.453L15.6839 30.067C15.667 29.9478 15.6534 29.8286 15.6602 29.7094C15.6805 29.1407 16.0132 28.7934 16.407 28.4256C16.8755 27.9897 17.3644 27.5742 17.8566 27.1622C18.1011 27.4551 18.3319 27.7547 18.539 28.0714C18.7121 28.3336 18.8785 28.5856 19.0652 28.8138L19.5473 29.5391L19.1636 30.3973L19.1569 30.4007Z" fill="var(--fill-0, #323232)"/>
</g>
</g>
</svg>
