<svg preserveAspectRatio="xMidYMid meet" width="100%" height="100%" overflow="visible" style="display: block;" viewBox="0 0 100 100" fill="none" xmlns="http://www.w3.org/2000/svg">
<g id="Mask Group">
<mask id="mask0_0_149" style="mask-type:alpha" maskUnits="userSpaceOnUse" x="0" y="0" width="100" height="100">
<circle id="Ellipse" cx="50" cy="50" r="50" fill="var(--fill-0, #D9D9D9)"/>
</mask>
<g mask="url(#mask0_0_149)">
<g id="Group">
<path id="Vector" d="M50.7743 85.5021C51.2239 85.6231 51.7991 85.3528 51.8963 84.8685C51.9246 84.7233 51.957 84.574 51.9854 84.4287H50.1384C50.0655 84.8968 50.2923 85.373 50.7743 85.5061V85.5021Z" fill="var(--fill-0, #323232)"/>
<path id="Vector_2" d="M52.8035 84.8643C53.0222 85.9982 54.7356 85.5342 54.5655 84.4245H52.7266C52.7549 84.5698 52.7752 84.7191 52.8035 84.8643Z" fill="var(--fill-0, #323232)"/>
<path id="Vector_3" d="M40.852 85.3243C41.1314 86.3291 42.5564 86.0547 42.6374 85.1791C42.8196 85.0782 42.9653 84.9006 43.022 84.6222C43.0341 84.5536 43.0503 84.4891 43.0625 84.4245H40.6172C40.6982 84.7231 40.767 85.0257 40.852 85.3243Z" fill="var(--fill-0, #323232)"/>
<path id="Vector_4" d="M51.9844 84.4248H52.7216C52.6 83.755 52.4907 83.0811 52.3894 82.4072C52.2558 83.0811 52.118 83.751 51.9844 84.4248Z" fill="var(--fill-0, #CBB0EC)"/>
<path id="Vector_5" d="M42.3109 79.3807C41.9221 79.2798 41.5373 79.1789 41.1484 79.078C41.355 79.9456 41.5697 80.8132 41.7844 81.6807C41.9545 80.9141 42.1287 80.1474 42.3069 79.3807H42.3109Z" fill="var(--fill-0, #CBB0EC)"/>
<path id="Vector_6" d="M62.2656 79.2961C62.4357 80.0103 62.5937 80.7245 62.7517 81.4388C62.9988 80.5954 63.2458 79.752 63.4929 78.9087C63.0838 79.0378 62.6747 79.171 62.2656 79.2961Z" fill="var(--fill-0, #CBB0EC)"/>
<path id="Vector_7" d="M66.7438 50.5131C66.6507 50.5453 66.5535 50.5776 66.4563 50.5937C65.9989 50.6745 65.5697 50.6341 65.1446 50.4808C64.4442 53.0754 63.1002 55.5207 61.25 57.4697C61.254 57.4939 61.2621 57.5181 61.2662 57.5424C61.5253 60.1814 61.9059 63.0585 63.42 65.3142C64.5738 67.0331 66.3592 67.7877 68.1365 68.7078C69.2417 69.2808 70.3348 69.8901 71.3995 70.5357C70.3267 63.7727 67.8045 57.2801 66.7438 50.5171V50.5131Z" fill="var(--fill-0, #CBB0EC)"/>
<path id="Vector_8" d="M59.6137 58.9629C58.885 59.5278 58.0996 60.0161 57.2656 60.4236C57.4397 60.7787 57.5936 61.1338 57.7231 61.4607C58.5611 63.5872 58.9133 65.9397 59.472 68.151C60.2615 71.2743 61.0793 74.3935 61.8444 77.5248C62.6015 77.2908 63.3586 77.0527 64.1116 76.8065C64.7674 74.571 65.4192 72.3396 66.0751 70.1041C66.1115 69.983 66.1642 69.8862 66.2289 69.8014C65.897 69.6279 65.565 69.4544 65.2371 69.2769C61.3343 67.1705 60.14 63.0586 59.6137 58.9629Z" fill="var(--fill-0, white)"/>
<path id="Vector_9" d="M71.7125 72.8721C70.4453 72.0529 69.1336 71.3427 67.8098 70.6446C67.6316 71.2499 67.4535 71.8552 67.2794 72.4605C66.1094 76.4513 64.9434 80.4381 63.7734 84.4249H81.9551C81.1819 81.9634 79.7163 79.7924 77.939 77.9201C76.0929 75.9751 73.9594 74.3248 71.7125 72.8721Z" fill="var(--fill-0, white)"/>
<path id="Vector_10" d="M61.5795 84.6224C61.6079 84.7636 61.6605 84.8806 61.7293 84.9734C61.5715 85.9984 63.1949 86.3979 63.5107 85.3205C63.5997 85.0219 63.6848 84.7192 63.7738 84.4206H61.5391C61.5512 84.4852 61.5674 84.5538 61.5795 84.6183V84.6224Z" fill="var(--fill-0, #323232)"/>
<path id="Vector_11" d="M56.4205 63.3491C56.1735 62.4008 55.8335 61.4081 55.2667 60.6011C55.1128 60.3872 54.9468 60.1734 54.708 60.0604C54.7323 60.0886 54.4853 60.0442 54.5744 60.0281C54.4448 60.0523 54.372 60.0685 54.2707 60.1209C53.6513 60.4437 53.5258 61.2185 53.5137 61.8964C55.0764 61.7108 56.3436 63.1392 56.6877 64.5798C57.5864 68.3164 58.2504 72.1256 58.9953 75.8945C59.222 77.0365 57.465 77.5247 57.2383 76.3787C56.6634 73.4653 56.0764 70.5519 55.4691 67.6425C55.2991 66.8234 55.1371 66.0042 54.959 65.1891C54.8456 64.6726 54.6149 64.0754 54.121 63.7889C53.0238 63.1473 53.04 65.1205 53.0643 66.1414C53.5744 66.1213 54.0886 66.2665 54.4813 66.6539C55.3922 67.5497 55.5136 69.192 55.7322 70.3784C56.1573 72.6785 56.5177 74.9947 56.8658 77.3068C57.0399 78.4528 55.2829 78.9411 55.1088 77.7911C54.7606 75.4789 54.4003 73.1627 53.9752 70.8626C53.8578 70.2251 53.7485 69.5794 53.5825 68.954C53.5177 68.7118 53.3355 68.0218 53.2262 67.9653C52.7485 67.7071 52.5987 68.4859 52.619 68.7845C52.708 70.2614 52.9509 71.7423 53.1129 73.2111C53.5299 76.9356 53.8456 80.7004 54.5541 84.3805C54.5541 84.3967 54.5541 84.4088 54.5541 84.4209H61.5297C60.3556 78.6425 58.7767 72.9569 57.3516 67.239C57.0278 65.9437 56.7484 64.6363 56.4124 63.3491H56.4205Z" fill="var(--fill-0, white)"/>
<path id="Vector_12" d="M42.6287 57.4496L42.3575 60.246C42.4708 60.1895 42.6004 60.1573 42.7461 60.1573C43.1915 60.1613 43.7218 60.5769 43.657 61.0652C43.3817 63.1393 43.2279 65.5685 41.9891 67.348C41.1834 68.502 39.9891 69.2284 38.7422 69.8296C38.8272 69.9265 38.896 70.0435 38.9365 70.1968C39.5721 72.4929 40.1227 74.805 40.6733 77.1212C40.7664 77.1172 40.8595 77.1212 40.9527 77.1454C41.5437 77.3068 42.1389 77.4561 42.7299 77.6095C42.9486 76.7056 43.1753 75.8017 43.402 74.8978C44.0781 72.2306 44.7785 69.5673 45.4424 66.896C45.7622 65.6088 46.0861 64.3216 46.3736 63.0303C46.5517 62.2313 46.6934 61.4283 46.997 60.6617C47.0132 60.6213 47.0294 60.5809 47.0497 60.5446C45.4019 59.7981 43.904 58.7328 42.6287 57.4456V57.4496Z" fill="var(--fill-0, white)"/>
<path id="Vector_13" d="M51.56 76.7819C51.5721 76.685 51.6126 76.6043 51.6652 76.5277C51.4992 75.0387 51.3332 73.5537 51.1673 72.0647C51.066 72.5732 50.9689 73.0816 50.8677 73.59C50.5964 74.9337 50.3252 76.2775 50.0499 77.6171C49.8151 78.7631 48.058 78.2749 48.2929 77.1329C48.5884 75.7004 48.8758 74.2679 49.1633 72.8354C49.3616 71.8347 49.56 70.834 49.7543 69.8333C49.9406 68.8608 50.143 67.7592 50.8353 67.0086C50.9648 66.8674 51.1065 66.7907 51.2523 66.7504C51.2523 66.714 51.2482 66.6818 51.2523 66.6455C51.2968 65.9756 51.2685 65.2009 51.3454 64.4705C51.2887 64.3857 51.2401 64.2929 51.2118 64.1759C51.1349 63.8773 50.8596 63.5424 50.6167 63.5585C50.3778 63.5787 50.1713 64.1275 50.0782 64.3857C49.6126 65.7295 49.4305 67.1983 49.139 68.5864C48.7058 70.6524 48.2645 72.7144 47.8273 74.7804C47.5844 75.9264 45.8273 75.4381 46.0702 74.2962C46.6573 71.5523 47.2362 68.8043 47.8151 66.0563C48.0904 64.7368 48.2888 62.9089 49.5236 62.0857C50.0256 61.7508 50.5843 61.6902 51.1025 61.8194C51.0822 61.1657 50.9446 60.4434 50.3495 60.1326C49.9406 59.9188 49.479 60.0802 49.1066 60.5563C49.0742 60.6249 49.0297 60.6855 48.9811 60.742C48.5519 61.4239 48.4022 62.2794 48.2402 63.0541C47.9649 64.3615 47.641 65.6528 47.3172 66.9481C45.8759 72.7628 44.2646 78.5372 43.0703 84.4084H50.147C50.147 84.4084 50.147 84.3801 50.147 84.368C50.6491 81.838 51.1916 79.32 51.5681 76.7657L51.56 76.7819Z" fill="var(--fill-0, white)"/>
<path id="Vector_14" d="M52.6169 53.4185C52.6169 53.4185 52.5561 53.4266 52.5156 53.4347C52.5602 53.4347 52.6088 53.4306 52.6169 53.4185Z" fill="var(--fill-0, white)"/>
<path id="Vector_15" d="M50.4531 52.2888C50.5058 52.3776 50.5503 52.4704 50.611 52.5592C50.6232 52.5794 50.6394 52.5995 50.6515 52.6157C50.7041 52.6641 50.7487 52.7287 50.8013 52.7811C50.862 52.8417 50.9227 52.9022 50.9835 52.9546C50.9997 52.9708 51.0644 53.0192 51.0887 53.0394C51.113 53.0555 51.1414 53.0717 51.1495 53.0797C51.2021 53.116 51.2547 53.1483 51.3114 53.1766C51.3721 53.2129 51.4369 53.2411 51.5017 53.2734C51.5017 53.2734 51.5017 53.2734 51.5098 53.2734C51.6231 53.3097 51.7365 53.3501 51.8539 53.3783C51.9146 53.3945 51.9713 53.4025 52.032 53.4147C52.0482 53.4147 52.0685 53.4187 52.0685 53.4187C52.1899 53.4267 52.3073 53.4308 52.4288 53.4268C52.4409 53.4268 52.4814 53.4268 52.5259 53.4268C52.534 53.4268 52.5259 53.4268 52.5421 53.4227C52.5664 53.4187 52.5907 53.4146 52.6191 53.4106C52.7446 53.3864 52.8701 53.3541 52.9875 53.3138C53.0199 53.3017 53.0522 53.2896 53.0846 53.2815C53.0968 53.2815 53.1008 53.2775 53.1089 53.2734C53.1332 53.2573 53.1575 53.2411 53.1737 53.2371C53.283 53.1806 53.3802 53.116 53.4854 53.0515C53.4935 53.0515 53.4935 53.0474 53.4976 53.0434C53.5016 53.0434 53.5016 53.0394 53.5097 53.0313C53.5543 52.991 53.6028 52.9506 53.6474 52.9062C53.7 52.8578 53.7486 52.8013 53.7972 52.7488C53.8053 52.7367 53.8174 52.7287 53.8255 52.7166C53.8943 52.6036 53.9753 52.4987 54.036 52.3857C54.0522 52.3534 54.0725 52.3171 54.0887 52.2808H50.4653L50.4531 52.2888Z" fill="var(--fill-0, white)"/>
<path id="Vector_16" d="M75.9045 49.3949C75.7789 49.4918 75.6493 49.5765 75.5156 49.6532C75.71 49.7863 75.8923 49.9356 76.0543 50.1132C76.1718 50.2464 76.2731 50.3876 76.3622 50.5369C76.4513 50.3755 76.5485 50.2221 76.6619 50.0728C76.7996 49.8953 76.9535 49.746 77.1156 49.6128C76.9738 49.524 76.8401 49.4272 76.7105 49.3142C76.5768 49.2012 76.4634 49.0802 76.3541 48.9551C76.2245 49.1125 76.0827 49.2618 75.9085 49.3949H75.9045Z" fill="var(--fill-0, #FDC95C)"/>
<path id="Vector_17" d="M38.7286 50.4887C38.6112 50.5371 38.4897 50.5734 38.3683 50.5936C37.8339 50.6904 37.34 50.6299 36.8461 50.4039C36.4493 50.2224 36.1092 49.8915 35.8866 49.5202C35.6599 49.1409 35.5303 48.6527 35.5708 48.2128C35.591 47.9828 35.6437 47.773 35.7165 47.5712C35.3967 47.313 35.1052 47.0103 34.8704 46.6633C34.838 46.6149 34.8097 46.5584 34.7773 46.51L34.2996 49.2297C34.8623 48.81 35.8461 49.0239 35.753 49.8874C34.9919 57.0781 33.5789 64.3052 31.1094 71.1247C32.8826 70.366 34.6882 69.668 36.4534 68.8892C37.8622 68.2677 39.6233 67.6261 40.514 66.2824C41.4856 64.8096 41.6071 62.7597 41.8338 61.0649C41.8824 60.7139 42.0524 60.391 42.356 60.2458L42.6273 57.4494C40.7245 55.5286 39.3318 53.1115 38.7286 50.4887Z" fill="var(--fill-0, #CBB0EC)"/>
<path id="Vector_18" d="M37.158 70.5435C34.7937 71.5684 32.3767 72.4723 30.0488 73.582C27.81 74.6513 25.2676 76.0192 23.794 78.0812C22.4458 79.9697 21.8021 82.2899 20.875 84.4246H40.6154C39.3968 79.8608 38.4373 75.2324 37.1823 70.6807C37.1701 70.6323 37.1661 70.5879 37.158 70.5435Z" fill="var(--fill-0, white)"/>
<path id="Vector_19" d="M19.8281 27.7099C20.1724 27.9399 20.4803 28.2183 20.7192 28.5774C20.7638 28.646 20.7962 28.7146 20.8367 28.7832C20.8934 28.6662 20.9542 28.5492 21.023 28.4362C21.2215 28.1174 21.4605 27.8672 21.7197 27.6574C21.501 27.5202 21.2903 27.3628 21.104 27.1692C21.0068 27.0683 20.9299 26.9593 20.8488 26.8544C20.7557 26.9795 20.6504 27.1006 20.5329 27.2135C20.3182 27.4193 20.0793 27.5807 19.8281 27.7099Z" fill="var(--fill-0, #FDC95C)"/>
<path id="Vector_20" d="M67.1166 39.8317C66.5741 39.4524 65.6389 39.8196 65.1167 40.094C64.9912 40.1586 64.8697 40.1909 64.7483 40.203C64.2786 40.4047 63.6957 40.2716 63.5985 39.634C63.3232 37.8424 62.9184 35.9741 62.3192 34.1623C62.2706 34.1704 62.218 34.1784 62.1613 34.1784C58.8213 34.1663 55.542 33.0001 52.7243 31.2569C50.4086 29.8244 48.186 27.9158 46.7892 25.5391C46.4775 26.0515 46.0767 26.4712 45.6638 26.8828C44.3804 31.3417 43.0485 36.1113 39.6032 39.3959C39.506 40.0133 38.664 40.5177 38.0364 39.9649C37.6842 39.6542 37.0608 39.5856 36.6073 39.6461C36.5183 39.6582 36.4292 39.6784 36.3442 39.7066C36.3361 39.7066 36.332 39.7066 36.328 39.7107C36.328 39.7107 36.328 39.7147 36.3199 39.7187C36.1944 39.8479 36.0972 40.0093 36.0203 40.1747C35.6033 41.0463 35.5871 42.1157 35.6559 43.0599C35.7167 43.9234 35.8826 44.9968 36.4211 45.711C36.5749 45.9128 36.7571 46.0903 36.9595 46.2437C37.4858 46.0177 38.1012 45.9814 38.6275 46.1751C39.1174 46.3566 39.4979 46.6512 39.8016 47.0749C39.8421 47.1314 39.8744 47.196 39.9068 47.2565C40.0971 47.4219 40.2186 47.656 40.2226 47.9304C40.3319 52.7 43.7043 57.2315 48.1009 59.0312C48.7689 58.4098 49.6353 58.0628 50.6231 58.3291C51.4005 58.5389 51.9348 59.0272 52.2992 59.6365C52.7445 58.8536 53.453 58.2806 54.4894 58.2363C55.1898 58.208 55.7566 58.4905 56.2181 58.9303C60.1897 57.0338 62.9831 53.0107 63.6957 48.693C63.6714 48.5356 63.6592 48.3742 63.6754 48.2209C63.6997 47.9707 63.7564 47.7367 63.8414 47.5188C63.8414 47.4905 63.8495 47.4583 63.8495 47.43C63.8778 46.9982 64.1288 46.7117 64.4973 46.5866C64.9466 46.2073 65.5661 46.0177 66.1571 46.0621C66.3717 45.9491 66.5782 45.8159 66.7604 45.6505C67.4688 45.0089 67.7725 43.9153 67.898 43.0034C68.0235 42.0713 68.0032 40.4612 67.1207 39.8438L67.1166 39.8317ZM52.283 46.3688C53.4571 46.3688 53.4571 48.1846 52.283 48.1846C51.109 48.1846 51.109 46.3688 52.283 46.3688ZM43.7367 36.7004C43.6638 36.4825 43.7124 36.196 43.8298 36.0023C43.9594 35.7804 44.1456 35.6795 44.3723 35.5867C44.935 35.3486 45.5018 35.2034 46.1131 35.1307C46.8419 35.042 47.5706 35.1227 48.2912 35.2356C48.7932 35.3163 49.028 35.9176 48.9268 36.3534C48.8783 36.5713 48.6961 36.7852 48.5098 36.8941C48.2831 37.0273 48.0564 37.0273 47.8095 36.9869C47.7609 36.9789 47.7082 36.9708 47.6597 36.9627C47.4451 36.9546 47.5908 36.9506 47.6475 36.9627C47.6475 36.9627 47.6556 36.9627 47.6597 36.9627C47.6637 36.9627 47.6678 36.9627 47.6718 36.9627C47.5908 36.9627 47.5099 36.9425 47.4329 36.9345C47.2751 36.9183 47.1172 36.9103 46.9552 36.9062C46.8095 36.9022 46.6637 36.9062 46.518 36.9062C46.4451 36.9062 46.3723 36.9143 46.2994 36.9224C46.2791 36.9224 46.2346 36.9304 46.1982 36.9345C46.1617 36.9385 46.1253 36.9466 46.1091 36.9506C46.0443 36.9627 45.9795 36.9748 45.9148 36.991C45.7933 37.0192 45.6759 37.0474 45.5585 37.0838C45.3237 37.1564 45.0929 37.2411 44.8622 37.338C44.6435 37.4308 44.3602 37.3501 44.1618 37.2452C43.9513 37.1362 43.8136 36.9224 43.7448 36.7045L43.7367 36.7004ZM48.2224 40.1747C48.1738 40.3926 47.9916 40.6065 47.8054 40.7154C47.5949 40.8365 47.3358 40.8647 47.105 40.8082C47.0362 40.7921 46.9714 40.78 46.9026 40.7679C46.7407 40.7518 46.5787 40.7518 46.4168 40.7679C46.0241 40.8405 45.6557 40.9818 45.2832 41.127C45.0605 41.2158 44.7852 41.1432 44.5828 41.0342C44.3723 40.9253 44.2346 40.7114 44.1658 40.4935C44.093 40.2756 44.1415 39.9891 44.2589 39.7954C44.3885 39.5775 44.5747 39.4686 44.8014 39.3798C45.1698 39.2345 45.5423 39.0852 45.935 39.0126C46.4937 38.9117 47.0321 38.9238 47.5868 39.057C48.0807 39.178 48.3317 39.7066 48.2224 40.1747ZM55.0927 54.0195C54.1575 55.0969 52.5705 55.5004 51.2142 55.0929C49.6353 54.6167 48.5827 53.2044 48.3155 51.6185C48.3155 51.6064 48.3155 51.5943 48.3155 51.5782C48.2993 51.5136 48.2872 51.445 48.2831 51.3764C48.271 51.1141 48.4005 50.872 48.5908 50.7066C48.6151 50.6824 48.6394 50.6662 48.6677 50.6461C48.7446 50.5936 48.8256 50.5532 48.9106 50.521C48.9268 50.5169 48.9349 50.5048 48.9511 50.5008C48.9673 50.5008 48.9835 50.4968 48.9957 50.4927C49.024 50.4846 49.0483 50.4846 49.0766 50.4806C49.0969 50.4806 49.1171 50.4766 49.1373 50.4725C49.1576 50.4725 49.1738 50.4685 49.194 50.4685H55.2182C55.6797 50.4685 56.1655 50.8882 56.1291 51.3764C56.0521 52.357 55.7445 53.2649 55.0927 54.0195ZM60.2221 40.663C60.1168 40.8607 59.8901 41.0221 59.6796 41.0786C59.4448 41.1432 59.218 41.0988 59.0035 40.9979C58.7768 40.9091 58.542 40.8446 58.3031 40.8042C58.1452 40.7921 57.9873 40.7881 57.8294 40.8002C57.6877 40.8244 57.5501 40.8526 57.4165 40.9051C57.1898 40.9898 56.9185 40.9212 56.7161 40.8123C56.5056 40.7033 56.3679 40.4895 56.2991 40.2716C56.2262 40.0537 56.2748 39.7672 56.3922 39.5735C56.5177 39.3556 56.708 39.2426 56.9347 39.1579C57.3922 38.9843 57.9225 38.94 58.4084 38.9964C58.9387 39.061 59.4164 39.1861 59.8982 39.4201C60.1087 39.521 60.2464 39.747 60.3152 39.9609C60.3921 40.1949 60.3354 40.4491 60.2221 40.6589V40.663ZM60.7443 36.7004C60.6957 36.9183 60.5136 37.1322 60.3273 37.2411C60.1492 37.346 59.8253 37.4187 59.6269 37.3339C59.3921 37.2371 59.1533 37.1443 58.9104 37.0717C58.793 37.0353 58.6715 37.0071 58.55 36.9788C58.4853 36.9627 58.4205 36.9506 58.3517 36.9385C58.3395 36.9385 58.3193 36.9345 58.295 36.9304C58.2505 36.9264 58.1816 36.9183 58.1573 36.9143C58.0845 36.9102 58.0116 36.9022 57.9387 36.9022C57.793 36.8941 57.6472 36.8941 57.5015 36.9022C57.3396 36.9062 57.1817 36.9183 57.0238 36.9345C56.9833 36.9345 56.9428 36.9425 56.9064 36.9466C56.8942 36.9466 56.8537 36.9546 56.8335 36.9546C56.8254 36.9546 56.8133 36.9546 56.8092 36.9546C56.7647 36.9627 56.7242 36.9667 56.6797 36.9748C56.1736 37.0555 55.7242 36.8497 55.5582 36.3413C55.4894 36.1234 55.5339 35.8369 55.6513 35.6432C55.7566 35.4656 55.9833 35.2599 56.1938 35.2276C56.9145 35.1106 57.6432 35.0298 58.3719 35.1227C58.9792 35.1953 59.546 35.3446 60.1128 35.5786C60.3435 35.6755 60.5176 35.7844 60.6553 35.9943C60.7889 36.2001 60.801 36.4623 60.7484 36.6924L60.7443 36.7004Z" fill="var(--fill-0, white)"/>
<path id="Vector_21" d="M52.2794 46.3689C51.1048 46.3689 51.1048 48.1847 52.2794 48.1847C53.4541 48.1847 53.4541 46.3689 52.2794 46.3689Z" fill="var(--fill-0, #323232)"/>
<path id="Vector_22" d="M46.3848 24.821C45.8666 23.7759 47.4374 22.8559 47.9596 23.9051C49.1742 26.3544 51.3441 28.2671 53.6437 29.6875C56.0485 31.1724 58.7974 32.2135 61.6394 32.3386C60.3803 29.3445 58.4937 26.6692 55.6477 25.0268C54.6315 24.4417 55.5505 22.872 56.5667 23.4572C61.7447 26.4472 64.1495 32.4435 65.1737 38.113C65.6434 37.9597 66.1373 37.8668 66.6231 37.8709C66.9389 36.4263 67.036 34.909 67.032 33.4362C67.0158 29.3364 65.6393 25.4546 62.7892 22.4605C59.8743 19.3978 55.8906 17.8361 51.6802 17.8079C51.0243 17.8038 50.7369 17.2349 50.8138 16.7345C50.3361 16.9605 49.8584 16.9322 49.3806 16.9363C49.494 17.368 49.328 17.8442 48.7572 17.941C46.7248 18.284 44.8787 19.2525 43.2877 20.5397C40.3971 22.8842 38.0814 26.1486 36.8142 29.6431C35.883 32.2176 36.1097 35.1754 36.8668 37.7861C37.3688 37.7942 37.8749 37.8951 38.3364 38.0807C41.7574 34.7961 42.8869 29.8852 44.1662 25.4909C44.4941 24.3691 46.2512 24.8493 45.9232 25.9751C45.8382 26.2737 45.7492 26.5723 45.6641 26.875C46.0771 26.4634 46.4819 26.0437 46.7896 25.5312C46.652 25.2972 46.5103 25.0591 46.3888 24.817L46.3848 24.821Z" fill="var(--fill-0, #CBB0EC)"/>
<path id="Vector_23" d="M60.7375 36.7008C60.7901 36.4667 60.778 36.2085 60.6444 36.0027C60.5067 35.7888 60.3327 35.6839 60.1019 35.5871C59.5392 35.349 58.9724 35.2037 58.3611 35.1311C57.6323 35.0423 56.9036 35.123 56.183 35.236C55.9725 35.2683 55.7417 35.4781 55.6405 35.6516C55.5271 35.8453 55.4785 36.1318 55.5474 36.3497C55.7133 36.8581 56.1627 37.0639 56.6688 36.9832C56.7133 36.9752 56.7538 36.9711 56.7983 36.963C56.8024 36.963 56.8145 36.963 56.8226 36.963C56.8469 36.963 56.8834 36.955 56.8955 36.955C56.936 36.9509 56.9765 36.9469 57.0129 36.9429C57.1708 36.9267 57.3327 36.9146 57.4906 36.9106C57.6364 36.9066 57.7821 36.9066 57.9279 36.9106C58.0007 36.9106 58.0736 36.9187 58.1465 36.9227C58.1708 36.9227 58.2396 36.9308 58.2841 36.9388C58.3084 36.9388 58.3287 36.9469 58.3408 36.9469C58.4056 36.959 58.4704 36.9711 58.5392 36.9873C58.6606 37.0155 58.778 37.0438 58.8995 37.0801C59.1424 37.1527 59.3813 37.2415 59.6161 37.3424C59.8185 37.4271 60.1383 37.3545 60.3165 37.2496C60.5067 37.1406 60.6849 36.9227 60.7335 36.7088L60.7375 36.7008Z" fill="var(--fill-0, #323232)"/>
<path id="Vector_24" d="M48.2816 35.2317C47.561 35.1147 46.8322 35.034 46.1035 35.1268C45.4962 35.2035 44.9294 35.3487 44.3627 35.5828C44.1319 35.6796 43.9497 35.7765 43.8202 35.9984C43.7068 36.1921 43.6582 36.4786 43.727 36.6965C43.7999 36.9144 43.9335 37.1283 44.144 37.2372C44.3424 37.3421 44.6258 37.4228 44.8444 37.33C45.0711 37.2332 45.3019 37.1484 45.5408 37.0758C45.6582 37.0395 45.7796 37.0072 45.897 36.983C45.9618 36.9669 46.0266 36.9548 46.0914 36.9426C46.1075 36.9426 46.144 36.9346 46.1804 36.9265C46.2169 36.9225 46.2654 36.9184 46.2816 36.9144C46.3545 36.9063 46.4274 36.9023 46.5003 36.8983C46.646 36.8902 46.7917 36.8902 46.9375 36.8983C47.0954 36.9023 47.2533 36.9144 47.4152 36.9265C47.4962 36.9346 47.5771 36.9507 47.6541 36.9548C47.65 36.9548 47.646 36.9548 47.6419 36.9548C47.6905 36.9628 47.7431 36.9709 47.7917 36.979C48.0427 37.0193 48.2694 37.0193 48.4921 36.8862C48.6824 36.7772 48.8605 36.5593 48.9091 36.3454C49.0103 35.9096 48.7755 35.3084 48.2735 35.2277L48.2816 35.2317Z" fill="var(--fill-0, #323232)"/>
<path id="Vector_25" d="M47.6475 36.9585C47.6475 36.9585 47.6394 36.9585 47.6354 36.9585C47.5746 36.9504 47.4288 36.9504 47.6475 36.9585Z" fill="var(--fill-0, #323232)"/>
<path id="Vector_26" d="M74.6956 72.7187C74.2786 72.4121 73.8495 72.1175 73.4204 71.827C72.3475 63.4781 68.7889 55.5651 68.1776 47.1436C68.1695 47.0387 68.1452 46.9419 68.1088 46.8572C69.1897 45.7878 69.6391 44.1334 69.7403 42.6605C69.8375 41.2684 69.4812 39.4526 68.3355 38.4962C68.3476 38.4599 68.3638 38.4276 68.3719 38.3873C69.2019 34.6386 69.0966 30.3653 67.6594 26.7901C66.125 22.9728 63.2708 19.6882 59.5705 17.8279C57.1172 16.5932 54.4168 16.0202 51.676 16C51.1578 16 50.8704 16.347 50.8096 16.7425C50.7327 17.2428 51.0202 17.8118 51.676 17.8158C55.8864 17.8441 59.8701 19.4017 62.785 22.4684C65.6352 25.4625 67.0076 29.3444 67.0278 33.4441C67.0359 34.921 66.9347 36.4342 66.6189 37.8788C66.1331 37.8748 65.6392 37.9676 65.1696 38.121C64.1453 32.4515 61.7405 26.4552 56.5625 23.4651C55.5464 22.88 54.6274 24.4457 55.6435 25.0348C58.4896 26.6771 60.3762 29.3484 61.6353 32.3466C58.7932 32.2215 56.0443 31.1844 53.6395 29.6955C51.34 28.2751 49.17 26.3624 47.9555 23.913C47.4373 22.8639 45.8624 23.7839 46.3806 24.829C46.5021 25.0752 46.6438 25.3092 46.7814 25.5432C46.9191 25.3173 47.0405 25.0792 47.1296 24.8088C47.0405 25.0792 46.915 25.3173 46.7814 25.5432C48.1781 27.92 50.4007 29.8286 52.7165 31.2611C55.5342 33.0043 58.8135 34.1705 62.1535 34.1826C62.2101 34.1826 62.2587 34.1745 62.3114 34.1665C62.9065 35.9742 63.3154 37.8425 63.5907 39.6382C63.6878 40.2757 64.2708 40.4089 64.7404 40.2071C64.8579 40.1991 64.9834 40.1628 65.1089 40.0982C65.6311 39.8278 66.5703 39.4566 67.1088 39.8359C67.9914 40.4533 68.0116 42.0633 67.8861 42.9955C67.7606 43.9074 67.457 45.001 66.7485 45.6426C66.5663 45.808 66.3639 45.9412 66.1453 46.0541C65.5542 46.0098 64.9348 46.1994 64.4854 46.5787C64.117 46.6998 63.87 46.9863 63.8376 47.4221C63.8376 47.4503 63.8295 47.4826 63.8295 47.5109C63.7445 47.7288 63.6878 47.9628 63.6636 48.213C63.6474 48.3663 63.6635 48.5277 63.6838 48.6851C62.9753 52.9987 60.1819 57.0258 56.2063 58.9224C55.7447 58.4866 55.1779 58.2001 54.4776 58.2283C53.4412 58.2727 52.7327 58.8457 52.2873 59.6285C51.923 59.0192 51.3886 58.531 50.6113 58.3211C49.6234 58.0548 48.7571 58.4018 48.0891 59.0233C43.6924 57.2236 40.3201 52.688 40.2107 47.9224C40.2026 47.648 40.0812 47.414 39.895 47.2486C39.8626 47.188 39.8302 47.1235 39.7897 47.067C39.4861 46.6433 39.1055 46.3528 38.6156 46.1671C38.0893 45.9694 37.474 46.0098 36.9477 46.2357C36.7452 46.0824 36.559 45.9089 36.4092 45.7031C35.8708 44.9888 35.7088 43.9155 35.6441 43.052C35.5752 42.1077 35.5914 41.0384 36.0084 40.1668C36.0854 40.0054 36.1825 39.844 36.308 39.7108C36.3121 39.7068 36.3121 39.7068 36.3161 39.7027C36.3242 39.7027 36.3242 39.7027 36.3323 39.6987C36.4173 39.6705 36.5064 39.6503 36.5955 39.6382C37.0448 39.5817 37.6723 39.6463 38.0246 39.957C38.6521 40.5138 39.4942 40.0054 39.5913 39.388C43.0366 36.1033 44.3685 31.3378 45.6519 26.8748C45.0325 27.4963 44.4009 28.1056 44.0932 29.0377C44.405 28.1096 45.0325 27.4963 45.6519 26.8748C45.7369 26.5722 45.826 26.2736 45.911 25.975C46.2389 24.8492 44.4819 24.369 44.154 25.4908C42.8706 29.8811 41.7411 34.7959 38.3242 38.0806C37.8667 37.895 37.3566 37.7941 36.8546 37.786C36.0975 35.1753 35.8708 32.2175 36.8019 29.643C38.0691 26.1485 40.3848 22.884 43.2754 20.5396C44.8665 19.2483 46.7126 18.2839 48.7449 17.9409C49.3158 17.8441 49.4817 17.3679 49.3684 16.9362C48.8218 16.9402 48.2793 16.9967 47.7328 17.5414C48.2793 16.9967 48.8218 16.9442 49.3684 16.9362C49.251 16.4923 48.8421 16.0928 48.2591 16.1897C44.2025 16.8797 40.8666 19.8092 38.4497 22.9728C35.9558 26.2413 34.1259 30.0949 34.4214 34.2754C34.5186 35.6353 34.7291 37.0274 35.1137 38.3429C35.0975 38.355 35.0773 38.3631 35.0611 38.3792C33.9923 39.3719 33.7777 41.1191 33.7939 42.4911C33.8101 43.8267 34.0409 45.352 34.7696 46.5101C34.802 46.5626 34.8303 46.615 34.8627 46.6635C35.1016 47.0105 35.389 47.3091 35.7088 47.5714C35.636 47.7731 35.5833 47.983 35.5631 48.213C35.5186 48.6568 35.6522 49.1411 35.8789 49.5204C36.1015 49.8916 36.4416 50.2225 36.8384 50.4041C37.3323 50.6301 37.8262 50.6906 38.3606 50.5937C38.482 50.5736 38.6035 50.5373 38.7209 50.4888C39.3201 53.1117 40.7168 55.5288 42.6196 57.4495C43.8949 58.7368 45.3928 59.8021 47.0405 60.5486C47.0243 60.5889 47.0041 60.6252 46.9879 60.6656C46.6843 61.4282 46.5426 62.2353 46.3644 63.0343C46.077 64.3296 45.7531 65.6168 45.4333 66.9C44.7653 69.5713 44.0689 72.2345 43.3928 74.9018C43.1661 75.8057 42.9394 76.7095 42.7208 77.6134C42.1257 77.4601 41.5346 77.3067 40.9435 77.1494C40.8545 77.1252 40.7573 77.1211 40.6642 77.1252C40.1136 74.809 39.5589 72.4928 38.9274 70.2008C38.8869 70.0515 38.8181 69.9304 38.733 69.8336C39.98 69.2283 41.1743 68.506 41.9799 67.3519C43.2188 65.5764 43.3726 63.1432 43.6479 61.0691C43.7127 60.5809 43.1823 60.1652 42.737 60.1612C42.5872 60.1612 42.4576 60.1935 42.3483 60.25C42.0488 60.3993 41.8747 60.7181 41.8261 61.0691C41.5994 62.7639 41.4779 64.8138 40.5063 66.2866C39.6156 67.6303 37.8586 68.2719 36.4457 68.8934C34.6805 69.6721 32.8749 70.3662 31.1017 71.1289C33.5713 64.3094 34.9842 57.0823 35.7453 49.8916C35.8384 49.0281 34.8546 48.8142 34.2919 49.2339C34.0975 49.3791 33.9559 49.597 33.9235 49.8916C33.1259 57.4253 31.5672 65.0075 28.8183 72.0892C28.8062 72.1175 28.8021 72.1457 28.794 72.174C26.5917 73.2514 24.2436 74.6314 22.6808 76.5522C20.8186 78.8361 20.1627 81.8302 18.8672 84.4289H20.8671C21.7902 82.2942 22.4379 79.974 23.7861 78.0855C25.2597 76.0235 27.8022 74.6556 30.041 73.5863C32.3648 72.4766 34.7858 71.5768 37.1501 70.5478C37.1582 70.5922 37.1622 70.6366 37.1744 70.685C38.4335 75.2367 39.3889 79.8691 40.6075 84.4289H43.0528C44.243 78.5577 45.8584 72.7833 47.2996 66.9686C47.6194 65.6733 47.9474 64.378 48.2227 63.0746C48.3846 62.2999 48.5344 61.4444 48.9635 60.7624C49.0121 60.7059 49.0526 60.6454 49.089 60.5768C49.4615 60.0966 49.923 59.9393 50.3319 60.1531C50.9271 60.4638 51.0647 61.1861 51.0849 61.8398C50.5667 61.7107 50.008 61.7712 49.506 62.1062C48.2713 62.9293 48.0769 64.7573 47.7976 66.0768C47.2227 68.8248 46.6397 71.5727 46.0527 74.3167C45.8098 75.4546 47.5668 75.9429 47.8097 74.8009C48.251 72.7389 48.6882 70.6729 49.1214 68.6069C49.4129 67.2188 49.5951 65.7499 50.0607 64.4062C50.1497 64.1439 50.3603 63.5951 50.5991 63.579C50.842 63.5588 51.1214 63.8978 51.1942 64.1964C51.2226 64.3134 51.2712 64.4062 51.3279 64.491C51.2509 65.2213 51.2793 65.9921 51.2347 66.6659C51.2347 66.7022 51.2347 66.7345 51.2347 66.7709C51.089 66.8072 50.9473 66.8879 50.8177 67.0291C50.1255 67.7796 49.923 68.8853 49.7368 69.8537C49.5425 70.8545 49.3481 71.8552 49.1457 72.8559C48.8583 74.2884 48.5668 75.7209 48.2753 77.1534C48.0405 78.2954 49.7975 78.7836 50.0323 77.6376C50.3076 76.2939 50.5789 74.9502 50.8501 73.6105C50.9513 73.1021 51.0526 72.5936 51.1497 72.0852C51.3157 73.5742 51.4817 75.0591 51.6477 76.5481C51.5991 76.6248 51.5586 76.7095 51.5424 76.8023C51.17 79.3566 50.6234 81.8746 50.1214 84.4047C50.1214 84.4168 50.1214 84.4329 50.1214 84.445H51.9675C52.1011 83.7711 52.2347 83.1013 52.3724 82.4274C52.4736 83.1013 52.5829 83.7752 52.7043 84.445H54.5423C54.5423 84.445 54.5423 84.4168 54.5423 84.4047C53.8298 80.7246 53.514 76.9597 53.1011 73.2352C52.9351 71.7664 52.6962 70.2815 52.6072 68.8086C52.5869 68.506 52.7367 67.7312 53.2144 67.9895C53.3238 68.05 53.5059 68.736 53.5707 68.9781C53.7326 69.6076 53.842 70.2492 53.9634 70.8867C54.3885 73.1868 54.7488 75.503 55.097 77.8152C55.2711 78.9652 57.0241 78.4769 56.854 77.331C56.5058 75.0188 56.1455 72.7026 55.7204 70.4025C55.5018 69.2121 55.3804 67.5698 54.4695 66.678C54.0768 66.2907 53.5626 66.1454 53.0525 66.1656C53.0282 65.1447 53.012 63.1714 54.1092 63.813C54.599 64.0995 54.8338 64.6968 54.9472 65.2133C55.1253 66.0284 55.2873 66.8475 55.4573 67.6667C56.0605 70.576 56.6516 73.4854 57.2265 76.4029C57.4532 77.5489 59.2102 77.0646 58.9835 75.9186C58.2426 72.1498 57.5746 68.3405 56.6759 64.6039C56.3318 63.1634 55.0646 61.7349 53.5019 61.9205C53.514 61.2467 53.6395 60.4679 54.2589 60.1451C54.3602 60.0926 54.433 60.0724 54.5626 60.0522C54.4695 60.0684 54.7205 60.1128 54.6962 60.0845C54.935 60.1975 55.101 60.4073 55.2549 60.6252C55.8257 61.4323 56.1617 62.429 56.4087 63.3732C56.7488 64.6645 57.0281 65.9719 57.3479 67.2631C58.773 72.981 60.3519 78.6666 61.526 84.445H63.7607C64.9307 80.4582 66.0967 76.4674 67.2667 72.4807C67.4448 71.8754 67.623 71.2701 67.797 70.6648C69.1209 71.3629 70.4326 72.0731 71.6998 72.8922C73.9467 74.3449 76.0802 75.9953 77.9263 77.9403C79.7036 79.8166 81.1691 81.9835 81.9424 84.445H83.8371C82.5092 79.514 78.7036 75.6806 74.6754 72.7389L74.6956 72.7187ZM38.3687 48.3744C38.3565 48.4309 38.3404 48.4833 38.3242 48.5398C38.3039 48.5761 38.2796 48.6165 38.2553 48.6528C38.231 48.677 38.2108 48.7012 38.1865 48.7214C38.1501 48.7456 38.1136 48.7658 38.0732 48.786C38.0327 48.7981 37.9922 48.8102 37.9476 48.8223C37.9031 48.8223 37.8586 48.8223 37.814 48.8223C37.7736 48.8142 37.729 48.8021 37.6885 48.786C37.6521 48.7658 37.6116 48.7416 37.5752 48.7214C37.5509 48.6972 37.5266 48.677 37.5064 48.6528C37.4821 48.6165 37.4618 48.5802 37.4416 48.5398C37.4294 48.4995 37.4173 48.4591 37.4051 48.4147C37.4051 48.3703 37.4051 48.326 37.4051 48.2816C37.4132 48.2412 37.4254 48.1968 37.4416 48.1565C37.4618 48.1202 37.4861 48.0798 37.5064 48.0435C37.5306 48.0193 37.5509 47.9951 37.5752 47.9749C37.6116 47.9507 37.6481 47.9305 37.6885 47.9103C37.729 47.8982 37.7695 47.8861 37.814 47.874C37.8586 47.874 37.9031 47.874 37.9476 47.874C37.9881 47.8821 38.0327 47.8942 38.0732 47.9103C38.1096 47.9305 38.1501 47.9547 38.1865 47.9749C38.2108 47.9991 38.2351 48.0193 38.2553 48.0435C38.2796 48.0798 38.2999 48.1161 38.3201 48.1565C38.3363 48.2089 38.3565 48.2654 38.3646 48.3219C38.3646 48.33 38.3646 48.3381 38.3646 48.3502C38.3646 48.3582 38.3646 48.3663 38.3646 48.3784L38.3687 48.3744ZM41.7896 81.6769C41.571 80.8093 41.3605 79.9417 41.154 79.0742C41.5427 79.175 41.9273 79.28 42.3159 79.3768C42.1378 80.1435 41.9597 80.9102 41.7937 81.6769H41.7896ZM65.4975 48.2775C65.5056 48.2372 65.5177 48.1928 65.5339 48.1524C65.5542 48.1161 65.5785 48.0758 65.5987 48.0395C65.623 48.0152 65.6432 47.991 65.6675 47.9709C65.704 47.9466 65.7404 47.9265 65.7809 47.9063C65.8214 47.8942 65.8619 47.8821 65.9064 47.87C65.9509 47.87 65.9955 47.87 66.04 47.87C66.0805 47.878 66.125 47.8902 66.1655 47.9063C66.2019 47.9265 66.2424 47.9507 66.2789 47.9709C66.3032 47.9951 66.3274 48.0152 66.3477 48.0395C66.372 48.0758 66.3922 48.1121 66.4125 48.1524C66.4287 48.2049 66.4489 48.2614 66.457 48.3179C66.457 48.326 66.457 48.334 66.457 48.3461C66.457 48.3542 66.457 48.3623 66.457 48.3744C66.4448 48.4309 66.4287 48.4833 66.4125 48.5398C66.3922 48.5761 66.3679 48.6165 66.3477 48.6528C66.3234 48.677 66.3032 48.7012 66.2789 48.7214C66.2424 48.7456 66.206 48.7658 66.1655 48.786C66.125 48.7981 66.0845 48.8102 66.04 48.8223C65.9955 48.8223 65.9509 48.8223 65.9064 48.8223C65.8659 48.8142 65.8254 48.8021 65.7809 48.786C65.7445 48.7658 65.704 48.7416 65.6675 48.7214C65.6432 48.6972 65.619 48.677 65.5987 48.6528C65.5744 48.6165 65.5542 48.5802 65.5339 48.5398C65.5218 48.4995 65.5097 48.4591 65.4975 48.4147C65.4975 48.3703 65.4975 48.326 65.4975 48.2816V48.2775ZM62.7526 81.4388C62.5948 80.7246 62.4369 80.0103 62.2668 79.2961C62.6757 79.171 63.0846 79.0378 63.4935 78.9087C63.2466 79.7521 62.9996 80.5954 62.7526 81.4388ZM66.0724 70.1039C65.4165 72.3394 64.7647 74.5709 64.1089 76.8064C63.3559 77.0525 62.5988 77.2906 61.8417 77.5246C61.0766 74.3933 60.2628 71.2741 59.4693 68.1509C58.9106 65.9396 58.5584 63.5871 57.7204 61.4605C57.5908 61.1337 57.441 60.7745 57.2629 60.4235C58.0969 60.0159 58.8823 59.5277 59.611 58.9627C60.1373 63.0544 61.3276 67.1703 65.2344 69.2767C65.5663 69.4543 65.8983 69.6278 66.2262 69.8013C66.1615 69.886 66.1088 69.9829 66.0724 70.1039ZM68.1412 68.7077C66.3639 67.7877 64.5785 67.0331 63.4247 65.3141C61.9106 63.0585 61.53 60.1814 61.2709 57.5423C61.2709 57.5181 61.2588 57.4939 61.2547 57.4697C63.1049 55.5207 64.4489 53.0754 65.1493 50.4808C65.5744 50.6341 66.0036 50.6744 66.461 50.5937C66.5582 50.5776 66.6513 50.5453 66.7485 50.513C67.8092 57.276 70.3314 63.7687 71.4042 70.5316C70.3395 69.886 69.2464 69.2767 68.1412 68.7037V68.7077Z" fill="var(--fill-0, #323232)"/>
<path id="Vector_27" d="M83.8556 84.4245H81.9609C82.0541 84.7191 82.1431 85.0177 82.216 85.3243C82.4872 86.4623 84.2443 85.978 83.973 84.8401C83.9406 84.6989 83.8961 84.5617 83.8597 84.4245H83.8556Z" fill="var(--fill-0, #323232)"/>
<path id="Vector_28" d="M18.7812 84.6261C18.2468 85.6631 19.8176 86.5831 20.356 85.5421C20.5423 85.1789 20.7123 84.8036 20.8783 84.4243H18.8783C18.8459 84.4889 18.8176 84.5575 18.7852 84.622L18.7812 84.6261Z" fill="var(--fill-0, #323232)"/>
<path id="Vector_29" d="M49.1852 50.4725C49.1852 50.4725 49.1487 50.4765 49.1285 50.4765C49.1082 50.4765 49.088 50.4806 49.0677 50.4846C49.0394 50.4846 49.0151 50.4927 48.9868 50.4967C48.9706 50.4967 48.9544 50.4967 48.9422 50.5048C48.926 50.5088 48.918 50.5209 48.9018 50.525C48.8168 50.5532 48.7317 50.5936 48.6589 50.65C48.6305 50.6702 48.6062 50.6904 48.5819 50.7106C48.3876 50.88 48.2621 51.1181 48.2742 51.3804C48.2742 51.449 48.2904 51.5176 48.3066 51.5822C48.3066 51.5943 48.3066 51.6064 48.3066 51.6225C48.5779 53.2084 49.6264 54.6207 51.2053 55.0968C52.5616 55.5044 54.1486 55.0968 55.0838 54.0235C55.7356 53.2729 56.0433 52.365 56.1202 51.3804C56.1566 50.8922 55.6708 50.4725 55.2093 50.4725H49.1852ZM52.5211 53.4343C52.5616 53.4263 52.6223 53.4141 52.6223 53.4182C52.6142 53.4303 52.5697 53.4343 52.5211 53.4343ZM53.8085 52.7241C53.8085 52.7241 53.7883 52.7483 53.7802 52.7564C53.7316 52.8089 53.683 52.8613 53.6304 52.9138C53.5858 52.9582 53.5373 52.9985 53.4927 53.0389C53.4887 53.0429 53.4846 53.047 53.4806 53.051C53.4765 53.051 53.4725 53.051 53.4684 53.0591C53.3672 53.1236 53.266 53.1922 53.1567 53.2447C53.1446 53.2527 53.1162 53.2689 53.0919 53.281C53.0838 53.281 53.0798 53.281 53.0676 53.2891C53.0353 53.2971 53.0029 53.3133 52.9705 53.3213C52.849 53.3617 52.7276 53.394 52.6021 53.4182C52.5778 53.4222 52.5535 53.4263 52.5251 53.4303C52.513 53.4303 52.513 53.4303 52.5089 53.4343C52.4685 53.4343 52.4239 53.4343 52.4118 53.4343C52.2903 53.4384 52.1729 53.4343 52.0515 53.4263C52.0515 53.4263 52.0312 53.4263 52.015 53.4222C51.9543 53.4101 51.8936 53.402 51.8369 53.3859C51.7195 53.3577 51.6061 53.3173 51.4928 53.281C51.4928 53.281 51.4928 53.281 51.4847 53.281C51.4199 53.2487 51.3592 53.2164 51.2944 53.1841C51.2377 53.1519 51.1851 53.1196 51.1325 53.0873C51.1244 53.0833 51.1001 53.0671 51.0717 53.047C51.0434 53.0268 50.9827 52.9784 50.9665 52.9622C50.9017 52.9057 50.841 52.8492 50.7843 52.7887C50.7317 52.7362 50.6912 52.6717 50.6345 52.6233C50.6224 52.6031 50.6062 52.5869 50.594 52.5668C50.5333 52.482 50.4888 52.3892 50.4361 52.2964H54.0595C54.0433 52.3327 54.0271 52.365 54.0069 52.4013C53.9421 52.5183 53.8652 52.6233 53.7964 52.7322L53.8085 52.7241Z" fill="var(--fill-0, #323232)"/>
<path id="Vector_30" d="M66.46 48.318C66.4478 48.2615 66.4316 48.2091 66.4154 48.1526C66.3952 48.1163 66.3709 48.0759 66.3506 48.0396C66.3263 48.0154 66.306 47.9912 66.2817 47.971C66.2453 47.9468 66.2088 47.9266 66.1683 47.9064C66.1278 47.8943 66.0873 47.8822 66.0428 47.8701C65.9982 47.8701 65.9537 47.8701 65.9091 47.8701C65.8686 47.8782 65.8281 47.8903 65.7835 47.9064C65.7471 47.9266 65.7066 47.9508 65.6701 47.971C65.6458 47.9952 65.6215 48.0154 65.6013 48.0396C65.577 48.0759 65.5567 48.1122 65.5365 48.1526C65.5243 48.1929 65.5122 48.2333 65.5 48.2777C65.5 48.3221 65.5 48.3665 65.5 48.4108C65.5081 48.4512 65.5203 48.4956 65.5365 48.5359C65.5567 48.5723 65.581 48.6126 65.6013 48.6489C65.6256 48.6731 65.6458 48.6973 65.6701 48.7175C65.7066 48.7417 65.743 48.7619 65.7835 48.7821C65.824 48.7942 65.8645 48.8063 65.9091 48.8184C65.9537 48.8184 65.9982 48.8184 66.0428 48.8184C66.0833 48.8103 66.1278 48.7982 66.1683 48.7821C66.2048 48.7619 66.2453 48.7377 66.2817 48.7175C66.306 48.6933 66.3304 48.6731 66.3506 48.6489C66.3749 48.6126 66.3952 48.5763 66.4154 48.5359C66.4316 48.4835 66.4519 48.427 66.46 48.3705C66.46 48.3624 66.46 48.3543 66.46 48.3422C66.46 48.3342 66.46 48.3261 66.46 48.314V48.318Z" fill="var(--fill-0, white)"/>
<path id="Vector_31" d="M38.3662 48.318C38.3541 48.2615 38.3379 48.209 38.3217 48.1525C38.3014 48.1162 38.2771 48.0758 38.2569 48.0395C38.2325 48.0153 38.2123 47.9911 38.188 47.9709C38.1515 47.9467 38.1151 47.9265 38.0746 47.9064C38.0341 47.8943 37.9936 47.8822 37.949 47.87C37.9045 47.87 37.8599 47.87 37.8154 47.87C37.7748 47.8781 37.7303 47.8902 37.6898 47.9064C37.6533 47.9265 37.6128 47.9507 37.5764 47.9709C37.5521 47.9951 37.5278 48.0153 37.5075 48.0395C37.4832 48.0758 37.463 48.1122 37.4427 48.1525C37.4306 48.1929 37.4184 48.2332 37.4062 48.2776C37.4062 48.322 37.4062 48.3664 37.4062 48.4108C37.4144 48.4511 37.4265 48.4915 37.4427 48.5359C37.463 48.5722 37.4873 48.6125 37.5075 48.6488C37.5318 48.6731 37.5521 48.6973 37.5764 48.7174C37.6128 48.7416 37.6493 48.7618 37.6898 48.782C37.7303 48.7941 37.7708 48.8062 37.8154 48.8183C37.8599 48.8183 37.9045 48.8183 37.949 48.8183C37.9895 48.8102 38.03 48.7981 38.0746 48.782C38.111 48.7618 38.1515 48.7376 38.188 48.7174C38.2123 48.6932 38.2366 48.6731 38.2569 48.6488C38.2812 48.6125 38.3014 48.5762 38.3257 48.5359C38.3419 48.4834 38.3581 48.4269 38.3703 48.3704C38.3703 48.3623 38.3703 48.3543 38.3703 48.3422C38.3703 48.3341 38.3703 48.326 38.3703 48.3139L38.3662 48.318Z" fill="var(--fill-0, white)"/>
<path id="Vector_32" d="M74.7511 47.9951C74.1074 48.4551 73.0994 48.4309 72.3463 48.5076C71.3545 48.6085 71.0711 49.9723 72.1034 50.2911C72.9212 50.5453 74.2491 50.7229 74.7633 51.3968C74.9333 51.6187 75.071 52.2038 75.1479 52.5912C75.2572 53.1279 75.326 53.6686 75.4596 54.1972C75.6742 55.0406 77.0304 55.085 77.2166 54.1972C77.4191 53.2328 77.5162 52.1756 78.0061 51.304C78.4433 50.5252 79.7307 50.4889 80.5809 50.4001C81.0708 50.3476 81.4918 50.0208 81.4918 49.4922C81.4918 48.9636 81.0748 48.6004 80.5809 48.5842C79.7469 48.556 78.6862 48.5439 77.9859 48.0274C77.411 47.6037 77.2652 46.8975 77.2328 46.2075C77.2328 46.1833 77.2369 46.1591 77.2409 46.1308C77.245 46.0622 77.2409 45.9936 77.2247 45.9291C77.2247 45.7515 77.2247 45.574 77.2247 45.4045C77.2247 44.2343 75.4029 44.2343 75.4029 45.4045C75.4029 45.6426 75.411 45.8847 75.4232 46.1268C75.3746 46.7846 75.322 47.5835 74.7552 47.9911L74.7511 47.9951ZM76.7025 49.3106C76.832 49.4195 76.9697 49.5204 77.1073 49.6092C76.9454 49.7424 76.7916 49.8916 76.6539 50.0692C76.5406 50.2185 76.4434 50.3718 76.3543 50.5332C76.2653 50.388 76.1681 50.2427 76.0466 50.1096C75.8888 49.932 75.7025 49.7827 75.5082 49.6495C75.6418 49.5729 75.7713 49.4881 75.8968 49.3913C76.0709 49.2581 76.2126 49.1088 76.3422 48.9515C76.4474 49.0765 76.5648 49.1976 76.6984 49.3106H76.7025Z" fill="var(--fill-0, #323232)"/>
<path id="Vector_33" d="M59.8965 39.4202C59.4147 39.1861 58.937 39.057 58.4066 38.9965C57.9208 38.94 57.3945 38.9803 56.933 39.1579C56.7063 39.2466 56.516 39.3596 56.3905 39.5735C56.2771 39.7672 56.2285 40.0537 56.2974 40.2716C56.3702 40.4895 56.5038 40.7033 56.7144 40.8123C56.9208 40.9212 57.1921 40.9898 57.4147 40.9051C57.5483 40.8526 57.686 40.8244 57.8277 40.8002C57.9856 40.7881 58.1435 40.7921 58.3014 40.8042C58.5402 40.8446 58.775 40.9091 59.0017 40.9979C59.2163 41.0988 59.439 41.1432 59.6778 41.0786C59.8884 41.0221 60.1191 40.8567 60.2203 40.663C60.3337 40.4532 60.3863 40.1989 60.3135 39.9649C60.2446 39.751 60.107 39.5251 59.8965 39.4242V39.4202Z" fill="var(--fill-0, #323232)"/>
<path id="Vector_34" d="M47.5777 39.057C47.023 38.9239 46.4846 38.9118 45.9259 39.0127C45.5332 39.0853 45.1607 39.2346 44.7923 39.3799C44.5656 39.4686 44.3753 39.5776 44.2498 39.7955C44.1365 39.9892 44.0879 40.2757 44.1567 40.4936C44.2296 40.7115 44.3632 40.9253 44.5737 41.0343C44.7762 41.1432 45.0514 41.2118 45.2741 41.1271C45.6425 40.9818 46.015 40.8406 46.4077 40.768C46.5696 40.7559 46.7316 40.7559 46.8935 40.768C46.9623 40.7801 47.0271 40.7922 47.0959 40.8083C47.3307 40.8648 47.5858 40.8406 47.7963 40.7155C47.9866 40.6066 48.1647 40.3887 48.2133 40.1748C48.3186 39.7067 48.0716 39.1781 47.5777 39.057Z" fill="var(--fill-0, #323232)"/>
<path id="Vector_35" d="M16.8884 26.5478C15.8803 26.6648 15.6374 27.9682 16.6455 28.3314C17.4673 28.6259 18.8195 28.8479 19.2608 29.6912C19.7628 30.6476 19.7142 31.8904 19.945 32.9274C20.1312 33.7748 21.5401 33.8112 21.702 32.9274C21.8963 31.846 21.9733 30.6516 22.4388 29.6428C22.8963 28.638 24.0299 28.5735 25.0096 28.4524C25.4995 28.3919 25.9205 28.0771 25.9205 27.5445C25.9205 27.0118 25.5035 26.6568 25.0096 26.6366C24.1432 26.6003 23.0299 26.5639 22.3943 25.886C21.8761 25.3332 21.7506 24.5625 21.7182 23.8039C21.7182 23.7595 21.7263 23.7151 21.7263 23.6747C21.7304 23.5819 21.7263 23.5012 21.7061 23.4246C21.7061 23.2228 21.7061 23.0251 21.7061 22.8395C21.7061 21.6692 19.8842 21.6692 19.8842 22.8395C19.8842 23.1219 19.8923 23.4044 19.9045 23.6909C19.86 24.4293 19.8357 25.3937 19.2446 25.9345C18.6576 26.4711 17.6373 26.4671 16.8924 26.5518L16.8884 26.5478ZM21.1028 27.1692C21.2891 27.3629 21.4996 27.5203 21.7182 27.6575C21.4551 27.8673 21.2162 28.1175 21.0219 28.4363C20.953 28.5493 20.8964 28.6663 20.8356 28.7833C20.7952 28.7147 20.7628 28.6421 20.7182 28.5775C20.4794 28.2184 20.1717 27.944 19.8276 27.7099C20.0786 27.5768 20.3174 27.4194 20.532 27.2136C20.6494 27.1006 20.7547 26.9796 20.8478 26.8545C20.9288 26.9594 21.0097 27.0683 21.1028 27.1692Z" fill="var(--fill-0, #323232)"/>
</g>
</g>
</g>
</svg>
