<svg preserveAspectRatio="xMidYMid meet" width="100%" height="100%" overflow="visible" style="display: block;" viewBox="0 0 25 19" fill="none" xmlns="http://www.w3.org/2000/svg">
<g id="Group">
<path id="Vector" d="M22.2396 0C22.6579 0 22.9193 0.13654 23.0238 0.409619C23.1284 0.682698 23.1807 0.934771 23.1807 1.16584C23.1598 1.43892 23.0657 1.69099 22.8984 1.92206C22.752 2.15312 22.5638 2.36318 22.3338 2.55224C22.1037 2.74129 21.8632 2.93035 21.6123 3.1194C21.3823 3.28745 21.1731 3.4555 20.9849 3.62355C20.6922 3.91763 20.389 4.24323 20.0753 4.60033C19.7616 4.95744 19.4793 5.33554 19.2284 5.73466C18.9774 6.13378 18.7683 6.54339 18.601 6.96352C18.4337 7.38364 18.3501 7.80376 18.3501 8.22388C18.3501 8.39193 18.371 8.57048 18.4128 8.75954C18.4755 8.94859 18.6847 9.04312 19.0402 9.04312C19.7093 9.04312 20.389 9.14815 21.079 9.35821C21.79 9.56827 22.4383 9.88336 23.0238 10.3035C23.6094 10.7236 24.0799 11.2488 24.4354 11.8789C24.8118 12.4881 25 13.2023 25 14.0216C25 14.8198 24.8745 15.534 24.6236 16.1642C24.3726 16.7734 24.0171 17.288 23.5571 17.7081C23.097 18.1282 22.5533 18.4538 21.926 18.6849C21.3195 18.895 20.6399 19 19.8871 19C18.5905 19 17.5345 18.7584 16.7189 18.2753C15.9243 17.7711 15.3074 17.1725 14.8683 16.4793C14.4291 15.7651 14.1363 15.0299 13.99 14.2736C13.8436 13.4964 13.7704 12.8242 13.7704 12.257C13.7704 11.1227 13.9377 10.0094 14.2723 8.91708C14.6278 7.82477 15.0983 6.79547 15.6838 5.82919C16.2693 4.86291 16.9385 3.98065 17.6913 3.18242C18.4442 2.36318 19.2179 1.64898 20.0125 1.0398C20.3262 0.808734 20.6817 0.577667 21.079 0.3466C21.4973 0.115533 21.8841 0 22.2396 0ZM8.46926 0C8.88749 0 9.14889 0.13654 9.25345 0.409619C9.35801 0.682698 9.41029 0.934771 9.41029 1.16584C9.38938 1.43892 9.29527 1.69099 9.12798 1.92206C8.9816 2.15312 8.79339 2.36318 8.56336 2.55224C8.33333 2.74129 8.09285 2.93035 7.84191 3.1194C7.61188 3.28745 7.40276 3.4555 7.21455 3.62355C6.92179 3.91763 6.61857 4.24323 6.30489 4.60033C5.99122 4.95744 5.70891 5.33554 5.45797 5.73466C5.20703 6.13378 4.99791 6.54339 4.83061 6.96352C4.66332 7.38364 4.57967 7.80376 4.57967 8.22388C4.57967 8.39193 4.60059 8.57048 4.64241 8.75954C4.70514 8.94859 4.91426 9.04312 5.26976 9.04312C5.93894 9.04312 6.61857 9.14815 7.30866 9.35821C8.01966 9.56827 8.66792 9.88336 9.25345 10.3035C9.83898 10.7236 10.3095 11.2488 10.665 11.8789C11.0414 12.4881 11.2296 13.2023 11.2296 14.0216C11.2296 14.8198 11.1041 15.534 10.8532 16.1642C10.6023 16.7734 10.2468 17.288 9.7867 17.7081C9.32664 18.1282 8.78294 18.4538 8.15558 18.6849C7.54914 18.895 6.86951 19 6.11669 19C4.82016 19 3.76412 18.7584 2.94856 18.2753C2.15391 17.7711 1.53701 17.1725 1.09787 16.4793C0.65872 15.7651 0.365956 15.0299 0.219573 14.2736C0.0731911 13.4964 0 12.8242 0 12.257C0 11.1227 0.167294 10.0094 0.501882 8.91708C0.857382 7.82477 1.3279 6.79547 1.91343 5.82919C2.49895 4.86291 3.16813 3.98065 3.92095 3.18242C4.67378 2.36318 5.44751 1.64898 6.24216 1.0398C6.55583 0.808734 6.91133 0.577667 7.30866 0.3466C7.72689 0.115533 8.11376 0 8.46926 0Z" fill="var(--fill-0, #DCD7ED)"/>
</g>
</svg>
