<svg preserveAspectRatio="xMidYMid meet" width="100%" height="100%" overflow="visible" style="display: block;" viewBox="0 0 100 100" fill="none" xmlns="http://www.w3.org/2000/svg">
<g id="Group 197">
<circle id="Ellipse" cx="50" cy="50" r="50" fill="var(--fill-0, white)"/>
<g id="Mask group">
<mask id="mask0_0_295" style="mask-type:alpha" maskUnits="userSpaceOnUse" x="0" y="0" width="100" height="100">
<circle id="Ellipse 48" cx="50" cy="50" r="50" fill="var(--fill-0, #D9D9D9)"/>
</mask>
<g mask="url(#mask0_0_295)">
<g id="Group">
<path id="Vector" d="M67.7699 50.6437C67.6768 50.6761 67.5796 50.7085 67.4824 50.7247C67.0247 50.8058 66.5953 50.7652 66.17 50.6113C65.4693 53.2158 64.1245 55.6704 62.2734 57.6268C62.2775 57.6511 62.2856 57.6754 62.2896 57.6997C62.5489 60.3487 62.9296 63.2367 64.4445 65.5009C65.5989 67.2264 67.3851 67.9838 69.1633 68.9073C70.2691 69.4825 71.3627 70.0941 72.428 70.7422C71.3546 63.9536 68.8312 57.4364 67.7699 50.6478V50.6437Z" fill="var(--fill-0, #CBB0EC)"/>
<path id="Vector_2" d="M63.2969 79.5353C63.467 80.2523 63.625 80.9692 63.7829 81.6861C64.03 80.8396 64.2771 79.993 64.5242 79.1465C64.1151 79.2761 63.706 79.4098 63.2969 79.5353Z" fill="var(--fill-0, #78C8E6)"/>
<path id="Vector_3" d="M60.6305 59.125C59.9014 59.6921 59.1156 60.1822 58.2812 60.5913C58.4554 60.9477 58.6093 61.3042 58.739 61.6322C59.5774 63.7668 59.9298 66.1283 60.4888 68.3479C61.2786 71.483 62.0968 74.614 62.8623 77.7572C63.6198 77.5223 64.3772 77.2833 65.1306 77.0362C65.7868 74.7922 66.4389 72.5523 67.0951 70.3084C67.1315 70.1868 67.1842 70.0896 67.249 70.0046C66.9169 69.8304 66.5847 69.6562 66.2566 69.478C62.352 67.3637 61.1571 63.2362 60.6305 59.125Z" fill="var(--fill-0, white)"/>
<path id="Vector_4" d="M43.3187 79.6202C42.9299 79.5189 42.5451 79.4177 42.1562 79.3164C42.3628 80.1873 42.5775 81.0581 42.7922 81.929C42.9623 81.1594 43.1365 80.3898 43.3147 79.6202H43.3187Z" fill="var(--fill-0, #78C8E6)"/>
<path id="Vector_5" d="M20.8281 27.7542C21.1724 27.9851 21.4803 28.2646 21.7192 28.6251C21.7638 28.6939 21.7962 28.7628 21.8367 28.8316C21.8934 28.7142 21.9542 28.5967 22.023 28.4833C22.2215 28.1633 22.4605 27.9122 22.7197 27.7015C22.501 27.5638 22.2903 27.4059 22.104 27.2114C22.0068 27.1102 21.9299 27.0008 21.8488 26.8955C21.7557 27.0211 21.6504 27.1426 21.5329 27.256C21.3182 27.4626 21.0793 27.6246 20.8281 27.7542Z" fill="var(--fill-0, #FDC95C)"/>
<path id="Vector_6" d="M53.6403 53.5605C53.6403 53.5605 53.5796 53.5687 53.5391 53.5768C53.5836 53.5768 53.6322 53.5727 53.6403 53.5605Z" fill="var(--fill-0, white)"/>
<path id="Vector_7" d="M51.4688 52.4261C51.5214 52.5152 51.566 52.6083 51.6267 52.6975C51.6389 52.7177 51.6551 52.738 51.6672 52.7542C51.7199 52.8028 51.7644 52.8676 51.8171 52.9202C51.8779 52.981 51.9386 53.0417 51.9994 53.0944C52.0156 53.1106 52.0804 53.1592 52.1047 53.1795C52.129 53.1957 52.1573 53.2119 52.1654 53.22C52.2181 53.2564 52.2707 53.2888 52.3274 53.3172C52.3882 53.3536 52.453 53.382 52.5178 53.4144C52.5178 53.4144 52.5178 53.4144 52.5259 53.4144C52.6393 53.4508 52.7528 53.4913 52.8702 53.5197C52.931 53.5359 52.9877 53.544 53.0484 53.5562C53.0646 53.5562 53.0849 53.5602 53.0849 53.5602C53.2064 53.5683 53.3239 53.5724 53.4454 53.5683C53.4575 53.5683 53.498 53.5683 53.5426 53.5683C53.5507 53.5683 53.5426 53.5683 53.5588 53.5642C53.5831 53.5602 53.6074 53.5561 53.6358 53.5521C53.7613 53.5278 53.8869 53.4954 54.0044 53.4549C54.0368 53.4427 54.0692 53.4306 54.1016 53.4225C54.1137 53.4225 54.1178 53.4184 54.1259 53.4144C54.1502 53.3982 54.1745 53.382 54.1907 53.3779C54.3 53.3212 54.3973 53.2564 54.5026 53.1916C54.5107 53.1916 54.5107 53.1876 54.5147 53.1835C54.5188 53.1835 54.5188 53.1795 54.5269 53.1714C54.5714 53.1308 54.62 53.0903 54.6646 53.0458C54.7172 52.9972 54.7658 52.9405 54.8144 52.8878C54.8225 52.8757 54.8347 52.8676 54.8428 52.8554C54.9117 52.742 54.9927 52.6367 55.0534 52.5233C55.0696 52.4909 55.0899 52.4544 55.1061 52.418H51.4809L51.4688 52.4261Z" fill="var(--fill-0, white)"/>
<path id="Vector_8" d="M76.9357 49.5216C76.8102 49.6188 76.6805 49.7039 76.5469 49.7808C76.7413 49.9145 76.9236 50.0644 77.0856 50.2426C77.203 50.3762 77.3043 50.518 77.3934 50.6679C77.4825 50.5059 77.5797 50.3519 77.6932 50.2021C77.8309 50.0238 77.9848 49.874 78.1468 49.7403C78.005 49.6512 77.8714 49.554 77.7418 49.4406C77.6081 49.3272 77.4947 49.2056 77.3853 49.0801C77.2557 49.238 77.1139 49.3879 76.9398 49.5216H76.9357Z" fill="var(--fill-0, #FDC95C)"/>
<path id="Vector_9" d="M43.6385 57.6066L43.3671 60.4136C43.4805 60.3569 43.6101 60.3245 43.7559 60.3245C44.2015 60.3285 44.7321 60.7457 44.6673 61.2358C44.3919 63.3178 44.2379 65.7562 42.9985 67.5424C42.1924 68.7008 40.9975 69.4299 39.75 70.0335C39.8351 70.1307 39.9039 70.2481 39.9444 70.402C40.5804 72.7068 41.1312 75.0277 41.6821 77.3527C41.7752 77.3486 41.8684 77.3527 41.9616 77.377C42.5529 77.539 43.1484 77.6889 43.7397 77.8428C43.9584 76.9355 44.1853 76.0282 44.4121 75.1208C45.0885 72.4435 45.7893 69.7702 46.4535 67.0888C46.7735 65.7967 47.0976 64.5045 47.3852 63.2084C47.5634 62.4064 47.7051 61.6004 48.0089 60.8308C48.0251 60.7903 48.0413 60.7498 48.0616 60.7133C46.413 59.964 44.9144 58.8946 43.6385 57.6025V57.6066Z" fill="var(--fill-0, white)"/>
<path id="Vector_10" d="M39.7402 50.6188C39.6227 50.6674 39.5012 50.7038 39.3797 50.7241C38.845 50.8213 38.3509 50.7605 37.8567 50.5337C37.4598 50.3514 37.1195 50.0193 36.8967 49.6467C36.6699 49.2659 36.5403 48.7758 36.5808 48.3343C36.6011 48.1034 36.6537 47.8928 36.7266 47.6903C36.4066 47.431 36.115 47.1273 35.8801 46.7789C35.8477 46.7303 35.8193 46.6736 35.7869 46.625L35.309 49.355C35.872 48.9338 36.8562 49.1484 36.7631 50.0152C36.0016 57.2332 34.588 64.4876 32.1172 71.3329C33.8913 70.5714 35.6978 69.8707 37.4638 69.089C38.8734 68.4652 40.6353 67.8211 41.5264 66.4723C42.4986 64.9939 42.6201 62.9363 42.8469 61.2351C42.8955 60.8827 43.0656 60.5586 43.3694 60.4128L43.6408 57.6058C41.7371 55.6778 40.3437 53.2516 39.7402 50.6188Z" fill="var(--fill-0, #CBB0EC)"/>
<path id="Vector_11" d="M68.1322 39.922C67.5894 39.5412 66.6538 39.9098 66.1313 40.1853C66.0057 40.2501 65.8842 40.2825 65.7627 40.2946C65.2928 40.4971 64.7095 40.3635 64.6123 39.7235C64.3369 37.9251 63.9319 36.0497 63.3324 34.2311C63.2838 34.2392 63.2311 34.2473 63.1744 34.2473C59.8328 34.2351 56.5519 33.0645 53.7328 31.3147C51.4159 29.8768 49.1922 27.9609 47.7948 25.5752C47.4829 26.0896 47.0819 26.5109 46.6687 26.924C45.3847 31.3998 44.0521 36.1874 40.6052 39.4845C40.508 40.1043 39.6655 40.6106 39.0376 40.0556C38.6852 39.7438 38.0615 39.6749 37.6078 39.7357C37.5187 39.7478 37.4296 39.7681 37.3445 39.7964C37.3364 39.7964 37.3324 39.7964 37.3283 39.8005C37.3283 39.8005 37.3283 39.8045 37.3202 39.8086C37.1947 39.9382 37.0975 40.1002 37.0205 40.2663C36.6033 41.1412 36.5871 42.2146 36.656 43.1624C36.7167 44.0292 36.8828 45.1066 37.4215 45.8235C37.5754 46.0261 37.7577 46.2043 37.9602 46.3582C38.4868 46.1314 39.1024 46.0949 39.629 46.2893C40.1191 46.4716 40.4999 46.7673 40.8036 47.1926C40.8441 47.2493 40.8766 47.3141 40.909 47.3749C41.0993 47.5409 41.2208 47.7759 41.2249 48.0513C41.3343 52.839 44.7083 57.3876 49.1071 59.1941C49.7754 58.5704 50.6422 58.222 51.6306 58.4894C52.4083 58.7 52.9429 59.1901 53.3075 59.8017C53.753 59.0159 54.4618 58.4408 55.4988 58.3962C56.1995 58.3679 56.7666 58.6514 57.2283 59.0929C61.2018 57.1892 63.9967 53.1508 64.7096 48.8168C64.6853 48.6589 64.6731 48.4968 64.6893 48.3429C64.7136 48.0918 64.7703 47.8569 64.8554 47.6381C64.8554 47.6098 64.8635 47.5774 64.8635 47.549C64.8918 47.1156 65.143 46.828 65.5115 46.7025C65.9611 46.3217 66.5809 46.1314 67.1722 46.1759C67.3869 46.0625 67.5935 45.9288 67.7758 45.7628C68.4846 45.1187 68.7884 44.0211 68.9139 43.1057C69.0395 42.17 69.0193 40.5539 68.1363 39.9341L68.1322 39.922ZM53.2913 46.4838C54.4659 46.4838 54.4659 48.3065 53.2913 48.3065C52.1166 48.3065 52.1166 46.4838 53.2913 46.4838ZM44.7407 36.7788C44.6678 36.5601 44.7164 36.2725 44.8339 36.0781C44.9635 35.8553 45.1498 35.7541 45.3766 35.6609C45.9396 35.4219 46.5067 35.2761 47.1183 35.2032C47.8474 35.1141 48.5765 35.1951 49.2975 35.3085C49.7997 35.3895 50.0347 35.993 49.9334 36.4305C49.8848 36.6492 49.7025 36.8639 49.5162 36.9732C49.2894 37.1069 49.0626 37.1069 48.8155 37.0664C48.7669 37.0583 48.7142 37.0502 48.6656 37.0421C48.4509 37.034 48.5968 37.0299 48.6535 37.0421C48.6535 37.0421 48.6616 37.0421 48.6656 37.0421C48.6697 37.0421 48.6737 37.0421 48.6778 37.0421C48.5968 37.0421 48.5157 37.0218 48.4388 37.0137C48.2808 36.9975 48.1229 36.9894 47.9608 36.9854C47.815 36.9813 47.6692 36.9854 47.5234 36.9854C47.4505 36.9854 47.3776 36.9935 47.3047 37.0016C47.2844 37.0016 47.2399 37.0097 47.2034 37.0137C47.1669 37.0178 47.1305 37.0259 47.1143 37.0299C47.0495 37.0421 46.9847 37.0542 46.9199 37.0704C46.7983 37.0988 46.6809 37.1272 46.5634 37.1636C46.3285 37.2365 46.0976 37.3216 45.8667 37.4188C45.648 37.512 45.3645 37.4309 45.166 37.3256C44.9554 37.2163 44.8177 37.0016 44.7488 36.7829L44.7407 36.7788ZM49.2286 40.2663C49.18 40.485 48.9978 40.6997 48.8114 40.809C48.6008 40.9306 48.3416 40.9589 48.1107 40.9022C48.0418 40.886 47.977 40.8739 47.9082 40.8617C47.7462 40.8455 47.5841 40.8455 47.4221 40.8617C47.0292 40.9346 46.6606 41.0764 46.288 41.2222C46.0652 41.3113 45.7898 41.2384 45.5872 41.129C45.3766 41.0197 45.2389 40.805 45.1701 40.5863C45.0971 40.3675 45.1458 40.08 45.2632 39.8855C45.3928 39.6668 45.5792 39.5574 45.806 39.4683C46.1746 39.3225 46.5472 39.1727 46.9401 39.0997C47.4991 38.9985 48.0378 39.0106 48.5927 39.1443C49.0869 39.2658 49.338 39.7964 49.2286 40.2663ZM56.1023 54.1635C55.1666 55.2449 53.5788 55.65 52.2219 55.2409C50.6422 54.7629 49.5891 53.3453 49.3218 51.7534C49.3218 51.7413 49.3218 51.7291 49.3218 51.7129C49.3056 51.6481 49.2934 51.5793 49.2894 51.5104C49.2772 51.2471 49.4068 51.0041 49.5972 50.838C49.6215 50.8137 49.6458 50.7975 49.6742 50.7773C49.7511 50.7246 49.8321 50.6841 49.9172 50.6517C49.9334 50.6476 49.9415 50.6355 49.9577 50.6314C49.9739 50.6314 49.9901 50.6274 50.0023 50.6233C50.0306 50.6152 50.0549 50.6152 50.0833 50.6112C50.1035 50.6112 50.1238 50.6071 50.144 50.6031C50.1643 50.6031 50.1805 50.599 50.2007 50.599H56.2279C56.6896 50.599 57.1757 51.0203 57.1392 51.5104C57.0623 52.4947 56.7544 53.406 56.1023 54.1635ZM61.2342 40.7564C61.1289 40.9549 60.9021 41.1169 60.6915 41.1736C60.4566 41.2384 60.2297 41.1938 60.015 41.0926C59.7882 41.0035 59.5533 40.9387 59.3143 40.8982C59.1564 40.886 58.9984 40.8819 58.8404 40.8941C58.6986 40.9184 58.5609 40.9468 58.4273 40.9994C58.2004 41.0845 57.9291 41.0156 57.7265 40.9063C57.5159 40.7969 57.3782 40.5822 57.3093 40.3635C57.2364 40.1448 57.285 39.8572 57.4025 39.6628C57.5281 39.444 57.7184 39.3306 57.9453 39.2456C58.403 39.0714 58.9336 39.0268 59.4196 39.0835C59.9502 39.1483 60.4282 39.2739 60.9102 39.5088C61.1208 39.6101 61.2585 39.8369 61.3274 40.0516C61.4044 40.2865 61.3477 40.5417 61.2342 40.7523V40.7564ZM61.7568 36.7788C61.7081 36.9975 61.5259 37.2122 61.3396 37.3216C61.1613 37.4269 60.8373 37.4998 60.6388 37.4147C60.4039 37.3175 60.1649 37.2244 59.9219 37.1515C59.8044 37.115 59.6829 37.0867 59.5614 37.0583C59.4966 37.0421 59.4318 37.0299 59.3629 37.0178C59.3508 37.0178 59.3305 37.0137 59.3062 37.0097C59.2617 37.0056 59.1928 36.9975 59.1685 36.9935C59.0956 36.9894 59.0227 36.9813 58.9498 36.9813C58.804 36.9732 58.6581 36.9732 58.5123 36.9813C58.3503 36.9854 58.1923 36.9975 58.0344 37.0137C57.9939 37.0137 57.9534 37.0218 57.9169 37.0259C57.9047 37.0259 57.8642 37.034 57.844 37.034C57.8359 37.034 57.8237 37.034 57.8197 37.034C57.7751 37.0421 57.7346 37.0461 57.6901 37.0542C57.1838 37.1353 56.7342 36.9287 56.5681 36.4183C56.4992 36.1996 56.5438 35.912 56.6612 35.7176C56.7666 35.5394 56.9934 35.3328 57.204 35.3004C57.925 35.1829 58.6541 35.1019 59.3832 35.1951C59.9907 35.268 60.5578 35.4179 61.1249 35.6528C61.3558 35.75 61.5299 35.8594 61.6676 36.07C61.8013 36.2766 61.8135 36.5398 61.7608 36.7707L61.7568 36.7788Z" fill="var(--fill-0, white)"/>
<path id="Vector_12" d="M47.4054 24.8545C46.887 23.8054 48.4586 22.8819 48.9811 23.935C50.1962 26.3936 52.3673 28.3136 54.6679 29.7393C57.0739 31.2299 59.8242 32.2749 62.6676 32.4005C61.4079 29.395 59.5204 26.7096 56.6729 25.061C55.6562 24.4737 56.5757 22.8981 57.5924 23.4854C62.7729 26.4868 65.1789 32.5058 66.2037 38.1967C66.6735 38.0428 67.1677 37.9496 67.6538 37.9537C67.9697 36.5036 68.0669 34.9806 68.0629 33.5022C68.0467 29.3869 66.6695 25.4904 63.818 22.4849C60.9016 19.4106 56.916 17.8431 52.7035 17.8147C52.0473 17.8107 51.7597 17.2396 51.8366 16.7373C51.3587 16.9641 50.8807 16.9358 50.4028 16.9398C50.5162 17.3732 50.3501 17.8512 49.779 17.9484C47.7457 18.2927 45.8987 19.2648 44.3068 20.5569C41.4148 22.9102 39.0979 26.1871 37.8301 29.6948C36.8985 32.279 37.1253 35.248 37.8828 37.8686C38.385 37.8767 38.8913 37.978 39.3531 38.1643C42.7757 34.8672 43.9058 29.9378 45.1858 25.5268C45.5139 24.4008 47.2718 24.8828 46.9437 26.0129C46.8586 26.3126 46.7695 26.6124 46.6844 26.9161C47.0976 26.503 47.5026 26.0817 47.8105 25.5673C47.6728 25.3324 47.531 25.0934 47.4095 24.8504L47.4054 24.8545Z" fill="var(--fill-0, #CBB0EC)"/>
<path id="Vector_13" d="M53 84.6834H53.7372C53.6157 84.0111 53.5063 83.3346 53.405 82.6582C53.2714 83.3346 53.1337 84.007 53 84.6834Z" fill="var(--fill-0, #78C8E6)"/>
<path id="Vector_14" d="M57.4458 63.5289C57.1987 62.577 56.8585 61.5806 56.2914 60.7705C56.1375 60.5558 55.9714 60.3411 55.7324 60.2277C55.7568 60.2561 55.5097 60.2115 55.5988 60.1953C55.4692 60.2196 55.3963 60.2358 55.295 60.2885C54.6753 60.6125 54.5497 61.3902 54.5376 62.0707C56.101 61.8844 57.3688 63.3182 57.7131 64.7642C58.6123 68.515 59.2766 72.3386 60.0219 76.1218C60.2487 77.2681 58.4908 77.7582 58.264 76.6079C57.6888 73.6834 57.1015 70.759 56.4939 67.8386C56.3238 67.0163 56.1618 66.1941 55.9836 65.3759C55.8702 64.8574 55.6393 64.2579 55.1451 63.9704C54.0475 63.3263 54.0637 65.307 54.088 66.3318C54.5983 66.3115 55.1127 66.4574 55.5056 66.8462C56.417 67.7454 56.5385 69.394 56.7572 70.5848C57.1825 72.8936 57.543 75.2185 57.8914 77.5395C58.0655 78.6898 56.3076 79.1799 56.1335 78.0255C55.7851 75.7046 55.4246 73.3796 54.9993 71.0708C54.8818 70.4309 54.7725 69.7828 54.6064 69.155C54.5416 68.9119 54.3593 68.2193 54.25 68.1626C53.772 67.9034 53.6221 68.6851 53.6424 68.9849C53.7315 70.4673 53.9745 71.9539 54.1366 73.4282C54.5538 77.1668 54.8697 80.9459 55.5785 84.6399C55.5785 84.6561 55.5785 84.6683 55.5785 84.6804H62.5575C61.3829 78.8802 59.8032 73.173 58.3774 67.4335C58.0534 66.1333 57.7739 64.821 57.4377 63.5289H57.4458Z" fill="var(--fill-0, white)"/>
<path id="Vector_15" d="M52.572 77.0125C52.5841 76.9153 52.6246 76.8343 52.6773 76.7573C52.5112 75.2627 52.3451 73.7721 52.1791 72.2775C52.0778 72.7879 51.9806 73.2982 51.8793 73.8086C51.608 75.1574 51.3366 76.5062 51.0612 77.851C50.8262 79.0013 49.0683 78.5112 49.3032 77.3649C49.5989 75.927 49.8865 74.4891 50.1741 73.0511C50.3726 72.0466 50.571 71.0421 50.7655 70.0376C50.9518 69.0614 51.1543 67.9556 51.8469 67.2023C51.9766 67.0605 52.1183 66.9835 52.2641 66.943C52.2641 66.9066 52.2601 66.8742 52.2641 66.8377C52.3087 66.1653 52.2803 65.3876 52.3573 64.6545C52.3006 64.5694 52.252 64.4763 52.2236 64.3588C52.1467 64.0591 51.8712 63.7229 51.6282 63.7391C51.3892 63.7593 51.1827 64.3102 51.0895 64.5695C50.6237 65.9183 50.4414 67.3926 50.1498 68.786C49.7164 70.8598 49.2749 72.9296 48.8374 75.0035C48.5944 76.1538 46.8365 75.6637 47.0795 74.5174C47.6668 71.7631 48.2461 69.0047 48.8253 66.2463C49.1007 64.9218 49.2992 63.087 50.5346 62.2607C51.0368 61.9245 51.5958 61.8637 52.1143 61.9933C52.094 61.3372 51.9563 60.6121 51.3609 60.3002C50.9518 60.0856 50.49 60.2476 50.1174 60.7255C50.085 60.7944 50.0404 60.8552 49.9918 60.9119C49.5625 61.5964 49.4126 62.4551 49.2506 63.2328C48.9752 64.5451 48.6511 65.8413 48.3271 67.1415C46.8851 72.9782 45.273 78.7745 44.0781 84.6679H51.1584C51.1584 84.6679 51.1584 84.6396 51.1584 84.6274C51.6606 82.0878 52.2034 79.5603 52.5801 76.9963L52.572 77.0125Z" fill="var(--fill-0, white)"/>
<path id="Vector_16" d="M72.7399 73.0874C71.4721 72.2652 70.1597 71.5523 68.8352 70.8516C68.657 71.4591 68.4788 72.0667 68.3046 72.6743C67.134 76.6802 65.9675 80.6821 64.7969 84.6839H82.9876C82.2139 82.2132 80.7476 80.034 78.9695 78.1546C77.1225 76.2022 74.9879 74.5456 72.7399 73.0874Z" fill="var(--fill-0, white)"/>
<path id="Vector_17" d="M38.1738 70.75C35.8084 71.7788 33.3902 72.6861 31.0612 73.8C28.8213 74.8734 26.2776 76.2465 24.8032 78.3163C23.4544 80.2119 22.8104 82.5409 21.8828 84.6836H41.6329C40.4137 80.1026 39.4538 75.4567 38.1981 70.8877C38.186 70.8391 38.1819 70.7946 38.1738 70.75Z" fill="var(--fill-0, white)"/>
<path id="Vector_18" d="M61.7557 36.7796C61.8084 36.5447 61.7962 36.2855 61.6625 36.0789C61.5248 35.8642 61.3507 35.7589 61.1198 35.6617C60.5568 35.4227 59.9897 35.2769 59.3781 35.204C58.649 35.1149 57.9199 35.1959 57.1989 35.3093C56.9883 35.3417 56.7574 35.5523 56.6562 35.7265C56.5428 35.9209 56.4941 36.2085 56.563 36.4272C56.7291 36.9376 57.1787 37.1442 57.685 37.0632C57.7295 37.0551 57.77 37.051 57.8146 37.0429C57.8186 37.0429 57.8308 37.0429 57.8389 37.0429C57.8632 37.0429 57.8997 37.0348 57.9118 37.0348C57.9523 37.0308 57.9928 37.0267 58.0293 37.0227C58.1872 37.0065 58.3493 36.9943 58.5072 36.9903C58.653 36.9862 58.7989 36.9862 58.9447 36.9903C59.0176 36.9903 59.0905 36.9984 59.1634 37.0024C59.1877 37.0024 59.2566 37.0105 59.3011 37.0186C59.3254 37.0186 59.3457 37.0267 59.3578 37.0267C59.4226 37.0389 59.4874 37.051 59.5563 37.0672C59.6778 37.0956 59.7953 37.1239 59.9168 37.1604C60.1598 37.2333 60.3988 37.3224 60.6337 37.4237C60.8362 37.5087 61.1562 37.4358 61.3345 37.3305C61.5248 37.2211 61.7031 37.0024 61.7517 36.7877L61.7557 36.7796Z" fill="var(--fill-0, #323232)"/>
<path id="Vector_19" d="M49.2995 35.3041C48.5785 35.1866 47.8494 35.1056 47.1203 35.1987C46.5127 35.2757 45.9457 35.4215 45.3786 35.6565C45.1477 35.7537 44.9655 35.8509 44.8359 36.0737C44.7224 36.2681 44.6738 36.5557 44.7427 36.7744C44.8156 36.9931 44.9493 37.2078 45.1599 37.3171C45.3584 37.4225 45.6419 37.5035 45.8606 37.4103C46.0874 37.3131 46.3183 37.228 46.5573 37.1551C46.6748 37.1187 46.7963 37.0863 46.9137 37.062C46.9786 37.0458 47.0434 37.0336 47.1082 37.0215C47.1244 37.0215 47.1608 37.0134 47.1973 37.0053C47.2337 37.0012 47.2823 36.9972 47.2985 36.9931C47.3714 36.985 47.4444 36.981 47.5173 36.9769C47.6631 36.9688 47.8089 36.9688 47.9547 36.9769C48.1127 36.981 48.2707 36.9931 48.4327 37.0053C48.5137 37.0134 48.5947 37.0296 48.6717 37.0336C48.6676 37.0336 48.6636 37.0336 48.6595 37.0336C48.7081 37.0417 48.7608 37.0498 48.8094 37.0579C49.0605 37.0984 49.2873 37.0984 49.5101 36.9648C49.7005 36.8554 49.8787 36.6367 49.9273 36.422C50.0286 35.9845 49.7936 35.381 49.2914 35.3L49.2995 35.3041Z" fill="var(--fill-0, #323232)"/>
<path id="Vector_20" d="M48.6631 37.0373C48.6631 37.0373 48.655 37.0373 48.651 37.0373C48.5902 37.0292 48.4444 37.0292 48.6631 37.0373Z" fill="var(--fill-0, #323232)"/>
<path id="Vector_21" d="M53.295 46.4834C52.1204 46.4834 52.1204 48.3061 53.295 48.3061C54.4697 48.3061 54.4697 46.4834 53.295 46.4834Z" fill="var(--fill-0, #323232)"/>
<path id="Vector_22" d="M51.7899 85.7649C52.2395 85.8864 52.8147 85.6151 52.9119 85.129C52.9403 84.9832 52.9727 84.8333 53.001 84.6875H51.154C51.0811 85.1574 51.3079 85.6353 51.7899 85.769V85.7649Z" fill="var(--fill-0, #323232)"/>
<path id="Vector_23" d="M53.827 85.1251C54.0457 86.2633 55.759 85.7975 55.5889 84.6836H53.75C53.7784 84.8294 53.7986 84.9793 53.827 85.1251Z" fill="var(--fill-0, #323232)"/>
<path id="Vector_24" d="M41.8599 85.5868C42.1394 86.5954 43.5652 86.32 43.6462 85.441C43.8285 85.3398 43.9743 85.1615 44.031 84.8821C44.0431 84.8132 44.0593 84.7484 44.0715 84.6836H41.625C41.706 84.9833 41.7749 85.2871 41.8599 85.5868Z" fill="var(--fill-0, #323232)"/>
<path id="Vector_25" d="M62.603 84.8824C62.6314 85.0242 62.684 85.1416 62.7529 85.2348C62.5949 86.2636 64.2192 86.6646 64.5351 85.5831C64.6242 85.2834 64.7093 84.9796 64.7984 84.6799H62.5625C62.5747 84.7447 62.5909 84.8135 62.603 84.8783V84.8824Z" fill="var(--fill-0, #323232)"/>
<path id="Vector_26" d="M75.7233 72.9335C75.3061 72.6257 74.8767 72.33 74.4474 72.0383C73.374 63.6579 69.8136 55.7149 69.202 47.2616C69.1939 47.1563 69.1696 47.0591 69.1331 46.974C70.2146 45.9006 70.6642 44.2399 70.7655 42.7615C70.8627 41.3641 70.5063 39.5414 69.36 38.5814C69.3721 38.545 69.3883 38.5125 69.3964 38.472C70.2268 34.7091 70.1215 30.4197 68.6835 26.831C67.1484 22.9992 64.2928 19.7021 60.5907 17.8349C58.1361 16.5954 55.4344 16.0203 52.6922 16C52.1738 16 51.8862 16.3483 51.8255 16.7453C51.7485 17.2475 52.0361 17.8187 52.6922 17.8227C56.9047 17.8511 60.8904 19.4146 63.8068 22.4929C66.6583 25.4984 68.0314 29.3949 68.0517 33.5102C68.0598 34.9927 67.9585 36.5116 67.6426 37.9617C67.1565 37.9576 66.6623 38.0508 66.1925 38.2047C65.1677 32.5138 62.7617 26.4948 57.5812 23.4934C56.5645 22.9061 55.6451 24.4776 56.6617 25.069C59.5092 26.7176 61.3967 29.399 62.6564 32.4085C59.813 32.2829 57.0627 31.2419 54.6567 29.7473C52.3561 28.3215 50.185 26.4016 48.9699 23.943C48.4514 22.8899 46.8758 23.8134 47.3942 24.8624C47.5157 25.1095 47.6575 25.3444 47.7952 25.5794C47.9329 25.3525 48.0545 25.1136 48.1436 24.8422C48.0545 25.1136 47.9289 25.3525 47.7952 25.5794C49.1926 27.9651 51.4163 29.881 53.7332 31.3189C56.5524 33.0687 59.8332 34.2393 63.1749 34.2514C63.2316 34.2514 63.2802 34.2433 63.3329 34.2352C63.9283 36.0499 64.3374 37.9252 64.6128 39.7277C64.71 40.3677 65.2933 40.5013 65.7631 40.2988C65.8806 40.2907 66.0062 40.2543 66.1317 40.1894C66.6542 39.9181 67.5939 39.5454 68.1327 39.9262C69.0157 40.5459 69.0359 42.162 68.9104 43.0977C68.7848 44.0131 68.481 45.1108 67.7722 45.7548C67.5899 45.9209 67.3874 46.0545 67.1687 46.1679C66.5773 46.1234 65.9576 46.3138 65.508 46.6945C65.1394 46.816 64.8923 47.1036 64.8599 47.5411C64.8599 47.5694 64.8518 47.6018 64.8518 47.6302C64.7667 47.8489 64.71 48.0838 64.6857 48.3349C64.6695 48.4889 64.6857 48.6509 64.706 48.8089C63.9971 53.1388 61.2023 57.1812 57.2247 59.0849C56.763 58.6475 56.1959 58.3599 55.4952 58.3882C54.4583 58.4328 53.7494 59.008 53.3039 59.7937C52.9393 59.1821 52.4047 58.692 51.627 58.4814C50.6387 58.2141 49.7719 58.5624 49.1035 59.1862C44.7047 57.3797 41.3307 52.8269 41.2213 48.0433C41.2132 47.7679 41.0917 47.533 40.9054 47.3669C40.873 47.3061 40.8406 47.2413 40.8001 47.1846C40.4963 46.7593 40.1155 46.4677 39.6254 46.2814C39.0989 46.0829 38.4832 46.1234 37.9566 46.3502C37.7541 46.1963 37.5678 46.0221 37.4179 45.8155C36.8792 45.0986 36.7172 44.0212 36.6524 43.1544C36.5835 42.2066 36.5997 41.1332 37.0169 40.2583C37.0939 40.0963 37.1911 39.9343 37.3166 39.8006C37.3207 39.7966 37.3207 39.7965 37.3247 39.7925C37.3328 39.7925 37.3328 39.7925 37.3409 39.7884C37.426 39.7601 37.5151 39.7398 37.6042 39.7277C38.0538 39.671 38.6816 39.7358 39.034 40.0477C39.6619 40.6066 40.5044 40.0963 40.6016 39.4766C44.0485 36.1795 45.3811 31.3959 46.6651 26.916C46.0454 27.5398 45.4135 28.1514 45.1057 29.0871C45.4176 28.1555 46.0454 27.5398 46.6651 26.916C46.7502 26.6122 46.8393 26.3125 46.9244 26.0128C47.2525 24.8827 45.4946 24.4007 45.1665 25.5267C43.8825 29.9336 42.7524 34.8671 39.3338 38.1642C38.8761 37.9779 38.3657 37.8766 37.8635 37.8685C37.106 35.2479 36.8792 32.2789 37.8108 29.6947C39.0786 26.1869 41.3955 22.9101 44.2875 20.5568C45.8793 19.2606 47.7264 18.2926 49.7597 17.9483C50.3308 17.8511 50.4969 17.3731 50.3835 16.9397C49.8367 16.9438 49.2939 17.0005 48.7471 17.5473C49.2939 17.0005 49.8367 16.9478 50.3835 16.9397C50.266 16.4942 49.8569 16.0932 49.2736 16.1904C45.2151 16.883 41.8775 19.8236 39.4593 22.9992C36.9643 26.2801 35.1334 30.1483 35.4291 34.3446C35.5263 35.7096 35.737 37.107 36.1217 38.4275C36.1055 38.4396 36.0853 38.4477 36.0691 38.4639C34.9998 39.4604 34.7851 41.2142 34.8013 42.5914C34.8175 43.9321 35.0484 45.4632 35.7775 46.6256C35.8099 46.6783 35.8382 46.731 35.8706 46.7796C36.1096 47.1279 36.3972 47.4276 36.7172 47.6909C36.6443 47.8934 36.5916 48.1041 36.5714 48.3349C36.5268 48.7805 36.6605 49.2666 36.8873 49.6473C37.1101 50.02 37.4503 50.3521 37.8473 50.5344C38.3414 50.7612 38.8356 50.8219 39.3702 50.7247C39.4918 50.7045 39.6133 50.668 39.7307 50.6194C40.3302 53.2522 41.7276 55.6785 43.6313 57.6065C44.9072 58.8986 46.4059 59.9679 48.0545 60.7173C48.0383 60.7578 48.018 60.7942 48.0018 60.8347C47.698 61.6003 47.5562 62.4104 47.378 63.2124C47.0904 64.5126 46.7664 65.8046 46.4464 67.0927C45.7781 69.7741 45.0814 72.4474 44.405 75.1248C44.1781 76.0321 43.9513 76.9394 43.7326 77.8467C43.1372 77.6928 42.5458 77.5389 41.9544 77.3809C41.8653 77.3566 41.7681 77.3526 41.675 77.3566C41.1241 75.0316 40.5692 72.7067 39.9373 70.406C39.8968 70.2561 39.8279 70.1346 39.7429 70.0374C40.9904 69.4298 42.1853 68.7048 42.9914 67.5464C44.2308 65.7642 44.3847 63.3217 44.6602 61.2398C44.725 60.7497 44.1944 60.3325 43.7488 60.3284C43.5989 60.3284 43.4693 60.3608 43.36 60.4175C43.0602 60.5674 42.886 60.8874 42.8374 61.2398C42.6106 62.941 42.4891 64.9986 41.517 66.477C40.6259 67.8258 38.868 68.4699 37.4544 69.0936C35.6883 69.8754 33.8818 70.5721 32.1077 71.3376C34.5785 64.4923 35.9921 57.2379 36.7536 50.0199C36.8468 49.1531 35.8625 48.9385 35.2995 49.3597C35.1051 49.5055 34.9633 49.7243 34.9309 50.0199C34.133 57.5822 32.5735 65.193 29.8233 72.3016C29.8111 72.33 29.8071 72.3583 29.799 72.3867C27.5955 73.4682 25.2462 74.8534 23.6827 76.7814C21.8195 79.074 21.1633 82.0795 19.8672 84.688H21.8681C22.7916 82.5453 23.4397 80.2162 24.7885 78.3206C26.2629 76.2508 28.8066 74.8777 31.0465 73.8043C33.3715 72.6905 35.7937 71.7872 38.1591 70.7543C38.1672 70.7989 38.1713 70.8434 38.1834 70.892C39.4431 75.461 40.3991 80.1109 41.6182 84.688H44.0647C45.2556 78.7945 46.8717 72.9983 48.3137 67.1616C48.6337 65.8614 48.9618 64.5612 49.2372 63.2529C49.3992 62.4752 49.5491 61.6165 49.9784 60.9319C50.027 60.8752 50.0675 60.8145 50.104 60.7456C50.4766 60.2636 50.9384 60.1056 51.3475 60.3203C51.9429 60.6322 52.0806 61.3572 52.1009 62.0134C51.5824 61.8838 51.0235 61.9446 50.5212 62.2807C49.2858 63.107 49.0914 64.9419 48.8119 66.2664C48.2367 69.0248 47.6535 71.7832 47.0661 74.5375C46.8231 75.6797 48.581 76.1698 48.824 75.0235C49.2655 72.9537 49.703 70.8799 50.1364 68.8061C50.428 67.4127 50.6103 65.9383 51.0761 64.5895C51.1652 64.3262 51.3758 63.7754 51.6148 63.7592C51.8578 63.7389 52.1373 64.0792 52.2102 64.3789C52.2386 64.4964 52.2872 64.5895 52.3439 64.6746C52.267 65.4077 52.2953 66.1813 52.2507 66.8578C52.2507 66.8942 52.2507 66.9266 52.2507 66.9631C52.1049 66.9995 51.9632 67.0806 51.8335 67.2223C51.1409 67.9757 50.9384 69.0855 50.7521 70.0577C50.5577 71.0622 50.3632 72.0667 50.1607 73.0712C49.8731 74.5091 49.5815 75.947 49.2898 77.385C49.0549 78.5312 50.8128 79.0214 51.0478 77.871C51.3232 76.5222 51.5946 75.1734 51.866 73.8286C51.9672 73.3183 52.0685 72.8079 52.1657 72.2976C52.3318 73.7922 52.4978 75.2828 52.6639 76.7774C52.6153 76.8544 52.5748 76.9394 52.5586 77.0326C52.1859 79.5965 51.6391 82.124 51.1369 84.6637C51.1369 84.6758 51.1369 84.692 51.1369 84.7042H52.9839C53.1175 84.0277 53.2512 83.3554 53.3889 82.6789C53.4902 83.3554 53.5996 84.0318 53.7211 84.7042H55.56C55.56 84.7042 55.56 84.6758 55.56 84.6637C54.8471 80.9696 54.5312 77.1905 54.118 73.452C53.952 71.9776 53.713 70.487 53.6239 69.0086C53.6036 68.7048 53.7535 67.9271 54.2314 68.1863C54.3408 68.2471 54.5231 68.9357 54.5879 69.1787C54.7499 69.8106 54.8593 70.4546 54.9808 71.0946C55.4061 73.4033 55.7666 75.7283 56.1149 78.0492C56.2891 79.2036 58.0429 78.7135 57.8728 77.5632C57.5245 75.2423 57.164 72.9173 56.7387 70.6085C56.52 69.4136 56.3984 67.7651 55.4871 66.8699C55.0942 66.4811 54.5798 66.3353 54.0694 66.3555C54.0451 65.3308 54.0289 63.3501 55.1266 63.9941C55.6167 64.2817 55.8516 64.8811 55.965 65.3996C56.1433 66.2178 56.3053 67.0401 56.4754 67.8623C57.0789 70.7827 57.6703 73.7031 58.2455 76.6316C58.4723 77.7819 60.2302 77.2959 60.0034 76.1455C59.2621 72.3624 58.5938 68.5387 57.6946 64.788C57.3503 63.342 56.0825 61.9081 54.519 62.0944C54.5312 61.418 54.6567 60.6362 55.2765 60.3122C55.3777 60.2596 55.4506 60.2393 55.5802 60.219C55.4871 60.2352 55.7382 60.2798 55.7139 60.2515C55.9529 60.3649 56.1189 60.5755 56.2729 60.7942C56.844 61.6043 57.1802 62.6048 57.4273 63.5526C57.7675 64.8487 58.047 66.1611 58.367 67.4573C59.7927 73.1968 61.3724 78.9039 62.5471 84.7042H64.7829C65.9535 80.7023 67.12 76.6964 68.2906 72.6945C68.4689 72.0869 68.6471 71.4794 68.8212 70.8718C70.1458 71.5725 71.4581 72.2854 72.7259 73.1077C74.9739 74.5658 77.1085 76.2225 78.9555 78.1748C80.7337 80.0583 82.2 82.2334 82.9736 84.7042H84.8692C83.5407 79.7545 79.7332 75.9065 75.703 72.9537L75.7233 72.9335ZM39.3783 48.497C39.3662 48.5537 39.35 48.6063 39.3338 48.663C39.3135 48.6995 39.2892 48.74 39.2649 48.7764C39.2406 48.8007 39.2204 48.8251 39.1961 48.8453C39.1596 48.8696 39.1232 48.8899 39.0827 48.9101C39.0422 48.9223 39.0016 48.9344 38.9571 48.9466C38.9125 48.9466 38.868 48.9466 38.8234 48.9466C38.7829 48.9385 38.7384 48.9263 38.6979 48.9101C38.6614 48.8899 38.6209 48.8656 38.5844 48.8453C38.5601 48.821 38.5358 48.8007 38.5156 48.7764C38.4913 48.74 38.471 48.7035 38.4508 48.663C38.4386 48.6225 38.4265 48.582 38.4143 48.5375C38.4143 48.4929 38.4143 48.4484 38.4143 48.4038C38.4224 48.3633 38.4346 48.3188 38.4508 48.2782C38.471 48.2418 38.4953 48.2013 38.5156 48.1648C38.5399 48.1405 38.5601 48.1162 38.5844 48.096C38.6209 48.0717 38.6574 48.0514 38.6979 48.0312C38.7384 48.019 38.7789 48.0069 38.8234 47.9947C38.868 47.9947 38.9125 47.9947 38.9571 47.9947C38.9976 48.0028 39.0422 48.015 39.0827 48.0312C39.1191 48.0514 39.1596 48.0757 39.1961 48.096C39.2204 48.1203 39.2447 48.1405 39.2649 48.1648C39.2892 48.2013 39.3095 48.2377 39.3297 48.2782C39.3459 48.3309 39.3662 48.3876 39.3743 48.4443C39.3743 48.4524 39.3743 48.4605 39.3743 48.4727C39.3743 48.4808 39.3743 48.4889 39.3743 48.501L39.3783 48.497ZM42.801 81.9256C42.5823 81.0547 42.3716 80.1838 42.1651 79.313C42.5539 79.4143 42.9387 79.5196 43.3275 79.6168C43.1493 80.3864 42.9711 81.156 42.805 81.9256H42.801ZM66.5206 48.3998C66.5287 48.3593 66.5408 48.3147 66.557 48.2742C66.5773 48.2377 66.6016 48.1972 66.6218 48.1608C66.6461 48.1365 66.6664 48.1122 66.6907 48.0919C66.7271 48.0676 66.7636 48.0474 66.8041 48.0271C66.8446 48.015 66.8851 48.0028 66.9297 47.9907C66.9742 47.9907 67.0188 47.9907 67.0633 47.9907C67.1038 47.9988 67.1484 48.0109 67.1889 48.0271C67.2254 48.0474 67.2659 48.0717 67.3023 48.0919C67.3266 48.1162 67.3509 48.1365 67.3712 48.1608C67.3955 48.1972 67.4157 48.2337 67.436 48.2742C67.4522 48.3268 67.4724 48.3836 67.4805 48.4403C67.4805 48.4484 67.4805 48.4565 67.4805 48.4686C67.4805 48.4767 67.4805 48.4848 67.4805 48.497C67.4684 48.5537 67.4522 48.6063 67.436 48.663C67.4157 48.6995 67.3914 48.74 67.3712 48.7764C67.3469 48.8007 67.3266 48.8251 67.3023 48.8453C67.2659 48.8696 67.2294 48.8899 67.1889 48.9101C67.1484 48.9223 67.1079 48.9344 67.0633 48.9466C67.0188 48.9466 66.9742 48.9466 66.9297 48.9466C66.8892 48.9385 66.8487 48.9263 66.8041 48.9101C66.7677 48.8899 66.7271 48.8656 66.6907 48.8453C66.6664 48.821 66.6421 48.8007 66.6218 48.7764C66.5975 48.74 66.5773 48.7035 66.557 48.663C66.5449 48.6225 66.5327 48.582 66.5206 48.5375C66.5206 48.4929 66.5206 48.4484 66.5206 48.4038V48.3998ZM63.7744 81.6866C63.6164 80.9696 63.4584 80.2527 63.2883 79.5358C63.6974 79.4102 64.1065 79.2765 64.5156 79.1469C64.2685 79.9935 64.0214 80.84 63.7744 81.6866ZM67.0957 70.3088C66.4396 72.5527 65.7874 74.7927 65.1313 77.0366C64.3779 77.2837 63.6204 77.5227 62.863 77.7576C62.0975 74.6144 61.2833 71.4834 60.4894 68.3484C59.9304 66.1287 59.5781 63.7673 58.7396 61.6327C58.61 61.3046 58.4601 60.9441 58.2819 60.5917C59.1163 60.1826 59.9021 59.6925 60.6312 59.1254C61.1577 63.2326 62.3486 67.3641 66.2573 69.4784C66.5894 69.6567 66.9216 69.8308 67.2497 70.005C67.1849 70.0901 67.1322 70.1873 67.0957 70.3088ZM69.1655 68.9073C67.3874 67.9838 65.6011 67.2264 64.4467 65.5009C62.9319 63.2367 62.5511 60.3487 62.2919 57.6996C62.2919 57.6753 62.2797 57.651 62.2757 57.6267C64.1267 55.6704 65.4715 53.2158 66.1722 50.6113C66.5975 50.7652 67.0269 50.8057 67.4846 50.7247C67.5818 50.7085 67.675 50.6761 67.7722 50.6437C68.8334 57.4323 71.3568 63.9495 72.4302 70.7381C71.3649 70.0901 70.2713 69.4784 69.1655 68.9033V68.9073Z" fill="var(--fill-0, #323232)"/>
<path id="Vector_27" d="M19.7812 84.8861C19.2466 85.9271 20.8181 86.8506 21.3569 85.8056C21.5432 85.441 21.7133 85.0643 21.8794 84.6836H19.8784C19.846 84.7484 19.8177 84.8173 19.7853 84.8821L19.7812 84.8861Z" fill="var(--fill-0, #323232)"/>
<path id="Vector_28" d="M84.8878 84.6836H82.9922C83.0853 84.9793 83.1745 85.279 83.2474 85.5868C83.5188 86.7291 85.2767 86.243 85.0053 85.1008C84.9729 84.959 84.9283 84.8213 84.8919 84.6836H84.8878Z" fill="var(--fill-0, #323232)"/>
<path id="Vector_29" d="M39.374 48.4398C39.3619 48.3831 39.3457 48.3305 39.3295 48.2738C39.3092 48.2373 39.2849 48.1968 39.2647 48.1604C39.2404 48.1361 39.2201 48.1117 39.1958 48.0915C39.1593 48.0672 39.1229 48.047 39.0824 48.0267C39.0419 48.0145 39.0014 48.0024 38.9568 47.9902C38.9123 47.9902 38.8677 47.9902 38.8232 47.9902C38.7827 47.9983 38.7381 48.0105 38.6976 48.0267C38.6611 48.047 38.6206 48.0712 38.5842 48.0915C38.5599 48.1158 38.5356 48.1361 38.5153 48.1604C38.491 48.1968 38.4708 48.2333 38.4505 48.2738C38.4384 48.3143 38.4262 48.3548 38.4141 48.3993C38.4141 48.4439 38.4141 48.4885 38.4141 48.533C38.4222 48.5735 38.4343 48.614 38.4505 48.6586C38.4708 48.695 38.4951 48.7355 38.5153 48.772C38.5396 48.7963 38.5599 48.8206 38.5842 48.8408C38.6206 48.8651 38.6571 48.8854 38.6976 48.9056C38.7381 48.9178 38.7786 48.9299 38.8232 48.9421C38.8677 48.9421 38.9123 48.9421 38.9568 48.9421C38.9973 48.934 39.0378 48.9218 39.0824 48.9056C39.1188 48.8854 39.1593 48.8611 39.1958 48.8408C39.2201 48.8165 39.2444 48.7963 39.2647 48.772C39.289 48.7355 39.3092 48.6991 39.3335 48.6586C39.3497 48.6059 39.3659 48.5492 39.3781 48.4925C39.3781 48.4844 39.3781 48.4763 39.3781 48.4641C39.3781 48.456 39.3781 48.4479 39.3781 48.4358L39.374 48.4398Z" fill="var(--fill-0, white)"/>
<path id="Vector_30" d="M67.4834 48.4398C67.4712 48.3831 67.4551 48.3305 67.4388 48.2738C67.4186 48.2373 67.3943 48.1968 67.374 48.1604C67.3497 48.1361 67.3295 48.1117 67.3052 48.0915C67.2687 48.0672 67.2323 48.047 67.1918 48.0267C67.1513 48.0145 67.1108 48.0024 67.0662 47.9902C67.0216 47.9902 66.9771 47.9902 66.9325 47.9902C66.892 47.9983 66.8515 48.0105 66.807 48.0267C66.7705 48.047 66.73 48.0712 66.6936 48.0915C66.6692 48.1158 66.645 48.1361 66.6247 48.1604C66.6004 48.1968 66.5801 48.2333 66.5599 48.2738C66.5477 48.3143 66.5356 48.3548 66.5234 48.3993C66.5234 48.4439 66.5234 48.4885 66.5234 48.533C66.5315 48.5735 66.5437 48.6181 66.5599 48.6586C66.5801 48.695 66.6044 48.7355 66.6247 48.772C66.649 48.7963 66.6692 48.8206 66.6936 48.8408C66.73 48.8651 66.7665 48.8854 66.807 48.9056C66.8475 48.9178 66.888 48.9299 66.9325 48.9421C66.9771 48.9421 67.0216 48.9421 67.0662 48.9421C67.1067 48.934 67.1513 48.9218 67.1918 48.9056C67.2282 48.8854 67.2687 48.8611 67.3052 48.8408C67.3295 48.8165 67.3538 48.7963 67.374 48.772C67.3983 48.7355 67.4186 48.6991 67.4388 48.6586C67.4551 48.6059 67.4753 48.5492 67.4834 48.4925C67.4834 48.4844 67.4834 48.4763 67.4834 48.4641C67.4834 48.456 67.4834 48.4479 67.4834 48.4358V48.4398Z" fill="var(--fill-0, white)"/>
<path id="Vector_31" d="M17.8888 26.5877C16.8802 26.7052 16.6372 28.0135 17.6458 28.3781C18.468 28.6737 19.8209 28.8965 20.2624 29.7431C20.7647 30.703 20.716 31.9506 20.9469 32.9915C21.1332 33.8421 22.5428 33.8786 22.7048 32.9915C22.8993 31.906 22.9762 30.7071 23.442 29.6945C23.8997 28.6859 25.0339 28.6211 26.0141 28.4996C26.5042 28.4388 26.9254 28.1229 26.9254 27.5882C26.9254 27.0535 26.5082 26.6971 26.0141 26.6769C25.1473 26.6404 24.0334 26.604 23.3975 25.9235C22.879 25.3686 22.7534 24.5949 22.721 23.8334C22.721 23.7889 22.7291 23.7443 22.7291 23.7038C22.7332 23.6106 22.7291 23.5296 22.7089 23.4527C22.7089 23.2502 22.7089 23.0517 22.7089 22.8654C22.7089 21.6907 20.8862 21.6907 20.8862 22.8654C20.8862 23.1489 20.8943 23.4324 20.9064 23.72C20.8619 24.4612 20.8376 25.4293 20.2462 25.9721C19.6589 26.5108 18.6382 26.5067 17.8929 26.5918L17.8888 26.5877ZM22.1054 27.2115C22.2917 27.4059 22.5023 27.5639 22.721 27.7016C22.4578 27.9122 22.2188 28.1634 22.0244 28.4834C21.9555 28.5968 21.8988 28.7142 21.838 28.8317C21.7975 28.7629 21.7651 28.6899 21.7206 28.6251C21.4816 28.2646 21.1738 27.9892 20.8295 27.7543C21.0806 27.6206 21.3196 27.4627 21.5342 27.2561C21.6517 27.1427 21.757 27.0211 21.8502 26.8956C21.9312 27.0009 22.0122 27.1103 22.1054 27.2115Z" fill="var(--fill-0, #323232)"/>
<path id="Vector_32" d="M75.784 48.1162C75.14 48.5779 74.1314 48.5536 73.378 48.6306C72.3857 48.7318 72.1021 50.1009 73.135 50.4209C73.9532 50.676 75.2818 50.8543 75.7962 51.5307C75.9663 51.7535 76.104 52.3408 76.181 52.7296C76.2903 53.2684 76.3592 53.8111 76.4928 54.3417C76.7075 55.1883 78.0644 55.2328 78.2508 54.3417C78.4533 53.3737 78.5505 52.3124 79.0406 51.4375C79.478 50.6558 80.7661 50.6193 81.6167 50.5302C82.1068 50.4776 82.5281 50.1495 82.5281 49.6189C82.5281 49.0883 82.1109 48.7237 81.6167 48.7075C80.7823 48.6792 79.7211 48.667 79.0203 48.1486C78.4452 47.7233 78.2994 47.0144 78.267 46.3218C78.267 46.2975 78.271 46.2732 78.2751 46.2448C78.2791 46.176 78.275 46.1071 78.2588 46.0423C78.2588 45.8641 78.2588 45.6859 78.2588 45.5157C78.2588 44.3411 76.4361 44.3411 76.4361 45.5157C76.4361 45.7547 76.4442 45.9978 76.4564 46.2408C76.4078 46.901 76.3551 47.703 75.7881 48.1121L75.784 48.1162ZM77.7363 49.4366C77.866 49.546 78.0037 49.6472 78.1414 49.7363C77.9794 49.87 77.8255 50.0199 77.6877 50.1981C77.5743 50.348 77.4771 50.5019 77.388 50.6639C77.2989 50.5181 77.2017 50.3723 77.0802 50.2386C76.9222 50.0604 76.7359 49.9105 76.5414 49.7768C76.6751 49.6999 76.8047 49.6148 76.9303 49.5176C77.1045 49.384 77.2462 49.2341 77.3758 49.0761C77.4812 49.2017 77.5986 49.3232 77.7323 49.4366H77.7363Z" fill="var(--fill-0, #323232)"/>
<path id="Vector_33" d="M50.2012 50.6035C50.2012 50.6035 50.1648 50.6076 50.1445 50.6076C50.1243 50.6076 50.104 50.6116 50.0838 50.6157C50.0554 50.6157 50.0311 50.6238 50.0028 50.6278C49.9866 50.6278 49.9704 50.6278 49.9582 50.6359C49.942 50.64 49.9339 50.6521 49.9177 50.6562C49.8326 50.6845 49.7476 50.725 49.6747 50.7817C49.6463 50.802 49.622 50.8222 49.5977 50.8425C49.4033 51.0126 49.2777 51.2516 49.2899 51.5149C49.2899 51.5837 49.3061 51.6526 49.3223 51.7174C49.3223 51.7295 49.3223 51.7417 49.3223 51.7579C49.5937 53.3497 50.6427 54.7674 52.2224 55.2454C53.5793 55.6545 55.1671 55.2454 56.1028 54.1679C56.7549 53.4145 57.0627 52.5032 57.1397 51.5149C57.1762 51.0248 56.6901 50.6035 56.2283 50.6035H50.2012ZM53.5388 53.5766C53.5793 53.5685 53.6401 53.5563 53.6401 53.5604C53.632 53.5725 53.5874 53.5766 53.5388 53.5766ZM54.8269 52.8637C54.8269 52.8637 54.8066 52.888 54.7985 52.8961C54.7499 52.9487 54.7013 53.0014 54.6487 53.054C54.6041 53.0986 54.5555 53.1391 54.5109 53.1796C54.5069 53.1837 54.5028 53.1877 54.4988 53.1918C54.4947 53.1918 54.4907 53.1918 54.4866 53.1999C54.3854 53.2647 54.2841 53.3335 54.1747 53.3862C54.1626 53.3943 54.1342 53.4105 54.1099 53.4226C54.1018 53.4226 54.0978 53.4227 54.0856 53.4308C54.0532 53.4389 54.0208 53.455 53.9884 53.4632C53.8669 53.5037 53.7454 53.5361 53.6198 53.5604C53.5955 53.5644 53.5712 53.5685 53.5429 53.5725C53.5307 53.5725 53.5307 53.5725 53.5267 53.5766C53.4862 53.5766 53.4416 53.5766 53.4295 53.5766C53.3079 53.5806 53.1905 53.5766 53.069 53.5685C53.069 53.5685 53.0487 53.5685 53.0325 53.5644C52.9718 53.5523 52.911 53.5442 52.8543 53.528C52.7368 53.4996 52.6234 53.4591 52.51 53.4226C52.51 53.4226 52.51 53.4226 52.5019 53.4226C52.4371 53.3902 52.3763 53.3578 52.3115 53.3254C52.2548 53.293 52.2022 53.2606 52.1495 53.2282C52.1414 53.2242 52.1171 53.208 52.0888 53.1877C52.0604 53.1675 51.9996 53.1189 51.9834 53.1027C51.9186 53.046 51.8579 52.9892 51.8012 52.9285C51.7485 52.8758 51.708 52.811 51.6513 52.7624C51.6392 52.7422 51.623 52.726 51.6108 52.7057C51.55 52.6207 51.5055 52.5275 51.4528 52.4343H55.078C55.0618 52.4708 55.0456 52.5032 55.0253 52.5396C54.9605 52.6571 54.8836 52.7624 54.8147 52.8718L54.8269 52.8637Z" fill="var(--fill-0, #323232)"/>
<path id="Vector_34" d="M48.595 39.1449C48.0401 39.0112 47.5014 38.999 46.9424 39.1003C46.5495 39.1732 46.1769 39.3231 45.8083 39.4689C45.5815 39.558 45.3911 39.6674 45.2655 39.8861C45.1521 40.0805 45.1035 40.3681 45.1724 40.5868C45.2453 40.8056 45.379 41.0202 45.5896 41.1296C45.7921 41.239 46.0675 41.3078 46.2903 41.2228C46.6589 41.0769 47.0315 40.9352 47.4244 40.8623C47.5865 40.8501 47.7485 40.8501 47.9105 40.8623C47.9793 40.8744 48.0442 40.8866 48.113 40.9028C48.3479 40.9595 48.6031 40.9352 48.8138 40.8096C49.0041 40.7002 49.1823 40.4815 49.231 40.2669C49.3363 39.797 49.0892 39.2664 48.595 39.1449Z" fill="var(--fill-0, #323232)"/>
<path id="Vector_35" d="M60.9137 39.509C60.4317 39.2741 59.9537 39.1444 59.4231 39.0837C58.9371 39.027 58.4105 39.0675 57.9488 39.2457C57.7219 39.3348 57.5316 39.4482 57.406 39.6629C57.2926 39.8573 57.244 40.1449 57.3128 40.3636C57.3857 40.5824 57.5194 40.797 57.73 40.9064C57.9366 41.0158 58.208 41.0846 58.4308 40.9996C58.5644 40.9469 58.7021 40.9185 58.8439 40.8942C59.0019 40.8821 59.1599 40.8861 59.3178 40.8983C59.5568 40.9388 59.7917 41.0036 60.0185 41.0927C60.2332 41.194 60.456 41.2385 60.695 41.1737C60.9056 41.117 61.1365 40.9509 61.2377 40.7565C61.3512 40.5459 61.4038 40.2907 61.3309 40.0558C61.2621 39.8411 61.1243 39.6143 60.9137 39.513V39.509Z" fill="var(--fill-0, #323232)"/>
</g>
</g>
</g>
</g>
</svg>
