<svg preserveAspectRatio="xMidYMid meet" width="100%" height="100%" overflow="visible" style="display: block;" viewBox="0 0 61.0752 58.5205" fill="none" xmlns="http://www.w3.org/2000/svg">
<g id="Group">
<path id="Vector" d="M31.7767 31.9817C31.7767 31.9817 31.7258 31.9885 31.6953 31.9953C31.7326 31.9953 31.7733 31.9919 31.7767 31.9817Z" fill="var(--fill-0, white)"/>
<path id="Vector_2" d="M29.9531 31.0245C29.9973 31.0994 30.0346 31.1777 30.0855 31.2526C30.0957 31.2697 30.1093 31.2867 30.1195 31.3003C30.1636 31.3412 30.2009 31.3957 30.2451 31.4399C30.296 31.491 30.3469 31.5421 30.3979 31.5864C30.4114 31.6 30.4657 31.6409 30.4861 31.6579C30.5065 31.6715 30.5302 31.6851 30.537 31.6919C30.5812 31.7226 30.6253 31.7498 30.6728 31.7737C30.7238 31.8043 30.7781 31.8281 30.8324 31.8554C30.8324 31.8554 30.8324 31.8554 30.8392 31.8554C30.9342 31.886 31.0293 31.9201 31.1277 31.9439C31.1787 31.9576 31.2262 31.9644 31.2771 31.9746C31.2907 31.9746 31.3077 31.978 31.3077 31.978C31.4095 31.9848 31.508 31.9882 31.6098 31.9848C31.62 31.9848 31.6539 31.9848 31.6913 31.9848C31.6981 31.9848 31.6913 31.9848 31.7049 31.9814C31.7252 31.978 31.7456 31.9746 31.7694 31.9712C31.8746 31.9507 31.9799 31.9235 32.0783 31.8894C32.1055 31.8792 32.1326 31.869 32.1598 31.8622C32.17 31.8622 32.1734 31.8588 32.1801 31.8554C32.2005 31.8418 32.2209 31.8281 32.2345 31.8247C32.3261 31.7771 32.4076 31.7226 32.4959 31.6681C32.5027 31.6681 32.5027 31.6647 32.5061 31.6613C32.5094 31.6613 32.5094 31.6579 32.5162 31.6511C32.5536 31.617 32.5943 31.583 32.6317 31.5455C32.6758 31.5046 32.7165 31.457 32.7573 31.4127C32.7641 31.4025 32.7742 31.3957 32.781 31.3854C32.8387 31.2901 32.9066 31.2016 32.9576 31.1062C32.9711 31.079 32.9881 31.0483 33.0017 31.0177H29.9633L29.9531 31.0245Z" fill="var(--fill-0, white)"/>
<path id="Vector_3" d="M27.5597 17.5093C27.5597 17.5093 27.5292 17.5093 27.5156 17.5059C27.5461 17.5195 27.6682 17.5229 27.5597 17.5093Z" fill="var(--fill-0, white)"/>
<path id="Vector_4" d="M41.0573 40.2941C40.9114 40.3452 40.7654 40.3963 40.6194 40.4474C40.4666 40.5938 40.2528 40.6892 40.0593 40.696C40.0117 40.696 39.971 40.696 39.9269 40.6857C39.017 41.0024 38.1038 41.3191 37.194 41.6358L33.6328 42.8754C33.6464 42.9061 33.6634 42.9333 33.6735 42.9673C34.1794 44.5202 34.6886 46.0765 35.1944 47.6293C35.3201 47.5782 35.4423 47.5271 35.5679 47.4761C37.9782 46.4817 40.3886 45.4907 42.7989 44.4964C42.2184 43.0968 41.6379 41.6937 41.0573 40.2941Z" fill="var(--fill-0, white)"/>
<path id="Vector_5" d="M40.7686 7.35123C40.4189 7.37507 40.1405 7.08901 40.0319 6.78934C39.6245 5.65535 39.0032 4.44644 38.0697 3.66321C35.7883 2.01501 32.8382 1.44631 30.0714 1.54507C27.5422 1.63701 25.176 2.48495 23.1357 3.98672C22.1682 4.69844 21.2991 5.55319 20.5353 6.48286C19.914 7.23885 19.235 8.097 18.9567 9.05391C18.3456 11.155 18.607 13.6103 19.0042 15.725C19.1434 16.4742 19.3335 17.2132 19.5508 17.9453C19.6356 16.9237 19.7239 15.9055 19.8088 14.8839C19.8393 14.5093 20.0294 14.288 20.3689 14.1449C22.0867 13.423 23.9301 12.633 25.6751 11.8429C27.0092 11.2402 28.3434 10.6034 29.569 9.79969C30.0578 9.47959 30.5263 9.13224 30.9371 8.70997C31.0084 8.63505 31.0797 8.54651 31.151 8.46138C31.1679 8.40349 31.1917 8.38646 31.2019 8.40008C31.3377 8.24003 31.4837 8.0936 31.6839 8.04592C32.1796 7.93014 32.6311 8.27408 32.6515 8.78489C32.6583 8.95516 32.587 9.13564 32.4953 9.30932C32.6175 9.28889 32.7499 9.32975 32.424 9.43191C32.3561 9.54769 32.2882 9.66007 32.2305 9.75542C31.9657 10.2151 31.6941 10.6681 31.4225 11.121C31.5312 11.0597 31.6432 11.0052 31.7518 10.9439C33.0045 10.2254 34.5696 9.25483 35.1467 7.85182C35.4387 7.1469 36.3417 7.10945 36.6201 7.85182C37.0139 8.90067 37.815 9.69753 38.5042 10.5557C39.1968 11.4241 39.8316 12.3401 40.4359 13.2732C40.9689 14.0939 41.6988 14.9656 41.8312 15.9566C41.95 16.8454 42.0688 17.7376 42.1876 18.6264C42.6697 17.0565 43.0465 15.4424 43.2061 13.8078C43.3792 12.0575 43.6644 7.14009 40.7618 7.34442L40.7686 7.35123Z" fill="var(--fill-0, #323232)"/>
<path id="Vector_6" d="M32.2044 43.3658C31.6578 43.5327 31.1452 43.4987 30.6326 43.3795C30.2863 44.3875 29.94 45.3954 29.5938 46.4C29.6922 46.4954 29.7703 46.6146 29.8212 46.744C30.1267 47.4761 30.4289 48.2083 30.7344 48.937H32.0109C32.2655 48.1436 32.5201 47.3467 32.7713 46.5533C32.8324 46.3626 32.9513 46.2127 33.104 46.1174C32.8053 45.2013 32.5065 44.2887 32.2078 43.3727C32.2078 43.3727 32.2078 43.3658 32.2078 43.3624L32.2044 43.3658Z" fill="var(--fill-0, #E4D8F3)"/>
<path id="Vector_7" d="M22.0493 40.5463C21.9983 40.5463 21.9474 40.5395 21.8999 40.5259C21.8082 40.5055 21.7302 40.4646 21.6623 40.4169C21.5672 40.3863 21.4721 40.3522 21.3771 40.3216C21.0716 41.5033 20.766 42.6849 20.4571 43.8666C20.3858 44.1458 20.3213 44.4251 20.25 44.7077C20.3586 44.7452 20.4673 44.7826 20.5759 44.8201C22.9387 45.6442 25.3049 46.4683 27.6677 47.2924C28.1668 45.8349 28.6692 44.3808 29.1683 42.9233C26.7953 42.1298 24.4189 41.3364 22.0459 40.5429L22.0493 40.5463Z" fill="var(--fill-0, white)"/>
<path id="Vector_8" d="M30.4557 41.742C30.6357 41.8032 30.8529 41.8441 31.0261 41.9327C30.9073 41.8816 31.2909 41.9429 31.4165 41.9429C31.5727 41.9429 31.7763 41.8986 31.7084 41.9258C31.7186 41.9258 31.7254 41.919 31.7356 41.9156C31.9359 41.8305 32.1532 41.7692 32.3569 41.7011C34.6484 40.9042 36.9399 40.1074 39.2314 39.3139C39.1092 38.248 39.0176 37.1788 38.9497 36.1095C37.7513 37.4682 36.2677 38.5511 34.5499 39.1947C32.1973 40.0733 29.5154 40.012 27.1695 39.1437C25.6758 38.5886 24.3077 37.744 23.1602 36.6577C23.1364 37.5227 23.0753 38.3843 22.9531 39.239C23.7204 39.4944 24.4876 39.7532 25.2548 40.0086C26.9896 40.5875 28.7244 41.1664 30.4557 41.7454V41.742Z" fill="var(--fill-0, white)"/>
<path id="Vector_9" d="M31.125 8.60955C31.1386 8.57903 31.1521 8.54852 31.1725 8.52478C31.2166 8.46714 31.2166 8.41627 31.203 8.39932C31.186 8.41966 31.1691 8.44001 31.1521 8.46035C31.142 8.49426 31.1318 8.53834 31.1284 8.60955H31.125Z" fill="var(--fill-0, white)"/>
<path id="Vector_10" d="M43.4247 21.3979C43.2176 21.3638 43.0106 21.3945 42.8069 21.4422C42.705 21.6908 42.61 21.9427 42.4979 22.1845C42.1415 22.9678 41.1604 22.4467 41.0755 21.7963C40.8175 19.8621 40.5595 17.9244 40.3015 15.9902C40.3015 15.9902 40.3015 15.9868 40.3015 15.9833C40.2675 15.9289 40.237 15.8676 40.2064 15.8165C39.7888 15.1082 39.3509 14.4067 38.896 13.7188C38.2747 12.7755 37.6161 11.8697 36.8896 11.0047C36.506 10.5484 36.1496 10.0921 35.8372 9.60849C34.3741 11.553 31.8177 12.8163 29.6586 13.637C29.0204 13.8788 28.4704 13.0479 28.7963 12.5099C28.9457 12.2647 29.0917 12.0195 29.241 11.7709C28.226 12.3396 27.1702 12.8334 26.111 13.3067C24.5086 14.0219 22.8961 14.7131 21.2835 15.3942C21.1104 17.4545 20.9372 19.5147 20.7641 21.5716C20.6894 22.4536 19.5691 22.5898 19.2636 21.7759C19.2059 21.6226 19.1515 21.4728 19.0938 21.3196C19.0361 21.2991 18.9818 21.2753 18.9241 21.2378C18.2485 20.8122 17.539 21.1186 17.2335 21.8167C16.9042 22.5591 16.9415 23.4956 17.1146 24.272C17.3014 25.1097 17.6273 25.7704 18.4013 26.1961C18.9071 26.4753 19.491 26.6524 20.0648 26.7341C20.299 26.7682 20.5604 27.0372 20.5978 27.2688C20.9712 29.6661 21.5517 32.084 22.9538 34.1033C25.578 37.8799 30.9453 39.4668 35.07 37.2874C38.7263 35.3565 40.3049 31.4744 40.9159 27.5923C40.9567 27.3369 41.2147 27.1223 41.4489 27.0576C42.0973 26.8771 42.9223 26.7648 43.5028 26.4174C44.3006 25.9407 44.6672 24.5479 44.6978 23.6863C44.7249 22.886 44.3651 21.5409 43.4315 21.3945L43.4247 21.3979ZM31.5326 25.3788C32.5171 25.3788 32.5171 26.9112 31.5326 26.9112C30.5481 26.9112 30.5481 25.3788 31.5326 25.3788ZM26.7492 20.71C25.7647 20.71 25.7647 19.1776 26.7492 19.1776C27.7337 19.1776 27.7337 20.71 26.7492 20.71ZM27.5131 17.5021C27.4961 17.5021 27.4757 17.4987 27.4587 17.4953C27.1905 17.4681 26.919 17.4579 26.6508 17.4647C26.5116 17.4681 26.3758 17.4749 26.2366 17.4885C26.223 17.4885 26.1857 17.4953 26.1517 17.4987C26.1178 17.5055 26.0499 17.5158 26.0329 17.5192C25.819 17.56 25.6052 17.6145 25.4049 17.6997C25.0111 17.8631 24.5799 17.5192 24.4645 17.165C24.4068 16.9811 24.4441 16.7393 24.5426 16.5759C24.6512 16.3886 24.8074 16.3035 24.9975 16.2251C25.5101 16.0106 26.1008 15.9527 26.6508 15.9391C27.2788 15.922 27.9272 15.9902 28.5349 16.157C28.9491 16.2694 29.1596 16.6951 29.0679 17.1003C28.9762 17.5055 28.5145 17.7405 28.1275 17.635C27.9951 17.5975 27.8627 17.5668 27.7269 17.543C27.6828 17.5362 27.547 17.5362 27.5131 17.509V17.5021ZM33.8377 32.4892C33.0535 33.3984 31.7227 33.739 30.5854 33.395C29.2614 32.9932 28.3787 31.8013 28.1547 30.463C28.1547 30.4528 28.1547 30.4426 28.1547 30.4289C28.1411 30.3745 28.1309 30.3166 28.1275 30.2587C28.1173 30.0373 28.226 29.833 28.3855 29.6934C28.4059 29.6729 28.4263 29.6559 28.45 29.6423C28.5111 29.598 28.5824 29.564 28.6537 29.5401C28.6673 29.5367 28.6741 29.5265 28.6877 29.5231C28.7013 29.5231 28.7148 29.5197 28.725 29.5163C28.7488 29.5095 28.7692 29.5095 28.7929 29.5061C28.8099 29.5061 28.8269 29.5027 28.8438 29.4993C28.8608 29.4993 28.8744 29.4959 28.8914 29.4959H33.9429C34.3299 29.4959 34.7373 29.85 34.7067 30.2621C34.6422 31.0896 34.3842 31.8558 33.8377 32.4926V32.4892ZM35.603 20.71C34.6185 20.71 34.6185 19.1776 35.603 19.1776C36.5875 19.1776 36.5875 20.71 35.603 20.71ZM38.217 17.165C38.1763 17.3489 38.0235 17.5294 37.8674 17.6213C37.718 17.7099 37.4498 17.7712 37.28 17.6997C37.073 17.6111 36.8523 17.5566 36.6282 17.5158C36.6045 17.5124 36.5773 17.509 36.5535 17.5021C36.5094 17.4987 36.4653 17.4919 36.4211 17.4885C36.2921 17.4783 36.1631 17.4681 36.0307 17.4647C35.7524 17.4579 35.474 17.4681 35.199 17.4987C35.1786 17.4987 35.1549 17.5021 35.1345 17.5055C35.0666 17.5158 34.9987 17.526 34.9308 17.5396C34.8052 17.5634 34.6796 17.5941 34.554 17.6281C34.1398 17.7405 33.7426 17.4885 33.6136 17.0935C33.488 16.7019 33.763 16.2558 34.1466 16.1502C34.7543 15.9833 35.4027 15.9152 36.0307 15.9323C36.5807 15.9459 37.1714 16.0038 37.684 16.2183C37.8775 16.3 38.0269 16.392 38.1389 16.5691C38.251 16.7427 38.2612 16.9641 38.217 17.1582V17.165Z" fill="var(--fill-0, white)"/>
<path id="Vector_11" d="M32.3834 9.37344C32.3766 9.40057 32.3597 9.43109 32.3359 9.4616C32.3698 9.45143 32.4004 9.44465 32.4241 9.43448C32.4478 9.39379 32.4716 9.3531 32.4953 9.31241C32.4411 9.32258 32.3902 9.34292 32.3834 9.37683V9.37344Z" fill="var(--fill-0, white)"/>
<path id="Vector_12" d="M59.6708 58.1186C58.9918 56.753 58.34 55.3534 57.4132 54.1309C56.2386 52.578 54.4224 51.6688 52.7725 50.7085C49.8156 48.9853 46.733 47.5074 43.603 46.1248C43.4842 46.0738 43.3959 46.0022 43.3314 45.9239C42.9953 46.0635 42.6626 46.1998 42.3265 46.3394C39.8585 47.3576 37.3938 48.3724 34.9258 49.3906C34.5286 49.554 34.1042 49.2135 33.9854 48.8559C33.9243 48.6721 33.8666 48.4916 33.8054 48.3077C33.6527 48.7878 33.4999 49.268 33.3438 49.7482C34.206 52.3601 34.5863 55.0776 35.2924 57.7303C35.3875 58.0811 35.2449 58.3569 35.0174 58.5204H60.3532C60.3532 58.5204 60.3498 58.5102 60.3464 58.5034C60.085 58.5408 59.8168 58.4387 59.6606 58.1254L59.6708 58.1186Z" fill="var(--fill-0, white)"/>
<path id="Vector_13" d="M33.8337 58.1319C33.1581 55.5881 32.7779 52.983 31.9869 50.4698H30.8666C30.0756 53.0851 29.6071 55.8128 29.2031 58.5133H34.0679C33.9627 58.4248 33.8778 58.3022 33.8337 58.1319Z" fill="var(--fill-0, #E4D8F3)"/>
<path id="Vector_14" d="M28.8873 48.4498C28.8873 48.4498 28.8805 48.4635 28.8805 48.4737C28.7515 48.8449 28.3475 49.1513 27.9402 49.0083C27.5633 48.8755 27.1831 48.7427 26.8063 48.6133C24.3858 47.7688 21.9686 46.9276 19.5481 46.0831C19.212 46.2908 18.7809 46.41 18.4516 46.5496C16.3739 47.4146 14.2114 48.0718 12.1202 48.9198C10.9014 49.4136 9.68944 49.9278 8.48427 50.459C7.50995 50.8881 6.53902 51.2967 5.68692 51.9506C3.5889 53.5613 2.26151 55.9893 1.58594 58.5161H27.6754C27.6754 58.4923 27.6754 58.4684 27.6754 58.4446C28.1031 55.5568 28.5886 52.6248 29.4577 49.829C29.2675 49.3693 29.0774 48.913 28.8873 48.4532V48.4498Z" fill="var(--fill-0, white)"/>
<path id="Vector_15" d="M31.1562 8.4607C31.1732 8.44036 31.1902 8.42001 31.2071 8.39967C31.1935 8.3861 31.1732 8.40645 31.1562 8.4607Z" fill="var(--fill-0, #323232)"/>
<path id="Vector_16" d="M32.4931 9.31231C32.4693 9.353 32.4456 9.39369 32.4219 9.43438C32.7474 9.32927 32.6152 9.28858 32.4931 9.31231Z" fill="var(--fill-0, #323232)"/>
<path id="Vector_17" d="M26.754 19.1779C25.7695 19.1779 25.7695 20.7103 26.754 20.7103C27.7385 20.7103 27.7385 19.1779 26.754 19.1779Z" fill="var(--fill-0, #323232)"/>
<path id="Vector_18" d="M31.5353 26.9114C32.5198 26.9114 32.5198 25.379 31.5353 25.379C30.5507 25.379 30.5507 26.9114 31.5353 26.9114Z" fill="var(--fill-0, #323232)"/>
<path id="Vector_19" d="M35.6134 19.1778C34.6289 19.1778 34.6289 20.7102 35.6134 20.7102C36.5979 20.7102 36.5979 19.1778 35.6134 19.1778Z" fill="var(--fill-0, #323232)"/>
<path id="Vector_20" d="M34.5507 17.6311C34.6763 17.5971 34.8019 17.5664 34.9275 17.5426C34.9954 17.529 35.0633 17.5188 35.1312 17.5086C35.1516 17.5086 35.1754 17.5017 35.1957 17.5017C35.4707 17.4711 35.7525 17.4609 36.0275 17.4677C36.1565 17.4711 36.2889 17.4779 36.4179 17.4915C36.462 17.4949 36.5061 17.5017 36.5503 17.5051C36.574 17.5086 36.6012 17.512 36.625 17.5188C36.8456 17.5596 37.0663 17.6141 37.2768 17.7027C37.4465 17.7742 37.7147 17.7129 37.8641 17.6243C38.0236 17.5324 38.173 17.3485 38.2137 17.168C38.2579 16.9705 38.2477 16.7526 38.1357 16.5789C38.0202 16.3984 37.8743 16.3065 37.6808 16.2281C37.1681 16.0136 36.5774 15.9557 36.0275 15.9421C35.3994 15.9251 34.751 15.9932 34.1433 16.16C33.7563 16.2656 33.4813 16.7083 33.6103 17.1033C33.7393 17.4983 34.1365 17.7503 34.5507 17.638V17.6311Z" fill="var(--fill-0, #323232)"/>
<path id="Vector_21" d="M25.4045 17.6995C25.6048 17.6144 25.8187 17.5599 26.0325 17.519C26.0529 17.5156 26.1174 17.5054 26.1514 17.4986C26.1853 17.4952 26.2226 17.4918 26.2362 17.4884C26.3754 17.4748 26.5112 17.468 26.6504 17.4646C26.9186 17.4577 27.1902 17.4646 27.4584 17.4952C27.4753 17.4952 27.4957 17.4986 27.5127 17.502C27.55 17.5293 27.6824 17.5293 27.7266 17.5361C27.8624 17.5599 27.9948 17.594 28.1272 17.628C28.5108 17.7336 28.9759 17.4986 29.0675 17.0934C29.1592 16.6881 28.9453 16.2625 28.5345 16.1501C27.9269 15.9832 27.2784 15.9151 26.6504 15.9321C26.1004 15.9458 25.5097 16.0036 24.9971 16.2182C24.8036 16.2999 24.6508 16.3816 24.5422 16.5689C24.4471 16.7324 24.4064 16.9742 24.4641 17.1581C24.5795 17.5122 25.0073 17.8596 25.4045 17.6927V17.6995ZM27.5195 17.5054C27.5195 17.5054 27.55 17.5054 27.5636 17.5088C27.6722 17.519 27.55 17.519 27.5195 17.5054Z" fill="var(--fill-0, #323232)"/>
<path id="Vector_22" d="M60.9919 57.3415C60.2858 55.9146 59.5932 54.4809 58.6257 53.2073C57.4001 51.5966 55.6688 50.6329 53.951 49.6181C50.9431 47.8405 47.8029 46.3183 44.6117 44.9016C44.6117 44.8982 44.6117 44.8948 44.6083 44.888C43.8105 42.9674 43.0161 41.0502 42.2184 39.1295C42.069 38.7686 41.7091 38.445 41.278 38.5949C41.0845 38.663 40.8876 38.7311 40.6941 38.7992C40.5617 37.5426 40.4734 36.2792 40.4055 35.0192C40.3953 34.8149 40.3071 34.6174 40.1679 34.471C40.1713 34.4642 40.1781 34.4574 40.1814 34.4505C41.3425 32.5946 41.9468 30.548 42.31 28.4162C43.1927 28.1915 44.1534 27.9633 44.795 27.3299C45.8101 26.3253 46.3533 24.5205 46.1903 23.1209C46.0342 21.786 45.2975 20.2978 43.9022 19.9402C43.7392 19.8994 43.5695 19.8755 43.3998 19.8653C43.8241 18.6087 44.167 17.3181 44.408 16.0275C44.9037 13.4019 45.25 10.269 43.9871 7.78647C43.4303 6.69335 42.4662 5.93054 41.278 5.82498C40.7823 4.59223 40.083 3.32543 39.0578 2.51155C39.034 2.49112 39.0068 2.4775 38.9797 2.46047C38.9559 2.43663 38.9321 2.41279 38.9016 2.38896C36.6983 0.761188 33.8534 0.100546 31.1579 0.00860083C28.3877 -0.0833443 25.6719 0.560271 23.3023 2.01777C21.1228 3.35949 19.0858 5.35504 17.8705 7.63323C16.7977 9.64581 17.0014 12.3633 17.273 14.5427C17.4869 16.2556 17.9214 17.9038 18.4578 19.5248C17.6736 19.4737 16.8826 19.7666 16.3428 20.3932C15.5314 21.333 15.3719 22.7088 15.5111 23.9041C15.6503 25.1028 16.0407 26.3321 17.0116 27.1086C17.6295 27.6023 18.4069 27.9395 19.1911 28.12C19.5645 30.3437 20.1586 32.5742 21.374 34.4948C21.4555 34.6276 21.5505 34.7502 21.6388 34.8762C21.6388 34.8966 21.632 34.9137 21.632 34.9341C21.6422 35.4994 21.632 36.0681 21.615 36.6334C21.598 37.1476 21.5743 37.6618 21.5335 38.176C21.52 38.3633 21.4962 38.5506 21.4792 38.7379C21.3332 38.6902 21.1873 38.6392 21.0379 38.5915C20.6509 38.4621 20.1994 38.7413 20.0975 39.1261C19.6222 40.9616 19.147 42.8005 18.6717 44.636C18.6275 44.6939 18.5936 44.7586 18.5664 44.8301C16.1459 45.8109 13.6643 46.6282 11.2437 47.6191C9.69569 48.2559 8.15443 48.9098 6.63014 49.601C5.17375 50.2617 3.90747 51.3037 2.89241 52.5399C1.48694 54.2562 0.532992 56.279 0.0101848 58.4346C0.00339508 58.4584 0.00339485 58.4823 0 58.5061H1.57521C2.24739 55.9793 3.57817 53.5513 5.67619 51.9405C6.5249 51.2867 7.49922 50.8747 8.47355 50.449C9.67872 49.9212 10.8907 49.4069 12.1094 48.9098C14.2007 48.0618 16.3632 47.4046 18.4408 46.5396C18.7735 46.4 19.2013 46.2808 19.5374 46.0731C21.9579 46.9176 24.375 47.7587 26.7956 48.6033C27.1724 48.7361 27.5526 48.8689 27.9294 48.9983C28.3368 49.1413 28.7408 48.8348 28.8698 48.4637C28.8698 48.4568 28.8766 48.45 28.8766 48.4398C29.0667 48.8995 29.2568 49.3559 29.4469 49.8156C28.5778 52.608 28.0924 55.54 27.6646 58.4312C27.6612 58.455 27.6646 58.4789 27.6646 58.5027H29.1889C29.5929 55.8022 30.058 53.0745 30.8524 50.4592H31.9727C32.7637 52.9724 33.1439 55.5775 33.8195 58.1213C33.8636 58.2916 33.9485 58.4142 34.0537 58.5027H35.0179C35.2453 58.3392 35.3845 58.0634 35.2929 57.7126C34.5867 55.0599 34.2065 52.3424 33.3442 49.7305C33.497 49.2503 33.6498 48.7701 33.8025 48.29C33.8636 48.4739 33.9213 48.6544 33.9824 48.8382C34.0979 49.1958 34.5256 49.5363 34.9228 49.3729C37.3909 48.3547 39.8555 47.3399 42.3236 46.3217C42.6597 46.1821 42.9924 46.0458 43.3285 45.9062C43.393 45.9845 43.4812 46.0561 43.6001 46.1071C46.7267 47.4897 49.8092 48.9676 52.7696 50.6908C54.4161 51.6511 56.2357 52.5603 57.4103 54.1132C58.3337 55.3357 58.9889 56.7353 59.6679 58.1009C60.1058 58.9828 61.423 58.2098 60.9885 57.3278L60.9919 57.3415ZM18.9501 9.04987C19.2284 8.09636 19.9074 7.2348 20.5287 6.47881C21.2925 5.55255 22.1616 4.69439 23.1291 3.98267C25.166 2.4809 27.5356 1.63296 30.0648 1.54102C32.8316 1.44226 35.7851 2.01096 38.0631 3.65916C38.9966 4.4424 39.6179 5.6513 40.0253 6.78529C40.1339 7.08497 40.4123 7.37102 40.762 7.34718C43.668 7.13945 43.3828 12.0568 43.2063 13.8106C43.0433 15.4452 42.6699 17.0593 42.1878 18.6292C42.069 17.7404 41.9502 16.8482 41.8313 15.9594C41.6989 14.9684 40.9691 14.1 40.4361 13.2759C39.8318 12.3429 39.1969 11.4268 38.5044 10.5584C37.8186 9.70029 37.0174 8.90344 36.6202 7.85458C36.3419 7.11221 35.4388 7.14967 35.1469 7.85458C34.5698 9.25759 33.0047 10.2281 31.752 10.9467C31.6434 11.008 31.5314 11.0658 31.4227 11.1237C31.6943 10.6708 31.9659 10.2145 32.2307 9.75818C32.2884 9.65943 32.3563 9.55046 32.4242 9.43467C32.3971 9.44148 32.3665 9.4517 32.3359 9.46192C32.3597 9.43127 32.3767 9.40402 32.3835 9.37338C32.3903 9.33932 32.4412 9.31889 32.4955 9.30867C32.5872 9.135 32.6585 8.95452 32.6517 8.78425C32.6313 8.27344 32.1798 7.9295 31.6841 8.04528C31.4838 8.09296 31.3379 8.23939 31.2021 8.39944C31.2156 8.41647 31.2156 8.46755 31.1715 8.52544C31.1511 8.54928 31.141 8.57993 31.124 8.61057C31.1274 8.54247 31.1376 8.49479 31.1478 8.46074C31.0765 8.54928 31.0052 8.63782 30.9339 8.70933C30.5231 9.12819 30.0546 9.47894 29.5657 9.79905C28.3368 10.6027 27.0026 11.2361 25.6719 11.8423C23.9269 12.6323 22.0835 13.419 20.3657 14.1443C20.0262 14.2873 19.8361 14.5087 19.8056 14.8833C19.7207 15.9049 19.6324 16.9231 19.5475 17.9447C19.3303 17.2125 19.1402 16.4736 19.001 15.7244C18.6038 13.6097 18.3424 11.151 18.9534 9.05327L18.9501 9.04987ZM20.5966 27.2754C20.5592 27.0439 20.2944 26.7748 20.0636 26.7408C19.4932 26.659 18.9093 26.482 18.4001 26.2027C17.6295 25.7771 17.3002 25.1164 17.1134 24.2787C16.9403 23.5023 16.903 22.5658 17.2323 21.8234C17.5412 21.1287 18.2473 20.8188 18.9229 21.2445C18.9806 21.282 19.0383 21.3058 19.0926 21.3262C19.1503 21.4795 19.2047 21.6293 19.2624 21.7826C19.5679 22.5964 20.6882 22.4602 20.7629 21.5782C20.936 19.518 21.1092 17.4577 21.2823 15.4009C22.8983 14.7198 24.5108 14.0285 26.1098 13.3134C27.169 12.84 28.2248 12.3463 29.2398 11.7776C29.0905 12.0228 28.9445 12.2713 28.7951 12.5165C28.4692 13.0512 29.0192 13.8855 29.6574 13.6437C31.8165 12.8196 34.3729 11.5596 35.836 9.61516C36.1484 10.0987 36.5048 10.555 36.8884 11.0114C37.6149 11.8763 38.2735 12.7822 38.8948 13.7254C39.3497 14.4133 39.7876 15.1114 40.2052 15.8232C40.2358 15.8708 40.2663 15.9355 40.3003 15.99C40.3003 15.99 40.3003 15.9934 40.3003 15.9968C40.5583 17.9311 40.8163 19.8687 41.0743 21.803C41.1592 22.4534 42.1403 22.9744 42.4967 22.1912C42.6088 21.9494 42.7004 21.6974 42.8057 21.4488C43.0094 21.4012 43.2164 21.3739 43.4235 21.4046C44.3605 21.5544 44.717 22.8995 44.6898 23.6964C44.6593 24.5579 44.2926 25.9507 43.4948 26.4275C42.9143 26.7714 42.0894 26.8838 41.4409 27.0677C41.2067 27.1324 40.9487 27.3469 40.9079 27.6023C40.3003 31.4879 38.7183 35.3666 35.062 37.2974C30.9373 39.4769 25.57 37.89 22.9458 34.1134C21.5437 32.094 20.9632 29.6762 20.5898 27.2788L20.5966 27.2754ZM27.6714 47.2956C25.3086 46.4715 22.9424 45.6474 20.5796 44.8233C20.4709 44.7859 20.3623 44.7484 20.2537 44.7109C20.3216 44.4283 20.3861 44.149 20.4608 43.8698C20.7663 42.6881 21.0718 41.5065 21.3808 40.3248C21.4758 40.3555 21.5709 40.3895 21.6659 40.4202C21.7338 40.4712 21.8119 40.5087 21.9036 40.5291C21.9511 40.5394 22.002 40.5462 22.0529 40.5496C24.4259 41.343 26.8023 42.1365 29.1753 42.9299C28.6763 44.3874 28.1739 45.8415 27.6748 47.299L27.6714 47.2956ZM32.7705 46.5532C32.5159 47.3467 32.2613 48.1436 32.01 48.937H30.7336C30.428 48.2048 30.1259 47.4727 29.8204 46.7439C29.766 46.6179 29.688 46.4988 29.5929 46.4C29.9392 45.392 30.2855 44.384 30.6317 43.3794C31.1444 43.4986 31.657 43.5327 32.2035 43.3658C32.2035 43.3658 32.2035 43.3726 32.2035 43.376C32.5023 44.2921 32.801 45.2047 33.0998 46.1208C32.9504 46.2161 32.8282 46.3659 32.7671 46.5566L32.7705 46.5532ZM32.3563 41.7006C32.1492 41.7721 31.9354 41.83 31.7351 41.9151C31.7283 41.9185 31.7181 41.9219 31.7079 41.9253C31.7792 41.8981 31.5755 41.9424 31.4159 41.9424C31.2869 41.9424 30.9067 41.8811 31.0255 41.9321C30.8524 41.847 30.6385 41.8027 30.4552 41.7414C28.7204 41.1625 26.9857 40.5836 25.2543 40.0047C24.4871 39.7493 23.7198 39.4905 22.9526 39.2351C23.0748 38.3837 23.1359 37.5188 23.1597 36.6538C24.3071 37.7401 25.6753 38.5847 27.169 39.1397C29.5148 40.0081 32.1968 40.0728 34.5494 39.1908C36.2672 38.5472 37.7507 37.4643 38.9491 36.1056C39.017 37.1748 39.1087 38.2441 39.2309 39.31C36.9394 40.1069 34.6478 40.9037 32.3563 41.6972V41.7006ZM35.5746 47.4761C35.449 47.5272 35.3234 47.5783 35.2012 47.6293C34.692 46.0765 34.1861 44.5202 33.6769 42.9674C33.6667 42.9333 33.6498 42.9061 33.6362 42.8754C34.8244 42.4634 36.0126 42.0513 37.1974 41.6359C38.1072 41.3192 39.0204 41.0025 39.9302 40.6858C39.9744 40.6926 40.0151 40.696 40.0626 40.696C40.2561 40.6858 40.47 40.5938 40.6228 40.4474C40.7688 40.3963 40.9147 40.3452 41.0607 40.2942C41.6412 41.6938 42.2218 43.0968 42.8023 44.4964C40.3919 45.4908 37.9816 46.4817 35.5712 47.4761H35.5746Z" fill="var(--fill-0, #323232)"/>
<path id="Vector_23" d="M28.8498 29.4994C28.8328 29.4994 28.8159 29.5028 28.7989 29.5062C28.7751 29.5062 28.7547 29.513 28.731 29.5164C28.7174 29.5164 28.7038 29.5164 28.6936 29.5232C28.6801 29.5266 28.6733 29.5368 28.6597 29.5402C28.5884 29.5641 28.5171 29.5981 28.456 29.6458C28.4322 29.6628 28.4119 29.6798 28.3915 29.6969C28.2285 29.8399 28.1233 30.0408 28.1335 30.2622C28.1335 30.3201 28.1471 30.378 28.1606 30.4324C28.1606 30.4427 28.1606 30.4529 28.1606 30.4665C28.3881 31.8048 29.2674 32.9967 30.5914 33.3985C31.7286 33.7425 33.0594 33.3985 33.8436 32.4927C34.3902 31.8593 34.6482 31.0931 34.7127 30.2622C34.7433 29.8501 34.3359 29.496 33.9489 29.496H28.8973C28.8973 29.496 28.8668 29.4994 28.8498 29.4994ZM31.6947 31.9955C31.7286 31.9887 31.7796 31.9785 31.7762 31.9819C31.7694 31.9921 31.732 31.9955 31.6947 31.9955ZM32.7709 31.3928C32.7709 31.3928 32.7539 31.4132 32.7471 31.42C32.7064 31.4643 32.6656 31.5085 32.6215 31.5528C32.5841 31.5903 32.5434 31.6243 32.5061 31.6584C32.5027 31.6618 32.4993 31.6652 32.4959 31.6686C32.4925 31.6686 32.4891 31.6686 32.4857 31.6754C32.4008 31.7299 32.3159 31.7878 32.2243 31.832C32.2141 31.8389 32.1903 31.8525 32.17 31.8627C32.1632 31.8627 32.1598 31.8627 32.1496 31.8695C32.1224 31.8763 32.0953 31.8899 32.0681 31.8967C31.9663 31.9308 31.8644 31.958 31.7592 31.9785C31.7388 31.9819 31.7185 31.9853 31.6947 31.9887C31.6845 31.9887 31.6845 31.9887 31.6811 31.9921C31.6472 31.9921 31.6098 31.9921 31.5996 31.9921C31.4978 31.9955 31.3993 31.9921 31.2975 31.9853C31.2975 31.9853 31.2805 31.9853 31.2669 31.9819C31.216 31.9717 31.1651 31.9649 31.1176 31.9512C31.0191 31.9274 30.9241 31.8933 30.829 31.8627C30.829 31.8627 30.829 31.8627 30.8222 31.8627C30.7679 31.8355 30.717 31.8082 30.6627 31.781C30.6151 31.7537 30.571 31.7265 30.5269 31.6992C30.5201 31.6958 30.4997 31.6822 30.4759 31.6652C30.4522 31.6482 30.4013 31.6073 30.3877 31.5937C30.3334 31.546 30.2824 31.4983 30.2349 31.4472C30.1908 31.403 30.1534 31.3485 30.1093 31.3076C30.0991 31.2906 30.0855 31.277 30.0753 31.2599C30.0244 31.1884 29.9871 31.1101 29.9429 31.0318H32.9813C32.9678 31.0624 32.9542 31.0897 32.9372 31.1203C32.8829 31.2191 32.8184 31.3076 32.7607 31.3996L32.7709 31.3928Z" fill="var(--fill-0, #323232)"/>
</g>
</svg>
