<svg preserveAspectRatio="xMidYMid meet" width="100%" height="100%" overflow="visible" style="display: block;" viewBox="0 0 42 32" fill="none" xmlns="http://www.w3.org/2000/svg">
<path id="Vector" d="M37.3626 0C38.0652 0 38.5044 0.229961 38.6801 0.689884C38.8557 1.14981 38.9435 1.57435 38.9435 1.96352C38.9084 2.42344 38.7503 2.84798 38.4693 3.23715C38.2233 3.62631 37.9072 3.9801 37.5207 4.29851C37.1343 4.61691 36.7302 4.93532 36.3087 5.25373C35.9222 5.53676 35.5709 5.81979 35.2547 6.10282C34.7629 6.59812 34.2535 7.14649 33.7265 7.74793C33.1995 8.34936 32.7252 8.98618 32.3036 9.65837C31.8821 10.3306 31.5307 11.0205 31.2497 11.728C30.9686 12.4356 30.8281 13.1432 30.8281 13.8507C30.8281 14.1338 30.8632 14.4345 30.9335 14.7529C31.0389 15.0713 31.3902 15.2305 31.9875 15.2305C33.1117 15.2305 34.2535 15.4074 35.4128 15.7612C36.6073 16.115 37.6964 16.6457 38.6801 17.3532C39.6637 18.0608 40.4542 18.9453 41.0514 20.0066C41.6838 21.0326 42 22.2355 42 23.6153C42 24.9596 41.7892 26.1625 41.3676 27.2239C40.9461 28.2499 40.3488 29.1166 39.5759 29.8242C38.803 30.5318 37.8896 31.0802 36.8356 31.4693C35.8168 31.8231 34.675 32 33.4103 32C31.2321 32 29.458 31.5931 28.0878 30.7794C26.7528 29.9303 25.7164 28.9221 24.9787 27.7546C24.2409 26.5517 23.7491 25.3134 23.5031 24.0398C23.2572 22.7308 23.1343 21.5987 23.1343 20.6434C23.1343 18.733 23.4153 16.8579 23.9774 15.0182C24.5747 13.1786 25.3651 11.445 26.3488 9.81758C27.3325 8.19016 28.4567 6.70426 29.7215 5.35987C30.9862 3.9801 32.2861 2.77722 33.6211 1.75124C34.1481 1.36208 34.7453 0.972913 35.4128 0.583748C36.1154 0.194583 36.7654 0 37.3626 0ZM14.2284 0C14.931 0 15.3701 0.229961 15.5458 0.689884C15.7215 1.14981 15.8093 1.57435 15.8093 1.96352C15.7742 2.42344 15.6161 2.84798 15.335 3.23715C15.0891 3.62631 14.7729 3.9801 14.3865 4.29851C14 4.61691 13.596 4.93532 13.1744 5.25373C12.788 5.53676 12.4366 5.81979 12.1205 6.10282C11.6286 6.59812 11.1192 7.14649 10.5922 7.74793C10.0652 8.34936 9.59097 8.98618 9.16939 9.65837C8.7478 10.3306 8.39649 11.0205 8.11543 11.728C7.83438 12.4356 7.69385 13.1432 7.69385 13.8507C7.69385 14.1338 7.72898 14.4345 7.79925 14.7529C7.90464 15.0713 8.25596 15.2305 8.8532 15.2305C9.97742 15.2305 11.1192 15.4074 12.2785 15.7612C13.473 16.115 14.5621 16.6457 15.5458 17.3532C16.5295 18.0608 17.32 18.9453 17.9172 20.0066C18.5496 21.0326 18.8657 22.2355 18.8657 23.6153C18.8657 24.9596 18.655 26.1625 18.2334 27.2239C17.8118 28.2499 17.2146 29.1166 16.4417 29.8242C15.6688 30.5318 14.7553 31.0802 13.7014 31.4693C12.6826 31.8231 11.5408 32 10.276 32C8.09787 32 6.32371 31.5931 4.95358 30.7794C3.61857 29.9303 2.58218 28.9221 1.84442 27.7546C1.10665 26.5517 0.614806 25.3134 0.368883 24.0398C0.122961 22.7308 0 21.5987 0 20.6434C0 18.733 0.281054 16.8579 0.843162 15.0182C1.4404 13.1786 2.23087 11.445 3.21455 9.81758C4.19824 8.19016 5.32246 6.70426 6.5872 5.35987C7.85195 3.9801 9.15182 2.77722 10.4868 1.75124C11.0138 1.36208 11.611 0.972913 12.2785 0.583748C12.9812 0.194583 13.6311 0 14.2284 0Z" fill="var(--fill-0, #DCD7ED)"/>
</svg>
