<svg preserveAspectRatio="none" width="100%" height="100%" overflow="visible" style="display: block;" viewBox="0 0 24.8006 21" fill="none" xmlns="http://www.w3.org/2000/svg">
<g id="Group">
<path id="Vector" d="M24.8006 14.4735C24.8006 12.2353 22.9771 10.3362 20.4425 9.64832C19.679 12.5143 17.2276 14.9036 13.7628 16.0043C13.3792 16.1535 12.9276 16.3221 12.4219 16.5004C13.1001 17.7367 14.3732 18.7192 15.9603 19.2191C17.2586 19.723 20.0142 20.6861 22.8492 21L21.8474 18.7618C23.6243 17.853 24.8006 16.2717 24.8006 14.4735Z" fill="var(--fill-0, #FF7702)"/>
<path id="Vector_2" d="M13.3825 14.9172C16.9926 13.7817 19.5486 10.9932 19.5486 7.73184C19.5486 3.46092 15.173 0 9.77429 0C4.37556 0 0 3.46092 0 7.73184C0 10.4545 1.78084 12.8476 4.47052 14.2235L2.95515 17.6127C7.24545 17.136 11.4195 15.6788 13.3844 14.9172H13.3825Z" fill="var(--fill-0, #FF7702)"/>
</g>
</svg>
