<svg preserveAspectRatio="none" width="100%" height="100%" overflow="visible" style="display: block;" viewBox="0 0 218 40.3789" fill="none" xmlns="http://www.w3.org/2000/svg">
<g id="Union">
<mask id="path-1-inside-1_0_10" fill="white">
<path d="M202.5 0C211.06 0 218 6.93959 218 15.5C218 24.0604 211.06 31 202.5 31H114.036L108.621 40.3789L103.205 31H15.5C6.93959 31 0 24.0604 0 15.5C0 6.93959 6.93959 3.54342e-07 15.5 0H202.5Z"/>
</mask>
<path d="M202.5 0C211.06 0 218 6.93959 218 15.5C218 24.0604 211.06 31 202.5 31H114.036L108.621 40.3789L103.205 31H15.5C6.93959 31 0 24.0604 0 15.5C0 6.93959 6.93959 3.54342e-07 15.5 0H202.5Z" fill="var(--fill-0, white)"/>
<path d="M202.5 31V33V33V31ZM114.036 31V29H112.881L112.304 30L114.036 31ZM108.621 40.3789L106.889 41.3791L108.621 44.3786L110.353 41.3789L108.621 40.3789ZM103.205 31L104.937 29.9998L104.36 29H103.205V31ZM15.5 0V-2V-2V0ZM202.5 0V2C209.956 2 216 8.04416 216 15.5H218H220C220 5.83502 212.165 -2 202.5 -2V0ZM218 15.5H216C216 22.9558 209.956 29 202.5 29V31V33C212.165 33 220 25.165 220 15.5H218ZM202.5 31V29H114.036V31V33H202.5V31ZM114.036 31L112.304 30L106.889 39.3789L108.621 40.3789L110.353 41.3789L115.768 32L114.036 31ZM108.621 40.3789L110.353 39.3788L104.937 29.9998L103.205 31L101.473 32.0002L106.889 41.3791L108.621 40.3789ZM103.205 31V29H15.5V31V33H103.205V31ZM15.5 31V29C8.04416 29 2 22.9558 2 15.5H0H-2C-2 25.165 5.83502 33 15.5 33V31ZM0 15.5H2C2 8.04416 8.04416 2 15.5 2V0V-2C5.83502 -2 -2 5.83502 -2 15.5H0ZM15.5 0V2H202.5V0V-2H15.5V0Z" fill="var(--stroke-0, #FF7702)" mask="url(#path-1-inside-1_0_10)"/>
</g>
</svg>
