<svg preserveAspectRatio="none" width="100%" height="100%" overflow="visible" style="display: block;" viewBox="0 0 189.001 159" fill="none" xmlns="http://www.w3.org/2000/svg">
<g id="Group">
<path id="Vector" d="M83.5156 77.5242C83.5156 77.5242 83.5425 77.5376 83.5626 77.5443C83.5694 77.5443 83.5761 77.5443 83.5828 77.5443C83.5492 77.5443 83.5223 77.5309 83.5156 77.5242Z" fill="var(--fill-0, #CBB0EC)"/>
<path id="Vector_2" d="M83.624 77.5442C83.624 77.5442 83.5905 77.5442 83.5703 77.5442C83.5905 77.5442 83.6173 77.551 83.6442 77.5577C83.7181 77.5577 83.7718 77.5577 83.624 77.551V77.5442Z" fill="var(--fill-0, #CBB0EC)"/>
<path id="Vector_3" d="M24.1699 126.147C24.0893 126.16 23.9751 126.18 24.1699 126.147Z" fill="var(--fill-0, #CBB0EC)"/>
<path id="Vector_4" d="M34.5671 105.207C34.9768 105.133 35.3462 104.965 35.6887 104.69C36.2663 104.226 36.4074 103.857 36.2193 103.145C35.9238 102.024 35.1178 101.043 34.5402 100.056C33.788 98.7798 33.0828 97.4769 32.3507 96.1875L30.1075 92.2184C29.5164 91.1708 28.9456 89.7336 27.9381 88.9948C26.0038 87.5644 24.0561 90.6335 23.2031 91.9968C23.586 92.3662 23.9554 92.749 24.3113 93.1117C25.9501 94.7772 27.4344 96.5569 28.8851 98.3836C29.7448 99.4648 30.6045 100.539 31.4843 101.607C32.3977 102.715 33.5731 103.783 33.9761 105.187C34.1641 105.24 34.3656 105.247 34.5738 105.207H34.5671Z" fill="var(--fill-0, white)"/>
<path id="Vector_5" d="M92.7367 104.428C92.7367 104.428 92.7367 104.428 92.7233 104.421C92.7166 104.421 92.7098 104.421 92.7031 104.414C92.7098 104.414 92.7233 104.421 92.7367 104.428Z" fill="var(--fill-0, #CBB0EC)"/>
<path id="Vector_6" d="M46.3633 68.263C46.3633 68.263 46.3029 68.2429 46.276 68.2362C45.1544 67.9205 44.0327 67.6049 42.9178 67.2892C42.9649 67.5377 42.9716 67.7929 42.9178 68.0414C42.8574 68.3101 42.7902 68.5787 42.7298 68.8406C42.2865 70.7414 41.8365 72.6488 41.3932 74.5495C41.3664 74.6704 41.3194 74.7846 41.2656 74.8853C41.3865 75.0734 41.5074 75.2614 41.6283 75.4495C42.3067 76.5308 42.9581 77.639 43.5492 78.774C44.4894 75.2681 45.4364 71.7622 46.3767 68.2563L46.3633 68.263Z" fill="var(--fill-0, #CBB0EC)"/>
<path id="Vector_7" d="M27.9052 85.4086C30.8402 85.8921 32.1902 89.0687 33.4864 91.3722C34.7289 93.5683 35.9311 95.7845 37.214 97.9537C37.355 97.8731 37.5028 97.806 37.6572 97.7523C38.1274 97.5844 38.6177 97.4903 39.1012 97.3426C39.2423 97.3023 39.3833 97.2553 39.5244 97.2016C39.5512 97.1881 39.5848 97.168 39.6385 97.1411C39.6788 97.121 39.699 97.1142 39.7191 97.1075C39.7191 97.1075 39.7191 97.1008 39.7259 97.0941C39.8266 96.9665 39.7191 97.1747 39.8199 96.9396C40.3841 95.6703 39.9005 94.898 39.1818 93.8033C38.3624 92.5475 37.5498 91.2916 36.7505 90.0223C35.4409 87.9539 34.2924 85.7712 32.9155 83.743C32.4051 82.9909 31.6932 82.0506 31.1156 81.6746C30.988 81.7081 30.8603 81.7417 30.7327 81.782C30.6723 81.8022 30.4775 81.876 30.4171 81.8962C28.8723 82.5946 27.7104 83.6692 27.5156 85.3615C27.6432 85.375 27.7708 85.3817 27.8985 85.4018L27.9052 85.4086Z" fill="var(--fill-0, white)"/>
<path id="Vector_8" d="M31.2969 81.6275C31.4111 81.5939 31.3775 81.6074 31.2969 81.6275Z" fill="var(--fill-0, #CBB0EC)"/>
<path id="Vector_9" d="M52.0642 78.2158C51.8762 77.9674 51.5941 77.7189 51.312 77.5913C51.2112 77.5443 50.8486 77.504 50.8754 77.4905C50.8284 77.4905 50.7881 77.4905 50.7411 77.4905C50.7277 77.4905 50.7075 77.4905 50.6874 77.4905C50.5598 77.5107 50.4322 77.5375 50.3113 77.5711C49.9755 77.6517 49.6396 77.7592 49.3173 77.8935C49.3173 77.8935 48.7329 78.2024 48.5449 78.3166C48.1956 78.5315 48.0949 78.6121 47.8397 78.8606C47.6113 79.0822 47.5039 79.2165 47.4233 79.3643C47.4233 79.371 47.3158 79.6127 47.2889 79.6665C47.2621 79.8008 47.2083 80.0761 47.2352 79.8344C47.1815 80.4589 46.8591 81.0163 46.3486 81.3051L45.9188 82.8968C45.8449 83.1788 45.7173 83.4005 45.5628 83.5751C45.6636 83.9512 45.7307 84.3407 45.7173 84.7369C45.63 87.2486 43.0644 89.4178 40.5861 89.7738C41.0226 90.4521 41.4525 91.1438 41.8957 91.8154C42.8427 93.2727 43.6353 94.6562 43.4271 96.4695C43.2256 98.2357 42.2987 99.6931 40.6398 100.351C40.2234 100.519 39.7935 100.627 39.3637 100.741C39.2965 100.942 39.2025 101.137 39.0749 101.305C39.7868 103.044 39.9279 104.878 38.5443 106.536C37.3354 107.987 35.3876 108.773 33.5608 108.491C32.8355 109.901 31.4922 111.043 29.9945 111.459C28.5236 111.862 27.2609 111.473 26.0923 110.559C24.9572 109.666 23.8692 108.719 22.7879 107.759C21.364 106.489 19.967 105.2 18.6036 103.877C17.0454 102.373 19.423 99.9953 20.9812 101.5C22.3513 102.823 23.7483 104.119 25.1654 105.381C26.1998 106.301 27.4221 107.443 28.4363 108.148C28.6445 108.296 28.7251 108.303 28.9467 108.256C29.1952 108.209 29.6855 107.954 29.84 107.826C30.2833 107.457 30.3571 107.363 30.6191 106.879C30.6795 106.765 30.8206 106.295 30.7803 106.127C30.7668 106.073 30.7736 106.073 30.7803 106.087C30.7736 106.066 30.7601 106.046 30.7467 106.013C30.7333 105.979 30.7198 105.959 30.7131 105.932C30.6258 105.757 30.4579 105.583 30.2497 105.334C29.746 104.743 29.249 104.146 28.7587 103.548C27.355 101.835 26.0117 100.062 24.5811 98.37C23.9296 97.5977 23.2513 96.8388 22.5528 96.1068C21.673 95.18 20.773 94.0652 19.6379 93.4541C19.423 93.3399 19.517 93.4138 19.3155 93.3802C19.423 93.3936 19.3155 93.3802 19.1611 93.4608C18.6641 93.7294 18.288 94.1794 17.8984 94.5756C17.0119 95.4621 16.0447 96.2411 15.541 97.3895C14.7082 99.2632 15.2186 101.325 15.9104 103.32C16.7298 105.69 17.8715 107.947 18.6238 110.344C19.0133 111.573 19.2753 112.843 19.3693 114.132C19.423 114.857 19.2484 115.395 19.0402 116.066C18.6372 117.376 18.2342 118.692 17.8312 120.002C17.6096 120.734 17.0522 121.083 16.4678 121.157C16.9178 122.164 17.5089 123.185 18.1402 123.91C18.9126 124.797 19.4297 125.2 20.464 125.71C20.4909 125.724 20.511 125.73 20.5245 125.744C20.5312 125.744 20.5446 125.744 20.5648 125.757C20.6588 125.791 20.7596 125.831 20.8603 125.865C21.0819 125.939 21.3036 126.006 21.5319 126.053C21.6998 126.093 21.8745 126.127 22.0424 126.153C22.0961 126.153 22.4118 126.194 22.4655 126.194C22.9423 126.221 23.4192 126.207 23.8961 126.174C23.9968 126.167 24.1043 126.153 24.205 126.14C24.2252 126.14 24.2386 126.14 24.2587 126.133C24.4737 126.1 24.6953 126.059 24.9102 126.012C26.9385 125.583 28.443 124.877 30.2362 123.857C31.9422 122.883 33.4869 121.822 34.9645 120.653C33.5272 120.344 33.1444 117.913 34.9041 117.376C36.9928 116.731 38.9204 115.522 40.6398 114.199C42.2651 112.95 44.0047 111.473 45.0524 109.679C47.0136 106.322 46.5367 102.299 46.6039 98.5849C46.6442 96.315 47.1345 94.045 47.9203 91.9228C48.3434 90.7879 48.8337 89.673 49.3978 88.5985C49.8008 87.8329 50.2978 87.1143 50.6941 86.342C51.3321 85.0861 51.809 83.3937 52.1381 81.876C52.3933 80.7007 52.8097 79.1762 52.0844 78.2158H52.0642Z" fill="var(--fill-0, white)"/>
<path id="Vector_10" d="M92.6979 104.414C92.6576 104.394 92.6173 104.374 92.5703 104.354C92.5837 104.361 92.5972 104.374 92.6106 104.381C92.6375 104.394 92.671 104.401 92.6979 104.414Z" fill="var(--fill-0, #CBB0EC)"/>
<path id="Vector_11" d="M143.134 130.445C143.067 130.626 143.014 130.727 143.134 130.445Z" fill="var(--fill-0, #CBB0EC)"/>
<path id="Vector_12" d="M132.409 59.2033C132.409 59.116 132.368 58.9615 132.409 59.2033Z" fill="var(--fill-0, #CBB0EC)"/>
<path id="Vector_13" d="M120.536 118.35C117.641 120.915 114.746 123.474 111.858 126.039C110.898 126.892 109.454 126.543 109.051 125.301C108.99 125.112 108.93 124.931 108.856 124.743C108.822 124.649 108.782 124.555 108.749 124.461C108.574 124.065 108.386 123.675 108.191 123.286C107.761 122.446 107.284 121.627 106.787 120.814C105.894 119.364 104.967 117.967 104.007 116.604C103.705 117.584 103.396 118.571 103.073 119.545C102.657 120.821 102.227 122.097 101.764 123.353C101.508 124.045 101.246 124.757 100.938 125.435C101.105 125.697 101.206 125.999 101.22 126.328C101.22 126.348 101.22 126.368 101.22 126.388C101.69 127.732 102.066 129.115 102.408 130.499C103.624 135.408 104.49 140.404 105.276 145.394C105.646 147.752 106.002 150.122 106.317 152.493C107.694 150.183 109.017 147.832 110.28 145.455C116.036 134.609 120.791 123.286 125.392 111.909L120.563 116.073C121.16 116.664 121.355 117.618 120.542 118.336L120.536 118.35Z" fill="var(--fill-0, white)"/>
<path id="Vector_14" d="M129.909 99.6865L129.372 98.115C128.183 94.6295 127.001 91.144 125.812 87.6584C118.552 95.3145 109.626 101.601 100.203 106.308C100.27 106.389 100.331 106.463 100.398 106.543C102.681 109.317 104.898 112.151 106.98 115.079C108.531 117.262 110.157 119.559 111.325 122.023C113.602 120.009 115.879 117.994 118.156 115.972C118.962 115.261 119.956 115.489 120.554 116.08L125.383 111.916C126.974 107.987 128.546 104.052 130.138 100.13C130.044 99.9887 129.963 99.8477 129.909 99.6798V99.6865Z" fill="var(--fill-0, white)"/>
<path id="Vector_15" d="M56.8563 27.0481C57.0645 32.2394 56.3795 37.4778 55.278 42.5482C54.9825 43.8847 54.6534 45.2144 54.284 46.5307C53.0347 50.99 51.3758 55.456 48.9848 59.4385C47.9438 61.1645 46.6744 63.0248 45.0625 64.4015C45.8953 64.6366 46.7214 64.8716 47.5542 65.1067C48.3132 65.3216 49.099 65.5029 49.8445 65.7514C49.8781 65.7648 49.9184 65.7648 49.952 65.785C50.0258 65.785 50.1199 65.785 50.1938 65.7917C50.3281 65.7984 50.7176 65.7111 50.234 65.8118C50.3079 65.7984 50.3818 65.7917 50.4557 65.7715C50.6437 65.7178 50.8251 65.6641 51.0131 65.6036C51.0199 65.6036 51.0199 65.6036 51.0266 65.6036C51.04 65.5969 51.0467 65.5902 51.0602 65.5835C51.1743 65.5231 51.2885 65.4693 51.4027 65.4022C51.5572 65.3149 51.7116 65.2141 51.8594 65.1134C51.8594 65.1134 51.9601 65.0462 52.0273 64.9925C52.0945 64.9388 52.2154 64.8448 52.2086 64.8515C52.3833 64.7037 52.5579 64.5493 52.7258 64.3881C53.5653 63.5889 54.1564 62.8367 54.7676 61.9502C56.4533 59.4922 57.7563 56.7589 58.8175 53.9718C61.457 47.0545 63.0286 39.5529 63.1159 32.1387C63.1495 29.3247 63.0017 26.5108 62.1958 23.811C61.8667 22.7164 61.6921 22.2798 61.0607 21.3128C61.0339 21.2792 60.913 21.1247 60.8995 21.1046C60.8794 21.0777 60.8592 21.0508 60.8324 21.0307C60.7249 20.9232 60.6174 20.8225 60.5033 20.7151C60.4563 20.6882 60.2682 20.5404 60.201 20.5001C60.1473 20.4666 60.0936 20.4397 60.0331 20.4128C58.5421 20.0032 57.0578 19.5868 55.5668 19.1704C56.5071 21.6553 56.7354 24.5296 56.8362 27.0414L56.8563 27.0481Z" fill="var(--fill-0, #CBB0EC)"/>
<path id="Vector_16" d="M81.345 77.8196C81.345 77.8196 81.3248 77.8196 81.3047 77.833C81.3248 77.8263 81.345 77.8196 81.345 77.8196Z" fill="var(--fill-0, #CBB0EC)"/>
<path id="Vector_17" d="M40.0234 62.8904C40.2652 62.971 40.104 62.9374 40.0234 62.8904Z" fill="var(--fill-0, #CBB0EC)"/>
<path id="Vector_18" d="M32.4286 69.5391H32.442C32.442 69.5391 32.442 69.5391 32.4487 69.5391C32.4487 69.5391 32.442 69.5391 32.4219 69.5458L32.4286 69.5391Z" fill="var(--fill-0, #CBB0EC)"/>
<path id="Vector_19" d="M80.3672 40.7818C80.3672 40.7818 80.3739 40.7885 80.3806 40.7952C80.4075 40.8154 80.4411 40.8355 80.4814 40.8624C80.4411 40.8355 80.4075 40.8087 80.3672 40.7818Z" fill="var(--fill-0, #CBB0EC)"/>
<path id="Vector_20" d="M80.3643 40.7818C80.2904 40.7213 80.1695 40.6475 80.277 40.7213C80.3038 40.7348 80.324 40.7482 80.3509 40.7683C80.3509 40.7683 80.3643 40.7751 80.371 40.7818H80.3643Z" fill="var(--fill-0, #CBB0EC)"/>
<path id="Vector_21" d="M32.4101 69.5524C32.3765 69.5792 32.3899 69.5725 32.4235 69.5524C32.4235 69.5524 32.4235 69.5524 32.4168 69.5524C32.4168 69.5524 32.4168 69.5524 32.4101 69.5524Z" fill="var(--fill-0, #CBB0EC)"/>
<path id="Vector_22" d="M39.6025 62.6083C39.6428 62.6217 39.9115 62.8165 40.0122 62.8769C40.0928 62.897 40.1868 62.9239 40.254 62.9575C40.2742 62.9709 40.3077 62.9776 40.3346 62.9776C40.3816 62.9776 40.4152 62.9776 40.4354 62.9843C40.4757 62.9843 40.5092 62.9843 40.5495 62.9843C40.6839 62.9843 41.1406 62.9038 40.6436 63.0045C40.751 62.9843 40.8652 62.9642 40.9727 62.9373C41.0734 62.9105 41.4428 62.7627 41.4764 62.7627C41.6644 62.6687 41.8525 62.5747 42.0338 62.4605C42.0943 62.4202 42.3965 62.212 42.4502 62.1784C44.8883 60.2712 46.4263 57.3833 47.7696 54.5694C49.7307 50.4728 51.0538 46.0739 52.0344 41.6482C53.1292 36.5911 53.7672 31.3729 53.4448 26.1883C53.3306 24.3683 53.0956 22.5886 52.5448 20.8358C52.4374 20.4799 52.3098 20.1239 52.1687 19.7814C52.1486 19.7411 52.0008 19.4255 51.9807 19.3852C51.9135 19.2509 51.8396 19.1233 51.7657 18.989C51.6449 18.7808 51.5105 18.5793 51.3695 18.3845C51.3158 18.3241 51.1814 18.1629 51.1478 18.1293C51.0605 18.042 50.9732 17.9614 50.8792 17.8741C50.859 17.854 50.8456 17.8406 50.8389 17.8271C50.8188 17.8137 50.7919 17.8003 50.7516 17.7801C50.6508 17.7264 50.5568 17.6659 50.4561 17.6122C50.4561 17.6122 50.4561 17.6122 50.4494 17.6122C50.3553 17.5853 50.2143 17.5652 50.127 17.5249C50.0329 17.5249 49.9188 17.5249 49.8315 17.5182C49.7979 17.5182 49.7509 17.5182 49.7038 17.5249C49.6971 17.5249 49.6904 17.5249 49.6837 17.5249C49.6434 17.5316 49.6031 17.5383 49.5695 17.5451C49.4553 17.5786 49.0121 17.7465 49.0188 17.7264C48.824 17.8204 48.636 17.9211 48.4546 18.0353C48.3404 18.1092 48.2263 18.1898 48.1121 18.2636C48.0785 18.2905 48.0584 18.3039 48.0382 18.3174C48.0248 18.3308 48.0181 18.3375 47.9979 18.351C47.7561 18.5457 47.5278 18.7539 47.3061 18.9688C45.0092 21.1917 43.4241 24.2743 42.101 27.2897C40.2204 31.5677 38.9578 36.1479 38.0779 40.7214C37.2384 45.1001 36.7884 49.5997 37.0369 54.059C37.1309 55.785 37.3391 57.4505 37.7958 59.1295C37.8899 59.4787 37.9973 59.8212 38.1182 60.157C38.172 60.3182 38.2324 60.4726 38.2929 60.6338C38.3063 60.6741 38.313 60.6942 38.3264 60.7144C38.3399 60.7413 38.3533 60.7748 38.3802 60.8219C38.5078 61.0905 38.6488 61.3591 38.8033 61.621C38.8772 61.7419 38.9578 61.8561 39.0316 61.977C39.0451 61.9971 39.0921 62.0576 39.1324 62.1113C39.2802 62.2792 39.4346 62.4336 39.6025 62.5881V62.6083ZM42.551 37.303C43.7129 32.9713 45.1032 28.4919 47.3531 24.5832C48.4277 22.7095 51.3292 24.4019 50.2546 26.2756C48.1524 29.9358 46.8897 34.0996 45.795 38.1895C44.7271 42.1653 43.7398 46.2015 43.8002 50.2646C43.8338 52.4271 40.4757 52.4203 40.4421 50.2646C40.3749 45.9194 41.4361 41.4668 42.551 37.2963V37.303Z" fill="var(--fill-0, white)"/>
<path id="Vector_23" d="M40.2344 62.9777C40.2747 62.9777 40.3083 62.9777 40.3486 62.9777C40.315 62.9777 40.2881 62.9777 40.2411 62.9777H40.2344Z" fill="var(--fill-0, #CBB0EC)"/>
<path id="Vector_24" d="M49.8598 17.5115C49.8128 17.5182 49.7658 17.5316 49.7188 17.5383C49.7523 17.5316 49.7993 17.5249 49.8531 17.5115H49.8598Z" fill="var(--fill-0, #CBB0EC)"/>
<path id="Vector_25" d="M49.6904 17.5383C49.6904 17.5383 49.7038 17.5383 49.7105 17.5383C49.6165 17.5518 49.5493 17.5719 49.6904 17.5383Z" fill="var(--fill-0, #CBB0EC)"/>
<path id="Vector_26" d="M40.4378 62.9912C40.4378 62.9912 40.3773 62.9912 40.3438 62.9912C40.4445 63.0113 40.5385 63.0046 40.4378 62.9912Z" fill="var(--fill-0, #CBB0EC)"/>
<path id="Vector_27" d="M80.0477 126.939C81.2566 123.145 82.479 119.357 84.0506 115.697C85.3938 112.561 87.0527 109.095 89.6654 106.745C87.2341 105.563 84.9371 103.951 83.1506 101.95C82.6401 102.923 82.1297 103.897 81.6193 104.871C81.1961 105.677 80.0812 105.919 79.3223 105.475C78.6036 105.052 78.3551 104.199 78.6104 103.447C78.4425 103.575 78.2678 103.702 78.0932 103.823C77.9656 107.369 77.9723 110.915 78.0932 114.461C78.2141 118.108 78.4357 121.775 78.7581 125.442C79.1007 125.986 79.5641 126.476 80.0544 126.946L80.0477 126.939Z" fill="var(--fill-0, white)"/>
<path id="Vector_28" d="M87.039 119.297C86.9181 118.887 86.8107 118.471 86.6898 118.054C85.2659 121.54 84.151 125.146 83.0025 128.732C82.3443 130.787 79.1071 129.901 79.7653 127.839C79.8593 127.537 79.96 127.235 80.0541 126.939C79.5638 126.469 79.1003 125.979 78.7578 125.435C79.5235 134.132 80.907 142.815 83.1368 151.23C83.9965 146.946 84.8965 142.674 85.8771 138.417C86.4681 135.858 87.086 133.306 87.7912 130.781C88.2547 129.122 88.745 127.423 89.477 125.851C89.0472 125.032 88.6979 124.159 88.3688 123.306C87.8651 121.99 87.4353 120.647 87.039 119.297Z" fill="var(--fill-0, white)"/>
<path id="Vector_29" d="M94.436 106.698C94.3151 107.148 93.9658 107.53 93.5427 107.752C93.4151 108.014 93.2203 108.256 92.9181 108.444C92.3203 108.82 91.8368 109.25 91.2256 109.935C90.6413 110.579 90.2517 111.144 89.7547 111.923C89.4659 112.379 89.1838 112.849 88.9219 113.32C88.942 113.373 88.9689 113.434 88.9823 113.494C89.345 115.099 89.7748 116.691 90.2316 118.269C90.6144 119.579 91.0241 120.875 91.5009 122.151C91.6151 122.453 91.736 122.755 91.8569 123.057C91.8569 123.064 91.8569 123.071 91.8636 123.078C91.8905 123.138 91.9173 123.205 91.9442 123.266C92.0047 123.4 92.0651 123.534 92.1323 123.669C92.2867 123.991 92.4546 124.307 92.636 124.616C94.2546 124.622 95.8732 124.636 97.4919 124.642C97.5657 124.461 97.6866 124.286 97.8411 124.139C97.9217 123.964 98.2239 123.353 97.9754 123.85C98.2307 123.34 98.4053 122.775 98.6001 122.238C99.0501 121.009 99.4665 119.767 99.8694 118.524C100.387 116.933 100.884 115.334 101.36 113.729C101.407 113.568 101.481 113.427 101.569 113.293C99.9769 111.217 98.3113 109.196 96.5852 107.181C96.5583 107.154 96.5449 107.121 96.518 107.094C96.3434 106.966 96.1956 106.805 96.0747 106.597C95.9203 106.335 95.8531 106.019 95.8598 105.704C95.4031 105.791 94.933 105.885 94.4561 105.959C94.4964 106.187 94.4964 106.436 94.4292 106.691L94.436 106.698Z" fill="var(--fill-0, #CBB0EC)"/>
<path id="Vector_30" d="M132.405 59.2236C132.405 59.2236 132.405 59.2169 132.405 59.2102C132.398 59.1497 132.385 59.0893 132.378 59.0355C132.304 58.6863 132.224 58.3438 132.11 58.0013C132.083 57.9207 132.049 57.8401 132.022 57.7662C131.955 57.6386 131.895 57.5043 131.828 57.3767C131.733 57.2088 131.626 57.0544 131.532 56.8932C131.512 56.8596 131.505 56.8462 131.492 56.826C131.478 56.8126 131.472 56.8126 131.458 56.7925C131.263 56.5843 131.062 56.3895 130.854 56.1947C130.786 56.1545 130.726 56.1074 130.659 56.0671C130.538 55.9933 130.404 55.9328 130.283 55.859C130.269 55.8522 130.263 55.8455 130.256 55.8388C130.236 55.8388 130.222 55.8388 130.195 55.8254C130.054 55.7918 129.913 55.7448 129.772 55.7112C129.719 55.6978 129.685 55.6843 129.658 55.6776C129.638 55.6776 129.618 55.6776 129.584 55.6776C129.43 55.6776 129.275 55.6642 129.121 55.6709C129 55.6709 128.631 55.7448 128.832 55.6978C128.698 55.7246 128.57 55.7448 128.436 55.7784C128.248 55.8321 128.06 55.8925 127.872 55.9597C127.798 55.9933 127.717 56.0268 127.643 56.0671C127.247 56.2619 126.878 56.497 126.515 56.7522C125.917 57.1685 125.091 57.0006 124.56 56.544C123.493 58.1088 122.431 59.6668 121.364 61.2316C120.504 62.4875 118.093 62.1718 118.234 60.3854C118.301 59.5056 118.368 58.6192 118.442 57.7394C118.858 52.3802 119.281 47.0142 119.698 41.655C116.541 40.0365 113.761 37.8471 111.618 34.9929C109.832 32.6155 108.643 29.8418 107.85 26.9809C105.043 29.5128 101.893 31.5947 98.34 32.9513C94.4177 34.4489 90.1462 34.8518 85.9821 34.5295C84.4037 34.4086 83.9 32.7699 84.8067 31.7156C81.0792 32.8505 77.0091 33.6631 73.1338 33.2535C72.8987 33.2266 72.6771 33.1662 72.4689 33.0789C70.2458 37.9948 70.0308 43.2533 69.7891 48.5924C70.5883 48.6394 71.3271 49.1767 71.3002 50.2042C71.1122 56.1209 70.5547 62.0107 70.5077 67.934C70.4876 70.8218 70.5614 73.7231 70.8771 76.5974C71.0047 77.7526 71.2062 78.995 71.4883 80.2173C71.6226 80.8083 71.7838 81.3992 71.9719 81.9768C72.039 82.1984 72.1196 82.4133 72.1935 82.6282C72.2405 82.7626 72.2942 82.8902 72.3413 83.0178C72.3547 83.0581 72.3614 83.0782 72.3681 83.0849C72.3748 83.1051 72.3816 83.1185 72.395 83.1454C74.7591 88.4374 79.9911 92.2117 85.5052 93.6221C91.4491 95.1398 97.3393 93.5818 102.692 90.8551C108.347 87.9808 113.868 83.8975 117.569 78.6793C118.093 77.9406 119.026 77.5847 119.866 78.0749C120.598 78.5047 120.994 79.633 120.47 80.3717C115.957 86.745 109.147 91.7752 102.021 94.8712C98.9378 96.2076 95.7341 97.2285 92.376 97.5307C89.2462 97.806 86.0089 97.3896 83.0269 96.389L82.9732 97.168C83.5239 97.2016 84.0679 97.4769 84.3701 97.9739C84.8067 98.6925 85.0082 98.9746 85.5253 99.5521C85.9753 100.056 86.4589 100.526 86.9694 100.962C87.5268 101.446 87.6678 101.553 88.3059 101.99C88.8231 102.346 89.3536 102.682 89.8977 103.004C90.7439 103.494 91.617 103.938 92.5103 104.334C92.5304 104.341 92.564 104.354 92.5909 104.361C92.47 104.294 92.47 104.22 92.7387 104.428C92.8193 104.461 92.9066 104.495 92.9872 104.529C93.0879 104.569 93.1819 104.602 93.2827 104.636C93.9073 104.858 94.3707 105.355 94.4849 105.972C94.955 105.899 95.4252 105.805 95.8886 105.717C95.902 105.14 96.1774 104.562 96.7013 104.314C107.018 99.4178 116.763 92.655 124.487 84.193C123.862 80.1165 123.472 75.9863 123.049 71.8896C123.036 71.7687 123.049 71.6479 123.069 71.5337C122.922 70.6674 123.479 69.9488 124.272 69.6398C126.777 68.6593 128.913 67.2893 130.572 65.2275C130.619 65.1671 130.713 65.0395 130.733 65.0126C130.807 64.9052 130.881 64.7977 130.954 64.6903C131.082 64.5022 131.203 64.3075 131.317 64.1127C131.438 63.8978 131.559 63.6829 131.666 63.4613C131.7 63.3941 131.801 63.1658 131.828 63.112C131.989 62.7158 132.123 62.3129 132.23 61.9032C132.284 61.6883 132.331 61.4734 132.372 61.2585C132.392 61.1645 132.412 60.9764 132.419 60.9227C132.452 60.56 132.472 60.1974 132.466 59.828C132.466 59.6265 132.432 59.4318 132.425 59.2303L132.405 59.2236ZM74.9808 38.1829C74.9405 37.2763 75.78 36.5039 76.6598 36.5039C78.0031 36.5039 79.4001 36.645 80.6493 37.1554C82.1471 37.7732 83.3627 38.7739 84.1821 40.1842C84.6522 40.9968 84.35 41.9841 83.5776 42.481C82.8187 42.9713 81.7172 42.6422 81.2806 41.8766C81.1933 41.7289 81.106 41.5878 81.012 41.4468C80.9918 41.4199 80.9784 41.3998 80.9583 41.3729C80.7836 41.1647 80.5889 40.97 80.3807 40.7954C80.3336 40.7618 80.3001 40.7416 80.2732 40.7215C80.1859 40.661 80.0986 40.6006 80.0046 40.5469C79.8904 40.4797 79.7695 40.4125 79.6486 40.3588C79.6352 40.3521 79.615 40.3387 79.5949 40.332C79.0911 40.1506 78.5807 40.023 78.0568 39.9357C78.0232 39.9357 77.9897 39.929 77.9628 39.9223C77.8218 39.9089 77.6807 39.8954 77.533 39.8887C77.2442 39.8686 76.9554 39.8619 76.6598 39.8619C75.7196 39.8619 75.0211 39.0962 74.9808 38.1829ZM78.1173 45.4629C80.2799 45.4629 80.2799 48.8208 78.1173 48.8208C75.9546 48.8208 75.9546 45.4629 78.1173 45.4629ZM78.5605 57.3834C79.8165 55.8254 81.4217 54.6232 82.4761 52.8906C83.4097 51.3593 83.7187 49.6871 83.7119 47.9074C83.6985 45.7449 87.0567 45.7449 87.0701 47.9074C87.0768 49.855 86.7611 51.7489 85.9418 53.5218C85.1492 55.2411 83.8799 56.7253 82.5567 58.0617C81.9859 58.6393 81.0926 59.2639 80.7836 60.0429C80.7232 60.1907 80.7165 60.2578 80.7098 60.3854C80.7098 60.3989 80.7098 60.4056 80.7098 60.4123C80.7165 60.4324 80.7299 60.4593 80.7501 60.513C80.8105 60.7011 80.9784 61.0369 81.1732 61.3391C82.006 62.6352 83.2149 63.6426 84.1687 64.8447C84.7328 65.5566 84.8739 66.517 84.1687 67.2221C83.5776 67.8131 82.3553 67.934 81.7911 67.2221C80.656 65.7917 79.2658 64.5828 78.2717 63.0382C77.0494 61.1309 77.1434 59.1497 78.574 57.3767L78.5605 57.3834ZM88.8365 79.0957C88.2589 79.727 87.0298 79.7673 86.4589 79.0957C86.3246 78.9412 86.1903 78.7935 86.0425 78.6525C85.9821 78.592 85.7604 78.3234 85.6731 78.3301C85.8544 78.4711 85.8947 78.498 85.794 78.4309C85.7671 78.4107 85.7336 78.3906 85.7067 78.3704C85.6328 78.3234 85.5522 78.2697 85.4783 78.2227C85.3239 78.1286 85.1627 78.0346 84.9948 77.954C84.988 77.954 84.9343 77.9204 84.8873 77.9003C84.8739 77.9003 84.8604 77.8936 84.8403 77.8869C84.6657 77.8264 84.491 77.766 84.3164 77.7123C84.1418 77.6652 83.9605 77.6182 83.7791 77.5847C83.759 77.5847 83.6985 77.5779 83.6448 77.5712C83.6112 77.5712 83.5776 77.5712 83.5508 77.5578C83.2015 77.5376 82.8657 77.5242 82.5164 77.5578C82.4963 77.5578 82.3754 77.5779 82.3217 77.5779H82.3082C82.1471 77.6048 81.9859 77.6451 81.8247 77.6854C81.65 77.7324 81.4754 77.7928 81.3008 77.8533C81.2874 77.8533 81.2806 77.86 81.2672 77.8667C81.2135 77.8936 81.1598 77.9204 81.1463 77.9272C80.9851 78.0078 80.8239 78.1018 80.6695 78.1958C80.5956 78.2428 80.5217 78.3032 80.4411 78.3503C80.4344 78.3503 80.4344 78.3503 80.4277 78.357C79.709 78.9211 78.809 78.9748 78.0971 78.3234C77.4725 77.7526 77.4121 76.5034 78.0971 75.946C79.6486 74.6834 81.6097 74.0118 83.6179 74.1999C85.5925 74.3812 87.5335 75.1871 88.8298 76.7317C89.4342 77.4503 89.488 78.3906 88.8298 79.1091L88.8365 79.0957ZM97.2453 52.0779C95.0826 52.0779 95.0826 48.72 97.2453 48.72C99.4079 48.72 99.4079 52.0779 97.2453 52.0779ZM106.406 44.2809C106.017 45.0196 104.815 45.4158 104.109 44.8853C103.847 44.6838 103.565 44.5092 103.277 44.348C103.115 44.2607 102.954 44.1801 102.786 44.1063C102.753 44.0928 102.712 44.066 102.672 44.0525C102.645 44.0525 102.625 44.0391 102.605 44.0324C102.242 43.9048 101.88 43.7772 101.503 43.6832C101.302 43.6294 101.094 43.5891 100.886 43.5488C100.791 43.5287 100.697 43.5153 100.603 43.5018C100.2 43.4683 99.8042 43.4347 99.4012 43.4414C99.1863 43.4414 98.9647 43.4683 98.7497 43.4817C98.6423 43.5018 98.5348 43.522 98.4274 43.5421C98.2393 43.5824 98.0445 43.6294 97.8632 43.6899C97.7624 43.7235 97.655 43.7637 97.5542 43.7906C97.5408 43.7906 97.5341 43.7906 97.5207 43.804C97.1445 43.9921 96.7886 44.1868 96.4528 44.4353C95.6938 44.9927 94.6058 44.5294 94.1558 43.8309C93.6252 43.0116 94.055 42.0512 94.7603 41.5341C96.4125 40.3118 98.6288 39.9089 100.644 40.1439C102.45 40.3521 104.338 40.8759 105.815 41.9908C106.568 42.5616 106.883 43.4011 106.42 44.2876L106.406 44.2809Z" fill="var(--fill-0, white)"/>
<path id="Vector_31" d="M71.6003 30.876C71.869 30.285 72.46 29.8015 73.1182 29.8753C76.9196 30.2783 80.8218 29.4321 84.4352 28.2971C87.4844 27.3368 90.7485 26.007 93.3074 24.1132C93.6096 23.858 93.9186 23.6095 94.2342 23.3677C94.3014 23.3073 94.382 23.2535 94.4492 23.1931C94.5633 23.1058 94.6708 23.0118 94.785 22.9245C96.323 21.7693 98.2103 24.3079 96.82 25.5638C96.2693 26.0608 95.685 26.5107 95.0805 26.9472C93.4753 28.2904 91.9776 29.7612 90.4395 31.1916C92.7365 31.0372 95.0066 30.6007 97.2028 29.788C100.742 28.4785 103.839 26.2152 106.532 23.596C106.935 23.2065 107.391 23.0789 107.821 23.1259C108.003 22.9648 108.218 22.8304 108.48 22.7633C109.312 22.5349 110.36 23.0453 110.548 23.9386C111.24 27.236 112.362 30.3992 114.383 33.1258C115.941 35.2211 118.064 36.8934 120.374 38.203C120.663 37.9008 121.059 37.7127 121.536 37.7127C122.396 37.7127 123.289 38.485 123.215 39.3917C123.148 40.2714 123.074 41.1579 123.007 42.0377C122.691 46.1075 122.376 50.1706 122.053 54.2404C123.094 52.7159 124.128 51.1981 125.17 49.6736C126.378 47.8939 129.293 49.5796 128.071 51.366C127.782 51.7958 127.487 52.2189 127.198 52.6487C128.454 52.2458 129.797 52.1517 131.08 52.5748C133.128 53.2464 134.451 54.8112 135.15 56.6715C135.674 55.7581 136.191 54.8314 136.634 53.8844C136.641 53.8643 136.668 53.8106 136.688 53.7635C136.688 53.7501 136.701 53.7367 136.701 53.73C136.775 53.5285 136.856 53.3203 136.923 53.1188C137.071 52.6823 137.198 52.2323 137.319 51.7824C137.689 50.3989 137.991 48.9953 138.286 47.5984C139.039 44.0256 139.287 40.2916 139.079 36.4098C138.871 32.5885 138.199 28.8075 136.748 25.087C136.466 24.3684 136.124 23.6095 135.681 22.7633C135.237 21.9305 134.754 21.1179 134.21 20.3456C133.726 19.6539 133.35 19.1905 132.665 18.4786C132.343 18.1361 132 17.807 131.651 17.4981C131.503 17.3705 131.355 17.2429 131.207 17.122C131.14 17.0615 131.066 17.0078 130.993 16.9474C130.959 16.9205 130.905 16.8802 130.892 16.8735C127.695 14.5095 124.182 13.7574 120.193 14.0193C119.286 14.0797 118.514 13.1999 118.514 12.3403C118.514 12.1791 118.541 12.0381 118.581 11.8971C118.541 11.8366 118.5 11.7829 118.467 11.7157C118.258 11.2994 118.023 10.9031 117.768 10.5136C117.674 10.3793 117.58 10.245 117.479 10.1107C117.446 10.0704 117.251 9.8286 117.191 9.76144C116.902 9.43236 116.593 9.11672 116.27 8.82122C116.103 8.66676 115.921 8.5123 115.747 8.36455C115.713 8.33097 115.612 8.25709 115.565 8.22351C115.538 8.20337 115.511 8.18322 115.478 8.16307C114.726 7.63252 113.947 7.16241 113.114 6.76618C112.946 6.68559 112.771 6.61172 112.603 6.53784C112.55 6.51769 112.22 6.38338 112.14 6.35651C111.683 6.1819 111.22 6.03415 110.75 5.89312C109.89 5.64464 109.017 5.44316 108.137 5.29541C107.929 5.26184 107.714 5.22825 107.506 5.19468C107.452 5.19468 107.083 5.14095 107.022 5.13423C106.565 5.08722 106.109 5.04693 105.645 5.02007C103.677 4.89918 101.696 4.97305 99.7349 5.20139C99.6946 5.20139 99.4998 5.22825 99.4058 5.24169C99.3118 5.25512 99.0968 5.28198 99.117 5.28198C98.8953 5.31556 98.6804 5.34914 98.4588 5.38272C97.9618 5.46331 97.4715 5.55733 96.9812 5.65807C95.9603 5.86626 94.9462 6.11474 93.9454 6.40352C91.8835 6.99452 90.0567 7.68625 88.3172 8.52573C84.5225 10.3524 81.4195 12.5149 78.7196 15.6982C78.1017 16.4303 77.7726 16.8668 77.1748 17.7936C76.6308 18.6398 76.154 19.5263 75.7443 20.4463C75.7241 20.4866 75.6435 20.6814 75.6234 20.7217C75.5965 20.7888 75.5696 20.856 75.5428 20.9231C75.4689 21.1246 75.395 21.3194 75.3211 21.5209C75.1599 21.9775 75.0189 22.4342 74.898 22.9043C74.757 23.4281 74.6428 23.9587 74.5488 24.496C74.5152 24.6974 74.4816 24.8922 74.4547 25.0937C74.4547 25.1004 74.401 25.6108 74.3943 25.6914C74.3137 26.598 73.6958 27.3703 72.7152 27.3703C72.2384 27.3703 71.7414 27.1219 71.419 26.7391C71.3518 28.183 71.2309 29.6 71.5869 30.8827L71.6003 30.876Z" fill="var(--fill-0, #646464)"/>
<path id="Vector_32" d="M59.2579 132.574C58.9087 130.895 59.1034 129.216 60.534 128.068C61.2392 127.503 62.0989 127.268 62.972 127.1C63.9257 120.774 66.0615 114.77 67.9488 108.679C62.334 111.291 56.6654 113.796 50.9901 116.281C50.1573 116.644 49.1969 116.536 48.6932 115.677C48.3238 115.046 48.4312 114.018 49.0357 113.541H46.2686C44.9925 114.965 43.5082 116.214 41.9769 117.336C41.9366 117.369 41.8896 117.396 41.8425 117.43C42.1381 117.994 42.1246 118.699 41.5269 119.283C41.3657 119.444 41.1978 119.592 41.0299 119.753L40.4456 123.991C40.6806 124.119 40.8888 124.286 41.0567 124.488C41.5537 124.851 41.8761 125.448 41.7149 126.214C41.4463 127.463 41.1709 128.706 40.9023 129.955C39.7135 135.394 38.5314 140.841 37.3426 146.281C36.5971 149.699 35.8516 153.111 35.1128 156.529C34.6494 158.645 31.4188 157.745 31.8756 155.636C32.1442 154.387 32.4196 153.144 32.6882 151.895C33.877 146.455 35.0591 141.009 36.2479 135.569C36.6979 133.501 37.1479 131.432 37.5978 129.357C36.6374 130.109 35.6501 130.821 34.6225 131.479C30.6666 133.998 26.0458 135.502 21.3242 135.045C17.6639 134.689 14.252 133.118 12.0558 130.331C11.955 130.626 11.861 130.928 11.7602 131.224C9.14088 139.175 6.52153 147.127 3.90217 155.079C3.42531 156.516 1.68579 156.502 0.933566 155.656L0 158.248H64.5772C64.1474 156.16 63.7108 154.071 63.281 151.983C61.9377 145.509 60.6012 139.041 59.2579 132.567V132.574Z" fill="var(--fill-0, #B4B4B4)"/>
<path id="Vector_33" d="M36.3292 123.783C32.7226 126.55 28.5115 129.136 23.8839 129.532C21.7481 129.72 19.4915 129.237 17.7049 128.008C15.3811 126.409 13.964 124.011 12.9498 121.432C12.802 121.049 12.8625 120.646 13.0505 120.291C12.8222 120.264 12.5938 120.264 12.3655 120.264C11.2304 122.158 10.9483 124.052 10.6797 125.939C10.6931 125.939 10.7066 125.925 10.7267 125.919C10.9551 125.637 11.2573 125.422 11.5864 125.334C12.52 125.079 13.3326 125.657 13.655 126.51C15.4348 131.184 21.278 132.36 25.6772 131.574C30.6943 130.674 34.8315 127.537 38.5456 124.22C39.1635 123.669 39.8956 123.689 40.4732 123.991L41.0575 119.753C39.5598 121.177 37.9882 122.52 36.3494 123.783H36.3292Z" fill="var(--fill-0, white)"/>
<path id="Vector_34" d="M31.8504 78.3704C33.0929 78.639 34.0668 79.7404 34.8123 80.6873C36.2764 82.5476 37.4115 84.6497 38.6271 86.6778C38.8824 86.5099 39.1779 86.4159 39.4868 86.4428C39.9704 86.4898 40.2793 86.4428 40.7428 86.2413C41.1995 86.0398 41.6025 85.7511 41.9316 85.3817C42.0659 85.2339 42.1465 85.1399 42.2607 84.9183C42.2875 84.8646 42.3077 84.8243 42.3278 84.7974C42.3278 84.7974 42.3278 84.7773 42.3413 84.7235C42.348 84.6967 42.3547 84.6765 42.3614 84.6631C42.3614 84.6564 42.3614 84.6497 42.3614 84.643C42.3614 84.6161 42.3614 84.6027 42.3614 84.5892C42.3547 84.5624 42.3413 84.5288 42.3278 84.4751C42.2875 84.3273 42.2338 84.1863 42.1868 84.0452C42.0592 83.6692 41.9248 83.2998 41.7838 82.9304C40.8301 80.4791 39.4398 78.2226 38.0227 76.0198C37.3107 74.9117 36.5787 73.8103 35.8869 72.6888C35.5444 72.1381 35.2354 71.5672 34.8929 71.0233C34.8929 71.0233 34.8929 71.0232 34.8929 71.0165C34.8459 70.9628 34.7921 70.9024 34.7384 70.8554C34.6578 70.7815 34.3489 70.4994 34.3824 70.5263C33.9929 70.2241 33.5429 69.9487 33.0929 69.7472C33.0056 69.7069 32.8847 69.6599 32.6966 69.6062C32.6496 69.5928 32.5959 69.5793 32.5489 69.5726C32.475 69.6331 32.3944 69.6868 32.334 69.7405C31.9579 70.0696 31.5616 70.4188 31.2459 70.8151C31.0444 71.0703 31.3467 70.6942 31.172 70.9225C31.1586 70.9427 31.1452 70.9762 31.125 71.0165C31.1452 71.1374 31.1519 71.5202 31.1519 71.5672C31.172 72.1649 31.2526 72.7425 31.3803 73.3268C31.528 74.0319 31.7161 74.7304 31.9847 75.402C32.3205 76.2482 31.6153 77.2488 30.8094 77.4704C30.6549 77.5107 30.5004 77.5242 30.3594 77.5242C30.4668 77.7928 30.5676 78.0749 30.6616 78.3569C31.0579 78.2898 31.4608 78.2831 31.8705 78.3704H31.8504Z" fill="var(--fill-0, white)"/>
<path id="Vector_35" d="M81.4258 157.429C80.284 153.789 79.3504 150.095 78.5579 146.361C75.7505 133.145 74.3468 119.424 74.6692 105.892C74.4946 105.979 74.3266 106.073 74.152 106.16C74.3334 106.073 74.5013 105.979 74.6692 105.892C74.6692 105.757 74.6692 105.63 74.6759 105.495C73.8229 105.919 72.9632 106.322 72.1103 106.731C71.9894 106.792 71.8685 106.845 71.7476 106.899C71.8282 107.168 71.8349 107.47 71.7342 107.812C69.8872 114.004 67.6372 120.076 66.482 126.435C68.6984 126.006 70.9148 125.576 73.1311 125.153C74.0244 124.978 74.9378 125.394 75.1998 126.328C75.4281 127.154 74.9177 128.222 74.0244 128.396C70.8409 129.014 67.6641 129.625 64.4806 130.243C63.8761 130.357 62.4254 130.384 62.3918 131.177C62.3716 131.66 62.6201 132.278 62.7142 132.748C63.3455 135.784 63.9701 138.813 64.6014 141.848C65.7096 147.201 66.8178 152.56 67.9327 157.913C67.9596 158.027 67.9663 158.148 67.973 158.262H82.0101C81.7549 158.074 81.5467 157.812 81.4325 157.436L81.4258 157.429Z" fill="var(--fill-0, #B4B4B4)"/>
<path id="Vector_36" d="M185.352 145.126C185.177 142.258 184.928 139.525 184.472 136.926C184.263 135.75 184.022 134.582 183.686 133.44C183.538 132.93 183.364 132.426 183.169 131.929C183.135 131.855 183.028 131.607 182.994 131.54C182.9 131.338 182.793 131.143 182.678 130.949C182.618 130.848 182.343 130.478 182.356 130.478C182.282 130.391 182.202 130.304 182.121 130.223C181.624 129.72 181.093 129.243 180.556 128.786C179.387 127.785 178.212 126.932 176.882 126.066C174.068 124.233 171.073 122.688 168.037 121.251C161.509 118.175 154.739 115.616 148.284 112.366C145.625 111.029 143.019 109.552 140.561 107.873C140.91 113.38 141.178 118.927 140.896 124.421C141.555 124.555 142.213 124.689 142.858 124.851C145.826 125.569 147.418 128.746 146.276 131.553C144.785 135.22 142.844 138.725 140.984 142.211C138.116 147.597 135.167 152.943 132.172 158.255H185.896C185.701 158 185.587 157.664 185.593 157.248C185.694 153.211 185.593 149.155 185.345 145.126H185.352Z" fill="var(--fill-0, #B4B4B4)"/>
<path id="Vector_37" d="M142.335 128.182C142.019 128.061 141.657 128.02 141.328 127.947C139.79 127.617 138.252 127.295 136.714 126.966C133.873 126.362 131.032 125.757 128.184 125.16C126.068 124.71 126.968 121.473 129.077 121.922C131.911 122.52 134.746 123.125 137.58 123.722C137.842 117.564 137.452 111.332 137.043 105.187C135.679 104.038 134.396 102.796 133.214 101.453C131.73 105.106 130.266 108.773 128.782 112.426C122.468 128.007 116.001 143.83 106.853 158.007C106.833 158.094 106.799 158.175 106.766 158.255H128.332C129.534 156.133 130.729 154.004 131.911 151.868C134.128 147.879 136.317 143.883 138.453 139.854C139.44 137.993 140.414 136.126 141.355 134.239C141.744 133.46 142.127 132.681 142.49 131.895C142.651 131.56 142.805 131.217 142.953 130.875C143.013 130.734 143.081 130.586 143.141 130.445C143.141 130.431 143.148 130.418 143.155 130.405C143.463 129.511 143.316 128.571 142.328 128.188L142.335 128.182Z" fill="var(--fill-0, #B4B4B4)"/>
<path id="Vector_38" d="M103.476 157.046C103.409 156.408 103.342 155.777 103.268 155.139C103.208 154.635 103.147 154.132 103.08 153.635C103.047 153.359 103.006 153.091 102.973 152.815C102.959 152.701 102.939 152.587 102.926 152.473C102.919 152.419 102.899 152.265 102.892 152.231C102.227 147.382 101.462 142.54 100.528 137.738C100.085 135.441 99.6011 133.151 99.0235 130.888C98.7817 129.941 98.5265 129.001 98.231 128.067C98.231 128.054 98.2175 128.034 98.2175 128.02C96.2094 128.007 94.2012 127.994 92.193 127.987C92.0453 128.39 91.8975 128.793 91.7699 129.196C91.3871 130.358 91.058 131.54 90.7356 132.722C88.5125 140.975 86.8401 149.39 85.2551 157.785C85.2215 157.96 85.1476 158.121 85.0469 158.262H102.926C102.946 158.013 103.02 157.751 103.194 157.489C103.288 157.348 103.376 157.201 103.47 157.053L103.476 157.046Z" fill="var(--fill-0, #CBB0EC)"/>
<path id="Vector_39" d="M92.7175 104.421C92.4489 104.213 92.4489 104.287 92.5698 104.354C92.6168 104.367 92.6571 104.387 92.6974 104.414C92.7041 104.414 92.7108 104.414 92.7175 104.421Z" fill="var(--fill-0, #323232)"/>
<path id="Vector_40" d="M82.4589 158.497C82.6537 158.698 82.8955 158.866 83.2044 158.947C83.8626 159.128 84.6753 158.833 85.0648 158.255H82.0156C82.1567 158.356 82.3044 158.443 82.4589 158.497Z" fill="var(--fill-0, #323232)"/>
<path id="Vector_41" d="M78.1287 102.782C78.1757 101.775 77.4637 101.244 76.6846 101.177C76.2884 101.036 75.825 101.056 75.3548 101.332C71.9765 103.313 68.2893 104.851 64.7364 106.483C60.5252 108.41 56.3007 110.297 52.0694 112.171C51.1493 112.581 50.2291 112.984 49.3023 113.387C49.2083 113.427 49.121 113.487 49.0404 113.548C48.4359 114.031 48.3284 115.052 48.6978 115.683C49.2016 116.543 50.162 116.651 50.9948 116.288C56.6701 113.803 62.3319 111.291 67.9535 108.686C66.0662 114.77 63.9304 120.781 62.9767 127.107C62.1036 127.275 61.2439 127.51 60.5387 128.074C59.1014 129.223 58.9133 130.902 59.2626 132.581C60.6058 139.055 61.9424 145.522 63.2856 151.996C63.7155 154.085 64.152 156.173 64.5819 158.262H67.9736C67.9736 158.148 67.9602 158.027 67.9333 157.913C66.8251 152.56 65.7169 147.201 64.602 141.848C63.9707 138.813 63.3461 135.784 62.7147 132.748C62.614 132.278 62.3722 131.66 62.3924 131.177C62.4259 130.378 63.8767 130.358 64.4811 130.243C67.6647 129.626 70.8415 129.014 74.025 128.397C74.9183 128.222 75.422 127.154 75.2003 126.328C74.9451 125.395 74.025 124.985 73.1317 125.153C70.9153 125.583 68.699 126.012 66.4826 126.436C67.6378 120.069 69.8878 113.998 71.7347 107.813C71.8355 107.47 71.8288 107.168 71.7482 106.899C71.8691 106.839 71.99 106.785 72.1108 106.731C72.9638 106.322 73.8235 105.919 74.6765 105.496C74.6765 105.623 74.6765 105.758 74.6698 105.892C75.9324 105.24 77.054 104.569 78.0951 103.817C78.1085 103.474 78.1152 103.125 78.1287 102.782Z" fill="var(--fill-0, #323232)"/>
<path id="Vector_42" d="M188.823 147.067C188.682 144.112 188.453 141.163 188.057 138.235C187.728 135.804 187.318 133.313 186.412 131.016C186.009 129.988 185.539 129.014 184.813 128.175C183.92 127.134 182.792 126.254 181.717 125.415C179.03 123.319 176.116 121.567 173.087 120.002C166.639 116.671 159.822 114.119 153.247 111.05C146.463 107.886 139.304 104.085 134.716 98.0746C134.286 97.5105 133.635 97.1613 132.963 97.2754C132.936 97.2687 132.916 97.2553 132.889 97.2486C132.789 97.2217 132.695 97.2083 132.601 97.2016C131.519 94.0317 130.438 90.8551 129.363 87.6852C129.182 87.1614 129.007 86.6376 128.826 86.1137C128.678 85.6906 128.396 85.3347 128.034 85.1198C128.349 84.4818 128.302 83.7095 127.758 83.1655C127.731 83.1386 127.698 83.1185 127.671 83.0916C127.671 83.0648 127.664 83.0312 127.657 83.0043C127.657 82.964 127.637 82.8566 127.631 82.7827C127.59 82.4603 127.543 82.1312 127.503 81.8089C127.315 80.318 127.14 78.8271 126.972 77.3361C126.784 75.6639 126.603 73.9917 126.428 72.3127C130.794 70.298 134.817 66.8527 135.623 61.8897C135.623 61.8562 135.63 61.8293 135.636 61.7957C135.992 61.695 136.315 61.4532 136.543 61.0234C137.463 59.3109 138.531 57.6588 139.377 55.9059C140.224 54.1665 140.68 52.2995 141.103 50.4258C142.057 46.1747 142.615 41.89 142.487 37.5247C142.252 29.5262 140.136 20.3255 133.783 14.8991C130.331 11.9576 126.025 10.5943 121.559 10.6077C121.539 10.4129 121.485 10.2115 121.378 10.0033C117.731 2.85762 108.576 1.14508 101.289 1.68235C92.5044 2.32707 83.3433 5.85288 77.2113 12.3471C73.7323 16.0341 71.5025 20.6143 71.0391 25.678C71.0391 25.7183 71.0391 25.7519 71.0391 25.7922C71.6905 23.6767 72.9062 21.7224 74.1353 20.1912C72.9129 21.7224 71.6905 23.6767 71.0391 25.7922C71.0391 26.6451 71.8987 27.357 72.7114 27.357C73.692 27.357 74.3099 26.5846 74.3905 25.678C74.3972 25.5907 74.4509 25.087 74.4509 25.0803C74.4778 24.8788 74.5114 24.6773 74.545 24.4826C74.639 23.9453 74.7532 23.4148 74.8942 22.8909C75.0151 22.4275 75.1629 21.9642 75.3173 21.5075C75.3845 21.306 75.4651 21.1045 75.539 20.9098C75.5658 20.8426 75.5927 20.7754 75.6196 20.7083C75.6397 20.668 75.7203 20.4732 75.7405 20.4329C76.1569 19.5129 76.6337 18.6264 77.171 17.7802C77.7621 16.8534 78.0912 16.4169 78.7158 15.6849C81.4157 12.5083 84.512 10.3391 88.3134 8.51235C90.0596 7.67287 91.8865 6.98114 93.9416 6.39014C94.9424 6.10136 95.9565 5.85288 96.9774 5.64469C97.4677 5.54395 97.9647 5.45664 98.455 5.36934C98.6766 5.33576 98.8915 5.30218 99.1132 5.2686C99.093 5.2686 99.308 5.24174 99.402 5.22831C99.496 5.21487 99.6975 5.19473 99.7311 5.18801C101.692 4.95967 103.674 4.8858 105.641 5.00669C106.098 5.03355 106.562 5.07384 107.018 5.12085C107.072 5.12085 107.441 5.17458 107.502 5.1813C107.717 5.21487 107.925 5.24174 108.133 5.28203C109.013 5.42978 109.886 5.62454 110.746 5.87974C111.216 6.01406 111.679 6.16852 112.136 6.34313C112.217 6.37 112.546 6.50431 112.6 6.52446C112.774 6.59834 112.942 6.67221 113.11 6.7528C113.943 7.14903 114.722 7.61914 115.474 8.14969C115.501 8.16984 115.528 8.18999 115.561 8.21014C115.608 8.24371 115.709 8.3243 115.743 8.35117C115.917 8.49892 116.099 8.65338 116.267 8.80784C116.589 9.10334 116.898 9.41898 117.187 9.74806C117.24 9.81522 117.442 10.057 117.476 10.0973C117.576 10.2316 117.67 10.3659 117.764 10.5002C118.026 10.883 118.255 11.286 118.463 11.7024C118.496 11.7695 118.543 11.8232 118.577 11.8837C118.537 12.0247 118.51 12.1725 118.51 12.3269C118.51 13.1866 119.282 14.0663 120.189 14.0059C124.178 13.744 127.691 14.4961 130.888 16.8601C130.901 16.8668 130.948 16.9071 130.989 16.934C131.063 16.9944 131.136 17.0482 131.204 17.1086C131.351 17.2362 131.499 17.3571 131.647 17.4847C131.996 17.8003 132.339 18.1227 132.661 18.4652C133.339 19.1771 133.716 19.6405 134.206 20.3322C134.75 21.1045 135.233 21.9171 135.677 22.7499C136.12 23.5961 136.463 24.355 136.745 25.0736C138.195 28.7941 138.867 32.5752 139.075 36.3965C139.283 40.2782 139.028 44.0122 138.283 47.585C137.987 48.9886 137.685 50.3855 137.315 51.769C137.195 52.2189 137.067 52.6622 136.919 53.1054C136.852 53.3136 136.771 53.5151 136.698 53.7166C136.698 53.7233 136.691 53.7367 136.684 53.7502C136.664 53.7972 136.637 53.8576 136.63 53.871C136.18 54.8247 135.67 55.7448 135.146 56.6581C134.441 54.7978 133.125 53.233 131.076 52.5615C129.793 52.1384 128.45 52.2324 127.194 52.6353C127.483 52.2055 127.778 51.7824 128.067 51.3526C129.29 49.5662 126.381 47.8805 125.166 49.6602C124.125 51.1847 123.09 52.7025 122.049 54.227C122.365 50.1572 122.681 46.0941 123.003 42.0243C123.07 41.1446 123.144 40.2581 123.211 39.3783C123.285 38.4717 122.392 37.6993 121.532 37.6993C121.055 37.6993 120.659 37.8874 120.37 38.1896C118.06 36.88 115.931 35.2078 114.379 33.1124C112.358 30.3858 111.236 27.2226 110.544 23.9252C110.356 23.0387 109.315 22.5216 108.476 22.7499C108.214 22.8238 107.999 22.9514 107.818 23.1126C107.388 23.0655 106.931 23.1931 106.528 23.5827C103.841 26.1951 100.745 28.4651 97.199 29.7747C95.0028 30.5873 92.7327 31.0238 90.4357 31.1783C91.9738 29.7478 93.4715 28.277 95.0767 26.9339C95.6812 26.4973 96.2655 26.0474 96.8162 25.5504C98.2065 24.3013 96.3192 21.756 94.7812 22.9111C94.667 22.9984 94.5595 23.0924 94.4454 23.1797C94.3782 23.2402 94.2976 23.2939 94.2304 23.3543C93.9215 23.6028 93.6058 23.8446 93.3036 24.0998C90.7447 26.0004 87.4738 27.3301 84.4314 28.2837C80.818 29.4187 76.9158 30.2649 73.1144 29.862C72.2144 29.7679 71.4353 30.7014 71.4353 31.5409C71.4353 32.2729 71.8584 32.7901 72.4495 33.0453C72.6577 33.1326 72.8793 33.193 73.1144 33.2199C76.9897 33.6363 81.0665 32.8236 84.7873 31.682C83.8873 32.7363 84.3843 34.375 85.9627 34.4959C90.1268 34.8182 94.3984 34.4153 98.3207 32.9177C101.874 31.5611 105.024 29.4792 107.831 26.9473C108.623 29.8082 109.812 32.5819 111.599 34.9593C113.741 37.8068 116.522 39.9961 119.678 41.6214C119.262 46.9806 118.839 52.3466 118.423 57.7058C118.355 58.5856 118.282 59.472 118.214 60.3518C118.073 62.1449 120.484 62.4539 121.344 61.198C122.412 59.6332 123.473 58.0752 124.541 56.5104C125.072 56.967 125.905 57.1417 126.496 56.7186C126.858 56.4634 127.228 56.2283 127.624 56.0335C127.698 55.9932 127.772 55.9597 127.852 55.9261C128.04 55.8589 128.222 55.7985 128.416 55.7448C128.544 55.7112 128.678 55.6843 128.813 55.6642C128.611 55.7112 128.981 55.6373 129.101 55.6373C129.256 55.6373 129.41 55.644 129.565 55.644C129.598 55.644 129.619 55.644 129.639 55.644C129.666 55.6507 129.699 55.6642 129.753 55.6776C129.894 55.7179 130.035 55.7582 130.176 55.7918C130.203 55.7985 130.216 55.7985 130.237 55.8052C130.25 55.8119 130.25 55.8186 130.263 55.8253C130.391 55.8992 130.519 55.9597 130.639 56.0335C130.707 56.0738 130.767 56.1208 130.834 56.1611C131.042 56.3559 131.237 56.5507 131.439 56.7588C131.452 56.779 131.466 56.779 131.472 56.7924C131.486 56.8126 131.492 56.8327 131.513 56.8596C131.607 57.0208 131.721 57.1752 131.808 57.3431C131.875 57.4707 131.936 57.605 132.003 57.7326C132.03 57.8132 132.063 57.8871 132.09 57.9677C132.204 58.3035 132.285 58.6527 132.359 59.0019C132.372 59.0624 132.379 59.1228 132.386 59.1765C132.386 59.1765 132.386 59.1833 132.386 59.19C132.392 59.3915 132.419 59.5862 132.426 59.7877C132.439 60.1571 132.413 60.5197 132.379 60.8824C132.372 60.9294 132.352 61.1241 132.332 61.2182C132.292 61.4331 132.245 61.648 132.191 61.8629C132.083 62.2725 131.949 62.6755 131.788 63.0717C131.761 63.1255 131.66 63.3471 131.627 63.4209C131.519 63.6426 131.398 63.8575 131.278 64.0724C131.163 64.2671 131.042 64.4619 130.915 64.6499C130.841 64.7574 130.767 64.8649 130.693 64.9723C130.673 64.9992 130.572 65.1268 130.532 65.1872C128.88 67.2557 126.737 68.619 124.232 69.5995C123.44 69.9084 122.882 70.6338 123.03 71.4934C123.01 71.6075 122.996 71.7284 123.01 71.8493C123.426 75.946 123.816 80.0762 124.447 84.1527C116.723 92.6214 106.978 99.3775 96.6617 104.273C96.1312 104.522 95.8625 105.099 95.8491 105.677C96.4804 105.556 97.0849 105.455 97.6356 105.455C97.0782 105.455 96.4737 105.556 95.8491 105.677C95.8423 105.993 95.9095 106.308 96.064 106.57C96.1849 106.778 96.3394 106.94 96.5073 107.067C96.5274 107.094 96.5476 107.128 96.5744 107.154C98.3005 109.169 99.9662 111.191 101.558 113.266C101.471 113.4 101.397 113.541 101.35 113.702C100.873 115.307 100.376 116.906 99.8587 118.497C99.4557 119.74 99.0393 120.982 98.5893 122.211C98.3945 122.749 98.2132 123.313 97.9647 123.823C98.2065 123.326 97.911 123.937 97.8304 124.112C97.6759 124.26 97.5617 124.428 97.4811 124.616C95.8625 124.609 94.2439 124.595 92.6252 124.589C92.4439 124.28 92.276 123.964 92.1215 123.642C92.0611 123.507 91.9939 123.373 91.9335 123.239C91.9066 123.178 91.8797 123.111 91.8529 123.051C91.8529 123.044 91.8529 123.037 91.8462 123.031C91.7253 122.728 91.6044 122.426 91.4902 122.124C91.0133 120.848 90.6036 119.552 90.2208 118.242C89.7574 116.664 89.3343 115.072 88.9716 113.467C88.9581 113.407 88.9313 113.353 88.9111 113.293C89.1798 112.816 89.4552 112.352 89.744 111.896C90.241 111.117 90.6372 110.559 91.2148 109.908C91.826 109.223 92.3096 108.793 92.9073 108.417C93.2096 108.229 93.4111 107.987 93.5319 107.725C93.9551 107.504 94.2976 107.121 94.4252 106.671C94.4924 106.416 94.4991 106.174 94.4521 105.939C94.3379 105.328 93.8745 104.824 93.2499 104.602C93.1491 104.569 93.0551 104.529 92.9543 104.495C92.867 104.461 92.7864 104.428 92.7058 104.394C92.7058 104.394 92.7058 104.394 92.7193 104.401C92.7126 104.401 92.6991 104.394 92.6857 104.387C92.6588 104.374 92.6252 104.367 92.5984 104.354C92.5782 104.347 92.5715 104.34 92.5581 104.327C92.5312 104.32 92.5043 104.307 92.4775 104.3C91.5842 103.904 90.7111 103.461 89.8648 102.97C89.3208 102.655 88.7902 102.319 88.2731 101.956C87.635 101.513 87.494 101.406 86.9365 100.929C86.4261 100.486 85.9425 100.015 85.4925 99.5185C84.9754 98.941 84.7739 98.6589 84.3373 97.9403C84.0351 97.4433 83.4911 97.1613 82.9403 97.1344C82.3493 97.1008 81.7448 97.3493 81.4359 97.9403C80.5292 99.673 79.6158 101.412 78.7091 103.145C78.6621 103.232 78.6285 103.32 78.5949 103.414C78.3397 104.166 78.5882 105.019 79.3068 105.442C80.0658 105.885 81.1807 105.643 81.6038 104.837C82.1142 103.864 82.6247 102.89 83.1351 101.916C84.9216 103.911 87.2253 105.522 89.6499 106.711C87.0373 109.062 85.3784 112.527 84.0351 115.663C82.4635 119.33 81.2478 123.118 80.0322 126.906C79.9382 127.208 79.8374 127.51 79.7434 127.806C79.0852 129.867 82.3224 130.754 82.9806 128.699C84.1291 125.113 85.2373 121.506 86.6679 118.021C86.7821 118.437 86.8962 118.847 87.0171 119.263C87.4134 120.613 87.8432 121.956 88.347 123.272C88.6761 124.132 89.0253 124.998 89.4551 125.818C88.7231 127.389 88.2395 129.088 87.7694 130.747C87.0574 133.272 86.4462 135.824 85.8552 138.383C84.8746 142.641 83.9747 146.912 83.115 151.197C80.8852 142.782 79.5016 134.098 78.7359 125.401C78.4136 121.734 78.1986 118.068 78.071 114.421C77.9501 110.875 77.9501 107.329 78.071 103.783C77.03 104.535 75.9084 105.2 74.6457 105.858C74.3233 119.397 75.727 133.118 78.5344 146.328C79.327 150.055 80.2605 153.756 81.4023 157.396C81.5232 157.772 81.7314 158.034 81.9799 158.222H85.0291C85.1231 158.081 85.2037 157.919 85.2373 157.745C86.8224 149.35 88.5014 140.928 90.7178 132.681C91.0335 131.499 91.3693 130.317 91.7521 129.155C91.8865 128.753 92.0275 128.343 92.1752 127.947C94.1834 127.96 96.1916 127.973 98.1998 127.98C98.1998 127.994 98.2132 128.014 98.2132 128.027C98.5087 128.961 98.7639 129.901 99.0057 130.848C99.5833 133.111 100.067 135.401 100.51 137.698C101.444 142.507 102.209 147.342 102.874 152.191C102.874 152.231 102.901 152.386 102.908 152.433C102.921 152.547 102.941 152.661 102.955 152.775C102.988 153.05 103.029 153.319 103.062 153.594C103.13 154.098 103.19 154.602 103.25 155.099C103.324 155.73 103.391 156.368 103.459 157.006C103.365 157.147 103.277 157.295 103.183 157.443C103.009 157.704 102.928 157.966 102.915 158.215H106.75C106.79 158.134 106.817 158.054 106.837 157.966C115.985 143.789 122.452 127.967 128.766 112.386C130.243 108.733 131.714 105.066 133.198 101.412C134.38 102.762 135.663 103.998 137.027 105.146C137.436 111.291 137.826 117.524 137.564 123.682C134.73 123.084 131.895 122.48 129.061 121.882C126.952 121.432 126.052 124.669 128.168 125.119C131.009 125.724 133.85 126.328 136.698 126.926C138.236 127.255 139.774 127.577 141.312 127.906C141.641 127.973 142.003 128.021 142.319 128.141C143.306 128.524 143.454 129.464 143.145 130.358C143.145 130.371 143.132 130.384 143.132 130.398C143.071 130.539 143.011 130.687 142.944 130.828C142.789 131.17 142.635 131.506 142.48 131.849C142.111 132.634 141.728 133.42 141.345 134.192C140.405 136.079 139.431 137.946 138.444 139.807C136.308 143.836 134.119 147.839 131.902 151.821C130.72 153.957 129.525 156.086 128.322 158.208H132.178C135.173 152.896 138.128 147.55 140.989 142.164C142.843 138.672 144.791 135.173 146.282 131.506C147.424 128.699 145.832 125.522 142.863 124.804C142.212 124.649 141.56 124.508 140.902 124.374C141.184 118.88 140.915 113.333 140.566 107.826C143.018 109.512 145.63 110.982 148.29 112.319C154.744 115.569 161.508 118.121 168.043 121.204C171.078 122.634 174.074 124.179 176.888 126.019C178.218 126.886 179.393 127.738 180.562 128.739C181.099 129.202 181.63 129.673 182.127 130.176C182.207 130.257 182.281 130.344 182.362 130.431C182.348 130.431 182.624 130.794 182.684 130.902C182.798 131.09 182.899 131.291 183 131.493C183.033 131.56 183.134 131.802 183.174 131.882C183.369 132.379 183.544 132.883 183.692 133.393C184.027 134.535 184.276 135.71 184.477 136.879C184.934 139.484 185.183 142.211 185.357 145.079C185.606 149.108 185.706 153.165 185.606 157.201C185.592 157.617 185.713 157.946 185.908 158.208H187.171H188.615C188.823 157.953 188.957 157.617 188.964 157.201C189.051 153.809 188.977 150.404 188.823 147.02V147.067ZM132.406 59.2034C132.406 59.1161 132.366 58.9616 132.406 59.2034ZM129.645 108.256L125.394 111.923C120.787 123.299 116.038 134.622 110.282 145.468C109.02 147.846 107.697 150.196 106.32 152.506C106.004 150.136 105.648 147.765 105.279 145.408C104.493 140.418 103.627 135.421 102.411 130.512C102.068 129.129 101.692 127.752 101.222 126.402C101.222 126.382 101.222 126.362 101.222 126.342C101.209 126.012 101.108 125.704 100.94 125.448C101.249 124.77 101.511 124.058 101.766 123.366C102.236 122.104 102.659 120.835 103.076 119.559C103.391 118.578 103.7 117.598 104.009 116.617C104.97 117.98 105.903 119.377 106.79 120.828C107.287 121.634 107.764 122.453 108.194 123.299C108.388 123.682 108.576 124.078 108.751 124.475C108.791 124.569 108.825 124.663 108.859 124.757C108.926 124.938 108.993 125.126 109.053 125.314C109.456 126.556 110.9 126.906 111.861 126.053C114.755 123.487 117.643 120.929 120.538 118.363C121.351 117.645 121.156 116.691 120.558 116.1C119.961 115.509 118.967 115.281 118.161 115.992C115.884 118.007 113.607 120.022 111.33 122.043C110.161 119.579 108.536 117.282 106.985 115.099C104.903 112.171 102.686 109.337 100.403 106.563C100.336 106.483 100.275 106.409 100.208 106.328C109.631 101.621 118.557 95.3346 125.817 87.6785C127.006 91.164 128.188 94.6495 129.377 98.1351L129.914 99.7066C129.968 99.8677 130.048 100.015 130.142 100.157C128.551 104.079 126.979 108.014 125.387 111.943L129.639 108.276L129.645 108.256ZM143.139 130.445C143.071 130.626 143.018 130.727 143.139 130.445Z" fill="var(--fill-0, #323232)"/>
<path id="Vector_43" d="M65.8564 24.5967C65.4131 22.3872 64.6206 19.9225 62.9146 18.351C61.5915 17.1354 59.7513 16.8466 58.0789 16.3832C56.2789 15.8863 54.479 15.3826 52.679 14.8856C52.5044 14.8386 52.3432 14.8252 52.1887 14.8252C50.7044 14.0394 48.9582 14.0058 47.2186 14.899C44.3172 16.39 42.3023 19.58 40.7979 22.3469C38.4673 26.6249 36.8487 31.3125 35.68 36.027C34.4107 41.1311 33.6181 46.4298 33.6114 51.7018C33.6114 55.4425 33.8935 59.5861 35.68 62.9575C36.627 64.7506 38.2725 66.1341 40.1934 66.3288C39.9449 66.5303 39.7568 66.8057 39.6762 67.1482C39.374 68.4309 39.0718 69.7136 38.7763 70.9963C38.1248 69.9218 37.5606 68.8137 36.5599 68.0145C35.492 67.1616 34.236 66.4229 32.8592 66.2415C31.4353 66.0602 30.4682 66.846 29.4943 67.7795C28.9637 68.2899 28.4332 68.8607 28.0973 69.5189C27.6406 70.4188 27.7347 71.4799 27.8421 72.4537C27.9832 73.7565 28.2384 75.0796 28.722 76.3086C28.9973 77.0137 29.5951 77.5308 30.3339 77.5376C29.9309 76.5168 29.4675 75.5631 29.1451 74.6095C29.4608 75.5631 29.9242 76.5168 30.3339 77.5376C30.4816 77.5376 30.6294 77.5241 30.7839 77.4838C31.5831 77.2622 32.295 76.2683 31.9592 75.4154C31.6973 74.7438 31.5092 74.0453 31.3547 73.3402C31.2339 72.7559 31.1533 72.1783 31.1264 71.5806C31.1264 71.5336 31.1264 71.1508 31.0995 71.0299C31.113 70.9896 31.1331 70.956 31.1465 70.9359C31.3212 70.7076 31.0189 71.0836 31.2204 70.8284C31.5294 70.4322 31.9256 70.083 32.3085 69.7539C32.3756 69.7002 32.4495 69.6397 32.5234 69.586C32.5771 69.5995 32.6241 69.6062 32.6711 69.6196C32.8592 69.6733 32.9801 69.7203 33.0674 69.7606C33.5174 69.9621 33.9741 70.2307 34.3569 70.5397C34.3301 70.5195 34.639 70.8016 34.7129 70.8687C34.7666 70.9225 34.8136 70.9762 34.8674 71.0299C34.8674 71.0299 34.8674 71.0299 34.8674 71.0366C35.2099 71.5873 35.5189 72.1515 35.8614 72.7022C36.5532 73.8237 37.2852 74.9251 37.9972 76.0332C39.4143 78.236 40.8113 80.4925 41.7583 82.9438C41.8993 83.3132 42.0337 83.6825 42.1613 84.0586C42.2083 84.1997 42.262 84.3407 42.3023 84.4884C42.3157 84.5354 42.3225 84.5757 42.3359 84.6026C42.3359 84.616 42.3359 84.6295 42.3359 84.6563C42.3359 84.6631 42.3359 84.6698 42.3359 84.6765C42.3359 84.6899 42.3225 84.7033 42.3157 84.7369C42.3023 84.7974 42.3023 84.8108 42.3023 84.8108C42.2889 84.8377 42.2687 84.8779 42.2352 84.9317C42.121 85.1466 42.0471 85.2406 41.9061 85.3951C41.5702 85.7644 41.174 86.0465 40.7173 86.2547C40.2606 86.4629 39.9449 86.5032 39.4613 86.4562C39.1457 86.4293 38.8569 86.5233 38.6016 86.6912C37.386 84.6563 36.2509 82.561 34.7868 80.7007C34.0413 79.7471 33.0674 78.6524 31.8249 78.3837C31.4152 78.2964 31.0122 78.3032 30.616 78.3703C30.0384 78.4643 29.4742 78.6792 28.9369 78.9143C26.1563 80.1232 24.2489 82.6013 24.0944 85.6637C24.0877 85.8383 24.1079 85.9928 24.1414 86.1338C22.5833 87.0472 21.3542 88.6254 20.3534 90.1969C18.7886 89.7738 17.3983 90.4655 16.2431 91.493C13.926 93.5548 11.9782 95.7845 11.7499 99.0081C11.5551 101.694 12.6163 104.334 13.617 106.765C14.2282 108.249 14.873 109.727 15.3565 111.264C15.5782 111.97 15.7729 112.688 15.8938 113.42C15.9408 113.682 15.9207 113.984 15.9879 114.266C16.0013 114.32 16.0147 114.36 16.0214 114.387C15.6655 115.986 15.0409 117.564 14.5573 119.135C14.5371 119.203 14.5304 119.27 14.517 119.337C14.3827 119.337 14.2416 119.35 14.1006 119.391C13.6573 119.511 13.2543 119.874 13.026 120.311C12.8446 120.667 12.7775 121.076 12.9252 121.452C13.9394 124.031 15.3565 126.435 17.6804 128.027C19.4669 129.249 21.7169 129.733 23.8594 129.552C28.4869 129.149 32.7047 126.57 36.3047 123.803C38.1248 122.406 39.8643 120.908 41.5098 119.303C42.1075 118.726 42.121 118.021 41.8255 117.45C41.8658 117.416 41.9128 117.389 41.9598 117.356C43.4911 116.227 44.9754 114.985 46.2515 113.561C46.5336 113.252 46.8089 112.943 47.0642 112.608C49.9925 108.82 49.9992 103.85 49.9186 99.2834C49.8716 96.8254 50.4358 94.4077 51.376 92.1445C52.2021 90.1633 53.4715 88.4373 54.2439 86.436C55.6073 82.9236 57.1185 77.6719 53.4782 75.0326C51.779 73.8036 49.8581 74.052 48.0582 74.8042C48.4209 73.4678 48.7768 72.1246 49.1395 70.7881C49.294 70.224 49.4417 69.6599 49.5962 69.089C50.0596 69.1428 50.5231 69.1495 50.9999 69.0689C53.0417 68.7398 54.761 67.2422 56.064 65.7244C58.0453 63.4142 59.5296 60.7144 60.7654 57.9408C64.0027 50.6608 65.8698 42.669 66.3601 34.7242C66.5683 31.3528 66.4944 27.921 65.8295 24.6034L65.8564 24.5967ZM32.4092 69.5524C32.4092 69.5524 32.4092 69.5524 32.4159 69.5524C32.4159 69.5524 32.4159 69.5524 32.4226 69.5524C32.3891 69.5726 32.3689 69.5793 32.4092 69.5524ZM32.4428 69.5323C32.4428 69.5323 32.4361 69.5323 32.4294 69.5323C32.4428 69.5256 32.4495 69.5189 32.4562 69.5256C32.4562 69.5256 32.4562 69.5256 32.4495 69.5256L32.4428 69.5323ZM40.0322 62.8971C40.274 62.9844 40.1195 62.9441 40.0322 62.8971ZM40.6501 63.0179C41.1471 62.9172 40.6837 63.0045 40.5561 62.9978C40.5158 62.9978 40.4822 62.9978 40.4419 62.9978C40.5426 63.0045 40.4419 63.0112 40.3479 62.9978C40.3076 62.9978 40.274 62.9978 40.2337 62.9978C40.2807 62.9978 40.3076 62.9978 40.3412 62.9978C40.3076 62.9978 40.2807 62.9844 40.2606 62.9776C40.1867 62.9441 40.0994 62.9239 40.0188 62.8971C39.9113 62.8299 39.6494 62.6418 39.6091 62.6284C39.4412 62.4807 39.2867 62.3195 39.1389 62.1516C39.0986 62.0979 39.0516 62.0441 39.0382 62.0173C38.9643 61.8964 38.8837 61.7822 38.8098 61.6613C38.6554 61.4061 38.521 61.1375 38.3867 60.8622C38.3598 60.8084 38.3464 60.7749 38.333 60.7547C38.3263 60.7278 38.3195 60.7144 38.2994 60.6741C38.239 60.5196 38.1785 60.3585 38.1248 60.1973C38.0039 59.8615 37.9031 59.5123 37.8024 59.1698C37.339 57.4908 37.1375 55.832 37.0435 54.0993C36.7949 49.64 37.2449 45.1404 38.0845 40.7617C38.9643 36.1815 40.227 31.6013 42.1075 27.33C43.4307 24.3146 45.009 21.2253 47.3127 19.0091C47.5343 18.7942 47.7627 18.586 48.0045 18.3913C48.0246 18.3711 48.0313 18.3644 48.0447 18.3577C48.0649 18.3443 48.085 18.3308 48.1186 18.304C48.2328 18.2234 48.347 18.1495 48.4612 18.0756C48.6425 17.9615 48.8373 17.8607 49.0253 17.7667C49.0253 17.7868 49.4686 17.6122 49.5761 17.5854C49.6164 17.5719 49.6567 17.5719 49.6902 17.5652C49.5492 17.5921 49.6164 17.5719 49.7104 17.5652C49.7574 17.5585 49.8044 17.5451 49.8514 17.5384C49.7977 17.5518 49.7507 17.5585 49.7171 17.5652C49.7641 17.5652 49.8111 17.5518 49.8447 17.5585C49.932 17.5652 50.0462 17.5719 50.1402 17.5652C50.2208 17.6055 50.3686 17.6324 50.4626 17.6525C50.4626 17.6525 50.4626 17.6525 50.4693 17.6525C50.5701 17.7063 50.6641 17.7667 50.7649 17.8204C50.8051 17.8406 50.8253 17.854 50.8522 17.8674C50.8589 17.8741 50.8723 17.8876 50.8925 17.9144C50.9798 18.0017 51.0738 18.0823 51.1611 18.1696C51.1947 18.2032 51.329 18.3644 51.3827 18.4248C51.5238 18.6196 51.6581 18.8211 51.779 19.0293C51.8529 19.1569 51.9268 19.2912 51.9939 19.4255C52.0141 19.4658 52.1618 19.7814 52.182 19.8217C52.323 20.1642 52.4439 20.5202 52.5581 20.8761C53.1021 22.6357 53.3439 24.4154 53.4581 26.2286C53.7805 31.4133 53.1424 36.6315 52.0477 41.6885C51.0671 46.1142 49.744 50.5131 47.7828 54.6097C46.4396 57.4237 44.9015 60.3115 42.4635 62.2188C42.4165 62.2456 42.1143 62.4605 42.0471 62.5008C41.8658 62.615 41.6777 62.709 41.4896 62.803C41.4493 62.803 41.0799 62.9575 40.9859 62.9776C40.8785 63.0045 40.7643 63.0247 40.6568 63.0448L40.6501 63.0179ZM41.624 75.4489C41.5031 75.2609 41.3822 75.0728 41.2613 74.8848C41.315 74.7841 41.3553 74.6699 41.3889 74.549C41.8322 72.6484 42.2822 70.7411 42.7254 68.8406C42.7859 68.5719 42.8531 68.3033 42.9135 68.0414C42.9739 67.7929 42.9672 67.5377 42.9135 67.2892C44.0351 67.6049 45.1567 67.9205 46.2716 68.2361C46.2985 68.2428 46.3321 68.2563 46.359 68.263C45.4187 71.7687 44.4717 75.2743 43.5314 78.78C42.9404 77.645 42.2956 76.5369 41.6105 75.4556L41.624 75.4489ZM31.2943 81.6275C31.4085 81.5939 31.3749 81.6073 31.2943 81.6275ZM30.4212 81.9028C30.4816 81.8827 30.6764 81.8088 30.7368 81.7887C30.8645 81.7484 30.9921 81.7148 31.1197 81.6812C31.6973 82.0573 32.4159 82.9975 32.9196 83.7497C34.2898 85.7779 35.445 87.9605 36.7547 90.029C37.5539 91.2983 38.3666 92.5541 39.186 93.81C39.8979 94.9047 40.3815 95.677 39.824 96.9463C39.7233 97.1813 39.824 96.9732 39.73 97.1008C39.73 97.1075 39.73 97.1075 39.7233 97.1142C39.7031 97.1209 39.683 97.1343 39.6427 97.1478C39.5889 97.1746 39.5553 97.1948 39.5285 97.2082C39.3942 97.2619 39.2464 97.309 39.1054 97.3492C38.6285 97.4903 38.1315 97.5843 37.6614 97.7589C37.5069 97.8126 37.3591 97.8865 37.2181 97.9604C35.9353 95.7912 34.733 93.5682 33.4905 91.3789C32.1876 89.0821 30.8443 85.9055 27.9093 85.4152C27.775 85.3951 27.6541 85.3884 27.5265 85.3749C27.7212 83.6825 28.8831 82.608 30.4279 81.9096L30.4212 81.9028ZM27.9362 88.988C28.9436 89.7335 29.5145 91.164 30.1055 92.2116L32.3488 96.1807C33.0741 97.4701 33.786 98.773 34.5383 100.049C35.1159 101.03 35.9218 102.017 36.2173 103.138C36.4054 103.85 36.2644 104.226 35.6868 104.683C35.3442 104.958 34.9816 105.126 34.5651 105.2C34.3569 105.24 34.1622 105.234 33.9674 105.18C33.5644 103.77 32.3891 102.708 31.4756 101.6C30.5958 100.539 29.7361 99.458 28.8764 98.3768C27.4257 96.5501 25.9414 94.7704 24.3026 93.1048C23.9467 92.7422 23.5773 92.3594 23.1944 91.99C24.0474 90.6334 25.9884 87.5576 27.9294 88.988H27.9362ZM24.175 126.147C24.0944 126.16 23.9803 126.18 24.175 126.147ZM48.5552 78.3166C48.7432 78.1957 49.3343 77.8868 49.3276 77.8935C49.6432 77.7592 49.9858 77.6517 50.3216 77.5711C50.4492 77.5376 50.5701 77.5174 50.6977 77.4905C50.7178 77.4905 50.738 77.4905 50.7514 77.4905C50.7984 77.4905 50.8387 77.4905 50.8857 77.4905C50.8589 77.504 51.2216 77.5443 51.3223 77.5913C51.6044 77.7189 51.8865 77.9674 52.0745 78.2159C52.7999 79.1695 52.3835 80.7007 52.1283 81.876C51.7992 83.4005 51.3223 85.0929 50.6843 86.342C50.288 87.1143 49.791 87.8329 49.388 88.5985C48.8238 89.6731 48.3268 90.7879 47.9104 91.9229C47.1246 94.0451 46.6343 96.315 46.594 98.585C46.5336 102.299 47.0037 106.315 45.0426 109.68C43.9948 111.473 42.2553 112.95 40.63 114.199C38.9039 115.522 36.9763 116.731 34.8942 117.376C33.1413 117.92 33.5241 120.344 34.9547 120.653C33.4838 121.815 31.9391 122.876 30.2264 123.857C28.4332 124.877 26.9354 125.583 24.9004 126.012C24.6855 126.059 24.4705 126.1 24.2489 126.133C24.2288 126.133 24.2153 126.133 24.1952 126.14C24.0944 126.153 23.9937 126.16 23.8862 126.174C23.4094 126.207 22.9325 126.227 22.4556 126.194C22.4019 126.194 22.0795 126.153 22.0325 126.153C21.8579 126.127 21.69 126.093 21.5221 126.053C21.2937 125.999 21.0721 125.939 20.8505 125.865C20.7497 125.831 20.6557 125.797 20.5549 125.757C20.5348 125.75 20.5214 125.744 20.5146 125.744C20.5012 125.737 20.4811 125.724 20.4542 125.71C19.4132 125.206 18.9027 124.804 18.1304 123.91C17.499 123.185 16.9147 122.164 16.458 121.157C17.049 121.09 17.5998 120.734 17.8214 120.002C18.2244 118.692 18.6274 117.376 19.0303 116.066C19.2385 115.395 19.4065 114.857 19.3594 114.132C19.2721 112.843 19.0035 111.573 18.6139 110.344C17.8617 107.947 16.7199 105.697 15.9005 103.32C15.2155 101.332 14.705 99.2633 15.5311 97.3895C16.0416 96.2411 17.0087 95.4621 17.8886 94.5756C18.2848 94.1794 18.6609 93.7361 19.1512 93.4608C19.3057 93.3735 19.4132 93.3936 19.3057 93.3802C19.5072 93.4138 19.4132 93.3399 19.6281 93.4541C20.7631 94.0652 21.6631 95.18 22.543 96.1068C23.2415 96.8388 23.9198 97.591 24.5713 98.3701C26.0019 100.062 27.3384 101.835 28.7488 103.548C29.2391 104.146 29.7361 104.743 30.2398 105.334C30.448 105.576 30.616 105.757 30.7033 105.932C30.71 105.952 30.7234 105.979 30.7368 106.013C30.7503 106.046 30.7637 106.073 30.7704 106.087C30.7637 106.073 30.757 106.073 30.7704 106.127C30.8107 106.295 30.6697 106.765 30.6092 106.879C30.3473 107.363 30.2734 107.457 29.8301 107.826C29.6757 107.954 29.1854 108.209 28.9369 108.256C28.7152 108.296 28.6346 108.289 28.4264 108.148C27.4123 107.443 26.1899 106.295 25.1556 105.381C23.7317 104.112 22.3348 102.823 20.9713 101.5C19.4199 99.9953 17.0423 102.366 18.5938 103.877C19.9639 105.2 21.3609 106.496 22.778 107.759C23.8526 108.719 24.9474 109.666 26.0825 110.559C27.2444 111.479 28.5138 111.869 29.9846 111.459C31.4824 111.05 32.8256 109.908 33.551 108.491C35.3778 108.773 37.3255 107.987 38.5345 106.536C39.918 104.878 39.777 103.051 39.0651 101.305C39.1927 101.137 39.2867 100.942 39.3539 100.741C39.7837 100.627 40.2135 100.512 40.63 100.351C42.2889 99.6864 43.2157 98.229 43.4172 96.4695C43.6254 94.6562 42.8329 93.2727 41.8859 91.8154C41.4426 91.1371 41.0128 90.4521 40.5762 89.7738C43.0545 89.4246 45.6269 87.2486 45.7075 84.7369C45.7209 84.3407 45.6537 83.9512 45.553 83.5751C45.7075 83.4005 45.8351 83.1721 45.909 82.8968L46.3388 81.3051C46.8492 81.0164 47.1716 80.4589 47.2254 79.8344C47.2052 80.0761 47.2589 79.8008 47.2791 79.6665C47.306 79.6195 47.4134 79.371 47.4134 79.3643C47.5007 79.2165 47.6082 79.0822 47.8298 78.8606C48.085 78.6121 48.1858 78.5315 48.535 78.3166H48.5552ZM63.1296 32.1453C63.0422 39.5596 61.4706 47.0611 58.8311 53.9784C57.7699 56.7588 56.4737 59.4921 54.7812 61.9568C54.1767 62.8433 53.579 63.5955 52.7394 64.3947C52.5715 64.5559 52.3969 64.7103 52.2223 64.8581C52.2223 64.8581 52.1081 64.9454 52.0409 64.9991C51.9738 65.0461 51.873 65.12 51.873 65.12C51.7253 65.2207 51.5708 65.3148 51.4163 65.4088C51.3022 65.4692 51.188 65.5297 51.0738 65.5901C51.0537 65.5968 51.0537 65.6035 51.0402 65.6102C51.0402 65.6102 51.0335 65.6102 51.0268 65.6102C50.8387 65.6707 50.6574 65.7244 50.4693 65.7781C50.3955 65.7983 50.3216 65.805 50.2477 65.8184C50.7246 65.7177 50.335 65.805 50.2074 65.7983C50.1335 65.7983 50.0462 65.7849 49.9656 65.7916C49.932 65.7781 49.8917 65.7714 49.8582 65.758C49.1059 65.5095 48.3268 65.3282 47.5679 65.1133C46.7351 64.8782 45.909 64.6432 45.0761 64.4081C46.6813 63.0314 47.9574 61.1711 48.9985 59.4451C51.3962 55.4626 53.0484 50.9966 54.2976 46.5373C54.667 45.221 54.9961 43.8913 55.2916 42.5548C56.3931 37.4844 57.0782 32.246 56.87 27.0547C56.7692 24.543 56.5341 21.6686 55.6006 19.1837C57.0916 19.6001 58.5759 20.0165 60.0669 20.4262C60.1207 20.453 60.1811 20.4799 60.2348 20.5135C60.302 20.5538 60.49 20.7015 60.5371 20.7284C60.6445 20.8291 60.7587 20.9366 60.8662 21.044C60.8863 21.0642 60.9065 21.091 60.9333 21.1179C60.9468 21.138 61.0744 21.2925 61.0945 21.3261C61.7191 22.2932 61.9005 22.7297 62.2296 23.8244C63.0355 26.5241 63.1833 29.3381 63.1497 32.152L63.1296 32.1453Z" fill="var(--fill-0, #323232)"/>
<path id="Vector_44" d="M40.3427 62.9844C40.3427 62.9844 40.4031 62.9844 40.4367 62.9844C40.4165 62.9844 40.383 62.9844 40.3359 62.9776L40.3427 62.9844Z" fill="var(--fill-0, #323232)"/>
<path id="Vector_45" d="M49.7076 17.5383C49.7076 17.5383 49.6942 17.5383 49.6875 17.5383C49.6942 17.5383 49.7009 17.5383 49.7076 17.5383Z" fill="var(--fill-0, #323232)"/>
<path id="Vector_46" d="M43.7993 50.2712C43.7321 46.2082 44.7261 42.1719 45.794 38.1962C46.8888 34.0995 48.1514 29.9357 50.2536 26.2823C51.335 24.4086 48.4335 22.7095 47.3522 24.5899C45.1022 28.4985 43.712 32.9713 42.55 37.3097C41.4351 41.4802 40.3672 45.9328 40.4411 50.2779C40.4747 52.4337 43.8329 52.4404 43.7993 50.2779V50.2712Z" fill="var(--fill-0, #323232)"/>
<path id="Vector_47" d="M41.0608 124.488C40.4966 123.783 39.4018 123.44 38.5287 124.219C34.8146 127.53 30.6774 130.673 25.6603 131.573C21.2611 132.359 15.4112 131.19 13.6381 126.509C13.3157 125.663 12.5031 125.079 11.5695 125.334C11.2404 125.421 10.9382 125.643 10.7098 125.918C10.6964 125.918 10.6829 125.932 10.6628 125.938C10.4546 127.403 10.2531 128.867 9.66206 130.337C10.2464 128.873 10.4479 127.409 10.6628 125.938C10.2061 126.086 9.80982 126.422 9.62176 127C7.0024 134.951 4.38305 142.903 1.76369 150.854C1.55549 151.485 1.34728 152.11 1.13908 152.741C1.68981 151.976 2.28756 151.224 2.94576 150.478C2.28756 151.224 1.6831 151.976 1.13908 152.741C0.977885 153.225 0.82341 153.708 0.662219 154.192C0.46073 154.803 0.608489 155.307 0.930871 155.663C1.68981 156.509 3.42933 156.522 3.89948 155.085C6.51883 147.134 9.13819 139.182 11.7575 131.231C11.8583 130.935 11.9523 130.633 12.0531 130.337C14.2493 133.124 17.6612 134.703 21.3216 135.052C26.0498 135.509 30.6639 134.004 34.6198 131.486C35.6474 130.834 36.6347 130.116 37.5951 129.364C37.1452 131.432 36.6952 133.501 36.2452 135.576C35.0564 141.016 33.8743 146.462 32.6855 151.902C32.4169 153.151 32.1415 154.393 31.8729 155.643C31.4162 157.751 34.6534 158.651 35.1101 156.536C35.8556 153.117 36.6011 149.706 37.3399 146.287C38.5287 140.848 39.7108 135.401 40.8996 129.961C41.1682 128.712 41.4436 127.47 41.7122 126.221C41.8801 125.455 41.5578 124.851 41.054 124.495L41.0608 124.488Z" fill="var(--fill-0, #323232)"/>
<path id="Vector_48" d="M119.844 78.0681C119.005 77.5778 118.071 77.9271 117.547 78.6725C113.847 83.8907 108.326 87.9672 102.671 90.8483C97.318 93.5749 91.4278 95.133 85.4838 93.6152C79.9698 92.2049 74.7378 88.4306 72.3736 83.1386C72.3602 83.1117 72.3535 83.0983 72.3468 83.0781C72.3468 83.0647 72.3333 83.0445 72.3199 83.011C72.2662 82.8833 72.2192 82.749 72.1721 82.6214C72.0915 82.4065 72.0177 82.1849 71.9505 81.97C71.7625 81.3924 71.608 80.8014 71.4669 80.2105C71.1849 78.9882 70.9834 77.7457 70.8558 76.5906C70.5334 73.7162 70.4662 70.815 70.4864 67.9272C70.5267 62.0038 71.0908 56.1074 71.2789 50.1974C71.3125 49.1699 70.567 48.6326 69.7677 48.5856C69.6871 50.3116 69.6065 52.051 69.4453 53.7904C69.6065 52.051 69.6871 50.3183 69.7677 48.5856C68.8946 48.5319 67.9543 49.0624 67.9207 50.1974C67.7461 55.7245 67.2357 61.2315 67.1416 66.7654C67.0946 69.7942 67.1349 72.8365 67.4237 75.8519C67.6789 78.4912 68.0551 81.191 68.9953 83.6758C71.2856 89.7469 76.8601 94.2935 82.8914 96.3486C82.9317 96.362 82.9652 96.3687 83.0055 96.3822C85.9876 97.3828 89.2181 97.7992 92.3546 97.5239C95.7195 97.2216 98.9164 96.2076 101.999 94.8644C109.125 91.7684 115.929 86.7382 120.449 80.3649C120.973 79.6262 120.583 78.4979 119.844 78.0681Z" fill="var(--fill-0, #323232)"/>
<path id="Vector_49" d="M100.601 43.4885C100.695 43.5087 100.789 43.5221 100.883 43.5355C101.092 43.5758 101.293 43.6229 101.501 43.6699C101.877 43.7639 102.24 43.8848 102.603 44.0191C102.623 44.0258 102.65 44.0326 102.67 44.0393C102.71 44.0594 102.751 44.0796 102.784 44.093C102.952 44.1669 103.113 44.2542 103.274 44.3348C103.563 44.496 103.845 44.6706 104.107 44.8721C104.812 45.4027 106.015 45.0064 106.404 44.2676C106.874 43.3811 106.552 42.5348 105.8 41.9707C104.329 40.8557 102.435 40.3319 100.628 40.1237C98.6133 39.8886 96.4036 40.2916 94.7447 41.5139C94.0395 42.0311 93.6164 42.9915 94.1402 43.8109C94.5902 44.5094 95.685 44.9728 96.4372 44.4154C96.773 44.1669 97.129 43.9721 97.5051 43.7841C97.5185 43.7841 97.5253 43.7841 97.5387 43.7706C97.6394 43.737 97.7469 43.6967 97.8476 43.6699C98.0357 43.6094 98.2238 43.5624 98.4118 43.5221C98.5193 43.502 98.6267 43.4818 98.7342 43.4617C98.9491 43.4482 99.164 43.4281 99.3857 43.4214C99.7886 43.4147 100.185 43.4415 100.588 43.4818L100.601 43.4885Z" fill="var(--fill-0, #323232)"/>
<path id="Vector_50" d="M80.6543 37.1554C79.4051 36.6449 78.0081 36.5039 76.6648 36.5039C75.785 36.5039 74.9455 37.2763 74.9858 38.183C75.0261 39.0964 75.7246 39.8621 76.6648 39.8621C76.9536 39.8621 77.2424 39.8688 77.538 39.8889C77.679 39.8956 77.8268 39.9091 77.9678 39.9225C78.0014 39.9225 78.035 39.9292 78.0618 39.9359C78.5924 40.0232 79.0961 40.1509 79.5999 40.3322C79.62 40.3456 79.6402 40.3523 79.6536 40.3591C79.7745 40.4195 79.8954 40.48 80.0096 40.5471C80.1036 40.6008 80.1909 40.6613 80.2782 40.7217C80.1708 40.6411 80.2984 40.7217 80.3655 40.7822C80.4058 40.8091 80.4394 40.8359 80.4797 40.8628C80.4394 40.8359 80.4125 40.8158 80.379 40.7956C80.5872 40.9702 80.7819 41.165 80.9566 41.3732C80.9767 41.4001 80.9969 41.427 81.0103 41.4471C81.1043 41.5881 81.1916 41.7292 81.2789 41.8769C81.7155 42.6359 82.817 42.9717 83.5759 42.4814C84.3416 41.9844 84.6505 40.9971 84.1804 40.1844C83.361 38.7673 82.1453 37.7666 80.6476 37.1554H80.6543Z" fill="var(--fill-0, #323232)"/>
<path id="Vector_51" d="M80.3473 40.7684C80.3473 40.7684 80.3003 40.7348 80.2734 40.7214C80.2936 40.7348 80.3339 40.7617 80.3809 40.7953C80.3809 40.7953 80.3742 40.7885 80.3675 40.7818C80.3675 40.7818 80.354 40.7751 80.3473 40.7684Z" fill="var(--fill-0, #323232)"/>
<path id="Vector_52" d="M83.5469 77.5442C83.5469 77.5442 83.6073 77.5509 83.6409 77.5576C83.614 77.5576 83.5939 77.5509 83.567 77.5442C83.5603 77.5442 83.5536 77.5442 83.5469 77.5442Z" fill="var(--fill-0, #323232)"/>
<path id="Vector_53" d="M86.0551 78.646C86.2028 78.787 86.3371 78.9348 86.4715 79.0893C87.0423 79.7609 88.2714 79.7206 88.849 79.0893C89.5072 78.3706 89.4535 77.4371 88.849 76.7117C87.5461 75.1669 85.6051 74.3677 83.6372 74.1797C81.629 73.9916 79.6611 74.6632 78.1164 75.9259C77.4313 76.4833 77.4918 77.7326 78.1164 78.3035C78.8283 78.9549 79.7216 78.8945 80.4469 78.337C80.4469 78.337 80.4469 78.337 80.4604 78.3303C80.541 78.2833 80.6149 78.2229 80.6887 78.1758C80.8432 78.0751 81.0044 77.9878 81.1656 77.9072C81.1723 77.9072 81.2328 77.8736 81.2865 77.8467C81.2999 77.8467 81.3066 77.8468 81.3201 77.8333C81.4947 77.7729 81.6626 77.7124 81.8439 77.6654C82.0051 77.6251 82.1663 77.5848 82.3275 77.5579H82.3409C82.3947 77.5579 82.5156 77.5378 82.5357 77.5378C82.885 77.5109 83.2275 77.5244 83.57 77.5378C83.5499 77.5378 83.5297 77.5244 83.523 77.5177C83.523 77.5244 83.5566 77.5311 83.5902 77.5378C83.6103 77.5378 83.6238 77.5378 83.6439 77.5378C83.7984 77.5445 83.7447 77.5512 83.6641 77.5445C83.7245 77.5512 83.7782 77.5579 83.7984 77.5579C83.9797 77.5915 84.1611 77.6318 84.3357 77.6856C84.5103 77.7326 84.6849 77.793 84.8596 77.8602C84.8797 77.8669 84.8931 77.8736 84.9066 77.8736C84.9536 77.9005 85.0073 77.9273 85.014 77.9273C85.1752 78.0079 85.3364 78.0953 85.4976 78.196C85.5782 78.243 85.6521 78.2967 85.726 78.3438C85.7595 78.3639 85.7864 78.384 85.8133 78.4042C85.914 78.4781 85.8737 78.4445 85.6924 78.3035C85.7797 78.3035 86.0013 78.5654 86.0618 78.6258L86.0551 78.646ZM81.3134 77.8333C81.3134 77.8333 81.3536 77.8132 81.3536 77.8199C81.3536 77.8199 81.3335 77.8266 81.3134 77.8333Z" fill="var(--fill-0, #323232)"/>
<path id="Vector_54" d="M97.247 48.72C95.0843 48.72 95.0843 52.0781 97.247 52.0781C99.4096 52.0781 99.4096 48.72 97.247 48.72Z" fill="var(--fill-0, #323232)"/>
<path id="Vector_55" d="M78.122 45.4628C75.9593 45.4628 75.9593 48.8209 78.122 48.8209C80.2846 48.8209 80.2846 45.4628 78.122 45.4628Z" fill="var(--fill-0, #323232)"/>
<path id="Vector_56" d="M83.7092 47.914C83.7159 49.7004 83.4069 51.366 82.4734 52.8972C81.4189 54.6299 79.8137 55.832 78.5578 57.3901C77.1272 59.163 77.0332 61.1442 78.2555 63.0515C79.2495 64.6029 80.6398 65.805 81.7749 67.2355C82.339 67.9473 83.5614 67.8265 84.1524 67.2355C84.8577 66.5303 84.7166 65.5767 84.1524 64.8581C83.1987 63.6559 81.9898 62.6486 81.157 61.3524C80.9622 61.0502 80.7876 60.7144 80.7338 60.5264C80.7137 60.4659 80.707 60.4391 80.6936 60.4256C80.6936 60.4256 80.6936 60.4122 80.6936 60.3988C80.707 60.2712 80.7137 60.1973 80.7674 60.0563C81.0764 59.2772 81.9696 58.6526 82.5405 58.0751C83.8636 56.7386 85.133 55.2544 85.9255 53.5352C86.7449 51.7555 87.0606 49.8683 87.0539 47.9208C87.0405 45.7583 83.6823 45.7583 83.6957 47.9208L83.7092 47.914Z" fill="var(--fill-0, #323232)"/>
<path id="Vector_57" d="M16.8738 10.6144C18.3648 11.0778 20.7558 11.4068 21.7095 12.609C21.7095 12.6224 21.8908 12.938 21.8841 12.9313C21.9647 13.0925 22.0117 13.2134 22.0722 13.4014C22.2267 13.8648 22.3408 14.3416 22.4349 14.8252C22.6364 15.8057 22.7572 16.8064 23.0058 17.7734C23.402 19.3315 25.9005 19.4188 26.243 17.7734C26.6191 16.0005 26.7937 14.0663 27.687 12.4612C28.4795 11.0375 30.8302 10.977 32.3884 10.8091C33.2884 10.7151 34.0675 10.104 34.0675 9.13017C34.0675 8.15637 33.2951 7.48479 32.3884 7.45121C30.8638 7.39748 28.9161 7.37062 27.6467 6.4304C26.5923 5.65137 26.337 4.36193 26.2699 3.09935C26.2699 3.05234 26.2766 3.00533 26.2833 2.95832C26.29 2.83072 26.2833 2.70312 26.2497 2.58224C26.2497 2.25316 26.2497 1.9308 26.2497 1.62187C26.2497 -0.540624 22.8916 -0.540624 22.8916 1.62187C22.8916 2.07183 22.8983 2.52851 22.9252 2.98518C22.8378 4.18732 22.7237 5.63794 21.7095 6.36325C20.5342 7.20944 18.6939 7.16243 17.317 7.30346C15.4902 7.48479 14.9663 10.0099 16.8738 10.6009V10.6144ZM25.2759 8.81452C25.5042 9.00928 25.7527 9.18389 26.0012 9.34507C25.7124 9.58684 25.4371 9.86891 25.1885 10.1913C24.9871 10.4532 24.8124 10.7353 24.6512 11.024C24.4901 10.7621 24.3087 10.5069 24.1005 10.2651C23.8117 9.94278 23.4826 9.67415 23.1334 9.42566C23.3751 9.29135 23.6035 9.13688 23.8251 8.96227C24.1341 8.7205 24.396 8.44515 24.6311 8.16309C24.8259 8.39142 25.0341 8.60633 25.2691 8.80781L25.2759 8.81452Z" fill="var(--fill-0, #323232)"/>
</g>
</svg>
