<svg preserveAspectRatio="none" width="100%" height="100%" overflow="visible" style="display: block;" viewBox="0 0 118 138" fill="none" xmlns="http://www.w3.org/2000/svg">
<g id="Group">
<path id="Vector" d="M20.2512 136.584C20.2512 136.584 20.2191 136.56 20.2031 136.552C20.2191 136.568 20.2592 136.608 20.3072 136.64C20.3393 136.656 20.3553 136.656 20.2512 136.584Z" fill="var(--fill-0, #6EC878)"/>
<path id="Vector_2" d="M20.1877 136.536C20.1877 136.536 20.1877 136.536 20.1877 136.544L20.1797 136.536H20.1877Z" fill="var(--fill-0, #6EC878)"/>
<path id="Vector_3" d="M29.4362 133.209C25.8403 130.893 22.2844 128.449 18.4481 126.523C18.36 126.484 18.2399 126.468 18.1598 126.412C18.1438 126.412 18.1358 126.42 18.1038 126.428C18.296 126.388 17.8875 126.531 17.9356 126.5C16.7663 127.104 18.0877 128.29 18.7044 128.752C18.9126 128.927 19.0248 129.118 19.0728 129.317C21.019 129.198 22.4686 130.781 24.0383 131.673C24.7991 132.158 25.568 132.636 26.3448 133.097C26.5851 133.241 26.7613 133.464 26.8574 133.71C27.7464 133.567 28.6354 133.424 29.5243 133.28C29.4923 133.257 29.4603 133.233 29.4202 133.217L29.4362 133.209Z" fill="var(--fill-0, white)"/>
<path id="Vector_4" d="M22.8613 133.822C21.692 133.185 20.5948 132.071 19.3374 131.744C19.2573 131.744 19.1692 131.744 19.1212 131.744C19.1292 131.744 19.1452 131.744 19.1532 131.744C19.1292 131.744 19.0651 131.768 19.033 131.776C19.001 131.792 18.961 131.816 18.9369 131.824C18.9049 131.864 18.8569 131.904 18.8168 131.943C18.7848 131.983 18.7367 132.087 18.6967 132.15C18.6646 132.222 18.6566 132.27 18.6406 132.333C18.8569 132.564 19.1051 132.763 19.3534 132.962C20.1543 133.583 21.0273 134.076 21.8201 134.705C22.2446 134.315 22.9974 134.379 23.55 134.243C23.3178 134.1 23.0855 133.965 22.8613 133.822Z" fill="var(--fill-0, white)"/>
<path id="Vector_5" d="M78.068 127.272C78.7007 130.63 78.7007 134.514 79.1092 137.984H81.4157C80.9192 134.251 80.1663 130.559 79.7819 126.818C79.6938 125.863 81.0072 125.234 81.72 125.823C81.68 125.521 81.7681 125.21 81.9523 124.979L77.8438 126.189C78.068 126.515 78.1641 126.921 78.076 127.272H78.068Z" fill="var(--fill-0, white)"/>
<path id="Vector_6" d="M20.3991 124.709C24.6919 127.216 28.9926 129.779 32.989 132.707C33.5096 132.62 34.0381 132.54 34.5587 132.453C30.5863 129.309 26.598 126.189 22.6256 123.037C22.0569 122.568 21.3201 122.035 20.5273 122.249C19.6143 122.496 19.6143 123.754 20.1669 124.359C20.271 124.47 20.3431 124.589 20.3911 124.709H20.3991Z" fill="var(--fill-0, white)"/>
<path id="Vector_7" d="M58.7318 79.2242C59.797 80.4021 58.1151 81.5004 57.5625 82.4794C57.6826 82.6147 57.7707 82.7738 57.8108 82.941C58.3714 85.2888 58.924 87.6447 59.4846 89.9925C60.1093 90.0243 60.718 90.1915 61.3426 90.279C61.671 90.3188 61.9994 90.3188 62.3197 90.287C62.584 90.2313 62.8563 90.1676 63.1046 90.0562C63.0645 90.0721 63.0325 90.088 62.9925 90.1039C63.2568 90.0004 63.489 89.8253 63.7533 89.7219C64.346 87.0796 64.8425 84.4134 65.291 81.7472C65.0107 81.3572 64.7224 80.9672 64.4421 80.5852C63.9295 79.8689 64.5782 78.7467 65.4271 78.7546L64.7624 77.8712C63.8494 78.3726 62.4959 79.5983 61.663 78.4204C60.8781 79.5107 59.7329 78.5636 58.8039 78.2134C58.6917 78.5159 58.6517 78.8422 58.6357 79.1446C58.6677 79.1685 58.6997 79.1924 58.7318 79.2163V79.2242Z" fill="var(--fill-0, #CBB0EC)"/>
<path id="Vector_8" d="M75.0244 61.0144C68.5533 70.5649 54.7621 71.2892 47.1217 62.813C47.0416 64.6356 47.0977 66.4741 46.9375 68.2887C51.2863 71.5439 56.0115 74.3613 61.009 76.5261C61.2493 76.6296 61.4655 76.7728 61.6257 76.9559C66.3349 73.9713 71.1241 70.931 75.2727 67.1506C75.1926 65.1052 75.1125 63.0518 75.0244 61.0064V61.0144Z" fill="var(--fill-0, white)"/>
<path id="Vector_9" d="M115.053 108.139C114.749 104.247 114.476 100.283 113.283 96.5505C113.083 95.9058 112.915 95.6432 112.57 95.0861C110.096 92.6507 107.004 90.7644 104.097 88.8861C100.685 86.6895 97.2094 84.5645 93.6374 82.6225C85.1641 78.4521 81.7283 77.0036 78.1564 67.6998C76.1141 70.0954 73.3591 71.91 70.8443 73.7723C68.8741 75.197 66.8639 76.6057 64.7656 77.8711L65.4303 78.7546C65.8708 78.7386 66.2953 78.9694 66.5756 79.3515C68.2895 81.7152 70.0114 84.0711 71.7253 86.4269C73.7756 83.7607 75.8178 81.0945 77.868 78.4283C78.2765 77.903 78.9172 77.6164 79.5579 77.9905C80.0865 78.2929 80.4068 79.1366 79.9984 79.6698C77.5877 82.8136 75.1771 85.9493 72.7664 89.0931C72.1818 89.8571 71.2207 89.889 70.6361 89.0931C69.5309 87.5729 68.4176 86.0448 67.3124 84.5247C66.896 86.6656 66.5516 88.8464 65.9669 90.9395L66.2553 91.8787C66.5836 91.9821 66.8559 92.2448 66.952 92.6984C67.2724 94.2583 67.3124 95.8978 67.4005 97.4816C67.9531 107.303 68.0492 117.148 68.3055 126.985C71.0605 126.539 73.8076 126.094 76.5626 125.648C77.1312 125.552 77.5717 125.815 77.836 126.197L81.9445 124.987C82.2729 124.542 82.8816 124.438 83.4262 124.55C87.5267 125.139 92.2439 124.223 95.8959 126.579C96.3845 122.926 96.873 119.281 97.3615 115.628C97.4496 114.975 97.8581 114.394 98.5949 114.402C99.1955 114.402 99.9163 114.967 99.8282 115.628C99.7001 116.559 99.58 117.49 99.4518 118.421C98.5789 124.94 97.7059 131.466 96.8329 137.984H115.365C115.622 128.036 115.726 118.071 115.053 108.139Z" fill="var(--fill-0, white)"/>
<path id="Vector_10" d="M95.5853 128.879C95.2089 128.935 94.8164 128.808 94.4961 128.545C90.812 126.444 86.1589 127.845 82.2266 126.714C82.635 130.487 83.3718 134.22 83.8764 137.976H94.368C94.7764 134.944 95.1768 131.912 95.5853 128.871V128.879Z" fill="var(--fill-0, white)"/>
<path id="Vector_11" d="M75.8128 128.235C64.3602 130.089 52.9155 131.951 41.4629 133.806C35.3282 134.801 29.1934 135.795 23.0586 136.79C22.7062 136.846 22.4099 136.766 22.1617 136.615C21.6891 137.196 20.8082 137.148 20.2956 136.639C20.2636 136.623 20.2075 136.575 20.1915 136.552C18.0772 134.968 14.5613 133.479 16.9079 130.439C14.4892 128.609 14.1608 125.17 17.4204 124.096C16.7557 121.231 19.5988 118.963 22.3138 120.029C23.419 120.427 24.3801 121.286 25.3091 122.051C27.4955 118.294 31.8123 121.907 34.0628 123.77C36.4494 125.72 38.7159 127.797 41.1426 129.707C41.6471 130.105 41.575 130.933 41.1906 131.378C45.5314 130.67 49.8802 129.97 54.221 129.261L54.4212 127.494C54.253 127.303 54.1489 127.033 54.1809 126.691C54.3571 124.621 54.4933 122.544 54.6374 120.475C54.9738 115.492 55.2862 110.51 55.6626 105.528C55.9749 101.397 56.2712 97.2429 56.928 93.1441C56.992 92.7303 57.2163 92.4835 57.4886 92.3562L57.5286 92.1095C57.1922 91.8389 57.008 91.3375 57.1602 90.8997C56.6877 88.9737 56.2472 87.0397 55.7827 85.1137C54.5413 87.0715 53.348 89.0612 51.8584 90.844C51.3058 91.5046 50.3447 91.1703 49.9202 90.5973C49.6079 90.1675 49.2875 89.7457 48.9752 89.3159C46.8208 86.3871 44.6745 83.4662 42.5201 80.5374C41.7512 79.1366 43.7054 77.9428 44.6504 79.3037C46.7728 82.1928 48.8951 85.0739 51.0174 87.9629C53.1157 85.1296 54.7015 81.9381 56.968 79.2162C57.3685 78.7387 58.1613 78.7785 58.6178 79.1446C58.6338 78.8421 58.6819 78.5158 58.786 78.2134C54.1008 76.1043 49.5839 73.4222 45.5154 70.2944C33.3179 89.4592 5.51932 77.5687 5.29507 107.804C4.23791 117.856 3.35694 127.924 2.5 137.984H76.6137C76.3414 134.737 76.061 131.482 75.7887 128.235H75.8128ZM12.6231 115.763C10.637 112.006 8.64277 108.258 6.65658 104.501C5.91977 103.109 8.04211 101.867 8.78693 103.268C10.7731 107.024 12.7673 110.773 14.7535 114.529C15.4903 115.922 13.368 117.164 12.6231 115.763Z" fill="var(--fill-0, white)"/>
<path id="Vector_12" d="M18.8203 131.944C18.9084 131.856 18.8604 131.896 18.8203 131.944Z" fill="var(--fill-0, #6EC878)"/>
<path id="Vector_13" d="M83.2587 124.518C82.7462 124.438 82.2416 124.589 81.9453 124.979L83.4269 124.542C83.3709 124.542 83.3068 124.526 83.2587 124.518Z" fill="var(--fill-0, #323232)"/>
<path id="Vector_14" d="M30.0607 125.807C32.3752 127.63 34.6818 129.452 36.9963 131.275C37.2206 131.45 37.3247 131.72 37.3487 132.007C38.1336 131.88 38.9185 131.752 39.6953 131.625C36.1874 129.126 33.2642 125.863 29.6202 123.539C28.7553 123.029 27.6901 122.265 27.2656 123.595C28.1946 124.327 29.1317 125.067 30.0607 125.799V125.807Z" fill="var(--fill-0, white)"/>
<path id="Vector_15" d="M98.5977 114.402C97.8609 114.402 97.4524 114.975 97.3643 115.628C96.8758 119.281 96.3872 122.926 95.8987 126.579C92.2547 124.223 87.5375 125.139 83.429 124.55L81.9473 124.987C81.7631 125.21 81.675 125.529 81.7151 125.831C81.0103 125.25 79.6969 125.879 79.7769 126.826C80.1614 130.574 80.9222 134.267 81.4107 137.992H83.8775C83.3729 134.228 82.6281 130.503 82.2276 126.73C84.4461 127.399 86.9128 127.12 89.2193 127.335C90.9973 127.47 92.9835 127.558 94.5052 128.561C94.8175 128.823 95.2179 128.951 95.5944 128.895C95.1859 131.927 94.7855 134.96 94.377 138H96.8437C97.7167 131.482 98.5897 124.956 99.4626 118.437C99.5908 117.506 99.7109 116.575 99.839 115.644C99.9271 114.983 99.2064 114.426 98.6057 114.418L98.5977 114.402Z" fill="var(--fill-0, #323232)"/>
<path id="Vector_16" d="M58.1511 128.632C60.7139 128.219 63.2767 127.797 65.8396 127.383C65.4712 116.145 65.5272 104.883 64.6222 93.6774C64.2138 92.4995 65.2469 91.5762 66.248 91.8787L65.9597 90.9395C65.8075 91.2022 65.5432 91.3852 65.2549 91.4648C65.1508 91.6558 64.9986 91.823 64.8144 91.9264C63.1886 92.969 61.2745 92.8417 59.4725 92.4278C59.1842 92.388 58.8719 92.4119 58.5996 92.4199C58.5996 92.4199 58.5916 92.4199 58.5836 92.4199C59.0561 92.6586 59.4165 93.1521 59.3124 93.7968C58.992 95.7785 58.7998 97.7761 58.6156 99.7738C57.7827 108.735 57.4223 117.729 56.6454 126.691C56.5413 127.908 55.0196 128.179 54.419 127.494L54.2188 129.261C55.5242 129.046 56.8296 128.839 58.1431 128.625L58.1511 128.632Z" fill="var(--fill-0, #CBB0EC)"/>
<path id="Vector_17" d="M57.7559 92.2846C57.6758 92.2448 57.6197 92.1731 57.5557 92.1174L57.5156 92.3642C57.5957 92.3323 57.6758 92.3005 57.7639 92.2846H57.7559Z" fill="var(--fill-0, #6EC878)"/>
<path id="Vector_18" d="M78.244 127.86C78.228 127.654 78.164 127.455 78.0678 127.279C78.1559 126.929 78.0599 126.523 77.8356 126.197C77.5713 125.823 77.1308 125.56 76.5622 125.648C73.8071 126.094 71.0601 126.539 68.3051 126.985C68.0488 117.156 67.9527 107.303 67.4001 97.4817C67.312 95.8979 67.2719 94.2584 66.9516 92.6984C66.8555 92.2448 66.5832 91.9821 66.2548 91.8787C65.2537 91.5762 64.2206 92.4994 64.629 93.6773C65.534 104.883 65.47 116.153 65.8464 127.383C61.9781 128.012 58.1099 128.64 54.2336 129.269C49.8928 129.978 45.544 130.678 41.2032 131.386C41.5877 130.941 41.6517 130.113 41.1552 129.715C38.7285 127.813 36.462 125.728 34.0754 123.778C31.8249 121.915 27.5082 118.302 25.3218 122.058C24.3927 121.294 23.4237 120.435 22.3265 120.029C19.6115 118.963 16.7603 121.231 17.4331 124.096C14.1735 125.178 14.5018 128.609 16.9205 130.439C14.5819 133.479 18.0898 134.968 20.2041 136.552C20.2041 136.552 20.1961 136.552 20.2041 136.544C20.2041 136.544 20.2041 136.544 20.2121 136.552C20.2682 136.591 20.3883 136.679 20.3162 136.639C20.8208 137.148 21.7098 137.196 22.1823 136.615C22.4225 136.766 22.7269 136.846 23.0793 136.79C29.214 135.795 35.3488 134.801 41.4836 133.806C52.9362 131.951 64.3808 130.089 75.8334 128.235C76.1057 131.482 76.386 134.737 76.6583 137.984H79.125C78.8367 134.61 78.5484 131.235 78.2681 127.86H78.244ZM22.4065 134.426C22.1502 134.466 21.958 134.57 21.8139 134.705C21.021 134.076 20.1481 133.575 19.3472 132.962C19.0989 132.763 18.8506 132.564 18.6344 132.333C18.6504 132.27 18.6584 132.214 18.6904 132.15C18.7305 132.087 18.7785 131.983 18.8106 131.943C18.8506 131.904 18.8907 131.864 18.9307 131.824C18.9547 131.816 18.9948 131.792 19.0268 131.776C19.0588 131.768 19.1229 131.744 19.147 131.744C19.147 131.744 19.1309 131.744 19.1149 131.744C19.163 131.744 19.2511 131.744 19.3311 131.744C20.7487 132.15 22.1663 133.535 23.5438 134.251C23.1674 134.315 22.7829 134.379 22.4065 134.434V134.426ZM18.8186 131.943C18.9067 131.856 18.8586 131.896 18.8186 131.943ZM29.0859 133.344C28.3491 133.463 27.6123 133.583 26.8675 133.702C26.7713 133.456 26.5952 133.233 26.3549 133.089C25.578 132.628 24.8092 132.15 24.0484 131.665C22.4706 130.773 21.021 129.198 19.0829 129.309C19.0268 129.11 18.9147 128.919 18.7145 128.744C18.0978 128.282 16.7844 127.096 17.9456 126.492C17.8896 126.523 18.306 126.38 18.1138 126.42C18.1539 126.42 18.1619 126.404 18.1699 126.404C18.25 126.452 18.3701 126.476 18.4582 126.515C22.3264 128.465 25.9144 130.925 29.5424 133.265C29.3902 133.288 29.2381 133.312 29.0859 133.336V133.344ZM32.9862 132.715C28.9898 129.787 24.6891 127.224 20.3963 124.717C20.3403 124.597 20.2762 124.478 20.1721 124.367C19.6195 123.77 19.6195 122.504 20.5325 122.257C21.3253 122.051 22.0621 122.576 22.6308 123.045C26.6032 126.189 30.5916 129.317 34.5639 132.461C34.0434 132.548 33.5148 132.628 32.9942 132.715H32.9862ZM37.351 132.007C37.335 131.72 37.2229 131.458 36.9986 131.275C33.755 128.72 30.5115 126.157 27.2679 123.602C27.6924 122.273 28.7575 123.029 29.6225 123.547C33.2665 125.863 36.1897 129.134 39.6976 131.633C38.9127 131.76 38.1279 131.888 37.351 132.015V132.007Z" fill="var(--fill-0, #323232)"/>
<path id="Vector_19" d="M20.2031 136.552C20.2191 136.584 20.2672 136.624 20.3072 136.64C20.2672 136.608 20.2191 136.568 20.2031 136.552Z" fill="var(--fill-0, #323232)"/>
<path id="Vector_20" d="M79.5592 77.9985C78.9265 77.6324 78.2778 77.9109 77.8693 78.4362C75.8191 81.1024 73.7768 83.7686 71.7266 86.4348C70.0127 84.079 68.2908 81.7152 66.5769 79.3594C66.2966 78.9774 65.8721 78.7386 65.4316 78.7625C64.5907 78.7625 63.942 79.8768 64.4465 80.5931C64.7269 80.983 65.0152 81.373 65.2955 81.755C64.847 84.4212 64.3504 87.0874 63.7578 89.7298C63.4935 89.8332 63.2612 90.0083 62.997 90.1118C63.037 90.0959 63.069 90.08 63.1091 90.064C62.8688 90.1755 62.5885 90.2391 62.3242 90.2948C61.9958 90.3267 61.6675 90.3267 61.3471 90.2869C60.7304 90.1993 60.1138 90.0322 59.4891 90.0004C58.9285 87.6525 58.3759 85.2967 57.8152 82.9489C57.7752 82.7738 57.6791 82.6146 57.567 82.4872C58.1356 81.5083 59.9055 80.2747 58.6401 79.1525C58.6321 79.3435 58.6241 79.5266 58.6241 79.6778C58.6241 79.5266 58.6241 79.3435 58.6401 79.1525C58.1836 78.7864 57.3908 78.7466 56.9903 79.2241C54.7238 81.9461 53.1381 85.1375 51.0398 87.9709C48.9174 85.0818 46.7951 82.2007 44.6728 79.3117C43.7277 77.9587 41.7736 79.1445 42.5424 80.5453C44.6968 83.4741 46.8431 86.395 48.9975 89.3239C49.3099 89.7536 49.6302 90.1755 49.9426 90.6052C50.367 91.1783 51.3281 91.5205 51.8807 90.852C53.3703 89.0612 54.5637 87.0795 55.805 85.1216C56.2695 87.0476 56.71 88.9816 57.1825 90.9077C57.0304 91.3454 57.2146 91.8468 57.5509 92.1174C57.615 92.1731 57.6791 92.2447 57.7512 92.2845C57.6631 92.3005 57.583 92.3243 57.5029 92.3641C57.2226 92.4915 57.0063 92.7382 56.9423 93.1521C56.2855 97.2429 55.9892 101.405 55.6769 105.536C55.3005 110.518 54.9801 115.5 54.6517 120.483C54.5156 122.552 54.3714 124.629 54.1952 126.698C54.1632 127.041 54.2673 127.311 54.4355 127.502C55.0362 128.187 56.5579 127.916 56.662 126.698C57.4308 117.737 57.7912 108.743 58.6321 99.7818C58.8163 97.7841 59.0085 95.7864 59.3289 93.8047C59.433 93.152 59.0726 92.6666 58.6001 92.4278C58.6001 92.4278 58.6081 92.4278 58.6161 92.4278C58.8964 92.4278 59.2008 92.4039 59.4891 92.4358C61.2911 92.8417 63.2052 92.977 64.831 91.9344C65.0152 91.8229 65.1673 91.6558 65.2715 91.4727C65.5598 91.3852 65.8241 91.2021 65.9762 90.9475C66.5689 88.8543 66.9053 86.6736 67.3217 84.5327C68.4269 86.0528 69.5401 87.5809 70.6454 89.101C71.222 89.8969 72.1911 89.8651 72.7757 89.101C74.89 86.3473 76.9964 83.6015 79.1107 80.8477C79.407 80.4577 79.7114 80.0678 80.0077 79.6778C80.4081 79.1525 80.0878 78.3089 79.5672 77.9985H79.5592Z" fill="var(--fill-0, #323232)"/>
<path id="Vector_21" d="M38.3926 31.519C38.4727 31.5349 38.5608 31.5667 38.6409 31.5906C38.5448 31.3518 38.4326 31.1449 38.3125 30.9618C38.3365 31.1528 38.3686 31.3359 38.3926 31.5269V31.519Z" fill="var(--fill-0, #6EC878)"/>
<path id="Vector_22" d="M79.9358 21.1248C79.8877 19.7081 79.9197 18.0845 79.3992 16.7395C78.9587 15.6093 77.7974 14.7577 76.9965 13.8902C76.3638 13.1978 76.7162 12.3144 77.3329 11.9483C76.8684 11.5344 76.3959 11.1365 75.9954 10.7067C75.3547 11.0648 74.4257 10.9295 74.2014 10.0222C71.7507 2.04751 57.6792 1.49039 50.9038 3.305C46.2827 4.31577 40.5003 7.27646 41.0289 12.7442C41.101 13.6992 40.228 14.0653 39.4992 13.8584C39.8035 14.2882 39.8516 14.8851 39.3631 15.3626C37.7453 17.0101 36.3998 19.3659 36.8082 21.7376C37.473 24.7779 37.8654 27.8739 38.3139 30.9539C38.434 31.137 38.5462 31.3519 38.6423 31.5827C39.7955 31.7896 39.9557 33.2142 39.283 33.8111C39.5793 34.997 39.9077 36.151 40.5964 36.6604C40.4202 33.8509 40.236 31.0415 40.0518 28.24C40.0038 27.5157 40.7085 27.0143 41.3653 27.0143C42.2462 26.887 43.0872 26.5049 43.5997 25.7409C44.721 24.1969 45.4658 22.4539 45.8502 20.5995C46.0264 19.74 46.8433 19.5648 47.476 19.8354C47.7643 19.1192 48.0686 18.4029 48.1167 17.7502C47.7403 17.981 47.3799 18.2278 47.0355 18.4984C45.8021 19.4614 44.0482 17.7423 45.2896 16.7634C50.4553 12.8397 57.503 12.0677 63.7259 13.5241C60.7947 10.1655 56.2937 8.71699 51.985 8.20763C51.3202 8.136 50.7516 7.70622 50.7516 6.98197C50.7516 6.36914 51.3202 5.68467 51.985 5.7563C57.9756 6.40892 64.8551 8.90004 67.3219 14.8373C67.8905 15.1238 68.4511 15.4342 68.9877 15.7844C69.7966 16.3256 69.6364 17.3364 69.0838 17.8219C69.1879 18.1163 69.3 18.387 69.4362 18.6337C69.8606 17.8696 71.054 17.5513 71.5425 18.5461C71.7908 19.0396 72.0631 19.5489 72.3594 20.0504C73.2324 21.4989 74.2655 22.7722 75.7471 23.4647C75.8993 23.5681 76.6922 23.6557 76.1075 23.6C76.8283 23.6557 77.2768 24.1253 77.3409 24.8256C77.6052 27.6908 77.7974 30.5719 77.9175 33.445C78.2619 33.1426 78.5983 32.8163 78.9186 32.4661C78.0377 31.5986 78.5262 30.5321 79.7275 30.2217C79.9678 27.1974 80.0319 24.1491 79.9358 21.1248Z" fill="var(--fill-0, #5A5A5A)"/>
<path id="Vector_23" d="M81.765 33.7315C81.6128 33.246 81.4206 32.7685 81.0442 32.474C80.9 32.5058 80.7479 32.5059 80.6037 32.4899C80.0271 32.8481 79.3623 32.9197 78.9219 32.4661C78.6095 32.8242 78.2651 33.1505 77.9208 33.445C77.9368 33.8429 77.9688 34.2409 77.9848 34.6388C78.0249 35.8326 76.6393 36.1192 75.9266 35.5143C75.9186 35.5382 75.9025 35.5541 75.8865 35.57C75.8945 35.5461 75.9105 35.5302 75.9266 35.5143C75.6943 35.3153 75.5341 35.0288 75.5181 34.6388C75.414 31.6941 75.2138 28.7493 74.9575 25.8125C72.3786 24.945 70.4966 21.9684 69.4154 19.7797C69.2072 19.3579 69.2552 18.952 69.4314 18.6336C69.2952 18.3949 69.1831 18.1163 69.079 17.8218C68.2221 18.6495 67.1329 17.3682 66.2679 17.0578C65.9636 17.0419 65.6753 16.9225 65.459 16.6758C59.973 14.511 53.2616 14.7657 48.1039 17.7343C48.0558 18.3869 47.7515 19.1112 47.4632 19.8195C47.9678 20.0423 48.3602 20.5437 48.216 21.2282C47.4392 24.3242 45.9896 28.3036 42.5698 29.2348C42.746 31.8771 42.9222 34.5194 43.0824 37.1618C43.1785 38.7376 40.7118 38.7297 40.6157 37.1618C40.6077 36.9946 40.5916 36.8195 40.5836 36.6524C39.8949 36.143 39.5665 34.989 39.2702 33.8031C39.0059 34.0419 38.6375 34.1533 38.181 33.9942C36.8515 33.5246 36.2188 35.0925 36.0747 36.143C35.3539 40.3055 37.9167 44.1337 41.7129 45.7573C41.9211 45.8528 42.0733 46.0279 42.1694 46.2268C42.5218 46.4099 42.8021 46.7442 42.8581 47.2297C43.4027 51.997 45.0365 56.82 48.2481 60.4811C52.6609 65.519 59.7647 67.8191 66.1318 65.2564C74.1966 62.0569 76.5593 53.1749 76.8796 45.3912C76.8316 44.9216 77.0318 44.3963 77.4723 44.1974C81.6929 42.4385 83.0304 37.878 81.773 33.7395L81.765 33.7315ZM59.5085 34.4956C60.1011 34.3045 60.91 34.7184 61.0221 35.3472C61.4546 37.703 61.8871 40.0588 62.3196 42.4146C62.6639 43.9904 60.4054 44.6112 59.9409 43.0672C59.5085 40.7114 59.076 38.3556 58.6435 35.9998C58.5154 35.3233 58.8197 34.7104 59.5005 34.4956H59.5085ZM51.812 36.5012C50.2262 36.5012 50.2262 34.0499 51.812 34.0499C53.3977 34.0499 53.3977 36.5012 51.812 36.5012ZM67.1088 53.7798C66.9166 54.4722 66.2519 54.7348 65.5952 54.6314C64.1055 54.4006 62.5198 54.2175 60.9661 54.4085C59.6927 54.5995 58.4673 54.9497 57.234 55.2999C56.5933 55.4829 55.8965 55.0771 55.7203 54.4483C55.5441 53.8037 55.9445 53.1271 56.5772 52.9441C58.155 52.4904 59.7327 52.0607 61.3745 51.9174C63.0083 51.7821 64.6421 52.0129 66.2519 52.2676C66.9166 52.3711 67.277 53.1908 67.1088 53.7718V53.7798ZM67.5173 35.5063C65.9316 35.5063 65.9316 33.055 67.5173 33.055C69.103 33.055 69.103 35.5063 67.5173 35.5063Z" fill="var(--fill-0, white)"/>
<path id="Vector_24" d="M55.7169 54.4563C55.893 55.093 56.5898 55.4989 57.2305 55.3079C58.4639 54.9577 59.6973 54.5996 60.9626 54.4165C62.5083 54.2255 64.1021 54.4006 65.5917 54.6394C66.2485 54.7428 66.9212 54.4722 67.1054 53.7878C67.2656 53.2068 66.9052 52.387 66.2485 52.2836C64.6387 52.0289 63.0049 51.7981 61.3711 51.9334C59.7293 52.0687 58.1515 52.5064 56.5738 52.9601C55.9331 53.1431 55.5326 53.8276 55.7169 54.4643V54.4563Z" fill="var(--fill-0, #323232)"/>
<path id="Vector_25" d="M61.464 43.9268C62.1447 43.7039 62.449 43.0991 62.3209 42.4226C61.8884 40.0667 61.4559 37.7109 61.0235 35.3551C60.5669 33.8111 58.3005 34.4239 58.6448 36.0078C59.0773 38.3636 59.5098 40.7194 59.9423 43.0752C60.0624 43.7039 60.8633 44.1258 61.4559 43.9268H61.464Z" fill="var(--fill-0, #323232)"/>
<path id="Vector_26" d="M51.8143 36.5012C53.4001 36.5012 53.4001 34.0499 51.8143 34.0499C50.2286 34.0499 50.2286 36.5012 51.8143 36.5012Z" fill="var(--fill-0, #323232)"/>
<path id="Vector_27" d="M75.9221 35.5223C76.6349 36.1271 78.0204 35.8406 77.9804 34.6468C77.9643 34.2488 77.9403 33.8509 77.9163 33.453C77.1234 34.1454 76.3385 34.7423 75.9141 35.5223H75.9221Z" fill="var(--fill-0, #323232)"/>
<path id="Vector_28" d="M67.5174 33.055C65.9317 33.055 65.9317 35.5063 67.5174 35.5063C69.1032 35.5063 69.1032 33.055 67.5174 33.055Z" fill="var(--fill-0, #323232)"/>
<path id="Vector_29" d="M38.8408 31.6384C38.7768 31.6145 38.7047 31.5986 38.6406 31.5827C38.9049 32.2194 39.0811 33.0232 39.2813 33.8112C39.882 33.262 39.882 32.0045 38.8408 31.6384Z" fill="var(--fill-0, #323232)"/>
<path id="Vector_30" d="M47.4656 19.8275C46.8329 19.5569 46.024 19.732 45.8398 20.5916C45.4473 22.446 44.7105 24.1889 43.5893 25.7329C43.0767 26.497 42.2438 26.879 41.3548 27.0064C40.6981 27.0064 39.9933 27.5078 40.0414 28.232C40.2256 31.0415 40.4098 33.8509 40.586 36.6524C41.1226 37.0504 41.8834 37.0663 43.0127 36.3898C41.8754 37.0663 41.1226 37.0583 40.586 36.6524C40.594 36.8196 40.61 36.9947 40.618 37.1618C40.7141 38.7297 43.1808 38.7377 43.0847 37.1618C42.9246 34.5195 42.7484 31.8771 42.5722 29.2348C45.9919 28.3036 47.4415 24.3242 48.2184 21.2282C48.3625 20.5438 47.9701 20.0344 47.4656 19.8195V19.8275Z" fill="var(--fill-0, #323232)"/>
<path id="Vector_31" d="M72.3607 20.0583C72.0644 19.5569 71.7841 19.0476 71.5438 18.5541C71.0553 17.5593 69.862 17.8776 69.4375 18.6417C69.918 19.5012 70.6789 20.0106 72.3687 20.0583H72.3607Z" fill="var(--fill-0, #323232)"/>
<path id="Vector_32" d="M76.1087 23.6079C76.6854 23.6636 75.9005 23.5681 75.7483 23.4726C74.2667 22.7882 73.2335 21.5147 72.3606 20.0583C70.6707 20.0105 69.9099 19.5012 69.4294 18.6416C69.2452 18.9679 69.2051 19.3659 69.4133 19.7877C70.5025 21.9763 72.3766 24.953 74.9554 25.8205C75.2117 28.7573 75.4119 31.702 75.516 34.6468C75.5321 35.0368 75.6923 35.3233 75.9245 35.5223C76.341 34.7423 77.1258 34.1454 77.9267 33.453C77.8066 30.5798 77.6144 27.6987 77.3501 24.8336C77.286 24.1332 76.8375 23.6636 76.1167 23.6079H76.1087Z" fill="var(--fill-0, #323232)"/>
<path id="Vector_33" d="M117.674 110.574C117.497 107.39 117.249 104.199 116.793 101.039C116.296 98.0467 115.944 94.513 113.389 92.4915C108.736 88.6872 103.546 85.5594 98.3884 82.4873C93.9275 79.7176 88.6416 78.1577 84.8134 74.4728C83.564 73.1675 82.643 71.6076 81.8502 69.9999C81.3136 68.9175 80.8411 67.8033 80.3846 66.6811C79.9441 65.5987 78.4945 65.6783 78.046 66.4105C77.9499 66.2831 77.8297 66.1717 77.6936 66.0762C77.5895 63.4259 77.4853 60.7677 77.3732 58.1174C77.3572 57.8149 77.2451 57.5364 77.0529 57.3215C78.5585 53.7878 79.1672 49.8641 79.1992 46.0439C82.4588 44.4919 84.5411 41.1651 84.6132 37.5916C84.7093 35.1562 84.5251 31.718 82.1785 30.357C82.4508 27.0541 82.5229 23.7114 82.3707 20.4085C82.2986 18.8008 82.2346 17.0499 81.5538 15.5616C80.9452 14.2165 79.7118 13.2296 78.7347 12.1632C78.2942 11.6856 77.7496 11.6936 77.3252 11.9562C78.086 12.6327 78.8308 13.357 79.1672 14.3518C78.8308 13.357 78.094 12.6327 77.3252 11.9562C76.7085 12.3223 76.3561 13.2137 76.9888 13.8982C77.7897 14.7657 78.951 15.6173 79.3915 16.7475C79.912 18.0925 79.888 19.7081 79.928 21.1327C80.0241 24.1571 79.9681 27.2053 79.7198 30.2297C78.5185 30.5401 78.022 31.6065 78.9109 32.4741C79.3514 31.9727 79.7438 31.4076 79.9841 30.6833C79.7438 31.3996 79.3514 31.9727 78.9109 32.4741C79.3514 32.9277 80.0162 32.8561 80.5928 32.4979C80.7369 32.5139 80.8891 32.5059 81.0333 32.482C82.3227 33.9464 82.2426 36.4057 82.0824 38.2601C81.722 41.0696 79.9841 43.0275 77.4533 44.2054C77.0128 44.4123 76.8126 44.9296 76.8607 45.3992C76.5323 53.1829 74.1777 62.0729 66.1128 65.2644C59.7538 67.8271 52.65 65.527 48.2291 60.4891C45.0176 56.828 43.3838 52.005 42.8392 47.2377C42.7831 46.7522 42.5028 46.4179 42.1504 46.2349C42.0543 46.0359 41.9022 45.8688 41.6939 45.7653C37.8977 44.1417 35.3349 40.3135 36.0557 36.151C36.2079 35.1005 36.8326 33.5326 38.162 34.0022C38.6185 34.1613 38.9949 34.0579 39.2512 33.8111C39.059 33.0232 38.8748 32.2194 38.6105 31.5827C38.5304 31.5588 38.4423 31.5349 38.3623 31.511C38.3382 31.32 38.3062 31.137 38.2822 30.946C37.8417 27.8659 37.4492 24.7699 36.7765 21.7297C36.3681 19.3579 37.7135 17.0101 39.3313 15.3547C39.8199 14.8771 39.7718 14.2802 39.4675 13.8504C40.1963 14.0574 41.0773 13.6913 40.9972 12.7362C40.4766 7.26849 46.2509 4.31576 50.872 3.29703C57.6475 1.48242 71.719 2.03158 74.1697 10.0143C74.3939 10.9216 75.323 11.0569 75.9637 10.6987C76.4041 10.452 76.7005 9.98246 76.5483 9.36167C75.0106 3.12196 67.5304 0.885514 61.9082 0.24085C55.4451 -0.49932 47.6605 0.344311 42.3987 4.49085C39.8439 6.49648 37.8176 10.062 38.7307 13.3172C38.3622 13.2137 37.9458 13.2774 37.5934 13.6276C36.5042 14.6941 35.6072 16.0471 35.0066 17.4319C34.0695 19.3659 34.0855 21.5227 34.6542 23.5522C35.1827 26.3299 35.5592 29.1314 35.9516 31.9329C33.3167 33.461 33.1885 37.0424 33.6931 39.7086C34.3738 43.4095 37.0969 46.3065 40.4525 47.8664C41.0292 52.196 42.4788 56.4779 44.8894 60.0434C44.7613 60.2344 44.6892 60.4573 44.6812 60.704C44.6251 62.7892 44.5691 64.8824 44.521 66.9676C36.7525 84.3019 8.06487 78.1895 3.98838 98.5402C2.1063 111.617 1.30544 124.82 0 137.968H2.49875C3.35569 127.9 4.23666 117.832 5.29382 107.788C5.52608 77.5448 33.3167 89.4512 45.5141 70.2784C49.5826 73.4063 54.0916 76.0884 58.7848 78.1975C59.7058 78.5477 60.859 79.4948 61.6439 78.4044C62.4768 79.5744 63.8223 78.3567 64.7433 77.8552C66.8336 76.5898 68.8438 75.1811 70.822 73.7564C73.3368 71.8941 76.0918 70.0795 78.1341 67.6839C81.706 76.9957 85.1418 78.4283 93.6151 82.6067C97.1871 84.5407 100.663 86.6657 104.075 88.8702C106.982 90.7406 110.073 92.6348 112.548 95.0701C112.892 95.6432 113.061 95.882 113.261 96.5346C114.462 100.275 114.734 104.231 115.031 108.123C115.703 118.055 115.599 128.028 115.343 137.968H117.81C118.05 128.831 118.13 119.687 117.642 110.558L117.674 110.574ZM40.5567 11.9005C38.9149 12.7203 38.0899 14.3518 37.273 15.9834C38.098 14.3518 38.9149 12.7203 40.5567 11.9005ZM69.4365 71.7747C66.9537 73.6609 64.2228 75.2766 61.6199 76.9559C61.4597 76.7728 61.2435 76.6296 61.0032 76.5261C56.0057 74.3613 51.2885 71.5439 46.9317 68.2887C47.0838 66.4741 47.0358 64.6356 47.1159 62.8131C54.7643 71.2892 68.5475 70.557 75.0186 61.0144C75.0987 63.0598 75.1788 65.1132 75.2669 67.1586C73.4729 68.8618 71.4307 70.3421 69.4365 71.7747Z" fill="var(--fill-0, #323232)"/>
<path id="Vector_34" d="M8.78301 103.268C8.0462 101.875 5.91585 103.108 6.65266 104.501C8.63885 108.258 10.633 112.006 12.6192 115.763C13.356 117.156 15.4864 115.922 14.7496 114.529C12.7634 110.773 10.7692 107.024 8.78301 103.268Z" fill="var(--fill-0, #323232)"/>
<path id="Vector_35" d="M68.9789 15.7923C68.4503 15.4342 67.8897 15.1318 67.3131 14.8452C64.8383 8.90796 57.9668 6.41685 51.9762 5.76422C51.3114 5.69259 50.7428 6.37706 50.7428 6.98989C50.7428 7.71414 51.3114 8.14392 51.9762 8.21555C56.2849 8.72492 60.7859 10.1655 63.7171 13.532C57.4943 12.0756 50.4385 12.8476 45.2808 16.7713C44.0314 17.7423 45.7854 19.4693 47.0267 18.5063C47.3711 18.2357 47.7395 17.989 48.1079 17.7582C53.2656 14.7895 59.977 14.5348 65.463 16.6996C65.6793 16.9384 65.9676 17.0578 66.2719 17.0817C67.1369 17.3921 68.2261 18.6814 69.083 17.8457C69.6276 17.3523 69.7878 16.3415 68.9869 15.8082L68.9789 15.7923Z" fill="var(--fill-0, #323232)"/>
</g>
</svg>
