<svg preserveAspectRatio="none" width="100%" height="100%" overflow="visible" style="display: block;" viewBox="0 0 109.998 138" fill="none" xmlns="http://www.w3.org/2000/svg">
<g id="Group">
<path id="Vector" d="M73.8281 117.716C74.0737 118.194 74.3108 118.673 74.5563 119.159V117.946C74.2938 117.938 74.0313 117.869 73.8281 117.716Z" fill="var(--fill-0, #6EC878)"/>
<path id="Vector_2" d="M7.42539 88.7701C6.42623 91.3844 6.0198 94.2892 5.63876 97.0659C3.90293 110.334 4.44486 123.816 2.63281 137.067H12.5567C12.091 120.783 10.7447 104.499 10.8717 88.1977C10.9225 86.5061 13.5305 86.5061 13.4797 88.1977C13.3865 104.499 14.7667 120.774 15.1647 137.067H33.5138C29.8812 124.901 26.3164 112.709 22.379 100.637C20.4823 95.9638 22.777 95.9211 26.6043 94.6823C25.9608 93.452 26.4688 91.9312 26.6721 90.6412C27.2817 87.7022 27.8998 84.7717 28.5095 81.8328C24.1487 83.2595 19.644 84.2506 15.3679 85.9422C13.9962 86.4804 13.3103 84.5923 14.2079 83.7038C11.566 84.1224 8.92417 85.4552 7.08672 87.1896C7.47623 87.5655 7.68793 88.155 7.41697 88.7787L7.42539 88.7701Z" fill="var(--fill-0, #E4D8F3)"/>
<path id="Vector_3" d="M52.9405 75.041H52.9576C52.9319 74.9982 52.9148 74.9639 52.9063 74.9382C52.9234 74.9725 52.9319 75.0067 52.9405 75.0324V75.041Z" fill="var(--fill-0, #6EC878)"/>
<path id="Vector_4" d="M68.6926 77.0228C67.4987 73.4943 66.0677 69.8377 62.9686 67.5565C61.3344 66.3177 58.7179 66.5228 56.7619 66.3861C55.7458 66.3177 54.7297 66.2494 53.7051 66.2152C53.1463 66.1981 52.452 66.1127 52.0794 66.6253C51.8084 67.0012 51.8339 67.7189 52.1387 68.0521C52.4689 68.4023 53.341 68.4792 54.0184 68.5818C55.4325 67.4113 57.126 68.0606 58.557 68.8124C61.0719 70.0683 63.6037 71.2986 65.8984 72.9475C66.4742 73.3576 66.7451 74.0838 66.3641 74.7502C66.0338 75.3226 65.1532 75.6302 64.5774 75.2201C62.1981 73.5114 59.5562 72.2469 56.9482 70.9398C56.0507 70.3759 55.4156 70.3076 55.0515 71.5378C57.8796 72.5033 60.9618 74.5366 63.7561 75.8523C65.2463 76.6383 63.9254 78.9024 62.4436 78.1249C59.8526 76.8263 57.3038 75.3568 54.6874 74.1522C54.3656 74.0667 53.9507 74.1265 53.6035 74.1607C53.5527 74.1863 53.5019 74.212 53.4765 74.229C53.341 74.3657 53.1717 74.5964 53.0701 74.8271C53.0447 74.8954 53.0277 74.9723 53.0023 75.0407C53.0023 75.0407 53.0023 75.0407 53.0023 75.0578C56.2284 76.1343 59.1497 78.1676 62.215 79.6798C63.6968 80.4829 62.3759 82.747 60.9025 81.9524C59.7425 81.3202 58.574 80.6965 57.4054 80.0728C55.7797 79.3125 54.264 78.1847 52.5705 77.6294C52.2995 77.5696 51.9439 77.5269 51.7322 77.7319C51.4782 77.9711 51.4274 78.5179 51.3596 78.8596C51.0294 80.7392 50.8177 82.7128 50.75 84.6009C50.7669 84.712 50.8092 84.8316 50.8262 84.9341C50.8685 85.011 50.9109 85.0964 50.9617 85.1733C50.9871 85.2075 51.0379 85.2673 51.0548 85.2929C51.2411 85.4894 51.0125 85.3186 51.2496 85.4382C51.275 85.4467 51.3258 85.4723 51.3596 85.4894C51.402 85.5065 51.4443 85.5151 51.4867 85.5236C51.529 85.5236 51.5714 85.5236 51.6137 85.5236C51.656 85.5236 51.7576 85.498 51.8 85.4809C51.8592 85.4552 51.91 85.4211 51.9693 85.3784C52.5536 84.7718 52.7568 83.8234 53.0447 82.9776C51.2919 81.9866 53.0447 79.7994 54.5942 80.8845C55.4748 81.5765 57.2954 82.4907 57.2954 83.7636C57.2954 84.6095 56.8042 85.5065 56.4909 86.2583C55.8559 87.7791 55.1616 89.2657 54.4926 90.7693C53.2902 93.8877 51.5967 97.1343 51.3851 100.526C51.2072 103.328 52.0879 106.216 52.8245 108.89C53.5528 111.53 54.3741 114.144 55.2716 116.733C55.5426 117.519 55.0769 118.075 54.4757 118.262C59.1836 118.732 63.7476 116.349 67.4056 113.564C67.6934 113.341 68.0237 113.205 68.3539 113.196L67.7104 112.684C67.2701 113.538 65.9915 113.905 65.475 112.812C64.2895 110.308 63.0279 107.728 62.2743 105.046C61.7577 103.209 62.5283 100.851 62.9516 99.0566C64.0524 94.3662 65.5597 89.7441 67.2616 85.2502C67.8289 83.5842 68.6587 82.0122 69.3107 80.3975C69.6833 79.1758 69.1499 78.1164 68.6926 77.0313V77.0228Z" fill="var(--fill-0, white)"/>
<path id="Vector_5" d="M76.3684 80.6196L73.4895 82.8153C73.6165 82.9349 73.7096 83.0802 73.7604 83.2425C73.8451 83.3963 73.879 83.5672 73.8705 83.7466C73.8705 83.926 73.8366 84.0969 73.7604 84.2506C73.7096 84.413 73.6165 84.5582 73.4895 84.6778C72.973 85.0879 72.4564 85.498 71.9484 85.9081C71.7875 86.0704 71.5927 86.1815 71.3726 86.2498C71.254 86.2669 71.144 86.284 71.0254 86.2926C70.5682 86.3011 70.1025 86.0277 69.8993 85.6176C68.2396 89.8125 66.8679 94.1697 65.7586 98.5269C65.3437 100.355 64.7256 102.363 64.7425 104.225C65.259 106.729 66.6393 109.206 67.7146 111.487C67.9178 111.923 67.8755 112.342 67.7062 112.684L68.3497 113.196C68.4428 113.196 68.5445 113.196 68.6376 113.222C68.4683 112.889 68.2989 112.555 68.1295 112.222C67.3675 110.719 69.6198 109.386 70.3819 110.898C71.3895 112.897 72.3972 114.896 73.4048 116.896C74.1923 107.147 75.0221 97.4077 75.7419 87.651C75.8096 86.7112 76.6648 86.2926 77.3761 86.4036L77.5962 82.4309C77.1643 81.8414 76.7579 81.2433 76.3684 80.6196Z" fill="var(--fill-0, white)"/>
<path id="Vector_6" d="M73.7714 75.0236C72.6537 71.4524 71.7223 67.5737 71.7054 63.8145C71.7054 63.1481 72.1033 62.7551 72.586 62.6099C72.3319 61.6103 72.1287 60.5679 72.0271 59.4829C70.4098 62.2083 68.2083 64.5749 65.5156 66.1981C68.7248 69.0773 69.9018 72.8963 71.4005 76.7238C72.5267 79.0134 71.9594 81.4313 70.7316 83.5415L71.6461 82.8068C71.807 82.6445 72.0017 82.5334 72.2219 82.465C72.3404 82.448 72.4505 82.4309 72.5691 82.4223C72.9162 82.4052 73.238 82.5761 73.4835 82.8068L76.3625 80.6111C75.2702 78.8597 74.3811 76.9886 73.763 75.0151L73.7714 75.0236Z" fill="var(--fill-0, white)"/>
<path id="Vector_7" d="M107.249 96.3056C107.147 93.1787 106.927 91.077 104.04 89.3768C101.593 87.6339 99.1795 85.8227 96.8171 83.9687C94.2429 87.8817 88.8322 89.2145 84.4799 87.8475C81.5501 86.9846 79.3655 84.8573 77.5873 82.4309L77.3672 86.4037C77.9261 86.4891 78.3918 86.9077 78.341 87.651C77.6043 97.3394 76.8338 107.028 75.9955 116.708C75.9193 117.571 75.1995 117.981 74.5391 117.955V119.168C77.3672 124.79 80.2038 130.403 83.032 136.025C83.2183 136.4 83.2267 136.768 83.1082 137.084H106.241C106.868 123.508 107.672 109.907 107.241 96.3227L107.249 96.3056ZM88.8492 105.08C86.817 111.957 85.0473 118.92 83.2945 125.875C82.8796 127.515 80.3647 126.815 80.7796 125.174C83.159 116.127 85.2081 106.951 88.4258 98.1595C89.7806 95.3573 81.7534 94.4431 80.1022 93.1616C78.6289 92.35 79.9413 90.0774 81.4147 90.889C83.5654 92.0766 86.1226 92.3756 88.3072 93.529C90.2802 94.5798 91.7874 96.4509 90.9576 98.7918C90.2971 100.663 89.4673 102.961 88.8407 105.071L88.8492 105.08ZM99.0186 97.8434C97.6808 109.095 94.4462 120.116 93.7603 131.445C93.7095 133.137 91.1015 133.137 91.1523 131.445C91.9398 117.536 96.7493 104.055 97.0118 90.103C96.9694 88.4114 99.5775 88.4114 99.6198 90.103C99.6875 92.6917 99.3573 95.2804 99.0186 97.8434Z" fill="var(--fill-0, #E4D8F3)"/>
<path id="Vector_8" d="M80.6563 137.075C81.105 138.417 82.6884 138.195 83.1203 137.075H80.6563Z" fill="var(--fill-0, #323232)"/>
<path id="Vector_9" d="M94.1633 79.0561C94.8661 80.1753 93.2235 81.6362 92.0719 80.6196C70.031 60.9267 95.5859 21.7631 71.6821 5.42784C66.2206 2.1044 59.6498 1.83102 53.7903 4.23175C52.8589 4.61621 52.2492 3.84728 52.2323 3.04419C51.2247 3.39447 50.2932 3.83874 49.4041 4.35135C49.836 5.0092 49.7259 6.11132 48.7521 6.4616C40.437 9.41767 37.846 18.4653 37.5243 26.5304C37.4735 27.7094 36.2033 28.0597 35.4497 27.5983C35.2211 28.6919 34.8401 29.7769 34.3828 30.8705C35.0517 30.6826 35.7546 30.6313 36.4574 30.7082C36.6267 30.6057 36.8384 30.5288 37.0755 30.5202C42.4608 30.3664 44.6031 24.6252 46.8639 20.5926C48.6505 17.4742 50.9029 14.5524 54.256 13.0658C54.9165 12.7667 55.7548 12.8864 56.0765 13.6297C57.3721 13.1598 58.7184 12.9205 60.0732 13.1427C60.268 12.6471 60.7421 12.22 61.2756 12.2883C65.0352 12.7838 68.0496 14.8001 70.031 18.0552C75.0691 26.1374 72.5035 35.9625 73.9853 44.8477C74.4256 47.0605 75.2978 49.6749 77.5586 50.6061C79.0912 51.2383 78.4138 53.7843 76.8642 53.1435C75.8651 52.7335 75.0268 52.1439 74.324 51.4434C74.2393 51.7936 74.1377 52.1354 74.0192 52.4686C74.3579 52.7505 74.5526 53.1948 74.4087 53.7501C73.8837 55.7493 73.0623 57.6972 72.0039 59.4914C72.114 60.585 72.3172 61.6187 72.5628 62.6183C73.3164 62.3962 74.2817 62.7977 74.2901 63.823C74.4087 67.9153 75.4587 71.9735 76.7965 75.8181C78.0074 78.7998 79.921 81.8157 82.4104 83.8747C86.3478 87.1298 93.5283 86.1301 95.4589 81.0467C95.552 80.7904 95.7044 80.6025 95.8823 80.4572C95.3149 79.9959 94.7476 79.526 94.1549 79.0475L94.1633 79.0561Z" fill="var(--fill-0, white)"/>
<path id="Vector_10" d="M71.7144 46.4796C70.2749 40.8836 71.308 35.0826 70.7406 29.4096C70.1648 23.6171 68.048 15.8083 61.2909 14.9112C60.4272 14.8429 59.7075 14.0227 60.0885 13.1342C58.7337 12.912 57.3959 13.1513 56.0919 13.6212C56.3544 14.1936 56.2019 15.0565 55.5838 15.3299C53.7379 16.1501 52.2222 17.423 50.9859 19.0292C47.1332 24.2579 45.372 32.2205 37.8613 33.0577C37.4972 33.5105 36.7944 33.4764 36.2186 33.3055C35.99 33.2799 35.753 33.2713 35.5243 33.2884C35.3465 33.3055 35.1094 33.3653 34.9316 33.4336C34.8046 33.4935 34.6606 33.5789 34.559 33.6643C34.4405 33.7668 34.3219 33.8779 34.2288 34.006C34.0933 34.2026 33.9832 34.4161 33.8732 34.6212C33.7292 35.0313 33.6191 35.4585 33.5429 35.8856C33.3312 38.406 33.8985 40.5077 35.338 42.5581C35.4058 42.635 35.4735 42.729 35.5412 42.8059C36.7521 42.4813 38.1492 42.7547 39.0891 43.6346C39.6649 43.7201 40.1306 44.1729 40.029 44.9162C40.5286 46.0183 40.5116 47.3511 39.9189 48.419C40.537 55.0061 44.2712 61.7469 50.3086 64.7115C51.3924 63.4898 53.1367 63.5069 54.6354 63.6351C57.4043 63.8145 60.351 63.7376 63.0268 64.5578C67.5484 62.2937 70.639 57.9194 71.9176 53.0411C72.1971 51.956 73.391 51.9048 74.043 52.4601C74.1615 52.1269 74.2631 51.7852 74.3478 51.4349C73.0353 50.1277 72.1971 48.3934 71.7059 46.4796H71.7144ZM50.4864 36.2103C48.8098 36.2103 48.8098 33.5789 50.4864 33.5789C52.163 33.5789 52.163 36.2103 50.4864 36.2103ZM57.6838 36.6204C57.8446 35.9027 58.6237 35.5524 59.2841 35.7062C60.9438 36.2445 59.8683 38.2095 59.8175 39.4227C59.6228 40.9605 59.572 42.5069 59.6482 44.0533C59.6821 44.788 59.0216 45.3348 58.3442 45.369C57.616 45.4031 57.0741 44.7367 57.0402 44.0533C56.9217 41.5585 57.1503 39.0553 57.6753 36.6204H57.6838ZM60.4696 55.1855C60.1478 55.7921 59.2587 56.0313 58.6829 55.6554C58.3696 55.4418 58.0394 55.2539 57.6922 55.0915C57.6584 55.0744 57.6414 55.0659 57.6245 55.0574C57.2688 54.9121 56.8963 54.801 56.5152 54.7241C56.4814 54.7241 56.1003 54.6387 56.3036 54.6814C56.5068 54.7241 56.1342 54.6644 56.0919 54.6644C55.6685 54.6302 55.2366 54.6387 54.8133 54.6814C54.6609 54.6985 54.6778 54.6985 54.8556 54.6729C54.483 54.7071 54.0936 54.8267 53.7295 54.9207C52.0698 55.3137 51.3924 52.9044 53.0351 52.3832C55.4229 51.6997 57.9124 52.0073 59.9954 53.3828C60.605 53.7844 60.8082 54.5276 60.4611 55.1855H60.4696ZM67.0658 38.6196C65.3892 38.6196 65.3892 35.9882 67.0658 35.9882C68.7423 35.9882 68.7423 38.6196 67.0658 38.6196Z" fill="var(--fill-0, white)"/>
<path id="Vector_11" d="M40.2163 58.0989C38.8954 55.5956 37.9894 52.9984 37.5745 50.2986C34.1536 51.3067 31.2662 47.2144 33.4169 44.3181C32.7649 43.5236 32.2654 42.635 31.8674 41.6782C31.7573 43.7201 31.571 45.7534 31.3424 47.7953C31.8928 47.8893 32.35 48.2994 32.2908 49.0341C31.7997 55.1599 30.1315 61.2002 28.0739 66.9671C26.5921 71.6404 23.7471 75.8438 23.0781 80.7649C31.1477 78.4581 41.2917 75.4337 42.401 65.6941C42.4772 65.0533 42.909 64.6603 43.4001 64.5065C43.4848 63.9341 43.5356 63.3788 43.5186 62.8405C42.2231 61.4137 41.1139 59.8161 40.2163 58.1159V58.0989Z" fill="var(--fill-0, white)"/>
<path id="Vector_12" d="M39.7716 79.5859C43.7598 82.5932 47.3924 85.9764 51.0757 89.3426C51.516 89.7441 51.5499 90.4362 51.2705 90.9317C51.3805 90.9829 51.4821 91.0428 51.5922 91.1026C52.0241 89.9834 52.5067 88.8898 52.9893 87.7877C51.4906 88.6078 49.5092 87.9073 48.6709 86.4463C48.0274 85.3698 48.129 84.1567 48.2306 82.9606C48.6286 80.5 48.2391 77.0313 50.4491 75.4337C50.2967 74.0838 51.0757 72.5887 52.295 71.9223C52.3458 71.5976 52.4559 71.2815 52.5491 70.9569C50.5931 70.7604 49.179 69.1115 49.3145 67.1208C47.0706 66.1725 45.1484 64.6005 43.5142 62.8234C43.5311 63.3617 43.4804 63.9256 43.3957 64.4894C44.1832 64.2588 45.1146 64.6432 44.996 65.677C44.6573 68.6843 43.6751 71.4695 41.8207 73.8617C40.432 75.6558 38.6793 77.0655 36.7656 78.2274L38.4422 79.603C38.8486 79.3552 39.3821 79.2868 39.7716 79.5773V79.5859Z" fill="var(--fill-0, white)"/>
<path id="Vector_13" d="M50.7963 120.45C50.4999 119.459 51.3128 118.826 52.1087 118.835C52.295 118.408 52.6845 118.083 53.201 118.057C53.0063 117.912 52.8454 117.707 52.7523 117.425C51.7446 114.529 50.8301 111.598 50.0427 108.625C49.3568 106.028 48.6032 103.226 48.7725 100.518C48.9842 97.177 50.4068 94.1697 51.5922 91.094C51.4821 91.0342 51.3805 90.9829 51.2705 90.9231C50.864 91.6835 49.831 91.7604 49.2298 91.1965C45.7073 87.9841 42.2526 84.7205 38.4506 81.8499C37.6632 81.3287 37.5531 80.107 38.4422 79.6029L36.7656 78.2274C36.9688 78.4325 37.1128 78.6973 37.1467 79.0391C39.4837 98.4158 41.2619 117.912 45.0892 137.067H55.7497C54.0986 131.522 52.4474 125.986 50.8048 120.441L50.7963 120.45Z" fill="var(--fill-0, white)"/>
<path id="Vector_14" d="M79.2157 134.222C75.9896 127.814 72.7635 121.415 69.5289 115.007C65.5069 118.749 59.224 121.723 53.6016 120.766C55.2189 126.199 56.8361 131.633 58.4534 137.067H80.6468C80.1726 136.118 79.6899 135.17 79.2157 134.222Z" fill="var(--fill-0, #E4D8F3)"/>
<path id="Vector_15" d="M40.5603 126.61C38.0963 110.958 36.3943 95.1864 34.5823 79.4407C33.4222 80.0131 32.2283 80.5086 31.0344 80.9614C31.1868 81.2519 31.2376 81.6022 31.1699 81.9525C30.5433 84.9683 29.9167 87.9757 29.2816 90.9915C29.0784 91.9826 28.8583 92.9309 28.9599 93.9476C30.3739 93.4862 31.7796 93.0163 33.1936 92.555C34.794 92.0253 35.4713 94.5713 33.8879 95.0924C30.6449 96.1775 27.5881 97.1429 24.3281 98.2621C28.6381 111.086 32.3977 124.106 36.2504 137.084H42.4316C41.7034 133.615 41.1107 130.121 40.5603 126.618V126.61Z" fill="var(--fill-0, #E4D8F3)"/>
<path id="Vector_16" d="M56.8917 54.8181C57.1372 54.8865 57.3828 54.9634 57.6199 55.0659C57.6368 55.0659 57.6538 55.083 57.6876 55.1001C58.0263 55.2624 58.365 55.4504 58.6783 55.6639C59.2541 56.0399 60.1432 55.8007 60.4649 55.1941C62.1161 52.0757 51.2862 50.572 52.1245 54.015C52.3446 54.69 53.022 55.1342 53.7249 54.9377C54.089 54.8438 54.4784 54.7242 54.851 54.69C54.6732 54.7156 54.6562 54.7156 54.8087 54.6985C55.7316 54.6216 56.1974 54.6558 56.8917 54.8352V54.8181Z" fill="var(--fill-0, #323232)"/>
<path id="Vector_17" d="M83.0368 136.016C80.2087 130.394 77.372 124.781 74.5439 119.16C74.2983 118.681 74.0613 118.203 73.8157 117.716C74.0189 117.861 74.2729 117.938 74.5439 117.946C75.2044 117.972 75.9241 117.553 76.0003 116.699C76.8302 107.019 77.6091 97.3309 78.3458 87.6425C78.4051 86.8992 77.9309 86.4891 77.3721 86.3951C76.6608 86.2841 75.8056 86.6941 75.7378 87.6425C75.0181 97.3907 74.1798 107.139 73.4008 116.887C72.3932 114.888 71.3855 112.889 70.3779 110.889C69.6158 109.377 67.3719 110.71 68.1255 112.214C68.2949 112.547 68.4643 112.88 68.6336 113.213C68.5405 113.196 68.4388 113.188 68.3457 113.188C68.0155 113.188 67.6768 113.324 67.3973 113.555C63.7394 116.34 59.1669 118.724 54.4674 118.254C55.0771 118.066 55.5344 117.511 55.2634 116.725C54.3658 114.136 53.5361 111.522 52.8163 108.882C52.0797 106.208 51.199 103.32 51.3768 100.518C51.5885 97.1258 53.2905 93.8793 54.4844 90.7609C55.1449 89.2572 55.8477 87.7707 56.4827 86.2499C56.796 85.4981 57.2871 84.601 57.2871 83.7552C57.2871 82.4907 55.4751 81.568 54.586 80.876C53.028 79.791 51.2752 81.9781 53.0364 82.9692C52.7485 83.8064 52.5369 84.7633 51.9611 85.3699C51.9018 85.4126 51.851 85.4468 51.7917 85.4724C51.7494 85.4895 51.6478 85.5066 51.6055 85.5151C51.5631 85.5151 51.5123 85.5151 51.4784 85.5151C51.4446 85.5151 51.3938 85.498 51.3514 85.481C51.3175 85.4639 51.2667 85.4382 51.2413 85.4297C51.0042 85.3101 51.2413 85.481 51.0466 85.2845C51.0212 85.2588 50.9789 85.199 50.9535 85.1649C50.9027 85.088 50.8603 85.0111 50.818 84.9256C50.801 84.8231 50.7587 84.695 50.7418 84.5925C50.8011 82.7043 51.0127 80.7308 51.3514 78.8512C51.4192 78.5094 51.47 77.9541 51.724 77.7234C51.9357 77.5269 52.2913 77.5697 52.5623 77.6209C54.2558 78.1762 55.7799 79.304 57.3972 80.0644C58.5657 80.688 59.7258 81.3117 60.8943 81.9439C62.3761 82.747 63.6886 80.4745 62.2068 79.6714C59.15 78.1677 56.2202 76.1258 52.9941 75.0493C52.9941 75.0493 52.9941 75.0493 52.9941 75.0322C53.0195 74.9639 53.0365 74.887 53.0619 74.8186C53.1719 74.588 53.3328 74.3573 53.4683 74.2206C53.4937 74.2035 53.5445 74.1693 53.5953 74.1522C53.9425 74.1181 54.3489 74.0583 54.6791 74.1437C57.2956 75.3483 59.8443 76.8178 62.4354 78.1164C63.9172 78.9024 65.2381 76.6299 63.7478 75.8438C60.962 74.5281 57.863 72.4948 55.0433 71.5294C55.4159 70.2991 56.034 70.3674 56.94 70.9313C59.548 72.2385 62.1899 73.5029 64.5692 75.2116C65.145 75.6217 66.0171 75.3142 66.3558 74.7417C66.7369 74.0839 66.4659 73.3577 65.8901 72.939C63.5955 71.2987 61.0636 70.0684 58.5488 68.804C57.1178 68.0521 55.4158 67.4028 54.0102 68.5733C53.3328 68.4708 52.4607 68.3939 52.1305 68.0436C51.8172 67.7104 51.8002 66.9927 52.0712 66.6168C52.4438 66.1042 53.1381 66.1896 53.6969 66.2067C54.713 66.2409 55.7291 66.3093 56.7537 66.3776C58.7097 66.5143 61.3177 66.3007 62.9604 67.5481C66.0595 69.8207 67.499 73.4858 68.6844 77.0143C69.1332 78.0993 69.6666 79.1587 69.3025 80.3805C66.6014 86.3524 64.476 92.649 62.9434 99.0481C62.52 100.851 61.758 103.209 62.266 105.037C63.0196 107.72 64.2813 110.291 65.4668 112.803C65.9833 113.888 67.2703 113.521 67.7022 112.675C67.88 112.333 67.9223 111.915 67.7106 111.479C66.6353 109.198 65.255 106.72 64.7385 104.217C64.7216 102.354 65.3397 100.347 65.7546 98.5184C66.8639 94.1612 68.2356 89.804 69.8953 85.6091C70.0985 86.0192 70.5727 86.3011 71.0214 86.2841C71.14 86.267 71.25 86.2499 71.3686 86.2413C71.5887 86.1815 71.7835 86.0619 71.9444 85.8996C72.4609 85.4895 72.9774 85.0794 73.4855 84.6693C73.6125 84.5497 73.7056 84.413 73.7564 84.2422C73.8411 84.0884 73.875 83.9175 73.8665 83.7381C73.8665 83.5587 73.8326 83.3878 73.7564 83.234C73.7056 83.0717 73.6125 82.9265 73.4855 82.8069C73.2399 82.5762 72.9097 82.4053 72.571 82.4224C72.4524 82.4395 72.3424 82.4565 72.2238 82.4651C72.0037 82.5249 71.8089 82.6445 71.648 82.8069L70.7335 83.5416C71.9528 81.4313 72.5286 79.0135 71.4024 76.7238C69.8952 72.8878 68.7268 69.0774 65.5176 66.1982C68.2187 64.5749 70.4118 62.2084 72.0291 59.483C71.9783 58.9447 71.9444 58.3894 71.9444 57.817C71.9444 58.3894 71.9783 58.9362 72.0291 59.483C73.096 57.6888 73.9173 55.7494 74.4338 53.7417C74.5778 53.1864 74.3831 52.7421 74.0444 52.4602C73.5278 53.904 72.8081 55.2454 72.8081 56.9455C72.8081 55.2454 73.5363 53.904 74.0444 52.4602C73.3924 51.9048 72.1984 51.9646 71.919 53.0411C70.6404 57.9195 67.5498 62.3023 63.0281 64.5578C60.3524 63.7377 57.4057 63.8146 54.6368 63.6351C53.1381 63.507 51.3853 63.4899 50.3099 64.7116C44.2811 61.7555 40.5384 55.0147 39.9203 48.4191C40.513 47.3512 40.5215 46.0184 40.0304 44.9162C40.132 44.1729 39.6663 43.7201 39.0905 43.6347C38.1506 42.7547 36.7535 42.4813 35.5426 42.806C35.4749 42.7291 35.4071 42.6351 35.3394 42.5582C33.8999 40.4992 33.3326 38.406 33.5443 35.8857C33.6205 35.4585 33.7306 35.0313 33.8745 34.6212C33.9846 34.4162 34.0947 34.2026 34.2302 34.0061C34.3318 33.878 34.4419 33.7754 34.5604 33.6644C34.662 33.5789 34.806 33.4935 34.933 33.4337C35.1108 33.3654 35.3563 33.3055 35.5257 33.2885C35.7543 33.2714 35.9914 33.2799 36.22 33.3056C36.7958 33.4764 37.4986 33.5106 37.8627 33.0578C45.3818 32.212 47.1346 24.2665 50.9873 19.0293C52.2236 17.4231 53.7308 16.1501 55.5852 15.3299C56.2033 15.0565 56.3557 14.1936 56.0932 13.6212C53.9848 14.3816 51.995 15.723 50.2253 16.62C51.995 15.7315 53.9933 14.3816 56.0932 13.6212C55.7715 12.8779 54.9332 12.7583 54.2727 13.0574C50.9196 14.5439 48.6672 17.4658 46.8806 20.5842C44.6198 24.6168 42.469 30.358 37.0922 30.5118C36.8466 30.5289 36.6434 30.5972 36.474 30.6998C35.7712 30.6229 35.0684 30.6656 34.3995 30.8621C30.115 32.2974 30.3859 38.1498 31.8593 41.6611C31.9355 40.3198 31.9778 38.987 31.9778 37.6457C31.9778 38.987 31.927 40.3198 31.8593 41.6611C32.2657 42.618 32.7653 43.5066 33.4088 44.3011C31.258 47.1974 34.1455 51.2983 37.5664 50.2816C38.2776 54.8267 40.386 59.3634 43.5105 62.8149C43.4936 62.2938 43.4259 61.7897 43.2734 61.3198C43.4259 61.7897 43.502 62.2938 43.5105 62.8149C45.1447 64.592 47.0669 66.1555 49.3108 67.1123C49.1668 69.103 50.5894 70.7519 52.5454 70.9484C52.4522 71.2645 52.3421 71.5892 52.2913 71.9138C51.072 72.5802 50.293 74.0668 50.4454 75.4252C48.2354 77.0229 48.6249 80.4915 48.2269 82.9521C48.1253 84.1482 48.0237 85.3614 48.6672 86.4379C49.5055 87.9074 51.4869 88.6079 52.9856 87.7792C52.503 88.8728 52.0204 89.9663 51.5885 91.0941C52.249 91.4444 52.8247 91.8715 52.8247 92.8797C52.8247 91.863 52.2405 91.4444 51.5885 91.0941C50.4031 94.1612 48.9805 97.1771 48.7688 100.518C48.5995 103.226 49.3616 106.028 50.039 108.625C50.818 111.59 51.7409 114.529 52.7486 117.425C52.8417 117.707 53.0026 117.912 53.1973 118.057C52.6808 118.083 52.2998 118.408 52.105 118.835C51.3091 118.826 50.4962 119.459 50.7926 120.45C52.4437 125.994 54.0949 131.531 55.7376 137.075H58.4557C56.8384 131.642 55.2211 126.208 53.6038 120.774C59.2262 121.731 65.5091 118.75 69.5312 115.016C73.2399 122.372 76.9402 129.728 80.649 137.075H83.113C83.2316 136.759 83.2316 136.392 83.0368 136.016ZM52.9687 75.0408H52.9518C52.9433 75.0066 52.9349 74.9724 52.9179 74.9468C52.9264 74.9639 52.9518 75.0066 52.9687 75.0493V75.0408ZM37.6764 47.0436C37.6256 47.1375 37.5748 47.2315 37.5155 47.317C37.4393 47.4024 37.3631 47.4793 37.2869 47.5476C37.2022 47.6074 37.1176 47.6587 37.0244 47.7014C36.9143 47.7356 36.8127 47.7698 36.6942 47.7954C36.5841 47.7954 36.4741 47.7954 36.364 47.7954C36.2539 47.7698 36.1438 47.7441 36.0337 47.71C35.9406 47.6587 35.8474 47.6074 35.7628 47.5476C35.6781 47.4707 35.6019 47.3939 35.5341 47.317C35.4749 47.2315 35.4241 47.1461 35.3817 47.0521C35.3479 46.9411 35.314 46.8385 35.2886 46.7189C35.2886 46.6078 35.2886 46.4968 35.2886 46.3857C35.314 46.2747 35.3394 46.1636 35.3817 46.0525C35.4325 45.95 35.4918 45.8475 35.5596 45.745C35.6188 45.6766 35.6866 45.6168 35.7543 45.557C35.839 45.4972 35.9321 45.4459 36.0253 45.3947C36.1353 45.3605 36.237 45.3263 36.3555 45.3007C36.4656 45.3007 36.5756 45.3007 36.6857 45.3007C36.7958 45.3263 36.9059 45.3519 37.0159 45.3861C37.1091 45.4374 37.2022 45.4886 37.2869 45.5484C37.3716 45.6253 37.4478 45.7022 37.5155 45.7791C37.5748 45.8646 37.6256 45.95 37.668 46.044C37.7018 46.155 37.7357 46.2576 37.7611 46.3772C37.7611 46.4882 37.7611 46.5993 37.7611 46.7104C37.7357 46.8215 37.7103 46.9325 37.6764 47.0436Z" fill="var(--fill-0, #323232)"/>
<path id="Vector_18" d="M109.485 92.5037C108.816 89.129 106.03 87.6168 103.507 85.7629C101.653 84.4301 99.866 82.9862 98.0201 81.6535C98.4096 80.389 96.7923 79.7482 95.9033 80.4659C98.0117 82.2002 99.9846 83.8064 102.355 85.0025C99.9846 83.8064 98.0201 82.2002 95.9033 80.4659C95.7254 80.6111 95.5815 80.7991 95.4799 81.0554C93.5578 86.1388 86.3688 87.1299 82.4314 83.8833C79.942 81.8243 78.0283 78.8084 76.8175 75.8268C75.4796 71.9822 74.4381 67.924 74.3111 63.8316C74.3111 62.7978 73.3458 62.4048 72.5837 62.627C73.168 64.9594 74.0147 67.0952 74.5482 69.2311C74.0232 67.0952 73.168 64.9594 72.5837 62.627C72.1011 62.7722 71.7031 63.1738 71.7031 63.8316C71.9148 69.6241 73.3628 75.6559 76.3687 80.6282C76.7582 81.2519 77.1646 81.8499 77.5965 82.4394C79.3746 84.8658 81.5593 86.9932 84.489 87.856C88.8413 89.223 94.2521 87.8902 96.8262 83.9773C99.1971 85.8312 101.602 87.6425 104.049 89.3854C105.624 90.3593 106.919 91.7519 107.046 93.7084C107.969 108.147 106.835 122.645 106.251 137.075H108.859C109.443 125.636 109.942 114.179 109.985 102.713C109.985 99.3642 110.129 95.8101 109.477 92.5037H109.485Z" fill="var(--fill-0, #323232)"/>
<path id="Vector_19" d="M97.0165 90.1115C96.754 104.055 91.9445 117.545 91.157 131.454C91.1062 133.145 93.7142 133.145 93.765 131.454C93.9174 126.302 95.0182 121.142 95.9327 116.084C97.3637 107.472 99.4805 98.8772 99.6245 90.1201C99.5821 88.4285 96.9741 88.4285 97.0165 90.1201V90.1115Z" fill="var(--fill-0, #323232)"/>
<path id="Vector_20" d="M88.3228 93.546C86.1382 92.3841 83.581 92.0851 81.4302 90.9061C79.9569 90.0944 78.636 92.367 80.1178 93.1787C81.7605 94.4516 89.7961 95.3744 88.4413 98.1766C85.2237 106.968 83.1745 116.144 80.7952 125.191C80.3802 126.832 82.8951 127.532 83.31 125.892C85.0627 118.937 86.8325 111.974 88.8647 105.097C89.4913 102.987 90.3211 100.688 90.9816 98.8174C91.8114 96.4765 90.3042 94.6054 88.3312 93.5546L88.3228 93.546Z" fill="var(--fill-0, #323232)"/>
<path id="Vector_21" d="M13.4914 88.2063C13.5422 86.5147 10.9342 86.5147 10.8834 88.2063C10.7564 104.507 12.1027 120.783 12.5684 137.075H15.1764C14.7785 120.783 13.3983 104.507 13.4914 88.2063Z" fill="var(--fill-0, #323232)"/>
<path id="Vector_22" d="M5.1821 87.4459C2.93822 93.2128 2.81968 99.5692 2.22696 105.669C1.33787 116.101 1.56649 126.729 0 137.075H2.64186C4.98735 121.295 3.23458 104.917 7.19737 89.3938C7.56994 88.5138 7.75623 87.8218 7.09577 87.1896C6.64699 87.6082 6.249 88.0439 5.9103 88.5053C6.249 88.0525 6.64699 87.6082 7.09577 87.1896C6.52845 86.6343 5.5716 86.5317 5.17363 87.4459H5.1821Z" fill="var(--fill-0, #323232)"/>
<path id="Vector_23" d="M51.0713 89.334C47.3795 85.9764 43.7469 82.5846 39.7672 79.5773C39.3861 79.2868 38.8442 79.3552 38.4378 79.6029C37.5487 80.107 37.6588 81.3287 38.4462 81.8498C42.2481 84.7205 45.7029 87.9841 49.2253 91.1965C49.8181 91.7604 50.8596 91.6835 51.266 90.9231C50.885 90.7351 50.504 90.5386 50.2161 90.2482C50.504 90.5386 50.885 90.7266 51.266 90.9231C51.5455 90.4276 51.5116 89.7355 51.0713 89.334Z" fill="var(--fill-0, #323232)"/>
<path id="Vector_24" d="M41.5421 115.477C40.399 107.122 39.3998 98.749 38.4345 90.3678C37.9942 86.5915 37.5708 82.8153 37.139 79.0476C37.0967 78.7059 36.9527 78.4325 36.7579 78.236C38.6716 77.0741 40.4159 75.6644 41.813 73.8702C43.6674 71.478 44.6496 68.6928 44.9883 65.6855C45.1069 64.6517 44.167 64.2673 43.388 64.4979C42.8969 64.6432 42.4566 65.0362 42.3889 65.6855C41.2796 75.4252 31.1355 78.4496 23.066 80.7563C23.7349 75.8352 26.58 71.6404 28.0618 66.9585C30.1194 61.1916 31.7875 55.1599 32.2787 49.0256C32.3379 48.2909 31.8807 47.8808 31.3303 47.7868C31.017 50.5463 30.6359 53.3059 30.238 56.0655C30.6275 53.3059 31.017 50.5463 31.3303 47.7868C30.619 47.6586 29.7469 48.0773 29.6707 49.0256C29.1711 55.2538 27.3421 61.4223 25.1829 67.249C23.5656 71.9565 20.458 76.3479 20.475 81.4911C18.392 82.1831 16.1227 82.6188 14.2175 83.7038C15.8602 83.4475 17.4944 83.533 18.9423 84.1139C17.4944 83.533 15.8517 83.439 14.2175 83.7038C13.3199 84.5838 14.0058 86.4805 15.3775 85.9422C19.6536 84.2592 24.1583 83.2681 28.5191 81.8328C27.9094 84.7718 27.2913 87.7022 26.6816 90.6412C26.4699 91.9398 25.9704 93.452 26.6139 94.6823C22.8035 95.904 20.4834 95.9638 22.3886 100.637C26.326 112.709 29.8908 124.901 33.5234 137.067H36.2414C32.3887 124.089 28.6376 111.077 24.3192 98.2449C27.5792 97.1172 30.6359 96.1518 33.879 95.0753C35.4624 94.5541 34.785 92.0082 33.1847 92.5379C31.7706 92.9992 30.365 93.4691 28.9509 93.9305C28.8324 91.9142 29.5606 89.9748 29.8908 88.0012C30.3142 85.9764 30.7376 83.9601 31.1525 81.9353C31.2202 81.5936 31.1778 81.2433 31.017 80.9443C32.2193 80.4915 33.4133 79.9959 34.5648 79.4235C36.8511 98.6721 38.697 118.015 42.4142 137.058H45.073C43.5404 129.933 42.5243 122.688 41.5421 115.46V115.477Z" fill="var(--fill-0, #323232)"/>
<path id="Vector_25" d="M37.7694 46.3771C37.744 46.266 37.7186 46.1549 37.6762 46.0439C37.6339 45.9499 37.5831 45.8645 37.5238 45.779C37.4476 45.6936 37.3714 45.6167 37.2952 45.5484C37.2105 45.4886 37.1174 45.4373 37.0242 45.386C36.9141 45.3519 36.8041 45.3177 36.694 45.3006C36.5839 45.3006 36.4739 45.3006 36.3638 45.3006C36.2537 45.3262 36.1436 45.3519 36.0335 45.3946C35.9404 45.4459 35.8473 45.4971 35.7626 45.5569C35.6948 45.6167 35.6271 45.6765 35.5678 45.7449C35.5001 45.8389 35.4408 45.9499 35.39 46.0524C35.3561 46.1635 35.3223 46.2746 35.2969 46.3856C35.2969 46.4967 35.2969 46.6078 35.2969 46.7188C35.3223 46.8299 35.3477 46.941 35.39 47.052C35.4323 47.146 35.4831 47.2315 35.5424 47.3169C35.6186 47.4023 35.6948 47.4792 35.7711 47.5476C35.8557 47.6074 35.9489 47.6586 36.042 47.7099C36.1521 47.7441 36.2621 47.7782 36.3722 47.7953C36.4823 47.7953 36.5924 47.7953 36.7025 47.7953C36.8125 47.7697 36.9226 47.744 37.0327 47.7013C37.1258 47.6586 37.2105 47.6074 37.2952 47.5476C37.3799 47.4707 37.4561 47.3938 37.5238 47.3169C37.5831 47.2315 37.6339 47.1375 37.6847 47.0435C37.7186 46.9324 37.7524 46.8214 37.7694 46.7103C37.7694 46.5992 37.7694 46.4882 37.7694 46.3771Z" fill="var(--fill-0, white)"/>
<path id="Vector_26" d="M67.0621 38.6196C68.7387 38.6196 68.7387 35.9882 67.0621 35.9882C65.3856 35.9882 65.3856 38.6196 67.0621 38.6196Z" fill="var(--fill-0, #323232)"/>
<path id="Vector_27" d="M59.7849 39.6704C59.7849 39.6704 59.8103 39.4654 59.8188 39.4141C59.8696 38.2009 60.945 36.2359 59.2853 35.6976C58.6249 35.5439 57.8374 35.8941 57.685 36.6203C57.1516 39.0552 56.9229 41.5585 57.0499 44.0532C57.1431 45.8047 59.5902 45.7705 59.6579 44.0532C59.5902 42.5923 59.6325 41.1313 59.7934 39.6789L59.7849 39.6704Z" fill="var(--fill-0, #323232)"/>
<path id="Vector_28" d="M50.4842 36.2103C52.1607 36.2103 52.1607 33.5789 50.4842 33.5789C48.8076 33.5789 48.8076 36.2103 50.4842 36.2103Z" fill="var(--fill-0, #323232)"/>
<path id="Vector_29" d="M45.0147 7.85434C46.4372 6.41903 47.8598 5.2571 49.4178 4.35148C49.1553 3.94994 48.6811 3.71072 48.0799 3.92431C43.626 5.50486 40.112 8.67452 37.9952 12.9292C35.9037 17.1326 35.1247 21.8657 34.9384 26.5305C34.9215 27.0431 35.1416 27.402 35.4718 27.5985C35.7428 26.2742 35.7936 24.95 35.4634 23.6343C35.7936 24.9585 35.7512 26.2828 35.4718 27.5985C36.217 28.0598 37.4956 27.701 37.5464 26.5305C37.8681 18.4569 40.4592 9.41781 48.7743 6.46174C49.748 6.11145 49.8581 5.00934 49.4263 4.35148C47.8683 5.26564 46.4457 6.42757 45.0232 7.85434H45.0147Z" fill="var(--fill-0, #323232)"/>
<path id="Vector_30" d="M94.1727 79.0562C93.724 78.6973 93.2752 78.3385 92.801 77.9797C93.2752 78.3385 93.7324 78.6973 94.1727 79.0562C83.7916 69.8035 84.2573 54.8181 85.2734 42.0199C86.0101 28.7774 86.1117 12.0235 73.9015 3.71921C67.788 -0.441499 59.9132 -1.09936 53.1138 1.68584C52.5042 1.9336 52.2417 2.49746 52.2502 3.03571C52.7159 2.87338 53.1985 2.71961 53.7066 2.59145C53.207 2.71961 52.7244 2.87338 52.2502 3.03571C52.2587 3.8388 52.8683 4.60773 53.8082 4.22327C59.6677 1.82254 66.2385 2.09593 71.7 5.41936C95.6038 21.729 70.0573 60.9439 92.0898 80.6111C93.2414 81.6363 94.8756 80.1668 94.1812 79.0476L94.1727 79.0562Z" fill="var(--fill-0, #323232)"/>
<path id="Vector_31" d="M77.5797 50.5976C72.9564 48.4019 73.5576 40.2257 73.4729 35.8344C73.7693 26.8465 72.1689 13.7151 61.2881 12.2798C60.7462 12.2115 60.2805 12.6386 60.0858 13.1342C60.8479 13.2623 61.6184 13.5272 62.389 13.9885C61.6184 13.5272 60.8479 13.2538 60.0858 13.1342C59.7132 14.0312 60.4245 14.8343 61.2881 14.9112C68.0452 15.8083 70.1536 23.6171 70.7379 29.4096C71.6185 36.6033 69.1206 45.5313 74.3535 51.4349C74.4636 50.9564 74.5483 50.4694 74.5483 49.9312C74.5483 50.4609 74.4636 50.9564 74.3535 51.4349C75.0563 52.1354 75.8946 52.7249 76.8938 53.135C78.4433 53.7758 79.1207 51.2298 77.5881 50.5976H77.5797Z" fill="var(--fill-0, #323232)"/>
</g>
</svg>
