<svg preserveAspectRatio="none" width="100%" height="100%" overflow="visible" style="display: block;" viewBox="0 0 152.002 143" fill="none" xmlns="http://www.w3.org/2000/svg">
<g id="Group">
<path id="Vector" d="M21.355 114.515C21.282 114.527 21.1787 114.545 21.355 114.515Z" fill="var(--fill-0, #BDA6DA)"/>
<path id="Vector_2" d="M26.2501 87.9349C25.296 86.9298 24.3783 85.8944 23.4424 84.8773C22.4821 83.8298 21.5219 82.7823 20.5617 81.7349C19.8689 80.9781 19.1639 79.979 18.2037 79.5492C16.1799 78.6349 15.0678 81.7591 14.5938 83.1214C16.581 84.2839 18.4468 85.6462 20.2518 87.069C21.1694 87.7895 22.081 88.5282 23.0048 89.2487C23.6186 89.727 24.2446 90.2054 24.8705 90.6716C25.4904 91.1378 26.1286 91.5495 26.5783 92.1913C26.6573 92.3003 26.7181 92.4093 26.7849 92.5243C27.3015 92.5304 27.8241 92.2216 28.1888 91.7493C28.6932 91.1015 28.6203 90.6837 28.1766 90.0177C27.654 89.2366 26.9065 88.619 26.2623 87.9409L26.2501 87.9349Z" fill="var(--fill-0, white)"/>
<path id="Vector_3" d="M27.3828 54.4528C27.6016 54.5257 27.4557 54.4953 27.3828 54.4528Z" fill="var(--fill-0, #BDA6DA)"/>
<path id="Vector_4" d="M30.3267 67.9184C30.1322 66.4592 30.8433 65.1272 31.8339 64.0676C32.2654 62.4752 32.6969 60.8828 33.1223 59.2905C33.098 59.2844 33.0676 59.2723 33.0433 59.2662C32.0284 58.9817 31.0135 58.6971 30.0046 58.4125C30.0472 58.6366 30.0532 58.8666 30.0046 59.0907L29.8345 59.8112C29.4333 61.5246 29.0262 63.2441 28.6251 64.9576C28.5643 65.224 28.4245 65.4359 28.2422 65.6115C28.9775 66.3684 29.6825 67.1555 30.3449 67.9789C30.3449 67.9607 30.3328 67.9365 30.3328 67.9184H30.3267Z" fill="var(--fill-0, #BDA6DA)"/>
<path id="Vector_5" d="M26.9926 54.1984C27.0291 54.2105 27.2722 54.3861 27.3633 54.4406C27.4362 54.4588 27.5213 54.483 27.5821 54.5132C27.6003 54.5254 27.6307 54.5314 27.655 54.5314C27.6976 54.5314 27.728 54.5314 27.7462 54.5375C27.7827 54.5375 27.813 54.5375 27.8495 54.5375C27.971 54.5375 28.3843 54.4648 27.9346 54.5556C28.0318 54.5375 28.1351 54.5193 28.2324 54.4951C28.3175 54.4709 28.6578 54.3377 28.6882 54.3377C28.8583 54.2529 29.0285 54.1681 29.1926 54.0652C29.2473 54.0289 29.5208 53.8351 29.5694 53.8109C31.7755 52.0914 33.1672 49.4879 34.3826 46.951C36.1572 43.2576 37.3545 39.2918 38.2418 35.3018C39.2324 30.7426 39.8097 26.0382 39.518 21.364C39.4147 19.7232 39.202 18.1187 38.7036 16.5384C38.6064 16.2175 38.4909 15.8966 38.3633 15.5878C38.3451 15.5515 38.2114 15.2669 38.1931 15.2306C38.1324 15.1095 38.0655 14.9945 37.9987 14.8734C37.8893 14.6857 37.7677 14.504 37.6401 14.3284C37.5915 14.274 37.4699 14.1286 37.4395 14.0984C37.3605 14.0197 37.2815 13.947 37.1965 13.8683C37.1782 13.8501 37.1661 13.838 37.16 13.8259C37.1418 13.8138 37.1174 13.8017 37.081 13.7835C36.9898 13.7351 36.9047 13.6806 36.8136 13.6322C36.8136 13.6322 36.8136 13.6322 36.8075 13.6322C36.7224 13.6079 36.5948 13.5898 36.5158 13.5534C36.4307 13.5534 36.3274 13.5534 36.2484 13.5474C36.218 13.5474 36.1755 13.5474 36.1329 13.5534C36.1268 13.5534 36.1208 13.5534 36.1147 13.5534C36.0782 13.5595 36.0418 13.5656 36.0114 13.5716C35.9081 13.6019 35.507 13.7533 35.513 13.7351C35.3368 13.8199 35.1666 13.9107 35.0025 14.0136C34.8992 14.0802 34.7959 14.1529 34.6926 14.2195C34.6622 14.2437 34.644 14.2558 34.6257 14.2679C34.6136 14.28 34.6075 14.2861 34.5893 14.2982C34.3705 14.4738 34.1639 14.6615 33.9633 14.8552C31.8849 16.8593 30.4506 19.6384 29.2534 22.3569C27.5517 26.2137 26.4092 30.343 25.613 34.4663C24.8534 38.4139 24.4462 42.4705 24.671 46.4908C24.7561 48.0469 24.9445 49.5484 25.3578 51.0621C25.4429 51.3769 25.5401 51.6857 25.6495 51.9884C25.6981 52.1338 25.7528 52.273 25.8075 52.4183C25.8197 52.4547 25.8257 52.4728 25.8379 52.491C25.8501 52.5152 25.8622 52.5455 25.8865 52.5879C26.002 52.83 26.1296 53.0722 26.2694 53.3084C26.3362 53.4173 26.4092 53.5203 26.476 53.6293C26.4882 53.6474 26.5307 53.7019 26.5672 53.7504C26.7009 53.9017 26.8407 54.041 26.9926 54.1802V54.1984ZM29.6666 31.3784C30.718 27.4731 31.976 23.4347 34.0119 19.9108C34.9843 18.2216 37.6097 19.7474 36.6373 21.4366C34.7351 24.7364 33.5926 28.4903 32.602 32.1776C31.6357 35.762 30.7423 39.4008 30.797 43.0639C30.8274 45.0135 27.7887 45.0074 27.7583 43.0639C27.6976 39.1465 28.6578 35.1323 29.6666 31.3723V31.3784Z" fill="var(--fill-0, white)"/>
<path id="Vector_6" d="M27.5703 54.5311C27.6068 54.5311 27.6372 54.5311 27.6736 54.5311C27.6432 54.5311 27.6189 54.5311 27.5764 54.5311H27.5703Z" fill="var(--fill-0, #BDA6DA)"/>
<path id="Vector_7" d="M27.757 54.5376C27.757 54.5376 27.7023 54.5376 27.6719 54.5376C27.763 54.5558 27.8481 54.5498 27.757 54.5376Z" fill="var(--fill-0, #BDA6DA)"/>
<path id="Vector_8" d="M36.2682 13.5352C36.2257 13.5412 36.1832 13.5534 36.1406 13.5595C36.171 13.5534 36.2136 13.5473 36.2622 13.5352H36.2682Z" fill="var(--fill-0, #BDA6DA)"/>
<path id="Vector_9" d="M19.4766 72.459C19.4826 72.459 19.4826 72.459 19.4766 72.459Z" fill="var(--fill-0, #BDA6DA)"/>
<path id="Vector_10" d="M29.4505 81.868C28.5268 80.984 27.6091 80.094 26.6975 79.1979C25.0931 77.6237 23.5859 75.9526 21.9875 74.3784C21.2704 73.676 20.5715 73.0645 19.7268 72.562C19.6964 72.5438 19.6417 72.5135 19.5991 72.4893C19.6356 72.562 19.666 72.6286 19.7025 72.6952C19.666 72.6225 19.6356 72.5559 19.5991 72.4893C19.5687 72.4772 19.5323 72.4711 19.4837 72.459C19.3682 72.5256 19.2588 72.5801 19.1433 72.6528C18.645 72.9676 18.0251 73.5186 17.6422 74.1059C17.1925 74.8022 16.9433 75.559 17.0467 76.4188C17.1439 76.4067 17.2411 76.3885 17.3444 76.3824C20.061 76.2008 21.8781 78.6832 23.5069 80.4633C25.0505 82.1465 26.5638 83.8781 28.15 85.525C28.235 85.4463 28.3323 85.3736 28.4295 85.307C28.7881 85.0648 29.1892 84.8953 29.566 84.6834C29.6814 84.6168 29.9549 84.4594 30.0157 84.423C30.0461 84.3928 30.1676 84.2898 30.198 84.2596C30.198 84.2596 30.2041 84.2535 30.2041 84.2475C30.5627 83.4059 30.1494 82.54 29.4444 81.868H29.4505Z" fill="var(--fill-0, white)"/>
<path id="Vector_11" d="M11.4609 85.1196C11.4609 85.1196 11.4245 85.1196 11.4063 85.1196C11.4245 85.1196 11.4427 85.1196 11.4549 85.1196H11.4609Z" fill="var(--fill-0, #BDA6DA)"/>
<path id="Vector_12" d="M30.1924 84.2661C30.1499 84.333 30.0648 84.4059 30.1924 84.2661Z" fill="var(--fill-0, #BDA6DA)"/>
<path id="Vector_13" d="M19.5625 72.4166C19.5625 72.4166 19.5625 72.4166 19.5625 72.4227C19.5868 72.4166 19.5929 72.4105 19.5625 72.4166Z" fill="var(--fill-0, #BDA6DA)"/>
<path id="Vector_14" d="M19.5156 72.4347C19.5156 72.4347 19.546 72.4287 19.5582 72.4226C19.5582 72.4226 19.5582 72.4226 19.5582 72.4165C19.5521 72.4165 19.5521 72.4165 19.5399 72.4165C19.5339 72.4165 19.5278 72.4226 19.5217 72.4287L19.5156 72.4347Z" fill="var(--fill-0, #BDA6DA)"/>
<path id="Vector_15" d="M30.2031 87.075C30.2031 87.075 30.2031 87.0689 30.2031 87.0628C30.2031 87.0446 30.2031 87.0446 30.2031 87.075Z" fill="var(--fill-0, #BDA6DA)"/>
<path id="Vector_16" d="M17.303 63.0806C17.303 63.0806 17.303 63.0866 17.2969 63.0927C17.2969 63.0927 17.2969 63.0927 17.303 63.0866V63.0806Z" fill="var(--fill-0, #BDA6DA)"/>
<path id="Vector_17" d="M36.128 13.5654C36.128 13.5654 36.1401 13.5654 36.1462 13.5654C36.0611 13.5775 36.0003 13.5958 36.128 13.5654Z" fill="var(--fill-0, #BDA6DA)"/>
<path id="Vector_18" d="M18.2813 61.5122C18.2813 61.5122 18.2873 61.5122 18.2934 61.5122C18.2934 61.5122 18.2934 61.5122 18.2873 61.5122H18.2813Z" fill="var(--fill-0, #BDA6DA)"/>
<path id="Vector_19" d="M42.6093 22.1392C42.7977 26.8195 42.1778 31.5421 41.1811 36.1134C40.9137 37.3183 40.6159 38.5171 40.2817 39.7038C39.1513 43.7241 37.6502 47.7505 35.4867 51.3409C34.5447 52.8969 33.3961 54.5741 31.9375 55.8153C32.6911 56.0272 33.4386 56.2391 34.1922 56.451C34.8789 56.6448 35.59 56.8082 36.2646 57.0323C36.295 57.0444 36.3314 57.0444 36.3618 57.0625C36.4287 57.0625 36.5137 57.0625 36.5806 57.0686C36.7021 57.0746 37.0546 56.9959 36.6171 57.0867C36.6839 57.0746 36.7508 57.0686 36.8176 57.0504C36.9878 57.002 37.1519 56.9535 37.322 56.8991C37.322 56.8991 37.3281 56.8991 37.3342 56.8991C37.3463 56.893 37.3524 56.8869 37.3646 56.8809C37.4679 56.8264 37.5712 56.778 37.6745 56.7174C37.8143 56.6387 37.9541 56.5479 38.0878 56.4571C38.0878 56.4571 38.1789 56.3965 38.2397 56.3481C38.3005 56.2996 38.4099 56.2149 38.4038 56.2209C38.5618 56.0877 38.7198 55.9485 38.8718 55.8032C39.6314 55.0827 40.1662 54.4045 40.7193 53.6053C42.2447 51.3893 43.4237 48.9251 44.3839 46.4124C46.7723 40.1761 48.1944 33.413 48.2734 26.7287C48.3038 24.1918 48.1701 21.6549 47.4408 19.2209C47.143 18.234 46.985 17.8404 46.4137 16.9685C46.3894 16.9383 46.28 16.799 46.2679 16.7809C46.2496 16.7566 46.2314 16.7324 46.2071 16.7143C46.1099 16.6174 46.0126 16.5266 45.9093 16.4297C45.8668 16.4055 45.6966 16.2783 45.6358 16.2359C45.5872 16.2057 45.5386 16.1814 45.4839 16.1572C44.1347 15.7879 42.7916 15.4125 41.4425 15.0371C42.2933 17.2773 42.4999 19.8687 42.5911 22.1332L42.6093 22.1392Z" fill="var(--fill-0, #BDA6DA)"/>
<path id="Vector_20" d="M18.2285 61.5006C18.1738 61.5188 18.1738 61.5006 18.2285 61.5006Z" fill="var(--fill-0, #BDA6DA)"/>
<path id="Vector_21" d="M68.1259 94.662C68.1259 94.662 68.1137 94.6863 68.1016 94.6984C68.1016 94.6984 68.1016 94.7045 68.1016 94.7106C68.1137 94.6924 68.1198 94.6741 68.1319 94.662H68.1259Z" fill="var(--fill-0, #BDA6DA)"/>
<path id="Vector_22" d="M57.967 33.4191C57.967 33.4191 57.9245 33.4495 57.9063 33.4617C57.9609 33.4617 58.1372 33.2733 57.967 33.4191Z" fill="var(--fill-0, #BDA6DA)"/>
<path id="Vector_23" d="M104.742 70.3764C104.809 70.2913 104.785 70.3156 104.742 70.3764Z" fill="var(--fill-0, #BDA6DA)"/>
<path id="Vector_24" d="M58.2969 33.2251C58.2969 33.2251 58.3333 33.2129 58.3576 33.2068C58.4306 33.1764 58.4549 33.1461 58.2969 33.2251Z" fill="var(--fill-0, #BDA6DA)"/>
<path id="Vector_25" d="M58.2891 33.2251C58.2891 33.2251 58.2526 33.2373 58.2344 33.2373C58.2465 33.2373 58.2587 33.2373 58.2708 33.2373C58.2708 33.2373 58.283 33.2373 58.283 33.2312L58.2891 33.2251Z" fill="var(--fill-0, #BDA6DA)"/>
<path id="Vector_26" d="M67.8281 95.086C67.9314 95.0191 67.9314 94.9948 67.9011 95.007C67.8767 95.0313 67.8464 95.0617 67.8281 95.086Z" fill="var(--fill-0, #BDA6DA)"/>
<path id="Vector_27" d="M68.2969 93.8929C68.309 93.7896 68.303 93.7471 68.2969 93.8929Z" fill="var(--fill-0, #BDA6DA)"/>
<path id="Vector_28" d="M67.8255 95.0854C67.8255 95.0854 67.8194 95.0854 67.8134 95.0854C67.8073 95.0976 67.7951 95.1098 67.7891 95.128C67.7891 95.1158 67.8073 95.1037 67.8255 95.0794V95.0854Z" fill="var(--fill-0, #BDA6DA)"/>
<path id="Vector_29" d="M68.0964 94.71C68.0964 94.71 68.06 94.7647 68.0478 94.795C68.0417 94.8194 68.066 94.795 68.0964 94.71Z" fill="var(--fill-0, #BDA6DA)"/>
<path id="Vector_30" d="M117.698 117.107C116.094 120.727 114.489 124.354 112.885 127.975C110.715 132.873 108.546 137.771 106.376 142.675H148.948C148.261 136.821 147.119 131.05 145.818 125.298C144.712 120.424 143.886 115.205 141.06 110.973C139.978 109.357 138.489 107.873 136.83 106.753C134.49 105.173 131.84 104.065 129.367 102.721C125.386 100.553 121.551 98.1554 117.935 95.4187C114.854 93.0816 111.876 90.575 108.85 88.3348C108.765 88.2742 108.686 88.2016 108.613 88.1289C107.622 91.5014 106.394 94.8133 105.191 98.1191C103.374 103.114 101.496 108.091 99.5938 113.056C97.6005 118.269 95.5889 123.47 93.559 128.671C91.9668 132.752 90.3623 136.833 88.7518 140.907C88.5209 141.501 88.2839 142.088 88.0469 142.681H103.07C103.903 140.792 104.741 138.909 105.574 137.02C108.771 129.797 111.967 122.574 115.17 115.351C115.614 114.346 116.057 113.341 116.501 112.342C116.574 112.178 116.659 112.009 116.726 111.839C116.714 111.778 116.72 111.651 116.714 111.651C116.55 111.464 116.513 111.276 116.142 111.143C114.732 110.622 113.189 110.331 111.736 109.932C110.363 109.556 108.983 109.175 107.61 108.8C105.726 108.279 106.528 105.36 108.418 105.881C110.132 106.353 111.846 106.82 113.56 107.292C113.614 107.31 113.675 107.322 113.736 107.34C113.748 107.026 113.754 106.711 113.766 106.396C113.876 102.902 113.991 99.4087 114.1 95.9152C114.125 95.0978 114.775 94.4015 115.62 94.4015C116.465 94.4015 117.163 95.0978 117.139 95.9152C117.121 96.4177 117.109 96.9203 117.091 97.4228C116.981 100.916 116.866 104.41 116.756 107.903C116.756 107.982 116.738 108.061 116.726 108.134C117.777 108.509 118.725 109.048 119.278 109.986C120.068 111.324 119.667 112.638 119.102 113.916C118.628 114.981 118.154 116.053 117.686 117.119L117.698 117.107Z" fill="var(--fill-0, #BDA6DA)"/>
<path id="Vector_31" d="M57.3928 113.219C58.4381 106.759 60.4011 100.456 62.3702 94.2076C61.5315 94.7041 60.6867 95.1824 59.8359 95.6426C59.0762 96.0543 58.3166 96.4539 57.5508 96.8475C56.6818 98.5791 55.837 100.323 55.0227 102.073C54.026 104.204 53.0293 106.226 52.2514 108.388C53.1691 108.145 54.0867 107.903 55.0044 107.655C56.8945 107.134 57.6967 110.059 55.8127 110.573C54.2691 110.997 52.7254 111.421 51.1757 111.845C50.1972 112.111 49.2188 112.384 48.2403 112.65C47.8514 112.759 47.1464 112.838 46.8729 113.135C46.5691 113.455 46.8729 114.212 47.0006 114.751C47.2619 115.865 47.5293 116.979 47.7906 118.093L50.3492 128.937C51.4309 133.515 52.5127 138.092 53.5945 142.675H59.8055C58.9547 138.903 58.1525 135.119 57.563 131.299C56.6271 125.25 56.4205 119.274 57.3989 113.219H57.3928Z" fill="var(--fill-0, #BDA6DA)"/>
<path id="Vector_32" d="M28.9263 142.675C28.4705 142.354 28.1727 141.803 28.3247 141.113C28.5677 139.987 28.8169 138.867 29.06 137.74C30.1357 132.836 31.2053 127.926 32.281 123.022C32.6882 121.157 33.0954 119.292 33.5026 117.421C32.6335 118.099 31.7401 118.741 30.8103 119.334C27.2307 121.605 23.0495 122.961 18.7771 122.549C15.465 122.228 12.3777 120.812 10.3904 118.299C10.2993 118.565 10.2142 118.838 10.123 119.104C7.75284 126.273 5.38268 133.442 3.01252 140.61C2.70257 141.543 1.79705 141.803 1.06169 141.585L0.703125 142.675H28.9263Z" fill="var(--fill-0, #BDA6DA)"/>
<path id="Vector_33" d="M37.6608 72.6528C37.9829 71.3631 38.0498 70.0311 38.0437 68.6567C38.0437 67.5729 38.1713 66.253 37.4542 65.3932C37.2354 65.1329 36.9559 64.9573 36.6338 64.8483C36.5365 64.812 36.4211 64.7817 36.3177 64.7696C36.2266 64.7575 36.0321 64.7938 36.026 64.7877C35.6371 64.8907 35.4973 64.9815 35.0354 65.2782C34.8713 65.3811 34.7072 65.5082 34.5492 65.6415C33.9901 67.7121 33.431 69.7768 32.8719 71.8475C32.8901 71.9141 32.9205 71.9867 32.9387 72.0533C33.4918 74.2936 31.6139 76.8486 29.4625 77.6539C30.1006 78.2715 30.7327 78.8951 31.3708 79.5127C32.4951 80.5904 33.3095 81.7832 33.3642 83.3877C33.4128 84.8711 32.8172 86.1425 31.6017 86.9841C31.2857 87.2021 30.9393 87.3716 30.605 87.5472C30.5929 87.7349 30.5503 87.9226 30.4713 88.0921C31.3769 89.3515 31.9056 90.7804 31.2432 92.397C30.5443 94.0984 28.8791 95.4062 27.0559 95.5333C26.7216 96.7443 25.9316 97.8704 24.941 98.5788C22.5282 100.304 19.9454 98.4214 17.7515 97.2347C16.141 96.3628 14.5487 95.4546 12.9807 94.5101C11.3095 93.505 12.8349 90.8833 14.5122 91.8945C16.1106 92.8572 17.7393 93.7835 19.3802 94.6736C20.0001 95.0066 20.62 95.3335 21.2459 95.6544C21.7078 95.8906 22.2061 96.1993 22.6194 96.3023C22.6559 96.3023 22.7288 96.3083 22.7835 96.3083C22.8017 96.3023 22.8321 96.2902 22.8625 96.2841C22.9111 96.2659 22.9354 96.2599 22.9537 96.2599C22.9719 96.2478 22.9962 96.2357 23.0327 96.2175C23.1178 96.1691 23.2028 96.1206 23.2879 96.0601C23.136 96.1691 23.5553 95.7997 23.6161 95.7392C23.6282 95.7271 23.8106 95.4728 23.9321 95.273C24.0658 95.055 24.0294 95.1216 24.1144 94.837C24.1387 94.7583 24.157 94.6736 24.1752 94.5949C24.1752 94.5585 24.1874 94.504 24.1934 94.4859C24.1995 94.4132 24.1934 94.3345 24.1934 94.2618C24.1874 94.2074 24.1752 94.1226 24.1631 94.0863C24.084 93.8501 24.2421 94.274 24.157 94.0378C24.1509 94.0136 24.0537 93.8683 24.0415 93.8441C23.7619 93.499 23.0205 93.0509 22.5769 92.7179C21.9995 92.282 21.4282 91.84 20.8509 91.3919C20.0122 90.738 19.1857 90.0781 18.3531 89.4181C17.6542 88.8671 17.168 88.4857 16.3658 87.9105C15.4907 87.2869 14.5912 86.6935 13.6796 86.1244C13.1631 85.8035 12.6465 85.4402 12.0752 85.2343C12.0327 85.2222 11.6984 85.1435 11.6316 85.1193C11.5769 85.1193 11.5222 85.1193 11.4614 85.1193C11.4857 85.1193 11.5039 85.1193 11.5161 85.1193C11.5404 85.1193 11.5526 85.1193 11.5586 85.1193C11.5586 85.1193 11.5404 85.1193 11.5161 85.1193C11.4857 85.1193 11.4553 85.1314 11.431 85.1435C11.4067 85.1617 11.3824 85.1798 11.3642 85.198C11.3399 85.2283 11.3034 85.2707 11.2912 85.2828C11.2305 85.3433 10.9752 85.64 10.9934 85.6158C10.6349 86.0941 10.3432 86.6209 10.0028 87.1113C9.69897 87.5472 9.38295 88.0679 9.20671 88.516C9.07301 88.855 8.91499 89.4968 8.89676 89.6361C8.6719 91.4464 9.49234 93.0267 10.5255 94.6493C11.6741 96.4476 13.0294 98.1005 14.1294 99.923C15.0288 101.406 15.9465 103.102 15.8189 104.876C15.7277 106.165 15.6305 107.461 15.5393 108.751C15.4907 109.423 15.0835 110.004 14.4575 110.192C14.8526 111.045 15.357 111.887 15.8918 112.498C16.5907 113.298 17.0586 113.661 17.9945 114.121C18.0189 114.133 18.0371 114.139 18.0492 114.151C18.0553 114.151 18.0675 114.151 18.0857 114.164C18.1708 114.194 18.262 114.23 18.3531 114.26C18.5537 114.327 18.7542 114.388 18.9608 114.43C19.1128 114.466 19.2708 114.497 19.4227 114.521C19.4713 114.521 19.757 114.557 19.8056 114.557C20.2371 114.581 20.6686 114.569 21.1001 114.539C21.1912 114.533 21.2885 114.521 21.3796 114.509C21.3979 114.509 21.41 114.509 21.4282 114.503C21.6227 114.472 21.8233 114.436 22.0177 114.394C23.8531 114.006 25.2144 113.37 26.8371 112.45C29.9061 110.706 32.3918 108.654 34.9321 106.19C35.0233 106.105 35.1144 106.032 35.2117 105.972C35.4244 104.761 35.5945 103.538 35.6492 102.345C34.4398 103.634 33.0785 104.815 31.547 105.705C29.8514 106.686 28.32 104.07 30.0155 103.09C31.6686 102.133 33.0481 100.777 34.2818 99.3357C35.4608 97.9612 36.7128 96.3386 37.3266 94.6191C38.615 91.0226 37.1564 87.4261 36.5061 83.8781C36.1293 81.8316 36.1476 79.7851 36.4271 77.7326C36.6702 75.9707 37.2476 74.3602 37.6791 72.6528H37.6608Z" fill="var(--fill-0, white)"/>
<path id="Vector_34" d="M20.0325 69.4741C21.1994 69.7102 22.2265 70.5518 23.1077 71.3026C24.5419 72.5317 25.8243 73.9485 27.1309 75.3229C27.3071 75.1413 27.5198 75.0081 27.7751 74.9778C28.6138 74.8627 29.3005 74.3602 29.7563 73.5792C29.9022 73.3249 29.9812 73.1069 29.9994 72.9313C29.8657 72.7618 29.7745 72.562 29.7381 72.3319C29.7198 72.3016 29.7016 72.2713 29.6894 72.2471C29.501 71.9444 29.3066 71.6477 29.106 71.3571C27.7325 69.3712 26.0248 67.6516 24.2988 65.9745C23.4419 65.145 22.579 64.3216 21.7403 63.4739C21.3696 63.0925 21.0231 62.6565 20.616 62.3114C20.6403 62.3478 20.385 62.1661 20.3243 62.1358C20.2635 62.0995 19.911 61.9239 19.99 61.9542C19.5646 61.7665 19.0845 61.6212 18.6226 61.5546C18.6226 61.5546 18.3613 61.5425 18.2762 61.5425C18.179 61.6938 18.0453 61.8452 17.948 61.9905C17.7171 62.3296 17.5348 62.6868 17.3281 63.044C17.3281 63.0501 17.3281 63.0561 17.3281 63.0622C17.3403 63.0622 17.3464 63.0864 17.3403 63.1167C17.4011 63.3952 17.474 63.6677 17.5591 63.9401C17.7049 64.3942 17.8751 64.8241 18.0817 65.254C18.3309 65.7626 18.6104 66.2712 18.9325 66.7434C19.4005 67.4216 19.0541 68.4266 18.3856 68.8141C18.258 68.8868 18.1243 68.9352 17.9906 68.9655C18.0939 69.2077 18.1972 69.4438 18.3005 69.686C18.8414 69.462 19.4127 69.3591 20.0265 69.4862L20.0325 69.4741Z" fill="var(--fill-0, white)"/>
<path id="Vector_35" d="M52.1941 28.4845C52.34 29.2171 52.5648 29.9195 52.8626 30.5734C53.4278 28.3392 54.4609 26.2261 55.8162 24.3613C58.5206 20.6256 62.2096 17.683 66.1841 15.3762C70.651 12.7848 75.6526 10.9805 80.8609 12.143C81.0797 12.1914 81.256 12.2762 81.4079 12.3791C81.4383 12.3791 81.4687 12.367 81.4991 12.367C82.362 12.367 82.9576 13.0633 83.0184 13.8807C83.1703 15.8787 83.4134 17.8465 83.7902 19.8142C85.0239 26.3048 87.6311 33.2859 93.3863 36.9913C93.7874 36.9308 94.2189 37.0458 94.5836 37.4515C97.1178 40.2608 98.8013 43.7786 99.3968 47.484C99.9438 46.6303 100.466 45.7645 100.959 44.8805C101.731 43.5061 103.596 44.2387 103.773 45.4739C104.945 45.4194 106.118 45.6434 107.115 46.3337C109.467 47.9563 110.488 51.3106 110.312 54.0594C110.099 57.4258 108.349 60.2049 105.948 62.3604C105.954 62.4088 105.954 62.4512 105.96 62.4996C105.979 62.5844 105.991 62.6691 106.003 62.76C106.106 63.5713 105.966 64.3584 105.65 65.0668C105.815 64.9275 105.973 64.7822 106.143 64.649C106.805 64.1162 107.632 64.0435 108.294 64.649C108.853 65.1576 108.92 66.2898 108.294 66.7924C107.577 67.3615 106.896 67.973 106.258 68.6269C105.948 68.9478 105.644 69.2748 105.353 69.6138C105.213 69.7713 105.079 69.9347 104.945 70.0982C104.873 70.189 104.806 70.2738 104.733 70.3646C104.727 70.3767 104.715 70.3888 104.702 70.4009C104.058 71.2547 103.487 72.1507 102.976 73.0832C106.477 70.3222 110.512 68.2697 113.91 65.3695C115.629 63.8982 117.185 62.2271 118.2 60.1928C119.306 57.9828 119.519 55.4701 119.349 53.0422C119.166 50.4508 118.528 47.9139 117.896 45.4012C117.179 42.5434 116.456 39.6856 115.739 36.8278C115.034 34.0185 114.323 31.2091 113.618 28.3997C112.961 25.8023 112.402 23.1503 111.57 20.6013C110.828 18.3369 109.643 16.4963 107.96 14.8131C106.726 13.584 104.97 11.9916 103.153 12.6939C102.837 12.815 102.502 12.7787 102.205 12.6455C102.247 12.6758 102.29 12.7182 102.332 12.7484C102.284 12.7182 102.247 12.6758 102.205 12.6455C101.864 12.5002 101.573 12.2338 101.402 11.9129C100.861 11.3135 100.412 10.6232 99.9499 9.94513C99.5548 10.1631 99.0626 10.1873 98.5521 9.85431C95.3797 7.75939 91.8609 6.33049 88.1051 5.67659C75.3184 3.45453 62.009 10.7383 55.3969 21.5216C55.0626 22.0726 54.5521 22.2664 54.0538 22.23C52.6256 24.1009 52.1698 26.1837 52.188 28.4785L52.1941 28.4845Z" fill="var(--fill-0, white)"/>
<path id="Vector_36" d="M98.5848 105.166C97.4605 105.893 96.3301 106.626 95.2058 107.352C90.271 110.549 85.3362 113.74 80.4075 116.937C77.308 118.941 74.2086 120.951 71.1152 122.955C70.3981 123.421 69.4743 123.07 69.0368 122.41C68.6782 121.865 68.3136 121.32 67.955 120.775C65.6517 117.3 63.3545 113.825 61.0511 110.343C60.1578 114.485 59.629 118.584 59.7627 122.937C59.9694 129.597 61.4279 136.166 62.9169 142.675H84.7528C85.2633 141.416 85.8163 140.162 86.3086 138.915C88.0042 134.61 89.6997 130.305 91.3771 125.995C93.4191 120.751 95.4489 115.502 97.4484 110.246C98.5362 107.383 99.618 104.513 100.682 101.643L99.1014 103.162C99.4296 103.81 99.3749 104.664 98.5909 105.173L98.5848 105.166Z" fill="var(--fill-0, white)"/>
<path id="Vector_37" d="M103.952 87.8743C104.129 88.6735 103.715 89.5091 102.889 89.7392C102.129 89.945 101.199 89.4788 101.017 88.6796C100.902 88.1589 100.786 87.6443 100.671 87.1236C99.8624 83.4787 99.0602 79.8337 98.2519 76.1888C98.0818 75.4199 98.4586 74.6207 99.2304 74.3603C99.2182 74.0697 99.2851 73.7609 99.4006 73.4885C100.318 71.3572 101.576 69.3592 103.102 67.5973C102.98 67.6518 102.859 67.7002 102.731 67.7426C100.962 68.348 98.811 67.7426 97.632 66.2834C96.368 64.7152 96.1066 62.4932 97.1945 60.7494C98.2823 59.0118 100.324 58.1823 102.324 58.5879C103.089 58.7453 103.794 59.1268 104.39 59.6475C106.414 57.6373 107.733 55.0762 107.149 52.17C107.034 51.6008 106.876 51.0317 106.657 50.4868C106.627 50.4202 106.517 50.1962 106.499 50.1598C106.438 50.0387 106.371 49.9237 106.298 49.8087C106.219 49.6815 106.134 49.5544 106.043 49.4333C106.007 49.403 105.818 49.185 105.788 49.1608C105.417 48.7915 105.144 48.6341 104.548 48.519C104.572 48.5311 104.147 48.4827 104.092 48.4827C103.916 48.4827 103.734 48.4827 103.557 48.5069C103.175 48.5553 102.573 48.737 102.123 48.8944C102.105 48.9005 102.081 48.9005 102.062 48.9065C101.145 50.3354 100.166 51.7219 99.121 53.0721C98.3188 54.1014 96.4227 53.2356 96.526 52.0005C96.8785 47.8106 95.6447 43.5845 93.0133 40.3028C91.0381 39.2614 89.2514 37.8507 87.7746 36.1917C82.6757 30.464 80.7553 22.5506 80.0624 15.067C80.0503 15.067 80.0442 15.067 80.032 15.067C77.4066 14.4797 74.7144 14.8854 72.2105 15.7815C70.2901 16.4717 68.4729 17.4949 66.7409 18.5666C65.0028 19.6383 63.3497 20.831 61.8365 22.1933C59.0713 24.6758 56.7558 27.6789 55.7956 31.2874C56.4641 30.7244 57.2238 30.2945 58.105 30.1552C58.974 30.022 59.8127 30.0644 60.6696 30.2763C62.0978 30.6275 63.4348 31.3722 64.6503 32.1835C65.3553 32.6558 65.5984 33.4913 65.1972 34.2542C64.8326 34.9445 63.7812 35.2411 63.1188 34.7992C62.6205 34.4661 62.116 34.1513 61.5873 33.8728C61.3564 33.7517 61.1011 33.6064 60.8459 33.5095C60.8337 33.5095 60.8276 33.5095 60.8033 33.4974C60.7243 33.4671 60.6392 33.4369 60.5602 33.4066C60.4326 33.3581 60.2989 33.3158 60.1652 33.2794C60.0194 33.2371 59.8674 33.1947 59.7216 33.1644C59.6486 33.1462 59.5818 33.1341 59.5089 33.122C59.4663 33.122 59.3569 33.1038 59.3326 33.1038C59.2658 33.1038 59.205 33.0978 59.1381 33.0978C59.0105 33.0978 58.8829 33.1038 58.7492 33.1099C58.6945 33.122 58.6398 33.1281 58.5851 33.1462C58.5061 33.1644 58.4149 33.2007 58.3299 33.231C58.3055 33.2431 58.2812 33.2492 58.2569 33.2552C58.2022 33.2855 58.1475 33.3097 58.0989 33.346C58.0564 33.3703 57.9287 33.4792 57.8862 33.4853C57.242 33.9878 56.4276 34.0181 55.7956 33.4429C55.5586 33.2249 55.4188 32.9101 55.3763 32.5771C54.9448 33.1523 54.1426 33.2007 53.5227 32.8798C52.7812 36.4702 53.3464 40.3876 52.8906 44.0446C53.6199 44.081 54.3249 44.5653 54.3431 45.4977C54.3796 48.295 53.8448 51.0317 53.4376 53.7866C52.9939 56.7594 52.9332 59.7625 53.1884 62.7535C53.6017 67.6396 55.1089 73.0283 58.5304 76.7035C61.4536 79.8398 65.574 81.2566 69.8221 81.0447C71.7365 80.9478 73.5354 80.4332 75.3586 79.8822C77.2365 79.3191 79.0901 78.6834 80.9376 78.0295C83.3442 77.1818 85.7326 76.2978 88.1088 75.3715C88.8746 75.0748 89.7801 75.7045 89.9807 76.431C90.2116 77.2787 89.6829 77.9931 88.9171 78.2959C85.8724 79.4765 82.8033 80.6087 79.716 81.6562C76.4525 82.7703 73.1221 83.8964 69.6823 84.066C69.6945 84.0962 69.7127 84.1265 69.7249 84.1568C69.8768 84.6109 70.0105 85.065 70.1381 85.5251C70.7276 87.614 71.1956 89.7694 71.3475 91.937C71.4873 93.9714 71.2989 96.6112 69.3055 97.7434C67.6039 98.7122 66.0724 96.0966 67.774 95.1278C67.7923 95.1218 67.7984 95.1097 67.8105 95.1036C67.8409 95.0612 67.8713 95.0309 67.8956 95.0188C67.9199 94.9946 67.9381 94.9765 67.9564 94.9644C67.9868 94.9159 68.0111 94.8614 68.0354 94.8069C68.0354 94.7888 68.0536 94.7585 68.0901 94.7101C68.0961 94.6919 68.1022 94.6858 68.1083 94.6616C68.1387 94.5587 68.1751 94.4558 68.1995 94.3468C68.2298 94.2378 68.2542 94.1227 68.2724 94.0138C68.2785 93.9774 68.2845 93.9411 68.2906 93.9108C68.3271 92.936 68.3332 91.9915 68.2238 91.0167C68.2177 90.9622 68.2116 90.9319 68.2116 90.9077C68.2116 90.8956 68.2116 90.8896 68.2055 90.8653C68.1873 90.7442 68.1691 90.6231 68.1508 90.496C68.1326 90.3689 68.1083 90.2357 68.084 90.1085C67.5978 90.5687 67.0751 90.9925 66.5282 91.3921C66.4674 91.4647 66.4006 91.5314 66.3276 91.598C66.3155 91.6888 66.2972 91.7856 66.2669 91.8825C64.8569 96.4114 63.4348 100.946 62.2011 105.53C62.0553 106.063 61.9216 106.595 61.7879 107.122C62.2315 107.14 62.6752 107.34 62.9851 107.806C63.3437 108.351 63.7083 108.896 64.0669 109.441C66.2973 112.814 68.5337 116.186 70.7641 119.558L72.9398 118.148C77.8746 114.951 82.8094 111.76 87.7381 108.563C90.8376 106.559 93.937 104.549 97.0304 102.545C97.8934 101.988 98.7138 102.442 99.0724 103.15L100.652 101.631C101.382 99.6688 102.111 97.7011 102.816 95.7272C103.934 92.6212 105.113 89.503 105.952 86.3062C106.019 86.0579 106.134 85.8702 106.274 85.7128L103.144 84.3324C103.406 85.513 103.667 86.6876 103.928 87.8683L103.952 87.8743ZM59.9525 39.3159C61.9094 39.3159 61.9094 42.3433 59.9525 42.3433C57.9956 42.3433 57.9956 39.3159 59.9525 39.3159ZM60.1895 49.3364C61.4536 48.1315 62.9912 47.2899 63.7326 45.6431C64.4072 44.1597 64.6138 42.4401 64.7961 40.8357C64.8873 40.0183 65.416 39.322 66.3155 39.322C67.0691 39.322 67.926 40.0243 67.8348 40.8357C67.6343 42.6097 67.4276 44.4261 66.8017 46.1093C66.1879 47.7622 65.258 49.0276 63.9028 50.1538C63.2525 50.6926 62.4989 51.2012 61.958 51.8612C61.958 51.8612 61.7757 52.1276 61.8729 51.946C61.7636 52.1397 61.8426 51.9762 61.8547 52.0731C61.8547 52.1034 61.8547 52.1155 61.8547 52.1155C61.8608 52.1276 61.8729 52.1518 61.9033 52.2184C61.8426 52.0852 62.0492 52.4969 62.0431 52.4969C62.7298 53.6897 63.8481 54.6161 64.6746 55.718C65.1669 56.378 64.7779 57.4133 64.1276 57.7887C63.3619 58.2307 62.5354 57.9037 62.0492 57.2438C61.2591 56.1842 59.9525 55.0944 59.2901 53.7805C58.4575 52.1215 58.8586 50.5837 60.1774 49.3303L60.1895 49.3364ZM71.1409 66.132C70.9525 66.9555 70.047 67.3611 69.2691 67.1916C68.5702 67.0342 67.8774 66.8647 67.1785 66.7072C66.8503 66.6346 66.5221 66.5619 66.1939 66.5014C66.0359 66.4711 65.8779 66.4469 65.7199 66.4166C65.647 66.4045 65.568 66.3984 65.489 66.3803C65.5072 66.3803 65.5133 66.3803 65.5254 66.3924C65.5437 66.3924 65.5619 66.3924 65.5801 66.3924C65.6956 66.4045 65.8658 66.4711 65.5254 66.3924C65.258 66.3621 64.9967 66.3439 64.7293 66.35C64.7111 66.35 64.6321 66.35 64.5531 66.35C64.316 67.0826 63.4287 67.4217 62.7298 67.2643C61.879 67.0705 61.5265 66.1805 61.6663 65.3994C61.9702 63.7283 63.7691 63.2258 65.2398 63.3348C66.8807 63.4559 68.479 63.9039 70.0713 64.2672C70.8978 64.4549 71.3111 65.3631 71.1348 66.132H71.1409ZM77.1818 44.311C75.2249 44.311 75.2249 41.2837 77.1818 41.2837C79.1387 41.2837 79.1387 44.311 77.1818 44.311ZM83.4536 34.6115C83.1011 35.2775 82.0133 35.6286 81.3751 35.1564C81.1077 34.9566 80.8282 34.8113 80.5425 34.6538C80.4696 34.6296 80.3906 34.5994 80.3177 34.5751C80.1718 34.5267 80.0199 34.4843 79.874 34.448C79.7221 34.4117 79.5702 34.3814 79.4182 34.3572C79.3879 34.3572 79.3635 34.3451 79.3514 34.3451C79.3028 34.3451 79.2481 34.3451 79.2359 34.3451C78.9138 34.3208 78.5917 34.3148 78.2635 34.3208C77.9111 34.3269 77.5646 34.3572 77.2122 34.3935C77.1939 34.3935 77.1271 34.4056 77.0845 34.4117C77.0481 34.4117 77.0116 34.4238 76.9995 34.4238C76.8354 34.448 76.6713 34.4783 76.5072 34.5085C75.8508 34.6296 75.2066 34.787 74.5624 34.9687C73.742 35.1927 72.9459 34.6902 72.6906 33.9091C72.4354 33.1341 72.9884 32.2562 73.7542 32.0443C76.6409 31.2511 80.3177 30.6093 82.9127 32.5468C83.5934 33.0554 83.879 33.8244 83.4597 34.6175L83.4536 34.6115Z" fill="var(--fill-0, white)"/>
<path id="Vector_38" d="M37.0635 108.333C36.632 108.751 36.1883 109.163 35.7386 109.569C35.6292 110.495 35.5441 111.445 35.4591 112.39C35.9209 112.426 36.3524 112.669 36.632 113.02C37.0817 113.347 37.3734 113.886 37.2276 114.576C36.9845 115.702 36.7353 116.822 36.4922 117.948C35.4165 122.852 34.3469 127.763 33.2712 132.667C32.5966 135.749 31.922 138.825 31.2535 141.906C31.1806 142.246 31.0287 142.488 30.8281 142.663H50.464C50.2088 141.58 49.9535 140.496 49.6983 139.412C47.948 132.013 46.2038 124.614 44.4535 117.216C44.2651 116.41 44.0828 115.599 43.8823 114.794C43.7546 114.279 43.6331 113.77 43.6817 113.232C43.8215 111.627 44.9762 110.453 46.4773 109.986C47.2309 109.75 47.9905 109.532 48.7502 109.314C49.601 106.341 51.011 103.478 52.3115 100.692C52.5729 100.129 52.8463 99.5662 53.1137 99.0032C49.2182 100.82 45.2375 102.46 41.2204 103.95C40.7281 104.131 40.1872 103.95 39.8044 103.599C38.2972 104.192 36.8447 104.913 35.5745 105.796C36.8751 105.451 38.2486 107.165 37.0574 108.321L37.0635 108.333Z" fill="var(--fill-0, #BDA6DA)"/>
<path id="Vector_39" d="M34.2801 110.834C34.2801 110.834 34.2801 110.834 34.2801 110.84C34.2801 110.84 34.2801 110.84 34.2801 110.834C33.6481 111.366 33.0099 111.881 32.3536 112.384C29.0901 114.878 25.2796 117.209 21.0923 117.566C19.1597 117.73 17.1177 117.3 15.5011 116.192C13.3983 114.751 12.116 112.589 11.1983 110.265C11.0829 109.974 11.1011 109.671 11.2105 109.387C10.9978 109.356 10.7912 109.411 10.5785 109.623C9.61824 111.215 8.99835 112.977 8.44531 114.818C8.63979 114.563 8.89504 114.394 9.17459 114.309C9.38122 114.055 9.6547 113.861 9.95249 113.782C10.7972 113.552 11.5326 114.073 11.8243 114.842C13.4348 119.056 18.7221 120.115 22.7028 119.407C27.2425 118.596 30.9862 115.768 34.347 112.777C34.6994 112.462 35.0945 112.359 35.4652 112.39C35.5503 111.445 35.6354 110.495 35.7447 109.568C35.2646 109.998 34.7784 110.422 34.2801 110.834Z" fill="var(--fill-0, white)"/>
<path id="Vector_40" d="M65.3438 92.2213C65.7449 91.9488 66.146 91.6703 66.5349 91.3857C66.778 91.1072 66.9421 90.7742 66.9603 90.417C66.2797 90.9619 65.5686 91.4887 65.3438 92.2152V92.2213Z" fill="var(--fill-0, #323232)"/>
<path id="Vector_41" d="M97.971 104.234L99.0953 103.156C98.7367 102.448 97.9163 101.994 97.0533 102.551C93.9539 104.555 90.8544 106.565 87.761 108.569C82.8262 111.766 77.8914 114.957 72.9627 118.154L70.787 119.565C68.5566 116.192 66.3202 112.82 64.0898 109.447C63.7312 108.902 63.3666 108.357 63.008 107.812C62.6981 107.346 62.2544 107.146 61.8108 107.128C61.9445 106.601 62.0782 106.069 62.224 105.536C63.4577 100.952 64.8798 96.4175 66.2898 91.8886C66.3202 91.7918 66.3384 91.6949 66.3506 91.6041C66.4235 91.5435 66.4903 91.4709 66.5511 91.3982C66.1622 91.6828 65.7671 91.9613 65.36 92.2338C65.3174 92.3791 65.287 92.5304 65.287 92.6879C65.287 92.5244 65.3174 92.3791 65.36 92.2338C65.1351 92.3851 64.9042 92.5365 64.6793 92.6879C64.9102 92.5365 65.1351 92.3851 65.36 92.2338C65.5787 91.5072 66.2959 90.9804 66.9765 90.4355C66.9887 90.1752 66.934 89.9027 66.776 89.6363C66.3931 88.9884 65.36 88.607 64.6975 89.0914C62.0174 91.0652 59.0942 92.706 56.1102 94.2076C55.8611 94.2621 55.6301 94.371 55.4417 94.5406C54.597 94.9584 53.7522 95.364 52.9075 95.7636C49.4069 97.4226 46.1009 98.8333 42.5699 100.226C41.8589 100.504 41.1478 100.783 40.4307 101.049C39.6649 101.334 39.1362 102.073 39.3672 102.914C39.4401 103.181 39.6042 103.429 39.823 103.623C40.4064 103.392 40.9898 103.181 41.5793 102.981C40.9898 103.175 40.4003 103.392 39.823 103.623C40.2058 103.968 40.7467 104.155 41.239 103.974C45.25 102.484 49.2368 100.843 53.1323 99.0271C52.8649 99.5902 52.5915 100.153 52.3301 100.716C51.0296 103.508 49.6196 106.365 48.7688 109.338C48.0091 109.55 47.2495 109.774 46.4959 110.01C44.9948 110.476 43.8401 111.651 43.7003 113.256C43.6517 113.788 43.7732 114.303 43.9009 114.818C44.1014 115.623 44.2837 116.434 44.4721 117.24C46.2224 124.638 47.9666 132.037 49.7169 139.436C49.9721 140.52 50.2274 141.603 50.4826 142.687H53.6003C52.5185 138.11 51.4368 133.533 50.355 128.949L47.7964 118.105C47.5351 116.991 47.2677 115.877 47.0064 114.763C46.8787 114.23 46.581 113.467 46.8787 113.147C47.1522 112.856 47.8572 112.771 48.2462 112.662C49.2246 112.396 50.2031 112.123 51.1815 111.857C52.7252 111.433 54.2688 111.009 55.8185 110.585C57.7025 110.071 56.9003 107.146 55.0102 107.667C54.0986 107.915 53.1749 108.158 52.2572 108.4C53.0351 106.238 54.0318 104.216 55.0285 102.085C55.8489 100.329 56.6876 98.5851 57.5566 96.8595C58.3224 96.466 59.0881 96.0664 59.8417 95.6546C60.6986 95.1945 61.5434 94.7101 62.376 94.2197C60.413 100.468 58.4439 106.771 57.3986 113.231C56.4202 119.286 56.6329 125.262 57.5627 131.311C58.1522 135.131 58.9544 138.915 59.8053 142.687H62.9108C61.4158 136.178 59.9633 129.609 59.7566 122.949C59.6229 118.596 60.1517 114.497 61.045 110.355C63.3484 113.831 65.6456 117.306 67.9489 120.788C68.3075 121.332 68.6721 121.877 69.0307 122.422C69.4682 123.082 70.392 123.433 71.1091 122.967C74.2086 120.963 77.308 118.953 80.4014 116.949C85.3362 113.752 90.271 110.561 95.1997 107.364C96.324 106.638 97.4544 105.905 98.5787 105.179C99.3566 104.676 99.4174 103.816 99.0892 103.168L97.9649 104.246L97.971 104.234Z" fill="var(--fill-0, #323232)"/>
<path id="Vector_42" d="M149.261 126.733C148.082 121.399 147.201 115.702 144.545 110.846C143.5 108.939 142.126 107.183 140.485 105.754C138.455 103.986 136.134 102.83 133.758 101.607C129.285 99.3057 124.927 96.787 120.862 93.8263C119.974 93.1784 119.215 92.6032 118.467 92.022C117.641 91.3741 116.82 90.7202 116 90.0663C114.152 88.589 112.299 87.1298 110.396 85.7191C109.892 85.3437 109.163 85.4829 108.677 85.8644C108.123 85.156 106.92 85.0046 106.3 85.7191C106.167 85.8765 106.045 86.0642 105.978 86.3124C105.139 89.5093 103.96 92.6275 102.842 95.7335C102.131 97.7073 101.408 99.669 100.679 101.637C99.6091 104.513 98.5334 107.377 97.4456 110.24C95.4461 115.496 93.4163 120.745 91.3743 125.989C89.697 130.3 88.0075 134.604 86.3058 138.909C85.8135 140.157 85.2605 141.41 84.75 142.669H88.0622C88.2931 142.076 88.5301 141.489 88.7671 140.895C90.3776 136.82 91.982 132.74 93.5743 128.659C95.6041 123.464 97.6157 118.257 99.6091 113.044C101.505 108.079 103.389 103.102 105.206 98.1069C106.41 94.8071 107.637 91.4952 108.628 88.1167C108.701 88.1894 108.78 88.256 108.865 88.3226C111.891 90.5689 114.869 93.0755 117.951 95.4065C121.56 98.1432 125.395 100.547 129.382 102.708C131.856 104.053 134.505 105.167 136.845 106.741C138.504 107.861 139.993 109.338 141.075 110.961C143.901 115.193 144.727 120.412 145.833 125.286C147.134 131.038 148.276 136.808 148.963 142.663H152.002C151.382 137.299 150.428 132.001 149.261 126.721V126.733Z" fill="var(--fill-0, #323232)"/>
<path id="Vector_43" d="M119.302 109.974C118.749 109.035 117.801 108.49 116.75 108.121C116.762 108.042 116.774 107.97 116.78 107.891C116.889 104.397 117.005 100.904 117.114 97.4104C117.132 96.9078 117.145 96.4053 117.163 95.9027C117.187 95.0854 116.446 94.3891 115.643 94.3891C114.799 94.3891 114.148 95.0793 114.124 95.9027C114.015 99.3963 113.899 102.89 113.79 106.383C113.778 106.698 113.772 107.013 113.759 107.328C113.699 107.31 113.644 107.298 113.583 107.279C111.869 106.807 110.156 106.341 108.442 105.869C106.552 105.348 105.75 108.272 107.634 108.787C109.007 109.162 110.387 109.544 111.76 109.919C113.213 110.319 114.75 110.61 116.166 111.13C116.531 111.263 116.573 111.457 116.737 111.639C116.737 111.639 116.737 111.766 116.75 111.827C116.683 111.996 116.598 112.166 116.525 112.329C116.081 113.334 115.637 114.339 115.194 115.338C111.997 122.561 108.8 129.785 105.598 137.008C104.765 138.897 103.926 140.78 103.094 142.669H106.394C108.563 137.771 110.733 132.873 112.903 127.968C114.507 124.348 116.111 120.721 117.716 117.1C118.19 116.035 118.664 114.963 119.132 113.897C119.697 112.62 120.098 111.306 119.308 109.968L119.302 109.974Z" fill="var(--fill-0, #323232)"/>
<path id="Vector_44" d="M68.1016 94.698C68.0712 94.7466 68.053 94.777 68.0469 94.7952C68.059 94.7648 68.0773 94.7405 68.0955 94.7101C68.0955 94.7101 68.0955 94.7041 68.0955 94.698H68.1016Z" fill="var(--fill-0, #323232)"/>
<path id="Vector_45" d="M67.8976 95.0127C67.8976 95.0127 67.849 95.0492 67.8125 95.0978C67.8125 95.0978 67.8186 95.0978 67.8247 95.0978C67.8429 95.0735 67.8733 95.0492 67.8976 95.0188V95.0127Z" fill="var(--fill-0, #323232)"/>
<path id="Vector_46" d="M62.0564 57.2437C62.5426 57.8976 63.3691 58.2306 64.1348 57.7887C64.7851 57.4133 65.1741 56.3779 64.6818 55.718C63.8614 54.616 62.737 53.6897 62.0503 52.4969C62.0503 52.4969 61.8498 52.0852 61.9105 52.2184C61.8801 52.1518 61.868 52.1275 61.8619 52.1154C61.8619 52.1154 61.8619 52.1033 61.8619 52.0731C61.8498 51.9762 61.7708 52.1336 61.8801 51.9459C61.7829 52.1215 61.9591 51.8611 61.9652 51.8611C62.5061 51.2012 63.2597 50.6926 63.91 50.1537C65.2652 49.0276 66.1951 47.7682 66.8089 46.1092C67.4288 44.426 67.6415 42.6096 67.842 40.8356C67.9332 40.0243 67.0763 39.3219 66.3227 39.3219C65.4232 39.3219 64.8945 40.0182 64.8034 40.8356C64.621 42.4401 64.4144 44.1596 63.7398 45.643C62.9923 47.2838 61.4608 48.1315 60.1967 49.3363C58.8779 50.5897 58.4768 52.1275 59.3094 53.7865C59.9719 55.1004 61.2724 56.1842 62.0685 57.2498L62.0564 57.2437Z" fill="var(--fill-0, #323232)"/>
<path id="Vector_47" d="M58.2934 33.2254C58.2934 33.2254 58.2813 33.2254 58.2813 33.2315C58.3056 33.2315 58.3299 33.2193 58.3542 33.2071C58.3359 33.2132 58.3177 33.2193 58.2934 33.2254Z" fill="var(--fill-0, #323232)"/>
<path id="Vector_48" d="M79.3449 34.3391C79.3449 34.3391 79.3814 34.3451 79.4118 34.3512C79.5637 34.3815 79.7157 34.4057 79.8676 34.442C80.0195 34.4783 80.1654 34.5207 80.3112 34.5692C80.3842 34.5934 80.4632 34.6237 80.5361 34.6479C80.8217 34.8053 81.1013 34.9567 81.3687 35.1504C82.0068 35.6287 83.0947 35.2715 83.4472 34.6055C83.8665 33.8123 83.5809 33.0434 82.9002 32.5348C80.3112 30.5973 76.6284 31.2391 73.7416 32.0323C72.9759 32.2442 72.4289 33.1161 72.6781 33.8971C72.9334 34.6782 73.7234 35.1807 74.5499 34.9567C75.1941 34.7811 75.8383 34.6237 76.4947 34.4965C76.6588 34.4662 76.8228 34.436 76.9869 34.4117C76.9991 34.4117 77.0356 34.4057 77.072 34.3996C77.1206 34.3936 77.1875 34.3875 77.1996 34.3815C77.5461 34.3391 77.8985 34.3149 78.251 34.3088C78.5731 34.3028 78.8952 34.3088 79.2234 34.333C79.2356 34.333 79.2902 34.333 79.3389 34.333L79.3449 34.3391Z" fill="var(--fill-0, #323232)"/>
<path id="Vector_49" d="M77.1786 44.3112C79.1355 44.3112 79.1355 41.2838 77.1786 41.2838C75.2217 41.2838 75.2217 44.3112 77.1786 44.3112Z" fill="var(--fill-0, #323232)"/>
<path id="Vector_50" d="M59.9521 39.3161C57.9951 39.3161 57.9951 42.3434 59.9521 42.3434C61.909 42.3434 61.909 39.3161 59.9521 39.3161Z" fill="var(--fill-0, #323232)"/>
<path id="Vector_51" d="M100.644 61.6093C100.552 61.688 100.382 61.7364 100.291 61.8031C100.279 61.8091 100.267 61.8212 100.255 61.8273C100.224 61.8515 100.188 61.8757 100.163 61.8999C100.072 61.9847 99.9933 62.0695 99.9082 62.1603C99.8839 62.1966 99.8596 62.2329 99.8353 62.2753C99.7745 62.3722 99.732 62.4872 99.6712 62.5841C99.6591 62.6144 99.6469 62.6507 99.6408 62.681C99.6226 62.7355 99.6104 62.79 99.5983 62.8445C99.5861 62.8929 99.5801 62.9534 99.5679 63.0079C99.5679 63.1351 99.5557 63.2622 99.5679 63.3954C99.574 63.4439 99.5861 63.5044 99.5861 63.5286C99.6104 63.6255 99.6469 63.7224 99.6773 63.8193C99.6894 63.8314 99.7077 63.8737 99.7259 63.9585C99.7563 64.013 99.7867 64.0736 99.8231 64.128C99.8475 64.1704 99.8778 64.2128 99.9082 64.2612C99.9994 64.3581 100.084 64.455 100.182 64.5398C100.188 64.5458 100.194 64.5519 100.206 64.5579C100.255 64.5943 100.303 64.6306 100.352 64.6548C100.443 64.7093 100.546 64.7577 100.638 64.8122C100.692 64.8304 100.747 64.8485 100.802 64.8667C100.868 64.8849 100.941 64.903 101.008 64.9212C101.014 64.9212 101.026 64.9212 101.039 64.9212C101.105 64.9212 101.184 64.9333 101.209 64.9333C101.27 64.9333 101.324 64.9333 101.385 64.9333C101.397 64.9333 101.421 64.9333 101.434 64.9333C101.428 64.9212 101.47 64.9091 101.58 64.9151C101.701 64.8849 101.823 64.8607 101.944 64.8183C101.987 64.7941 102.041 64.7759 102.06 64.7638C102.139 64.7214 102.218 64.6669 102.297 64.6245C102.37 64.5458 102.406 64.5155 102.412 64.5216C102.467 64.4792 102.521 64.4308 102.564 64.3884C102.6 64.3521 102.631 64.3157 102.661 64.2794C102.734 64.1704 102.801 64.0614 102.862 63.9464C102.862 63.9464 102.862 63.9343 102.868 63.9282C102.886 63.8677 102.917 63.8071 102.929 63.7587C102.959 63.6558 102.971 63.5226 103.008 63.4136C103.008 63.347 103.014 63.2864 103.014 63.2198C103.014 63.1472 103.002 63.0806 103.002 63.0079C102.977 62.8868 102.959 62.7718 102.923 62.6507C102.91 62.6204 102.904 62.5902 102.892 62.5599C102.874 62.5175 102.85 62.4691 102.838 62.4509C102.795 62.3722 102.746 62.2935 102.698 62.2148C102.625 62.1482 102.588 62.1058 102.588 62.0997C102.528 62.0271 102.461 61.9484 102.394 61.8878C102.388 61.8818 102.382 61.8757 102.376 61.8697C102.339 61.8454 102.303 61.8152 102.266 61.7909C102.157 61.7243 102.029 61.6699 101.92 61.6032C101.889 61.5911 101.859 61.579 101.823 61.573C101.768 61.5548 101.713 61.5427 101.659 61.5306C101.634 61.5306 101.549 61.5064 101.482 61.5003C101.476 61.5003 101.464 61.5003 101.464 61.5003C101.324 61.4943 101.154 61.5245 101.008 61.5185C100.941 61.5366 100.868 61.5488 100.802 61.5669C100.753 61.579 100.698 61.5972 100.65 61.6154L100.644 61.6093Z" fill="var(--fill-0, white)"/>
<path id="Vector_52" d="M99.6865 63.9105C99.6865 63.9105 99.6986 63.9288 99.7047 63.9409C99.6925 63.9045 99.6804 63.8619 99.6682 63.8194C99.65 63.8011 99.65 63.8437 99.6865 63.9105Z" fill="var(--fill-0, white)"/>
<path id="Vector_53" d="M99.7257 64.0318C99.7257 64.0318 99.7135 63.9832 99.7075 63.9589C99.7075 63.9528 99.7014 63.9406 99.6953 63.9346C99.7075 63.965 99.7196 63.9953 99.7257 64.0318Z" fill="var(--fill-0, white)"/>
<path id="Vector_54" d="M102.734 62.2633C102.734 62.2633 102.698 62.2208 102.68 62.2025C102.68 62.2025 102.686 62.2147 102.692 62.2208C102.71 62.239 102.716 62.2451 102.74 62.2633H102.734Z" fill="var(--fill-0, white)"/>
<path id="Vector_55" d="M102.234 64.6731C102.234 64.6731 102.277 64.6366 102.295 64.6123C102.295 64.6123 102.283 64.6184 102.277 64.6245C102.259 64.6427 102.253 64.6488 102.234 64.6731Z" fill="var(--fill-0, white)"/>
<path id="Vector_56" d="M102.303 64.6126C102.37 64.5762 102.4 64.5336 102.394 64.5215C102.358 64.5519 102.327 64.5823 102.297 64.6126H102.303Z" fill="var(--fill-0, white)"/>
<path id="Vector_57" d="M102.669 62.1973C102.627 62.1244 102.584 62.094 102.578 62.1061C102.609 62.1426 102.645 62.173 102.675 62.2034C102.675 62.2034 102.675 62.2034 102.675 62.1973H102.669Z" fill="var(--fill-0, white)"/>
<path id="Vector_58" d="M101.507 64.9394C101.507 64.9394 101.531 64.9333 101.543 64.9272C101.501 64.9272 101.464 64.9272 101.422 64.9394C101.422 64.9455 101.452 64.9516 101.507 64.9394Z" fill="var(--fill-0, white)"/>
<path id="Vector_59" d="M101.636 64.9213C101.636 64.9213 101.588 64.9213 101.569 64.9213C101.557 64.9213 101.551 64.9213 101.539 64.9274C101.576 64.9274 101.606 64.9213 101.636 64.9274V64.9213Z" fill="var(--fill-0, white)"/>
<path id="Vector_60" d="M99.6927 63.9407C99.6927 63.9407 99.6988 63.9589 99.7049 63.965C99.6866 63.8799 99.6684 63.8374 99.6563 63.8252C99.6684 63.8617 99.6806 63.9042 99.6927 63.9467V63.9407Z" fill="var(--fill-0, #323232)"/>
<path id="Vector_61" d="M102.281 64.6247C102.281 64.6247 102.293 64.6186 102.299 64.6125C102.33 64.5821 102.36 64.5517 102.397 64.5213C102.397 64.5092 102.354 64.5456 102.281 64.6247Z" fill="var(--fill-0, #323232)"/>
<path id="Vector_62" d="M101.422 64.9393C101.464 64.9393 101.501 64.9332 101.543 64.9271C101.556 64.9271 101.562 64.9271 101.574 64.9211C101.464 64.915 101.416 64.9271 101.428 64.9393H101.422Z" fill="var(--fill-0, #323232)"/>
<path id="Vector_63" d="M102.688 62.2212C102.688 62.2212 102.681 62.209 102.675 62.203C102.645 62.1726 102.609 62.1422 102.578 62.1057C102.578 62.1118 102.609 62.1543 102.688 62.2212Z" fill="var(--fill-0, #323232)"/>
<path id="Vector_64" d="M89.9958 76.413C89.7952 75.6864 88.8958 75.0568 88.124 75.3534C85.7477 76.2798 83.3532 77.1577 80.9527 78.0114C79.1052 78.6653 77.2516 79.3011 75.3737 79.8642C73.5505 80.4151 71.7516 80.9298 69.8372 81.0267C65.5892 81.2386 61.4687 79.8218 58.5455 76.6855C55.1179 73.0103 53.6168 67.6216 53.2035 62.7355C52.9483 59.7445 53.0091 56.7414 53.4527 53.7686C53.866 51.0137 54.4008 48.277 54.3582 45.4797C54.3461 44.5473 53.635 44.0629 52.9058 44.0266C52.7417 45.3526 52.45 46.6483 51.8969 47.8774C52.4439 46.6483 52.7417 45.3526 52.9058 44.0266C52.1157 43.9842 51.3013 44.4686 51.3196 45.4797C51.356 47.9742 50.9063 50.3961 50.5356 52.8483C50.1041 55.7061 49.9157 58.5457 50.0676 61.4338C50.3533 66.9375 51.7207 72.7863 55.0997 77.2667C57.9743 81.0811 62.1433 83.4183 66.8776 83.9632C66.7378 84.272 66.6892 84.6231 66.8046 84.9561C67.1693 86.0399 67.461 87.154 67.7223 88.268C67.8135 88.6616 67.8925 89.0491 67.9715 89.4487C68.1781 89.152 68.3179 88.8311 68.3179 88.4497C68.3179 88.8311 68.1842 89.152 67.9715 89.4487C67.9897 89.5395 68.014 89.6303 68.0262 89.7212C68.0505 89.8544 68.0748 89.9876 68.093 90.1208C68.6278 89.6182 69.114 89.0733 69.5273 88.4557C69.114 89.0733 68.6218 89.6182 68.093 90.1208C68.1173 90.2479 68.1417 90.3811 68.1599 90.5083C68.1781 90.6294 68.1964 90.7504 68.2146 90.8776C68.2146 90.8958 68.2146 90.9079 68.2207 90.92C68.2207 90.9442 68.2207 90.9745 68.2328 91.029C68.3422 92.0038 68.3361 92.9483 68.2997 93.9231C68.2997 93.9534 68.2936 93.9897 68.2814 94.026C68.2632 94.135 68.2389 94.25 68.2085 94.359C68.1842 94.462 68.1477 94.5649 68.1173 94.6739C68.1113 94.692 68.1052 94.7041 68.0991 94.7223C68.1113 94.7102 68.1113 94.6981 68.1234 94.686C68.1113 94.6981 68.1052 94.7163 68.093 94.7344C68.0627 94.8192 68.0383 94.8434 68.0444 94.8192C68.014 94.8737 67.9897 94.9282 67.9654 94.9766C67.9472 94.9887 67.929 95.0069 67.9046 95.0311C67.935 95.0129 67.9289 95.0432 67.8317 95.1098C67.8135 95.128 67.8013 95.1461 67.7952 95.1582C67.8013 95.1401 67.8135 95.128 67.8196 95.1159C67.8074 95.1219 67.7952 95.128 67.7831 95.1401C66.0875 96.1028 67.6129 98.7244 69.3146 97.7557C71.308 96.6235 71.4964 93.9836 71.3566 91.9493C71.2046 89.7817 70.7367 87.6262 70.1472 85.5374C70.0196 85.0772 69.8859 84.6231 69.7339 84.169C69.7218 84.1388 69.7035 84.1085 69.6914 84.0782C73.1372 83.9087 76.4615 82.7765 79.7251 81.6684C82.8184 80.6149 85.8875 79.4888 88.9262 78.3081C89.6919 78.0114 90.2207 77.2909 89.9897 76.4433L89.9958 76.413ZM68.2997 93.8928C68.3118 93.7899 68.3057 93.7475 68.2997 93.8928Z" fill="var(--fill-0, #323232)"/>
<path id="Vector_65" d="M100.1 7.25054C94.1257 3.3029 86.8572 1.64392 79.7467 2.52185C72.6423 3.39977 65.9936 6.44527 60.524 11.0226C57.4793 13.5716 54.86 16.6171 52.7876 19.9956C52.1008 21.1097 53.055 22.1571 54.0638 22.2298C54.3251 21.8907 54.6108 21.5517 54.939 21.2247C54.6108 21.5517 54.3251 21.8847 54.0638 22.2298C54.5622 22.2661 55.0727 22.0724 55.4069 21.5214C62.0191 10.738 75.3224 3.45426 88.1152 5.67633C91.871 6.33023 95.3837 7.75913 98.5621 9.85404C99.0666 10.1871 99.5649 10.1689 99.9599 9.94486C100.841 9.45444 101.218 7.9771 100.1 7.23843V7.25054Z" fill="var(--fill-0, #323232)"/>
<path id="Vector_66" d="M101.406 11.9248C101.576 12.2396 101.874 12.5061 102.208 12.6574C101.911 12.4455 101.649 12.1973 101.406 11.9248Z" fill="var(--fill-0, #323232)"/>
<path id="Vector_67" d="M121.201 46.0551C120.484 43.0944 119.718 40.1457 118.977 37.1911C118.211 34.1395 117.439 31.088 116.673 28.0364C115.974 25.2513 115.385 22.4056 114.473 19.681C113.537 16.8595 112.012 14.4921 109.873 12.4336C107.94 10.5748 105.151 8.70388 102.361 9.78161C101.595 10.0783 101.067 10.7988 101.298 11.6464C101.322 11.7433 101.365 11.8341 101.413 11.925C101.656 12.1914 101.918 12.4396 102.215 12.6576C102.519 12.7908 102.847 12.8271 103.163 12.706C104.981 12.0037 106.737 13.596 107.971 14.8251C109.654 16.5023 110.839 18.349 111.581 20.6134C112.413 23.1624 112.972 25.8144 113.629 28.4118C114.334 31.2212 115.045 34.0305 115.75 36.8399C116.467 39.6977 117.19 42.5555 117.907 45.4133C118.539 47.926 119.177 50.4629 119.36 53.0543C119.53 55.4883 119.317 57.9949 118.211 60.2048C117.19 62.2392 115.64 63.9164 113.92 65.3816C110.523 68.2878 106.482 70.3404 102.987 73.0952C103.504 72.1628 104.075 71.2667 104.713 70.413C104.725 70.4009 104.731 70.3888 104.744 70.3767C104.816 70.2859 104.883 70.2011 104.956 70.1103C105.09 69.9468 105.224 69.7833 105.363 69.6259C105.655 69.2868 105.959 68.9599 106.269 68.639C106.907 67.9851 107.594 67.3736 108.305 66.8044C108.931 66.3079 108.864 65.1757 108.305 64.6611C107.642 64.0556 106.822 64.1283 106.153 64.6611C105.983 64.7943 105.825 64.9396 105.661 65.0789C105.977 64.3705 106.117 63.5773 106.014 62.772C106.002 62.6812 105.989 62.5964 105.971 62.5117C105.971 62.4632 105.971 62.4209 105.959 62.3724C108.36 60.217 110.11 57.4379 110.323 54.0715C110.499 51.3227 109.478 47.9684 107.126 46.3457C106.129 45.6555 104.956 45.4315 103.783 45.486C103.601 44.2569 101.741 43.5182 100.969 44.8926C100.477 45.7766 99.9485 46.6424 99.4076 47.4961C98.812 43.7907 97.1286 40.2729 94.5943 37.4635C94.2297 37.0579 93.7982 36.9428 93.3971 37.0034C87.6419 33.2919 85.0408 26.3169 83.801 19.8263C83.4242 17.8585 83.1811 15.8908 83.0291 13.8927C82.9684 13.0753 82.3728 12.3791 81.5098 12.3791C81.4794 12.3791 81.449 12.3851 81.4187 12.3912C81.2667 12.2882 81.0905 12.2035 80.8717 12.155C75.6634 10.9925 70.6618 12.7968 66.1949 15.3882C62.2203 17.6951 58.5314 20.6316 55.827 24.3734C54.3562 26.4017 53.2562 28.7267 52.7336 31.1788C52.5634 31.978 52.9828 32.5774 53.554 32.8741C53.7303 32.0083 53.9794 31.1546 54.3441 30.3311C53.9794 31.1546 53.7303 32.0022 53.554 32.8741C54.1739 33.195 54.9822 33.1466 55.4076 32.5714C55.4562 32.9044 55.5899 33.2253 55.827 33.4372C56.459 34.0124 57.2734 33.9821 57.9176 33.4796C57.9601 33.4796 58.0816 33.3706 58.1303 33.3403C58.185 33.31 58.2336 33.2798 58.2883 33.2495C58.2761 33.2495 58.264 33.2495 58.2518 33.2495C58.27 33.2495 58.2883 33.2374 58.3065 33.2374C58.4584 33.1587 58.4341 33.1889 58.3673 33.2192C58.4524 33.1889 58.5435 33.1526 58.6225 33.1344C58.6772 33.1223 58.7319 33.1102 58.7866 33.0981C58.9142 33.0981 59.0419 33.08 59.1756 33.086C59.2424 33.086 59.3032 33.086 59.37 33.0921C59.3883 33.0921 59.4977 33.1042 59.5463 33.1102C59.6192 33.1223 59.6861 33.1344 59.759 33.1526C59.9109 33.1829 60.0568 33.2253 60.2026 33.2676C60.3363 33.304 60.464 33.3524 60.5977 33.3948C60.6828 33.4251 60.7618 33.4553 60.8408 33.4856C60.8651 33.4917 60.8651 33.4977 60.8833 33.4977C61.1386 33.5946 61.3938 33.7339 61.6247 33.861C62.1535 34.1395 62.664 34.4544 63.1562 34.7874C63.8187 35.2294 64.87 34.9387 65.2347 34.2425C65.6419 33.4796 65.3927 32.644 64.6877 32.1718C63.4723 31.3604 62.1352 30.6157 60.7071 30.2645C59.8502 30.0526 59.0115 30.0102 58.1424 30.1434C57.2673 30.2827 56.5076 30.7126 55.833 31.2757C56.7872 27.6671 59.1087 24.664 61.8739 22.1816C63.3933 20.8193 65.0463 19.6265 66.7783 18.5548C68.5104 17.4892 70.3275 16.4599 72.2479 15.7697C74.7518 14.8736 77.4441 14.4679 80.0695 15.0552C80.0816 15.0552 80.0877 15.0552 80.0999 15.0552C80.7927 22.5388 82.7131 30.4522 87.812 36.1799C89.2949 37.845 91.0756 39.2557 93.0507 40.2911C95.6822 43.5727 96.9098 47.7988 96.5634 51.9887C96.4601 53.2238 98.3562 54.0896 99.1584 53.0603C100.204 51.7162 101.182 50.3236 102.1 48.8947C102.118 48.8947 102.142 48.8887 102.161 48.8826C102.604 48.7252 103.212 48.5375 103.595 48.4951C103.771 48.4709 103.953 48.4709 104.13 48.4709C104.184 48.4709 104.61 48.5193 104.585 48.5072C105.175 48.6223 105.448 48.7797 105.825 49.149C105.856 49.1793 106.044 49.3912 106.081 49.4215C106.172 49.5426 106.257 49.6697 106.336 49.7969C106.409 49.9119 106.469 50.033 106.536 50.1481C106.555 50.1844 106.658 50.4084 106.694 50.475C106.913 51.0139 107.071 51.5891 107.187 52.1582C107.77 55.0644 106.451 57.6256 104.427 59.6357C103.832 59.115 103.127 58.7336 102.361 58.5761C100.362 58.1705 98.3197 58.9939 97.2319 60.7377C96.1441 62.4875 96.4054 64.7035 97.6695 66.2716C98.8424 67.7247 100.994 68.3363 102.768 67.7308C102.896 67.6884 103.018 67.64 103.139 67.5855C101.614 69.3534 100.356 71.3454 99.438 73.4767C99.3225 73.7491 99.2557 74.0519 99.2678 74.3485C98.5021 74.6089 98.1192 75.4081 98.2894 76.1771C99.0977 79.822 99.8999 83.4669 100.708 87.1118C100.824 87.6325 100.939 88.1471 101.055 88.6678C101.231 89.467 102.161 89.9332 102.926 89.7274C103.753 89.5034 104.166 88.6678 103.99 87.8626C103.729 86.6819 103.467 85.5073 103.206 84.3266C102.744 82.2317 102.282 80.1429 101.82 78.0479C102.045 77.9813 102.27 77.8602 102.471 77.6423C106.19 73.7612 111.185 71.4665 115.355 68.1243C117.354 66.5259 119.195 64.655 120.484 62.433C121.882 60.0232 122.495 57.2744 122.495 54.5014C122.495 51.6436 121.912 48.8039 121.244 46.0369L121.201 46.0551ZM57.9723 33.419C58.1424 33.2737 57.9723 33.4553 57.9115 33.4614C57.9297 33.4432 57.954 33.4372 57.9723 33.419ZM104.744 70.3767C104.81 70.2919 104.786 70.3161 104.744 70.3767ZM102.999 63.4138C102.969 63.5228 102.957 63.65 102.92 63.7589C102.902 63.8074 102.878 63.874 102.86 63.9285C102.86 63.9285 102.86 63.9406 102.853 63.9466C102.793 64.0617 102.72 64.1707 102.653 64.2796C102.623 64.316 102.586 64.3523 102.556 64.3886C102.513 64.4371 102.458 64.4794 102.404 64.5218C102.404 64.5339 102.373 64.5763 102.313 64.6126C102.294 64.6308 102.27 64.649 102.252 64.6732C102.27 64.649 102.282 64.6429 102.294 64.6248C102.215 64.6732 102.142 64.7216 102.057 64.764C102.039 64.7761 101.984 64.7943 101.942 64.8185C101.82 64.8609 101.699 64.8851 101.577 64.9154C101.602 64.9154 101.62 64.9154 101.644 64.9154C101.614 64.9154 101.583 64.9154 101.547 64.9154C101.535 64.9154 101.523 64.9214 101.51 64.9275C101.456 64.9396 101.431 64.9335 101.425 64.9275C101.407 64.9275 101.389 64.9275 101.377 64.9275C101.316 64.9275 101.261 64.9275 101.2 64.9275C101.176 64.9275 101.097 64.9214 101.03 64.9154C101.018 64.9154 101.006 64.9154 101 64.9154C100.927 64.8972 100.86 64.8851 100.793 64.8609C100.739 64.8427 100.684 64.8246 100.629 64.8064C100.532 64.7519 100.435 64.7095 100.344 64.649C100.301 64.6187 100.252 64.5824 100.198 64.5521C100.192 64.546 100.186 64.54 100.173 64.5339C100.076 64.4431 99.991 64.3523 99.8999 64.2554C99.8755 64.213 99.8452 64.1707 99.8148 64.1222C99.7783 64.0677 99.7479 64.0072 99.7175 63.9527C99.7175 63.9769 99.7297 63.9951 99.7358 64.0253C99.7297 63.9951 99.7175 63.9648 99.7054 63.9285C99.7054 63.9164 99.6932 63.9103 99.6872 63.8982C99.6507 63.8376 99.6507 63.7892 99.6689 63.8074C99.6325 63.7105 99.596 63.6136 99.5778 63.5167C99.5778 63.4986 99.5656 63.432 99.5595 63.3835C99.5535 63.2564 99.5595 63.1293 99.5595 62.996C99.5717 62.9416 99.5778 62.881 99.5899 62.8326C99.6021 62.7781 99.6203 62.7236 99.6325 62.6691C99.6446 62.6388 99.6568 62.6025 99.6628 62.5722C99.7236 62.4753 99.7662 62.3543 99.8269 62.2634C99.8512 62.2271 99.8755 62.1908 99.8999 62.1484C99.9849 62.0636 100.064 61.9728 100.155 61.888C100.185 61.8638 100.216 61.8396 100.246 61.8154C100.258 61.8093 100.271 61.7972 100.283 61.7912C100.38 61.7306 100.55 61.6761 100.635 61.5974C100.684 61.5793 100.739 61.5671 100.787 61.549C100.854 61.5308 100.921 61.5187 100.994 61.5005C101.14 61.5066 101.31 61.4763 101.45 61.4824C101.45 61.4824 101.462 61.4824 101.468 61.4824C101.535 61.4945 101.62 61.5066 101.644 61.5127C101.699 61.5248 101.753 61.5429 101.808 61.555C101.839 61.5671 101.875 61.5732 101.905 61.5853C102.015 61.6519 102.148 61.7064 102.252 61.773C102.288 61.7972 102.325 61.8214 102.361 61.8517C102.367 61.8578 102.373 61.8638 102.379 61.8699C102.446 61.9304 102.513 62.0091 102.574 62.0818C102.574 62.0697 102.623 62.1 102.665 62.1726C102.665 62.1726 102.665 62.1726 102.665 62.1787C102.683 62.1968 102.702 62.2211 102.72 62.2392C102.695 62.2211 102.689 62.215 102.671 62.1968C102.72 62.2755 102.768 62.3482 102.811 62.433C102.823 62.4511 102.841 62.4996 102.866 62.5419C102.878 62.5722 102.884 62.6025 102.896 62.6328C102.932 62.7478 102.951 62.8689 102.975 62.99C102.975 63.0626 102.987 63.1293 102.987 63.2019C102.987 63.2685 102.987 63.3291 102.981 63.3957L102.999 63.4138Z" fill="var(--fill-0, #323232)"/>
<path id="Vector_68" d="M11.5156 85.1196C11.5825 85.1196 11.5582 85.1196 11.5156 85.1196Z" fill="var(--fill-0, #323232)"/>
<path id="Vector_69" d="M36.1432 13.5596C36.1432 13.5596 36.1311 13.5596 36.125 13.5596C36.1311 13.5596 36.1372 13.5596 36.1432 13.5596Z" fill="var(--fill-0, #323232)"/>
<path id="Vector_70" d="M27.6701 54.5371C27.6701 54.5371 27.7248 54.5371 27.7552 54.5371C27.737 54.5371 27.7066 54.5372 27.6641 54.5311L27.6701 54.5371Z" fill="var(--fill-0, #323232)"/>
<path id="Vector_71" d="M30.792 43.0699C30.7312 39.4068 31.6306 35.768 32.5969 32.1836C33.5875 28.4903 34.7301 24.7364 36.6323 21.4426C37.6107 19.7534 34.9853 18.2216 34.0069 19.9169C31.971 23.4407 30.7129 27.4731 29.6616 31.3844C28.6527 35.1443 27.6864 39.1586 27.7533 43.076C27.7837 45.0195 30.8223 45.0256 30.792 43.076V43.0699Z" fill="var(--fill-0, #323232)"/>
<path id="Vector_72" d="M36.6392 113.025C36.3536 112.674 35.9221 112.432 35.4663 112.396C35.3265 113.946 35.1746 115.489 34.889 116.9C35.1746 115.489 35.3204 113.946 35.4663 112.396C35.0956 112.365 34.7006 112.468 34.3481 112.783C30.9873 115.768 27.2437 118.602 22.7039 119.413C18.7232 120.121 13.4299 119.068 11.8254 114.848C11.5337 114.085 10.7984 113.558 9.95361 113.788C9.65582 113.867 9.38234 114.067 9.17571 114.315C8.89615 114.4 8.64091 114.569 8.44643 114.823C7.94809 116.482 7.51052 118.202 6.93317 119.921C7.51052 118.202 7.94809 116.476 8.44643 114.823C8.34312 114.957 8.25196 115.102 8.19118 115.29C5.82102 122.458 3.45085 129.627 1.08069 136.796C0.746435 137.795 0.418258 138.8 0.0840041 139.799C-0.219863 140.713 0.34533 141.367 1.06246 141.579C1.80389 141.797 2.70334 141.537 3.01328 140.604C5.38345 133.436 7.75361 126.267 10.1238 119.098C10.2149 118.832 10.3 118.559 10.3912 118.293C12.3785 120.805 15.4658 122.228 18.7779 122.543C23.0564 122.955 27.2315 121.599 30.8111 119.328C31.7409 118.741 32.6343 118.093 33.5033 117.415C33.0961 119.28 32.689 121.145 32.2818 123.015C31.2061 127.92 30.1365 132.83 29.0608 137.734C28.8177 138.86 28.5685 139.981 28.3254 141.107C28.1735 141.803 28.4713 142.348 28.9271 142.669H30.8293C31.0298 142.493 31.1818 142.245 31.2547 141.912C31.9293 138.83 32.6039 135.754 33.2724 132.673C34.3481 127.768 35.4177 122.858 36.4934 117.954C36.7365 116.828 36.9856 115.707 37.2287 114.581C37.3807 113.891 37.089 113.346 36.6332 113.025H36.6392Z" fill="var(--fill-0, #323232)"/>
<path id="Vector_73" d="M28.9219 142.675C29.4931 143.08 30.3136 143.135 30.8241 142.675H28.9219Z" fill="var(--fill-0, #323232)"/>
<path id="Vector_74" d="M35.1962 105.972C35.1901 106.014 35.178 106.062 35.1719 106.105C35.3056 106.002 35.4454 105.905 35.5851 105.808C35.4514 105.844 35.3238 105.893 35.1962 105.972Z" fill="var(--fill-0, #323232)"/>
<path id="Vector_75" d="M35.5879 105.809C35.4481 105.905 35.3083 106.002 35.1746 106.105C34.889 107.728 34.5365 109.332 34.2813 110.834C34.7735 110.416 35.2658 109.998 35.7459 109.568C35.8431 108.757 35.9525 107.964 36.1045 107.213C35.9525 107.97 35.8371 108.763 35.7459 109.568C36.1956 109.163 36.6332 108.757 37.0708 108.333C38.2619 107.177 36.8884 105.463 35.5879 105.809Z" fill="var(--fill-0, #323232)"/>
<path id="Vector_76" d="M50.7531 19.9289C50.352 17.9369 49.6349 15.7149 48.0912 14.2981C46.894 13.2022 45.2288 12.9418 43.7155 12.524C42.0868 12.076 40.4581 11.6219 38.8294 11.1739C38.6713 11.1315 38.5255 11.1194 38.3857 11.1194C37.0426 10.411 35.4625 10.3807 33.8885 11.186C31.2631 12.5301 29.4399 15.4061 28.0785 17.9006C25.9697 21.7574 24.5051 25.9836 23.4476 30.2339C22.299 34.8355 21.5818 39.6126 21.5758 44.3655C21.5758 47.738 21.831 51.4737 23.4476 54.5131C24.3045 56.1297 25.7934 57.377 27.5316 57.5526C27.3067 57.7342 27.1365 57.9825 27.0636 58.2913C26.6686 59.9623 26.2796 61.6334 25.8846 63.2985C25.2708 62.7051 24.6509 62.1057 24.0493 61.5002C23.1863 60.6344 22.457 59.7565 21.3144 59.2539C20.1415 58.7332 18.7802 58.3276 17.4857 58.594C16.3006 58.8422 15.5957 59.9563 15.0122 60.925C14.6537 61.5184 14.3133 62.1905 14.2769 62.8928C14.2343 63.686 14.5504 64.5639 14.8299 65.2965C15.2189 66.3197 15.6868 67.349 16.3128 68.2512C16.6957 68.8082 17.3581 69.1049 17.9962 68.9475C18.1299 68.9172 18.2636 68.8688 18.3912 68.7961C19.0598 68.4086 19.4062 67.4035 18.9382 66.7254C18.6161 66.2531 18.3365 65.7506 18.0874 65.236C17.8807 64.8121 17.7045 64.3762 17.5647 63.9221C17.4796 63.6496 17.4067 63.3772 17.3459 63.0987C17.3459 63.0744 17.3459 63.0442 17.3338 63.0442C17.3338 63.0381 17.3338 63.0321 17.3338 63.026C17.5404 62.6748 17.7167 62.3115 17.9537 61.9725C18.0509 61.8272 18.1846 61.6819 18.2819 61.5244C18.3609 61.5244 18.6222 61.5426 18.6283 61.5366C19.0901 61.6032 19.5702 61.7485 19.9957 61.9362C19.9227 61.9059 20.2691 62.0815 20.3299 62.1178C20.3907 62.1541 20.6459 62.3297 20.6216 62.2934C21.0227 62.6446 21.3691 63.0805 21.7459 63.4559C22.5846 64.3096 23.4476 65.127 24.3045 65.9565C26.0365 67.6336 27.7443 69.3471 29.1117 71.3391C29.3122 71.6297 29.5067 71.9264 29.6951 72.2291C29.7133 72.2533 29.7316 72.2896 29.7437 72.3139C29.7802 72.5439 29.8774 72.7377 30.005 72.9133C29.9868 73.0889 29.9078 73.3068 29.762 73.5611C29.3062 74.3422 28.6194 74.8508 27.7807 74.9597C27.5255 74.9961 27.3128 75.1293 27.1365 75.3049C25.8299 73.9305 24.5476 72.5137 23.1133 71.2846C22.2321 70.5338 21.2111 69.6922 20.0382 69.4561C19.4244 69.335 18.8531 69.4318 18.3122 69.6559C18.689 70.5338 19.0841 71.4238 19.5642 72.3986C19.5946 72.3926 19.5946 72.3986 19.5642 72.4047C19.5763 72.4289 19.5824 72.4471 19.5946 72.4713C19.6371 72.4955 19.6918 72.5258 19.7222 72.5439C20.5669 73.0525 21.2658 73.658 21.983 74.3603C23.5874 75.9345 25.0946 77.5996 26.6929 79.1798C27.6045 80.0759 28.5222 80.966 29.4459 81.8499C30.1509 82.522 30.5642 83.3939 30.2056 84.2294C30.2056 84.2294 30.2056 84.2355 30.1995 84.2415C30.1691 84.2718 30.0415 84.3747 30.0172 84.405C29.9564 84.4413 29.6829 84.5988 29.5675 84.6654C29.1907 84.8773 28.7896 85.0468 28.431 85.289C28.3338 85.3556 28.2365 85.4283 28.1515 85.507C26.5653 83.854 25.052 82.1285 23.5084 80.4453C21.8796 78.6652 20.0625 76.1828 17.3459 76.3644C17.2426 76.3705 17.1454 76.3886 17.0481 76.4008C16.9448 75.541 17.194 74.7842 17.6437 74.0879C18.0205 73.5006 18.6404 72.9435 19.1448 72.6347C19.2542 72.5681 19.3697 72.5076 19.4852 72.441C19.5277 72.4531 19.5702 72.4592 19.6006 72.4713C19.5885 72.4471 19.5824 72.4289 19.5702 72.4047C19.5581 72.4047 19.5459 72.4107 19.5277 72.4168C19.5399 72.4168 19.5399 72.4107 19.5459 72.4047C19.552 72.4047 19.5581 72.4047 19.5642 72.4047C19.0841 71.4238 18.689 70.5338 18.3122 69.6619C18.0144 69.783 17.7349 69.9465 17.4553 70.1281C14.9819 71.775 13.6144 74.4451 14.1432 77.4119C14.1614 77.533 14.21 77.6359 14.2647 77.7388C13.0675 78.865 12.3139 80.5179 11.7487 82.0921C11.3537 82.074 10.9526 82.1103 10.5636 82.2374C9.32384 82.6492 8.53379 83.7572 7.88959 84.8288C7.18462 85.9974 6.4128 87.0267 6.07246 88.3829C5.7686 89.5939 5.77467 90.8472 6.04815 92.0642C6.55257 94.3286 7.95644 96.3085 9.2813 98.1673C10.047 99.245 10.831 100.311 11.5178 101.449C11.8642 102.024 12.1984 102.617 12.4598 103.235C12.4962 103.314 12.6299 103.683 12.6968 103.877C12.7454 104.022 12.7819 104.18 12.8305 104.325C12.7879 105.669 12.6421 107.013 12.5388 108.357C12.4537 108.363 12.3625 108.375 12.2714 108.4C11.8156 108.521 11.4023 108.92 11.22 109.387C11.615 109.447 12.0161 109.835 12.4111 110.228C12.0161 109.835 11.615 109.441 11.22 109.387C11.1106 109.665 11.0924 109.974 11.2078 110.264C12.1255 112.589 13.4078 114.757 15.5106 116.192C17.1272 117.294 19.1631 117.73 21.1017 117.566C25.289 117.203 29.1056 114.878 32.3631 112.384C33.0194 111.881 33.6575 111.36 34.2896 110.834C34.5387 109.332 34.8912 107.728 35.1829 106.105C34.089 106.928 33.147 107.891 32.4664 109.023C33.147 107.891 34.0829 106.928 35.1829 106.105C35.189 106.063 35.2012 106.014 35.2073 105.972C35.11 106.032 35.0189 106.105 34.9277 106.19C32.3874 108.654 29.9017 110.706 26.8327 112.45C25.21 113.371 23.8548 114.006 22.0133 114.394C21.8189 114.436 21.6244 114.472 21.4238 114.503C21.4056 114.503 21.3934 114.503 21.3752 114.509C21.2841 114.521 21.1929 114.527 21.0957 114.539C20.6642 114.569 20.2327 114.588 19.8012 114.557C19.7526 114.557 19.4609 114.521 19.4183 114.521C19.2603 114.497 19.1084 114.466 18.9564 114.43C18.7498 114.382 18.5493 114.327 18.3487 114.261C18.2575 114.23 18.1725 114.2 18.0813 114.164C18.0631 114.158 18.0509 114.152 18.0448 114.152C18.0327 114.146 18.0144 114.133 17.9901 114.121C17.0481 113.667 16.5863 113.304 15.8874 112.499C15.3526 111.887 14.8542 111.046 14.4531 110.192C15.0791 110.004 15.4863 109.423 15.5349 108.751C15.6261 107.461 15.7233 106.165 15.8144 104.876C15.9421 103.108 15.0244 101.413 14.1249 99.9231C13.0249 98.1007 11.6636 96.4417 10.5211 94.6495C9.48185 93.0269 8.66749 91.4466 8.89235 89.6362C8.91058 89.4909 9.0686 88.8552 9.2023 88.5161C9.37854 88.0681 9.69456 87.5474 9.99843 87.1115C10.3388 86.621 10.6305 86.0943 10.989 85.616C10.9708 85.6402 11.22 85.3435 11.2868 85.2829C11.299 85.2708 11.3354 85.2285 11.3598 85.1982C11.378 85.18 11.4023 85.1619 11.4266 85.1437C11.4509 85.1316 11.4813 85.1255 11.5117 85.1195C11.4995 85.1195 11.4813 85.1195 11.457 85.1195C11.5117 85.1195 11.5664 85.1195 11.6272 85.1195C11.694 85.1437 12.0343 85.2224 12.0708 85.2345C12.6421 85.4404 13.1647 85.8036 13.6752 86.1245C14.5868 86.6937 15.4863 87.281 16.3614 87.9107C17.1636 88.4859 17.6498 88.8673 18.3487 89.4183C19.1813 90.0782 20.0078 90.7382 20.8465 91.3921C21.4178 91.8401 21.9951 92.2821 22.5725 92.7181C23.0161 93.0511 23.7575 93.5052 24.0371 93.8442C24.0493 93.8685 24.1404 94.0138 24.1526 94.038C24.2376 94.2741 24.0796 93.8503 24.1586 94.0864C24.1708 94.1228 24.183 94.2136 24.189 94.262C24.189 94.3407 24.1951 94.4194 24.189 94.486C24.189 94.5042 24.1769 94.5526 24.1708 94.595C24.1526 94.6798 24.1343 94.7585 24.11 94.8372C24.0249 95.1218 24.0614 95.0552 23.9277 95.2731C23.8062 95.4729 23.6299 95.7272 23.6117 95.7393C23.5509 95.8059 23.1376 96.1692 23.2835 96.0602C23.2045 96.1147 23.1194 96.1692 23.0283 96.2177C22.9918 96.2358 22.9675 96.254 22.9493 96.2601C22.931 96.2601 22.9067 96.2661 22.8581 96.2843C22.8216 96.2964 22.7973 96.3024 22.7791 96.3085C22.7244 96.3085 22.6515 96.3024 22.615 96.3024C22.1957 96.1995 21.7034 95.8907 21.2415 95.6546C20.6156 95.3397 19.9957 95.0067 19.3758 94.6737C17.7349 93.7837 16.1062 92.8573 14.5078 91.8946C12.8305 90.8835 11.299 93.4991 12.9763 94.5103C14.5443 95.4548 16.1365 96.363 17.747 97.2349C19.941 98.4276 22.5238 100.311 24.9365 98.579C25.9271 97.8706 26.7172 96.7444 27.0515 95.5335C28.8747 95.4063 30.5399 94.0985 31.2387 92.3972C31.9012 90.7806 31.3725 89.3517 30.4669 88.0923C30.5399 87.9228 30.5824 87.7351 30.6006 87.5474C30.941 87.3718 31.2813 87.2023 31.5973 86.9843C32.8128 86.1488 33.4144 84.8773 33.3597 83.3878C33.305 81.7834 32.4846 80.5906 31.3664 79.5128C30.7283 78.8953 30.0901 78.2777 29.4581 77.6541C31.6095 76.8427 33.4813 74.2937 32.9343 72.0535C32.9161 71.9808 32.8857 71.9142 32.8675 71.8476C33.4266 69.777 33.9857 67.7123 34.5448 65.6416C34.7089 65.5084 34.873 65.3813 35.031 65.2783C35.4929 64.9817 35.6327 64.8908 36.0216 64.7879C36.0216 64.7879 36.2161 64.7576 36.3133 64.7697C36.4106 64.7819 36.526 64.8121 36.6294 64.8485C36.9454 64.9574 37.231 65.133 37.4498 65.3934C38.173 66.2592 38.0393 67.5791 38.0393 68.6568C38.0454 70.0312 37.9846 71.3633 37.6564 72.6529C37.2249 74.3603 36.6476 75.9709 36.4045 77.7328C36.1189 79.7853 36.1067 81.8318 36.4835 83.8783C37.1338 87.4263 38.5923 91.0228 37.3039 94.6192C36.6901 96.3388 35.4382 97.9554 34.2592 99.3358C33.0255 100.777 31.6459 102.139 29.9929 103.09C28.3034 104.065 29.8288 106.686 31.5244 105.705C33.0559 104.821 34.4172 103.641 35.6266 102.345C35.6752 101.316 35.6448 100.305 35.4868 99.3358C35.6509 100.305 35.6813 101.316 35.6266 102.345C35.8089 102.151 35.9912 101.951 36.1614 101.752C37.4802 100.256 38.72 98.6153 39.6255 96.8352C41.7465 92.6757 40.6039 88.1044 39.5708 83.8238C39.0846 81.8076 39.1211 79.6582 39.4735 77.6238C39.7896 75.8074 40.5371 74.106 40.8045 72.2896C41.0597 70.5459 41.1691 68.7537 40.9929 66.9918C40.8045 65.133 40.2515 63.4498 38.5559 62.4205C37.5774 61.8272 36.5564 61.6819 35.5658 61.8514C35.5901 61.7545 35.6144 61.6637 35.6448 61.5668C35.7846 61.0582 35.9183 60.5496 36.0581 60.035C36.4774 60.0834 36.8968 60.0895 37.3282 60.0168C39.1758 59.7202 40.7316 58.37 41.9106 57.0016C43.7034 54.9188 45.0465 52.4848 46.1647 49.9843C49.094 43.421 50.7835 36.2159 51.2271 29.0533C51.4155 26.0138 51.3487 22.9199 50.747 19.9289H50.7531ZM17.2973 63.0805C17.2973 63.0805 17.2973 63.0805 17.2912 63.0865C17.2912 63.0865 17.2912 63.0805 17.2973 63.0744V63.0805ZM18.1846 61.5123C18.1846 61.5123 18.1968 61.5123 18.2272 61.5063C18.2028 61.5184 18.1846 61.5184 18.1846 61.5123ZM18.2819 61.5123C18.2819 61.5123 18.2819 61.5123 18.2879 61.5123C18.2879 61.5123 18.2879 61.5123 18.2758 61.5123H18.2819ZM21.3509 114.515C21.278 114.527 21.1747 114.545 21.3509 114.515ZM11.4509 85.1195C11.4509 85.1195 11.4205 85.1195 11.4023 85.1195C11.4205 85.1195 11.4388 85.1195 11.457 85.1195H11.4509ZM28.1758 91.7433C27.8111 92.2155 27.2946 92.5243 26.7719 92.5183C26.7111 92.4032 26.6443 92.2942 26.5653 92.1853C26.1095 91.5435 25.4774 91.1317 24.8575 90.6655C24.2316 90.1993 23.6117 89.721 22.9918 89.2427C22.068 88.5222 21.1564 87.7896 20.2388 87.063C18.4338 85.6402 16.568 84.2779 14.5807 83.1154C15.0548 81.7531 16.1669 78.6289 18.1907 79.5431C19.1509 79.973 19.862 80.9781 20.5487 81.7289C21.5089 82.7763 22.4691 83.8238 23.4294 84.8712C24.3653 85.8884 25.2829 86.9298 26.2371 87.9288C26.8813 88.607 27.6288 89.2245 28.1515 90.0056C28.5951 90.6716 28.668 91.0894 28.1636 91.7372L28.1758 91.7433ZM30.1934 84.2658C30.1509 84.3324 30.0658 84.405 30.1934 84.2658ZM30.1995 87.0751C30.1995 87.0751 30.1995 87.0509 30.1995 87.063C30.1995 87.063 30.1995 87.0691 30.1995 87.0751ZM27.3857 54.4526C27.6045 54.5313 27.4647 54.495 27.3857 54.4526ZM27.8537 54.5434C27.8172 54.5434 27.7868 54.5434 27.7504 54.5434C27.8415 54.5495 27.7504 54.5555 27.6653 54.5434C27.6288 54.5434 27.5984 54.5434 27.562 54.5434C27.6045 54.5434 27.6288 54.5434 27.6592 54.5434C27.6288 54.5434 27.6045 54.5313 27.5863 54.5253C27.5194 54.495 27.4404 54.4768 27.3675 54.4526C27.2702 54.392 27.0332 54.2225 26.9968 54.2104C26.8448 54.0772 26.7051 53.9319 26.5713 53.7805C26.5349 53.7321 26.4923 53.6837 26.4802 53.6594C26.4133 53.5505 26.3404 53.4475 26.2736 53.3385C26.1338 53.1085 26.0122 52.8663 25.8907 52.618C25.8664 52.5696 25.8542 52.5393 25.8421 52.5212C25.836 52.4969 25.8299 52.4848 25.8117 52.4485C25.757 52.3092 25.7023 52.1639 25.6537 52.0186C25.5443 51.7159 25.4531 51.401 25.362 51.0923C24.9426 49.5786 24.7603 48.0831 24.6752 46.521C24.4504 42.5007 24.8575 38.4441 25.6172 34.4964C26.4133 30.3671 27.5559 26.2379 29.2575 22.3871C30.4548 19.6686 31.8829 16.8834 33.9675 14.8854C34.168 14.6916 34.3747 14.5039 34.5934 14.3283C34.6117 14.3102 34.6178 14.3041 34.6299 14.2981C34.6481 14.286 34.6664 14.2738 34.6968 14.2496C34.8001 14.177 34.9034 14.1104 35.0067 14.0438C35.1708 13.9408 35.347 13.85 35.5172 13.7653C35.5172 13.7834 35.9183 13.626 36.0155 13.6018C36.052 13.5897 36.0885 13.5897 36.1189 13.5836C35.9912 13.6078 36.052 13.5897 36.1371 13.5836C36.1796 13.5776 36.2222 13.5655 36.2647 13.5594C36.2161 13.5715 36.1736 13.5776 36.1432 13.5836C36.1857 13.5836 36.2282 13.5715 36.2586 13.5776C36.3376 13.5836 36.441 13.5897 36.526 13.5836C36.599 13.6199 36.7327 13.6442 36.8178 13.6623C36.8178 13.6623 36.8178 13.6623 36.8238 13.6623C36.915 13.7108 37.0001 13.7653 37.0912 13.8137C37.1277 13.8319 37.1459 13.844 37.1702 13.8561C37.1763 13.8621 37.1885 13.8742 37.2067 13.8985C37.2857 13.9772 37.3708 14.0498 37.4498 14.1285C37.4802 14.1588 37.6017 14.3041 37.6503 14.3586C37.778 14.5342 37.8995 14.7158 38.0089 14.9035C38.0758 15.0186 38.1426 15.1397 38.2034 15.2608C38.2216 15.2971 38.3553 15.5817 38.3736 15.618C38.5012 15.9268 38.6106 16.2477 38.7139 16.5686C39.2061 18.1549 39.4249 19.7594 39.5282 21.3941C39.82 26.0683 39.2426 30.7728 38.252 35.332C37.3647 39.322 36.1675 43.2878 34.3929 46.9811C33.1774 49.518 31.7857 52.1216 29.5796 53.8411C29.5371 53.8653 29.2636 54.059 29.2028 54.0954C29.0387 54.1983 28.8686 54.2831 28.6984 54.3678C28.662 54.3678 28.3277 54.5071 28.2426 54.5253C28.1454 54.5495 28.0421 54.5676 27.9448 54.5858C28.3946 54.495 27.9752 54.5737 27.8597 54.5676L27.8537 54.5434ZM31.8283 64.0735C30.8376 65.127 30.1205 66.459 30.3211 67.9242C30.3211 67.9484 30.3332 67.9666 30.3332 67.9848C29.6708 67.1613 28.9597 66.3803 28.2305 65.6174C28.4128 65.4418 28.5465 65.2299 28.6133 64.9635C29.0144 63.25 29.4216 61.5305 29.8227 59.817L29.9929 59.0965C30.0476 58.8725 30.0415 58.6424 29.9929 58.4184C31.0078 58.703 32.0227 58.9875 33.0316 59.2721C33.0559 59.2782 33.0863 59.2903 33.1106 59.2963C32.6791 60.8887 32.2476 62.4811 31.8222 64.0735H31.8283ZM48.2796 26.7283C48.2006 33.4126 46.7785 40.1757 44.3901 46.412C43.4299 48.9186 42.257 51.3829 40.7255 53.6049C40.1785 54.4042 39.6376 55.0823 38.878 55.8028C38.726 55.9481 38.568 56.0874 38.41 56.2206C38.41 56.2206 38.3067 56.2993 38.2459 56.3477C38.1852 56.3901 38.094 56.4567 38.094 56.4567C37.9603 56.5475 37.8205 56.6323 37.6807 56.717C37.5774 56.7715 37.4741 56.826 37.3708 56.8805C37.3526 56.8866 37.3526 56.8926 37.3404 56.8987C37.3404 56.8987 37.3343 56.8987 37.3282 56.8987C37.1581 56.9532 36.994 57.0016 36.8238 57.05C36.757 57.0682 36.6901 57.0743 36.6233 57.0864C37.0548 56.9956 36.7023 57.0743 36.5868 57.0682C36.52 57.0682 36.441 57.0561 36.368 57.0622C36.3376 57.05 36.3012 57.044 36.2708 57.0319C35.5901 56.8079 34.8852 56.6444 34.1984 56.4506C33.4448 56.2387 32.6973 56.0268 31.9437 55.8149C33.3962 54.5737 34.5509 52.8965 35.4929 51.3405C37.6625 47.7501 39.1575 43.7237 40.2879 39.7034C40.6222 38.5167 40.92 37.3179 41.1874 36.113C42.184 31.5417 42.8039 26.8191 42.6155 22.1389C42.5244 19.8744 42.3117 17.283 41.4669 15.0428C42.8161 15.4182 44.1592 15.7936 45.5084 16.1629C45.557 16.1871 45.6117 16.2113 45.6603 16.2416C45.7211 16.2779 45.8912 16.4111 45.9338 16.4354C46.031 16.5262 46.1343 16.6231 46.2316 16.7199C46.2498 16.7381 46.268 16.7623 46.2923 16.7865C46.3045 16.8047 46.42 16.944 46.4382 16.9742C47.0034 17.8461 47.1675 18.2397 47.4653 19.2266C48.1945 21.6605 48.3282 24.1974 48.2979 26.7343L48.2796 26.7283Z" fill="var(--fill-0, #323232)"/>
<path id="Vector_77" d="M65.7179 66.4228C65.8759 66.447 66.0339 66.4772 66.1919 66.5075C66.5201 66.5681 66.8483 66.6407 67.1764 66.7134C67.8753 66.8708 68.5682 67.0403 69.2671 67.1978C70.0389 67.3733 70.9505 66.9616 71.1389 66.1382C71.3151 65.3692 70.9079 64.461 70.0753 64.2734C68.477 63.9161 66.8787 63.462 65.2439 63.3409C63.7731 63.2319 61.9803 63.7345 61.6704 65.4056C61.5306 66.1806 61.8831 67.0767 62.7339 67.2704C63.4328 67.4278 64.3201 67.0888 64.5571 66.3562C64.6361 66.3562 64.7151 66.3562 64.7334 66.3562C65.0008 66.3562 65.2682 66.3743 65.5295 66.3985C65.5173 66.3985 65.5052 66.3985 65.493 66.3864C65.566 66.4046 65.645 66.4106 65.724 66.4228H65.7179Z" fill="var(--fill-0, #323232)"/>
<path id="Vector_78" d="M65.5859 66.3987C65.5859 66.3987 65.5495 66.3987 65.5313 66.3987C65.8716 66.4838 65.7014 66.417 65.5859 66.3987Z" fill="var(--fill-0, #323232)"/>
<path id="Vector_79" d="M3.56412 9.5694C4.91329 9.98717 7.07682 10.2838 7.9398 11.3676C7.9398 11.3797 8.10389 11.6643 8.09781 11.6583C8.17074 11.8036 8.21328 11.9126 8.26798 12.0821C8.40776 12.4999 8.51107 12.9297 8.59616 13.3657C8.77848 14.2497 8.88787 15.1518 9.11273 16.0237C9.47129 17.4283 11.7321 17.5071 12.042 16.0237C12.3823 14.4252 12.5404 12.6815 13.3486 11.2344C14.0658 9.95084 16.1928 9.89635 17.6028 9.74498C18.4171 9.66022 19.1221 9.10924 19.1221 8.23132C19.1221 7.35339 18.4232 6.74792 17.6028 6.71765C16.2232 6.66921 14.4608 6.64499 13.3122 5.79734C12.358 5.095 12.1271 3.9325 12.0663 2.79423C12.0663 2.75184 12.0724 2.70946 12.0785 2.66708C12.0846 2.55204 12.0785 2.437 12.0481 2.32802C12.0481 2.03134 12.0481 1.74072 12.0481 1.4622C12.0481 -0.4874 9.00942 -0.4874 9.00942 1.4622C9.00942 1.86786 9.01549 2.27958 9.0398 2.6913C8.9608 3.77508 8.85748 5.08289 7.9398 5.73679C6.87627 6.49968 5.21108 6.4573 3.96522 6.58445C2.31218 6.74792 1.83815 9.02448 3.56412 9.55729V9.5694ZM11.1669 7.94069C11.3735 8.11628 11.5984 8.2737 11.8232 8.41901C11.5619 8.63698 11.3127 8.89127 11.0879 9.1819C10.9055 9.41803 10.7475 9.67232 10.6017 9.93268C10.4558 9.69654 10.2917 9.46647 10.1033 9.2485C9.84201 8.95788 9.54422 8.71569 9.2282 8.49167C9.44699 8.37057 9.65361 8.23132 9.85417 8.07389C10.1337 7.85593 10.3707 7.60769 10.5834 7.35339C10.7597 7.55925 10.9481 7.753 11.1608 7.93464L11.1669 7.94069Z" fill="var(--fill-0, #323232)"/>
</g>
</svg>
