<svg preserveAspectRatio="none" width="100%" height="100%" overflow="visible" style="display: block;" viewBox="0 0 222.999 123" fill="none" xmlns="http://www.w3.org/2000/svg">
<g id="Group 164">
<g id="Group">
<path id="Vector" d="M12.8314 17.5015C12.4467 17.1252 12.1272 16.72 11.8514 16.2931C11.59 16.6838 11.2924 17.0529 10.9584 17.4075C10.3994 17.9936 9.76781 18.4639 9.07812 18.8402C9.8767 19.3902 10.5809 20.0994 11.1399 21.0401C11.4085 21.4887 11.6263 21.9663 11.8296 22.4439C12.0111 22.0532 12.2144 21.6696 12.4539 21.3006C13.1218 20.2947 14.0221 19.5494 15.0384 18.9488C14.2326 18.6014 13.4848 18.1383 12.8387 17.5015H12.8314Z" fill="var(--fill-0, #FAD264)"/>
<path id="Vector_2" d="M21.3728 16.568C19.4853 16.3436 16.8427 16.3654 15.4053 14.9398C13.9678 13.5215 13.8517 11.271 13.7355 9.36782C13.7646 8.65142 13.7791 7.94226 13.7791 7.24033C13.7791 4.91024 10.1492 4.91024 10.1492 7.24033C10.1492 7.71793 10.1492 8.21725 10.1492 8.7238C10.1129 8.88299 10.0911 9.05665 10.1056 9.25203C10.1129 9.36781 10.1201 9.49085 10.1274 9.60663C10.0475 11.5098 9.7136 13.4636 8.40683 14.8385C6.77338 16.5535 4.03645 16.6765 1.81495 16.7706C0.834876 16.814 0 17.5738 0 18.5797C0 19.6579 0.834876 20.2657 1.81495 20.3888C4.31958 20.6999 7.15088 20.8953 8.33423 23.457C9.47402 25.9245 9.66279 28.8191 10.1419 31.4603C10.4614 33.226 13.2709 33.1464 13.6411 31.4603C13.9388 30.1216 14.0913 28.7467 14.3163 27.3935C14.5269 26.1055 14.7446 24.6148 15.369 23.4859C16.487 21.4525 19.7829 20.8664 21.8592 20.1138C23.8557 19.3901 23.4056 16.7995 21.3801 16.5607L21.3728 16.568ZM12.4578 21.3005C12.2182 21.6623 12.015 22.0459 11.8335 22.4439C11.6302 21.9663 11.4124 21.4887 11.1438 21.04C10.5848 20.0993 9.88057 19.3901 9.08199 18.8402C9.76441 18.4639 10.396 17.9935 10.9623 17.4074C11.2962 17.0528 11.5939 16.6838 11.8552 16.293C12.1311 16.7199 12.4578 17.1252 12.8353 17.5014C13.4814 18.1382 14.2292 18.6014 15.035 18.9487C14.0187 19.5421 13.1184 20.2874 12.4505 21.3005H12.4578Z" fill="var(--fill-0, #323232)"/>
</g>
<path id="Vector_3" d="M194.649 32.8749H191.977V30.212C191.977 29.264 191.142 28.3595 190.162 28.4029C189.182 28.4463 188.347 29.1989 188.347 30.212V32.8749H185.676C184.725 32.8749 183.817 33.7071 183.861 34.684C183.904 35.6609 184.659 36.4931 185.676 36.4931H188.347V39.1561C188.347 40.104 189.182 41.0086 190.162 40.9652C191.142 40.9217 191.977 40.1692 191.977 39.1561V36.4931H194.649C195.6 36.4931 196.507 35.6609 196.464 34.684C196.42 33.7071 195.665 32.8749 194.649 32.8749Z" fill="var(--fill-0, #323232)"/>
<g id="Group_2">
<path id="Vector_4" d="M212.691 57.3428C212.306 56.9665 211.987 56.5612 211.711 56.1343C211.449 56.5251 211.152 56.8941 210.818 57.2487C210.259 57.8348 209.627 58.3052 208.938 58.6815C209.736 59.2315 210.44 59.9406 210.999 60.8813C211.268 61.33 211.486 61.8076 211.689 62.2852C211.87 61.8944 212.074 61.5109 212.313 61.1418C212.981 60.136 213.881 59.3907 214.898 58.79C214.092 58.4427 213.344 57.9796 212.698 57.3428H212.691Z" fill="var(--fill-0, #FAD264)"/>
<path id="Vector_5" d="M221.224 56.4092C219.337 56.1849 216.694 56.2066 215.257 54.781C213.819 53.3627 213.703 51.1122 213.587 49.2091C213.616 48.4927 213.631 47.7835 213.631 47.0816C213.631 44.7515 210.001 44.7515 210.001 47.0816C210.001 47.5592 210.001 48.0585 210.001 48.565C209.964 48.7242 209.943 48.8979 209.957 49.0933C209.964 49.2091 209.972 49.3321 209.979 49.4479C209.899 51.351 209.565 53.3048 208.258 54.6797C206.625 56.3947 203.888 56.5178 201.667 56.6118C200.686 56.6552 199.852 57.4151 199.852 58.4209C199.852 59.4991 200.686 60.107 201.667 60.23C204.171 60.5412 207.002 60.7365 208.186 63.2982C209.326 65.7658 209.514 68.6603 209.993 71.3016C210.313 73.0673 213.122 72.9877 213.493 71.3016C213.79 69.9629 213.943 68.588 214.168 67.2348C214.378 65.9467 214.596 64.456 215.221 63.3271C216.339 61.2937 219.634 60.7076 221.711 59.955C223.707 59.2314 223.257 56.6408 221.232 56.402L221.224 56.4092ZM212.302 61.1418C212.063 61.5036 211.859 61.8871 211.678 62.2851C211.474 61.8075 211.257 61.3299 210.988 60.8813C210.429 59.9406 209.725 59.2314 208.926 58.6814C209.609 58.3051 210.24 57.8348 210.807 57.2486C211.141 56.894 211.438 56.525 211.7 56.1342C211.975 56.5612 212.302 56.9664 212.68 57.3427C213.326 57.9795 214.073 58.4426 214.879 58.79C213.863 59.3833 212.963 60.1287 212.295 61.1418H212.302Z" fill="var(--fill-0, #323232)"/>
</g>
<g id="Group_3">
<path id="Vector_6" d="M62.1978 107.652C62.2486 105.763 62.4301 103.816 62.3647 101.906C62.3212 102.333 62.1542 102.753 61.8566 103.049C61.1306 103.773 60.0271 103.686 59.2866 103.049C56.2665 100.43 53.5296 97.5209 50.5748 94.8362C49.6674 94.0113 49.21 93.6205 48.1573 93.0416C48.1356 93.0271 48.1283 93.0271 48.1065 93.0199C48.0194 92.9909 47.9323 92.962 47.8451 92.933C47.7871 92.9186 47.729 92.9041 47.6782 92.8969C47.6491 92.8969 47.6346 92.8969 47.6129 92.8896C47.5548 92.9041 47.5185 92.9041 47.4894 92.9113C47.4749 92.9186 47.4749 92.933 47.4531 92.9475C47.1845 93.1646 47.2353 93.0126 47.0103 93.3238C47.17 93.0995 47.0248 93.3962 46.9667 93.4758C46.9522 93.5192 46.9449 93.5626 46.9377 93.5988C46.9449 93.6567 46.9522 93.7218 46.9595 93.7507C46.9595 93.7725 46.974 93.8448 46.974 93.9027C46.9958 94.004 47.0466 94.2139 47.0393 94.1994C47.199 94.7276 47.3225 95.0099 47.6491 95.5815C47.9831 96.1677 48.3534 96.7249 48.7454 97.2676C50.4224 99.5977 52.6657 101.653 53.3699 104.54C54.2338 108.079 53.1884 111.632 52.8326 115.156C52.7383 116.133 52.0776 116.965 51.0177 116.965C50.103 116.965 49.1084 116.133 49.2028 115.156C49.5367 111.776 50.858 107.811 49.5222 104.547C48.5639 105.162 47.4749 105.51 46.3351 105.597C45.7834 107.073 44.2879 108.231 42.7125 108.795C41.6598 109.171 40.4692 109.28 39.373 109.005H39.3584C38.2114 110.322 36.1351 111.111 34.5234 111.226C34.6614 112.348 34.7557 113.477 34.8719 114.606C35.0171 116.017 35.3293 117.602 36.048 118.796C36.8103 120.069 38.0299 121.046 39.1479 121.994C39.5472 122.327 39.9392 122.667 40.3313 123H62.0889C62.0671 121.654 62.0598 120.315 62.0598 118.977C62.0598 115.206 62.1179 111.436 62.2123 107.666L62.1978 107.652Z" fill="var(--fill-0, white)"/>
<path id="Vector_7" d="M168.181 113.672C164.275 110.25 162.395 105.604 161.952 100.517C161.698 97.5861 161.843 94.6409 161.669 91.7029C161.516 89.1702 161.015 86.7026 160.101 84.3291C156.434 74.7699 146.612 68.9085 136.463 69.69C135.962 69.7262 135.497 69.4946 135.163 69.1328C135.054 69.2052 134.945 69.2775 134.844 69.3499C137.559 73.4818 139.613 78.048 140.92 82.8167C141.102 83.4825 140.869 84.1771 140.383 84.6258C141.261 86.2757 141.973 87.9834 142.474 89.7202C142.496 89.7202 142.51 89.7057 142.525 89.6985C143.388 89.4597 144.615 89.9951 144.761 90.9648C145.32 94.8218 146.285 98.686 147.977 102.217C150.627 107.753 155.099 112.703 161.052 114.729C164.006 115.735 167.23 115.93 170.235 115.25C169.517 114.765 168.827 114.244 168.181 113.68V113.672Z" fill="var(--fill-0, white)"/>
<path id="Vector_8" d="M153.269 122.986C152.899 122.747 152.601 122.37 152.42 121.929C151.323 119.215 150.075 116.56 148.695 113.969C143.839 104.837 137.392 96.6308 129.667 89.7346C129.065 89.1919 128.985 88.5333 129.21 87.9689C127.475 86.9992 125.616 86.2684 123.678 85.7908C123.351 86.2611 122.785 86.5506 122.161 86.6229C122.124 86.6229 122.11 86.623 122.088 86.6302C122.037 86.6302 121.994 86.6447 121.943 86.6519C121.747 86.6808 121.551 86.717 121.355 86.746C120.97 86.8111 120.593 86.8907 120.208 86.9775C119.38 87.1584 118.56 87.3755 117.747 87.6143C115.932 88.1426 114.146 88.7721 112.382 89.4524C106.095 91.8693 99.8587 94.952 93.7895 98.1577C93.2523 98.4399 92.7223 98.7221 92.1851 99.0043C90.7331 99.7786 89.2884 100.567 87.8438 101.363C88.8383 101.4 89.8402 101.53 90.842 101.754C95.8658 102.883 100.817 105.083 104.338 108.911C107.707 112.58 109.892 117.16 111.424 121.857C111.561 122.276 111.547 122.653 111.424 122.971H153.247L153.269 122.986Z" fill="var(--fill-0, #BDA6DA)"/>
<path id="Vector_9" d="M114.426 59.4361C114.535 59.8413 114.607 60.2682 114.615 60.7024C114.578 63.0759 112.879 65.3698 110.469 65.804C108.269 66.202 106.041 65.3119 104.872 63.3654C103.703 61.4188 104.015 58.9946 105.438 57.2796C106.752 55.6949 109.162 55.0581 111.086 55.7745C111.507 55.9337 111.892 56.1435 112.255 56.3895C113.598 54.8699 114.716 53.0102 115.311 51.1287C115.653 50.0505 115.783 49.392 115.769 48.3427C115.754 47.5033 115.595 46.758 115.188 46.0706C114.716 45.2601 114.056 44.7825 113.155 44.6739C112.386 44.5726 111.348 45.0068 110.607 45.7015C108.908 47.2935 106.338 44.7391 108.037 43.1398C108.509 42.6984 109.032 42.3221 109.591 42.011C109.707 41.5406 109.78 41.0702 109.823 40.5926C109.01 40.4334 108.269 39.6809 108.328 38.8197C108.422 37.3869 108.451 35.9469 108.422 34.5141C106.52 33.1248 105.467 31.2144 104.516 29.2171C104.4 29.1737 104.284 29.1231 104.182 29.0435C98.1421 24.803 93.5757 18.8692 91.042 11.9512C90.7008 11.0322 91.4195 9.96849 92.3124 9.72245C92.385 9.70075 92.4504 9.70074 92.5157 9.68627C92.494 8.93369 92.5666 8.18111 92.7408 7.45748C92.4794 7.19697 92.2834 6.8641 92.1963 6.50952C90.0837 7.71075 87.9711 9.23762 86.4683 11.0901C87.8549 10.9743 89.1835 12.8486 87.9566 14.2162C85.5173 16.9298 84.3702 20.0704 83.6878 23.5945C83.1215 26.5107 82.6497 29.4921 81.1324 32.1044C79.6732 34.6227 77.4008 36.5331 74.9325 38.0165C73.6548 38.7836 72.2827 39.3769 70.9977 40.115C70.7218 40.2742 70.1338 40.5565 70.083 40.9255C70.0104 41.4538 70.7726 42.2642 71.0195 42.6912C71.7237 43.8996 72.2028 45.2167 72.181 46.6277C72.1593 47.6698 71.985 48.5743 71.8761 49.5512C74.3808 50.3906 76.8927 51.2228 79.3973 52.0622C80.4137 52.4023 80.8202 53.2779 80.6677 54.291C80.6169 54.6094 80.5298 54.9206 80.4354 55.2317C79.1504 59.5084 75.8981 62.7937 71.7164 64.2482C71.6874 65.4494 71.4914 66.6434 71.23 67.823C71.1066 68.3657 70.9541 68.9156 70.8888 69.4656C70.867 69.6465 70.867 70.1965 70.9324 70.4353C71.5712 72.6279 73.9452 73.5831 75.9561 74.1186C81.1033 75.4862 86.3667 74.3935 91.6228 74.437C92.3778 74.437 93.2199 74.9869 93.3724 75.7684C94.229 80.1392 95.093 84.5099 95.9496 88.8807C96.1384 89.8431 95.6883 90.8272 94.6791 91.1095C94.396 91.1891 94.0911 91.1746 93.7935 91.1095V94.0908C96.5449 92.6725 99.3109 91.2904 102.113 89.9806C105.656 88.3235 109.257 86.746 112.93 85.4145C115.929 84.329 118.985 83.3955 122.165 83.0193C123.145 82.9035 123.98 83.9383 123.98 84.8283C123.98 85.2119 123.864 85.5375 123.682 85.8052C125.62 86.2828 127.479 87.0137 129.214 87.9834C129.366 87.5998 129.65 87.2525 130.02 87.0209C129.483 85.9934 129.025 84.9441 128.662 83.8514C128.503 83.9021 128.343 83.931 128.169 83.931C127.174 83.931 126.368 83.0988 126.354 82.1219C126.346 81.5864 126.332 81.0582 126.325 80.5227C126.259 76.8756 126.194 73.2357 126.121 69.5886C124.386 68.6045 122.811 67.3309 121.519 65.8113C119.943 63.9588 118.673 61.8892 117.402 59.8268C116.88 58.9729 117.235 57.9092 118.019 57.3737C117.722 56.8672 117.431 56.3461 117.126 55.8251C116.386 57.1059 115.471 58.3434 114.411 59.4505L114.426 59.4361ZM86.1271 35.9759C83.7895 35.9759 83.7895 32.3577 86.1271 32.3577C88.4648 32.3577 88.4648 35.9759 86.1271 35.9759ZM94.7154 27.8639C93.8297 28.1534 92.6755 27.5311 92.4795 26.5976C92.4432 26.4167 92.3778 26.243 92.3197 26.0693C92.2326 25.8957 92.1455 25.7147 92.0366 25.5555C91.9567 25.4615 91.8769 25.3746 91.7825 25.2878C91.7026 25.2082 91.6228 25.1431 91.5429 25.0707C91.5211 25.0562 91.4921 25.0345 91.4703 25.0201C91.2961 24.9043 91.1146 24.8174 90.9258 24.7234C90.7081 24.6438 90.483 24.5859 90.258 24.5425C90.0402 24.528 89.8151 24.528 89.5973 24.5425C89.2924 24.6003 88.9947 24.6872 88.7043 24.8102C88.806 24.7668 88.9076 24.7234 89.0092 24.6799C88.5591 24.8753 88.1453 24.9549 87.6589 24.8464C87.1943 24.7378 86.8241 24.3977 86.5772 24.0142C86.3304 23.6307 86.2723 23.0518 86.3957 22.6176C86.5046 22.2268 86.8386 21.7058 87.2306 21.5394C88.1671 21.1269 89.1399 20.8519 90.1781 20.9098C91.1436 20.9605 92.0366 21.2138 92.8933 21.6552C94.4106 22.4439 95.6447 23.9636 95.9859 25.6424C96.1892 26.641 95.7028 27.5528 94.7154 27.8712V27.8639ZM105.373 82.1798C104.139 85.1901 101.699 87.1946 98.3526 87.1946C96.0149 87.1946 96.0149 83.5764 98.3526 83.5764C99.6013 83.5764 100.56 83.1567 101.213 82.2956C102.099 81.145 102.454 79.6978 102.679 78.265C103.246 74.5817 102.164 70.978 101.249 67.4539C100.291 63.7561 99.6884 59.986 99.6449 56.1652C99.565 48.7118 101.416 41.2946 104.952 34.7312C106.063 32.6761 109.192 34.5069 108.088 36.5548C106.033 40.3611 104.625 44.4713 103.87 48.7263C103.217 52.4023 103.108 56.1797 103.485 59.8919C103.885 63.8357 105.206 67.5624 105.961 71.4411C106.651 74.9652 106.759 78.7932 105.373 82.1798Z" fill="var(--fill-0, white)"/>
<path id="Vector_10" d="M149.61 39.3263C149.393 35.6358 148.674 31.9815 147.643 28.4284C146.634 24.9622 145.363 21.6046 143.294 18.6087C138.525 11.727 130.597 7.34174 122.669 5.08401C113.493 2.47169 103.315 3.20257 94.8716 7.78317C94.0439 8.23182 93.2526 7.98578 92.7444 7.46477C92.5702 8.19563 92.4976 8.94098 92.5194 9.69356C93.4341 9.54883 94.2327 10.135 94.5449 10.9889C96.73 16.9588 100.803 22.2558 106.015 25.9174C106.821 26.4818 107.199 27.4877 106.669 28.3922C106.262 29.0797 105.297 29.4849 104.52 29.2099C105.471 31.2072 106.524 33.1103 108.426 34.5069C108.273 26.9811 106.415 19.5422 102.901 12.8486C101.819 10.7862 104.955 8.95545 106.037 11.025C110.509 19.5422 112.607 29.2172 111.961 38.8198C111.896 39.7967 111.184 40.6289 110.146 40.6289C110.037 40.6289 109.928 40.6144 109.827 40.5927C109.783 41.0703 109.703 41.5406 109.594 42.011C111.678 40.846 114.248 40.6578 116.339 42.1123C120.462 44.9996 119.736 50.5643 117.827 54.5226C117.616 54.9568 117.391 55.3837 117.145 55.8107C117.45 56.3389 117.74 56.8527 118.038 57.3592C118.052 57.352 118.059 57.3448 118.067 57.3375C118.901 56.8021 120.056 57.1784 120.549 57.9888C121.167 58.9947 121.776 60.0005 122.43 60.9774C122.727 61.4188 123.025 61.8603 123.344 62.2872C123.424 62.3958 123.504 62.5043 123.584 62.6128C123.599 62.6273 123.599 62.6346 123.606 62.649C123.613 62.6563 123.613 62.6635 123.628 62.6707C123.78 62.8589 123.933 63.047 124.092 63.2352C124.767 64.0239 125.501 64.7331 126.299 65.3988C126.299 65.3988 126.306 65.4061 126.314 65.4133C126.423 65.4929 126.524 65.5653 126.633 65.6449C126.836 65.7896 127.047 65.9343 127.265 66.0646C127.751 66.3757 128.259 66.6507 128.782 66.9112C129.348 67.1934 129.631 67.7723 129.66 68.3657C130.437 67.9388 131.192 67.4539 131.926 66.9763C135.352 64.7475 138.525 62.1497 141.581 59.4506C143.171 58.0467 144.848 56.6573 146.075 54.8989C147.099 53.4299 147.89 51.8452 148.442 50.1591C149.589 46.6567 149.835 42.9951 149.618 39.3263H149.61Z" fill="var(--fill-0, white)"/>
<path id="Vector_11" d="M100.596 110.286C98.9846 108.795 97.1261 107.731 95.0861 106.935C92.9517 106.11 90.7084 105.264 88.4289 104.996C84.5594 104.54 80.4068 106.306 77.9022 109.027C75.7024 111.422 74.3521 114.685 73.372 117.826C72.8493 119.512 72.392 121.242 72.1016 122.986H108.023C108.001 122.935 107.972 122.884 107.958 122.834C106.448 118.217 104.226 113.629 100.604 110.286H100.596Z" fill="var(--fill-0, #BDA6DA)"/>
<path id="Vector_12" d="M41.8667 103.52C41.0609 102.376 40.6471 100.958 40.1824 99.6554C39.6452 98.1358 39.0862 96.6234 38.578 95.0965C38.2804 94.2209 38.0408 93.3236 37.8666 92.4191C37.1624 92.6217 36.5308 92.8894 36.0879 93.3887C35.8846 93.6203 35.7757 93.8808 35.7322 94.2426C35.6814 94.713 35.7322 95.2195 35.7758 95.6899C35.9935 97.6944 36.8429 100.003 37.7867 101.935C38.2296 102.839 38.7087 103.729 39.275 104.562C39.3621 104.692 39.4565 104.822 39.5508 104.952C39.5726 104.967 39.8558 105.3 39.8993 105.343C39.9937 105.387 40.0953 105.423 40.1897 105.473C40.1897 105.444 40.7705 105.553 40.393 105.524C40.9302 105.568 40.8649 105.567 41.3876 105.416C41.7433 105.314 42.0047 105.198 42.4185 104.923C42.4185 104.916 42.6508 104.743 42.6798 104.706C42.7234 104.663 42.7669 104.612 42.8177 104.569C42.4765 104.279 42.1571 103.932 41.8667 103.527V103.52Z" fill="var(--fill-0, white)"/>
<path id="Vector_13" d="M59.6764 92.8752C58.798 90.8273 58.1228 88.7939 57.5711 86.6447C56.4531 82.3029 55.2334 77.9901 53.9775 73.6917C53.3749 71.6366 52.7651 69.5887 52.1553 67.5336C51.6834 65.9416 51.4075 64.024 50.4275 62.7287C50.304 62.5695 50.1516 62.4248 49.9919 62.3307C50.1806 62.4465 49.7523 62.3813 49.9628 62.3307C50.0427 62.3162 50.2169 62.1642 49.7886 62.3596C49.2804 62.5912 48.8666 62.7938 48.6996 63.1629C48.2422 64.1759 48.6415 65.3048 48.8666 66.535C49.4111 69.5381 50.0862 72.5267 50.7904 75.4936C51.7342 79.4953 52.7433 83.4897 53.8178 87.4624C54.1372 88.6637 53.3023 89.4814 52.3586 89.6623C51.6616 90.0531 50.7904 89.9156 50.1734 89.3801C48.5472 87.9545 46.0062 85.979 43.6976 86.3408C41.5923 86.6737 41.0768 89.2354 41.2728 90.9938C41.4326 92.4483 41.977 93.8594 42.4562 95.227C42.9571 96.6526 43.4653 98.0782 43.9735 99.5037C44.1695 100.054 44.3583 100.596 44.6341 101.11C44.7285 101.284 44.8374 101.486 44.9536 101.646C45.0334 101.74 45.1278 101.827 45.2149 101.921C45.8828 102.058 47.0734 101.913 47.4219 101.638C47.4582 101.609 47.4945 101.588 47.5308 101.566C47.0734 100.994 46.6015 100.415 46.1587 99.8221C45.2149 98.5847 44.3583 97.3111 43.7775 95.8638C42.7321 93.2443 43.7484 90.0313 46.7467 89.3656C49.2949 88.8012 51.5745 90.8418 53.2951 92.4193C56.1845 95.0678 58.8778 97.9117 61.8471 100.481C62.0939 100.698 62.2464 100.98 62.319 101.291C62.2537 100.321 62.123 99.3662 61.8471 98.4327C61.2881 96.5151 60.446 94.6988 59.6619 92.868L59.6764 92.8752Z" fill="var(--fill-0, white)"/>
<path id="Vector_14" d="M91.9219 25.3962C91.9219 25.3962 91.9509 25.4326 91.9872 25.4761C91.9582 25.4326 91.9364 25.3962 91.9219 25.3962Z" fill="var(--fill-0, #B2CDE5)"/>
<path id="Vector_15" d="M48.1001 92.9984C47.9911 92.9475 47.9839 92.9548 48.1001 92.9984Z" fill="var(--fill-0, #B2CDE5)"/>
<path id="Vector_16" d="M86.1204 32.3576C83.7828 32.3576 83.7828 35.9758 86.1204 35.9758C88.4581 35.9758 88.4581 32.3576 86.1204 32.3576Z" fill="var(--fill-0, #323232)"/>
<path id="Vector_17" d="M117.126 55.8107C117.373 55.3837 117.605 54.9568 117.809 54.5226C119.718 50.5643 120.451 44.9996 116.32 42.1123C114.229 40.6506 111.667 40.8387 109.576 42.011C109.017 42.3222 108.494 42.7057 108.022 43.1399C106.316 44.7391 108.886 47.2935 110.592 45.7015C111.333 45.0068 112.371 44.5727 113.141 44.674C114.041 44.7897 114.701 45.2674 115.173 46.0706C115.58 46.7653 115.74 47.5034 115.754 48.3428C115.769 49.3921 115.631 50.0506 115.297 51.1288C114.701 53.0102 113.583 54.8772 112.24 56.3896C111.877 56.1508 111.5 55.9337 111.071 55.7745C109.148 55.0509 106.73 55.6949 105.423 57.2797C104 58.9947 103.688 61.4188 104.857 63.3654C106.026 65.312 108.255 66.2021 110.454 65.8041C112.865 65.3699 114.563 63.076 114.6 60.7025C114.6 60.261 114.52 59.8413 114.411 59.4361C115.464 58.3289 116.378 57.0843 117.126 55.8107ZM108.843 59.1756C108.843 59.1756 108.748 59.2118 108.668 59.2407C108.727 59.2045 108.792 59.1756 108.843 59.1756ZM110.963 60.9919C110.963 60.9919 110.963 61.0064 110.963 61.0136C110.941 61.0932 110.905 61.18 110.89 61.2379C110.89 61.2596 110.875 61.2886 110.868 61.3103C110.788 61.4478 110.716 61.578 110.629 61.7083C110.6 61.7445 110.563 61.7807 110.534 61.8096C110.404 61.9399 110.012 62.1714 110.498 61.8747C110.367 61.9471 110.251 62.0484 110.12 62.1208C110.077 62.1425 110.041 62.1642 109.997 62.1859C109.874 62.2221 109.757 62.2583 109.634 62.2872C109.67 62.2872 109.699 62.2872 109.743 62.2872C109.692 62.2872 109.641 62.2872 109.59 62.3017C109.59 62.3017 109.59 62.3017 109.583 62.3017C109.489 62.3234 109.416 62.3161 109.431 62.3017C109.329 62.3017 109.227 62.3017 109.126 62.2944C109.061 62.28 108.988 62.2655 108.923 62.2438C108.872 62.2293 108.821 62.2148 108.777 62.1931C108.806 62.2076 108.821 62.2148 108.85 62.2366C108.821 62.2221 108.792 62.2076 108.763 62.1859C108.734 62.1787 108.698 62.1642 108.668 62.1569C108.574 62.128 108.552 62.0846 108.618 62.1063C108.56 62.0774 108.509 62.0484 108.458 62.0194C108.436 62.005 108.407 61.9833 108.385 61.9688C108.32 61.9037 108.255 61.8313 108.189 61.759C108.255 61.8458 108.211 61.8458 108.146 61.759C108.124 61.7228 108.102 61.6938 108.08 61.6576C108.059 61.6432 108.044 61.6215 108.022 61.5998C108.044 61.6215 108.051 61.6287 108.073 61.6504C108.044 61.6142 108.022 61.5708 107.993 61.5346C107.964 61.484 107.935 61.4333 107.913 61.3899C107.921 61.4188 107.928 61.4478 107.943 61.4912C107.928 61.4478 107.913 61.4044 107.899 61.361C107.863 61.2886 107.848 61.2162 107.848 61.2018C107.834 61.1511 107.812 61.1077 107.805 61.057C107.79 61.0136 107.783 60.9702 107.776 60.9268C107.768 60.7965 107.768 60.659 107.776 60.5288C107.768 60.5577 107.761 60.5867 107.754 60.6301C107.768 60.5867 107.776 60.536 107.783 60.4926C107.797 60.3768 107.834 60.2538 107.819 60.3623C107.848 60.2683 107.87 60.1742 107.906 60.0729C107.943 60.0077 107.972 59.9426 108.015 59.8775C108.037 59.8413 108.066 59.7979 108.088 59.7617C108.066 59.7762 108.066 59.7907 108.037 59.8051C108.059 59.7907 108.073 59.769 108.095 59.7473C108.109 59.7255 108.124 59.7038 108.131 59.6894C108.189 59.5953 108.247 59.5736 108.226 59.617C108.262 59.5736 108.305 59.5302 108.342 59.4867C108.356 59.4723 108.385 59.4506 108.414 59.4216C108.48 59.3782 108.56 59.3203 108.647 59.2624C108.661 59.2624 108.661 59.2624 108.676 59.2552C108.763 59.2262 108.85 59.1973 108.937 59.1683C108.981 59.1539 109.119 59.1322 109.206 59.1105C109.278 59.1105 109.351 59.1105 109.423 59.1105C109.474 59.1105 109.532 59.1105 109.583 59.1177C109.728 59.1539 109.866 59.1901 110.012 59.2335C110.077 59.2697 110.149 59.2986 110.215 59.342C110.266 59.371 110.309 59.3999 110.36 59.4361C110.454 59.5302 110.556 59.6315 110.65 59.7255C110.687 59.7762 110.716 59.8268 110.752 59.8775C110.788 59.9426 110.825 60.0077 110.854 60.0729C110.897 60.2031 110.926 60.3262 110.963 60.4564C110.963 60.4202 110.963 60.384 110.963 60.3334C110.963 60.384 110.963 60.4347 110.97 60.4854C110.97 60.4998 110.977 60.5215 110.984 60.536C110.984 60.565 110.992 60.5867 110.992 60.6084C110.992 60.6229 110.992 60.6446 110.992 60.659C110.992 60.659 110.992 60.659 110.984 60.6518C110.984 60.6735 110.984 60.6952 110.984 60.7169C110.984 60.811 110.977 60.9051 110.97 60.9991L110.963 60.9919ZM110.977 60.9412C110.977 60.8978 110.977 60.8616 110.984 60.8327C110.984 60.8399 110.984 60.8544 110.984 60.8617C110.984 60.8906 110.984 60.9123 110.97 60.9412H110.977Z" fill="var(--fill-0, #323232)"/>
<path id="Vector_18" d="M86.3876 22.6175C86.2714 23.0517 86.3222 23.6306 86.5691 24.0141C86.8159 24.3976 87.1934 24.7377 87.6508 24.8463C88.1372 24.9548 88.551 24.8752 89.0011 24.6798C88.8994 24.7232 88.7978 24.7667 88.6962 24.8101C88.9866 24.6871 89.2842 24.6075 89.5891 24.5423C89.8069 24.5279 90.032 24.5279 90.2498 24.5423C90.4748 24.5858 90.6999 24.6509 90.9177 24.7233C91.1064 24.8101 91.2879 24.9042 91.4621 25.0199C91.4839 25.0344 91.5129 25.0561 91.5347 25.0706C91.6146 25.1429 91.7017 25.2153 91.7743 25.2877C91.8614 25.3745 91.9413 25.4686 92.0284 25.5554C92.1373 25.7146 92.2244 25.8955 92.3115 26.0692C92.3696 26.2429 92.435 26.4166 92.4713 26.5975C92.66 27.5237 93.8143 28.146 94.7073 27.8638C95.6946 27.5454 96.181 26.6336 95.9777 25.635C95.6365 23.9562 94.4024 22.4366 92.8851 21.6478C92.0284 21.2064 91.1282 20.9604 90.1699 20.9025C89.1317 20.8446 88.1589 21.1196 87.2224 21.532C86.8304 21.7057 86.4965 22.2195 86.3876 22.6102V22.6175ZM91.9848 25.4831C91.9485 25.4396 91.9195 25.4035 91.9195 25.4035C91.934 25.4035 91.9631 25.4469 91.9848 25.4831Z" fill="var(--fill-0, #323232)"/>
<path id="Vector_19" d="M95.9517 88.8879C95.0951 84.5172 94.2312 80.1465 93.3745 75.7757C93.2221 75.0014 92.3799 74.4515 91.6249 74.4442C86.3688 74.4008 81.1054 75.4935 75.9583 74.1258C73.94 73.5903 71.5733 72.6351 70.9345 70.4425C70.8691 70.2037 70.8691 69.6538 70.8909 69.4729C70.9563 68.9157 71.1087 68.3729 71.2321 67.8302C71.5008 66.6507 71.6895 65.4639 71.7185 64.2555C75.9002 62.8082 79.1526 59.5157 80.4376 55.239C80.5319 54.9278 80.6191 54.6167 80.6699 54.2983C80.8296 53.2924 80.423 52.4096 79.3994 52.0695C76.8948 51.2301 74.3829 50.3979 71.8782 49.5585C71.9871 48.5816 72.1687 47.677 72.1832 46.635C72.2122 45.2239 71.7258 43.9069 71.0216 42.6984C70.7748 42.2715 70.0125 41.4683 70.0851 40.9328C70.1359 40.5637 70.7239 40.2815 70.9998 40.1223C72.2921 39.3842 73.6569 38.7908 74.9346 38.0238C77.4102 36.5403 79.6753 34.6299 81.1345 32.1117C82.6518 29.4994 83.1164 26.518 83.6899 23.6018C84.3723 20.0777 85.5194 16.9299 87.9587 14.2235C89.1856 12.8631 87.8571 10.9816 86.4704 11.0974C85.1927 12.6677 84.3579 14.4768 84.3579 16.5174C84.3579 14.4695 85.1927 12.6677 86.4704 11.0974C86.1002 11.1263 85.7227 11.2928 85.396 11.6618C82.993 14.332 81.3886 17.4075 80.561 20.8954C79.9003 23.7031 79.7116 26.7423 78.4774 29.3836C77.2868 31.938 75.1669 33.7037 72.7712 35.0931C70.1577 36.6127 65.6929 37.9369 66.5641 41.8373C66.7891 42.8287 67.3844 43.6536 67.8854 44.5148C68.0596 44.8114 68.2338 45.1154 68.35 45.441C68.3936 45.5713 68.4371 45.7015 68.4734 45.8318C68.4734 45.8462 68.5315 46.1791 68.5387 46.1864C68.6404 47.3804 68.3645 48.473 68.2266 49.7105C68.1104 49.8769 68.016 50.0506 67.9725 50.2459C67.7474 51.2445 68.2774 52.1491 69.2429 52.4747C71.7258 53.3069 74.2159 54.1318 76.6988 54.964C76.677 55.0219 76.6552 55.087 76.6334 55.1449C76.5028 55.2752 76.4084 55.6515 76.3212 55.8179C76.2051 56.0495 76.0744 56.281 75.9437 56.5054C75.7985 56.7442 75.6534 56.983 75.4936 57.2145C75.4138 57.3303 75.3267 57.4461 75.2395 57.5619C75.2032 57.6125 75.1597 57.6559 75.1234 57.7066C74.7023 58.2131 74.2377 58.6763 73.7368 59.1032C73.6859 59.1466 73.352 59.3999 73.4319 59.342C73.3157 59.4288 73.1923 59.5157 73.0689 59.5953C72.7712 59.7907 72.4663 59.9716 72.1541 60.138C71.9654 60.2393 71.7766 60.3334 71.5879 60.4275C71.5007 60.4709 71.4136 60.5071 71.3265 60.5432C71.3047 60.5505 71.2902 60.5577 71.2612 60.5649C70.8256 60.7314 70.3827 60.8761 69.9326 61.0064C69.439 61.1438 69.0542 61.484 68.8219 61.9181C68.3645 62.1931 68.0523 62.6852 68.0814 63.3944C68.1758 65.6014 67.2755 67.6204 67.232 69.7985C67.1884 72.1792 68.6549 74.2561 70.5134 75.6237C74.2159 78.3374 79.4938 78.5762 83.9077 78.4025C85.9768 78.3229 88.0531 78.1347 90.1221 78.0769C90.8917 81.9989 91.6612 85.921 92.438 89.8431C92.5687 90.5016 93.1495 90.9575 93.7883 91.1022C94.086 91.1674 94.3909 91.1818 94.674 91.1022C95.6759 90.8273 96.1332 89.8359 95.9445 88.8735L95.9517 88.8879Z" fill="var(--fill-0, #323232)"/>
<path id="Vector_20" d="M83.8437 99.4747C82.595 100.177 81.3536 100.886 80.1194 101.617C79.3644 102.065 79.1538 102.789 79.2918 103.447C78.5658 103.853 77.8544 104.309 77.1792 104.822C73.905 107.29 71.9667 111.082 70.5655 114.837C69.6798 117.211 68.9684 119.7 68.5691 122.211C68.5255 122.472 68.5328 122.732 68.5691 122.986H72.1046C72.395 121.242 72.8523 119.512 73.3751 117.826C74.3551 114.685 75.7055 111.422 77.9052 109.027C80.4098 106.306 84.5697 104.54 88.4319 104.996C90.7187 105.264 92.9547 106.11 95.0891 106.935C97.1291 107.724 98.9876 108.795 100.599 110.286C104.215 113.636 106.443 118.217 107.953 122.834C107.975 122.891 107.997 122.935 108.019 122.986H111.453C111.576 122.667 111.591 122.291 111.453 121.871C109.921 117.175 107.736 112.594 104.367 108.925C100.846 105.097 95.8949 102.898 90.8712 101.769C89.8693 101.544 88.8602 101.414 87.8729 101.378C89.3176 100.582 90.7623 99.7931 92.2142 99.0188C92.7442 98.7366 93.2814 98.4544 93.8186 98.1722V94.0909C90.4646 95.8276 87.1469 97.6222 83.8582 99.482L83.8437 99.4747Z" fill="var(--fill-0, #323232)"/>
<path id="Vector_21" d="M122.168 83.0118C118.996 83.3954 115.932 84.3216 112.934 85.4071C109.253 86.7458 105.659 88.3161 102.117 89.9732C99.3143 91.283 96.5483 92.6651 93.7969 94.0834V98.1647C99.8661 94.959 106.102 91.8691 112.389 89.4594C114.153 88.7792 115.939 88.1496 117.754 87.6214C118.567 87.3826 119.388 87.1655 120.215 86.9846C120.593 86.8977 120.978 86.8254 121.362 86.753C121.558 86.7169 121.754 86.6879 121.95 86.659C122.001 86.6517 122.045 86.6445 122.096 86.6372C122.117 86.6372 122.132 86.6372 122.168 86.63C122.793 86.5576 123.352 86.2682 123.685 85.7978C122.698 85.5518 121.689 85.3709 120.658 85.2696C121.682 85.3709 122.691 85.5518 123.685 85.7978C123.874 85.5301 123.983 85.2044 123.983 84.8209C123.983 83.9309 123.148 82.8961 122.168 83.0118Z" fill="var(--fill-0, #323232)"/>
<path id="Vector_22" d="M130.025 87.0065C129.662 87.2381 129.371 87.5854 129.219 87.9689C129.988 88.3959 130.736 88.8735 131.448 89.3872C130.932 88.6057 130.446 87.8097 130.017 86.9993L130.025 87.0065Z" fill="var(--fill-0, #323232)"/>
<path id="Vector_23" d="M182.717 114.816C181.468 114.968 180.212 114.96 178.985 114.801C179.312 114.512 179.631 114.222 179.936 113.911C181.569 112.247 179.007 109.685 177.366 111.349C176.517 112.218 175.566 112.949 174.549 113.549C173.221 112.949 171.972 112.16 170.854 111.197C169.221 109.786 167.892 108.107 166.963 106.154C165.867 103.845 165.583 101.218 165.482 98.7002C165.366 95.8202 165.482 92.9257 165.177 90.0456C164.886 87.3464 164.233 84.7703 163.166 82.2738C161.162 77.5629 157.837 73.4961 153.598 70.6088C149.43 67.7722 144.399 66.1802 139.354 66.0137C140.254 65.2974 141.147 64.5737 142.018 63.8356C145.51 60.8904 148.988 57.9452 150.911 53.712C152.617 49.9563 153.3 45.8533 153.307 41.7503C153.322 37.6835 152.712 33.595 151.724 29.6584C150.802 25.9462 149.59 22.1471 147.688 18.8112C143.107 10.7571 134.816 5.38776 126.206 2.41363C115.389 -1.32032 103.178 -0.835484 93.029 4.66413C92.2232 5.09831 92.0199 5.84365 92.1869 6.52387C92.7241 6.21994 93.2613 5.93772 93.7913 5.66998C93.2613 5.93048 92.7314 6.21994 92.1869 6.52387C92.274 6.87845 92.47 7.20408 92.7314 7.47183C93.2468 7.99284 94.0309 8.24612 94.8585 7.79023C103.302 3.20963 113.48 2.486 122.656 5.09108C130.577 7.34881 138.512 11.734 143.281 18.6158C145.35 21.6044 146.621 24.962 147.63 28.4355C148.661 31.9885 149.387 35.6356 149.597 39.3334C149.808 43.0022 149.568 46.6638 148.421 50.1662C147.87 51.8523 147.085 53.437 146.055 54.906C144.828 56.6572 143.151 58.0466 141.561 59.4576C138.504 62.1568 135.325 64.7546 131.905 66.9834C131.172 67.461 130.417 67.9458 129.64 68.3728C129.611 67.7794 129.335 67.2005 128.762 66.9183C128.246 66.665 127.738 66.3828 127.244 66.0716C127.034 65.9341 126.823 65.7967 126.613 65.6519C126.504 65.5796 126.402 65.5 126.293 65.4204C126.293 65.4204 126.286 65.4204 126.279 65.4059C125.48 64.7402 124.74 64.031 124.072 63.2422C123.912 63.0541 123.76 62.8659 123.607 62.6778C123.6 62.6633 123.593 62.6633 123.585 62.6561C123.578 62.6416 123.571 62.6416 123.564 62.6199C123.484 62.5114 123.404 62.4028 123.324 62.2943C123.012 61.8673 122.707 61.4259 122.409 60.9845C121.756 60.0004 121.146 59.0017 120.529 57.9959C120.035 57.1854 118.881 56.8091 118.046 57.3446C118.032 57.3519 118.024 57.3591 118.017 57.3663C118.888 58.8425 119.818 60.2247 121.379 61.3897C119.81 60.2174 118.881 58.8425 118.017 57.3663C117.226 57.8946 116.877 58.9656 117.4 59.8195C118.663 61.8818 119.941 63.9514 121.516 65.8039C122.809 67.3235 124.384 68.5971 126.119 69.5813C126.184 73.2284 126.25 76.8682 126.322 80.5153C126.33 81.0508 126.344 81.5791 126.351 82.1146C126.366 83.0915 127.172 83.9237 128.166 83.9237C128.333 83.9237 128.5 83.8875 128.66 83.8441C128.341 82.9033 128.087 81.9409 127.92 80.9278C128.087 81.9337 128.341 82.9033 128.66 83.8441C129.408 83.6197 129.996 82.9251 129.981 82.1146C129.923 78.8148 129.858 75.5151 129.8 72.2153C129.981 72.1791 130.17 72.1284 130.352 72.0488C130.845 71.839 131.332 71.5785 131.796 71.3035C134.308 75.1532 136.21 79.3358 137.423 83.7717C137.684 84.7124 138.715 85.2913 139.659 85.038C139.942 84.9584 140.189 84.8137 140.392 84.6183C140.871 84.1697 141.111 83.475 140.929 82.8093C139.622 78.0405 137.568 73.4744 134.853 69.3425C134.962 69.2701 135.07 69.1977 135.172 69.1254C135.506 69.4872 135.971 69.726 136.472 69.6826C146.621 68.9011 156.443 74.7625 160.11 84.3217C161.024 86.6952 161.525 89.1628 161.678 91.6955C161.852 94.6334 161.707 97.5786 161.961 100.509C162.404 105.596 164.284 110.242 168.19 113.665C168.836 114.229 169.525 114.758 170.244 115.235C167.239 115.908 164.015 115.72 161.061 114.714C155.115 112.688 150.635 107.738 147.986 102.203C146.294 98.6713 145.336 94.8143 144.77 90.9501C144.632 89.9805 143.397 89.4522 142.534 89.6838C142.512 89.6838 142.497 89.6983 142.483 89.7055C143.223 92.2744 143.499 94.9157 143.172 97.5569C143.506 94.9157 143.223 92.2744 142.483 89.7055C141.481 90.0094 141.132 90.9574 141.27 91.9126C141.575 94.0183 142.025 96.1169 142.628 98.172C141.379 96.6017 140.087 95.0604 138.729 93.5697C136.682 91.3264 134.511 89.1917 132.246 87.1655C131.528 86.5215 130.664 86.5939 130.025 86.9991C130.453 87.8096 130.94 88.5983 131.455 89.3871C134.134 91.3192 136.421 93.8519 138.091 96.8405C136.421 93.8519 134.141 91.3264 131.455 89.3871C130.736 88.8661 129.996 88.3957 129.226 87.9688C129.009 88.5332 129.081 89.1917 129.684 89.7344C137.408 96.6307 143.855 104.837 148.712 113.969C150.084 116.56 151.332 119.208 152.436 121.929C152.617 122.37 152.908 122.747 153.285 122.985H155.108C155.768 122.573 156.24 121.719 155.935 120.966C155.013 118.68 153.982 116.436 152.879 114.237C157.648 117.985 163.645 119.961 169.787 119.027C171.507 118.767 173.184 118.246 174.767 117.522C177.308 118.412 180.023 118.774 182.717 118.441C183.689 118.318 184.531 117.696 184.531 116.632C184.531 115.749 183.697 114.7 182.717 114.823V114.816Z" fill="var(--fill-0, #323232)"/>
<path id="Vector_24" d="M104.946 34.724C101.403 41.2873 99.5594 48.7046 99.6393 56.158C99.6828 59.986 100.285 63.7489 101.244 67.4466C102.158 70.978 103.247 74.5744 102.674 78.2577C102.449 79.6905 102.093 81.145 101.207 82.2884C100.547 83.1495 99.5957 83.5692 98.347 83.5692C96.0093 83.5692 96.0093 87.1874 98.347 87.1874C101.694 87.1874 104.133 85.1757 105.367 82.1726C106.754 78.786 106.645 74.958 105.955 71.4339C105.2 67.5624 103.879 63.8357 103.48 59.8847C103.102 56.1725 103.211 52.3951 103.864 48.719C104.627 44.4641 106.028 40.3538 108.082 36.5475C109.186 34.4997 106.057 32.6688 104.946 34.724Z" fill="var(--fill-0, #323232)"/>
<path id="Vector_25" d="M106.667 28.3994C107.197 27.4948 106.82 26.489 106.014 25.9245C100.802 22.263 96.7288 16.966 94.5436 10.996C94.2314 10.1421 93.4328 9.55596 92.5181 9.70068C92.4528 9.70792 92.3801 9.71516 92.3148 9.73687C91.4291 9.9829 90.7104 11.0394 91.0443 11.9657C93.578 18.8836 98.1444 24.8174 104.185 29.0579C104.286 29.1302 104.402 29.1881 104.519 29.2315C105.295 29.5065 106.261 29.1013 106.667 28.4138V28.3994Z" fill="var(--fill-0, #323232)"/>
<path id="Vector_26" d="M106.04 11.0249C104.958 8.9626 101.822 10.7862 102.903 12.8485C106.417 19.5494 108.276 26.9811 108.428 34.5068C108.835 34.8035 109.285 35.0858 109.778 35.3318C109.778 36.9455 110.003 38.7763 109.829 40.5854C109.938 40.6071 110.04 40.6215 110.149 40.6215C111.187 40.6215 111.898 39.7894 111.964 38.8125C112.61 29.2099 110.512 19.5421 106.04 11.0177V11.0249Z" fill="var(--fill-0, #323232)"/>
<path id="Vector_27" d="M109.776 35.3393C109.282 35.0933 108.832 34.8111 108.426 34.5144C108.455 35.9472 108.426 37.3872 108.331 38.82C108.273 39.6811 109.007 40.4337 109.827 40.5929C110.001 38.7838 109.776 36.953 109.776 35.3393Z" fill="var(--fill-0, #323232)"/>
<path id="Vector_28" d="M108.846 59.1755C108.795 59.1755 108.737 59.2046 108.672 59.2409C108.752 59.2119 108.846 59.1755 108.846 59.1755Z" fill="var(--fill-0, white)"/>
<path id="Vector_29" d="M108.63 59.2623C108.542 59.313 108.463 59.3781 108.397 59.4215C108.368 59.4432 108.332 59.4722 108.325 59.4866C108.281 59.5228 108.245 59.5735 108.208 59.6169C108.194 59.6386 108.15 59.6893 108.071 59.7616C108.049 59.7978 108.02 59.8412 107.998 59.8774C107.962 59.9425 107.925 60.0076 107.889 60.0728C107.86 60.1668 107.831 60.2609 107.802 60.3622C107.802 60.3912 107.78 60.4491 107.766 60.5359C107.766 60.6662 107.766 60.8036 107.766 60.9339C107.773 60.9773 107.787 61.0208 107.795 61.0642C107.809 61.1148 107.824 61.1582 107.838 61.2089C107.838 61.1944 107.86 61.2378 107.904 61.397C107.933 61.4477 107.954 61.4984 107.983 61.5418C108.005 61.5852 108.034 61.6214 108.063 61.6575C108.114 61.701 108.15 61.7444 108.172 61.7661C108.238 61.8385 108.303 61.9108 108.368 61.9759C108.39 61.9904 108.419 62.0121 108.441 62.0266C108.492 62.0555 108.55 62.0845 108.6 62.1134C108.63 62.1207 108.68 62.1496 108.76 62.2003C108.811 62.2147 108.862 62.2364 108.905 62.2509C108.971 62.2726 109.043 62.2871 109.109 62.3016C109.21 62.3016 109.312 62.3088 109.414 62.3088C109.421 62.3016 109.486 62.2943 109.617 62.2943C109.74 62.2654 109.864 62.2292 109.98 62.193C110.023 62.1713 110.067 62.1496 110.103 62.1279C110.234 62.0555 110.35 61.9615 110.481 61.8819C109.987 62.1713 110.386 61.947 110.517 61.8167C110.546 61.7806 110.582 61.7516 110.611 61.7154C110.691 61.5852 110.771 61.4549 110.851 61.3174C110.851 61.2885 110.866 61.2668 110.873 61.2451C110.887 61.1872 110.924 61.1076 110.945 61.0208C110.945 61.0135 110.945 61.0063 110.945 60.999C110.945 60.905 110.953 60.8109 110.96 60.7168C110.96 60.6951 110.96 60.6734 110.96 60.6517C110.953 60.63 110.945 60.5721 110.945 60.4563C110.909 60.3261 110.88 60.1958 110.837 60.0728C110.8 60.0076 110.771 59.9425 110.735 59.8774C110.706 59.8267 110.67 59.7761 110.633 59.7254C110.539 59.6314 110.437 59.5301 110.343 59.436C110.292 59.4071 110.248 59.3709 110.198 59.3419C110.132 59.3057 110.067 59.2696 109.994 59.2334C109.856 59.19 109.711 59.1465 109.566 59.1176C109.515 59.1176 109.457 59.1176 109.406 59.1104C109.334 59.1104 109.261 59.1104 109.189 59.1104C109.101 59.1248 108.963 59.1538 108.92 59.1682C108.833 59.1899 108.746 59.2261 108.659 59.2551C108.644 59.2551 108.637 59.2551 108.63 59.2623Z" fill="var(--fill-0, white)"/>
<path id="Vector_30" d="M107.895 61.3615C107.88 61.3107 107.858 61.2525 107.844 61.2017C107.844 61.2162 107.858 61.2889 107.895 61.3615Z" fill="var(--fill-0, white)"/>
<path id="Vector_31" d="M110.953 60.3333C110.953 60.3841 110.953 60.4204 110.953 60.4568C110.953 60.4713 110.953 60.4785 110.96 60.4858C110.96 60.435 110.953 60.3841 110.953 60.3333Z" fill="var(--fill-0, white)"/>
<path id="Vector_32" d="M108.031 59.8049C108.031 59.8049 108.06 59.7761 108.082 59.7617C108.082 59.7617 108.082 59.7545 108.089 59.7473C108.067 59.7689 108.053 59.7905 108.031 59.8049Z" fill="var(--fill-0, white)"/>
<path id="Vector_33" d="M107.891 61.3608C107.905 61.4044 107.92 61.448 107.934 61.4916C107.927 61.4553 107.912 61.4262 107.905 61.3899C107.905 61.3899 107.905 61.3899 107.905 61.3826C107.905 61.3754 107.905 61.3681 107.891 61.3608Z" fill="var(--fill-0, white)"/>
<path id="Vector_34" d="M108.114 59.6895C108.114 59.6895 108.085 59.7331 108.078 59.7477C108.122 59.7041 108.165 59.6605 108.209 59.6096C108.231 59.566 108.173 59.5951 108.114 59.6823V59.6895Z" fill="var(--fill-0, white)"/>
<path id="Vector_35" d="M109.43 62.3015C109.43 62.3015 109.495 62.3161 109.582 62.3015C109.582 62.3015 109.582 62.3015 109.589 62.3015C109.56 62.3015 109.531 62.3015 109.51 62.3015C109.481 62.3015 109.459 62.3015 109.43 62.3015Z" fill="var(--fill-0, white)"/>
<path id="Vector_36" d="M109.746 62.2872C109.703 62.2872 109.674 62.2872 109.637 62.2872C109.623 62.2872 109.608 62.2945 109.594 62.3017C109.645 62.3017 109.695 62.2872 109.746 62.2872Z" fill="var(--fill-0, white)"/>
<path id="Vector_37" d="M107.771 60.4853C107.764 60.5289 107.757 60.5797 107.742 60.6233C107.749 60.5797 107.757 60.558 107.764 60.5216C107.764 60.5216 107.764 60.5216 107.764 60.5144C107.764 60.5071 107.764 60.4926 107.764 60.4853H107.771Z" fill="var(--fill-0, white)"/>
<path id="Vector_38" d="M108.837 62.2438C108.837 62.2438 108.794 62.2147 108.765 62.2002C108.765 62.2002 108.757 62.2002 108.75 62.2002C108.779 62.2147 108.808 62.2293 108.837 62.2511V62.2438Z" fill="var(--fill-0, white)"/>
<path id="Vector_39" d="M108.667 62.1644C108.667 62.1644 108.732 62.1862 108.761 62.1934C108.71 62.1644 108.667 62.1353 108.616 62.1135C108.55 62.0917 108.572 62.128 108.667 62.1644Z" fill="var(--fill-0, white)"/>
<path id="Vector_40" d="M107.802 60.3554C107.824 60.2464 107.78 60.3699 107.766 60.4862C107.766 60.4716 107.766 60.4571 107.773 60.4426C107.773 60.4135 107.795 60.3844 107.802 60.3554Z" fill="var(--fill-0, white)"/>
<path id="Vector_41" d="M108.143 61.7666C108.202 61.8611 108.252 61.8611 108.187 61.7666C108.151 61.7303 108.114 61.6939 108.078 61.6576C108.1 61.6939 108.122 61.723 108.143 61.7593V61.7666Z" fill="var(--fill-0, white)"/>
<path id="Vector_42" d="M108.031 61.6143C108.031 61.6143 108.067 61.6503 108.089 61.6719C108.067 61.6575 108.06 61.6431 108.038 61.6215L108.031 61.6143Z" fill="var(--fill-0, white)"/>
<path id="Vector_43" d="M110.975 60.6524C110.975 60.6524 110.975 60.6161 110.975 60.6015C110.975 60.5797 110.975 60.5579 110.968 60.5289C110.968 60.5143 110.96 60.4926 110.953 60.478C110.953 60.5289 110.953 60.587 110.96 60.6379C110.96 60.6451 110.96 60.6524 110.968 60.6451L110.975 60.6524Z" fill="var(--fill-0, white)"/>
<path id="Vector_44" d="M110.992 60.8616C110.992 60.8616 110.992 60.8398 110.992 60.8325C110.992 60.8616 110.992 60.9052 110.984 60.9415C110.984 60.9125 110.999 60.8834 110.999 60.8616H110.992Z" fill="var(--fill-0, white)"/>
<path id="Vector_45" d="M107.844 61.2016C107.858 61.2525 107.88 61.3106 107.895 61.3615C107.895 61.3687 107.895 61.376 107.909 61.3833C107.909 61.3833 107.909 61.3832 107.909 61.3905C107.866 61.2307 107.844 61.1871 107.844 61.2016Z" fill="var(--fill-0, #323232)"/>
<path id="Vector_46" d="M108.078 61.6576C108.114 61.6939 108.151 61.7303 108.187 61.7666C108.165 61.7376 108.129 61.7012 108.078 61.6576Z" fill="var(--fill-0, #323232)"/>
<path id="Vector_47" d="M108.208 59.6096C108.165 59.6605 108.121 59.7041 108.078 59.7477C108.078 59.7477 108.078 59.7549 108.07 59.7622C108.15 59.6895 108.194 59.6387 108.208 59.6169V59.6096Z" fill="var(--fill-0, #323232)"/>
<path id="Vector_48" d="M107.773 60.4424C107.773 60.4424 107.773 60.4714 107.766 60.4859C107.766 60.4932 107.766 60.5077 107.766 60.515C107.766 60.515 107.766 60.515 107.766 60.5223C107.787 60.4424 107.795 60.3842 107.802 60.3479C107.795 60.377 107.78 60.406 107.773 60.4351V60.4424Z" fill="var(--fill-0, #323232)"/>
<path id="Vector_49" d="M108.762 62.1935C108.762 62.1935 108.77 62.1935 108.777 62.1935C108.704 62.1499 108.646 62.1208 108.617 62.1063C108.668 62.1281 108.712 62.1571 108.762 62.1862V62.1935Z" fill="var(--fill-0, #323232)"/>
<path id="Vector_50" d="M110.968 60.6452C110.968 60.5943 110.968 60.5362 110.96 60.4853C110.96 60.4708 110.96 60.4636 110.953 60.4563C110.953 60.5725 110.96 60.6307 110.968 60.6525V60.6452Z" fill="var(--fill-0, #323232)"/>
<path id="Vector_51" d="M109.43 62.3017C109.43 62.3017 109.481 62.3017 109.51 62.3017C109.539 62.3017 109.568 62.3017 109.589 62.3017C109.604 62.3017 109.619 62.2945 109.633 62.2872C109.495 62.2872 109.437 62.2945 109.43 62.3017Z" fill="var(--fill-0, #323232)"/>
<path id="Vector_52" d="M65.7992 108.708C65.8791 105.408 66.3437 101.884 65.6468 98.628C65.1894 96.486 64.2819 94.467 63.418 92.4626C62.525 90.4002 61.7555 88.3668 61.1965 86.1887C60.0132 81.5719 58.7209 76.9841 57.3851 72.418C56.7535 70.2615 56.1146 68.1051 55.4685 65.9487C54.9313 64.1468 54.5175 62.1858 53.3704 60.6444C52.1435 59.0018 50.2778 58.2854 48.3104 59.0597C46.2921 59.8484 45.0507 61.5924 44.9055 63.7416C44.8039 65.1961 45.225 66.7664 45.4936 68.1919C45.784 69.7405 46.1107 71.2818 46.4519 72.8159C47.3013 76.6367 48.2305 80.443 49.2106 84.2421C47.9183 83.4968 46.5245 82.9468 45.0725 82.7659C42.1178 82.4113 39.497 83.9744 38.3282 86.6735C38.0305 87.3537 37.8417 88.0412 37.7401 88.7359C37.6603 88.7431 37.5804 88.7503 37.5005 88.772C35.3153 89.3075 33.1374 90.5233 32.3969 92.6942C30.248 92.7593 28.1862 93.9677 27.09 95.8275C25.8921 97.8609 26.4511 100.459 27.257 102.536C27.5038 103.172 27.7724 103.795 28.0483 104.417C28.0846 104.504 28.1281 104.598 28.1644 104.685C28.1644 104.699 28.1717 104.706 28.1862 104.743C28.2733 104.96 28.3605 105.177 28.4403 105.401C28.7815 106.291 29.1082 107.189 29.5511 108.035C29.8632 108.636 30.2625 109.193 30.7199 109.671C30.6981 109.873 30.7054 110.083 30.7489 110.293C31.4096 113.737 31.0466 117.486 32.9196 120.612C33.4496 121.495 34.1102 122.262 34.8289 122.993H40.3391C39.9471 122.653 39.5478 122.32 39.1558 121.987C38.0377 121.039 36.8181 120.062 36.0558 118.788C35.3371 117.594 35.0322 116.01 34.8797 114.599C34.7636 113.47 34.6692 112.341 34.5313 111.219C36.1429 111.111 38.2192 110.315 39.3663 108.998H39.3808C40.4698 109.265 41.6676 109.164 42.7203 108.788C44.2884 108.223 45.7912 107.058 46.343 105.589C47.4828 105.502 48.5717 105.155 49.53 104.54C50.8658 107.804 49.5518 111.776 49.2106 115.148C49.1162 116.125 50.1108 116.958 51.0255 116.958C52.0855 116.958 52.7461 116.125 52.8405 115.148C53.1962 111.617 54.2344 108.071 53.3777 104.533C52.6735 101.645 50.4375 99.5904 48.7532 97.2603C48.3612 96.7175 47.9837 96.1604 47.657 95.5742C47.3303 95.0025 47.2069 94.7276 47.0472 94.1921C47.0472 94.2065 47.0036 93.9967 46.9818 93.8954C46.9818 93.8303 46.9673 93.7579 46.9673 93.7434C46.9673 93.7145 46.9528 93.6493 46.9455 93.5914C46.9455 93.5553 46.9673 93.5119 46.9746 93.4684C47.0254 93.3816 47.1778 93.0921 47.0181 93.3165C47.2432 93.0053 47.1924 93.15 47.461 92.9402C47.4827 92.9257 47.4828 92.9185 47.4973 92.904C47.5263 92.904 47.5626 92.904 47.6207 92.8823C47.6425 92.8823 47.657 92.8823 47.686 92.8895C47.7441 92.904 47.8022 92.9112 47.853 92.9257C47.9401 92.9474 48.0272 92.9836 48.1144 93.0126C48.1289 93.0198 48.1434 93.027 48.1652 93.0343C49.2251 93.6204 49.6752 94.0112 50.5827 94.8289C53.5447 97.5136 56.2744 100.423 59.2944 103.042C60.0349 103.679 61.1312 103.766 61.8644 103.042C62.162 102.745 62.329 102.333 62.3726 101.899C62.4379 103.809 62.2564 105.756 62.2056 107.644C62.1112 111.415 62.0459 115.185 62.0532 118.955C62.0532 120.294 62.0604 121.639 62.0822 122.978H65.6613C65.5161 118.224 65.6976 113.426 65.8065 108.701L65.7992 108.708ZM36.3825 106.856C36.0195 107.087 35.6275 107.268 35.221 107.406C34.9886 107.485 34.7273 107.572 34.4805 107.601C34.4079 107.608 34.0013 107.572 33.965 107.587C33.8851 107.565 33.798 107.536 33.769 107.529C33.6891 107.485 33.6165 107.442 33.5439 107.398C33.5294 107.362 33.2463 107.116 33.21 107.073C33.181 107.037 33.1592 107.015 33.1446 107C33.1301 106.979 33.1156 106.95 33.0793 106.892C32.8906 106.588 32.7091 106.277 32.5566 105.958C32.5348 105.908 32.3388 105.474 32.3461 105.488C32.2807 105.336 32.2227 105.177 32.1646 105.025C32.0267 104.663 31.8887 104.294 31.7435 103.932C31.366 102.977 30.9159 102.051 30.5747 101.081C30.2117 100.046 30.0665 99.1345 30.052 98.049C30.0592 98.0056 30.0738 97.9622 30.0883 97.9188C30.0883 97.9405 30.1754 97.7162 30.2189 97.6366C30.2335 97.6148 30.3714 97.4122 30.4004 97.3688C30.5311 97.2169 30.6691 97.0721 30.8215 96.9419C31.1627 96.6379 31.6564 96.4136 32.1791 96.3268C32.3824 97.8754 32.8615 99.4167 33.3842 100.828C34.161 102.905 35.112 105.01 36.4333 106.805C36.3825 106.841 36.3462 106.87 36.3753 106.848L36.3825 106.856ZM42.6768 104.706C42.6768 104.706 42.4154 104.916 42.4154 104.924C42.0089 105.206 41.7475 105.314 41.3845 105.416C40.8618 105.568 40.9272 105.568 40.3899 105.524C40.7674 105.553 40.1867 105.445 40.1867 105.474C40.0923 105.423 39.9979 105.387 39.8963 105.343C39.8527 105.3 39.5696 104.967 39.5478 104.952C39.4534 104.822 39.359 104.692 39.2719 104.562C38.7057 103.73 38.2265 102.839 37.7837 101.935C36.8472 100.01 35.9905 97.7017 35.7727 95.69C35.7219 95.2196 35.6783 94.7131 35.7291 94.2427C35.7727 93.8809 35.8816 93.6132 36.0849 93.3888C36.5277 92.8895 37.1666 92.6218 37.8635 92.4192C38.0305 93.3237 38.2773 94.221 38.575 95.0966C39.0904 96.6235 39.6422 98.1359 40.1794 99.6555C40.644 100.965 41.0506 102.376 41.8637 103.52C42.1541 103.932 42.4662 104.272 42.8147 104.562C42.7711 104.612 42.7276 104.656 42.6768 104.699V104.706ZM48.0926 92.9981C47.9837 92.9474 47.9764 92.9546 48.0926 92.9981ZM61.8572 100.488C58.8879 97.9188 56.1945 95.0749 53.3051 92.4264C51.5845 90.8489 49.305 88.8082 46.7568 89.3727C43.7585 90.0384 42.7421 93.2586 43.7875 95.8709C44.3683 97.3182 45.2249 98.5917 46.1687 99.8292C46.6188 100.415 47.0907 101.001 47.5408 101.573C47.5045 101.602 47.4682 101.624 47.4319 101.645C47.0835 101.913 45.8929 102.065 45.225 101.928C45.1378 101.841 45.0435 101.754 44.9636 101.653C44.8402 101.494 44.7386 101.291 44.6442 101.117C44.3611 100.603 44.1796 100.061 43.9835 99.5108C43.4754 98.0852 42.9672 96.6597 42.4662 95.2341C41.9798 93.8664 41.4426 92.4481 41.2829 91.0009C41.0869 89.2424 41.6023 86.6808 43.7077 86.3479C46.0163 85.9861 48.5572 87.9616 50.1834 89.3871C50.8005 89.9299 51.6717 90.0601 52.3686 89.6694C53.3124 89.4885 54.1545 88.6635 53.8278 87.4695C52.7606 83.4968 51.7515 79.5095 50.8005 75.5006C50.0963 72.5265 49.4211 69.5451 48.8766 66.542C48.6516 65.3119 48.2523 64.183 48.7097 63.1699C48.8766 62.8009 49.2904 62.6055 49.7986 62.3667C50.2269 62.1713 50.0527 62.316 49.9729 62.3377C49.7623 62.3884 50.1906 62.4463 50.0019 62.3377C50.1616 62.4318 50.3213 62.5765 50.4375 62.7357C51.4103 64.0238 51.6934 65.9487 52.1653 67.5407C52.7751 69.5958 53.385 71.6437 53.9875 73.6988C55.2435 77.9972 56.4559 82.31 57.5811 86.6518C58.1401 88.8082 58.8153 90.8344 59.6865 92.8823C60.4705 94.7131 61.3127 96.5294 61.8717 98.447C62.1403 99.3805 62.2782 100.336 62.3435 101.305C62.2709 100.994 62.1258 100.712 61.8717 100.495L61.8572 100.488Z" fill="var(--fill-0, #323232)"/>
</g>
</g>
</svg>
