<svg preserveAspectRatio="none" width="100%" height="100%" overflow="visible" style="display: block;" viewBox="0 0 132 336.492" fill="none" xmlns="http://www.w3.org/2000/svg">
<g id="Group 167">
<path id="Vector" d="M56.0129 81.7689C56.5216 81.8185 57.0302 81.8681 57.5389 81.9302C60.7645 82.3644 61.2732 85.4535 61.9431 88.0589C62.551 90.4285 63.1465 92.7981 63.7544 95.1677C64.3127 95.0808 64.8834 95.0808 65.4789 95.2049C66.6823 95.453 67.7617 96.1354 68.903 96.5572C70.0444 96.979 71.161 97.2892 72.2031 97.8723C72.4637 97.4504 72.9227 97.1651 73.4438 97.1651H83.7286V91.5202C83.3936 91.0488 83.0586 90.5774 82.7237 90.1059C80.0439 86.2724 77.4634 82.3768 75.0318 78.3944C72.6374 74.4864 70.2429 70.4295 68.6053 66.1245C66.3349 66.6084 64.0646 67.0798 61.819 67.6505C59.1765 68.3328 56.4471 69.0896 54.1023 70.4915C51.6831 71.9307 50.4176 74.7345 48.9289 77.0296C48.1225 78.2703 47.3409 79.5109 46.5469 80.764C46.6461 80.764 46.733 80.7888 46.8322 80.7888C49.8966 81.0989 52.9609 81.4215 56.0253 81.7317L56.0129 81.7689Z" fill="var(--fill-0, white)"/>
<path id="Vector_2" d="M50.0629 124.881C49.5294 125.836 47.7553 125.985 47.3334 124.595C47.259 124.36 47.1598 124.124 47.0729 123.901C47.0109 123.789 46.9737 123.665 46.9365 123.541C46.2293 121.705 45.2864 119.993 44.6165 118.144C44.3187 117.325 43.8969 115.936 42.9168 115.626C42.495 115.502 42.0608 116.196 41.9988 116.482C42.83 118.355 43.6116 120.241 44.418 122.102C45.1375 123.777 42.83 125.265 41.8995 123.578C41.1675 122.251 40.4976 120.874 39.9269 119.472C39.6788 118.864 39.4679 118.281 39.3314 117.71C39.046 117.077 38.7731 116.444 38.4753 115.812C38.128 115.067 37.731 113.566 37.0734 113.033C36.0437 112.189 35.9817 113.926 36.1182 114.596C36.6888 115.998 37.2347 117.412 37.7682 118.826C38.2769 119.98 38.7979 121.159 39.0833 122.35C39.5175 124.211 36.9122 124.868 36.267 123.131C35.7832 121.816 35.2869 120.501 34.7907 119.199C34.5425 118.653 34.3068 118.107 34.0959 117.561C33.8602 116.941 33.5997 116.283 33.4012 115.601C33.2771 115.291 33.1655 114.981 33.0414 114.67C32.6568 113.752 32.3218 112.586 31.7139 111.78C31.4534 111.432 31.6519 111.482 31.168 111.494C30.3864 111.507 30.5601 111.867 30.6842 112.574C30.9075 113.852 31.3665 115.117 31.8008 116.333C32.4583 118.194 33.2027 120.067 33.9594 121.816C34.0215 121.953 34.0835 122.089 34.1331 122.238C34.7659 123.777 32.1233 124.856 31.4658 123.367C31.4162 123.256 31.3665 123.131 31.3169 123.02C31.2053 122.747 31.0812 122.449 30.9571 122.164C30.9447 122.127 30.9323 122.102 30.9199 122.065C29.9646 119.807 28.7488 117.189 27.533 114.943C27.1112 114.149 26.6646 113.368 26.1807 112.623C25.7837 112.003 25.275 111.073 24.6423 110.676C24.4066 110.527 24.2949 110.539 23.8235 110.775C23.7118 110.824 23.6622 110.862 23.625 110.886C23.625 111.011 23.6746 111.172 23.687 111.246C23.9227 112.189 24.357 113.07 24.7292 113.963C26.2055 117.499 28.0044 120.824 29.7661 124.211C30.374 125.377 30.771 126.543 32.1233 126.99C34.4061 127.747 36.9246 126.667 39.2569 126.68C41.5025 126.704 43.6736 127.275 45.9315 127.226C46.9985 127.201 49.3433 127.312 49.914 126.183C50.4102 125.203 51.4772 125.303 52.0975 125.886C52.1967 125.625 52.2836 125.365 52.3828 125.104C51.6136 125.03 50.8444 124.955 50.0877 124.881H50.0629Z" fill="var(--fill-0, white)"/>
<path id="Vector_3" d="M24.5989 120.675C24.5989 120.675 24.5989 120.749 24.5989 120.787C24.5989 121.494 23.929 122.35 23.135 122.251C22.9117 122.226 22.676 122.189 22.4527 122.164C22.4402 122.176 22.4154 122.189 22.3906 122.201C22.4775 122.325 22.5891 122.586 22.6512 122.672C22.7132 122.734 22.7752 122.809 22.8373 122.859C22.8745 122.896 22.9117 122.933 22.9489 122.97C23.0109 123.007 23.0854 123.045 23.1226 123.069C23.135 123.069 23.1474 123.082 23.1598 123.094C23.2591 123.131 23.3583 123.169 23.47 123.206C24.4004 123.541 25.3557 123.752 26.311 123.975C25.7155 122.883 25.1324 121.779 24.5741 120.675H24.5989Z" fill="var(--fill-0, white)"/>
<path id="Vector_4" d="M71.5938 65.0326C76.4074 68.0969 81.2211 71.1613 86.0471 74.2132C88.5532 72.0918 91.3942 70.2928 94.136 68.5187C95.5379 67.6131 96.9522 66.7198 98.3666 65.839C98.441 65.5661 98.5155 65.2807 98.5899 64.9954C97.9448 64.9954 97.3865 64.5239 97.1756 63.916C96.6421 62.4645 96.0342 61.0377 95.5379 59.5738C95.1037 58.3084 94.8432 56.9933 94.5951 55.6906C91.2826 58.023 87.2257 59.1768 82.9952 58.4572C80.5387 58.0354 78.2063 56.9933 76.1593 55.5417C75.9484 57.3159 75.5638 59.0651 74.869 60.7276C74.1619 62.4024 73.157 63.9904 71.6062 64.9954C71.6062 64.9954 71.6062 64.9954 71.6062 65.0078L71.5938 65.0326Z" fill="var(--fill-0, white)"/>
<path id="Vector_5" d="M75.1406 100.105C75.3763 100.304 75.6245 100.49 75.8726 100.676C78.1057 102.314 80.9468 103.468 83.5273 104.435C86.0085 105.366 88.6263 106.135 91.2812 106.085C91.0951 105.862 90.9835 105.577 90.9835 105.217C90.9835 104.497 91.6534 103.654 92.4474 103.753C93.564 103.902 94.6682 104.051 95.7847 104.2C95.9336 104.224 96.0949 104.237 96.2437 104.262V100.105H75.1406Z" fill="var(--fill-0, white)"/>
<path id="Vector_6" d="M96.7315 70.3304C96.4337 70.5165 96.1484 70.7026 95.8506 70.8887C92.8979 72.7869 89.7964 74.6726 87.191 77.0422C86.7196 77.464 85.9876 77.6253 85.4169 77.2655C81.4097 74.7098 77.3901 72.1665 73.3828 69.6108C73.6558 70.1443 73.9411 70.6778 74.2264 71.1988C77.6134 77.4392 81.5214 83.4439 85.6527 89.2252C85.7643 89.0639 85.876 88.9026 85.9752 88.7414C88.4813 84.9947 90.8757 81.1611 93.084 77.2407C94.3371 75.0076 95.6397 72.7 96.7191 70.3056L96.7315 70.3304Z" fill="var(--fill-0, white)"/>
<path id="Vector_7" d="M98.3813 52.7628C98.158 52.8 98.1208 52.8 98.2821 52.7628C98.3441 52.7628 98.4062 52.738 98.4682 52.7256C98.5674 52.7008 98.6543 52.676 98.7535 52.6512C98.8776 52.614 99.0017 52.5767 99.1133 52.5395C99.1257 52.5395 99.1381 52.5395 99.1505 52.5271C99.2498 52.4775 99.6592 52.2666 99.6964 52.2418C99.7709 52.1921 99.8577 52.1425 99.9321 52.0929C99.9817 52.0557 100.031 52.0185 100.081 51.9812C100.205 51.8944 100.18 51.9068 100.007 52.0433C100.093 52.1053 100.751 51.3113 100.887 51.1624C100.912 51.1376 100.925 51.1128 100.949 51.088C101.011 50.9887 101.074 50.9019 101.136 50.8026C101.247 50.6165 101.359 50.4304 101.458 50.2443C101.508 50.1575 101.632 49.9838 101.632 49.8846C101.557 50.0583 101.545 50.0955 101.582 49.9962C101.607 49.9466 101.619 49.897 101.644 49.8598C101.731 49.6364 101.805 49.4007 101.868 49.1774C101.93 48.9417 101.992 48.706 102.041 48.4578C102.066 48.3586 102.078 48.2593 102.091 48.1601C102.091 48.1105 102.091 48.0484 102.103 47.9988C102.153 47.4901 102.153 46.9691 102.103 46.448C102.041 45.6292 102.823 45.0213 103.567 44.9841C104.398 44.9468 104.969 45.6788 105.031 46.448C105.13 47.9492 104.907 49.4628 104.349 50.8523C105.118 50.5793 105.838 50.1575 106.371 49.5248C107.153 48.5943 107.388 47.3289 107.45 46.1503C107.55 43.7558 107.053 41.3738 106.582 39.0291C106.408 39.3268 106.21 39.5997 105.974 39.8479C106.197 40.3069 106.309 40.828 106.309 41.3366C106.309 41.4483 106.309 41.5475 106.272 41.6468C106.197 42.3788 105.912 43.0487 105.428 43.6194C104.994 44.1404 104.299 44.5498 103.629 44.6739C103.071 44.7732 102.537 44.7484 102.016 44.6119C101.681 45.9642 101.247 47.2917 100.602 48.6067C99.8453 50.1451 98.89 51.5594 97.7734 52.8373C98.0836 52.8497 98.3565 52.8373 98.3689 52.7876L98.3813 52.7628Z" fill="var(--fill-0, white)"/>
<path id="Vector_8" d="M68.5546 51.9814C69.6215 52.1303 70.7505 52.0434 71.8422 51.6712C71.9042 51.6464 71.9663 51.6464 72.0283 51.634C71.47 50.9516 70.949 50.2321 70.4775 49.4753C69.9937 50.4306 69.3361 51.2742 68.5546 51.9814Z" fill="var(--fill-0, white)"/>
<path id="Vector_9" d="M106.978 299.338H97.2884C97.2884 299.338 97.2884 299.45 97.2884 299.499C97.2387 301.819 97.2015 304.077 96.6928 306.36C96.3455 307.898 95.8989 309.424 95.5639 310.963C95.5639 311.012 95.5515 311.062 95.5391 311.112C97.0899 312.141 98.5042 313.419 99.8192 314.685C100.7 315.528 101.556 316.422 102.375 317.352C102.425 317.191 102.474 317.017 102.549 316.868C102.995 315.826 103.839 315.28 104.869 314.883C106.122 314.399 107.747 313.816 109.335 313.605C107.995 309.089 106.581 304.462 106.953 299.685C106.953 299.561 106.978 299.45 106.99 299.326L106.978 299.338Z" fill="var(--fill-0, white)"/>
<path id="Vector_10" d="M128.611 113.083C127.929 107.4 126.775 101.793 125.559 96.2099C124.926 93.3317 124.319 90.4658 123.798 87.5627C123.363 85.0939 122.941 82.625 122.259 80.2182C121.564 77.7617 120.584 75.4294 119.207 73.2831C118.252 71.7943 117.669 71.174 116.18 70.4048C113.091 68.8168 109.642 67.8491 106.305 66.9186C105.089 66.5836 103.861 66.2611 102.632 65.9509C102.62 66.3727 102.421 66.807 101.938 67.0923C101.565 67.3156 101.193 67.5513 100.821 67.7747C100.275 69.3751 99.6052 70.9383 98.8856 72.4642C95.598 79.4862 91.3798 86.1732 86.9384 92.5376C86.8515 92.6741 86.7399 92.7734 86.6406 92.8726V97.19H97.6947C98.4887 97.19 99.1586 97.86 99.1586 98.654V104.659C103.352 105.217 107.533 105.775 111.726 106.333C112.892 98.1577 112.284 89.9075 112.483 81.6821C112.533 79.8088 115.448 79.8088 115.398 81.6821C115.336 84.3371 115.349 86.9796 115.361 89.6222C116.949 87.1657 118.55 84.7093 120.138 82.2528C120.572 81.5953 121.428 81.3099 122.135 81.7318C122.793 82.1164 123.09 83.0716 122.656 83.7292C122.383 84.1634 122.098 84.5852 121.825 85.0194C119.877 88.0217 117.917 91.0365 115.969 94.0388C115.808 94.2869 115.597 94.473 115.349 94.5971C115.312 98.6415 115.138 102.686 114.58 106.718C116.242 106.941 117.917 107.165 119.579 107.388C120.361 107.487 121.043 107.971 121.043 108.852C121.043 109.559 120.373 110.415 119.579 110.316C118.463 110.167 117.359 110.018 116.242 109.869C108.662 108.852 101.069 107.847 93.4889 106.83C93.5137 106.867 93.5261 106.879 93.5509 106.917C94.8536 109.423 94.7916 112.338 94.3077 115.055C93.9231 117.239 93.1787 119.435 92.0994 121.395C97.918 123.02 103.737 124.645 109.605 126.047C111.689 126.543 113.798 126.916 115.92 127.176C115.944 127.176 115.969 127.151 115.994 127.139C116.366 127.04 116.8 127.114 117.148 127.313C117.656 127.362 118.165 127.424 118.674 127.461C120.597 127.598 122.582 127.685 124.492 127.412C125.696 127.238 127.197 126.965 127.879 125.849C128.872 124.211 128.946 121.829 129.021 119.968C129.12 117.66 128.884 115.402 128.611 113.107V113.083Z" fill="var(--fill-0, white)"/>
<path id="Vector_11" d="M91.4198 114.658C91.6556 113.504 91.7548 112.326 91.7052 111.147C91.668 110.427 91.5439 109.658 91.3082 108.988C86.0355 109.162 80.676 106.619 76.1353 104.224C74.9071 103.579 73.8401 102.624 72.7484 101.731C72.5499 101.644 72.3762 101.507 72.2521 101.334C71.4829 100.738 70.6765 100.205 69.7708 99.882C68.5302 99.423 67.2896 99.026 66.0738 98.4925C65.4907 98.2444 64.982 98.0583 64.4609 98.0459C64.8331 99.5222 65.1929 100.999 65.5527 102.475C65.8505 102.338 66.1358 102.214 66.4335 102.103C67.1655 101.805 67.9471 101.52 68.7287 101.383C69.1381 101.309 69.4855 101.334 69.8577 101.532C70.1927 101.706 70.416 102.053 70.5276 102.401C70.6393 102.748 70.5648 103.207 70.3788 103.529C70.2175 103.815 69.8453 104.137 69.5103 104.199C68.7287 104.336 67.9471 104.609 67.2027 104.919C66.8802 105.055 66.57 105.217 66.2598 105.378C66.4583 106.197 66.6444 107.028 66.8429 107.847C68.3565 106.743 69.8577 105.626 71.3713 104.522C72.0288 104.038 72.9717 104.435 73.3687 105.043C73.5672 105.353 73.6168 105.812 73.5175 106.172C73.4059 106.569 73.1578 106.817 72.8476 107.04C72.5871 107.227 72.3265 107.425 72.066 107.611C70.5648 108.715 69.0637 109.819 67.5625 110.911C67.699 111.507 67.8479 112.102 67.9843 112.698C68.0464 112.661 68.096 112.611 68.158 112.574C70.3291 111.035 72.5002 109.497 74.6713 107.946C75.3413 107.475 76.2717 107.859 76.6687 108.467C77.1278 109.174 76.768 110.018 76.1477 110.465C75.8375 110.688 75.5274 110.899 75.2296 111.122C73.0585 112.661 70.8874 114.199 68.7163 115.75C68.7039 115.75 68.6915 115.762 68.6791 115.775C68.8032 116.333 68.9272 116.879 69.0389 117.437C69.0637 117.437 69.0885 117.449 69.1133 117.462C69.1133 117.462 69.1257 117.462 69.1381 117.462C69.225 117.462 69.2994 117.462 69.3862 117.462C69.4235 117.449 69.5475 117.387 69.5599 117.387C69.7584 117.276 69.9321 117.127 70.1182 116.99C70.5152 116.693 70.9122 116.407 71.3092 116.122C72.9717 114.918 74.5101 113.839 76.0236 112.512C76.6439 111.978 77.4752 111.953 78.0831 112.512C78.6413 113.02 78.6538 114.075 78.0831 114.571C77.7233 114.894 77.3387 115.191 76.9665 115.502C78.418 116.023 79.8572 116.569 81.3583 116.916C83.2565 117.363 85.1175 117.127 87.0156 116.395C87.76 116.109 88.616 116.717 88.8145 117.412C88.8642 117.611 88.8766 117.797 88.8517 117.97C89.286 118.119 89.745 118.343 90.204 118.591C90.7499 117.313 91.1593 115.985 91.4323 114.621L91.4198 114.658Z" fill="var(--fill-0, white)"/>
<path id="Vector_12" d="M115.18 129.992C112.687 129.657 110.218 129.198 107.762 128.59C101.831 127.114 95.9383 125.476 90.0453 123.839C89.3753 123.653 89.0652 123.144 89.0156 122.611C88.6558 122.201 88.5317 121.618 88.9287 121.023C89.425 120.266 89.822 119.459 90.1818 118.628C89.7351 118.368 89.2637 118.157 88.8295 118.008C88.755 118.566 88.3332 119.025 87.7749 119.236C85.5542 120.092 83.259 120.315 80.9267 119.832C80.6661 119.782 80.4056 119.695 80.1451 119.633C79.7853 119.894 79.4379 120.154 79.0781 120.427C76.3611 122.424 73.6442 124.434 70.9396 126.432C70.6418 126.655 70.2696 126.68 69.9347 126.593C69.7362 126.705 69.488 126.754 69.1779 126.729C68.297 126.643 67.4286 126.556 66.5478 126.481C62.8135 126.122 59.0916 125.762 55.3573 125.402C54.7121 127.201 54.067 129.012 53.4219 130.811C54.2035 131.345 54.9727 131.903 55.7046 132.498C56.9701 133.528 58.6077 134.93 59.0915 136.592H82.7876C85.455 135.352 88.0231 133.975 90.4051 132.25C92.8491 130.489 95.3056 128.776 97.9109 127.263C99.5361 126.32 101.012 128.839 99.3873 129.781C96.7819 131.307 94.3255 133.007 91.8814 134.769C90.9758 135.426 90.0205 136.022 89.0652 136.592H106.446C107.799 135.588 109.35 134.98 110.913 134.347C111.124 134.26 111.322 134.186 111.533 134.099C111.57 134.086 111.669 134.037 111.707 134.024C111.818 133.975 111.93 133.925 112.054 133.875C112.501 133.665 112.947 133.441 113.382 133.206C114.151 132.771 114.846 132.275 115.503 131.717C115.404 131.146 115.292 130.575 115.193 130.005L115.18 129.992Z" fill="var(--fill-0, white)"/>
<path id="Vector_13" d="M58.2348 303.867C57.8998 307.341 56.5227 310.566 54.8727 313.606C54.8355 313.668 54.7983 313.742 54.7734 313.817C56.6468 313.259 58.5946 313.197 60.5548 313.618C62.8624 314.115 64.8846 315.169 66.4974 316.869C66.7827 317.179 67.0557 317.502 67.3286 317.824C67.5891 317.117 67.8869 316.435 68.2219 315.777C68.2095 315.541 68.1971 315.306 68.1847 315.095C68.1722 313.246 67.7628 311.435 67.7628 309.586C67.7628 308.023 67.9489 306.485 68.0978 304.934C68.3087 302.676 68.3956 300.368 68.5444 298.073C65.1823 298.011 61.8202 297.949 58.4705 297.887C58.4705 299.885 58.4333 301.882 58.2472 303.855L58.2348 303.867Z" fill="var(--fill-0, white)"/>
<path id="Vector_14" d="M104.379 32.5531C104.231 32.1933 104.007 31.8211 103.685 31.5978C103.362 31.3745 102.978 31.3 102.593 31.3124C102.134 31.3124 101.948 31.6226 102.382 31.1512C101.179 32.4538 99.2805 30.6921 100.124 29.3398C98.4741 27.4169 97.2334 25.2457 96.2906 22.8885C95.3973 20.643 94.7894 18.2858 94.0078 16.0031C93.8341 15.482 94.045 14.9237 94.4296 14.5515C93.9706 13.8568 93.4495 13.2985 92.8044 12.9759C92.7424 14.0553 91.3156 14.9857 90.3107 13.9932C88.884 12.5789 86.6012 12.4921 84.7155 12.6285C82.7553 12.7774 80.7455 13.3233 79.0706 14.3902C72.3712 18.658 71.7261 27.9131 71.54 35.0591C71.4904 36.9573 71.4531 38.8555 71.4531 40.7536C71.4531 41.5476 71.4903 42.3416 71.4903 43.148C71.5648 43.3217 71.6144 43.5327 71.602 43.7808C71.5152 45.8774 72.731 47.6143 73.8848 49.252C75.0882 50.9516 76.5769 52.4528 78.3386 53.5818C81.6759 55.7281 85.6708 56.4228 89.4671 55.1574C93.189 53.9291 96.1045 50.9268 97.8786 47.5027C98.7842 45.7658 99.2309 43.9917 99.5534 42.1431C99.4666 41.8082 99.4418 41.4732 99.4666 41.1382C99.5038 40.8033 99.541 40.4807 99.6651 40.1705C99.8388 39.7363 100.025 39.4262 100.323 39.0664C101.079 38.1607 102.419 37.7265 103.585 37.987C104.094 37.4411 104.454 36.7464 104.603 35.8656C104.776 34.811 104.776 33.558 104.355 32.5655L104.379 32.5531ZM85.8941 39.0912C87.7798 39.0912 87.7674 42.0067 85.8941 42.0067C84.0207 42.0067 84.0207 39.0912 85.8941 39.0912ZM75.6837 26.4864C75.4356 25.7172 75.9814 24.9232 76.701 24.6875C77.4454 24.4518 78.2146 24.2905 78.9962 24.2284C79.9266 24.154 80.8571 24.2657 81.7628 24.4145C82.135 24.4766 82.4451 24.7867 82.6312 25.0845C82.8421 25.4194 82.8669 25.8413 82.7801 26.2134C82.7057 26.5608 82.4079 26.9082 82.1101 27.0819C81.7504 27.2928 81.3782 27.2928 80.9812 27.2308C80.9191 27.2308 80.8571 27.2184 80.7951 27.206C80.1251 27.1191 79.4552 27.1067 78.7853 27.1811C78.3386 27.2556 77.892 27.3672 77.4578 27.5037C76.6762 27.7518 75.8946 27.206 75.6589 26.4864H75.6837ZM79.2691 32.8756C77.3833 32.8756 77.3958 29.9602 79.2691 29.9602C81.1425 29.9602 81.1425 32.8756 79.2691 32.8756ZM90.5464 46.6342C88.1272 49.2768 83.5245 49.3512 81.0184 46.7831C80.4477 46.2 80.4725 45.3068 81.0184 44.7237C81.5519 44.153 82.5444 44.1778 83.0779 44.7237C83.1895 44.8353 83.3012 44.9346 83.4252 45.0462C83.4873 45.0834 83.5369 45.1207 83.5989 45.1579C83.723 45.2447 83.8594 45.3192 83.9959 45.3812C83.9959 45.3812 84.0455 45.3936 84.0828 45.4184C84.1076 45.4184 84.1696 45.4432 84.1944 45.468C84.4798 45.5673 84.7651 45.6417 85.0504 45.7037C85.1001 45.7037 85.1621 45.7038 85.1745 45.7162C85.1993 45.7162 85.2365 45.7162 85.249 45.7162C85.4102 45.7286 85.5715 45.741 85.7328 45.741C85.8941 45.741 86.0429 45.7286 86.2042 45.7162C86.2166 45.7162 86.2415 45.7162 86.2539 45.7162C86.3283 45.7038 86.4275 45.6913 86.4399 45.6913C86.6012 45.6541 86.7501 45.6169 86.9114 45.5797C86.9858 45.5549 87.3456 45.4804 87.3704 45.4184C87.3704 45.4432 87.0851 45.5549 87.2836 45.4432C87.3704 45.3936 87.4573 45.3564 87.5441 45.3068C87.6806 45.2323 87.8295 45.1455 87.9535 45.0462C88.0031 45.009 88.1892 44.8229 88.0404 44.9842C87.8791 45.1455 88.1024 44.9221 88.1148 44.9097C88.2389 44.7981 88.3505 44.674 88.4746 44.5624C89.0205 43.9669 89.9758 44.0413 90.534 44.5624C91.1295 45.1082 91.0551 46.0635 90.534 46.6218L90.5464 46.6342ZM92.3329 32.8756C90.4472 32.8756 90.4596 29.9602 92.3329 29.9602C94.2063 29.9602 94.2063 32.8756 92.3329 32.8756ZM95.9308 26.4864C95.7571 27.2308 94.8638 27.7394 94.1319 27.5037C93.6976 27.3672 93.251 27.2556 92.8044 27.1811C92.1345 27.1067 91.4645 27.1315 90.7946 27.206C90.7325 27.206 90.6705 27.2183 90.6085 27.2308C90.1991 27.2928 89.8517 27.2804 89.4795 27.0819C89.1445 26.9082 88.9212 26.5608 88.8096 26.2134C88.6979 25.8661 88.7723 25.407 88.9584 25.0845C89.1197 24.7991 89.4919 24.4642 89.8269 24.4145C90.7449 24.2657 91.6754 24.154 92.5935 24.2284C93.3751 24.2905 94.1443 24.4518 94.8886 24.6875C95.6702 24.9356 96.0921 25.68 95.906 26.4864H95.9308Z" fill="var(--fill-0, white)"/>
<path id="Vector_15" d="M94.4579 14.539C94.6316 14.3777 94.8301 14.2537 95.0534 14.1916C95.8474 13.9683 96.5918 14.4646 96.8523 15.209C97.5843 17.3677 98.1674 19.576 98.9862 21.7099C99.8422 23.943 101.033 26.0273 102.658 27.789C102.82 27.9627 102.931 28.1612 102.993 28.3473C103.589 28.4217 104.197 28.5954 104.718 28.8435C104.557 27.9751 104.395 27.119 104.246 26.2506C103.539 21.9952 102.807 17.6902 101.343 13.6209C100.351 10.8419 98.949 6.48733 95.4504 6.2268C93.9368 6.11514 93.6515 4.19216 94.582 3.52222C94.2842 3.39816 93.9865 3.24928 93.6887 3.0756C93.6515 4.01848 92.6094 4.99858 91.4804 4.42789C86.1581 1.78534 80.3768 2.72822 75.6375 6.09033C67.5734 11.8096 66.3824 21.7719 64.3354 30.692C63.2312 35.5181 61.6184 40.5551 62.2015 45.5548C62.462 47.7507 63.6778 49.5744 65.3651 50.7158C66.4072 50.1575 67.3005 49.3635 67.8712 48.2718C69.0498 46.0138 68.6032 43.1728 68.5908 40.7287C68.5411 33.0368 68.3798 24.2283 72.3871 17.3801C74.3349 14.0304 77.3744 11.4126 81.1211 10.3209C84.719 9.27876 89.5574 9.06784 92.4233 11.8965C92.7583 12.219 92.8699 12.5912 92.8575 12.951C93.5026 13.2612 94.0237 13.8319 94.4827 14.5266L94.4579 14.539Z" fill="var(--fill-0, white)"/>
<path id="Vector_16" d="M103.421 41.312C103.408 41.25 103.384 41.188 103.371 41.1259C103.346 41.0887 103.322 41.0515 103.297 41.0143C103.272 40.9895 103.247 40.9646 103.235 40.9522C103.198 40.9274 103.16 40.9026 103.123 40.8778C103.086 40.8654 103.036 40.853 102.999 40.8406C102.949 40.8406 102.912 40.8406 102.863 40.8406C102.825 40.8406 102.776 40.8654 102.738 40.8778C102.701 40.9026 102.664 40.9274 102.627 40.9522C102.602 40.977 102.577 41.0019 102.565 41.0143C102.54 41.0515 102.515 41.0887 102.49 41.1259C102.478 41.1632 102.466 41.2128 102.453 41.25C102.453 41.2996 102.453 41.3368 102.453 41.3865C102.453 41.4237 102.478 41.4733 102.49 41.5105C102.515 41.5477 102.54 41.585 102.565 41.6222C102.59 41.647 102.602 41.6718 102.627 41.6842C102.664 41.709 102.701 41.7338 102.738 41.7586C102.776 41.7711 102.825 41.7835 102.863 41.7959C102.912 41.7959 102.949 41.7959 102.999 41.7959C103.036 41.7959 103.086 41.7711 103.123 41.7586C103.16 41.7338 103.198 41.709 103.235 41.6842C103.26 41.6594 103.284 41.6346 103.297 41.6222C103.322 41.585 103.346 41.5477 103.371 41.5105C103.396 41.4485 103.408 41.3865 103.421 41.3244V41.312Z" fill="var(--fill-0, white)"/>
<path id="Vector_17" d="M33.2601 102.264C33.2601 102.264 33.3717 102.326 33.4213 102.351C33.4834 102.376 33.5578 102.388 33.6199 102.401C33.6943 102.401 33.7811 102.401 33.868 102.401C33.93 102.388 34.0044 102.363 34.0665 102.351C34.1161 102.326 34.1781 102.289 34.2278 102.264C34.2526 102.239 34.2774 102.215 34.3146 102.19C34.3146 102.177 34.3518 102.14 34.4015 102.091C34.4387 102.041 34.4635 101.979 34.4883 101.917C34.5255 101.805 34.5627 101.681 34.5875 101.569C34.5875 101.545 34.5875 101.52 34.5875 101.495C34.5875 101.47 34.5875 101.445 34.5875 101.421C34.5627 101.297 34.5255 101.185 34.4883 101.073C34.4511 101.011 34.4263 100.949 34.3891 100.887C34.3642 100.85 34.327 100.825 34.327 100.813C34.3022 100.788 34.265 100.751 34.2402 100.726C34.1905 100.689 34.1285 100.664 34.0789 100.639C34.0169 100.614 33.9424 100.602 33.8804 100.589C33.806 100.589 33.7191 100.589 33.6323 100.589C33.5702 100.602 33.4958 100.627 33.4338 100.639C33.3841 100.664 33.3221 100.701 33.2725 100.726C33.2477 100.751 33.2229 100.775 33.1856 100.8C33.1856 100.813 33.1484 100.85 33.0988 100.9C33.0616 100.949 33.0368 101.011 33.012 101.073C32.9747 101.172 32.9499 101.259 32.9375 101.359C32.9375 101.458 32.9375 101.545 32.9375 101.644C32.9623 101.743 32.9871 101.842 33.012 101.929C33.0492 101.991 33.074 102.053 33.1112 102.115C33.136 102.153 33.1732 102.177 33.1732 102.19C33.198 102.215 33.2353 102.252 33.2601 102.277V102.264Z" fill="var(--fill-0, white)"/>
<path id="Vector_18" d="M34.2969 102.189C34.2969 102.189 34.3215 102.189 34.3707 102.115C34.3461 102.14 34.3215 102.164 34.2969 102.189Z" fill="var(--fill-0, white)"/>
<path id="Vector_19" d="M34.46 102.028C34.4354 102.053 34.4231 102.077 34.3984 102.09C34.4231 102.065 34.4477 102.04 34.46 102.016V102.028Z" fill="var(--fill-0, white)"/>
<path id="Vector_20" d="M33.0234 100.961C33.0481 100.936 33.0604 100.912 33.085 100.899C33.0604 100.924 33.0357 100.949 33.0234 100.973V100.961Z" fill="var(--fill-0, white)"/>
<path id="Vector_21" d="M33.1832 100.8C33.1832 100.8 33.1586 100.8 33.1093 100.874C33.134 100.849 33.1586 100.825 33.1832 100.8Z" fill="var(--fill-0, white)"/>
<path id="Vector_22" d="M112.898 322.526C113.009 322.514 112.985 322.526 112.898 322.526Z" fill="var(--fill-0, white)"/>
<path id="Vector_23" d="M53 325.18C53 325.18 53.0369 325.205 53 325.156C53 325.156 53 325.168 53 325.18Z" fill="var(--fill-0, white)"/>
<path id="Vector_24" d="M23.1544 119.323C23.5142 119.372 23.8616 119.509 24.1221 119.72C23.8616 119.174 23.6011 118.628 23.3529 118.082C22.7698 116.78 22.2116 115.464 21.6657 114.149C21.2315 113.095 20.698 112.003 20.7228 110.837C20.7724 108.591 23.6631 106.941 25.6977 107.884C26.6406 108.331 27.4222 109.174 28.0922 110.117C28.2162 109.906 28.3651 109.708 28.5636 109.534C29.5313 108.653 31.293 108.306 32.5088 108.753C33.4517 109.1 34.01 109.882 34.4442 110.738C35.2134 110.155 36.2183 109.857 37.1488 109.981C38.501 110.155 39.4315 111.11 40.027 112.276C40.2379 112.685 40.424 113.095 40.6225 113.504C42.5579 111.792 45.064 113.082 46.4535 115.067C47.3343 116.333 47.6693 118.008 48.3269 119.41C48.7239 120.241 49.1085 121.072 49.4558 121.916C49.9397 121.965 50.4359 122.015 50.9198 122.052C56.9989 122.635 63.0904 123.231 69.1695 123.814C69.2811 123.814 69.3928 123.851 69.5044 123.876C69.8766 123.603 70.2364 123.33 70.6086 123.07C72.6556 121.568 74.6903 120.055 76.7373 118.554C75.9309 118.256 75.1245 117.971 74.3181 117.71C74.2684 117.698 74.2312 117.673 74.194 117.66C73.5861 118.107 72.9782 118.541 72.3703 118.988C71.5142 119.608 70.7202 120.266 69.6905 120.402C69.7898 120.861 69.889 121.308 69.9883 121.767C70.3729 123.603 67.5566 124.385 67.172 122.548C66.9735 121.63 66.775 120.712 66.5765 119.794C65.9562 117.015 65.3235 114.236 64.6784 111.457C64.6163 111.383 64.5543 111.308 64.5047 111.234C64.3062 110.924 64.2566 110.465 64.3558 110.105C63.4253 106.085 62.4576 102.078 61.4651 98.0708C61.0433 97.649 60.8448 97.0163 61.0805 96.4952C60.2865 93.3192 59.4801 90.1432 58.6365 86.9672C58.3263 85.7886 58.041 84.9325 56.85 84.8085C55.9567 84.7216 55.0635 84.6224 54.1702 84.5355C50.6592 84.1758 47.1482 83.816 43.6497 83.4438C34.2705 82.4761 24.8789 81.5084 15.4997 80.5407C12.2121 80.2057 8.92441 79.8584 5.63673 79.5234C4.91717 79.449 4.18519 79.3125 3.46563 79.3001C3.18028 79.3001 3.00659 79.1884 2.88253 79.5482C2.78328 79.8335 3.0314 80.5283 3.09344 80.8261C3.18028 81.3223 3.27953 81.8061 3.36638 82.3024C5.68636 94.1752 8.68869 105.924 11.1948 117.76C15.1772 118.293 19.1596 118.827 23.1544 119.36V119.323ZM30.9208 98.9517C31.8513 97.8103 33.5509 97.314 34.9404 97.8351C36.4788 98.4182 37.4837 99.8325 37.5085 101.495C37.5085 101.594 37.5085 101.693 37.4837 101.793C37.3349 103.406 36.2183 104.919 34.5807 105.254C32.9802 105.589 31.3426 104.894 30.5114 103.48C30.1392 102.835 29.9283 102.041 29.9903 101.296C30.0648 100.416 30.3625 99.6464 30.9208 98.9641V98.9517Z" fill="var(--fill-0, #ECECEC)"/>
<path id="Vector_25" d="M22.3906 122.201C22.4399 122.386 22.4276 122.287 22.3906 122.201Z" fill="var(--fill-0, #78C8E6)"/>
<path id="Vector_26" d="M86.2178 45.7285C86.2178 45.7285 86.2178 45.7285 86.2055 45.7285C86.1809 45.7285 86.1686 45.7285 86.1562 45.7408C86.1562 45.7408 86.1809 45.7408 86.2178 45.7285Z" fill="var(--fill-0, #78C8E6)"/>
<path id="Vector_27" d="M84.2154 45.4928C84.2154 45.4928 84.2154 45.4928 84.2031 45.4805L84.2278 45.4928H84.2154Z" fill="var(--fill-0, #78C8E6)"/>
<path id="Vector_28" d="M84.1579 45.4677C84.1579 45.4677 84.1702 45.4677 84.1825 45.4677C84.1579 45.4554 84.1209 45.4308 84.084 45.4185C84.0594 45.4185 84.0594 45.4185 84.1579 45.4554V45.4677Z" fill="var(--fill-0, #78C8E6)"/>
<path id="Vector_29" d="M95.6625 322.178C95.2655 321.93 94.8437 321.695 94.4219 321.471C94.4467 321.558 94.4715 321.645 94.4963 321.732C94.4963 321.757 94.4963 321.757 94.4963 321.769C94.4963 321.769 94.4963 321.769 94.4963 321.781C94.5583 321.905 94.608 322.017 94.6824 322.141C94.7444 322.265 94.8313 322.377 94.9057 322.501C94.9057 322.501 94.9057 322.513 94.9181 322.526C94.9181 322.526 94.9181 322.526 94.9305 322.538C95.005 322.613 95.067 322.687 95.1414 322.761C95.1662 322.774 95.1786 322.799 95.2035 322.811C95.2159 322.811 95.2035 322.811 95.2407 322.836C95.3771 322.91 95.6005 323.121 95.7617 323.121C95.5632 323.034 95.5384 323.034 95.6873 323.084C95.7369 323.096 95.7866 323.121 95.8362 323.134C95.9479 323.171 96.0595 323.208 96.1836 323.233C96.3821 323.282 96.593 323.332 96.8039 323.369C96.8287 323.369 96.8535 323.369 96.8659 323.369C96.5309 322.898 96.1463 322.476 95.6377 322.154L95.6625 322.178Z" fill="var(--fill-0, #D5D5D5)"/>
<path id="Vector_30" d="M85.1766 45.7285C85.1766 45.7285 85.1151 45.7285 85.0781 45.7285C85.1643 45.7531 85.1889 45.7408 85.1766 45.7285Z" fill="var(--fill-0, #78C8E6)"/>
<path id="Vector_31" d="M110.462 152.088C110.053 149.78 109.718 147.299 108.85 145.103C108.726 144.793 108.713 144.507 108.788 144.272C108.75 142.684 108.713 141.108 108.676 139.52H59.8199C59.8571 140.066 59.8819 140.624 59.9192 141.17C60.0308 142.994 60.4775 145.09 59.9936 146.877C59.2865 149.519 58.7033 152.187 58.1947 154.879C56.2221 165.065 55.1551 175.722 56.5198 186.056C56.7556 187.818 56.6687 189.617 56.6935 191.391C56.7556 195.485 56.8176 199.591 56.8672 203.685C57.0533 216.253 57.2394 228.821 57.4131 241.388C57.5992 253.968 57.7853 266.536 57.959 279.116C58.0334 284.401 58.1078 289.698 58.1947 294.983C62.847 295.07 67.487 295.157 72.1394 295.232C72.2014 294.115 72.3751 292.986 72.4495 291.894C72.6853 288.619 72.921 285.344 73.1567 282.069C73.8763 272.205 74.5834 262.33 75.303 252.467C76.1342 241.066 76.953 229.652 77.7843 218.25C78.4666 208.822 79.1489 199.405 79.8313 189.976C80.067 186.788 80.2903 183.6 80.526 180.399L80.2655 180.51C79.546 180.833 78.7023 180.721 78.2681 179.989C77.8959 179.357 78.0696 178.315 78.7892 177.992C79.3971 177.719 80.005 177.434 80.6129 177.161C81.8163 176.615 83.0073 176.069 84.2107 175.536C84.2107 175.002 84.2107 174.456 84.2107 173.923C84.2107 166.156 84.1983 158.39 84.1859 150.611C84.1859 150.487 84.1983 150.376 84.2231 150.264L62.9215 150.376C61.0357 150.376 61.0482 147.46 62.9215 147.46C64.3979 147.46 65.8742 147.448 67.3629 147.435C77.9455 147.386 88.5281 147.324 99.1107 147.274C100.996 147.274 100.984 150.189 99.1107 150.189C97.6344 150.189 96.158 150.202 94.6692 150.214C92.1384 150.227 89.6075 150.239 87.0642 150.251C87.089 150.363 87.1138 150.487 87.1138 150.611C87.1138 151.703 87.1138 152.795 87.1138 153.887C87.1138 160.66 87.1138 167.434 87.1262 174.208C89.2105 173.265 91.3071 172.31 93.3914 171.367C94.111 171.044 94.9546 171.156 95.3888 171.888C95.761 172.521 95.5873 173.563 94.8678 173.885C94.2598 174.158 93.6519 174.444 93.044 174.717C91.9275 175.225 90.8233 175.722 89.7067 176.23C90.0665 181.118 90.203 186.031 90.4511 190.919C90.9597 201.068 91.4684 211.228 91.9895 221.377C92.585 233.126 93.1681 244.862 93.7636 256.611C94.2474 266.325 94.7437 276.027 95.2275 285.741C95.4012 289.301 95.5873 292.85 95.761 296.41H108.862C108.862 294.636 109.048 292.825 109.123 291.076C109.284 286.634 109.445 282.18 109.619 277.739C110.09 265.097 110.549 252.455 111.021 239.813C111.48 227.468 111.939 215.112 112.385 202.767C112.596 196.912 112.658 191.031 113.031 185.188C113.49 178.066 112.969 170.982 112.15 163.898C111.691 159.941 111.132 155.996 110.438 152.075L110.462 152.088ZM64.5219 254.911C64.8445 240.123 64.9934 225.322 65.2043 210.534C65.4276 195.038 65.7501 179.555 66.3332 164.072C66.4077 162.199 69.3231 162.199 69.2487 164.072C68.9137 173.079 68.6532 182.086 68.4671 191.093C68.1445 205.881 67.9957 220.682 67.7848 235.47C67.5615 250.966 67.2389 266.449 66.6558 281.932C66.5814 283.805 63.6659 283.805 63.7403 281.932C64.0753 272.925 64.3358 263.918 64.5219 254.911ZM104.371 161.975C104.991 170.747 105.388 179.543 105.612 188.339C106.393 219.119 105.103 249.911 104.991 280.691C104.991 282.577 102.063 282.565 102.076 280.691C102.113 271.883 102.237 263.087 102.386 254.278C102.907 223.511 103.639 192.706 101.456 161.975C101.319 160.102 104.247 160.114 104.371 161.975ZM93.4658 180.672C92.6718 180.461 92.2748 179.642 92.4485 178.873C92.6222 178.104 93.5031 177.657 94.2474 177.856C94.4583 177.918 94.6693 177.967 94.8678 178.029C96.3317 178.426 97.7832 178.823 99.2472 179.208C100.041 179.419 100.438 180.238 100.264 181.007C100.091 181.776 99.21 182.223 98.4656 182.024C98.2547 181.962 98.0438 181.912 97.8453 181.85C96.3813 181.453 94.9298 181.056 93.4658 180.672Z" fill="var(--fill-0, #78C8E6)"/>
<path id="Vector_32" d="M98.4785 182.024C99.2104 182.223 100.104 181.776 100.277 181.007C100.451 180.238 100.042 179.419 99.2601 179.208C97.7961 178.811 96.3446 178.414 94.8806 178.029C94.6697 177.967 94.4588 177.918 94.2603 177.856C93.5283 177.657 92.6351 178.104 92.4614 178.873C92.2877 179.642 92.6971 180.461 93.4787 180.672C94.9427 181.069 96.3942 181.466 97.8581 181.85C98.069 181.913 98.28 181.962 98.4785 182.024Z" fill="var(--fill-0, #323232)"/>
<path id="Vector_33" d="M95.9379 26.4865C96.124 25.6925 95.7022 24.9357 94.9206 24.6876C94.1762 24.4519 93.407 24.2906 92.6254 24.2285C91.695 24.1541 90.7645 24.2658 89.8588 24.4146C89.5239 24.4767 89.1517 24.7992 88.9904 25.0846C88.8043 25.3947 88.7299 25.8538 88.8415 26.2135C88.9532 26.5609 89.1765 26.9083 89.5115 27.082C89.8836 27.2805 90.231 27.2929 90.6404 27.2309C90.7025 27.2309 90.7645 27.2185 90.8265 27.2061C91.4965 27.1192 92.1664 27.1068 92.8363 27.1812C93.283 27.2557 93.7296 27.3673 94.1638 27.5038C94.8958 27.7395 95.789 27.2309 95.9627 26.4865H95.9379Z" fill="var(--fill-0, #323232)"/>
<path id="Vector_34" d="M80.8293 27.2061C80.8293 27.2061 80.9533 27.2184 81.0154 27.2309C81.4124 27.2929 81.7846 27.2929 82.1444 27.082C82.4421 26.9083 82.7399 26.5609 82.8143 26.2135C82.9012 25.8414 82.8763 25.4195 82.6654 25.0846C82.4669 24.7868 82.1568 24.4767 81.797 24.4146C80.8789 24.2658 79.9484 24.1541 79.0304 24.2285C78.2488 24.2906 77.4796 24.4519 76.7352 24.6876C76.0032 24.9233 75.4698 25.7173 75.7179 26.4865C75.9536 27.2185 76.7352 27.7519 77.5168 27.5038C77.951 27.3673 78.3976 27.2557 78.8443 27.1812C79.5142 27.1068 80.1842 27.1316 80.8541 27.2061H80.8293Z" fill="var(--fill-0, #323232)"/>
<path id="Vector_35" d="M92.3362 32.8757C94.2095 32.8757 94.222 29.9602 92.3362 29.9602C90.4504 29.9602 90.4504 32.8757 92.3362 32.8757Z" fill="var(--fill-0, #323232)"/>
<path id="Vector_36" d="M85.894 39.0911C84.0207 39.0911 84.0083 42.0066 85.894 42.0066C87.7798 42.0066 87.7798 39.0911 85.894 39.0911Z" fill="var(--fill-0, #323232)"/>
<path id="Vector_37" d="M85.0793 45.7162C85.0793 45.7162 85.1409 45.7162 85.1778 45.7162C85.1655 45.7162 85.1039 45.6916 85.0547 45.7039C85.0547 45.7039 85.067 45.7039 85.0793 45.7039V45.7162Z" fill="var(--fill-0, #323232)"/>
<path id="Vector_38" d="M84.1967 45.4677C84.1967 45.4677 84.1229 45.4185 84.0859 45.4185C84.1229 45.4308 84.1598 45.4554 84.1844 45.4677H84.1967Z" fill="var(--fill-0, #323232)"/>
<path id="Vector_39" d="M90.5516 46.6344C91.0727 46.0761 91.1471 45.1208 90.5516 44.5749C89.9933 44.0539 89.038 43.9794 88.4921 44.5749C88.3805 44.699 88.2688 44.8231 88.1324 44.9223C88.1075 44.9471 87.8966 45.158 88.0579 44.9967C88.2068 44.8355 88.0207 45.0216 87.9711 45.0588C87.8346 45.1456 87.6981 45.2325 87.5617 45.3193C87.4748 45.3689 87.388 45.4062 87.3011 45.4558C87.1026 45.5674 87.3756 45.4558 87.388 45.431C87.3632 45.493 87.0034 45.5674 86.9289 45.5922C86.7801 45.6419 86.6188 45.6791 86.4575 45.7039C86.4575 45.7039 86.3459 45.7163 86.2714 45.7287C86.4203 45.7287 86.3459 45.7287 86.2714 45.7287C86.259 45.7287 86.2466 45.7287 86.2342 45.7287C86.197 45.7287 86.1722 45.7287 86.1722 45.7411C86.1722 45.7411 86.197 45.7411 86.2218 45.7287C86.0605 45.7287 85.9116 45.7535 85.7504 45.7535C85.5891 45.7535 85.4278 45.7535 85.2665 45.7287C85.2541 45.7287 85.2169 45.7287 85.1921 45.7287C85.1921 45.7287 85.1921 45.7287 85.0928 45.7287C85.068 45.7287 85.0308 45.7287 85.0308 45.7287C85.0308 45.7287 85.0556 45.7287 85.068 45.7287C84.7703 45.6667 84.4973 45.5922 84.212 45.493C84.212 45.493 84.2244 45.493 84.2244 45.5054C84.2244 45.5054 84.2244 45.5054 84.1996 45.493C84.1996 45.493 84.1872 45.493 84.1747 45.493C84.0631 45.4558 84.0631 45.4434 84.1003 45.4558C84.0631 45.4434 84.0259 45.431 84.0135 45.4186C83.877 45.3441 83.7405 45.2697 83.6165 45.1953C83.5544 45.158 83.5048 45.1208 83.4428 45.0836C83.3311 44.9719 83.2071 44.8727 83.0954 44.761C82.5619 44.2151 81.557 44.1903 81.036 44.761C80.4901 45.3441 80.4653 46.2374 81.036 46.8205C83.542 49.3886 88.1448 49.3141 90.564 46.6716L90.5516 46.6344Z" fill="var(--fill-0, #323232)"/>
<path id="Vector_40" d="M79.2736 32.8757C81.147 32.8757 81.1594 29.9602 79.2736 29.9602C77.3878 29.9602 77.3878 32.8757 79.2736 32.8757Z" fill="var(--fill-0, #323232)"/>
<path id="Vector_41" d="M131.95 117.387C131.727 111.68 130.573 105.899 129.419 100.329C128.774 97.2394 128.067 94.1627 127.422 91.0611C126.851 88.3069 126.43 85.5155 125.871 82.7613C125.338 80.156 124.618 77.6002 123.539 75.1686C122.646 73.1588 121.467 70.7023 119.767 69.2508C118.428 68.1094 116.74 67.4023 115.127 66.7571C113.142 65.9507 111.108 65.2932 109.061 64.6729C106.406 63.8789 103.726 63.1593 101.021 62.5514C100.55 62.4397 100.153 62.5514 99.8429 62.7747C99.3466 61.4596 98.8007 60.1446 98.3541 58.8171C98.0067 57.7998 97.771 56.7577 97.5601 55.7031C99.1481 55.7527 100.699 55.2069 101.927 54.2268C101.989 54.2268 102.039 54.2268 102.101 54.2268C105.599 53.8794 108.825 52.4402 109.954 48.8672C110.934 45.7781 110.19 42.2919 109.594 39.2027C108.825 35.2079 107.981 31.2379 107.336 27.2306C106.542 22.3922 105.81 17.4669 104.148 12.8393C102.622 8.58395 100.562 3.68345 95.4386 3.31126C95.0788 3.28644 94.7935 3.37329 94.5702 3.53457C95.1533 3.7827 95.7736 3.94399 96.5552 3.94399C95.786 3.94399 95.1657 3.7827 94.5702 3.53457C93.6397 4.19211 93.9251 6.12749 95.4386 6.23915C98.9372 6.48727 100.339 10.8543 101.332 13.6333C102.783 17.7026 103.528 22.0076 104.235 26.2629C104.384 27.1314 104.545 27.9998 104.706 28.8558C104.173 28.6077 103.577 28.434 102.982 28.3596C102.92 28.1611 102.808 27.975 102.647 27.8013C101.034 26.0396 99.8305 23.9429 98.9744 21.7222C98.1556 19.5883 97.5849 17.38 96.8405 15.2213C96.5924 14.4769 95.8356 13.9807 95.0416 14.204C94.8183 14.266 94.6198 14.3901 94.4461 14.5514C94.8555 15.1717 95.2153 15.8789 95.5627 16.5984C95.2029 15.8789 94.8431 15.1717 94.4461 14.5514C94.0615 14.9112 93.8382 15.4819 94.0243 16.0029C94.8059 18.2981 95.4138 20.6429 96.3071 22.8884C97.2499 25.258 98.4906 27.4167 100.141 29.3397C99.297 30.692 101.195 32.4413 102.399 31.151C101.964 31.6225 102.15 31.3123 102.609 31.3123C102.994 31.3123 103.379 31.3867 103.701 31.5976C104.024 31.821 104.247 32.1932 104.396 32.5529C104.818 33.5578 104.818 34.7985 104.644 35.853C104.495 36.7339 104.135 37.4286 103.627 37.9745C102.461 37.714 101.121 38.1358 100.364 39.0538C100.066 39.4136 99.8801 39.7238 99.7064 40.158C99.5823 40.4682 99.5327 40.7907 99.5079 41.1257C99.4707 41.4483 99.5079 41.7956 99.5947 42.1306C99.2598 43.9792 98.8255 45.7532 97.9199 47.4901C96.1334 50.9143 93.2303 53.9042 89.5084 55.1448C85.7121 56.3979 81.7172 55.7031 78.3799 53.5692C76.6307 52.4403 75.1295 50.9391 73.9261 49.2394C72.7599 47.6018 71.5565 45.8649 71.6433 43.7682C71.6433 43.5325 71.6061 43.3216 71.5317 43.1355C71.5317 42.3415 71.4944 41.5475 71.4944 40.7411C71.4944 38.8429 71.5317 36.9448 71.5813 35.0466C71.7674 27.8882 72.4125 18.6455 79.1119 14.3777C80.7744 13.3107 82.7966 12.7649 84.7568 12.616C86.6425 12.4795 88.9253 12.5664 90.352 13.9807C91.3569 14.9732 92.7837 14.0551 92.8457 12.9634C92.8705 12.6036 92.7464 12.2314 92.4115 11.9088C89.5456 9.0678 84.7072 9.2911 81.1093 10.3332C77.3626 11.425 74.3231 14.0427 72.3753 17.3924C68.3805 24.2531 68.5417 33.0616 68.579 40.7411C68.5914 43.1851 69.038 46.0262 67.8594 48.2841C67.2887 49.3759 66.3954 50.1823 65.3533 50.7282C63.6785 49.5868 62.4502 47.7631 62.1897 45.5671C61.6066 40.555 63.2194 35.518 64.3236 30.7044C66.3706 21.7967 67.5616 11.8344 75.6257 6.10268C80.3774 2.74057 86.1587 1.78529 91.4686 4.44024C92.61 5.01093 93.6521 4.03083 93.6769 3.08795C93.0814 2.76539 92.4611 2.38078 91.6919 1.98378C92.4735 2.36838 93.0938 2.75298 93.6769 3.08795C93.6893 2.64133 93.4784 2.1947 92.945 1.92176C87.5234 -0.782818 81.5311 -0.609136 76.2212 2.29394C71.6309 4.80002 68.0703 8.93132 65.924 13.6705C63.6413 18.7075 62.81 24.1911 61.5942 29.5382C60.3536 35.0466 58.505 40.8031 59.3859 46.51C59.696 48.5075 60.6265 50.2567 61.9416 51.6462C61.5942 51.6587 61.2344 51.6462 60.8995 51.6214C59.0261 51.4601 59.0385 54.388 60.8995 54.5369C62.3634 54.661 63.8273 54.4625 65.1796 53.991C67.4624 55.058 70.1297 55.3309 72.6234 54.4997C73.2065 54.3012 73.5167 53.867 73.6035 53.3955C73.6035 53.3955 73.6159 53.4079 73.6283 53.4203C73.678 53.47 73.7152 53.5072 73.7648 53.5444C73.5415 53.7925 73.405 54.1151 73.3678 54.4997C73.343 54.7354 73.3306 54.9711 73.3058 55.2069C73.3058 55.3185 73.281 55.4178 73.2685 55.517C73.2685 55.5666 73.2561 55.6163 73.2437 55.6659C73.1693 56.1125 73.0949 56.5467 72.9956 56.981C72.7971 57.8618 72.5366 58.7303 72.214 59.5739C72.214 59.5987 72.2016 59.6111 72.2016 59.6235C72.1644 59.7103 72.1272 59.7972 72.09 59.884C72.0031 60.0701 71.9163 60.2562 71.817 60.4423C71.6309 60.7897 71.42 61.1247 71.1967 61.4472C71.1719 61.4844 71.1719 61.4845 71.1595 61.4969C71.1099 61.5589 71.0602 61.6209 70.9982 61.6829C70.8989 61.807 70.7873 61.9187 70.6756 62.0303C70.564 62.142 70.4399 62.2536 70.3158 62.3529C70.3034 62.3529 70.291 62.3777 70.2662 62.3901C70.1918 62.4397 70.1173 62.4894 70.0305 62.539C69.8568 62.6382 69.7203 62.7747 69.6087 62.9236C66.6436 63.5563 63.6537 64.1518 60.7258 64.921C57.8847 65.6654 54.9196 66.5462 52.4135 68.1094C49.7338 69.7843 48.307 72.6501 46.6446 75.2306C45.528 76.9551 44.4115 78.692 43.3197 80.4289C34.8338 79.548 26.3355 78.6796 17.8496 77.7988C14.1153 77.4142 10.381 77.0296 6.64666 76.645C4.35149 76.4092 0.989378 75.516 0.120937 78.5803C-0.189221 79.6721 0.17057 80.9127 0.381477 82.0045C0.604791 83.1955 0.840511 84.3741 1.08864 85.5527C1.73376 88.6543 2.42851 91.7558 3.11086 94.845C4.62443 101.619 6.20004 108.38 7.68879 115.167C7.99895 116.568 8.2967 117.97 8.59445 119.385C8.74332 120.067 9.38846 120.377 9.99637 120.452C13.16 120.873 16.3236 121.295 19.4872 121.717C19.4748 121.903 19.4624 122.089 19.4872 122.275C19.6361 123.541 20.3804 124.657 21.435 125.377C22.3903 126.034 23.6805 126.307 24.7847 126.556C25.8764 126.804 26.9558 127.039 28.0103 127.436C28.0848 127.461 28.1592 127.474 28.2336 127.486C28.5066 127.895 28.8043 128.268 29.1765 128.578C31.3228 130.414 34.139 130.166 36.7444 129.781C39.9948 129.31 43.1088 130.215 46.3593 130.091C47.7984 130.042 49.5849 129.88 50.9372 129.124C50.7139 129.732 50.503 130.352 50.2797 130.96C50.0563 131.568 50.4285 132.287 50.9496 132.61C51.2349 132.784 51.5203 132.982 51.8056 133.168C52.1034 133.367 52.4011 133.578 52.6989 133.788C52.8726 133.912 53.0339 134.037 53.2075 134.161C53.22 134.161 53.3192 134.247 53.3812 134.285C53.4309 134.322 53.5673 134.434 53.5549 134.421C54.2621 134.979 54.9444 135.587 55.5523 136.257C55.6268 136.344 55.7012 136.419 55.7632 136.505C55.7632 136.505 55.8377 136.605 55.8873 136.654C55.9245 136.704 55.9741 136.778 55.9865 136.791C56.0362 136.878 56.0982 136.952 56.1478 137.039C56.1975 137.113 56.2347 137.2 56.2843 137.275C56.3339 137.436 56.3836 137.585 56.4084 137.746C56.458 138.044 56.6193 138.292 56.855 138.466C56.9666 140.81 56.9667 143.23 57.2768 145.55C57.2768 145.599 57.2768 145.624 57.2892 145.661C57.2148 145.86 57.1776 146.095 57.1279 146.282C56.8426 147.349 56.5945 148.415 56.3463 149.495C54.2249 158.8 52.8974 168.414 53.0587 177.967C53.1207 181.788 53.7162 185.535 53.7782 189.344C53.8279 192.904 53.8775 196.478 53.9395 200.038C54.1132 212.134 54.2869 224.218 54.473 236.314C54.6591 249.279 54.8576 262.256 55.0437 275.22C55.1429 282.143 55.0809 289.091 55.3414 296.013C55.3414 296.113 55.3414 296.224 55.3414 296.323C55.3414 296.534 55.3911 296.745 55.4779 296.919C55.4903 298.755 55.4779 300.579 55.4283 302.415C55.4159 302.824 55.391 303.234 55.3662 303.643C55.3662 303.668 55.3662 303.742 55.3538 303.817C55.329 303.941 55.267 304.388 55.2546 304.437C55.205 304.71 55.1553 304.983 55.0933 305.256C54.7335 306.881 54.2125 308.444 53.4929 309.946C52.8602 311.273 52.1158 312.551 51.4334 313.866C50.9124 314.871 50.0191 316.198 49.7834 317.402C49.5105 317.836 49.2747 318.295 49.0638 318.766C48.4435 320.218 47.8356 321.657 47.1533 323.084C46.4957 324.461 45.8382 325.888 45.6025 327.426C45.0566 331.098 47.6867 333.567 50.9992 334.572C54.3117 335.565 58.0336 335.329 61.4081 334.758C62.9465 334.498 64.4725 334.014 65.7255 333.059C67.1522 331.967 67.7353 330.552 68.3805 328.94C70.0305 324.883 71.9783 320.503 71.1471 316.037C71.1471 315.169 71.1595 314.3 71.0602 313.432C70.8617 311.67 70.6632 309.958 70.7625 308.184C70.9237 305.219 71.2463 302.254 71.4696 299.289C71.4944 298.879 71.5317 298.457 71.5565 298.048C72.2388 298.06 72.9336 298.073 73.6159 298.085C74.4471 298.098 75.0178 297.403 75.0799 296.621C75.3652 292.701 75.6506 288.78 75.9359 284.848C76.6182 275.419 77.3006 266.002 77.9829 256.574C78.8142 245.172 79.633 233.758 80.4642 222.357C81.1838 212.494 81.8909 202.619 82.6105 192.756C82.8462 189.48 83.0819 186.205 83.3176 182.93C83.4045 181.689 83.603 180.399 83.6402 179.133C84.2233 178.923 84.794 178.699 85.3771 178.488C85.9478 178.612 86.6053 178.439 86.9527 177.955C87.1264 181.292 87.2877 184.629 87.4614 187.967C87.9452 197.681 88.4415 207.383 88.9253 217.097C89.5208 228.846 90.1039 240.582 90.6994 252.331C91.2081 262.479 91.7167 272.64 92.2378 282.788C92.4859 287.713 92.6224 292.664 92.9822 297.577C92.9822 297.651 92.9822 297.713 92.9822 297.787C93.0194 298.569 93.6025 299.227 94.4089 299.239C94.3469 301.819 94.2104 304.35 93.5653 306.906C93.2675 308.085 93.007 309.238 92.8085 310.392C92.5604 310.578 92.3619 310.839 92.2254 311.161C91.419 313.134 90.6498 315.653 91.0344 317.799C91.0344 317.861 91.0592 317.935 91.0592 317.997C91.0592 318.022 91.0592 318.047 91.0592 318.084C91.0716 318.233 91.0964 318.382 91.1088 318.531C91.1336 318.816 91.1585 319.101 91.1833 319.387C91.2329 320.02 91.2949 320.652 91.4066 321.285C91.6051 322.464 92.1013 323.63 92.9077 324.523C94.4585 326.272 96.915 326.099 98.9868 326.607C99.0613 326.632 99.1481 326.632 99.2225 326.645C99.6444 327.203 100.066 327.761 100.513 328.307C102.212 330.404 104.024 332.587 106.294 334.088C108.304 335.428 110.636 335.999 113.006 336.272C116.058 336.619 119.209 336.694 122.075 335.441C124.321 334.448 126.355 332.339 125.313 329.734C124.358 327.327 122.41 325.391 120.586 323.605C118.179 321.248 116.356 318.233 114.383 315.516C113.887 314.648 113.217 314.102 112.435 313.792C112.038 312.886 111.84 311.745 111.542 310.789C111.195 309.66 110.86 308.531 110.599 307.378C110.066 305.033 109.681 302.527 109.83 300.12C109.842 299.834 109.88 299.549 109.904 299.264H110.363C111.17 299.264 111.79 298.594 111.827 297.8C112.026 292.291 112.237 286.783 112.435 281.262C112.882 269.042 113.341 256.809 113.788 244.589L115.202 206.365C115.462 199.418 115.661 192.47 115.971 185.535C116.033 184.195 116.182 182.855 116.207 181.503C116.294 177.483 116.033 173.451 115.673 169.457C115.003 161.914 114.123 154.259 112.41 146.877C112.212 146.033 112.013 145.19 111.716 144.383C111.666 142.25 111.616 140.103 111.567 137.969C111.567 137.696 111.48 137.448 111.344 137.225C112.559 136.741 113.788 136.245 114.929 135.6C115.698 135.166 116.405 134.669 117.1 134.123C117.447 133.85 117.832 133.565 118.13 133.243C118.676 132.647 118.539 132.002 118.403 131.295C118.341 130.947 118.279 130.6 118.217 130.253C120.016 130.414 121.839 130.476 123.638 130.339C125.4 130.203 127.348 129.918 128.849 128.9C130.474 127.809 131.132 125.91 131.491 124.049C131.926 121.841 132.062 119.546 131.975 117.3L131.95 117.387ZM102.436 41.2498C102.436 41.2498 102.461 41.1629 102.473 41.1257C102.498 41.0885 102.523 41.0512 102.547 41.014C102.572 40.9892 102.585 40.9644 102.609 40.952C102.647 40.9272 102.684 40.9024 102.721 40.8776C102.758 40.8652 102.808 40.8527 102.845 40.8403C102.895 40.8403 102.932 40.8403 102.982 40.8403C103.019 40.8403 103.069 40.8652 103.106 40.8776C103.143 40.9024 103.18 40.9272 103.217 40.952C103.242 40.9768 103.267 41.0016 103.279 41.014C103.304 41.0512 103.329 41.0885 103.354 41.1257C103.379 41.1877 103.391 41.2498 103.403 41.3118C103.391 41.3738 103.366 41.4358 103.354 41.4979C103.329 41.5351 103.304 41.5723 103.279 41.6095C103.255 41.6344 103.23 41.6592 103.217 41.6716C103.18 41.6964 103.143 41.7212 103.106 41.746C103.069 41.7584 103.019 41.7708 102.982 41.7832C102.932 41.7832 102.895 41.7832 102.845 41.7832C102.808 41.7832 102.758 41.7584 102.721 41.746C102.684 41.7212 102.647 41.6964 102.609 41.6716C102.585 41.6468 102.56 41.622 102.547 41.6095C102.523 41.5723 102.498 41.5351 102.473 41.4979C102.461 41.4607 102.448 41.411 102.436 41.3738C102.436 41.3242 102.436 41.287 102.436 41.2374V41.2498ZM100.624 48.5943C101.27 47.2668 101.704 45.9517 102.039 44.5995C102.56 44.7359 103.093 44.7607 103.652 44.6615C104.322 44.5374 105.016 44.128 105.451 43.607C105.934 43.0363 106.22 42.3663 106.294 41.6343C106.319 41.5351 106.331 41.4358 106.331 41.3242C106.331 40.8279 106.22 40.3069 105.996 39.8354C106.22 39.5749 106.431 39.302 106.604 39.0166C107.076 41.3614 107.572 43.7434 107.473 46.1378C107.423 47.3164 107.175 48.5819 106.393 49.5124C105.86 50.1451 105.153 50.5669 104.371 50.8398C104.929 49.4503 105.153 47.9368 105.054 46.4356C105.004 45.6788 104.421 44.9344 103.59 44.9716C102.845 45.0089 102.076 45.6168 102.126 46.4356C102.163 46.9567 102.163 47.4653 102.126 47.9864C102.126 48.036 102.126 48.098 102.113 48.1477C102.101 48.2469 102.076 48.3462 102.064 48.4454C102.014 48.6811 101.964 48.9293 101.89 49.165C101.828 49.4007 101.753 49.624 101.667 49.8473C101.654 49.897 101.629 49.9466 101.605 49.9838C101.567 50.0831 101.58 50.0458 101.654 49.8721C101.654 49.9714 101.53 50.1451 101.48 50.2319C101.381 50.418 101.282 50.6165 101.158 50.7902C101.096 50.8895 101.034 50.9763 100.972 51.0756C100.947 51.1004 100.935 51.1252 100.91 51.15C100.773 51.2989 100.116 52.0929 100.029 52.0308C100.203 51.8944 100.227 51.882 100.103 51.9688C100.054 52.006 100.004 52.0432 99.9545 52.0805C99.8801 52.1301 99.7932 52.1797 99.7188 52.2293C99.6816 52.2542 99.2846 52.4527 99.1729 52.5147C99.1605 52.5147 99.1481 52.5147 99.1357 52.5271C99.0116 52.5643 98.9 52.6139 98.7759 52.6388C98.6891 52.6636 98.5898 52.6884 98.4906 52.7132C98.4285 52.7256 98.3665 52.738 98.3045 52.7504C98.1432 52.7752 98.1804 52.7752 98.4037 52.7504C98.3913 52.8124 98.1184 52.8124 97.8082 52.8C98.9248 51.5346 99.8925 50.1079 100.637 48.5695L100.624 48.5943ZM71.8418 51.6711C70.7501 52.0308 69.6211 52.1177 68.5541 51.9812C69.3357 51.2741 69.9933 50.4304 70.4771 49.4751C70.9486 50.2319 71.4696 50.9515 72.0279 51.6338C71.9659 51.6462 71.9038 51.6587 71.8418 51.6711ZM71.6061 65.0079C73.1569 64.0029 74.1618 62.4149 74.869 60.7401C75.5637 59.09 75.9483 57.3407 76.1592 55.5542C78.1939 57.0058 80.5262 58.0479 82.9951 58.4697C87.2256 59.1893 91.2825 58.0355 94.595 55.7031C94.8555 57.0058 95.1161 58.3208 95.5379 59.5863C96.0341 61.0502 96.642 62.4769 97.1755 63.9285C97.3988 64.524 97.9571 65.0079 98.5898 65.0079C98.5278 65.2932 98.4534 65.5661 98.3665 65.8515C96.9522 66.7323 95.5379 67.6256 94.136 68.5312C91.3942 70.3053 88.5531 72.1043 86.0471 74.2257C81.2334 71.1614 76.4073 68.097 71.5937 65.0451C71.5937 65.0451 71.5937 65.0451 71.5937 65.0326L71.6061 65.0079ZM91.2825 106.073C88.6151 106.135 85.9974 105.366 83.5286 104.423C80.948 103.455 78.107 102.301 75.8739 100.664C75.6257 100.477 75.3776 100.291 75.1419 100.093H96.245V104.249C96.0961 104.224 95.9349 104.212 95.786 104.187C94.6694 104.038 93.5653 103.889 92.4487 103.74C91.6547 103.641 90.9972 104.485 90.9848 105.204C90.9848 105.564 91.0964 105.849 91.2825 106.073ZM85.65 89.2498C81.5187 83.4684 77.6107 77.4638 74.2238 71.2234C73.9385 70.6899 73.6531 70.1689 73.3802 69.6354C77.3874 72.1911 81.4071 74.7344 85.4143 77.2901C85.9726 77.6499 86.717 77.4886 87.1884 77.0668C89.7938 74.6972 92.8953 72.8114 95.848 70.9132C96.1334 70.7272 96.4311 70.5411 96.7289 70.355C95.6495 72.7494 94.3593 75.0569 93.0938 77.2901C90.8731 81.2105 88.4787 85.044 85.985 88.7907C85.8734 88.952 85.7617 89.1133 85.6624 89.2746L85.65 89.2498ZM70.3531 62.3405C70.3531 62.3405 70.3407 62.3405 70.3158 62.3777C70.3407 62.3529 70.3655 62.3405 70.3531 62.3405ZM48.915 77.0668C50.4037 74.7716 51.6692 71.9678 54.0884 70.5287C56.4456 69.1267 59.175 68.3699 61.8051 67.6876C64.0507 67.1045 66.321 66.6331 68.5914 66.1616C70.2414 70.4666 72.6358 74.5111 75.0178 78.4315C77.4495 82.4139 80.0424 86.3095 82.7098 90.143C83.0447 90.6145 83.3797 91.0859 83.7147 91.5574V97.2022H73.4298C72.9212 97.2022 72.4497 97.4876 72.1892 97.9094C71.1471 97.3263 70.0305 97.0161 68.8891 96.5943C67.7477 96.1725 66.6684 95.4902 65.465 95.242C64.8695 95.118 64.2988 95.118 63.7405 95.2048C63.145 92.8352 62.5371 90.4656 61.9292 88.096C61.2592 85.4907 60.7506 82.4015 57.5249 81.9673C57.0163 81.8928 56.5076 81.8556 55.999 81.806C52.9346 81.4958 49.8702 81.1733 46.8059 80.8631C46.7066 80.8631 46.6198 80.8383 46.5205 80.8383C47.3145 79.5977 48.1086 78.3446 48.9026 77.104L48.915 77.0668ZM22.3903 122.139C22.3903 122.139 22.3903 122.164 22.3903 122.176C22.3903 122.176 22.3903 122.164 22.3903 122.151V122.139ZM22.3903 122.201C22.4399 122.399 22.4275 122.288 22.3903 122.201ZM23.4944 123.206C23.3952 123.169 23.2959 123.131 23.1843 123.094C23.1843 123.094 23.1719 123.082 23.1471 123.069C23.1098 123.045 23.0354 123.007 22.9734 122.97C22.9361 122.933 22.8989 122.896 22.8617 122.858C22.7997 122.796 22.7376 122.722 22.6756 122.672C22.626 122.586 22.5143 122.325 22.4151 122.201C22.4399 122.201 22.4523 122.176 22.4771 122.164C22.7004 122.189 22.9361 122.226 23.1595 122.251C23.9535 122.35 24.611 121.506 24.6234 120.787C24.6234 120.749 24.6234 120.712 24.6234 120.675C25.1817 121.779 25.7648 122.883 26.3603 123.975C25.405 123.752 24.4497 123.541 23.5192 123.206H23.4944ZM52.091 125.886C51.4582 125.303 50.3913 125.191 49.9075 126.183C49.3368 127.325 46.992 127.213 45.925 127.225C43.6671 127.275 41.496 126.692 39.2505 126.68C36.9181 126.655 34.3996 127.747 32.1168 126.99C30.7645 126.543 30.3551 125.365 29.7596 124.211C27.9979 120.824 26.199 117.499 24.7227 113.963C24.3505 113.07 23.9287 112.189 23.6805 111.246C23.6557 111.172 23.6185 110.998 23.6185 110.886C23.6557 110.862 23.7053 110.824 23.817 110.775C24.2884 110.539 24.4001 110.527 24.6358 110.675C25.2809 111.072 25.7772 112.003 26.1742 112.623C26.658 113.38 27.1047 114.162 27.5265 114.943C28.7299 117.189 29.9457 119.807 30.9134 122.064C30.9258 122.102 30.9382 122.126 30.9506 122.164C31.0747 122.461 31.1987 122.747 31.3104 123.02C31.36 123.131 31.4097 123.255 31.4593 123.367C32.1168 124.868 34.7594 123.777 34.1266 122.238C34.0646 122.102 34.0026 121.965 33.9529 121.816C33.1962 120.067 32.4518 118.194 31.7942 116.333C31.36 115.117 30.9134 113.851 30.6777 112.574C30.5536 111.866 30.3923 111.507 31.1615 111.494C31.6454 111.494 31.4469 111.432 31.7074 111.78C32.3153 112.586 32.6503 113.752 33.0349 114.67C33.1589 114.98 33.2706 115.291 33.3947 115.601C33.5932 116.283 33.8537 116.941 34.0894 117.561C34.3003 118.107 34.536 118.653 34.7842 119.199C35.2804 120.514 35.7767 121.816 36.2605 123.131C36.9057 124.881 39.511 124.211 39.0768 122.35C38.8038 121.159 38.2827 119.98 37.7617 118.826C37.2282 117.412 36.6823 115.998 36.1117 114.596C35.9752 113.926 36.0372 112.189 37.0669 113.033C37.7245 113.566 38.1215 115.055 38.4688 115.812C38.7542 116.444 39.0395 117.077 39.3249 117.71C39.4614 118.281 39.6599 118.864 39.9204 119.472C40.5035 120.873 41.161 122.238 41.893 123.578C42.8235 125.265 45.131 123.777 44.4115 122.102C43.6175 120.228 42.8235 118.343 41.9922 116.482C42.0543 116.196 42.4885 115.502 42.9103 115.626C43.9028 115.923 44.3246 117.325 44.61 118.144C45.2799 119.993 46.2352 121.717 46.9299 123.541C46.9672 123.665 47.0044 123.789 47.0664 123.901C47.1533 124.136 47.2525 124.36 47.327 124.595C47.7488 125.972 49.5105 125.836 50.0563 124.881C50.8255 124.955 51.5947 125.03 52.3515 125.104C52.2523 125.365 52.1654 125.625 52.0662 125.886H52.091ZM50.9248 122.04C50.4409 121.99 49.9447 121.94 49.4608 121.903C49.1135 121.06 48.7289 120.228 48.3319 119.397C47.6743 117.995 47.3394 116.32 46.4585 115.055C45.069 113.07 42.5629 111.78 40.6276 113.492C40.4291 113.082 40.2429 112.673 40.032 112.263C39.4365 111.097 38.5061 110.142 37.1538 109.968C36.2233 109.844 35.2184 110.142 34.4492 110.725C34.015 109.881 33.4443 109.087 32.5138 108.74C31.298 108.293 29.5363 108.641 28.5686 109.522C28.3701 109.695 28.2336 109.894 28.0972 110.105C27.4272 109.162 26.6456 108.318 25.7028 107.872C23.6681 106.929 20.7774 108.566 20.7278 110.824C20.703 111.991 21.2365 113.095 21.6707 114.137C22.2166 115.452 22.7749 116.767 23.358 118.07C23.6061 118.628 23.8666 119.174 24.1272 119.707C23.8666 119.496 23.5192 119.36 23.1595 119.31C19.177 118.777 15.1946 118.243 11.1998 117.71C8.6937 105.874 5.70378 94.1255 3.37139 82.2526C3.27214 81.7564 3.1853 81.2725 3.09845 80.7763C3.04883 80.4785 2.7883 79.7838 2.88755 79.4984C3.01161 79.151 3.1853 79.2503 3.47065 79.2503C4.19021 79.2503 4.93459 79.3992 5.64175 79.4736C8.92942 79.8086 12.2171 80.156 15.5048 80.4909C24.8839 81.4586 34.2755 82.4263 43.6547 83.394C47.1657 83.7538 50.6767 84.1136 54.1752 84.4858C55.0685 84.5726 55.9617 84.6719 56.855 84.7587C58.046 84.8828 58.3313 85.7512 58.6415 86.9174C59.4851 90.081 60.2915 93.257 61.0855 96.4454C60.8622 96.9665 61.0483 97.5992 61.4701 98.021C62.4626 102.028 63.4179 106.036 64.3608 110.055C64.2616 110.403 64.3112 110.874 64.5097 111.184C64.5593 111.259 64.6214 111.333 64.6834 111.407C65.3285 114.186 65.9612 116.965 66.5816 119.744C66.7801 120.663 66.991 121.581 67.177 122.499C67.5616 124.335 70.3779 123.553 69.9933 121.717C69.894 121.258 69.7948 120.811 69.6955 120.352C70.7252 120.216 71.5193 119.558 72.3753 118.938C72.9832 118.491 73.5911 118.057 74.199 117.611C74.2362 117.623 74.2859 117.648 74.3231 117.66C75.1295 117.921 75.9359 118.219 76.7423 118.504C74.6953 120.005 72.6606 121.519 70.6136 123.02C70.2414 123.293 69.8816 123.566 69.5094 123.826C69.4102 123.789 69.2985 123.777 69.1745 123.764C63.0954 123.181 57.0039 122.586 50.9248 122.002V122.04ZM69.1621 117.487H69.1869C69.1869 117.487 69.1869 117.487 69.1621 117.487ZM66.4575 326.024C66.1225 326.818 65.7627 327.612 65.4526 328.419C65.2044 329.039 65.0059 329.672 64.5717 330.205C63.8646 331.074 62.8224 331.508 61.7679 331.781C59.2618 332.438 56.3091 332.6 53.7534 332.265C51.5079 331.979 48.0837 330.987 48.3939 328.133C48.5304 326.868 49.1383 325.652 49.6841 324.511C50.3541 323.121 50.9372 321.732 51.5327 320.317C52.1654 318.891 52.9222 317.799 54.3365 317.079C56.2471 316.112 58.4306 316.025 60.4652 316.595C62.2269 317.079 63.4924 317.886 64.6958 319.226C65.3657 319.958 65.9861 320.739 66.5443 321.57C66.8669 322.042 67.3383 322.253 67.8098 322.253C67.4376 323.58 66.9413 324.858 66.4575 326.037V326.024ZM68.0951 304.933C67.9587 306.484 67.7601 308.035 67.7601 309.586C67.7601 311.434 68.1695 313.246 68.182 315.094C68.182 315.305 68.1944 315.528 68.2192 315.777C67.8842 316.434 67.5864 317.129 67.3259 317.824C67.053 317.501 66.78 317.166 66.4947 316.868C64.8819 315.156 62.8597 314.102 60.5521 313.618C58.5919 313.196 56.6441 313.27 54.7707 313.816C54.808 313.754 54.8328 313.68 54.87 313.605C56.5076 310.566 57.8971 307.34 58.2321 303.867C58.4182 301.894 58.4678 299.897 58.4554 297.899C61.8175 297.961 65.1796 298.023 68.5293 298.085C68.3805 300.38 68.2936 302.688 68.0827 304.946L68.0951 304.933ZM96.8157 323.382C96.6048 323.344 96.4063 323.295 96.1954 323.245C96.0837 323.208 95.9597 323.183 95.848 323.146C95.7984 323.134 95.7488 323.109 95.6992 323.096C95.5503 323.034 95.5751 323.047 95.7736 323.134C95.6123 323.134 95.389 322.923 95.2525 322.848C95.2277 322.823 95.2277 322.836 95.2153 322.823C95.1905 322.811 95.1781 322.786 95.1533 322.774C95.0788 322.699 95.0044 322.625 94.9424 322.55C94.9424 322.55 94.9424 322.55 94.93 322.538C94.93 322.538 94.93 322.538 94.9176 322.513C94.8431 322.389 94.7687 322.277 94.6942 322.153C94.6322 322.042 94.5702 321.918 94.5081 321.794C94.5081 321.794 94.5081 321.794 94.5081 321.781C94.5081 321.769 94.5081 321.756 94.5081 321.744C94.4833 321.657 94.4585 321.57 94.4337 321.483C94.8555 321.719 95.2773 321.943 95.6743 322.191C96.183 322.513 96.5552 322.935 96.9026 323.406C96.8778 323.406 96.8529 323.406 96.8405 323.406L96.8157 323.382ZM120.413 327.711C120.946 328.332 121.442 328.989 121.889 329.684C122.534 330.714 123.067 331.384 121.963 332.24C119.929 333.828 117.063 333.704 114.644 333.567C112.522 333.443 110.351 333.145 108.478 332.103C106.455 330.974 104.954 329.126 103.453 327.389C101.828 325.516 100.488 323.469 99.0737 321.434C98.4161 320.491 97.5353 319.858 96.5428 319.312C95.7984 318.903 94.4337 318.469 93.9871 317.7C93.9126 317.563 93.863 317.414 93.8258 317.241C93.8258 317.191 93.8258 317.141 93.8134 317.104C93.8134 317.092 93.8134 317.079 93.8134 317.067C93.7265 316.236 94.0491 315.156 94.2104 314.486C94.26 314.275 94.3344 314.064 94.3841 313.866C95.5875 314.722 96.6917 315.739 97.7462 316.757C99.4459 318.394 101.108 320.156 102.312 322.203C102.448 322.426 102.622 322.575 102.82 322.687C105.153 325.243 107.448 328.592 110.922 329.424C112.249 329.746 113.539 329.647 114.842 329.275C116.505 328.803 118.117 328.307 119.829 328.034C120.065 327.997 120.264 327.873 120.425 327.711H120.413ZM109.309 313.605C107.721 313.816 106.096 314.399 104.843 314.883C103.813 315.28 102.969 315.826 102.523 316.868C102.461 317.03 102.399 317.191 102.349 317.352C101.543 316.422 100.674 315.528 99.7932 314.685C98.4782 313.419 97.0638 312.142 95.5131 311.112C95.5131 311.062 95.5255 311.013 95.5379 310.963C95.8728 309.412 96.3195 307.899 96.6668 306.36C97.1755 304.077 97.2127 301.819 97.2623 299.499C97.2623 299.45 97.2623 299.388 97.2623 299.338H106.952C106.952 299.462 106.927 299.574 106.914 299.698C106.53 304.474 107.944 309.102 109.296 313.618L109.309 313.605ZM115.723 322.426C115.847 322.588 115.959 322.761 116.083 322.923C116.74 323.816 117.46 324.61 118.204 325.379C116.902 325.64 115.636 325.999 114.346 326.372C114.085 326.446 113.825 326.52 113.564 326.595C113.477 326.62 113.031 326.682 113.018 326.694C112.783 326.719 112.547 326.719 112.311 326.707C112.262 326.707 112.162 326.694 112.125 326.694C111.976 326.669 111.827 326.644 111.691 326.607C110.252 326.26 109.21 325.267 108.18 324.213C108.13 324.151 108.081 324.101 108.019 324.039C108.205 323.927 108.391 323.816 108.589 323.717C108.689 323.667 108.775 323.63 108.875 323.58C108.899 323.58 108.912 323.568 108.924 323.555C109.073 323.493 109.222 323.431 109.371 323.382C110.128 323.109 110.897 322.885 111.678 322.724C112.063 322.637 112.448 322.575 112.845 322.513C112.857 322.513 112.869 322.513 112.882 322.513C112.969 322.513 113.056 322.488 113.142 322.488C113.341 322.464 113.552 322.451 113.75 322.439C114.408 322.389 115.065 322.389 115.711 322.439L115.723 322.426ZM112.894 322.526H112.969C112.969 322.526 112.944 322.526 112.894 322.526ZM111.84 317.067C111.902 317.178 111.976 317.265 112.051 317.352C112.572 318.072 113.105 318.804 113.626 319.523C112.721 319.598 111.803 319.734 110.922 319.92C109.296 320.268 107.646 320.814 106.232 321.694C106.158 321.744 106.083 321.794 106.021 321.856C105.686 321.483 105.351 321.124 105.016 320.764C104.991 319.933 104.967 319.064 105.14 318.27C105.19 318.022 105.326 317.848 105.264 317.923C105.264 317.923 105.55 317.749 105.637 317.7C106.964 317.116 110.897 315.355 111.852 317.067H111.84ZM112.162 163.899C112.981 170.983 113.502 178.067 113.043 185.188C112.659 191.031 112.609 196.912 112.398 202.767C111.939 215.112 111.48 227.468 111.033 239.813C110.562 252.455 110.103 265.097 109.631 277.739C109.47 282.18 109.309 286.634 109.135 291.076C109.073 292.825 108.887 294.636 108.875 296.41H95.7736C95.5999 292.85 95.4138 289.301 95.2401 285.741C94.7563 276.027 94.26 266.325 93.7762 256.611C93.1807 244.862 92.5976 233.126 92.0021 221.377C91.4934 211.229 90.9848 201.068 90.4637 190.919C90.2156 186.031 90.0915 181.118 89.7193 176.23C90.8359 175.722 91.94 175.225 93.0566 174.717C93.6645 174.444 94.2724 174.159 94.8803 173.886C95.5999 173.563 95.7736 172.521 95.4014 171.888C94.9672 171.144 94.1235 171.032 93.404 171.367C91.3197 172.31 89.2231 173.265 87.1388 174.208C87.1388 167.434 87.1388 160.661 87.1264 153.887C87.1264 152.795 87.1264 151.703 87.1264 150.611C87.1264 150.475 87.114 150.363 87.0768 150.252C89.6076 150.239 92.1385 150.227 94.6818 150.214C96.1582 150.214 97.6345 150.202 99.1233 150.19C100.997 150.19 101.009 147.262 99.1233 147.274C88.5407 147.324 77.9581 147.386 67.3755 147.435C65.8992 147.435 64.4228 147.448 62.9341 147.46C61.0607 147.46 61.0483 150.388 62.9341 150.376L84.2357 150.264C84.2109 150.376 84.1985 150.487 84.1985 150.611C84.1985 158.378 84.2109 166.144 84.2233 173.923C84.2233 174.456 84.2233 175.002 84.2233 175.536C83.0199 176.082 81.8289 176.627 80.6255 177.161C80.0176 177.434 79.4097 177.719 78.8018 177.992C78.0822 178.315 77.9085 179.357 78.2807 179.99C78.7149 180.734 79.5585 180.846 80.2781 180.511L80.5387 180.399C80.3029 183.587 80.0796 186.776 79.8439 189.977C79.1615 199.405 78.4792 208.822 77.7968 218.251C76.9656 229.652 76.1468 241.066 75.3156 252.467C74.596 262.33 73.8889 272.206 73.1693 282.069C72.9336 285.344 72.6978 288.619 72.4621 291.894C72.3877 292.974 72.214 294.115 72.152 295.232C67.4996 295.145 62.8597 295.058 58.2073 294.984C58.1329 289.699 58.0584 284.401 57.9716 279.116C57.7855 266.536 57.5994 253.968 57.4257 241.388C57.2396 228.821 57.0535 216.253 56.8798 203.686C56.8178 199.591 56.7557 195.485 56.7061 191.391C56.6813 189.617 56.7681 187.818 56.5324 186.056C55.1553 175.722 56.2347 165.065 58.2073 154.879C58.7284 152.199 59.3114 149.52 60.0062 146.877C60.49 145.078 60.031 142.994 59.9318 141.17C59.8945 140.624 59.8697 140.066 59.8325 139.52H108.689C108.726 141.108 108.763 142.684 108.8 144.272C108.726 144.507 108.738 144.793 108.862 145.103C109.731 147.299 110.066 149.78 110.475 152.088C111.17 156.008 111.728 159.953 112.187 163.911L112.162 163.899ZM113.378 133.193C112.944 133.441 112.497 133.652 112.051 133.863C111.939 133.912 111.827 133.962 111.703 134.012C111.666 134.024 111.567 134.074 111.53 134.086C111.319 134.173 111.12 134.26 110.909 134.334C109.334 134.967 107.795 135.575 106.443 136.58H89.0618C90.0171 136.009 90.9599 135.414 91.878 134.756C94.3221 132.994 96.7785 131.282 99.3838 129.769C101.009 128.826 99.5327 126.295 97.9075 127.25C95.3022 128.776 92.8457 130.476 90.4017 132.238C88.0072 133.962 85.4515 135.339 82.7842 136.58H59.0881C58.6167 134.917 56.9791 133.516 55.7012 132.486C54.9692 131.89 54.2001 131.332 53.4185 130.799C54.0636 129 54.7087 127.188 55.3538 125.389C59.0881 125.749 62.81 126.109 66.5443 126.469C67.4252 126.556 68.2936 126.642 69.1745 126.717C69.4722 126.742 69.7203 126.692 69.9313 126.58C70.2786 126.667 70.6384 126.642 70.9362 126.419C73.6531 124.422 76.3701 122.412 79.0747 120.414C79.4345 120.154 79.7819 119.893 80.1416 119.62C80.4022 119.682 80.6627 119.769 80.9232 119.819C83.2556 120.29 85.5508 120.079 87.7715 119.223C88.3298 119.013 88.7516 118.553 88.826 117.995C88.429 117.859 88.0569 117.759 87.7715 117.759C88.0569 117.759 88.429 117.846 88.826 117.995C88.8509 117.822 88.8385 117.623 88.7888 117.437C88.5903 116.73 87.7343 116.134 86.9899 116.42C85.1042 117.152 83.2308 117.387 81.3326 116.941C79.8315 116.593 78.3923 116.047 76.9408 115.526C77.313 115.229 77.6976 114.918 78.0574 114.596C78.6281 114.087 78.6157 113.045 78.0574 112.536C77.4371 111.978 76.6058 112.003 75.9979 112.536C74.4844 113.864 72.946 114.943 71.2835 116.147C70.8865 116.432 70.4895 116.73 70.0925 117.015C69.9064 117.152 69.7327 117.288 69.5342 117.412C69.5342 117.412 69.3854 117.474 69.3605 117.487C69.2861 117.487 69.1993 117.487 69.1124 117.487C69.1124 117.487 69.1124 117.487 69.0876 117.487C69.0628 117.487 69.038 117.474 69.0132 117.462C68.8891 116.903 68.7775 116.358 68.6534 115.799C68.6658 115.799 68.6782 115.799 68.6906 115.774C70.8617 114.236 73.0328 112.698 75.2039 111.147C75.5141 110.924 75.8243 110.713 76.122 110.489C76.7423 110.043 77.1021 109.199 76.6431 108.492C76.2461 107.872 75.3156 107.499 74.6457 107.971C72.4745 109.509 70.3034 111.048 68.1323 112.598C68.0703 112.636 68.0207 112.685 67.9586 112.723C67.8222 112.127 67.6733 111.531 67.5368 110.936C69.038 109.832 70.5392 108.728 72.0403 107.636C72.3008 107.45 72.5614 107.251 72.8219 107.065C73.1321 106.83 73.3802 106.581 73.4919 106.197C73.5911 105.849 73.5415 105.378 73.343 105.068C72.946 104.46 72.0031 104.063 71.3456 104.547C69.832 105.651 68.3308 106.767 66.8173 107.872C66.6188 107.053 66.4327 106.222 66.2342 105.403C66.5443 105.229 66.8545 105.08 67.177 104.944C67.9214 104.646 68.6906 104.361 69.4846 104.224C69.8196 104.162 70.1918 103.84 70.3531 103.554C70.5392 103.244 70.6136 102.785 70.5019 102.425C70.3903 102.078 70.167 101.731 69.832 101.557C69.4598 101.358 69.1124 101.334 68.703 101.408C67.9214 101.544 67.1398 101.83 66.4079 102.128C66.1101 102.239 65.8248 102.363 65.527 102.5C65.1672 101.023 64.8074 99.547 64.4352 98.0707C64.9563 98.0955 65.465 98.2692 66.0481 98.5173C67.2639 99.0508 68.5045 99.4478 69.7452 99.9068C70.6508 100.242 71.4448 100.763 72.2264 101.358C72.3629 101.532 72.5366 101.668 72.7227 101.755C73.8268 102.649 74.8938 103.604 76.1096 104.249C80.6503 106.643 85.9974 109.187 91.2825 109.013C91.5182 109.683 91.6423 110.452 91.6795 111.172C91.7291 112.35 91.6299 113.529 91.3942 114.683C91.1212 116.035 90.7118 117.375 90.1659 118.653C89.8062 119.484 89.4092 120.29 88.9129 121.047C88.5159 121.643 88.64 122.226 88.9997 122.635C89.037 123.169 89.3595 123.665 90.0295 123.863C95.9225 125.501 101.815 127.139 107.746 128.615C110.19 129.223 112.659 129.682 115.165 130.017C115.264 130.588 115.376 131.158 115.475 131.729C114.817 132.287 114.123 132.796 113.353 133.218L113.378 133.193ZM129.023 119.955C128.936 121.816 128.874 124.198 127.881 125.836C127.199 126.953 125.698 127.225 124.494 127.399C122.584 127.672 120.599 127.585 118.676 127.449C118.167 127.412 117.658 127.362 117.15 127.3C116.802 127.101 116.368 127.027 115.996 127.126C115.971 127.126 115.946 127.151 115.921 127.163C113.8 126.903 111.678 126.531 109.607 126.034C103.738 124.633 97.9075 123.007 92.1013 121.382C93.1807 119.422 93.925 117.226 94.3096 115.042C94.7935 112.338 94.8679 109.41 93.5529 106.904C93.5405 106.867 93.5156 106.842 93.4908 106.817C101.071 107.834 108.664 108.839 116.244 109.857C117.361 110.006 118.465 110.154 119.581 110.303C120.375 110.403 121.033 109.559 121.045 108.839C121.045 107.971 120.363 107.487 119.581 107.375C117.919 107.152 116.244 106.929 114.582 106.705C115.14 102.673 115.314 98.629 115.351 94.5845C115.599 94.4604 115.81 94.2743 115.971 94.0262C117.919 91.0239 119.879 88.0091 121.827 85.0068C122.1 84.585 122.385 84.1508 122.658 83.7166C123.092 83.059 122.795 82.1037 122.137 81.7191C121.43 81.3097 120.574 81.5827 120.14 82.2402C118.552 84.6967 116.951 87.1531 115.363 89.6096C115.363 86.967 115.338 84.3121 115.4 81.6695C115.45 79.7962 112.522 79.7962 112.485 81.6695C112.286 89.8949 112.894 98.1451 111.728 106.321C107.535 105.763 103.354 105.204 99.1605 104.646V98.6413C99.1605 97.8473 98.4906 97.1774 97.6966 97.1774H86.6425V92.86C86.7542 92.7608 86.8534 92.6615 86.9403 92.525C91.3693 86.1606 95.5875 79.4736 98.8876 72.4516C99.6071 70.9257 100.277 69.3624 100.823 67.762C101.195 67.5387 101.567 67.303 101.94 67.0797C102.411 66.7944 102.609 66.3725 102.634 65.9383C103.863 66.2485 105.091 66.571 106.307 66.906C109.644 67.8365 113.093 68.8042 116.182 70.3922C117.671 71.1614 118.266 71.7817 119.209 73.2704C120.586 75.4291 121.566 77.7491 122.261 80.2056C122.943 82.6124 123.365 85.0937 123.799 87.5501C124.308 90.4532 124.928 93.3191 125.561 96.1973C126.789 101.793 127.931 107.388 128.613 113.07C128.886 115.365 129.122 117.623 129.023 119.931V119.955Z" fill="var(--fill-0, #323232)"/>
<path id="Vector_42" d="M34.5698 105.254C36.2075 104.919 37.324 103.393 37.4729 101.793C37.4977 101.693 37.4977 101.594 37.4977 101.495C37.4729 99.8449 36.4804 98.4182 34.9296 97.8351C33.5401 97.314 31.828 97.8103 30.91 98.9516C30.3517 99.6464 30.0539 100.403 29.9795 101.284C29.9175 102.028 30.1284 102.835 30.5006 103.468C31.3318 104.894 32.9694 105.577 34.5698 105.242V105.254ZM33.0935 102.115C33.0935 102.115 33.0314 101.991 32.9942 101.929C32.957 101.83 32.9322 101.743 32.9198 101.644C32.9198 101.545 32.9198 101.458 32.9198 101.358C32.9446 101.259 32.9694 101.16 32.9942 101.073C33.019 101.011 33.0563 100.961 33.0811 100.899C33.0563 100.924 33.0438 100.937 33.019 100.961C33.0438 100.937 33.0687 100.912 33.0811 100.887C33.1307 100.813 33.1803 100.763 33.1555 100.813C33.1803 100.788 33.2051 100.763 33.2423 100.738C33.292 100.701 33.354 100.676 33.4036 100.651C33.4657 100.627 33.5401 100.614 33.6021 100.602C33.6766 100.602 33.7634 100.602 33.8503 100.602C33.9123 100.614 33.9867 100.639 34.0488 100.651C34.0984 100.676 34.1604 100.713 34.21 100.738C34.2472 100.763 34.2721 100.8 34.2969 100.825C34.2969 100.825 34.3341 100.862 34.3589 100.899C34.3961 100.961 34.421 101.023 34.4582 101.086C34.4954 101.197 34.5326 101.321 34.5574 101.433C34.5574 101.458 34.5574 101.483 34.5574 101.507C34.5574 101.532 34.5574 101.557 34.5574 101.582C34.5326 101.706 34.4954 101.818 34.4582 101.929C34.4334 101.991 34.3961 102.041 34.3713 102.103C34.3961 102.078 34.4085 102.066 34.4334 102.041C34.4085 102.066 34.3837 102.09 34.3713 102.115C34.3217 102.19 34.2721 102.239 34.2969 102.19C34.2721 102.214 34.2472 102.239 34.21 102.264C34.1604 102.301 34.0984 102.326 34.0488 102.351C33.9867 102.376 33.9123 102.388 33.8503 102.401C33.7758 102.401 33.689 102.401 33.6021 102.401C33.5401 102.388 33.4657 102.363 33.4036 102.351C33.354 102.326 33.292 102.289 33.2423 102.264C33.2051 102.239 33.1803 102.202 33.1555 102.177C33.1555 102.177 33.1183 102.14 33.0935 102.103V102.115Z" fill="var(--fill-0, #323232)"/>
<path id="Vector_43" d="M34.3092 102.177C34.3092 102.177 34.3584 102.127 34.3831 102.103C34.3338 102.152 34.3092 102.189 34.2969 102.201L34.3092 102.177Z" fill="var(--fill-0, #323232)"/>
<path id="Vector_44" d="M33.1754 100.8C33.1754 100.8 33.1262 100.849 33.1016 100.874C33.1508 100.824 33.1754 100.787 33.1878 100.775L33.1754 100.8Z" fill="var(--fill-0, #323232)"/>
<path id="Vector_45" d="M66.6591 281.932C67.2298 266.449 67.5648 250.966 67.7881 235.471C67.999 220.682 68.1479 205.882 68.4705 191.093C68.669 182.086 68.9171 173.079 69.2521 164.072C69.3265 162.199 66.3986 162.199 66.3366 164.072C65.7659 179.556 65.4309 195.039 65.2076 210.534C64.9967 225.322 64.8478 240.123 64.5253 254.911C64.3268 263.918 64.0786 272.925 63.7437 281.932C63.6692 283.806 66.5971 283.806 66.6591 281.932Z" fill="var(--fill-0, #323232)"/>
<path id="Vector_46" d="M102.388 254.279C102.239 263.087 102.115 271.883 102.078 280.692C102.078 282.565 104.994 282.578 104.994 280.692C105.105 249.912 106.408 219.119 105.614 188.339C105.391 179.543 104.994 170.759 104.373 161.976C104.237 160.115 101.321 160.102 101.458 161.976C103.641 192.706 102.909 223.511 102.388 254.279Z" fill="var(--fill-0, #323232)"/>
<path id="Vector_47" d="M120.411 327.712C120.25 327.873 120.051 327.997 119.815 328.034C118.103 328.307 116.49 328.803 114.828 329.275C113.525 329.647 112.235 329.734 110.908 329.424C107.434 328.593 105.139 325.23 102.806 322.687C102.608 322.575 102.434 322.427 102.298 322.203C101.094 320.156 99.4318 318.394 97.7321 316.757C96.6776 315.752 95.5734 314.735 94.37 313.866C94.308 314.077 94.2459 314.288 94.1963 314.487C94.035 315.144 93.7001 316.223 93.7993 317.067C93.7993 317.079 93.7993 317.092 93.7993 317.104C93.7993 317.154 93.7993 317.204 93.8117 317.241C93.8489 317.402 93.8861 317.563 93.973 317.7C94.4196 318.469 95.7843 318.903 96.5287 319.313C97.5212 319.858 98.402 320.491 99.0596 321.434C100.474 323.469 101.814 325.503 103.439 327.389C104.928 329.114 106.441 330.962 108.464 332.103C110.349 333.158 112.52 333.456 114.629 333.567C117.049 333.704 119.915 333.828 121.949 332.24C123.053 331.384 122.52 330.714 121.875 329.684C121.428 328.99 120.932 328.332 120.398 327.712H120.411Z" fill="var(--fill-0, #898989)"/>
<path id="Vector_48" d="M104.999 320.764C105.334 321.123 105.669 321.483 106.004 321.855C106.066 321.793 106.14 321.744 106.215 321.694C107.629 320.813 109.279 320.255 110.904 319.92C111.785 319.734 112.703 319.597 113.609 319.523C113.088 318.791 112.554 318.072 112.033 317.352C111.959 317.265 111.884 317.178 111.822 317.067C110.867 315.367 106.934 317.129 105.607 317.699C105.52 317.737 105.222 317.923 105.234 317.923C105.309 317.848 105.172 318.034 105.11 318.27C104.937 319.064 104.961 319.932 104.986 320.764H104.999Z" fill="var(--fill-0, #898989)"/>
<path id="Vector_49" d="M113.763 322.439C113.564 322.451 113.354 322.476 113.155 322.488C113.068 322.488 112.981 322.513 112.895 322.513C112.895 322.513 112.87 322.513 112.857 322.513C112.473 322.575 112.076 322.637 111.691 322.724C110.91 322.885 110.128 323.109 109.384 323.382C109.235 323.431 109.086 323.493 108.937 323.555C108.925 323.555 108.912 323.568 108.887 323.58C108.788 323.63 108.701 323.667 108.602 323.717C108.403 323.816 108.217 323.927 108.031 324.039C108.081 324.101 108.131 324.151 108.193 324.213C109.222 325.267 110.264 326.26 111.704 326.607C111.852 326.644 111.989 326.669 112.138 326.694C112.175 326.694 112.274 326.707 112.324 326.707C112.56 326.719 112.795 326.707 113.031 326.694C113.043 326.694 113.49 326.607 113.577 326.595C113.837 326.533 114.098 326.458 114.358 326.372C115.636 325.987 116.902 325.627 118.217 325.379C117.472 324.61 116.753 323.816 116.095 322.923C115.971 322.761 115.86 322.588 115.736 322.426C115.078 322.389 114.421 322.389 113.775 322.426L113.763 322.439Z" fill="var(--fill-0, #898989)"/>
<path id="Vector_50" d="M67.809 322.253C67.3375 322.253 66.8661 322.042 66.5435 321.57C65.9853 320.751 65.3649 319.97 64.695 319.225C63.4792 317.886 62.2137 317.079 60.4644 316.595C58.4174 316.025 56.2463 316.124 54.3357 317.079C52.909 317.799 52.1646 318.89 51.5319 320.317C50.9364 321.732 50.3533 323.121 49.6834 324.511C49.1375 325.64 48.5296 326.868 48.3931 328.133C48.0954 330.987 51.5195 331.979 53.7526 332.264C56.3207 332.587 59.261 332.426 61.7671 331.781C62.8216 331.508 63.8638 331.073 64.5709 330.205C65.0051 329.672 65.2037 329.051 65.4518 328.419C65.7743 327.612 66.1341 326.831 66.4567 326.024C66.9405 324.858 67.4368 323.568 67.809 322.24V322.253ZM63.3303 328.059C61.3453 329.486 58.4918 329.349 56.1719 329.076C53.9884 328.816 49.7826 328.096 50.0928 325.032C50.1672 324.238 50.7007 323.568 51.5567 323.568C52.2887 323.568 53.0951 324.238 53.0207 325.032C53.0207 325.081 53.0207 325.131 53.0207 325.156C53.0579 325.193 53.0951 325.23 53.1323 325.267C53.1695 325.292 53.1943 325.317 53.2316 325.329C53.3432 325.391 53.4425 325.441 53.5541 325.503C53.5914 325.515 53.6162 325.54 53.6286 325.54C53.6286 325.54 53.6534 325.54 53.6782 325.553C53.8147 325.602 53.9387 325.652 54.0752 325.689C54.5839 325.85 55.1173 325.974 55.6508 326.061C55.7997 326.086 55.9485 326.111 56.085 326.136C56.1346 326.136 56.1967 326.148 56.2463 326.161C56.5068 326.185 56.7674 326.21 57.0279 326.235C57.8839 326.297 58.7648 326.347 59.6208 326.285C60.0054 326.26 60.4272 326.185 60.9483 326.012C61.0103 325.987 61.2088 325.912 61.2336 325.9C61.3205 325.863 61.4073 325.813 61.4942 325.764C61.581 325.714 61.6554 325.664 61.7423 325.602C61.7795 325.578 61.854 325.515 61.8912 325.478C61.9904 325.379 62.0897 325.28 62.1765 325.181C62.2137 325.131 62.2385 325.094 62.2758 325.044C62.3874 324.858 62.5859 324.486 62.6231 324.411C62.71 324.225 62.7844 323.965 62.8589 323.692C62.7472 323.655 62.6355 323.605 62.5239 323.568C62.1517 323.431 61.7795 323.32 61.4073 323.208C60.5885 322.972 59.7573 322.786 58.9136 322.65C58.802 322.637 58.6779 322.612 58.5663 322.6C58.5291 322.6 58.4794 322.6 58.4546 322.588C58.2437 322.563 58.0452 322.538 57.8343 322.526C57.4125 322.488 56.9783 322.476 56.5565 322.476C56.1719 322.476 55.7873 322.501 55.4151 322.538C55.3779 322.538 55.2166 322.563 55.2166 322.563C55.167 322.563 55.1173 322.575 55.0677 322.588C54.894 322.625 54.7327 322.662 54.5714 322.699C53.8023 322.898 52.9834 322.451 52.7725 321.682C52.5616 320.925 53.0331 320.082 53.7899 319.883C55.6756 319.399 57.6358 319.523 59.5464 319.809C61.3701 320.094 63.1442 320.615 64.8315 321.359C64.8811 321.359 64.9307 321.359 64.9803 321.384C65.7743 321.607 66.1589 322.402 65.9977 323.183C65.6255 325.044 64.9431 326.905 63.3427 328.046L63.3303 328.059Z" fill="var(--fill-0, #898989)"/>
<path id="Vector_51" d="M65.9746 323.196C66.1235 322.427 65.7513 321.62 64.9573 321.397C64.9077 321.385 64.858 321.385 64.8084 321.372C63.1212 320.615 61.3471 320.094 59.5233 319.821C57.6252 319.536 55.6526 319.412 53.7668 319.896C52.9976 320.094 52.5386 320.938 52.7495 321.695C52.9604 322.464 53.7792 322.911 54.5484 322.712C54.7097 322.675 54.8834 322.625 55.0447 322.6C55.0943 322.6 55.1439 322.588 55.1935 322.576C55.1935 322.576 55.3548 322.551 55.392 322.551C55.7766 322.514 56.1488 322.489 56.5334 322.489C56.9552 322.489 57.3894 322.501 57.8113 322.538C58.0222 322.551 58.2207 322.576 58.4316 322.6C58.4564 322.6 58.5184 322.6 58.5432 322.613C58.6549 322.625 58.779 322.65 58.8906 322.662C59.7343 322.799 60.5655 322.985 61.3843 323.221C61.7565 323.332 62.1287 323.444 62.5008 323.58C62.6125 323.618 62.7242 323.667 62.8358 323.705C62.7614 323.977 62.6745 324.226 62.6001 324.424C62.5629 324.511 62.3644 324.871 62.2527 325.057C62.2279 325.106 62.1907 325.156 62.1535 325.193C62.0666 325.293 61.9674 325.392 61.8681 325.491C61.8309 325.528 61.7565 325.59 61.7193 325.615C61.6324 325.665 61.558 325.727 61.4711 325.776C61.3843 325.826 61.2974 325.863 61.2106 325.913C61.1858 325.913 60.9873 326 60.9253 326.025C60.4042 326.198 59.9824 326.26 59.5978 326.297C58.7417 326.359 57.8609 326.322 57.0049 326.248C56.7443 326.223 56.4838 326.198 56.2233 326.173C56.1736 326.173 56.1116 326.161 56.062 326.149C55.9131 326.124 55.7642 326.099 55.6278 326.074C55.0943 325.987 54.5732 325.863 54.0522 325.702C53.9157 325.665 53.7916 325.603 53.6552 325.565C53.6303 325.565 53.6179 325.565 53.6055 325.553C53.5931 325.553 53.5683 325.528 53.5311 325.516C53.4194 325.454 53.3202 325.404 53.2085 325.342C53.1713 325.317 53.1341 325.293 53.1093 325.28C53.0721 325.243 53.0348 325.206 52.9976 325.168C52.9976 325.131 52.9976 325.094 52.9976 325.044C53.0721 324.263 52.2656 323.58 51.5337 323.58C50.6776 323.58 50.1566 324.25 50.0697 325.044C49.772 328.109 53.9653 328.828 56.1488 329.089C58.4688 329.362 61.3099 329.498 63.3073 328.072C64.9077 326.93 65.59 325.069 65.9622 323.208L65.9746 323.196ZM52.9976 325.181C52.9976 325.181 52.9976 325.168 52.9976 325.156C53.0348 325.206 53.0224 325.206 52.9976 325.181Z" fill="var(--fill-0, #323232)"/>
</g>
</svg>
