<svg preserveAspectRatio="none" width="100%" height="100%" overflow="visible" style="display: block;" viewBox="0 0 81.9992 78" fill="none" xmlns="http://www.w3.org/2000/svg">
<g id="Group">
<path id="Vector" d="M11.5136 62.4629C11.4741 62.4695 11.4181 62.4794 11.5136 62.4629Z" fill="var(--fill-0, #BDA6DA)"/>
<path id="Vector_2" d="M14.1633 47.9648C13.6485 47.4166 13.1535 46.8519 12.6486 46.2971C12.1306 45.7257 11.6125 45.1544 11.0945 44.583C10.7208 44.1702 10.3405 43.6253 9.82246 43.3908C8.7307 42.8921 8.13073 44.5962 7.875 45.3393C8.94709 45.9734 9.9536 46.7165 10.9273 47.4926C11.4224 47.8856 11.9142 48.2885 12.4125 48.6815C12.7436 48.9424 13.0813 49.2033 13.419 49.4576C13.7534 49.7119 14.0977 49.9365 14.3403 50.2865C14.3829 50.346 14.4157 50.4054 14.4518 50.4682C14.7304 50.4715 15.0124 50.3031 15.2091 50.0455C15.4812 49.6921 15.4419 49.4642 15.2026 49.1009C14.9206 48.6749 14.5173 48.338 14.1698 47.9681L14.1633 47.9648Z" fill="var(--fill-0, white)"/>
<path id="Vector_3" d="M14.7656 29.7016C14.8851 29.7415 14.8054 29.7249 14.7656 29.7016Z" fill="var(--fill-0, #BDA6DA)"/>
<path id="Vector_4" d="M16.3589 37.0465C16.254 36.2506 16.6376 35.5241 17.172 34.9461C17.4048 34.0775 17.6376 33.209 17.867 32.3404C17.8539 32.3371 17.8375 32.3305 17.8244 32.3272C17.2769 32.172 16.7294 32.0167 16.1852 31.8615C16.2081 31.9837 16.2114 32.1092 16.1852 32.2314L16.0934 32.6244C15.877 33.559 15.6573 34.497 15.4409 35.4316C15.4081 35.5769 15.3327 35.6925 15.2344 35.7883C15.6311 36.2011 16.0114 36.6304 16.3688 37.0796C16.3688 37.0697 16.3622 37.0564 16.3622 37.0465H16.3589Z" fill="var(--fill-0, #BDA6DA)"/>
<path id="Vector_5" d="M14.5591 29.563C14.5788 29.5696 14.7099 29.6654 14.7591 29.6951C14.7984 29.705 14.8443 29.7183 14.8771 29.7348C14.887 29.7414 14.9034 29.7447 14.9165 29.7447C14.9394 29.7447 14.9558 29.7447 14.9657 29.748C14.9853 29.748 15.0017 29.748 15.0214 29.748C15.087 29.748 15.3099 29.7083 15.0673 29.7579C15.1197 29.748 15.1755 29.7381 15.2279 29.7249C15.2738 29.7116 15.4574 29.639 15.4738 29.639C15.5656 29.5928 15.6574 29.5465 15.7459 29.4904C15.7755 29.4706 15.923 29.3649 15.9492 29.3517C17.1393 28.4137 17.8901 26.9936 18.5458 25.6099C19.5032 23.5953 20.149 21.4321 20.6277 19.2558C21.1621 16.7689 21.4736 14.2029 21.3162 11.6533C21.2605 10.7583 21.1457 9.88311 20.8769 9.02114C20.8244 8.84611 20.7621 8.67107 20.6933 8.50264C20.6834 8.48283 20.6113 8.32761 20.6015 8.30779C20.5687 8.24174 20.5326 8.17899 20.4966 8.11294C20.4376 8.01056 20.372 7.91149 20.3031 7.81571C20.2769 7.78599 20.2113 7.70673 20.1949 7.69021C20.1523 7.64728 20.1097 7.60765 20.0638 7.56472C20.054 7.55481 20.0474 7.5482 20.0441 7.5416C20.0343 7.53499 20.0212 7.52839 20.0015 7.51848C19.9523 7.49206 19.9064 7.46234 19.8572 7.43592C19.8572 7.43592 19.8572 7.43592 19.854 7.43592C19.8081 7.42271 19.7392 7.4128 19.6966 7.39298C19.6507 7.39298 19.595 7.39298 19.5523 7.38968C19.5359 7.38968 19.513 7.38968 19.4901 7.39298C19.4868 7.39298 19.4835 7.39298 19.4802 7.39298C19.4605 7.39629 19.4409 7.39959 19.4245 7.40289C19.3687 7.4194 19.1524 7.50197 19.1556 7.49206C19.0606 7.5383 18.9688 7.58783 18.8802 7.64398C18.8245 7.68031 18.7688 7.71994 18.713 7.75626C18.6966 7.76948 18.6868 7.77608 18.677 7.78269C18.6704 7.78929 18.6671 7.79259 18.6573 7.7992C18.5393 7.89497 18.4278 7.99735 18.3196 8.10303C17.1983 9.19618 16.4246 10.7121 15.7787 12.1949C14.8607 14.2986 14.2444 16.551 13.8149 18.8C13.4051 20.9533 13.1854 23.166 13.3067 25.3589C13.3526 26.2076 13.4542 27.0267 13.6772 27.8523C13.7231 28.024 13.7755 28.1925 13.8346 28.3576C13.8608 28.4369 13.8903 28.5128 13.9198 28.5921C13.9264 28.6119 13.9296 28.6218 13.9362 28.6317C13.9427 28.6449 13.9493 28.6614 13.9624 28.6846C14.0247 28.8167 14.0936 28.9488 14.169 29.0776C14.205 29.137 14.2444 29.1931 14.2804 29.2526C14.287 29.2625 14.3099 29.2922 14.3296 29.3186C14.4017 29.4012 14.4772 29.4772 14.5591 29.5531V29.563ZM16.0017 17.1157C16.5689 14.9856 17.2475 12.7828 18.3458 10.8607C18.8704 9.93925 20.2867 10.7715 19.7622 11.6929C18.736 13.4928 18.1196 15.5404 17.5852 17.5516C17.0639 19.5068 16.582 21.4916 16.6115 23.4896C16.6279 24.5531 14.9886 24.5498 14.9722 23.4896C14.9394 21.3529 15.4574 19.1633 16.0017 17.1124V17.1157Z" fill="var(--fill-0, white)"/>
<path id="Vector_6" d="M14.8672 29.7444C14.887 29.7444 14.9034 29.7444 14.9232 29.7444C14.9067 29.7444 14.8936 29.7444 14.8705 29.7444H14.8672Z" fill="var(--fill-0, #BDA6DA)"/>
<path id="Vector_7" d="M14.9764 29.7478C14.9764 29.7478 14.9464 29.7478 14.9297 29.7478C14.9798 29.7578 15.0265 29.7545 14.9764 29.7478Z" fill="var(--fill-0, #BDA6DA)"/>
<path id="Vector_8" d="M19.5623 7.38281C19.5389 7.38614 19.5156 7.39282 19.4922 7.39616C19.5089 7.39282 19.5322 7.38948 19.559 7.38281H19.5623Z" fill="var(--fill-0, #BDA6DA)"/>
<path id="Vector_9" d="M10.5078 39.5233C10.5125 39.5233 10.5125 39.5233 10.5078 39.5233Z" fill="var(--fill-0, #BDA6DA)"/>
<path id="Vector_10" d="M15.8837 44.6554C15.3854 44.1733 14.8903 43.6878 14.3985 43.199C13.533 42.3404 12.7199 41.4289 11.8577 40.5702C11.4708 40.1871 11.0938 39.8535 10.6381 39.5794C10.6217 39.5695 10.5922 39.553 10.5692 39.5398C10.5889 39.5794 10.6053 39.6158 10.6249 39.6521C10.6053 39.6124 10.5889 39.5761 10.5692 39.5398C10.5528 39.5332 10.5331 39.5299 10.5069 39.5233C10.4446 39.5596 10.3856 39.5893 10.3233 39.629C10.0545 39.8007 9.72006 40.1012 9.51351 40.4216C9.2709 40.8014 9.13648 41.2142 9.19221 41.6831C9.24467 41.6765 9.29712 41.6666 9.35286 41.6633C10.8184 41.5643 11.7987 42.9183 12.6773 43.8893C13.5101 44.8074 14.3264 45.7519 15.1821 46.6502C15.228 46.6073 15.2805 46.5676 15.3329 46.5313C15.5264 46.3992 15.7427 46.3067 15.946 46.1911C16.0083 46.1548 16.1558 46.0689 16.1886 46.0491C16.205 46.0326 16.2706 45.9765 16.287 45.96C16.287 45.96 16.2903 45.9567 16.2903 45.9534C16.4837 45.4943 16.2608 45.022 15.8804 44.6554H15.8837Z" fill="var(--fill-0, white)"/>
<path id="Vector_11" d="M6.18612 46.4287C6.18612 46.4287 6.16621 46.4287 6.15625 46.4287C6.16621 46.4287 6.17616 46.4287 6.1828 46.4287H6.18612Z" fill="var(--fill-0, #BDA6DA)"/>
<path id="Vector_12" d="M16.2872 45.9632C16.2637 46.0001 16.2167 46.0404 16.2872 45.9632Z" fill="var(--fill-0, #BDA6DA)"/>
<path id="Vector_13" d="M10.5547 39.5001C10.5547 39.5001 10.5547 39.5001 10.5547 39.5035C10.5682 39.5001 10.5716 39.4967 10.5547 39.5001Z" fill="var(--fill-0, #BDA6DA)"/>
<path id="Vector_14" d="M10.5234 39.5103C10.5234 39.5103 10.5402 39.5069 10.5469 39.5036C10.5469 39.5036 10.5469 39.5036 10.5469 39.5002C10.5436 39.5002 10.5436 39.5002 10.5369 39.5002C10.5335 39.5002 10.5302 39.5036 10.5268 39.5069L10.5234 39.5103Z" fill="var(--fill-0, #BDA6DA)"/>
<path id="Vector_15" d="M16.2891 47.4955C16.2891 47.4955 16.2891 47.4922 16.2891 47.4889C16.2891 47.479 16.2891 47.479 16.2891 47.4955Z" fill="var(--fill-0, #BDA6DA)"/>
<path id="Vector_16" d="M9.332 34.4074C9.332 34.4074 9.332 34.4113 9.32813 34.4152C9.32813 34.4152 9.32812 34.4152 9.332 34.4113V34.4074Z" fill="var(--fill-0, #BDA6DA)"/>
<path id="Vector_17" d="M19.4858 7.39901C19.4858 7.39901 19.4925 7.39901 19.4959 7.39901C19.4489 7.40573 19.4153 7.41581 19.4858 7.39901Z" fill="var(--fill-0, #BDA6DA)"/>
<path id="Vector_18" d="M9.85156 33.5519C9.85156 33.5519 9.85544 33.5519 9.85932 33.5519C9.85932 33.5519 9.85932 33.5519 9.85544 33.5519H9.85156Z" fill="var(--fill-0, #BDA6DA)"/>
<path id="Vector_19" d="M22.9759 12.0759C23.0775 14.6287 22.7431 17.2047 22.2054 19.6982C22.0612 20.3554 21.9005 21.0093 21.7202 21.6566C21.1104 23.8495 20.3006 26.0457 19.1334 28.0041C18.6252 28.8528 18.0056 29.7677 17.2188 30.4447C17.6253 30.5603 18.0286 30.6759 18.4351 30.7914C18.8056 30.8971 19.1892 30.9863 19.5531 31.1085C19.5695 31.1151 19.5891 31.1151 19.6055 31.125C19.6416 31.125 19.6875 31.125 19.7236 31.1283C19.7891 31.1316 19.9793 31.0887 19.7432 31.1382C19.7793 31.1316 19.8154 31.1283 19.8514 31.1184C19.9432 31.092 20.0317 31.0656 20.1235 31.0358C20.1235 31.0358 20.1268 31.0358 20.1301 31.0358C20.1367 31.0325 20.1399 31.0292 20.1465 31.0259C20.2022 30.9962 20.258 30.9698 20.3137 30.9368C20.3891 30.8938 20.4645 30.8443 20.5366 30.7948C20.5366 30.7948 20.5858 30.7617 20.6186 30.7353C20.6514 30.7089 20.7104 30.6626 20.7071 30.666C20.7924 30.5933 20.8776 30.5173 20.9596 30.4381C21.3694 30.0451 21.6579 29.6752 21.9563 29.2392C22.7792 28.0305 23.4152 26.6864 23.9332 25.3158C25.2217 21.9142 25.9889 18.2252 26.0315 14.5792C26.0479 13.1954 25.9758 11.8117 25.5823 10.484C25.4217 9.94572 25.3364 9.73106 25.0283 9.25549C25.0151 9.23897 24.9561 9.16302 24.9496 9.15311C24.9397 9.1399 24.9299 9.12669 24.9168 9.11678C24.8643 9.06394 24.8119 9.0144 24.7561 8.96156C24.7332 8.94835 24.6414 8.879 24.6086 8.85588C24.5824 8.83937 24.5561 8.82616 24.5266 8.81294C23.7988 8.61149 23.0742 8.40673 22.3464 8.20197C22.8054 9.42392 22.9169 10.8374 22.966 12.0726L22.9759 12.0759Z" fill="var(--fill-0, #BDA6DA)"/>
<path id="Vector_20" d="M9.82736 33.546C9.79713 33.5561 9.79713 33.546 9.82736 33.546Z" fill="var(--fill-0, #BDA6DA)"/>
<path id="Vector_21" d="M36.7476 51.634C36.7476 51.634 36.741 51.6472 36.7344 51.6537C36.7344 51.6537 36.7344 51.657 36.7344 51.6603C36.741 51.6505 36.7443 51.6406 36.7509 51.634H36.7476Z" fill="var(--fill-0, #BDA6DA)"/>
<path id="Vector_22" d="M31.2673 18.229C31.2673 18.229 31.2443 18.2455 31.2344 18.252C31.264 18.252 31.3596 18.1499 31.2673 18.229Z" fill="var(--fill-0, #BDA6DA)"/>
<path id="Vector_23" d="M56.5078 38.3875C56.5443 38.341 56.531 38.3543 56.5078 38.3875Z" fill="var(--fill-0, #BDA6DA)"/>
<path id="Vector_24" d="M31.4453 18.1229C31.4453 18.1229 31.4653 18.1162 31.4787 18.1129C31.5188 18.0962 31.5321 18.0795 31.4453 18.1229Z" fill="var(--fill-0, #BDA6DA)"/>
<path id="Vector_25" d="M31.4439 18.1228C31.4439 18.1228 31.424 18.1295 31.4141 18.1295C31.4207 18.1295 31.4273 18.1295 31.434 18.1295C31.434 18.1295 31.4406 18.1295 31.4406 18.1261L31.4439 18.1228Z" fill="var(--fill-0, #BDA6DA)"/>
<path id="Vector_26" d="M36.5859 51.8654C36.643 51.8285 36.643 51.815 36.6262 51.8218C36.6128 51.8352 36.596 51.852 36.5859 51.8654Z" fill="var(--fill-0, #BDA6DA)"/>
<path id="Vector_27" d="M36.8359 51.2155C36.8427 51.1584 36.8393 51.1349 36.8359 51.2155Z" fill="var(--fill-0, #BDA6DA)"/>
<path id="Vector_28" d="M36.5823 51.8651C36.5823 51.8651 36.579 51.8651 36.5757 51.8651C36.5724 51.8717 36.5658 51.8783 36.5625 51.8882C36.5625 51.8816 36.5724 51.875 36.5823 51.8618V51.8651Z" fill="var(--fill-0, #BDA6DA)"/>
<path id="Vector_29" d="M36.7305 51.66C36.7305 51.66 36.7104 51.6902 36.7036 51.707C36.7003 51.7205 36.7137 51.707 36.7305 51.66Z" fill="var(--fill-0, #BDA6DA)"/>
<path id="Vector_30" d="M63.4882 63.8765C62.6227 65.8515 61.7571 67.8297 60.8916 69.8046C59.7212 72.4764 58.5507 75.1482 57.3803 77.8232H80.3465C79.976 74.6297 79.3597 71.4823 78.6581 68.3449C78.0614 65.6863 77.6155 62.8395 76.091 60.531C75.5074 59.6493 74.7041 58.8401 73.8091 58.2292C72.5468 57.3672 71.1174 56.7628 69.783 56.0297C67.6356 54.8473 65.5668 53.5395 63.6161 52.0468C61.9539 50.772 60.3474 49.4047 58.7147 48.1828C58.6688 48.1498 58.6261 48.1101 58.5868 48.0705C58.0524 49.91 57.3901 51.7165 56.741 53.5197C55.7607 56.2443 54.7476 58.959 53.7214 61.6671C52.6461 64.5106 51.5609 67.3475 50.4658 70.1844C49.6068 72.4103 48.7413 74.6363 47.8725 76.8589C47.7479 77.1825 47.6201 77.5029 47.4922 77.8265H55.5968C56.0459 76.7961 56.4984 75.769 56.9475 74.7386C58.672 70.7987 60.3965 66.8587 62.1243 62.9188C62.3637 62.3706 62.603 61.8223 62.8423 61.2774C62.8817 61.1883 62.9276 61.0958 62.9637 61.0033C62.9571 60.9703 62.9604 60.9009 62.9571 60.9009C62.8686 60.7986 62.8489 60.6962 62.6489 60.6235C61.8883 60.3395 61.0555 60.181 60.272 59.963C59.531 59.7582 58.7868 59.5502 58.0458 59.3454C57.0295 59.0614 57.4622 57.4696 58.4819 57.7536C59.4064 58.0112 60.331 58.2655 61.2555 58.5231C61.285 58.533 61.3178 58.5396 61.3506 58.5495C61.3572 58.3778 61.3604 58.206 61.367 58.0343C61.426 56.1287 61.4883 54.2232 61.5473 52.3176C61.5604 51.8717 61.9112 51.492 62.367 51.492C62.8227 51.492 63.1997 51.8717 63.1866 52.3176C63.1768 52.5917 63.1702 52.8658 63.1604 53.1399C63.1014 55.0455 63.0391 56.9511 62.98 58.8566C62.98 58.8996 62.9702 58.9425 62.9637 58.9821C63.5308 59.1869 64.0423 59.4808 64.3406 59.9927C64.7669 60.7226 64.5505 61.4393 64.2456 62.1361C63.9898 62.7173 63.7341 63.3019 63.4817 63.8831L63.4882 63.8765Z" fill="var(--fill-0, #BDA6DA)"/>
<path id="Vector_31" d="M30.9566 61.756C31.5206 58.2322 32.5795 54.7942 33.6418 51.386C33.1893 51.6568 32.7336 51.9177 32.2746 52.1687C31.8648 52.3932 31.455 52.6112 31.0419 52.8259C30.5731 53.7704 30.1173 54.7215 29.678 55.676C29.1403 56.8385 28.6026 57.9415 28.183 59.1205C28.6781 58.9884 29.1731 58.8563 29.6682 58.7209C30.6878 58.4369 31.1206 60.0321 30.1042 60.3128C29.2715 60.5439 28.4387 60.7751 27.6027 61.0063C27.0748 61.1516 26.547 61.3002 26.0191 61.4455C25.8093 61.505 25.429 61.5479 25.2815 61.7097C25.1175 61.8848 25.2815 62.2976 25.3503 62.5915C25.4913 63.1992 25.6356 63.8069 25.7765 64.4145L27.1568 70.3294C27.7404 72.8261 28.324 75.3229 28.9075 77.8229H32.2582C31.7992 75.7654 31.3665 73.7013 31.0484 71.6174C30.5435 68.3182 30.4321 65.0585 30.9599 61.756H30.9566Z" fill="var(--fill-0, #BDA6DA)"/>
<path id="Vector_32" d="M15.6006 77.8231C15.3547 77.6481 15.194 77.3476 15.276 76.9711C15.4071 76.3568 15.5416 75.7458 15.6727 75.1315C16.253 72.4565 16.83 69.7781 17.4103 67.103C17.63 66.0858 17.8497 65.0687 18.0693 64.0482C17.6005 64.4181 17.1185 64.7681 16.6169 65.0918C14.6859 66.3302 12.4302 67.07 10.1254 66.8454C8.33859 66.6704 6.67309 65.8976 5.601 64.527C5.55183 64.6723 5.50593 64.821 5.45675 64.9663C4.17812 68.8765 2.89948 72.7867 1.62085 76.697C1.45364 77.2055 0.965139 77.3476 0.568434 77.2287L0.375 77.8231H15.6006Z" fill="var(--fill-0, #BDA6DA)"/>
<path id="Vector_33" d="M20.311 39.629C20.4847 38.9256 20.5208 38.199 20.5175 37.4494C20.5175 36.8582 20.5864 36.1382 20.1995 35.6693C20.0815 35.5273 19.9307 35.4315 19.7569 35.372C19.7044 35.3522 19.6421 35.3357 19.5864 35.3291C19.5372 35.3225 19.4323 35.3423 19.429 35.339C19.2192 35.3952 19.1438 35.4447 18.8946 35.6065C18.8061 35.6627 18.7176 35.732 18.6324 35.8047C18.3307 36.9342 18.0291 38.0603 17.7275 39.1898C17.7373 39.2261 17.7537 39.2658 17.7635 39.3021C18.0619 40.524 17.0488 41.9177 15.8882 42.357C16.2325 42.6938 16.5734 43.034 16.9177 43.3708C17.5242 43.9587 17.9635 44.6093 17.993 45.4845C18.0193 46.2936 17.698 46.9871 17.0423 47.4462C16.8718 47.5651 16.6849 47.6576 16.5046 47.7533C16.498 47.8557 16.4751 47.9581 16.4325 48.0506C16.921 48.7375 17.2062 49.5169 16.8488 50.3987C16.4718 51.3267 15.5735 52.04 14.5899 52.1094C14.4096 52.7699 13.9834 53.3842 13.449 53.7706C12.1474 54.7118 10.754 53.6847 9.57045 53.0374C8.70164 52.5619 7.84266 52.0665 6.99679 51.5513C6.09519 51.003 6.91811 49.573 7.82298 50.1246C8.68524 50.6497 9.56389 51.155 10.4491 51.6404C10.7835 51.8221 11.1179 52.0004 11.4556 52.1755C11.7048 52.3043 11.9736 52.4727 12.1966 52.5288C12.2162 52.5288 12.2556 52.5321 12.2851 52.5321C12.2949 52.5288 12.3113 52.5222 12.3277 52.5189C12.3539 52.509 12.3671 52.5057 12.3769 52.5057C12.3867 52.4991 12.3998 52.4925 12.4195 52.4826C12.4654 52.4562 12.5113 52.4297 12.5572 52.3967C12.4752 52.4562 12.7015 52.2547 12.7342 52.2217C12.7408 52.2151 12.8392 52.0764 12.9047 51.9674C12.9769 51.8485 12.9572 51.8848 13.0031 51.7296C13.0162 51.6867 13.026 51.6404 13.0359 51.5975C13.0359 51.5777 13.0424 51.548 13.0457 51.5381C13.049 51.4984 13.0457 51.4555 13.0457 51.4159C13.0424 51.3861 13.0359 51.3399 13.0293 51.3201C12.9867 51.1913 13.0719 51.4225 13.026 51.2937C13.0228 51.2805 12.9703 51.2012 12.9637 51.188C12.8129 50.9997 12.413 50.7554 12.1736 50.5737C11.8622 50.3359 11.554 50.0948 11.2425 49.8504C10.7901 49.4938 10.3442 49.1338 9.89503 48.7738C9.51799 48.4733 9.25571 48.2652 8.82294 47.9515C8.35083 47.6113 7.86561 47.2877 7.37382 46.9772C7.09515 46.8022 6.81647 46.604 6.50829 46.4918C6.48534 46.4851 6.30502 46.4422 6.26895 46.429C6.23945 46.429 6.20994 46.429 6.17715 46.429C6.19027 46.429 6.2001 46.429 6.20666 46.429C6.21978 46.429 6.22633 46.429 6.22961 46.429C6.22961 46.429 6.21978 46.429 6.20666 46.429C6.19027 46.429 6.17388 46.4356 6.16076 46.4422C6.14765 46.4521 6.13453 46.462 6.1247 46.4719C6.11158 46.4884 6.09191 46.5116 6.08535 46.5182C6.05257 46.5512 5.91487 46.713 5.92471 46.6998C5.73127 46.9607 5.5739 47.248 5.3903 47.5155C5.22637 47.7533 5.05589 48.0373 4.96081 48.2817C4.88868 48.4667 4.80344 48.8168 4.79361 48.8927C4.6723 49.8802 5.1149 50.7421 5.67226 51.6272C6.2919 52.6081 7.02302 53.5097 7.61644 54.5038C8.10166 55.3129 8.59672 56.2376 8.52787 57.2052C8.47869 57.9087 8.42624 58.6154 8.37706 59.3189C8.35083 59.6855 8.13117 60.0025 7.79348 60.1049C8.00658 60.5705 8.2787 61.0296 8.56722 61.3632C8.94425 61.7991 9.1967 61.9972 9.70159 62.2482C9.71471 62.2548 9.72454 62.2582 9.7311 62.2648C9.73438 62.2648 9.74094 62.2648 9.75077 62.2714C9.79667 62.2879 9.84585 62.3077 9.89503 62.3242C10.0032 62.3605 10.1114 62.3936 10.2229 62.4167C10.3048 62.4365 10.3901 62.453 10.4721 62.4662C10.4983 62.4662 10.6524 62.486 10.6786 62.486C10.9114 62.4992 11.1442 62.4926 11.3769 62.4761C11.4261 62.4728 11.4786 62.4662 11.5277 62.4596C11.5376 62.4596 11.5441 62.4596 11.554 62.4563C11.6589 62.4398 11.7671 62.42 11.872 62.3969C12.8621 62.1855 13.5965 61.8387 14.4719 61.3367C16.1275 60.3856 17.4685 59.266 18.8389 57.9219C18.8881 57.8757 18.9373 57.836 18.9897 57.803C19.1045 57.1425 19.1963 56.4754 19.2258 55.8248C18.5733 56.5282 17.8389 57.1722 17.0128 57.6577C16.098 58.1927 15.2718 56.766 16.1866 56.231C17.0783 55.7092 17.8226 54.9694 18.4881 54.1834C19.1241 53.4337 19.7995 52.5486 20.1307 51.6107C20.8257 49.649 20.0389 47.6873 19.688 45.752C19.4848 44.6357 19.4946 43.5195 19.6454 42.3999C19.7766 41.4388 20.088 40.5604 20.3208 39.629H20.311Z" fill="var(--fill-0, white)"/>
<path id="Vector_34" d="M10.8027 37.895C11.4322 38.0238 11.9863 38.4828 12.4616 38.8923C13.2354 39.5628 13.9272 40.3356 14.632 41.0852C14.7271 40.9862 14.8419 40.9135 14.9796 40.897C15.432 40.8342 15.8025 40.5601 16.0484 40.1341C16.1271 39.9954 16.1697 39.8765 16.1795 39.7807C16.1074 39.6883 16.0582 39.5793 16.0385 39.4538C16.0287 39.4373 16.0189 39.4207 16.0123 39.4075C15.9107 39.2424 15.8058 39.0806 15.6976 38.9221C14.9566 37.8388 14.0354 36.9009 13.1042 35.9861C12.642 35.5336 12.1764 35.0845 11.724 34.6221C11.524 34.4141 11.3371 34.1763 11.1174 33.988C11.1306 34.0079 10.9929 33.9088 10.9601 33.8923C10.9273 33.8725 10.7371 33.7767 10.7798 33.7932C10.5503 33.6908 10.2913 33.6115 10.0421 33.5752C10.0421 33.5752 9.9011 33.5686 9.8552 33.5686C9.80275 33.6512 9.73062 33.7337 9.67816 33.813C9.55358 33.9979 9.45522 34.1928 9.34375 34.3876C9.34375 34.391 9.34375 34.3943 9.34375 34.3976C9.35031 34.3976 9.35359 34.4108 9.35031 34.4273C9.38309 34.5792 9.42243 34.7278 9.46833 34.8764C9.54702 35.1241 9.63882 35.3586 9.75029 35.5931C9.88471 35.8705 10.0355 36.1479 10.2093 36.4055C10.4617 36.7754 10.2749 37.3236 9.91422 37.535C9.84537 37.5746 9.77324 37.601 9.70111 37.6175C9.75685 37.7497 9.81258 37.8785 9.86832 38.0106C10.1601 37.8884 10.4683 37.8322 10.7994 37.9016L10.8027 37.895Z" fill="var(--fill-0, white)"/>
<path id="Vector_35" d="M28.152 15.5371C28.2307 15.9367 28.352 16.3198 28.5126 16.6765C28.8175 15.4579 29.3749 14.3053 30.106 13.2881C31.565 11.2504 33.555 9.64538 35.6992 8.38711C38.1089 6.97361 40.8072 5.98945 43.6169 6.62354C43.7349 6.64996 43.83 6.6962 43.912 6.75234C43.9284 6.75234 43.9448 6.74574 43.9612 6.74574C44.4267 6.74574 44.748 7.12553 44.7808 7.57137C44.8628 8.66122 44.9939 9.73455 45.1972 10.8079C45.8627 14.3482 47.2692 18.1561 50.374 20.1772C50.5904 20.1442 50.8232 20.2069 51.0199 20.4282C52.387 21.9606 53.2952 23.8794 53.6165 25.9006C53.9115 25.4349 54.1935 24.9626 54.4591 24.4805C54.8754 23.7308 55.882 24.1304 55.977 24.8041C56.6098 24.7744 57.2425 24.8966 57.7802 25.2731C59.049 26.1582 59.5998 27.9878 59.5047 29.4871C59.39 31.3233 58.4458 32.8392 57.1508 34.0149C57.154 34.0414 57.154 34.0645 57.1573 34.0909C57.1671 34.1371 57.1737 34.1834 57.1803 34.2329C57.236 34.6754 57.1606 35.1048 56.9901 35.4912C57.0786 35.4152 57.1639 35.336 57.2557 35.2633C57.613 34.9727 58.0589 34.933 58.4163 35.2633C58.7179 35.5407 58.754 36.1583 58.4163 36.4324C58.0294 36.7428 57.6622 37.0764 57.318 37.4331C57.1507 37.6081 56.9868 37.7864 56.8295 37.9714C56.754 38.0573 56.6819 38.1464 56.6098 38.2356C56.5704 38.2851 56.5344 38.3314 56.495 38.3809C56.4918 38.3875 56.4852 38.3941 56.4786 38.4007C56.1311 38.8664 55.8229 39.3552 55.5475 39.8638C57.436 38.3578 59.6129 37.2382 61.4456 35.6563C62.3735 34.8538 63.2128 33.9423 63.7603 32.8326C64.357 31.6272 64.4717 30.2566 64.3799 28.9323C64.2816 27.5188 63.9373 26.135 63.5964 24.7645C63.2095 23.2057 62.8194 21.6469 62.4325 20.0881C62.0522 18.5557 61.6686 17.0233 61.2883 15.4909C60.9342 14.0741 60.6326 12.6276 60.1834 11.2372C59.7834 10.0021 59.1441 8.99808 58.2359 8.07997C57.5704 7.40955 56.6229 6.54098 55.6426 6.92407C55.4721 6.99013 55.2918 6.97031 55.1312 6.89765C55.1541 6.91417 55.1771 6.93728 55.2 6.9538C55.1738 6.93728 55.1541 6.91417 55.1312 6.89765C54.9476 6.81839 54.7902 6.67308 54.6984 6.49804C54.4066 6.17109 54.164 5.7946 53.9148 5.42471C53.7017 5.54361 53.4362 5.55682 53.1608 5.37518C51.4494 4.23249 49.5511 3.45309 47.5249 3.09641C40.6269 1.88438 33.4469 5.85735 29.8798 11.7392C29.6995 12.0397 29.4241 12.1454 29.1552 12.1256C28.3848 13.1461 28.1389 14.2822 28.1487 15.5338L28.152 15.5371Z" fill="var(--fill-0, white)"/>
<path id="Vector_36" d="M53.1732 57.3636C52.5667 57.7599 51.9569 58.1595 51.3503 58.5558C48.6881 60.2996 46.026 62.04 43.3671 63.7838C41.695 64.8769 40.0229 65.9734 38.3542 67.0665C37.9673 67.3208 37.469 67.1293 37.2329 66.7693C37.0395 66.4721 36.8428 66.1748 36.6493 65.8776C35.4068 63.9819 34.1675 62.0863 32.9249 60.1873C32.4429 62.4462 32.1577 64.6821 32.2298 67.0566C32.3413 70.6894 33.1282 74.2727 33.9314 77.8229H45.7112C45.9866 77.136 46.285 76.4524 46.5505 75.772C47.4653 73.4239 48.38 71.0758 49.2848 68.7244C50.3864 65.8644 51.4815 63.0011 52.5601 60.1345C53.147 58.5723 53.7306 57.0069 54.3043 55.4415L53.4519 56.2705C53.6289 56.6238 53.5994 57.0895 53.1765 57.3669L53.1732 57.3636Z" fill="var(--fill-0, white)"/>
<path id="Vector_37" d="M56.0776 47.9318C56.1727 48.3677 55.9497 48.8234 55.5039 48.9489C55.094 49.0612 54.5924 48.8069 54.4941 48.371C54.4318 48.087 54.3695 47.8063 54.3072 47.5222C53.8711 45.5341 53.4384 43.546 53.0023 41.5578C52.9105 41.1384 53.1138 40.7025 53.5302 40.5604C53.5236 40.4019 53.5597 40.2335 53.622 40.0849C54.117 38.9224 54.7957 37.8325 55.6186 36.8715C55.553 36.9012 55.4875 36.9276 55.4186 36.9508C54.4646 37.281 53.304 36.9508 52.6679 36.1548C51.986 35.2995 51.845 34.0874 52.4319 33.1363C53.0187 32.1885 54.1203 31.736 55.199 31.9573C55.6121 32.0432 55.9924 32.2512 56.3137 32.5352C57.4054 31.4388 58.1169 30.0418 57.8021 28.4566C57.7398 28.1461 57.6546 27.8357 57.5366 27.5385C57.5202 27.5021 57.4612 27.38 57.4513 27.3601C57.4185 27.2941 57.3825 27.2313 57.3431 27.1686C57.3005 27.0992 57.2546 27.0299 57.2054 26.9638C57.1858 26.9473 57.0841 26.8284 57.0677 26.8152C56.8677 26.6138 56.7202 26.5279 56.3989 26.4651C56.412 26.4718 56.1825 26.4453 56.153 26.4453C56.0579 26.4453 55.9596 26.4453 55.8645 26.4585C55.658 26.485 55.3334 26.584 55.0908 26.6699C55.0809 26.6732 55.0678 26.6732 55.058 26.6765C54.5629 27.4559 54.0351 28.2122 53.4712 28.9487C53.0384 29.5101 52.0155 29.0378 52.0712 28.3641C52.2614 26.0787 51.5958 23.7736 50.1762 21.9836C49.1107 21.4155 48.1468 20.646 47.3501 19.7411C44.5994 16.6169 43.5634 12.3005 43.1896 8.21853C43.1831 8.21853 43.1798 8.21853 43.1732 8.21853C41.7569 7.89818 40.3045 8.11945 38.9538 8.60823C37.9177 8.98472 36.9374 9.54285 36.0031 10.1274C35.0654 10.712 34.1736 11.3626 33.3573 12.1056C31.8655 13.4597 30.6164 15.0977 30.0984 17.0661C30.459 16.7589 30.8689 16.5245 31.3442 16.4485C31.8131 16.3758 32.2655 16.399 32.7278 16.5145C33.4983 16.7061 34.2195 17.1123 34.8752 17.5549C35.2556 17.8124 35.3867 18.2682 35.1703 18.6843C34.9736 19.0608 34.4064 19.2226 34.049 18.9816C33.7802 18.7999 33.5081 18.6282 33.2229 18.4763C33.0983 18.4102 32.9606 18.331 32.8229 18.2781C32.8163 18.2781 32.813 18.2781 32.7999 18.2715C32.7573 18.255 32.7114 18.2385 32.6688 18.222C32.5999 18.1955 32.5278 18.1724 32.4557 18.1526C32.377 18.1295 32.295 18.1064 32.2163 18.0899C32.177 18.08 32.1409 18.0734 32.1016 18.0667C32.0786 18.0667 32.0196 18.0568 32.0065 18.0568C31.9704 18.0568 31.9377 18.0535 31.9016 18.0535C31.8327 18.0535 31.7639 18.0568 31.6918 18.0601C31.6623 18.0667 31.6328 18.07 31.6033 18.08C31.5606 18.0899 31.5115 18.1097 31.4656 18.1262C31.4524 18.1328 31.4393 18.1361 31.4262 18.1394C31.3967 18.1559 31.3672 18.1691 31.341 18.1889C31.318 18.2022 31.2492 18.2616 31.2262 18.2649C30.8787 18.539 30.4394 18.5555 30.0984 18.2418C29.9705 18.1229 29.8951 17.9512 29.8722 17.7695C29.6394 18.0833 29.2066 18.1097 28.8722 17.9346C28.4722 19.8931 28.7771 22.0298 28.5313 24.0246C28.9247 24.0444 29.305 24.3086 29.3148 24.8172C29.3345 26.3429 29.046 27.8357 28.8263 29.3384C28.587 30.9599 28.5542 32.598 28.6919 34.2294C28.9148 36.8946 29.7279 39.8339 31.5737 41.8385C33.1507 43.5493 35.3736 44.3221 37.6653 44.2065C38.698 44.1536 39.6685 43.8729 40.652 43.5724C41.6651 43.2652 42.6651 42.9185 43.6617 42.5618C44.9601 42.0994 46.2485 41.6173 47.5304 41.112C47.9435 40.9502 48.432 41.2936 48.5402 41.6899C48.6648 42.1523 48.3796 42.542 47.9665 42.7071C46.3239 43.3511 44.6683 43.9687 43.0028 44.54C41.2422 45.1477 39.4455 45.762 37.5899 45.8544C37.5964 45.871 37.6063 45.8875 37.6128 45.904C37.6948 46.1517 37.7669 46.3994 37.8358 46.6504C38.1538 47.7897 38.4062 48.9655 38.4882 50.1478C38.5636 51.2574 38.462 52.6973 37.3866 53.3149C36.4686 53.8433 35.6424 52.4166 36.5604 51.8882C36.5703 51.8849 36.5735 51.8783 36.5801 51.875C36.5965 51.8519 36.6129 51.8354 36.626 51.8288C36.6391 51.8156 36.6489 51.8057 36.6588 51.799C36.6752 51.7726 36.6883 51.7429 36.7014 51.7132C36.7014 51.7033 36.7112 51.6868 36.7309 51.6603C36.7342 51.6504 36.7375 51.6471 36.7407 51.6339C36.7571 51.5778 36.7768 51.5216 36.7899 51.4622C36.8063 51.4027 36.8194 51.34 36.8293 51.2805C36.8325 51.2607 36.8358 51.2409 36.8391 51.2244C36.8588 50.6927 36.862 50.1775 36.803 49.6458C36.7997 49.6161 36.7965 49.5995 36.7965 49.5863C36.7965 49.5797 36.7965 49.5764 36.7932 49.5632C36.7834 49.4972 36.7735 49.4311 36.7637 49.3618C36.7538 49.2924 36.7407 49.2197 36.7276 49.1504C36.4653 49.4014 36.1834 49.6326 35.8883 49.8505C35.8555 49.8902 35.8195 49.9265 35.7801 49.9628C35.7736 50.0124 35.7637 50.0652 35.7473 50.118C34.9867 52.5884 34.2195 55.062 33.554 57.562C33.4753 57.8526 33.4032 58.1433 33.331 58.4306C33.5704 58.4405 33.8097 58.5495 33.9769 58.8038C34.1704 59.101 34.3671 59.3982 34.5605 59.6955C35.7637 61.535 36.9702 63.3745 38.1735 65.214L39.3472 64.4445C42.0094 62.7008 44.6715 60.9603 47.3304 59.2166C49.0025 58.1234 50.6746 57.027 52.3433 55.9338C52.8089 55.63 53.2515 55.8777 53.4449 56.2641L54.2974 55.4352C54.6908 54.3651 55.0842 53.2918 55.4645 52.2152C56.0678 50.521 56.7038 48.8201 57.1563 47.0764C57.1923 46.941 57.2546 46.8386 57.33 46.7527L55.6416 45.9998C55.7825 46.6438 55.9235 47.2845 56.0645 47.9284L56.0776 47.9318ZM32.3409 21.4453C33.3966 21.4453 33.3966 23.0965 32.3409 23.0965C31.2852 23.0965 31.2852 21.4453 32.3409 21.4453ZM32.4688 26.911C33.1507 26.2538 33.9802 25.7947 34.3802 24.8964C34.7441 24.0873 34.8556 23.1494 34.9539 22.2742C35.0031 21.8284 35.2883 21.4486 35.7736 21.4486C36.1801 21.4486 36.6424 21.8317 36.5932 22.2742C36.485 23.2419 36.3735 24.2326 36.0358 25.1507C35.7047 26.0523 35.2031 26.7426 34.472 27.3568C34.1212 27.6508 33.7146 27.9282 33.4228 28.2882C33.4228 28.2882 33.3245 28.4335 33.3769 28.3344C33.3179 28.4401 33.3606 28.3509 33.3671 28.4037C33.3671 28.4203 33.3671 28.4269 33.3671 28.4269C33.3704 28.4335 33.3769 28.4467 33.3933 28.483C33.3606 28.4104 33.472 28.6349 33.4687 28.6349C33.8392 29.2855 34.4425 29.7908 34.8884 30.3919C35.1539 30.7519 34.9441 31.3166 34.5933 31.5214C34.1802 31.7624 33.7343 31.5841 33.472 31.2241C33.0458 30.6462 32.3409 30.0517 31.9836 29.3351C31.5344 28.4302 31.7508 27.5913 32.4622 26.9077L32.4688 26.911ZM38.3767 36.0723C38.2751 36.5214 37.7866 36.7427 37.3669 36.6502C36.9899 36.5644 36.6161 36.4719 36.2391 36.386C36.0621 36.3464 35.885 36.3068 35.708 36.2737C35.6228 36.2572 35.5375 36.244 35.4523 36.2275C35.4129 36.2209 35.3703 36.2176 35.3277 36.2077C35.3375 36.2077 35.3408 36.2077 35.3474 36.2143C35.3572 36.2143 35.367 36.2143 35.3769 36.2143C35.4392 36.2209 35.5309 36.2572 35.3474 36.2143C35.2031 36.1978 35.0621 36.1879 34.9179 36.1912C34.908 36.1912 34.8654 36.1912 34.8228 36.1912C34.6949 36.5908 34.2163 36.7757 33.8392 36.6899C33.3802 36.5842 33.1901 36.0987 33.2655 35.6727C33.4294 34.7612 34.3999 34.487 35.1933 34.5465C36.0785 34.6125 36.9407 34.8569 37.7997 35.0551C38.2456 35.1575 38.4685 35.6529 38.3735 36.0723H38.3767ZM41.6356 24.1699C40.5799 24.1699 40.5799 22.5186 41.6356 22.5186C42.6913 22.5186 42.6913 24.1699 41.6356 24.1699ZM45.0191 18.8792C44.8289 19.2425 44.2421 19.434 43.8978 19.1764C43.7535 19.0674 43.6027 18.9882 43.4486 18.9023C43.4093 18.8891 43.3667 18.8726 43.3273 18.8594C43.2487 18.8329 43.1667 18.8098 43.088 18.79C43.006 18.7702 42.9241 18.7537 42.8421 18.7405C42.8257 18.7405 42.8126 18.7339 42.806 18.7339C42.7798 18.7339 42.7503 18.7339 42.7438 18.7339C42.57 18.7207 42.3962 18.7174 42.2192 18.7207C42.029 18.724 41.8422 18.7405 41.652 18.7603C41.6422 18.7603 41.6061 18.7669 41.5832 18.7702C41.5635 18.7702 41.5438 18.7768 41.5373 18.7768C41.4487 18.79 41.3602 18.8065 41.2717 18.823C40.9176 18.8891 40.5701 18.975 40.2226 19.074C39.7799 19.1962 39.3505 18.9221 39.2128 18.4961C39.0751 18.0734 39.3734 17.5945 39.7865 17.4789C41.3438 17.0463 43.3273 16.6962 44.7273 17.753C45.0945 18.0304 45.2486 18.4498 45.0223 18.8825L45.0191 18.8792Z" fill="var(--fill-0, white)"/>
<path id="Vector_38" d="M19.9888 59.0908C19.756 59.3187 19.5167 59.5433 19.2741 59.7646C19.2151 60.2698 19.1692 60.7883 19.1233 61.3035C19.3724 61.3234 19.6052 61.4555 19.756 61.647C19.9986 61.8253 20.156 62.1193 20.0773 62.4958C19.9462 63.11 19.8117 63.721 19.6806 64.3353C19.1003 67.0104 18.5233 69.6887 17.943 72.3638C17.5791 74.0448 17.2151 75.7225 16.8545 77.4035C16.8152 77.5884 16.7332 77.7205 16.625 77.8163H27.218C27.0803 77.2252 26.9426 76.634 26.8049 76.0429C25.8607 72.0071 24.9197 67.9714 23.9755 63.9357C23.8739 63.4964 23.7755 63.0539 23.6673 62.6147C23.5985 62.3339 23.5329 62.0565 23.5591 61.7626C23.6345 60.8874 24.2575 60.2467 25.0673 59.9924C25.4738 59.8636 25.8836 59.7447 26.2934 59.6258C26.7524 58.0043 27.5131 56.4422 28.2147 54.923C28.3556 54.6159 28.5032 54.3087 28.6474 54.0016C26.5459 54.9924 24.3984 55.8874 22.2313 56.6998C21.9658 56.7989 21.674 56.6998 21.4674 56.5082C20.6543 56.8319 19.8708 57.2249 19.1855 57.7071C19.8872 57.5188 20.6281 58.4534 19.9855 59.0842L19.9888 59.0908Z" fill="var(--fill-0, #BDA6DA)"/>
<path id="Vector_39" d="M18.4918 60.4551C18.4918 60.4551 18.4918 60.4551 18.4918 60.4584C18.4918 60.4584 18.4918 60.4584 18.4918 60.4551C18.1508 60.7458 17.8066 61.0265 17.4525 61.3006C15.6919 62.6612 13.6363 63.9327 11.3773 64.1276C10.3348 64.2167 9.23318 63.9823 8.36108 63.3779C7.2267 62.5919 6.53493 61.4129 6.03987 60.1447C5.97758 59.9862 5.98741 59.821 6.04643 59.6658C5.93168 59.6493 5.82021 59.679 5.70546 59.7946C5.18745 60.6632 4.85304 61.6242 4.55469 62.6282C4.6596 62.4895 4.7973 62.397 4.94811 62.3508C5.05958 62.2121 5.20712 62.1064 5.36777 62.0635C5.82349 61.938 6.22019 62.222 6.37756 62.6414C7.24638 64.94 10.0987 65.518 12.2462 65.1316C14.6952 64.689 16.7148 63.1467 18.5279 61.5153C18.718 61.3435 18.9311 61.2874 19.1311 61.3039C19.177 60.7887 19.2229 60.2702 19.2819 59.7649C19.0229 59.9994 18.7606 60.2306 18.4918 60.4551Z" fill="var(--fill-0, white)"/>
<path id="Vector_40" d="M35.2422 50.3031C35.4586 50.1544 35.675 50.0025 35.8848 49.8473C36.0159 49.6954 36.1044 49.5137 36.1143 49.3189C35.7471 49.6161 35.3635 49.9034 35.2422 50.2997V50.3031Z" fill="var(--fill-0, #323232)"/>
<path id="Vector_41" d="M52.8555 56.8552L53.462 56.2673C53.2686 55.8809 52.826 55.6332 52.3604 55.937C50.6883 57.0302 49.0163 58.1266 47.3475 59.2198C44.6853 60.9635 42.0231 62.704 39.3642 64.4477L38.1905 65.2172C36.9873 63.3777 35.7808 61.5382 34.5776 59.6987C34.3841 59.4014 34.1874 59.1042 33.994 58.807C33.8268 58.5527 33.5874 58.4437 33.3481 58.4338C33.4202 58.1465 33.4924 57.8558 33.571 57.5652C34.2366 55.0652 35.0038 52.5916 35.7644 50.1212C35.7808 50.0684 35.7906 50.0156 35.7972 49.966C35.8365 49.933 35.8726 49.8934 35.9054 49.8537C35.6955 50.009 35.4824 50.1609 35.2628 50.3095C35.2398 50.3888 35.2234 50.4713 35.2234 50.5572C35.2234 50.468 35.2398 50.3888 35.2628 50.3095C35.1415 50.3921 35.0169 50.4746 34.8956 50.5572C35.0202 50.4746 35.1415 50.3921 35.2628 50.3095C35.3808 49.9132 35.7677 49.6259 36.1349 49.3286C36.1414 49.1866 36.1119 49.038 36.0267 48.8927C35.8201 48.5393 35.2628 48.3313 34.9054 48.5955C33.4596 49.6721 31.8826 50.5671 30.2728 51.3861C30.1384 51.4159 30.0138 51.4753 29.9122 51.5678C29.4565 51.7956 29.0007 52.0169 28.545 52.2349C26.6566 53.1398 24.8731 53.9093 22.9682 54.6689C22.5846 54.8208 22.201 54.9727 21.8142 55.118C21.4011 55.2732 21.1158 55.6761 21.2404 56.1352C21.2798 56.2805 21.3683 56.4159 21.4863 56.5216C21.8011 56.3961 22.1158 56.2805 22.4338 56.1715C22.1158 56.2772 21.7978 56.3961 21.4863 56.5216C21.6929 56.7098 21.9847 56.8122 22.2502 56.7132C24.4141 55.9007 26.5648 55.0057 28.6663 54.015C28.5221 54.3221 28.3745 54.6292 28.2336 54.9364C27.532 56.4589 26.7713 58.0177 26.3123 59.6392C25.9025 59.7548 25.4927 59.877 25.0862 60.0058C24.2764 60.2601 23.6534 60.9008 23.578 61.776C23.5518 62.0666 23.6174 62.3473 23.6862 62.628C23.7944 63.0673 23.8928 63.5098 23.9944 63.949C24.9386 67.9848 25.8796 72.0205 26.8238 76.0562C26.9615 76.6474 27.0992 77.2385 27.2369 77.8297H28.9188C28.3352 75.333 27.7516 72.8362 27.168 70.3362L25.7878 64.4213C25.6468 63.8136 25.5025 63.206 25.3616 62.5983C25.2927 62.3077 25.1321 61.8916 25.2927 61.7165C25.4402 61.558 25.8206 61.5118 26.0304 61.4523C26.5582 61.307 27.0861 61.1584 27.6139 61.0131C28.4467 60.7819 29.2794 60.5507 30.1154 60.3195C31.1318 60.0388 30.699 58.4437 29.6794 58.7277C29.1876 58.8631 28.6893 58.9952 28.1942 59.1273C28.6139 57.9483 29.1516 56.8453 29.6892 55.6828C30.1318 54.725 30.5843 53.7739 31.0531 52.8326C31.4662 52.618 31.8793 52.4 32.2858 52.1754C32.7481 51.9244 33.2038 51.6602 33.653 51.3927C32.594 54.801 31.5318 58.2389 30.9679 61.7628C30.44 65.0653 30.5548 68.3249 31.0564 71.6242C31.3744 73.7081 31.8072 75.7722 32.2662 77.8297H33.9415C33.135 74.2794 32.3514 70.6962 32.2399 67.0634C32.1678 64.6888 32.4531 62.453 32.935 60.194C34.1776 62.0897 35.4169 63.9854 36.6594 65.8843C36.8529 66.1816 37.0496 66.4788 37.243 66.776C37.4791 67.136 37.9774 67.3276 38.3643 67.0733C40.0363 65.9801 41.7084 64.8837 43.3772 63.7905C46.0394 62.0468 48.7015 60.3063 51.3604 58.5626C51.967 58.1663 52.5768 57.7667 53.1833 57.3704C53.603 57.0962 53.6358 56.6273 53.4587 56.2739L52.8522 56.8618L52.8555 56.8552Z" fill="var(--fill-0, #323232)"/>
<path id="Vector_42" d="M80.5205 69.1275C79.8845 66.2179 79.4091 63.1102 77.9764 60.4616C77.4125 59.4213 76.6715 58.4635 75.7863 57.6841C74.6913 56.7198 73.4389 56.089 72.157 55.4219C69.7439 54.1669 67.3932 52.793 65.1999 51.1781C64.7212 50.8247 64.3114 50.511 63.9081 50.1939C63.4622 49.8405 63.0196 49.4839 62.577 49.1272C61.5804 48.3214 60.5804 47.5255 59.5542 46.756C59.2821 46.5512 58.8887 46.6272 58.6264 46.8352C58.328 46.4488 57.6789 46.3663 57.3445 46.756C57.2723 46.8418 57.2068 46.9442 57.1707 47.0796C56.7183 48.8234 56.0822 50.5242 55.479 52.2184C55.0954 53.295 54.7052 54.3651 54.3118 55.4384C53.7348 57.0071 53.1545 58.5692 52.5676 60.1313C51.489 62.9979 50.394 65.8612 49.2924 68.7213C48.3875 71.0727 47.4761 73.4208 46.5581 75.7689C46.2925 76.4492 45.9941 77.1329 45.7188 77.8198H47.5056C47.6301 77.4961 47.758 77.1758 47.8859 76.8521C48.7547 74.6295 49.6202 72.4036 50.4792 70.1777C51.5742 67.3441 52.6594 64.5039 53.7348 61.6604C54.7577 58.9523 55.7741 56.2376 56.7543 53.513C57.4035 51.7131 58.0658 49.9066 58.6002 48.0638C58.6395 48.1034 58.6821 48.1397 58.728 48.1761C60.3607 49.4013 61.9672 50.7686 63.6295 52.04C65.5769 53.5328 67.6457 54.8439 69.7964 56.0229C71.1308 56.7561 72.5602 57.3638 73.8225 58.2224C74.7175 58.8334 75.5207 59.6392 76.1043 60.5243C77.6289 62.8328 78.0747 65.6796 78.6714 68.3382C79.373 71.4756 79.9894 74.6229 80.3599 77.8165H81.9992C81.6647 74.8904 81.15 72.0007 80.5205 69.1209V69.1275Z" fill="var(--fill-0, #323232)"/>
<path id="Vector_43" d="M64.3533 59.9859C64.0549 59.474 63.5435 59.1768 62.9763 58.9754C62.9828 58.9324 62.9894 58.8928 62.9927 58.8499C63.0517 56.9443 63.114 55.0387 63.173 53.1331C63.1828 52.859 63.1894 52.5849 63.1992 52.3108C63.2123 51.865 62.8123 51.4852 62.3796 51.4852C61.9239 51.4852 61.5731 51.8617 61.5599 52.3108C61.5009 54.2164 61.4386 56.122 61.3796 58.0275C61.3731 58.1993 61.3698 58.371 61.3632 58.5427C61.3304 58.5328 61.3009 58.5262 61.2681 58.5163C60.3436 58.2587 59.419 58.0044 58.4945 57.7468C57.4749 57.4628 57.0421 59.0579 58.0585 59.3386C58.7994 59.5434 59.5436 59.7515 60.2846 59.9562C61.0682 60.1742 61.8976 60.3327 62.6615 60.6167C62.8582 60.6894 62.8812 60.7951 62.9697 60.8941C62.9697 60.8941 62.9697 60.9635 62.9763 60.9965C62.9402 61.089 62.8943 61.1815 62.855 61.2706C62.6156 61.8189 62.3763 62.3671 62.137 62.912C60.4124 66.852 58.6879 70.7919 56.9601 74.7319C56.511 75.7623 56.0585 76.7893 55.6094 77.8197H57.3896C58.5601 75.148 59.7305 72.4762 60.901 69.8011C61.7665 67.8262 62.632 65.848 63.4976 63.8731C63.7533 63.2918 64.009 62.7073 64.2615 62.126C64.5664 61.4292 64.7827 60.7125 64.3565 59.9826L64.3533 59.9859Z" fill="var(--fill-0, #323232)"/>
<path id="Vector_44" d="M36.7328 51.6536C36.7163 51.68 36.7064 51.6965 36.7031 51.7064C36.7097 51.6899 36.7196 51.6767 36.7295 51.6602C36.7295 51.6602 36.7295 51.6569 36.7295 51.6536H36.7328Z" fill="var(--fill-0, #323232)"/>
<path id="Vector_45" d="M36.6251 51.825C36.6251 51.825 36.5983 51.8452 36.5781 51.872C36.5781 51.872 36.5815 51.872 36.5848 51.872C36.5949 51.8586 36.6117 51.8452 36.6251 51.8284V51.825Z" fill="var(--fill-0, #323232)"/>
<path id="Vector_46" d="M33.4741 31.2242C33.7364 31.5808 34.1822 31.7625 34.5953 31.5214C34.9461 31.3166 35.156 30.7519 34.8904 30.3919C34.4478 29.7908 33.8413 29.2856 33.4708 28.635C33.4708 28.635 33.3626 28.4104 33.3954 28.483C33.379 28.4467 33.3724 28.4335 33.3692 28.4269C33.3692 28.4269 33.3692 28.4203 33.3692 28.4038C33.3626 28.3509 33.32 28.4368 33.379 28.3344C33.3265 28.4302 33.4216 28.2882 33.4249 28.2882C33.7167 27.9282 34.1232 27.6508 34.474 27.3569C35.2052 26.7426 35.7068 26.0557 36.0379 25.1508C36.3723 24.2326 36.4871 23.2419 36.5953 22.2742C36.6444 21.8317 36.1822 21.4486 35.7756 21.4486C35.2904 21.4486 35.0052 21.8284 34.956 22.2742C34.8576 23.1494 34.7462 24.0873 34.3822 24.8965C33.979 25.7915 33.1528 26.2538 32.4708 26.911C31.7594 27.5946 31.543 28.4335 31.9922 29.3384C32.3495 30.0551 33.0511 30.6462 33.4806 31.2275L33.4741 31.2242Z" fill="var(--fill-0, #323232)"/>
<path id="Vector_47" d="M31.4442 18.123C31.4442 18.123 31.4375 18.123 31.4375 18.1263C31.4509 18.1263 31.4642 18.1197 31.4776 18.113C31.4675 18.1163 31.4575 18.1197 31.4442 18.123Z" fill="var(--fill-0, #323232)"/>
<path id="Vector_48" d="M42.8091 18.7304C42.8091 18.7304 42.8288 18.7337 42.8452 18.737C42.9271 18.7535 43.0091 18.7667 43.0911 18.7865C43.173 18.8063 43.2517 18.8294 43.3304 18.8559C43.3697 18.8691 43.4124 18.8856 43.4517 18.8988C43.6058 18.9847 43.7566 19.0672 43.9009 19.1729C44.2451 19.4338 44.832 19.239 45.0221 18.8757C45.2484 18.443 45.0943 18.0236 44.7271 17.7462C43.3304 16.6894 41.3436 17.0395 39.7863 17.4721C39.3732 17.5877 39.0781 18.0632 39.2125 18.4893C39.3502 18.9153 39.7765 19.1894 40.2223 19.0672C40.5699 18.9715 40.9174 18.8856 41.2715 18.8162C41.36 18.7997 41.4485 18.7832 41.537 18.77C41.5436 18.77 41.5633 18.7667 41.5829 18.7634C41.6092 18.7601 41.6452 18.7568 41.6518 18.7535C41.8387 18.7304 42.0288 18.7172 42.219 18.7139C42.3927 18.7105 42.5665 18.7139 42.7435 18.7271C42.7501 18.7271 42.7796 18.7271 42.8058 18.7271L42.8091 18.7304Z" fill="var(--fill-0, #323232)"/>
<path id="Vector_49" d="M41.6355 24.17C42.6912 24.17 42.6912 22.5187 41.6355 22.5187C40.5798 22.5187 40.5798 24.17 41.6355 24.17Z" fill="var(--fill-0, #323232)"/>
<path id="Vector_50" d="M32.3386 21.4452C31.283 21.4452 31.283 23.0964 32.3386 23.0964C33.3943 23.0964 33.3943 21.4452 32.3386 21.4452Z" fill="var(--fill-0, #323232)"/>
<path id="Vector_51" d="M54.2942 33.6054C54.245 33.6484 54.1532 33.6748 54.104 33.7111C54.0974 33.7144 54.0909 33.721 54.0843 33.7243C54.0679 33.7375 54.0483 33.7507 54.0351 33.7639C53.986 33.8102 53.9433 33.8564 53.8974 33.906C53.8843 33.9258 53.8712 33.9456 53.8581 33.9687C53.8253 34.0215 53.8024 34.0843 53.7696 34.1371C53.763 34.1536 53.7565 34.1735 53.7532 34.19C53.7434 34.2197 53.7368 34.2494 53.7302 34.2791C53.7237 34.3056 53.7204 34.3386 53.7139 34.3683C53.7139 34.4377 53.7073 34.507 53.7139 34.5797C53.7171 34.6061 53.7237 34.6391 53.7237 34.6523C53.7368 34.7052 53.7565 34.758 53.7729 34.8109C53.7794 34.8175 53.7893 34.8406 53.7991 34.8868C53.8155 34.9165 53.8319 34.9496 53.8516 34.9793C53.8647 35.0024 53.8811 35.0255 53.8974 35.0519C53.9466 35.1048 53.9925 35.1576 54.045 35.2039C54.0483 35.2072 54.0515 35.2105 54.0581 35.2138C54.0843 35.2336 54.1106 35.2534 54.1368 35.2666C54.186 35.2963 54.2417 35.3227 54.2909 35.3525C54.3204 35.3624 54.3499 35.3723 54.3794 35.3822C54.4155 35.3921 54.4548 35.402 54.4909 35.4119C54.4941 35.4119 54.5007 35.4119 54.5073 35.4119C54.5433 35.4119 54.5859 35.4185 54.5991 35.4185C54.6318 35.4185 54.6613 35.4185 54.6941 35.4185C54.7007 35.4185 54.7138 35.4185 54.7204 35.4185C54.7171 35.4119 54.74 35.4053 54.7991 35.4086C54.8646 35.3921 54.9302 35.3789 54.9958 35.3558C55.0187 35.3426 55.0482 35.3327 55.0581 35.326C55.1007 35.3029 55.1433 35.2732 55.1859 35.2501C55.2253 35.2072 55.2449 35.1906 55.2482 35.1939C55.2777 35.1708 55.3072 35.1444 55.3302 35.1213C55.3498 35.1015 55.3662 35.0817 55.3826 35.0618C55.422 35.0024 55.458 34.943 55.4908 34.8802C55.4908 34.8802 55.4908 34.8736 55.4941 34.8703C55.5039 34.8373 55.5203 34.8042 55.5269 34.7778C55.5433 34.7217 55.5498 34.649 55.5695 34.5896C55.5695 34.5533 55.5728 34.5202 55.5728 34.4839C55.5728 34.4443 55.5662 34.4079 55.5662 34.3683C55.5531 34.3023 55.5433 34.2395 55.5236 34.1735C55.517 34.1569 55.5138 34.1404 55.5072 34.1239C55.4974 34.1008 55.4843 34.0744 55.4777 34.0645C55.4548 34.0215 55.4285 33.9786 55.4023 33.9357C55.363 33.8993 55.3433 33.8762 55.3433 33.8729C55.3105 33.8333 55.2744 33.7904 55.2384 33.7573C55.2351 33.754 55.2318 33.7507 55.2285 33.7474C55.2089 33.7342 55.1892 33.7177 55.1695 33.7045C55.1105 33.6682 55.0417 33.6384 54.9826 33.6021C54.9663 33.5955 54.9499 33.5889 54.9302 33.5856C54.9007 33.5757 54.8712 33.5691 54.8417 33.5625C54.8286 33.5625 54.7827 33.5493 54.7466 33.546C54.7433 33.546 54.7368 33.546 54.7368 33.546C54.6614 33.5427 54.5696 33.5592 54.4909 33.5559C54.4548 33.5658 54.4155 33.5724 54.3794 33.5823C54.3532 33.5889 54.3237 33.5988 54.2974 33.6087L54.2942 33.6054Z" fill="var(--fill-0, white)"/>
<path id="Vector_52" d="M53.7822 34.8611C53.7822 34.8611 53.7889 34.8711 53.7922 34.8778C53.7856 34.8577 53.7789 34.8344 53.7722 34.811C53.7622 34.801 53.7622 34.8243 53.7822 34.8611Z" fill="var(--fill-0, white)"/>
<path id="Vector_53" d="M53.7977 34.9262C53.7977 34.9262 53.7911 34.8999 53.7878 34.8867C53.7878 34.8834 53.7845 34.8768 53.7813 34.8735C53.7878 34.89 53.7944 34.9064 53.7977 34.9262Z" fill="var(--fill-0, white)"/>
<path id="Vector_54" d="M55.4207 33.962C55.4207 33.962 55.4006 33.9386 55.3906 33.9286C55.3906 33.9286 55.394 33.9353 55.3973 33.9386C55.4073 33.9486 55.4107 33.952 55.424 33.962H55.4207Z" fill="var(--fill-0, white)"/>
<path id="Vector_55" d="M55.1484 35.2767C55.1484 35.2767 55.1718 35.2566 55.1818 35.2433C55.1818 35.2433 55.1751 35.2466 55.1718 35.25C55.1618 35.26 55.1585 35.2633 55.1484 35.2767Z" fill="var(--fill-0, white)"/>
<path id="Vector_56" d="M55.183 35.2431C55.2192 35.2233 55.2357 35.2003 55.2324 35.1937C55.2126 35.2102 55.1962 35.2266 55.1797 35.2431H55.183Z" fill="var(--fill-0, white)"/>
<path id="Vector_57" d="M55.3854 33.9254C55.3623 33.8859 55.3392 33.8694 55.3359 33.876C55.3524 33.8958 55.3722 33.9122 55.3887 33.9287C55.3887 33.9287 55.3887 33.9287 55.3887 33.9254H55.3854Z" fill="var(--fill-0, white)"/>
<path id="Vector_58" d="M54.7577 35.4214C54.7577 35.4214 54.771 35.418 54.7777 35.4147C54.7543 35.4147 54.7343 35.4147 54.7109 35.4214C54.7109 35.4247 54.7276 35.428 54.7577 35.4214Z" fill="var(--fill-0, white)"/>
<path id="Vector_59" d="M54.8262 35.4117C54.8262 35.4117 54.7998 35.4117 54.7899 35.4117C54.7833 35.4117 54.78 35.4117 54.7734 35.415C54.7932 35.415 54.8097 35.4117 54.8262 35.415V35.4117Z" fill="var(--fill-0, white)"/>
<path id="Vector_60" d="M53.7854 34.8762C53.7854 34.8762 53.7887 34.8861 53.792 34.8894C53.7821 34.8432 53.7722 34.8202 53.7656 34.8136C53.7722 34.8333 53.7788 34.8564 53.7854 34.8795V34.8762Z" fill="var(--fill-0, #323232)"/>
<path id="Vector_61" d="M55.1797 35.2499C55.1797 35.2499 55.1863 35.2466 55.1896 35.2432C55.2062 35.2266 55.2228 35.2101 55.2427 35.1935C55.2427 35.1868 55.2195 35.2067 55.1797 35.2499Z" fill="var(--fill-0, #323232)"/>
<path id="Vector_62" d="M54.7109 35.4215C54.734 35.4215 54.7538 35.4182 54.7769 35.4149C54.7835 35.4149 54.7867 35.4149 54.7933 35.4116C54.734 35.4083 54.7076 35.4149 54.7142 35.4215H54.7109Z" fill="var(--fill-0, #323232)"/>
<path id="Vector_63" d="M55.3957 33.9391C55.3957 33.9391 55.3924 33.9325 55.389 33.9291C55.3724 33.9126 55.3525 33.896 55.3359 33.876C55.3359 33.8794 55.3525 33.9026 55.3957 33.9391Z" fill="var(--fill-0, #323232)"/>
<path id="Vector_64" d="M48.5525 41.6799C48.4443 41.2836 47.9591 40.9401 47.5427 41.102C46.2608 41.6073 44.969 42.0861 43.674 42.5518C42.6773 42.9085 41.6774 43.2552 40.6643 43.5624C39.6807 43.8629 38.7103 44.1436 37.6775 44.1965C35.3858 44.312 33.163 43.5393 31.586 41.8285C29.7369 39.8239 28.9271 36.8846 28.7042 34.2194C28.5665 32.588 28.5992 30.9499 28.8386 29.3284C29.0615 27.8257 29.35 26.3329 29.3271 24.8072C29.3205 24.2986 28.9369 24.0344 28.5435 24.0145C28.455 24.7378 28.2976 25.4446 27.9993 26.115C28.2943 25.4446 28.455 24.7378 28.5435 24.0145C28.1173 23.9914 27.678 24.2556 27.6878 24.8072C27.7075 26.1678 27.4649 27.4888 27.2649 28.8264C27.0321 30.3852 26.9305 31.9341 27.0124 33.5094C27.1665 36.5114 27.9042 39.7017 29.7271 42.1456C31.2778 44.2262 33.5269 45.501 36.0809 45.7982C36.0055 45.9666 35.9793 46.1582 36.0416 46.3398C36.2383 46.931 36.3956 47.5386 36.5366 48.1463C36.5858 48.361 36.6284 48.5723 36.671 48.7903C36.7825 48.6285 36.8579 48.4535 36.8579 48.2454C36.8579 48.4535 36.7858 48.6285 36.671 48.7903C36.6809 48.8399 36.694 48.8894 36.7005 48.9389C36.7137 49.0116 36.7268 49.0842 36.7366 49.1569C37.0251 48.8828 37.2874 48.5856 37.5103 48.2487C37.2874 48.5856 37.0218 48.8828 36.7366 49.1569C36.7497 49.2263 36.7628 49.2989 36.7727 49.3683C36.7825 49.4343 36.7923 49.5004 36.8022 49.5697C36.8022 49.5796 36.8022 49.5862 36.8055 49.5928C36.8055 49.606 36.8055 49.6226 36.812 49.6523C36.871 50.184 36.8677 50.6992 36.8481 51.2309C36.8481 51.2474 36.8448 51.2672 36.8382 51.287C36.8284 51.3465 36.8153 51.4092 36.7989 51.4687C36.7858 51.5248 36.7661 51.581 36.7497 51.6404C36.7464 51.6503 36.7432 51.6569 36.7399 51.6668C36.7464 51.6602 36.7464 51.6536 36.753 51.647C36.7464 51.6536 36.7432 51.6635 36.7366 51.6734C36.7202 51.7197 36.7071 51.7329 36.7104 51.7197C36.694 51.7494 36.6809 51.7791 36.6678 51.8055C36.6579 51.8122 36.6481 51.8221 36.635 51.8353C36.6514 51.8254 36.6481 51.8419 36.5956 51.8782C36.5858 51.8881 36.5792 51.898 36.576 51.9046C36.5792 51.8947 36.5858 51.8881 36.5891 51.8815C36.5825 51.8848 36.576 51.8881 36.5694 51.8947C35.6547 52.4198 36.4776 53.8498 37.3956 53.3214C38.471 52.7038 38.5726 51.2639 38.4972 50.1543C38.4152 48.972 38.1628 47.7962 37.8448 46.6569C37.7759 46.4059 37.7038 46.1582 37.6218 45.9105C37.6153 45.894 37.6054 45.8775 37.5989 45.861C39.4578 45.7685 41.2512 45.1509 43.0117 44.5465C44.6805 43.9719 46.3362 43.3576 47.9755 42.7136C48.3886 42.5518 48.6738 42.1588 48.5492 41.6964L48.5525 41.6799ZM36.8481 51.2144C36.8546 51.1582 36.8514 51.1351 36.8481 51.2144Z" fill="var(--fill-0, #323232)"/>
<path id="Vector_65" d="M54.0007 3.95465C50.7779 1.80139 46.8567 0.896487 43.0208 1.37536C39.1882 1.85423 35.6015 3.51541 32.6508 6.01215C31.0082 7.40252 29.5952 9.06371 28.4772 10.9065C28.1067 11.5142 28.6215 12.0855 29.1657 12.1252C29.3067 11.9402 29.4608 11.7553 29.6378 11.577C29.4608 11.7553 29.3067 11.9369 29.1657 12.1252C29.4345 12.145 29.7099 12.0393 29.8903 11.7388C33.4573 5.85692 40.6341 1.88395 47.5354 3.09599C49.5615 3.45266 51.4565 4.23207 53.1712 5.37475C53.4433 5.55639 53.7122 5.54648 53.9253 5.42429C54.4007 5.15678 54.6039 4.35096 54.0007 3.94805V3.95465Z" fill="var(--fill-0, #323232)"/>
<path id="Vector_66" d="M54.7031 6.50471C54.7949 6.67644 54.9556 6.82175 55.1359 6.90432C54.9752 6.78873 54.8343 6.65332 54.7031 6.50471Z" fill="var(--fill-0, #323232)"/>
<path id="Vector_67" d="M65.3786 25.1208C64.9918 23.5059 64.5787 21.8975 64.1787 20.2859C63.7656 18.6214 63.3492 16.9569 62.9361 15.2924C62.5591 13.7732 62.2411 12.221 61.7493 10.7349C61.2444 9.19588 60.4215 7.90458 59.2674 6.78171C58.2249 5.76783 56.72 4.74734 55.2151 5.33519C54.802 5.49702 54.5168 5.89002 54.6414 6.35238C54.6545 6.40522 54.6775 6.45476 54.7037 6.5043C54.8348 6.64961 54.9758 6.78501 55.1365 6.90391C55.3004 6.97656 55.4774 6.99638 55.6479 6.93033C56.6282 6.54723 57.5757 7.4158 58.2412 8.08622C59.1494 9.00103 59.7887 10.0083 60.1887 11.2435C60.6379 12.6338 60.9395 14.0804 61.2936 15.4972C61.6739 17.0295 62.0575 18.5619 62.4378 20.0943C62.8247 21.6531 63.2148 23.2119 63.6017 24.7707C63.9426 26.1413 64.2869 27.5251 64.3852 28.9386C64.477 30.2662 64.3623 31.6334 63.7656 32.8389C63.2148 33.9485 62.3788 34.8633 61.4509 35.6626C59.6182 37.2478 57.438 38.3673 55.5528 39.87C55.8315 39.3614 56.1397 38.8726 56.4839 38.407C56.4905 38.4004 56.4938 38.3938 56.5003 38.3872C56.5397 38.3376 56.5757 38.2914 56.6151 38.2419C56.6872 38.1527 56.7593 38.0635 56.8347 37.9776C56.9921 37.7927 57.156 37.6144 57.3233 37.4393C57.6675 37.0827 58.038 36.7491 58.4216 36.4387C58.7593 36.1678 58.7232 35.5503 58.4216 35.2696C58.0642 34.9393 57.6216 34.9789 57.261 35.2696C57.1692 35.3422 57.0839 35.4215 56.9954 35.4974C57.1659 35.111 57.2413 34.6784 57.1856 34.2392C57.179 34.1896 57.1724 34.1434 57.1626 34.0971C57.1626 34.0707 57.1626 34.0476 57.156 34.0212C58.4511 32.8455 59.3953 31.3296 59.51 29.4934C59.6051 27.994 59.0543 26.1644 57.7855 25.2793C57.2478 24.9028 56.6151 24.7806 55.9823 24.8104C55.884 24.1399 54.8807 23.737 54.4644 24.4867C54.1988 24.9689 53.9136 25.4411 53.6218 25.9068C53.3005 23.8856 52.3923 21.9669 51.0252 20.4345C50.8284 20.2132 50.5957 20.1505 50.3793 20.1835C47.2745 18.159 45.8713 14.3545 45.2025 10.8141C44.9992 9.7408 44.868 8.66747 44.7861 7.57763C44.7533 7.13178 44.432 6.75199 43.9664 6.75199C43.9501 6.75199 43.9337 6.75529 43.9173 6.75859C43.8353 6.70245 43.7402 6.65621 43.6222 6.62979C40.8125 5.9957 38.1142 6.97987 35.7045 8.39336C33.5603 9.65163 31.5703 11.2534 30.1113 13.2944C29.3179 14.4007 28.7245 15.6689 28.4425 17.0064C28.3507 17.4424 28.5769 17.7693 28.8851 17.9311C28.9802 17.4589 29.1146 16.9932 29.3113 16.5441C29.1146 16.9932 28.9802 17.4556 28.8851 17.9311C29.2195 18.1062 29.6556 18.0798 29.8851 17.766C29.9113 17.9477 29.9834 18.1227 30.1113 18.2383C30.4523 18.552 30.8916 18.5355 31.2391 18.2614C31.2621 18.2614 31.3276 18.2019 31.3539 18.1854C31.3834 18.1689 31.4096 18.1524 31.4391 18.1359C31.4326 18.1359 31.426 18.1359 31.4194 18.1359C31.4293 18.1359 31.4391 18.1293 31.449 18.1293C31.5309 18.0864 31.5178 18.1029 31.4817 18.1194C31.5276 18.1029 31.5768 18.0831 31.6194 18.0731C31.6489 18.0665 31.6784 18.0599 31.708 18.0533C31.7768 18.0533 31.8457 18.0434 31.9178 18.0467C31.9538 18.0467 31.9866 18.0467 32.0227 18.05C32.0325 18.05 32.0915 18.0566 32.1178 18.0599C32.1571 18.0665 32.1932 18.0731 32.2325 18.0831C32.3145 18.0996 32.3932 18.1227 32.4719 18.1458C32.544 18.1656 32.6128 18.192 32.685 18.2152C32.7309 18.2317 32.7735 18.2482 32.8161 18.2647C32.8292 18.268 32.8292 18.2713 32.8391 18.2713C32.9768 18.3241 33.1145 18.4001 33.239 18.4695C33.5243 18.6214 33.7997 18.7931 34.0652 18.9747C34.4226 19.2158 34.9898 19.0573 35.1865 18.6775C35.4062 18.2614 35.2717 17.8056 34.8914 17.548C34.2357 17.1055 33.5144 16.6993 32.744 16.5077C32.2817 16.3921 31.8293 16.369 31.3604 16.4417C30.8883 16.5176 30.4785 16.7521 30.1146 17.0593C30.6293 15.0909 31.8817 13.4529 33.3735 12.0988C34.1931 11.3558 35.0849 10.7051 36.0192 10.1206C36.9536 9.53935 37.9339 8.97791 38.9699 8.60142C40.3207 8.11264 41.7731 7.89137 43.1894 8.21172C43.196 8.21172 43.1993 8.21172 43.2058 8.21172C43.5796 12.2937 44.6156 16.6101 47.3663 19.7343C48.1663 20.6425 49.1269 21.412 50.1924 21.9768C51.612 23.7668 52.2743 26.0719 52.0874 28.3573C52.0317 29.031 53.0546 29.5033 53.4873 28.9419C54.0513 28.2087 54.5791 27.4491 55.0742 26.6697C55.084 26.6697 55.0971 26.6664 55.107 26.6631C55.3463 26.5772 55.6741 26.4748 55.8807 26.4517C55.9758 26.4385 56.0741 26.4385 56.1692 26.4385C56.1987 26.4385 56.4282 26.4649 56.4151 26.4583C56.7331 26.5211 56.8806 26.607 57.0839 26.8084C57.1003 26.8249 57.2019 26.9405 57.2216 26.957C57.2708 27.0231 57.3167 27.0924 57.3593 27.1618C57.3987 27.2245 57.4314 27.2906 57.4675 27.3533C57.4773 27.3731 57.5331 27.4953 57.5528 27.5317C57.6708 27.8256 57.756 28.1393 57.8183 28.4498C58.1331 30.035 57.4216 31.432 56.3299 32.5284C56.0086 32.2444 55.6282 32.0364 55.2151 31.9505C54.1365 31.7292 53.0349 32.1784 52.4481 33.1295C51.8612 34.0839 52.0022 35.2927 52.6841 36.148C53.3169 36.9406 54.4775 37.2742 55.4348 36.9439C55.5037 36.9208 55.5692 36.8944 55.6348 36.8647C54.8119 37.829 54.1332 38.9156 53.6382 40.0781C53.5759 40.2267 53.5398 40.3918 53.5464 40.5536C53.1333 40.6956 52.9267 41.1316 53.0185 41.551C53.4546 43.5392 53.8873 45.5273 54.3234 47.5154C54.3857 47.7994 54.448 48.0802 54.5103 48.3642C54.6053 48.8001 55.107 49.0544 55.5201 48.9421C55.9659 48.8199 56.1889 48.3642 56.0938 47.9249C55.9528 47.2809 55.8118 46.6402 55.6709 45.9962C55.4217 44.8536 55.1725 43.7142 54.9234 42.5715C55.0447 42.5352 55.166 42.4691 55.2742 42.3502C57.2806 40.2333 59.9756 38.9816 62.2247 37.1586C63.3033 36.2867 64.2967 35.2662 64.9918 34.0542C65.7458 32.7398 66.077 31.2404 66.077 29.7279C66.077 28.1691 65.7622 26.6202 65.4016 25.1109L65.3786 25.1208ZM31.2686 18.2284C31.3604 18.1491 31.2686 18.2482 31.2358 18.2515C31.2457 18.2416 31.2588 18.2383 31.2686 18.2284ZM56.5003 38.3872C56.5364 38.3409 56.5233 38.3541 56.5003 38.3872ZM55.5594 34.5892C55.543 34.6487 55.5364 34.718 55.5168 34.7775C55.5069 34.8039 55.4938 34.8402 55.484 34.8699C55.484 34.8699 55.484 34.8765 55.4807 34.8798C55.4479 34.9426 55.4086 35.002 55.3725 35.0615C55.3561 35.0813 55.3365 35.1011 55.3201 35.1209C55.2971 35.1474 55.2676 35.1705 55.2381 35.1936C55.2381 35.2002 55.2217 35.2233 55.1889 35.2431C55.1791 35.253 55.166 35.2629 55.1561 35.2762C55.166 35.2629 55.1725 35.2596 55.1791 35.2497C55.1365 35.2762 55.0971 35.3026 55.0512 35.3257C55.0414 35.3323 55.0119 35.3422 54.9889 35.3554C54.9234 35.3785 54.8578 35.3917 54.7922 35.4083C54.8053 35.4083 54.8152 35.4083 54.8283 35.4083C54.8119 35.4083 54.7955 35.4083 54.7758 35.4083C54.7693 35.4083 54.7627 35.4116 54.7562 35.4149C54.7266 35.4215 54.7135 35.4182 54.7103 35.4149C54.7004 35.4149 54.6906 35.4149 54.684 35.4149C54.6512 35.4149 54.6217 35.4149 54.5889 35.4149C54.5758 35.4149 54.5332 35.4116 54.4971 35.4083C54.4906 35.4083 54.484 35.4083 54.4807 35.4083C54.4414 35.3984 54.4053 35.3917 54.3693 35.3785C54.3398 35.3686 54.3103 35.3587 54.2808 35.3488C54.2283 35.3191 54.1758 35.296 54.1267 35.2629C54.1037 35.2464 54.0775 35.2266 54.048 35.2101C54.0447 35.2068 54.0414 35.2035 54.0349 35.2002C53.9824 35.1507 53.9365 35.1011 53.8873 35.0483C53.8742 35.0252 53.8578 35.002 53.8414 34.9756C53.8218 34.9459 53.8054 34.9129 53.789 34.8832C53.789 34.8964 53.7955 34.9063 53.7988 34.9228C53.7955 34.9063 53.789 34.8898 53.7824 34.8699C53.7824 34.8633 53.7759 34.86 53.7726 34.8534C53.7529 34.8204 53.7529 34.794 53.7628 34.8039C53.7431 34.7511 53.7234 34.6982 53.7136 34.6454C53.7136 34.6355 53.707 34.5991 53.7037 34.5727C53.7005 34.5034 53.7037 34.434 53.7037 34.3613C53.7103 34.3316 53.7136 34.2986 53.7201 34.2722C53.7267 34.2425 53.7365 34.2127 53.7431 34.183C53.7496 34.1665 53.7562 34.1467 53.7595 34.1302C53.7923 34.0773 53.8152 34.0113 53.848 33.9617C53.8611 33.9419 53.8742 33.9221 53.8873 33.899C53.9332 33.8528 53.9759 33.8032 54.025 33.757C54.0414 33.7438 54.0578 33.7306 54.0742 33.7174C54.0808 33.714 54.0873 33.7074 54.0939 33.7041C54.1463 33.6711 54.2381 33.6414 54.284 33.5985C54.3103 33.5886 54.3398 33.5819 54.366 33.572C54.4021 33.5621 54.4381 33.5555 54.4775 33.5456C54.5562 33.5489 54.648 33.5324 54.7234 33.5357C54.7234 33.5357 54.7299 33.5357 54.7332 33.5357C54.7693 33.5423 54.8152 33.5489 54.8283 33.5522C54.8578 33.5588 54.8873 33.5687 54.9168 33.5753C54.9332 33.5819 54.9529 33.5852 54.9693 33.5919C55.0283 33.6282 55.1004 33.6579 55.1561 33.6942C55.1758 33.7074 55.1955 33.7207 55.2151 33.7372C55.2184 33.7405 55.2217 33.7438 55.225 33.7471C55.261 33.7801 55.2971 33.823 55.3299 33.8627C55.3299 33.8561 55.3561 33.8726 55.3791 33.9122C55.3791 33.9122 55.3791 33.9122 55.3791 33.9155C55.3889 33.9254 55.3987 33.9386 55.4086 33.9485C55.3955 33.9386 55.3922 33.9353 55.3824 33.9254C55.4086 33.9683 55.4348 34.008 55.4578 34.0542C55.4643 34.0641 55.4742 34.0905 55.4873 34.1137C55.4938 34.1302 55.4971 34.1467 55.5037 34.1632C55.5233 34.2259 55.5332 34.292 55.5463 34.358C55.5463 34.3977 55.5528 34.434 55.5528 34.4736C55.5528 34.51 55.5528 34.543 55.5496 34.5793L55.5594 34.5892Z" fill="var(--fill-0, #323232)"/>
<path id="Vector_68" d="M6.21094 46.4287C6.24788 46.4287 6.23445 46.4287 6.21094 46.4287Z" fill="var(--fill-0, #323232)"/>
<path id="Vector_69" d="M19.494 7.39607C19.494 7.39607 19.4876 7.39607 19.4844 7.39607C19.4876 7.39607 19.4908 7.39607 19.494 7.39607Z" fill="var(--fill-0, #323232)"/>
<path id="Vector_70" d="M14.9252 29.7477C14.9252 29.7477 14.9555 29.7477 14.9723 29.7477C14.9622 29.7477 14.9454 29.7477 14.9219 29.7444L14.9252 29.7477Z" fill="var(--fill-0, #323232)"/>
<path id="Vector_71" d="M16.6098 23.4929C16.577 21.4949 17.0622 19.51 17.5835 17.5549C18.1179 15.5404 18.7343 13.4928 19.7605 11.6962C20.2883 10.7748 18.872 9.93924 18.3441 10.864C17.2458 12.786 16.5672 14.9855 16 17.119C15.4557 19.1699 14.9345 21.3595 14.9705 23.4962C14.9869 24.5563 16.6262 24.5597 16.6098 23.4962V23.4929Z" fill="var(--fill-0, #323232)"/>
<path id="Vector_72" d="M19.7658 61.6501C19.6117 61.4585 19.3789 61.3264 19.133 61.3066C19.0576 62.1521 18.9757 62.9942 18.8216 63.7637C18.9757 62.9942 19.0543 62.1521 19.133 61.3066C18.933 61.2901 18.7199 61.3462 18.5298 61.518C16.7167 63.1461 14.6971 64.6917 12.2481 65.1343C10.1006 65.5207 7.24501 64.946 6.37947 62.6442C6.2221 62.228 5.8254 61.9407 5.36968 62.0662C5.20903 62.1091 5.0615 62.2181 4.95003 62.3535C4.79921 62.3998 4.66151 62.4922 4.5566 62.6309C4.28776 63.5358 4.0517 64.4738 3.74024 65.4117C4.0517 64.4738 4.28776 63.5325 4.5566 62.6309C4.50086 62.7036 4.45169 62.7829 4.4189 62.8852C3.14027 66.7955 1.86163 70.7057 0.583 74.6159C0.402679 75.1608 0.225638 75.7091 0.0453177 76.254C-0.11861 76.7527 0.186295 77.1093 0.573164 77.2249C0.973147 77.3438 1.45837 77.2018 1.62558 76.6932C2.90421 72.783 4.18284 68.8728 5.46148 64.9625C5.51066 64.8172 5.55656 64.6686 5.60573 64.5233C6.67782 65.8939 8.34332 66.67 10.1301 66.8417C12.4382 67.0663 14.6906 66.3265 16.6217 65.088C17.1233 64.7677 17.6052 64.4143 18.0741 64.0444C17.8544 65.0616 17.6347 66.0788 17.4151 67.0993C16.8348 69.7744 16.2577 72.4527 15.6774 75.1278C15.5463 75.7421 15.4119 76.3531 15.2807 76.9673C15.1988 77.3471 15.3594 77.6444 15.6053 77.8194H16.6315C16.7397 77.7236 16.8216 77.5882 16.861 77.4066C17.2249 75.7256 17.5888 74.0479 17.9495 72.3669C18.5298 69.6918 19.1068 67.0134 19.6871 64.3384C19.8182 63.7241 19.9527 63.1131 20.0838 62.4988C20.1658 62.1223 20.0084 61.8251 19.7625 61.6501H19.7658Z" fill="var(--fill-0, #323232)"/>
<path id="Vector_73" d="M15.6016 77.8227C15.9097 78.044 16.3524 78.0737 16.6277 77.8227H15.6016Z" fill="var(--fill-0, #323232)"/>
<path id="Vector_74" d="M18.9819 57.8025C18.9786 57.8255 18.972 57.8518 18.9688 57.8748C19.0409 57.8189 19.1163 57.7664 19.1917 57.7139C19.1196 57.7336 19.0507 57.7598 18.9819 57.8025Z" fill="var(--fill-0, #323232)"/>
<path id="Vector_75" d="M19.1971 57.7139C19.1217 57.7667 19.0463 57.8196 18.9741 57.8757C18.82 58.7608 18.6299 59.636 18.4922 60.455C18.7577 60.2271 19.0233 59.9993 19.2823 59.7648C19.3348 59.3222 19.3938 58.8896 19.4758 58.4801C19.3938 58.8929 19.3315 59.3255 19.2823 59.7648C19.5249 59.5435 19.761 59.3222 19.997 59.0911C20.6396 58.4603 19.8987 57.5257 19.1971 57.7139Z" fill="var(--fill-0, #323232)"/>
<path id="Vector_76" d="M27.3757 10.8707C27.1593 9.78411 26.7725 8.57208 25.9397 7.79928C25.2938 7.20152 24.3955 7.05951 23.5791 6.83163C22.7005 6.58724 21.8218 6.33955 20.9432 6.09516C20.858 6.07204 20.7793 6.06544 20.7039 6.06544C19.9793 5.67904 19.1269 5.66252 18.2777 6.10176C16.8614 6.83493 15.8778 8.40365 15.1434 9.7643C14.0058 11.868 13.2157 14.1732 12.6452 16.4916C12.0255 19.0015 11.6387 21.6073 11.6354 24.1998C11.6354 26.0393 11.7731 28.077 12.6452 29.7349C13.1075 30.6166 13.9107 31.297 14.8484 31.3927C14.7271 31.4918 14.6353 31.6272 14.5959 31.7956C14.3828 32.7072 14.173 33.6187 13.9599 34.5269C13.6288 34.2032 13.2943 33.8763 12.9698 33.546C12.5042 33.0737 12.1108 32.5949 11.4944 32.3208C10.8617 32.0367 10.1273 31.8155 9.42894 31.9608C8.78962 32.0962 8.40931 32.7038 8.09457 33.2323C7.90113 33.5559 7.71753 33.9225 7.69786 34.3056C7.67491 34.7382 7.8454 35.2171 7.99621 35.6167C8.20604 36.1748 8.45848 36.7363 8.79618 37.2283C9.00272 37.5322 9.36009 37.694 9.70433 37.6081C9.77646 37.5916 9.84859 37.5652 9.91744 37.5256C10.2781 37.3142 10.465 36.766 10.2125 36.3961C10.0387 36.1385 9.88793 35.8644 9.75351 35.5837C9.64204 35.3525 9.54696 35.1147 9.47156 34.867C9.42566 34.7184 9.38631 34.5698 9.35353 34.4179C9.35353 34.4047 9.35353 34.3882 9.34697 34.3882C9.34697 34.3848 9.34697 34.3815 9.34697 34.3782C9.45844 34.1867 9.55352 33.9885 9.68138 33.8036C9.73384 33.7243 9.80597 33.6451 9.85842 33.5592C9.90105 33.5592 10.042 33.5691 10.0453 33.5658C10.2945 33.6021 10.5535 33.6814 10.783 33.7838C10.7436 33.7673 10.9305 33.863 10.9633 33.8829C10.9961 33.9027 11.1338 33.9985 11.1207 33.9786C11.337 34.1702 11.5239 34.408 11.7272 34.6127C12.1796 35.0784 12.6452 35.5242 13.1075 35.9767C14.0419 36.8915 14.9631 37.8261 15.7008 38.9127C15.809 39.0712 15.9139 39.233 16.0155 39.3981C16.0254 39.4113 16.0352 39.4312 16.0418 39.4444C16.0614 39.5699 16.1139 39.6755 16.1827 39.7713C16.1729 39.8671 16.1303 39.986 16.0516 40.1247C15.8057 40.5507 15.4352 40.8281 14.9828 40.8876C14.8451 40.9074 14.7303 40.9801 14.6353 41.0758C13.9304 40.3261 13.2386 39.5533 12.4649 38.8829C11.9895 38.4734 11.4387 38.0144 10.8059 37.8856C10.4748 37.8195 10.1666 37.8723 9.87482 37.9945C10.0781 38.4734 10.2912 38.9589 10.5502 39.4906C10.5666 39.4873 10.5666 39.4906 10.5502 39.4939C10.5568 39.5071 10.56 39.517 10.5666 39.5302C10.5895 39.5434 10.619 39.56 10.6354 39.5699C11.0912 39.8473 11.4682 40.1775 11.8551 40.5606C12.7206 41.4193 13.5337 42.3275 14.3959 43.1895C14.8877 43.6782 15.3828 44.1637 15.8811 44.6459C16.2614 45.0125 16.4844 45.488 16.2909 45.9438C16.2909 45.9438 16.2909 45.9471 16.2877 45.9504C16.2713 45.9669 16.2024 46.0231 16.1893 46.0396C16.1565 46.0594 16.009 46.1453 15.9467 46.1816C15.7434 46.2972 15.527 46.3896 15.3336 46.5217C15.2811 46.5581 15.2287 46.5977 15.1828 46.6406C14.3271 45.739 13.5107 44.7978 12.678 43.8797C11.7993 42.9087 10.819 41.5547 9.35353 41.6538C9.29779 41.6571 9.24534 41.667 9.19288 41.6736C9.13714 41.2046 9.27156 40.7918 9.51418 40.412C9.71745 40.0917 10.0519 39.7878 10.324 39.6194C10.383 39.5831 10.4453 39.55 10.5076 39.5137C10.5305 39.5203 10.5535 39.5236 10.5699 39.5302C10.5633 39.517 10.56 39.5071 10.5535 39.4939C10.5469 39.4939 10.5404 39.4972 10.5305 39.5005C10.5371 39.5005 10.5371 39.4972 10.5404 39.4939C10.5436 39.4939 10.5469 39.4939 10.5502 39.4939C10.2912 38.9589 10.0781 38.4734 9.87482 37.9978C9.71417 38.0639 9.56336 38.1531 9.41254 38.2521C8.07817 39.1504 7.3405 40.6069 7.62573 42.2251C7.63557 42.2912 7.6618 42.3473 7.6913 42.4035C7.04543 43.0177 6.63889 43.9193 6.33399 44.778C6.12088 44.7681 5.9045 44.7879 5.69467 44.8573C5.02584 45.0818 4.59963 45.6862 4.25211 46.2707C3.8718 46.9081 3.45542 47.4696 3.27182 48.2093C3.10789 48.8699 3.11117 49.5535 3.25871 50.2173C3.53083 51.4525 4.28817 52.5324 5.0029 53.5463C5.41599 54.1341 5.83893 54.7154 6.2094 55.3363C6.39628 55.65 6.5766 55.9737 6.71758 56.3105C6.73725 56.3534 6.80938 56.5549 6.84544 56.6606C6.87167 56.7398 6.89134 56.8257 6.91757 56.905C6.89462 57.6381 6.81593 58.3713 6.7602 59.1045C6.7143 59.1078 6.66512 59.1144 6.61594 59.1276C6.37005 59.1936 6.14711 59.4116 6.04875 59.6659C6.26186 59.6989 6.47824 59.9103 6.69135 60.125C6.47824 59.9103 6.26186 59.6956 6.04875 59.6659C5.98974 59.8178 5.9799 59.9863 6.0422 60.1448C6.53726 61.413 7.22903 62.5953 8.36341 63.378C9.2355 63.979 10.3338 64.2168 11.3797 64.1277C13.6386 63.9295 15.6975 62.6613 17.4548 61.3007C17.8089 61.0266 18.1531 60.7425 18.4941 60.4552C18.6285 59.6362 18.8187 58.761 18.9761 57.8759C18.3859 58.3251 17.8778 58.8502 17.5106 59.4678C17.8778 58.8502 18.3826 58.3251 18.9761 57.8759C18.9793 57.8528 18.9859 57.8264 18.9892 57.8033C18.9367 57.8363 18.8875 57.8759 18.8384 57.9222C17.4679 59.2663 16.127 60.3859 14.4713 61.337C13.596 61.839 12.8649 62.1858 11.8715 62.3971C11.7665 62.4202 11.6616 62.4401 11.5534 62.4566C11.5436 62.4566 11.537 62.4566 11.5272 62.4599C11.478 62.4665 11.4288 62.4698 11.3764 62.4764C11.1436 62.4929 10.9108 62.5028 10.6781 62.4863C10.6518 62.4863 10.4945 62.4665 10.4715 62.4665C10.3863 62.4533 10.3043 62.4368 10.2223 62.4169C10.1109 62.3905 10.0027 62.3608 9.89449 62.3245C9.84531 62.308 9.79941 62.2914 9.75023 62.2716C9.7404 62.2683 9.73384 62.265 9.73056 62.265C9.724 62.2617 9.71417 62.2551 9.70105 62.2485C9.19288 62.0008 8.94371 61.8027 8.56668 61.3634C8.27816 61.0299 8.00932 60.5708 7.79294 60.1051C8.13063 60.0028 8.35029 59.6857 8.37652 59.3191C8.4257 58.6157 8.47816 57.909 8.52733 57.2055C8.59618 56.2412 8.10112 55.3164 7.6159 54.504C7.02248 53.5099 6.28809 52.605 5.67172 51.6275C5.11109 50.7424 4.67176 49.8804 4.79307 48.893C4.8029 48.8137 4.88815 48.4669 4.96027 48.282C5.05535 48.0376 5.22584 47.7536 5.38976 47.5158C5.57336 47.2483 5.73073 46.961 5.92417 46.7001C5.91433 46.7133 6.04875 46.5515 6.08482 46.5184C6.09137 46.5118 6.11104 46.4887 6.12416 46.4722C6.13399 46.4623 6.14711 46.4524 6.16022 46.4425C6.17334 46.4359 6.18973 46.4326 6.20612 46.4293C6.19957 46.4293 6.18973 46.4293 6.17662 46.4293C6.20612 46.4293 6.23563 46.4293 6.26841 46.4293C6.30448 46.4425 6.48808 46.4854 6.50775 46.492C6.81593 46.6043 7.09789 46.8025 7.37329 46.9775C7.86507 47.2879 8.35029 47.6083 8.8224 47.9517C9.25517 48.2655 9.51746 48.4736 9.89449 48.7741C10.3436 49.1341 10.7895 49.494 11.242 49.8507C11.5502 50.0951 11.8616 50.3362 12.1731 50.574C12.4124 50.7556 12.8124 51.0033 12.9632 51.1883C12.9698 51.2015 13.0189 51.2807 13.0255 51.2939C13.0714 51.4227 12.9862 51.1916 13.0288 51.3204C13.0353 51.3402 13.0419 51.3897 13.0452 51.4161C13.0452 51.4591 13.0485 51.502 13.0452 51.5383C13.0452 51.5482 13.0386 51.5747 13.0353 51.5978C13.0255 51.644 13.0157 51.6869 13.0026 51.7299C12.9567 51.8851 12.9763 51.8488 12.9042 51.9677C12.8386 52.0766 12.7435 52.2153 12.7337 52.222C12.7009 52.2583 12.478 52.4564 12.5567 52.397C12.514 52.4267 12.4681 52.4564 12.419 52.4829C12.3993 52.4928 12.3862 52.5027 12.3763 52.506C12.3665 52.506 12.3534 52.5093 12.3272 52.5192C12.3075 52.5258 12.2944 52.5291 12.2845 52.5324C12.255 52.5324 12.2157 52.5291 12.196 52.5291C11.9698 52.4729 11.7042 52.3045 11.4551 52.1757C11.1174 52.004 10.783 51.8223 10.4486 51.6407C9.56336 51.1552 8.6847 50.6499 7.82245 50.1248C6.91757 49.5733 6.09137 51 6.99625 51.5515C7.84212 52.0667 8.7011 52.5621 9.56991 53.0377C10.7535 53.6883 12.1469 54.7154 13.4484 53.7709C13.9828 53.3845 14.409 52.7702 14.5894 52.1097C15.5729 52.0403 16.4713 51.327 16.8483 50.3989C17.2057 49.5172 16.9204 48.7378 16.4319 48.0508C16.4713 47.9584 16.4942 47.856 16.504 47.7536C16.6876 47.6578 16.8712 47.5653 17.0417 47.4465C17.6974 46.9907 18.022 46.2972 17.9925 45.4847C17.963 44.6096 17.5204 43.959 16.9171 43.3711C16.5729 43.0342 16.2286 42.6974 15.8877 42.3572C17.0483 41.9147 18.0581 40.5243 17.763 39.3024C17.7532 39.2627 17.7368 39.2264 17.7269 39.1901C18.0286 38.0606 18.3302 36.9344 18.6318 35.8049C18.7203 35.7323 18.8089 35.6629 18.8941 35.6068C19.1433 35.445 19.2187 35.3954 19.4285 35.3393C19.4285 35.3393 19.5334 35.3228 19.5859 35.3294C19.6383 35.336 19.7006 35.3525 19.7564 35.3723C19.9268 35.4318 20.0809 35.5275 20.199 35.6695C20.5891 36.1418 20.517 36.8618 20.517 37.4496C20.5203 38.1993 20.4875 38.9259 20.3104 39.6293C20.0777 40.5606 19.7662 41.4391 19.6351 42.4002C19.481 43.5197 19.4744 44.636 19.6777 45.7522C20.0285 47.6875 20.8153 49.6493 20.1203 51.611C19.7891 52.5489 19.1138 53.4307 18.4777 54.1837C17.8122 54.9697 17.068 55.7128 16.1762 56.2313C15.2647 56.763 16.0877 58.193 17.0024 57.658C17.8286 57.1758 18.563 56.5318 19.2154 55.825C19.2416 55.2636 19.2252 54.7121 19.14 54.1837C19.2285 54.7121 19.2449 55.2636 19.2154 55.825C19.3138 55.7194 19.4121 55.6104 19.5039 55.5014C20.2154 54.6857 20.8842 53.7907 21.3727 52.8197C22.5169 50.5509 21.9005 48.0574 21.3432 45.7225C21.0809 44.6228 21.1006 43.4504 21.2907 42.3407C21.4612 41.3499 21.8645 40.4219 22.0087 39.4312C22.1464 38.48 22.2054 37.5025 22.1104 36.5414C22.0087 35.5275 21.7104 34.6094 20.7957 34.048C20.2678 33.7243 19.717 33.6451 19.1826 33.7375C19.1957 33.6847 19.2088 33.6352 19.2252 33.5823C19.3006 33.3049 19.3728 33.0275 19.4482 32.7468C19.6744 32.7732 19.9006 32.7765 20.1334 32.7369C21.1301 32.575 21.9694 31.8386 22.6054 31.0922C23.5726 29.9561 24.2971 28.6285 24.9004 27.2645C26.4807 23.6846 27.3921 19.7545 27.6314 15.8476C27.7331 14.1897 27.697 12.5021 27.3724 10.8707H27.3757ZM9.3273 34.408C9.3273 34.408 9.3273 34.408 9.32402 34.4113C9.32402 34.4113 9.32402 34.408 9.3273 34.4047V34.408ZM9.80597 33.5526C9.80597 33.5526 9.81252 33.5526 9.82892 33.5493C9.8158 33.5559 9.80597 33.5559 9.80597 33.5526ZM9.85842 33.5526C9.85842 33.5526 9.85842 33.5526 9.8617 33.5526C9.8617 33.5526 9.8617 33.5526 9.85515 33.5526H9.85842ZM11.5141 62.4632C11.4747 62.4698 11.419 62.4797 11.5141 62.4632ZM6.17334 46.4293C6.17334 46.4293 6.15694 46.4293 6.14711 46.4293C6.15694 46.4293 6.16678 46.4293 6.17662 46.4293H6.17334ZM15.1959 50.0423C14.9992 50.2999 14.7205 50.4683 14.4386 50.465C14.4058 50.4022 14.3697 50.3428 14.3271 50.2834C14.0812 49.9333 13.7402 49.7087 13.4058 49.4544C13.0681 49.2001 12.7337 48.9392 12.3993 48.6783C11.901 48.2853 11.4092 47.8857 10.9141 47.4894C9.94039 46.7133 8.93387 45.9702 7.86179 45.3361C8.11752 44.593 8.71749 42.8889 9.80925 43.3876C10.3273 43.6221 10.7108 44.1703 11.0813 44.5798C11.5993 45.1512 12.1173 45.7225 12.6354 46.2939C13.1403 46.8487 13.6353 47.4167 14.15 47.9617C14.4976 48.3315 14.9008 48.6684 15.1828 49.0944C15.4221 49.4577 15.4615 49.6856 15.1893 50.039L15.1959 50.0423ZM16.2844 45.9636C16.2614 45.9999 16.2155 46.0396 16.2844 45.9636ZM16.2877 47.496C16.2877 47.496 16.2877 47.4828 16.2877 47.4894C16.2877 47.4894 16.2877 47.4927 16.2877 47.496ZM14.7697 29.7018C14.8877 29.7448 14.8123 29.7249 14.7697 29.7018ZM15.0221 29.7514C15.0025 29.7514 14.9861 29.7514 14.9664 29.7514C15.0156 29.7547 14.9664 29.758 14.9205 29.7514C14.9008 29.7514 14.8844 29.7514 14.8648 29.7514C14.8877 29.7514 14.9008 29.7514 14.9172 29.7514C14.9008 29.7514 14.8877 29.7448 14.8779 29.7415C14.8418 29.7249 14.7992 29.715 14.7599 29.7018C14.7074 29.6688 14.5795 29.5763 14.5599 29.5697C14.4779 29.4971 14.4025 29.4178 14.3304 29.3352C14.3107 29.3088 14.2877 29.2824 14.2812 29.2692C14.2451 29.2097 14.2058 29.1536 14.1697 29.0942C14.0943 28.9687 14.0287 28.8366 13.9632 28.7012C13.9501 28.6747 13.9435 28.6582 13.9369 28.6483C13.9337 28.6351 13.9304 28.6285 13.9205 28.6087C13.891 28.5327 13.8615 28.4535 13.8353 28.3742C13.7763 28.2091 13.7271 28.0373 13.6779 27.8689C13.4517 27.0433 13.3534 26.2275 13.3075 25.3755C13.1862 23.1826 13.4058 20.9699 13.8156 18.8166C14.2451 16.5643 14.8615 14.3119 15.7795 12.2115C16.4254 10.7286 17.1958 9.20947 18.3204 8.11963C18.4285 8.01394 18.54 7.91156 18.658 7.81579C18.6679 7.80588 18.6712 7.80258 18.6777 7.79928C18.6876 7.79267 18.6974 7.78607 18.7138 7.77286C18.7695 7.73323 18.8253 7.6969 18.881 7.66057C18.9695 7.60443 19.0646 7.55489 19.1564 7.50865C19.1564 7.51856 19.3728 7.43269 19.4252 7.41948C19.4449 7.41288 19.4646 7.41288 19.481 7.40958C19.4121 7.42279 19.4449 7.41288 19.4908 7.40958C19.5137 7.40627 19.5367 7.39967 19.5596 7.39637C19.5334 7.40297 19.5105 7.40627 19.4941 7.40958C19.517 7.40958 19.54 7.40297 19.5564 7.40627C19.599 7.40958 19.6547 7.41288 19.7006 7.40958C19.74 7.42939 19.8121 7.4426 19.858 7.45251C19.858 7.45251 19.858 7.45251 19.8613 7.45251C19.9105 7.47893 19.9564 7.50865 20.0055 7.53507C20.0252 7.54498 20.035 7.55159 20.0482 7.55819C20.0514 7.56149 20.058 7.5681 20.0678 7.58131C20.1104 7.62424 20.1563 7.66387 20.199 7.70681C20.2154 7.72332 20.2809 7.80258 20.3072 7.8323C20.376 7.92808 20.4416 8.02715 20.5006 8.12953C20.5367 8.19228 20.5727 8.25833 20.6055 8.32438C20.6153 8.3442 20.6875 8.49942 20.6973 8.51924C20.7662 8.68767 20.8252 8.8627 20.8809 9.03774C21.1465 9.90301 21.2645 10.7782 21.3202 11.6699C21.4776 14.2194 21.1661 16.7855 20.6317 19.2724C20.1531 21.4487 19.5072 23.6119 18.5499 25.6265C17.8941 27.0102 17.1434 28.4303 15.9532 29.3683C15.9303 29.3815 15.7828 29.4872 15.75 29.507C15.6615 29.5631 15.5697 29.6094 15.4779 29.6556C15.4582 29.6556 15.2779 29.7315 15.232 29.7415C15.1795 29.7547 15.1238 29.7646 15.0713 29.7745C15.3139 29.7249 15.0877 29.7679 15.0254 29.7646L15.0221 29.7514ZM17.1663 34.9496C16.6319 35.5242 16.245 36.2508 16.3532 37.05C16.3532 37.0632 16.3598 37.0731 16.3598 37.083C16.0024 36.6339 15.6188 36.2079 15.2254 35.7917C15.3238 35.696 15.3959 35.5804 15.432 35.4351C15.6483 34.5004 15.868 33.5625 16.0844 32.6279L16.1762 32.2349C16.2057 32.1127 16.2024 31.9872 16.1762 31.865C16.7237 32.0202 17.2712 32.1754 17.8155 32.3307C17.8286 32.334 17.845 32.3406 17.8581 32.3439C17.6253 33.2124 17.3925 34.081 17.163 34.9496H17.1663ZM26.0413 14.5794C25.9987 18.2254 25.2315 21.9144 23.9431 25.316C23.4251 26.6833 22.7923 28.0274 21.9661 29.2395C21.671 29.6754 21.3792 30.0453 20.9694 30.4383C20.8875 30.5176 20.8022 30.5935 20.717 30.6662C20.717 30.6662 20.6612 30.7091 20.6285 30.7355C20.5957 30.7586 20.5465 30.795 20.5465 30.795C20.4744 30.8445 20.399 30.8907 20.3235 30.937C20.2678 30.9667 20.2121 30.9964 20.1563 31.0262C20.1465 31.0295 20.1465 31.0328 20.1399 31.0361C20.1399 31.0361 20.1367 31.0361 20.1334 31.0361C20.0416 31.0658 19.9531 31.0922 19.8613 31.1186C19.8252 31.1285 19.7891 31.1318 19.7531 31.1384C19.9859 31.0889 19.7957 31.1318 19.7334 31.1285C19.6973 31.1285 19.6547 31.1219 19.6154 31.1252C19.599 31.1186 19.5793 31.1153 19.5629 31.1087C19.1957 30.9865 18.8154 30.8974 18.4449 30.7917C18.0384 30.6761 17.6351 30.5605 17.2286 30.4449C18.0122 29.7679 18.6351 28.8531 19.1433 28.0043C20.3137 26.0459 21.1202 23.8497 21.73 21.6568C21.9104 21.0095 22.071 20.3556 22.2153 19.6984C22.753 17.205 23.0874 14.629 22.9857 12.0761C22.9366 10.8409 22.8218 9.42744 22.3661 8.20549C23.0939 8.41025 23.8185 8.61501 24.5463 8.81647C24.5725 8.82968 24.6021 8.84289 24.6283 8.8594C24.6611 8.87921 24.7529 8.95187 24.7758 8.96508C24.8283 9.01462 24.884 9.06746 24.9365 9.1203C24.9463 9.13021 24.9561 9.14342 24.9693 9.15663C24.9758 9.16654 25.0381 9.24249 25.0479 9.25901C25.3528 9.73458 25.4414 9.94924 25.602 10.4876C25.9954 11.8152 26.0676 13.199 26.0512 14.5827L26.0413 14.5794Z" fill="var(--fill-0, #323232)"/>
<path id="Vector_77" d="M35.4496 36.2307C35.5348 36.2439 35.62 36.2605 35.7053 36.277C35.8823 36.31 36.0594 36.3496 36.2364 36.3893C36.6134 36.4751 36.9872 36.5676 37.3642 36.6535C37.7806 36.7492 38.2724 36.5247 38.374 36.0755C38.4691 35.6561 38.2494 35.1607 37.8003 35.0583C36.938 34.8635 36.0758 34.6158 35.1938 34.5497C34.4004 34.4903 33.4333 34.7644 33.266 35.6759C33.1906 36.0986 33.3808 36.5874 33.8398 36.6931C34.2168 36.779 34.6955 36.594 34.8234 36.1944C34.866 36.1944 34.9086 36.1944 34.9184 36.1944C35.0627 36.1944 35.2069 36.2043 35.3479 36.2175C35.3414 36.2175 35.3348 36.2175 35.3283 36.2109C35.3676 36.2208 35.4102 36.2241 35.4528 36.2307H35.4496Z" fill="var(--fill-0, #323232)"/>
<path id="Vector_78" d="M35.3814 36.2176C35.3814 36.2176 35.3615 36.2176 35.3516 36.2176C35.5374 36.2641 35.4445 36.2276 35.3814 36.2176Z" fill="var(--fill-0, #323232)"/>
<path id="Vector_79" d="M1.92264 5.21969C2.65048 5.44756 3.81764 5.60939 4.28319 6.20055C4.28319 6.20715 4.37172 6.36237 4.36844 6.35907C4.40778 6.43833 4.43073 6.49778 4.46024 6.59025C4.53564 6.81812 4.59138 7.05261 4.63728 7.29039C4.73563 7.77256 4.79465 8.26464 4.91595 8.74021C5.10939 9.5064 6.32901 9.54934 6.49621 8.74021C6.67981 7.86834 6.76506 6.9172 7.2011 6.12789C7.58797 5.42775 8.73546 5.39803 9.49609 5.31546C9.93541 5.26923 10.3157 4.96869 10.3157 4.48982C10.3157 4.01095 9.93869 3.6807 9.49609 3.66418C8.75186 3.63776 7.80108 3.62455 7.18143 3.1622C6.6667 2.7791 6.54211 2.14501 6.50933 1.52413C6.50933 1.50101 6.51261 1.47789 6.51589 1.45478C6.51916 1.39203 6.51589 1.32928 6.49949 1.26983C6.49949 1.10801 6.49949 0.949485 6.49949 0.797567C6.49949 -0.265856 4.86022 -0.265856 4.86022 0.797567C4.86022 1.01884 4.8635 1.24341 4.87661 1.46799C4.83399 2.05914 4.77826 2.7725 4.28319 3.12917C3.70945 3.54529 2.81113 3.52218 2.13902 3.59153C1.24726 3.6807 0.991533 4.92246 1.92264 5.21308V5.21969ZM6.0241 4.3313C6.13557 4.42708 6.25688 4.51294 6.37819 4.5922C6.23721 4.7111 6.10279 4.8498 5.98148 5.00832C5.88313 5.13712 5.79788 5.27583 5.7192 5.41784C5.64051 5.28904 5.55199 5.16355 5.45036 5.04465C5.30938 4.88613 5.14873 4.75403 4.97825 4.63183C5.09627 4.56578 5.20775 4.48982 5.31594 4.40396C5.46675 4.28507 5.59461 4.14966 5.70936 4.01095C5.80444 4.12324 5.90608 4.22892 6.02083 4.328L6.0241 4.3313Z" fill="var(--fill-0, #323232)"/>
</g>
</svg>
