<svg preserveAspectRatio="none" width="100%" height="100%" overflow="visible" style="display: block;" viewBox="0 0 104 102" fill="none" xmlns="http://www.w3.org/2000/svg">
<g id="Group">
<g id="Group_2">
<path id="Vector" d="M97.315 44.9288C97.0657 44.6804 96.8587 44.4128 96.6799 44.1309C96.5105 44.3889 96.3177 44.6326 96.1013 44.8667C95.739 45.2537 95.3297 45.5643 94.8828 45.8127C95.4003 46.1758 95.8566 46.644 96.2189 47.2652C96.3929 47.5614 96.5341 47.8767 96.6658 48.1921C96.7834 47.934 96.9151 47.6808 97.0704 47.4372C97.5032 46.773 98.0865 46.2809 98.7451 45.8844C98.223 45.655 97.7384 45.3492 97.3197 44.9288H97.315Z" fill="var(--fill-0, #FAD264)"/>
<path id="Vector_2" d="M102.85 44.3125C101.627 44.1644 99.9142 44.1787 98.9827 43.2375C98.0513 42.301 97.976 40.8151 97.9007 39.5585C97.9196 39.0855 97.929 38.6173 97.929 38.1538C97.929 36.6154 95.5768 36.6154 95.5768 38.1538C95.5768 38.4692 95.5768 38.7988 95.5768 39.1333C95.5532 39.2384 95.5391 39.3531 95.5485 39.4821C95.5532 39.5585 95.5579 39.6397 95.5626 39.7162C95.5109 40.9728 95.2945 42.2628 94.4477 43.1706C93.3892 44.3029 91.6157 44.3841 90.1761 44.4462C89.541 44.4749 89 44.9766 89 45.6407C89 46.3526 89.541 46.7539 90.1761 46.8352C91.7991 47.0406 93.6338 47.1696 94.4007 48.861C95.1392 50.4902 95.2616 52.4013 95.572 54.1453C95.779 55.311 97.5997 55.2585 97.8396 54.1453C98.0325 53.2614 98.1312 52.3536 98.2771 51.4601C98.4135 50.6097 98.5547 49.6254 98.9592 48.8801C99.6837 47.5375 101.82 47.1505 103.165 46.6536C104.459 46.1758 104.167 44.4654 102.854 44.3077L102.85 44.3125ZM97.068 47.4372C96.9128 47.6761 96.7811 47.9293 96.6635 48.1921C96.5318 47.8767 96.3906 47.5614 96.2166 47.2652C95.8543 46.6441 95.398 46.1758 94.8805 45.8127C95.3227 45.5643 95.732 45.2537 96.0989 44.8667C96.3153 44.6326 96.5082 44.3889 96.6776 44.1309C96.8563 44.4128 97.0681 44.6804 97.3127 44.9288C97.7314 45.3493 98.2159 45.655 98.7381 45.8844C98.0795 46.2762 97.4961 46.7683 97.0633 47.4372H97.068Z" fill="var(--fill-0, #323232)"/>
</g>
<g id="Group_3">
<path id="Vector_3" d="M20.146 93.3901C20.1746 92.3306 20.2767 91.2386 20.2399 90.1669C20.2154 90.4064 20.1214 90.6418 19.9539 90.8083C19.5453 91.2142 18.9243 91.1655 18.5075 90.8083C16.8077 89.3388 15.2673 87.7069 13.6043 86.2009C13.0936 85.7381 12.8362 85.5189 12.2437 85.1941C12.2315 85.186 12.2274 85.186 12.2151 85.182C12.1661 85.1657 12.1171 85.1495 12.068 85.1332C12.0353 85.1251 12.0027 85.117 11.9741 85.113C11.9577 85.113 11.9495 85.1129 11.9373 85.1089C11.9046 85.117 11.8842 85.117 11.8678 85.1211C11.8596 85.1251 11.8597 85.1333 11.8474 85.1414C11.6962 85.2632 11.7248 85.1779 11.5981 85.3525C11.688 85.2266 11.6063 85.393 11.5736 85.4377C11.5655 85.4621 11.5614 85.4864 11.5573 85.5067C11.5614 85.5392 11.5655 85.5757 11.5695 85.592C11.5695 85.6041 11.5777 85.6447 11.5777 85.6772C11.59 85.734 11.6186 85.8518 11.6145 85.8436C11.7044 86.14 11.7738 86.2983 11.9577 86.619C12.1457 86.9478 12.3541 87.2604 12.5747 87.5648C13.5185 88.872 14.7811 90.0248 15.1774 91.6445C15.6637 93.6296 15.0753 95.6227 14.8751 97.5997C14.822 98.1477 14.4501 98.6145 13.8536 98.6145C13.3388 98.6145 12.779 98.1477 12.8321 97.5997C13.0201 95.7039 13.7637 93.4794 13.0119 91.6486C12.4725 91.9936 11.8596 92.1885 11.2182 92.2372C10.9076 93.0653 10.0659 93.7148 9.17927 94.0314C8.5868 94.2425 7.9167 94.3034 7.29973 94.1492H7.29155C6.64597 94.888 5.47739 95.3304 4.57031 95.3954C4.64795 96.0246 4.70106 96.6579 4.76643 97.2911C4.84815 98.0827 5.02384 98.9717 5.42835 99.6415C5.85738 100.356 6.54383 100.904 7.17306 101.436C7.39779 101.623 7.61843 101.813 7.83907 102H20.0847C20.0724 101.245 20.0683 100.494 20.0683 99.743C20.0683 97.6281 20.101 95.5131 20.1541 93.3982L20.146 93.3901Z" fill="var(--fill-0, white)"/>
<path id="Vector_4" d="M79.8017 96.7678C77.6035 94.8477 76.5452 92.2416 76.296 89.3878C76.153 87.7438 76.2347 86.0916 76.1367 84.4435C76.0509 83.0227 75.7689 81.6384 75.2541 80.307C73.1907 74.9445 67.6624 71.6564 61.9502 72.0948C61.6683 72.1151 61.4068 71.9852 61.2188 71.7822C61.1576 71.8228 61.0963 71.8634 61.0391 71.904C62.5672 74.2219 63.7235 76.7834 64.459 79.4585C64.5612 79.832 64.4304 80.2217 64.1566 80.4734C64.651 81.3989 65.0515 82.3569 65.3334 83.3312C65.3457 83.3312 65.3538 83.3231 65.362 83.319C65.8482 83.1851 66.5387 83.4855 66.6205 84.0294C66.9351 86.1931 67.4785 88.3608 68.4305 90.3418C69.9219 93.4472 72.4389 96.2239 75.7893 97.3605C77.4523 97.9247 79.2665 98.0343 80.9581 97.6528C80.5536 97.3808 80.1654 97.0885 79.8017 96.7719V96.7678Z" fill="var(--fill-0, white)"/>
<path id="Vector_5" d="M71.4007 101.992C71.1923 101.858 71.0248 101.647 70.9226 101.399C70.3057 99.8768 69.6029 98.387 68.8266 96.9338C66.0931 91.8108 62.4647 87.2074 58.1173 83.3388C57.7782 83.0344 57.7332 82.665 57.8599 82.3483C56.8833 81.8044 55.8373 81.3944 54.7464 81.1265C54.5625 81.3903 54.2438 81.5527 53.8924 81.5933C53.872 81.5933 53.8638 81.5933 53.8516 81.5974C53.823 81.5974 53.7984 81.6055 53.7698 81.6095C53.6595 81.6258 53.5492 81.6461 53.4389 81.6623C53.2223 81.6988 53.0098 81.7435 52.7933 81.7922C52.3275 81.8937 51.8658 82.0155 51.4082 82.1494C50.3867 82.4458 49.3815 82.7989 48.3886 83.1805C44.8502 84.5364 41.3404 86.2657 37.9245 88.064C37.6222 88.2223 37.3239 88.3806 37.0215 88.5389C36.2043 88.9733 35.3912 89.4158 34.5781 89.8623C35.1379 89.8826 35.7018 89.9556 36.2656 90.0815C39.0931 90.7148 41.8797 91.9488 43.8614 94.0962C45.7573 96.1544 46.9872 98.7239 47.8493 101.358C47.9269 101.594 47.9188 101.805 47.8493 101.984H71.3885L71.4007 101.992Z" fill="var(--fill-0, #BDA6DA)"/>
<path id="Vector_6" d="M49.5378 66.3418C49.5991 66.5691 49.64 66.8086 49.6441 67.0522C49.6237 68.3837 48.6675 69.6705 47.311 69.9141C46.073 70.1373 44.8186 69.638 44.1607 68.546C43.5029 67.4541 43.6786 66.0942 44.4794 65.1321C45.219 64.2431 46.5755 63.8859 47.6583 64.2877C47.8953 64.377 48.1119 64.4948 48.3161 64.6328C49.072 63.7803 49.7013 62.737 50.0363 61.6816C50.2284 61.0768 50.3019 60.7073 50.2937 60.1187C50.2856 59.6478 50.1957 59.2297 49.9669 58.8441C49.7013 58.3894 49.3295 58.1215 48.8228 58.0606C48.3897 58.0038 47.8054 58.2474 47.3886 58.6371C46.4325 59.5301 44.9861 58.0972 45.9422 57.2C46.2078 56.9524 46.502 56.7413 46.8166 56.5668C46.882 56.3029 46.9228 56.039 46.9473 55.7711C46.4897 55.6818 46.0729 55.2596 46.1056 54.7766C46.1588 53.9728 46.1751 53.165 46.1588 52.3612C45.0882 51.5818 44.4958 50.5101 43.9605 49.3898C43.8951 49.3654 43.8298 49.337 43.7726 49.2923C40.3731 46.9135 37.803 43.5848 36.377 39.704C36.1849 39.1885 36.5895 38.5918 37.092 38.4537C37.1329 38.4416 37.1697 38.4416 37.2064 38.4334C37.1942 38.0113 37.235 37.5891 37.3331 37.1831C37.186 37.037 37.0757 36.8503 37.0267 36.6514C35.8376 37.3252 34.6486 38.1818 33.8028 39.221C34.5833 39.156 35.331 40.2074 34.6405 40.9746C33.2676 42.4969 32.622 44.2587 32.2379 46.2356C31.9192 47.8715 31.6536 49.544 30.7997 51.0094C29.9784 52.4221 28.6995 53.4938 27.3103 54.326C26.5911 54.7563 25.8189 55.0891 25.0957 55.5032C24.9404 55.5925 24.6095 55.7508 24.5809 55.9579C24.54 56.2542 24.969 56.7088 25.1079 56.9483C25.5043 57.6263 25.7739 58.3651 25.7617 59.1567C25.7494 59.7412 25.6514 60.2486 25.5901 60.7967C26.9997 61.2675 28.4135 61.7344 29.8231 62.2053C30.3952 62.3961 30.624 62.8872 30.5382 63.4556C30.5096 63.6342 30.4605 63.8087 30.4074 63.9833C29.6842 66.3824 27.8537 68.2254 25.5002 69.0413C25.4839 69.7151 25.3735 70.385 25.2264 71.0466C25.157 71.3511 25.0712 71.6596 25.0344 71.9681C25.0221 72.0696 25.0221 72.3781 25.0589 72.5121C25.4185 73.7421 26.7546 74.2779 27.8864 74.5783C30.7833 75.3455 33.7457 74.7326 36.7039 74.7569C37.1288 74.7569 37.6028 75.0654 37.6886 75.5038C38.1707 77.9557 38.6569 80.4076 39.1391 82.8595C39.2453 83.3994 38.992 83.9514 38.424 84.1098C38.2647 84.1544 38.0931 84.1463 37.9256 84.1098V85.7822C39.4742 84.9866 41.0309 84.2113 42.6081 83.4765C44.602 82.5469 46.6286 81.662 48.6961 80.915C50.3836 80.3061 52.1038 79.7825 53.8935 79.5714C54.4451 79.5064 54.9149 80.0869 54.9149 80.5862C54.9149 80.8014 54.8496 80.984 54.7474 81.1342C55.8384 81.4022 56.8844 81.8121 57.8609 82.3561C57.9467 82.141 58.1061 81.9461 58.3145 81.8162C58.0121 81.2398 57.7547 80.6512 57.5504 80.0382C57.4605 80.0666 57.3706 80.0828 57.2725 80.0828C56.7128 80.0828 56.2592 79.616 56.2511 79.068C56.247 78.7676 56.2388 78.4713 56.2347 78.1709C56.198 76.1249 56.1612 74.0831 56.1203 72.0371C55.1438 71.485 54.2571 70.7706 53.5298 69.9181C52.6432 68.8789 51.9281 67.7179 51.2131 66.561C50.9189 66.082 51.1191 65.4853 51.5604 65.1849C51.3929 64.9007 51.2294 64.6084 51.0578 64.3161C50.641 65.0347 50.1262 65.7288 49.5297 66.3499L49.5378 66.3418ZM33.6108 53.1812C32.2951 53.1812 32.2951 51.1515 33.6108 51.1515C34.9265 51.1515 34.9265 53.1812 33.6108 53.1812ZM38.4445 48.6306C37.946 48.793 37.2963 48.4439 37.186 47.9203C37.1656 47.8188 37.1288 47.7213 37.0961 47.6239C37.0471 47.5265 36.998 47.425 36.9368 47.3357C36.8918 47.2829 36.8469 47.2342 36.7938 47.1855C36.7488 47.1409 36.7039 47.1043 36.6589 47.0637C36.6467 47.0556 36.6303 47.0434 36.6181 47.0353C36.52 46.9704 36.4179 46.9216 36.3116 46.8689C36.189 46.8242 36.0624 46.7917 35.9357 46.7674C35.8131 46.7593 35.6865 46.7593 35.5639 46.7674C35.3923 46.7999 35.2248 46.8486 35.0613 46.9176C35.1185 46.8932 35.1757 46.8689 35.2329 46.8445C34.9796 46.9541 34.7467 46.9988 34.4729 46.9379C34.2114 46.877 34.0031 46.6862 33.8641 46.471C33.7252 46.2559 33.6925 45.9311 33.762 45.6876C33.8233 45.4684 34.0112 45.1761 34.2319 45.0827C34.7589 44.8513 35.3065 44.6971 35.8908 44.7296C36.4342 44.758 36.9368 44.9001 37.4189 45.1477C38.2729 45.5902 38.9675 46.4426 39.1595 47.3844C39.2739 47.9446 39.0002 48.4561 38.4445 48.6347V48.6306ZM44.4427 79.1005C43.7481 80.7892 42.3752 81.9136 40.4915 81.9136C39.1759 81.9136 39.1759 79.8839 40.4915 79.8839C41.1943 79.8839 41.7337 79.6485 42.1014 79.1654C42.5999 78.52 42.8001 77.7081 42.9268 76.9043C43.2455 74.8381 42.6367 72.8165 42.1218 70.8396C41.5825 68.7652 41.2434 66.6503 41.2189 64.5069C41.1739 60.3258 42.2158 56.1649 44.2057 52.483C44.8308 51.3301 46.5919 52.3572 45.9708 53.506C44.8145 55.6412 44.0218 57.947 43.5969 60.3339C43.2291 62.3961 43.1678 64.5151 43.3803 66.5975C43.605 68.8099 44.3487 70.9005 44.7736 73.0763C45.1618 75.0533 45.2231 77.2007 44.4427 79.1005Z" fill="var(--fill-0, white)"/>
<path id="Vector_7" d="M69.345 55.0614C69.2224 52.9911 68.8179 50.9411 68.2377 48.948C67.6697 47.0035 66.9547 45.1199 65.7902 43.4393C63.1057 39.5789 58.6439 37.1189 54.182 35.8523C49.0174 34.3869 43.2889 34.7969 38.5369 37.3665C38.0711 37.6182 37.6257 37.4802 37.3397 37.1879C37.2417 37.5979 37.2008 38.016 37.2131 38.4382C37.7279 38.357 38.1773 38.6858 38.353 39.1648C39.5829 42.5138 41.8751 45.4853 44.8088 47.5393C45.2624 47.856 45.4748 48.4202 45.1766 48.9276C44.9478 49.3133 44.4043 49.5406 43.9671 49.3864C44.5024 50.5068 45.0948 51.5744 46.1654 52.3578C46.0796 48.1361 45.0336 43.963 43.056 40.2081C42.4472 39.0511 44.2123 38.0241 44.8211 39.1851C47.338 43.963 48.5189 49.3904 48.1552 54.7772C48.1184 55.3253 47.718 55.7921 47.1337 55.7921C47.0724 55.7921 47.0112 55.784 46.9539 55.7718C46.9294 56.0397 46.8845 56.3036 46.8232 56.5674C47.9959 55.9139 49.4423 55.8083 50.6191 56.6243C52.9399 58.244 52.5313 61.3656 51.4567 63.5861C51.3382 63.8297 51.2115 64.0692 51.0726 64.3087C51.2442 64.605 51.4076 64.8932 51.5752 65.1774C51.5833 65.1733 51.5874 65.1693 51.5915 65.1652C52.0614 64.8648 52.7111 65.0759 52.9889 65.5306C53.3362 66.0948 53.6794 66.6591 54.0472 67.2071C54.2147 67.4547 54.3822 67.7024 54.562 67.9419C54.6069 68.0028 54.6519 68.0636 54.6968 68.1245C54.705 68.1327 54.705 68.1367 54.7091 68.1448C54.7132 68.1489 54.7132 68.153 54.7213 68.157C54.8072 68.2626 54.893 68.3681 54.9829 68.4736C55.3629 68.9161 55.7755 69.3139 56.225 69.6874C56.225 69.6874 56.2291 69.6915 56.2332 69.6955C56.2944 69.7402 56.3517 69.7808 56.4129 69.8254C56.5273 69.9066 56.6458 69.9878 56.7684 70.0609C57.0422 70.2354 57.3282 70.3897 57.6224 70.5358C57.9411 70.6941 58.1004 71.0189 58.1168 71.3518C58.554 71.1123 58.9789 70.8403 59.3916 70.5723C61.3202 69.3221 63.1057 67.8647 64.8259 66.3506C65.7207 65.5631 66.6646 64.7836 67.3551 63.7972C67.9312 62.9732 68.3766 62.0842 68.6871 61.1383C69.3327 59.1736 69.4716 57.1195 69.3491 55.0614H69.345Z" fill="var(--fill-0, white)"/>
<path id="Vector_8" d="M41.7561 94.8679C40.849 94.0317 39.803 93.435 38.6549 92.9884C37.4536 92.5257 36.1911 92.0507 34.9081 91.9005C32.7303 91.6448 30.3931 92.6353 28.9834 94.1616C27.7454 95.5053 26.9854 97.3361 26.4338 99.0978C26.1396 100.044 25.8822 101.014 25.7188 101.992H45.936C45.9238 101.964 45.9074 101.935 45.8993 101.907C45.0494 99.317 43.7991 96.7434 41.7602 94.8679H41.7561Z" fill="var(--fill-0, #BDA6DA)"/>
<path id="Vector_9" d="M8.69896 91.0718C8.24542 90.4305 8.01252 89.6348 7.75102 88.9041C7.44866 88.0516 7.13404 87.2032 6.84802 86.3467C6.6805 85.8555 6.54566 85.3522 6.4476 84.8447C6.05126 84.9584 5.69579 85.1086 5.44654 85.3887C5.33214 85.5186 5.27084 85.6647 5.24632 85.8677C5.21772 86.1316 5.24634 86.4157 5.27085 86.6796C5.39343 87.804 5.87148 89.099 6.40266 90.1828C6.6519 90.6903 6.92157 91.1896 7.24027 91.6564C7.2893 91.7295 7.34242 91.8025 7.39554 91.8756C7.4078 91.8837 7.56715 92.0705 7.59167 92.0948C7.64479 92.1192 7.70199 92.1395 7.75511 92.1679C7.75511 92.1516 8.08198 92.2125 7.86951 92.1963C8.17187 92.2207 8.1351 92.2206 8.42929 92.1354C8.6295 92.0786 8.7766 92.0136 9.0095 91.8594C9.0095 91.8553 9.14024 91.7579 9.15658 91.7376C9.1811 91.7132 9.20562 91.6848 9.23422 91.6605C9.04218 91.4981 8.8624 91.3032 8.69896 91.0759V91.0718Z" fill="var(--fill-0, white)"/>
<path id="Vector_10" d="M18.7311 85.1007C18.2367 83.9519 17.8567 82.8112 17.5462 81.6056C16.9169 79.1699 16.2305 76.7505 15.5236 74.3392C15.1845 73.1864 14.8413 72.0376 14.4981 70.8847C14.2325 69.9916 14.0772 68.9159 13.5256 68.1893C13.4561 68.0999 13.3703 68.0188 13.2804 67.966C13.3867 68.0309 13.1456 67.9944 13.2641 67.966C13.309 67.9579 13.4071 67.8726 13.166 67.9822C12.88 68.1121 12.6471 68.2258 12.5531 68.4328C12.2957 69.0011 12.5205 69.6344 12.6471 70.3245C12.9536 72.0092 13.3336 73.6857 13.7299 75.35C14.2611 77.5949 14.829 79.8357 15.4337 82.0643C15.6135 82.7381 15.1436 83.1968 14.6125 83.2983C14.2202 83.5175 13.7299 83.4404 13.3826 83.14C12.4673 82.3403 11.0372 81.2321 9.73791 81.4351C8.55299 81.6218 8.26289 83.0588 8.37321 84.0453C8.4631 84.8612 8.76955 85.6528 9.03922 86.42C9.32115 87.2197 9.60717 88.0194 9.89318 88.8191C10.0035 89.1276 10.1097 89.4321 10.265 89.7203C10.3181 89.8177 10.3794 89.9314 10.4448 90.0207C10.4897 90.0735 10.5429 90.1222 10.5919 90.1749C10.9678 90.2521 11.6379 90.1709 11.834 90.0166C11.8544 90.0004 11.8749 89.9882 11.8953 89.976C11.6379 89.6553 11.3723 89.3306 11.1231 88.9977C10.5919 88.3036 10.1097 87.5891 9.78287 86.7772C9.19449 85.3077 9.76652 83.5054 11.454 83.1319C12.8882 82.8153 14.1712 83.96 15.1395 84.845C16.7658 86.3307 18.2816 87.926 19.9528 89.3671C20.0917 89.4889 20.1775 89.6472 20.2184 89.8218C20.1816 89.2778 20.1081 88.742 19.9528 88.2183C19.6382 87.1426 19.1642 86.1237 18.7229 85.0966L18.7311 85.1007Z" fill="var(--fill-0, white)"/>
<path id="Vector_11" d="M36.875 47.2471C36.875 47.2471 36.8915 47.2677 36.9122 47.2925C36.8957 47.2677 36.8833 47.2471 36.875 47.2471Z" fill="var(--fill-0, #B2CDE5)"/>
<path id="Vector_12" d="M12.2121 85.1701C12.1501 85.1411 12.146 85.1453 12.2121 85.1701Z" fill="var(--fill-0, #B2CDE5)"/>
<path id="Vector_13" d="M33.6118 51.1519C32.2961 51.1519 32.2961 53.1816 33.6118 53.1816C34.9274 53.1816 34.9274 51.1519 33.6118 51.1519Z" fill="var(--fill-0, #323232)"/>
<path id="Vector_14" d="M51.0585 64.3086C51.1974 64.0691 51.3282 63.8296 51.4426 63.586C52.5172 61.3656 52.9299 58.2439 50.605 56.6242C49.4282 55.8042 47.9859 55.9097 46.8091 56.5673C46.4945 56.7419 46.2003 56.957 45.9347 57.2006C44.9745 58.0977 46.4209 59.5307 47.3811 58.6376C47.7979 58.2479 48.3822 58.0044 48.8153 58.0612C49.322 58.1261 49.6938 58.3941 49.9594 58.8447C50.1882 59.2344 50.2781 59.6484 50.2863 60.1193C50.2944 60.7079 50.2168 61.0773 50.0288 61.6822C49.6938 62.7376 49.0646 63.7849 48.3087 64.6334C48.1044 64.4994 47.8919 64.3776 47.6508 64.2883C46.568 63.8824 45.2074 64.2437 44.4719 65.1327C43.6711 66.0947 43.4954 67.4546 44.1532 68.5466C44.8111 69.6386 46.0655 70.1379 47.3035 69.9146C48.66 69.6711 49.6162 68.3843 49.6366 67.0528C49.6366 66.8051 49.5916 66.5697 49.5303 66.3424C50.1228 65.7213 50.6376 65.0231 51.0585 64.3086ZM46.3964 66.1962C46.3964 66.1962 46.3433 66.2165 46.2984 66.2328C46.3311 66.2125 46.3678 66.1962 46.3964 66.1962ZM47.5895 67.2151C47.5895 67.2151 47.5895 67.2233 47.5895 67.2273C47.5773 67.272 47.5568 67.3207 47.5487 67.3532C47.5487 67.3653 47.5405 67.3816 47.5364 67.3938C47.4915 67.4709 47.4506 67.544 47.4016 67.617C47.3852 67.6373 47.3648 67.6576 47.3485 67.6739C47.2749 67.7469 47.0543 67.8768 47.328 67.7104C47.2545 67.751 47.1891 67.8078 47.1156 67.8484C47.091 67.8606 47.0706 67.8728 47.0461 67.8849C46.9766 67.9052 46.9112 67.9255 46.8418 67.9418C46.8622 67.9418 46.8786 67.9418 46.9031 67.9418C46.8745 67.9418 46.8459 67.9418 46.8173 67.9499C46.8173 67.9499 46.8173 67.9499 46.8132 67.9499C46.7601 67.9621 46.7192 67.958 46.7274 67.9499C46.6702 67.9499 46.613 67.9499 46.5558 67.9458C46.519 67.9377 46.4781 67.9296 46.4414 67.9174C46.4128 67.9093 46.3842 67.9012 46.3596 67.889C46.376 67.8971 46.3842 67.9012 46.4005 67.9134C46.3842 67.9052 46.3678 67.8971 46.3515 67.8849C46.3351 67.8809 46.3147 67.8728 46.2984 67.8687C46.2453 67.8525 46.233 67.8281 46.2698 67.8403C46.2371 67.8241 46.2085 67.8078 46.1799 67.7916C46.1676 67.7835 46.1513 67.7713 46.139 67.7632C46.1022 67.7266 46.0655 67.686 46.0287 67.6454C46.0655 67.6942 46.0409 67.6942 46.0042 67.6454C45.9919 67.6251 45.9797 67.6089 45.9674 67.5886C45.9552 67.5805 45.947 67.5683 45.9347 67.5561C45.947 67.5683 45.9511 67.5724 45.9633 67.5846C45.947 67.5643 45.9347 67.5399 45.9184 67.5196C45.902 67.4912 45.8857 67.4628 45.8734 67.4384C45.8775 67.4546 45.8816 67.4709 45.8898 67.4952C45.8816 67.4709 45.8734 67.4465 45.8653 67.4222C45.8448 67.3816 45.8367 67.341 45.8367 67.3329C45.8285 67.3045 45.8162 67.2801 45.8121 67.2517C45.804 67.2273 45.7999 67.203 45.7958 67.1786C45.7917 67.1055 45.7917 67.0284 45.7958 66.9553C45.7917 66.9716 45.7876 66.9878 45.7835 67.0122C45.7917 66.9878 45.7958 66.9594 45.7999 66.935C45.808 66.8701 45.8285 66.8011 45.8203 66.862C45.8366 66.8092 45.8489 66.7564 45.8693 66.6996C45.8898 66.6631 45.9061 66.6265 45.9306 66.59C45.9429 66.5697 45.9592 66.5453 45.9715 66.525C45.9592 66.5332 45.9592 66.5413 45.9429 66.5494C45.9552 66.5413 45.9633 66.5291 45.9756 66.5169C45.9837 66.5047 45.9919 66.4926 45.996 66.4844C46.0287 66.4317 46.0614 66.4195 46.0491 66.4439C46.0695 66.4195 46.0941 66.3951 46.1145 66.3708C46.1227 66.3627 46.139 66.3505 46.1553 66.3342C46.1921 66.3099 46.2371 66.2774 46.2861 66.2449C46.2943 66.2449 46.2943 66.245 46.3025 66.2409C46.3515 66.2247 46.4005 66.2084 46.4495 66.1922C46.4741 66.184 46.5517 66.1719 46.6007 66.1597C46.6416 66.1597 46.6824 66.1597 46.7233 66.1597C46.7519 66.1597 46.7846 66.1597 46.8132 66.1638C46.8949 66.1841 46.9725 66.2044 47.0543 66.2287C47.091 66.249 47.1319 66.2652 47.1687 66.2896C47.1973 66.3058 47.2218 66.3221 47.2504 66.3424C47.3035 66.3951 47.3607 66.452 47.4138 66.5047C47.4343 66.5332 47.4506 66.5616 47.471 66.59C47.4915 66.6265 47.5119 66.6631 47.5282 66.6996C47.5528 66.7727 47.5691 66.8417 47.5895 66.9148C47.5895 66.8945 47.5895 66.8742 47.5895 66.8457C47.5895 66.8742 47.5895 66.9026 47.5936 66.931C47.5936 66.9391 47.5977 66.9513 47.6018 66.9594C47.6018 66.9756 47.6059 66.9878 47.6059 67C47.6059 67.0081 47.6059 67.0203 47.6059 67.0284C47.6059 67.0284 47.6059 67.0284 47.6018 67.0244C47.6018 67.0365 47.6018 67.0487 47.6018 67.0609C47.6018 67.1137 47.5977 67.1664 47.5936 67.2192L47.5895 67.2151ZM47.5977 67.1867C47.5977 67.1624 47.5977 67.1421 47.6018 67.1258C47.6018 67.1299 47.6018 67.138 47.6018 67.1421C47.6018 67.1583 47.6018 67.1705 47.5936 67.1867H47.5977Z" fill="var(--fill-0, #323232)"/>
<path id="Vector_15" d="M33.76 45.6876C33.6946 45.9311 33.7232 46.2559 33.8622 46.471C34.0011 46.6862 34.2135 46.877 34.471 46.9379C34.7447 46.9988 34.9776 46.9541 35.2309 46.8445C35.1737 46.8689 35.1165 46.8932 35.0593 46.9176C35.2228 46.8486 35.3903 46.8039 35.5619 46.7674C35.6845 46.7593 35.8112 46.7593 35.9337 46.7674C36.0604 46.7917 36.1871 46.8283 36.3096 46.8689C36.4159 46.9176 36.518 46.9704 36.6161 47.0353C36.6283 47.0434 36.6447 47.0556 36.6569 47.0637C36.7019 47.1043 36.7509 47.1449 36.7918 47.1855C36.8408 47.2342 36.8857 47.287 36.9348 47.3357C36.9961 47.425 37.0451 47.5265 37.0941 47.6239C37.1268 47.7213 37.1636 47.8188 37.184 47.9203C37.2903 48.4399 37.9399 48.789 38.4425 48.6306C38.9982 48.452 39.2719 47.9405 39.1575 47.3803C38.9655 46.4386 38.2709 45.5861 37.4169 45.1436C36.9348 44.896 36.4281 44.758 35.8888 44.7255C35.3045 44.693 34.757 44.8473 34.2299 45.0787C34.0092 45.1761 33.8213 45.4643 33.76 45.6835V45.6876ZM36.9103 47.2951C36.8898 47.2707 36.8735 47.2505 36.8735 47.2505C36.8817 47.2505 36.898 47.2748 36.9103 47.2951Z" fill="var(--fill-0, #323232)"/>
<path id="Vector_16" d="M39.1414 82.8645C38.6593 80.4126 38.1731 77.9608 37.6909 75.5089C37.6051 75.0745 37.1311 74.766 36.7062 74.762C33.748 74.7376 30.7857 75.3506 27.8887 74.5833C26.7528 74.283 25.4208 73.7471 25.0613 72.5171C25.0245 72.3832 25.0245 72.0746 25.0367 71.9732C25.0735 71.6606 25.1593 71.3561 25.2288 71.0517C25.38 70.39 25.4862 69.7243 25.5025 69.0463C27.856 68.2345 29.6866 66.3874 30.4098 63.9883C30.4629 63.8138 30.5119 63.6392 30.5405 63.4606C30.6304 62.8963 30.4016 62.4011 29.8255 62.2103C28.4158 61.7394 27.0021 61.2726 25.5924 60.8017C25.6537 60.2537 25.7559 59.7463 25.764 59.1617C25.7804 58.3701 25.5066 57.6313 25.1103 56.9534C24.9714 56.7139 24.5423 56.2633 24.5832 55.9629C24.6118 55.7559 24.9428 55.5976 25.098 55.5082C25.8253 55.0942 26.5935 54.7613 27.3126 54.331C28.7059 53.4988 29.9807 52.4272 30.802 51.0145C31.656 49.5491 31.9175 47.8766 32.2403 46.2406C32.6243 44.2637 33.2699 42.4979 34.6428 40.9797C35.3333 40.2165 34.5856 39.1611 33.8052 39.226C33.0861 40.1069 32.6162 41.1217 32.6162 42.2665C32.6162 41.1177 33.0861 40.1069 33.8052 39.226C33.5968 39.2422 33.3843 39.3356 33.2005 39.5426C31.848 41.0406 30.945 42.7658 30.4792 44.7224C30.1074 46.2975 30.0012 48.0024 29.3066 49.4841C28.6365 50.9171 27.4434 51.9076 26.095 52.687C24.6241 53.5394 22.1112 54.2823 22.6015 56.4703C22.7282 57.0265 23.0632 57.4892 23.3452 57.9723C23.4432 58.1387 23.5413 58.3092 23.6067 58.4919C23.6312 58.565 23.6557 58.638 23.6761 58.7111C23.6761 58.7192 23.7088 58.906 23.7129 58.91C23.7701 59.5798 23.6148 60.1928 23.5372 60.8869C23.4718 60.9803 23.4187 61.0777 23.3942 61.1873C23.2675 61.7475 23.5658 62.255 24.1092 62.4376C25.5066 62.9045 26.9081 63.3672 28.3055 63.8341C28.2932 63.8665 28.281 63.9031 28.2687 63.9355C28.1952 64.0086 28.1421 64.2197 28.093 64.3131C28.0277 64.443 27.9541 64.5729 27.8806 64.6987C27.7988 64.8327 27.7171 64.9666 27.6272 65.0965C27.5823 65.1615 27.5333 65.2264 27.4842 65.2914C27.4638 65.3198 27.4393 65.3442 27.4188 65.3726C27.1819 65.6567 26.9204 65.9165 26.6384 66.156C26.6098 66.1804 26.4219 66.3225 26.4668 66.29C26.4015 66.3387 26.332 66.3874 26.2625 66.4321C26.095 66.5417 25.9234 66.6432 25.7477 66.7365C25.6415 66.7934 25.5352 66.8461 25.429 66.8989C25.38 66.9233 25.3309 66.9436 25.2819 66.9639C25.2696 66.9679 25.2615 66.972 25.2451 66.976C25 67.0694 24.7507 67.1506 24.4974 67.2237C24.2195 67.3008 24.003 67.4916 23.8722 67.7351C23.6148 67.8894 23.4391 68.1654 23.4555 68.5633C23.5086 69.8014 23.0019 70.9339 22.9774 72.1558C22.9529 73.4914 23.7783 74.6564 24.8243 75.4236C26.9081 76.9459 29.8786 77.0799 32.3628 76.9825C33.5273 76.9378 34.6959 76.8322 35.8604 76.7998C36.2936 79 36.7266 81.2002 37.1638 83.4004C37.2374 83.7698 37.5643 84.0255 37.9238 84.1067C38.0914 84.1432 38.263 84.1513 38.4223 84.1067C38.9862 83.9524 39.2436 83.3963 39.1374 82.8564L39.1414 82.8645Z" fill="var(--fill-0, #323232)"/>
<path id="Vector_17" d="M32.3325 88.8029C31.6297 89.1967 30.931 89.5945 30.2364 90.0045C29.8115 90.2562 29.693 90.6621 29.7706 91.0315C29.362 91.2588 28.9616 91.5146 28.5816 91.8028C26.7388 93.1871 25.6479 95.3142 24.8593 97.421C24.3608 98.7525 23.9604 100.149 23.7356 101.558C23.7111 101.704 23.7152 101.85 23.7356 101.992H25.7255C25.8889 101.014 26.1463 100.043 26.4405 99.0975C26.9921 97.3358 27.7521 95.505 28.9902 94.1613C30.3998 92.635 32.7411 91.6445 34.9148 91.9002C36.2019 92.0504 37.4604 92.5254 38.6616 92.9881C39.8098 93.4306 40.8558 94.0314 41.7629 94.8676C43.7977 96.7471 45.0521 99.3167 45.9019 101.907C45.9142 101.939 45.9264 101.963 45.9387 101.992H47.8713C47.9408 101.813 47.949 101.602 47.8713 101.367C47.0092 98.7322 45.7794 96.1626 43.8835 94.1045C41.9018 91.9571 39.1152 90.723 36.2877 90.0897C35.7238 89.9639 35.1559 89.8908 34.6002 89.8705C35.4133 89.424 36.2264 88.9815 37.0436 88.5472C37.3419 88.3888 37.6442 88.2305 37.9466 88.0722V85.7827C36.0589 86.757 34.1916 87.7637 32.3407 88.807L32.3325 88.8029Z" fill="var(--fill-0, #323232)"/>
<path id="Vector_18" d="M53.8976 79.568C52.112 79.7831 50.3878 80.3027 48.7003 80.9116C46.6287 81.6626 44.6061 82.5435 42.6122 83.4731C41.035 84.2079 39.4783 84.9832 37.9297 85.7789V88.0684C41.3455 86.2701 44.8554 84.5367 48.3938 83.1849C49.3867 82.8033 50.3918 82.4502 51.4133 82.1538C51.871 82.0199 52.3327 81.8981 52.7985 81.7966C53.0109 81.7479 53.2275 81.7073 53.4441 81.6667C53.5544 81.6464 53.6647 81.6302 53.775 81.6139C53.8036 81.6099 53.8281 81.6058 53.8567 81.6017C53.869 81.6017 53.8772 81.6017 53.8976 81.5977C54.249 81.5571 54.5636 81.3947 54.7516 81.1309C54.1959 80.9928 53.6279 80.8913 53.0477 80.8345C53.6238 80.8913 54.1918 80.9928 54.7516 81.1309C54.8578 80.9807 54.9191 80.798 54.9191 80.5828C54.9191 80.0835 54.4492 79.503 53.8976 79.568Z" fill="var(--fill-0, #323232)"/>
<path id="Vector_19" d="M58.3207 81.8083C58.1164 81.9382 57.953 82.133 57.8672 82.3482C58.3003 82.5877 58.7212 82.8556 59.1216 83.1438C58.8315 82.7054 58.5577 82.2589 58.3166 81.8042L58.3207 81.8083Z" fill="var(--fill-0, #323232)"/>
<path id="Vector_20" d="M87.9823 97.4086C87.2795 97.4938 86.5726 97.4898 85.8821 97.4005C86.0659 97.2381 86.2457 97.0757 86.4173 96.9012C87.3367 95.9675 85.8943 94.5305 84.9709 95.4641C84.4929 95.9513 83.9576 96.3613 83.3856 96.6982C82.6378 96.3613 81.935 95.9188 81.3058 95.3789C80.3865 94.5873 79.6387 93.6455 79.1157 92.5495C78.4988 91.2545 78.3394 89.781 78.2822 88.3683C78.2168 86.7527 78.2822 85.1289 78.1106 83.5133C77.9471 81.9991 77.5794 80.554 76.9788 79.1535C75.8511 76.5108 73.9797 74.2294 71.5935 72.6097C69.2482 71.0185 66.4166 70.1254 63.5769 70.032C64.0835 69.6301 64.5861 69.2242 65.0764 68.8101C67.0417 67.158 68.9989 65.5058 70.0817 63.131C71.0419 61.0242 71.426 58.7225 71.4301 56.4209C71.4382 54.1395 71.095 51.8459 70.5393 49.6376C70.0204 47.5551 69.3381 45.424 68.2675 43.5526C65.6893 39.0345 61.0231 36.0224 56.1772 34.354C50.0891 32.2593 43.2166 32.5313 37.5044 35.6165C37.0509 35.86 36.9364 36.2781 37.0304 36.6597C37.3328 36.4892 37.6352 36.3309 37.9334 36.1807C37.6352 36.3268 37.3369 36.4892 37.0304 36.6597C37.0795 36.8586 37.1898 37.0413 37.3369 37.1915C37.627 37.4838 38.0683 37.6259 38.5341 37.3701C43.286 34.8005 49.0145 34.3946 54.1792 35.856C58.637 37.1225 63.1029 39.5825 65.7874 43.443C66.9519 45.1195 67.6669 47.0031 68.2348 48.9516C68.815 50.9447 69.2236 52.9907 69.3421 55.065C69.4606 57.1231 69.3258 59.1772 68.6802 61.1419C68.3697 62.0878 67.9284 62.9768 67.3482 63.8008C66.6577 64.7832 65.7138 65.5626 64.819 66.3542C63.0988 67.8684 61.3092 69.3257 59.3847 70.576C58.972 70.8439 58.5471 71.1159 58.1099 71.3554C58.0935 71.0225 57.9382 70.6978 57.6155 70.5394C57.3254 70.3974 57.0393 70.239 56.7615 70.0645C56.643 69.9874 56.5245 69.9102 56.406 69.8291C56.3447 69.7885 56.2875 69.7438 56.2262 69.6991C56.2262 69.6991 56.2222 69.6992 56.2181 69.691C55.7686 69.3176 55.3518 68.9197 54.9759 68.4773C54.886 68.3717 54.8002 68.2662 54.7144 68.1606C54.7104 68.1525 54.7063 68.1525 54.7022 68.1485C54.6981 68.1403 54.694 68.1403 54.6899 68.1282C54.645 68.0673 54.6 68.0064 54.5551 67.9455C54.3794 67.706 54.2078 67.4584 54.0402 67.2107C53.6725 66.6587 53.3293 66.0985 52.982 65.5342C52.7041 65.0796 52.0545 64.8685 51.5846 65.1689C51.5764 65.1729 51.5723 65.177 51.5682 65.181C52.0586 66.0092 52.5816 66.7845 53.46 67.4381C52.5775 66.7804 52.0545 66.0092 51.5682 65.181C51.1229 65.4774 50.9267 66.0782 51.2209 66.5572C51.9319 67.7141 52.651 68.8751 53.5377 69.9143C54.265 70.7668 55.1516 71.4812 56.1282 72.0333C56.1649 74.0792 56.2017 76.1211 56.2426 78.167C56.2467 78.4674 56.2548 78.7638 56.2589 79.0642C56.2671 79.6122 56.7206 80.079 57.2804 80.079C57.3744 80.079 57.4684 80.0587 57.5582 80.0344C57.3785 79.5066 57.2355 78.9667 57.1415 78.3984C57.2355 78.9627 57.3785 79.5066 57.5582 80.0344C57.9791 79.9085 58.3101 79.5188 58.3019 79.0642C58.2692 77.2131 58.2324 75.362 58.1997 73.5109C58.3019 73.4906 58.4081 73.4622 58.5103 73.4176C58.7881 73.2998 59.0619 73.1537 59.3234 72.9994C60.7371 75.159 61.8076 77.5054 62.49 79.9938C62.6371 80.5215 63.2173 80.8462 63.7485 80.7042C63.9078 80.6595 64.0468 80.5783 64.1612 80.4687C64.4308 80.217 64.5657 79.8273 64.4635 79.4539C63.728 76.7787 62.5717 74.2173 61.0436 71.8993C61.1049 71.8588 61.1662 71.8182 61.2234 71.7776C61.4113 71.9805 61.6728 72.1145 61.9547 72.0901C67.6669 71.6517 73.1952 74.9398 75.2586 80.3023C75.7734 81.6338 76.0554 83.018 76.1412 84.4388C76.2392 86.0869 76.1575 87.7391 76.3005 89.3832C76.5497 92.2369 77.608 94.8431 79.8063 96.7631C80.1699 97.0798 80.5581 97.3761 80.9626 97.644C79.271 98.0216 77.4568 97.916 75.7939 97.3518C72.4475 96.2151 69.9264 93.4385 68.435 90.3331C67.483 88.3521 66.9437 86.1884 66.625 84.0207C66.5473 83.4767 65.8527 83.1804 65.3665 83.3103C65.3542 83.3103 65.3461 83.3184 65.3379 83.3225C65.7547 84.7636 65.9099 86.2452 65.7261 87.7269C65.914 86.2452 65.7547 84.7636 65.3379 83.3225C64.7741 83.493 64.5779 84.0248 64.6555 84.5606C64.8272 85.7419 65.0805 86.9191 65.4196 88.072C64.7168 87.1911 63.9895 86.3264 63.2255 85.4902C62.0732 84.2318 60.8515 83.0343 59.5767 81.8976C59.1722 81.5363 58.686 81.5769 58.3264 81.8043C58.5675 82.2589 58.8412 82.7014 59.1314 83.1439C60.6391 84.2277 61.9261 85.6485 62.8659 87.3251C61.9261 85.6485 60.6432 84.2318 59.1314 83.1439C58.7268 82.8516 58.3101 82.5877 57.877 82.3482C57.7544 82.6649 57.7952 83.0343 58.1344 83.3387C62.4818 87.2073 66.1101 91.8107 68.8436 96.9336C69.6159 98.3869 70.3187 99.8726 70.9397 101.399C71.0419 101.647 71.2053 101.858 71.4178 101.992H72.4434C72.8152 101.76 73.0808 101.281 72.9092 100.859C72.3903 99.5763 71.81 98.3179 71.189 97.0838C73.8734 99.1866 77.2485 100.295 80.7052 99.7712C81.6735 99.625 82.6174 99.3327 83.5081 98.9268C84.9382 99.4261 86.4664 99.6291 87.9823 99.4423C88.5298 99.3733 89.0037 99.0242 89.0037 98.4275C89.0037 97.9322 88.5339 97.3436 87.9823 97.4126V97.4086Z" fill="var(--fill-0, #323232)"/>
<path id="Vector_21" d="M44.2087 52.4796C42.2148 56.1615 41.1769 60.3224 41.2219 64.5036C41.2464 66.651 41.5855 68.7619 42.1249 70.8362C42.6397 72.8172 43.2526 74.8347 42.9298 76.901C42.8031 77.7047 42.6029 78.5207 42.1044 79.162C41.7326 79.6451 41.1974 79.8806 40.4946 79.8806C39.1789 79.8806 39.1789 81.9102 40.4946 81.9102C42.3782 81.9102 43.7511 80.7817 44.4457 79.0971C45.2261 77.1973 45.1648 75.0499 44.7767 73.0729C44.3517 70.9012 43.6081 68.8106 43.3833 66.5942C43.1709 64.5117 43.2322 62.3927 43.5999 60.3305C44.0289 57.9436 44.8175 55.6378 45.9738 53.5026C46.5949 52.3538 44.8339 51.3268 44.2087 52.4796Z" fill="var(--fill-0, #323232)"/>
<path id="Vector_22" d="M45.1759 48.9315C45.4741 48.4241 45.2616 47.8598 44.8081 47.5432C41.8744 45.4891 39.5822 42.5176 38.3523 39.1686C38.1766 38.6896 37.7272 38.3608 37.2123 38.442C37.1756 38.4461 37.1347 38.4501 37.0979 38.4623C36.5994 38.6003 36.1949 39.193 36.3829 39.7126C37.8089 43.5934 40.379 46.9221 43.7785 49.3009C43.8357 49.3415 43.901 49.374 43.9664 49.3983C44.4036 49.5526 44.947 49.3252 45.1759 48.9396V48.9315Z" fill="var(--fill-0, #323232)"/>
<path id="Vector_23" d="M44.8208 39.1847C44.212 38.0278 42.4468 39.0507 43.0556 40.2077C45.0332 43.9667 46.0792 48.1357 46.165 52.3574C46.3939 52.5239 46.6472 52.6822 46.925 52.8202C46.925 53.7255 47.0517 54.7525 46.9536 55.7673C47.0149 55.7795 47.0721 55.7876 47.1334 55.7876C47.7177 55.7876 48.1181 55.3208 48.1549 54.7728C48.5186 49.386 47.3377 43.9626 44.8208 39.1806V39.1847Z" fill="var(--fill-0, #323232)"/>
<path id="Vector_24" d="M46.9243 52.8246C46.6465 52.6866 46.3931 52.5283 46.1643 52.3618C46.1807 53.1656 46.1643 53.9734 46.1112 54.7771C46.0785 55.2602 46.4912 55.6824 46.9529 55.7717C47.051 54.7569 46.9243 53.7298 46.9243 52.8246Z" fill="var(--fill-0, #323232)"/>
<path id="Vector_25" d="M46.3947 66.1958C46.3662 66.1958 46.3336 66.2121 46.2969 66.2325C46.3417 66.2162 46.3947 66.1958 46.3947 66.1958Z" fill="var(--fill-0, white)"/>
<path id="Vector_26" d="M46.2753 66.2444C46.2263 66.2728 46.1813 66.3094 46.1445 66.3337C46.1282 66.3459 46.1077 66.3621 46.1037 66.3703C46.0791 66.3906 46.0587 66.419 46.0383 66.4433C46.0301 66.4555 46.0056 66.4839 45.9607 66.5245C45.9484 66.5448 45.932 66.5692 45.9198 66.5895C45.8994 66.626 45.8789 66.6625 45.8585 66.6991C45.8422 66.7518 45.8258 66.8046 45.8095 66.8615C45.8095 66.8777 45.7972 66.9102 45.7891 66.9589C45.7891 67.032 45.7891 67.1091 45.7891 67.1821C45.7931 67.2065 45.8013 67.2309 45.8054 67.2552C45.8136 67.2836 45.8217 67.308 45.8299 67.3364C45.8299 67.3283 45.8422 67.3526 45.8667 67.442C45.883 67.4704 45.8953 67.4988 45.9116 67.5231C45.9239 67.5475 45.9402 67.5678 45.9566 67.5881C45.9852 67.6124 46.0056 67.6368 46.0179 67.649C46.0546 67.6896 46.0914 67.7302 46.1282 67.7667C46.1404 67.7748 46.1568 67.787 46.1691 67.7951C46.1977 67.8114 46.2303 67.8276 46.2589 67.8438C46.2753 67.8479 46.3039 67.8641 46.3488 67.8925C46.3774 67.9007 46.406 67.9128 46.4305 67.921C46.4673 67.9331 46.5082 67.9413 46.545 67.9494C46.6022 67.9494 46.6594 67.9534 46.7166 67.9534C46.7206 67.9494 46.7574 67.9453 46.831 67.9453C46.9004 67.9291 46.9699 67.9088 47.0353 67.8885C47.0598 67.8763 47.0843 67.8641 47.1047 67.852C47.1783 67.8114 47.2437 67.7586 47.3172 67.7139C47.0394 67.8763 47.2641 67.7505 47.3376 67.6774C47.354 67.6571 47.3744 67.6409 47.3907 67.6206C47.4357 67.5475 47.4806 67.4744 47.5256 67.3973C47.5256 67.3811 47.5338 67.3689 47.5378 67.3567C47.546 67.3242 47.5664 67.2796 47.5787 67.2309C47.5787 67.2268 47.5787 67.2227 47.5787 67.2187C47.5787 67.1659 47.5828 67.1131 47.5869 67.0604C47.5869 67.0482 47.5869 67.036 47.5869 67.0238C47.5828 67.0117 47.5787 66.9792 47.5787 66.9142C47.5583 66.8412 47.5419 66.7681 47.5174 66.6991C47.497 66.6625 47.4806 66.626 47.4602 66.5895C47.4439 66.5611 47.4234 66.5326 47.403 66.5042C47.3499 66.4515 47.2927 66.3946 47.2396 66.3419C47.211 66.3256 47.1864 66.3053 47.1578 66.2891C47.1211 66.2688 47.0843 66.2485 47.0434 66.2282C46.9658 66.2038 46.8841 66.1795 46.8024 66.1632C46.7738 66.1632 46.7411 66.1632 46.7125 66.1592C46.6716 66.1592 46.6308 66.1592 46.5899 66.1592C46.5409 66.1673 46.4632 66.1835 46.4387 66.1916C46.3897 66.2038 46.3407 66.2241 46.2916 66.2404C46.2835 66.2404 46.2794 66.2404 46.2753 66.2444Z" fill="var(--fill-0, white)"/>
<path id="Vector_27" d="M45.8645 67.4227C45.8563 67.3941 45.8441 67.3615 45.8359 67.333C45.8359 67.3412 45.8441 67.3819 45.8645 67.4227Z" fill="var(--fill-0, white)"/>
<path id="Vector_28" d="M47.5938 66.8457C47.5938 66.8742 47.5938 66.8946 47.5938 66.915C47.5938 66.9231 47.5938 66.9272 47.5978 66.9313C47.5978 66.9028 47.5938 66.8742 47.5938 66.8457Z" fill="var(--fill-0, white)"/>
<path id="Vector_29" d="M45.9375 66.5494C45.9375 66.5494 45.9539 66.533 45.9662 66.5248C45.9662 66.5248 45.9662 66.5207 45.9703 66.5166C45.958 66.5289 45.9498 66.5412 45.9375 66.5494Z" fill="var(--fill-0, white)"/>
<path id="Vector_30" d="M45.8594 67.4219C45.8675 67.4463 45.8757 67.4708 45.8838 67.4952C45.8798 67.4749 45.8716 67.4585 45.8675 67.4382C45.8675 67.4382 45.8675 67.4382 45.8675 67.4341C45.8675 67.43 45.8675 67.426 45.8594 67.4219Z" fill="var(--fill-0, white)"/>
<path id="Vector_31" d="M45.9891 66.4848C45.9891 66.4848 45.9728 66.5092 45.9688 66.5174C45.9932 66.4929 46.0177 66.4685 46.0421 66.4399C46.0543 66.4155 46.0217 66.4318 45.9891 66.4807V66.4848Z" fill="var(--fill-0, white)"/>
<path id="Vector_32" d="M46.7344 67.9497C46.7344 67.9497 46.7711 67.9579 46.82 67.9497C46.82 67.9497 46.82 67.9497 46.824 67.9497C46.8077 67.9497 46.7914 67.9497 46.7792 67.9497C46.7629 67.9497 46.7507 67.9497 46.7344 67.9497Z" fill="var(--fill-0, white)"/>
<path id="Vector_33" d="M46.9137 67.9419C46.8893 67.9419 46.873 67.9419 46.8526 67.9419C46.8444 67.9419 46.8363 67.946 46.8281 67.95C46.8567 67.95 46.8852 67.9419 46.9137 67.9419Z" fill="var(--fill-0, white)"/>
<path id="Vector_34" d="M45.7976 66.9312C45.7935 66.9556 45.7894 66.9841 45.7812 67.0086C45.7853 66.9841 45.7894 66.9719 45.7935 66.9515C45.7935 66.9515 45.7935 66.9515 45.7935 66.9475C45.7935 66.9434 45.7935 66.9352 45.7935 66.9312H45.7976Z" fill="var(--fill-0, white)"/>
<path id="Vector_35" d="M46.3934 67.9174C46.3934 67.9174 46.3685 67.9008 46.352 67.8926C46.352 67.8926 46.3479 67.8926 46.3438 67.8926C46.3603 67.9008 46.3768 67.9091 46.3934 67.9215V67.9174Z" fill="var(--fill-0, white)"/>
<path id="Vector_36" d="M46.2996 67.873C46.2996 67.873 46.3363 67.8853 46.3526 67.8893C46.3241 67.873 46.2996 67.8567 46.2711 67.8445C46.2344 67.8323 46.2466 67.8527 46.2996 67.873Z" fill="var(--fill-0, white)"/>
<path id="Vector_37" d="M45.8094 66.8581C45.8217 66.797 45.7972 66.8663 45.7891 66.9315C45.7891 66.9233 45.789 66.9152 45.7931 66.907C45.7931 66.8907 45.8054 66.8744 45.8094 66.8581Z" fill="var(--fill-0, white)"/>
<path id="Vector_38" d="M46.0054 67.6495C46.038 67.7025 46.0665 67.7025 46.0299 67.6495C46.0095 67.6291 45.9891 67.6088 45.9688 67.5884C45.981 67.6088 45.9932 67.6251 46.0054 67.6454V67.6495Z" fill="var(--fill-0, white)"/>
<path id="Vector_39" d="M45.9375 67.564C45.9375 67.564 45.958 67.5845 45.9703 67.5968C45.958 67.5886 45.9539 67.5804 45.9416 67.5681L45.9375 67.564Z" fill="var(--fill-0, white)"/>
<path id="Vector_40" d="M47.606 67.0246C47.606 67.0246 47.606 67.0042 47.606 66.996C47.606 66.9838 47.606 66.9716 47.6019 66.9553C47.6019 66.9471 47.5978 66.9349 47.5938 66.9268C47.5938 66.9553 47.5938 66.9879 47.5978 67.0164C47.5978 67.0205 47.5978 67.0246 47.6019 67.0205L47.606 67.0246Z" fill="var(--fill-0, white)"/>
<path id="Vector_41" d="M47.6055 67.142C47.6055 67.142 47.6055 67.1296 47.6055 67.1255C47.6055 67.142 47.6055 67.1668 47.6013 67.1875C47.6013 67.171 47.6096 67.1544 47.6096 67.142H47.6055Z" fill="var(--fill-0, white)"/>
<path id="Vector_42" d="M45.8359 67.3325C45.8441 67.3611 45.8563 67.3937 45.8645 67.4222C45.8645 67.4263 45.8645 67.4303 45.8726 67.4344C45.8726 67.4344 45.8726 67.4344 45.8726 67.4385C45.8482 67.3488 45.8359 67.3244 45.8359 67.3325Z" fill="var(--fill-0, #323232)"/>
<path id="Vector_43" d="M45.9688 67.5884C45.9894 67.6091 46.0101 67.6297 46.0308 67.6504C46.0184 67.6339 45.9977 67.6132 45.9688 67.5884Z" fill="var(--fill-0, #323232)"/>
<path id="Vector_44" d="M46.0384 66.4399C46.0139 66.4685 45.9895 66.4929 45.965 66.5174C45.965 66.5174 45.965 66.5214 45.9609 66.5255C46.0058 66.4848 46.0302 66.4562 46.0384 66.444V66.4399Z" fill="var(--fill-0, #323232)"/>
<path id="Vector_45" d="M45.7931 66.9065C45.7931 66.9065 45.7931 66.9228 45.7891 66.931C45.7891 66.935 45.7891 66.9432 45.7891 66.9473C45.7891 66.9473 45.7891 66.9473 45.7891 66.9513C45.8013 66.9065 45.8054 66.8739 45.8094 66.8535C45.8054 66.8698 45.7972 66.8861 45.7931 66.9024V66.9065Z" fill="var(--fill-0, #323232)"/>
<path id="Vector_46" d="M46.3471 67.8892C46.3471 67.8892 46.3512 67.8892 46.3553 67.8892C46.3145 67.8648 46.2819 67.8485 46.2656 67.8403C46.2942 67.8526 46.3186 67.8689 46.3471 67.8852V67.8892Z" fill="var(--fill-0, #323232)"/>
<path id="Vector_47" d="M47.6019 67.0205C47.6019 66.992 47.6019 66.9594 47.5978 66.9308C47.5978 66.9227 47.5978 66.9186 47.5938 66.9146C47.5938 66.9798 47.5978 67.0124 47.6019 67.0246V67.0205Z" fill="var(--fill-0, #323232)"/>
<path id="Vector_48" d="M46.7344 67.95C46.7344 67.95 46.7629 67.95 46.7792 67.95C46.7955 67.95 46.8118 67.95 46.824 67.95C46.8322 67.95 46.8403 67.946 46.8485 67.9419C46.771 67.9419 46.7385 67.946 46.7344 67.95Z" fill="var(--fill-0, #323232)"/>
<path id="Vector_49" d="M22.1755 93.9828C22.2205 92.1317 22.482 90.1548 22.0897 88.3281C21.8323 87.1265 21.3215 85.9939 20.8353 84.8694C20.3327 83.7125 19.8996 82.5718 19.585 81.35C18.919 78.7601 18.1917 76.1864 17.4399 73.6249C17.0844 72.4152 16.7248 71.2055 16.3612 69.9958C16.0588 68.985 15.8259 67.8849 15.1804 67.0203C14.4898 66.0988 13.4397 65.6969 12.3325 66.1313C11.1966 66.5737 10.4979 67.5521 10.4161 68.7577C10.3589 69.5736 10.5959 70.4545 10.7471 71.2542C10.9105 72.1229 11.0944 72.9876 11.2865 73.8482C11.7645 75.9915 12.2875 78.1268 12.8391 80.258C12.1118 79.8399 11.3273 79.5313 10.5101 79.4299C8.84714 79.2309 7.37211 80.1078 6.71427 81.6219C6.54674 82.0035 6.44051 82.3892 6.38331 82.7789C6.33836 82.7829 6.29341 82.787 6.24846 82.7991C5.01859 83.0995 3.79281 83.7815 3.37604 84.9993C2.1666 85.0359 1.00619 85.7138 0.38921 86.7571C-0.284972 87.8977 0.029651 89.3551 0.483192 90.5201C0.622114 90.8774 0.773293 91.2265 0.928559 91.5756C0.948989 91.6243 0.973506 91.6771 0.993936 91.7258C0.993936 91.7339 0.998021 91.7379 1.00619 91.7582C1.05522 91.88 1.10426 92.0018 1.1492 92.1276C1.34124 92.627 1.52511 93.1303 1.77435 93.6053C1.95005 93.9422 2.17477 94.2548 2.43219 94.5227C2.41993 94.6363 2.42402 94.7541 2.44853 94.8718C2.82036 96.8041 2.61605 98.9068 3.67023 100.66C3.9685 101.156 4.34033 101.586 4.74484 101.996H7.84607C7.62543 101.805 7.4007 101.619 7.18006 101.432C6.55082 100.9 5.86439 100.352 5.43536 99.6375C5.03085 98.9677 4.85925 98.0787 4.77344 97.2871C4.70807 96.6539 4.65494 96.0206 4.57731 95.3914C5.48439 95.3305 6.65298 94.884 7.29856 94.1452H7.30674C7.91963 94.2954 8.5938 94.2385 9.18626 94.0274C10.0688 93.7108 10.9146 93.0573 11.2252 92.2332C11.8667 92.1845 12.4795 91.9896 13.0189 91.6446C13.7707 93.4754 13.0311 95.704 12.8391 97.5957C12.786 98.1437 13.3458 98.6105 13.8606 98.6105C14.4571 98.6105 14.829 98.1437 14.8821 97.5957C15.0823 95.6147 15.6666 93.6256 15.1845 91.6405C14.7881 90.0208 13.5296 88.8679 12.5817 87.5608C12.361 87.2564 12.1486 86.9438 11.9647 86.615C11.7809 86.2943 11.7114 86.14 11.6215 85.8396C11.6215 85.8478 11.597 85.73 11.5847 85.6732C11.5847 85.6367 11.5765 85.5961 11.5765 85.588C11.5765 85.5717 11.5684 85.5352 11.5643 85.5027C11.5643 85.4824 11.5766 85.4581 11.5806 85.4337C11.6092 85.385 11.695 85.2226 11.6052 85.3484C11.7318 85.1739 11.7032 85.2551 11.8544 85.1374C11.8666 85.1292 11.8667 85.1252 11.8748 85.1171C11.8912 85.1171 11.9116 85.1171 11.9443 85.1049C11.9565 85.1049 11.9647 85.1049 11.9811 85.1089C12.0137 85.1171 12.0464 85.1211 12.075 85.1292C12.1241 85.1414 12.1731 85.1617 12.2221 85.178C12.2303 85.182 12.2385 85.1861 12.2507 85.1901C12.8473 85.5189 13.1006 85.7382 13.6114 86.1969C15.2784 87.7029 16.8147 89.3348 18.5145 90.8043C18.9313 91.1615 19.5482 91.2102 19.9609 90.8043C20.1284 90.6378 20.2224 90.4065 20.2469 90.1629C20.2837 91.2346 20.1816 92.3266 20.153 93.3861C20.0998 95.501 20.0631 97.616 20.0672 99.7309C20.0672 100.482 20.0712 101.237 20.0835 101.988H22.0979C22.0162 99.3209 22.1183 96.6295 22.1796 93.9787L22.1755 93.9828ZM5.61924 92.9436C5.41494 93.0735 5.1943 93.175 4.96548 93.2521C4.83473 93.2967 4.68764 93.3455 4.54872 93.3617C4.50786 93.3658 4.27904 93.3455 4.25861 93.3536C4.21366 93.3414 4.16464 93.3252 4.14829 93.3211C4.10335 93.2968 4.06249 93.2724 4.02163 93.248C4.01346 93.2277 3.85411 93.0897 3.83368 93.0654C3.81733 93.0451 3.80506 93.0329 3.79689 93.0248C3.78872 93.0126 3.78055 92.9964 3.76012 92.9639C3.65389 92.7934 3.55174 92.6188 3.46593 92.4402C3.45367 92.4118 3.34336 92.1682 3.34745 92.1764C3.31067 92.0911 3.27799 92.0018 3.2453 91.9166C3.16767 91.7136 3.09003 91.5066 3.00831 91.3036C2.79584 90.7677 2.54251 90.2481 2.35047 89.7042C2.14618 89.1237 2.06446 88.6122 2.05629 88.0033C2.06037 87.9789 2.06854 87.9546 2.07671 87.9302C2.07671 87.9424 2.12574 87.8166 2.15025 87.7719C2.15843 87.7597 2.23606 87.6461 2.2524 87.6217C2.32595 87.5365 2.40359 87.4553 2.4894 87.3822C2.68144 87.2117 2.95928 87.0859 3.25347 87.0372C3.36787 87.9059 3.63755 88.7705 3.93174 89.5621C4.36893 90.7271 4.90419 91.9084 5.64783 92.9152C5.61923 92.9355 5.5988 92.9517 5.61515 92.9395L5.61924 92.9436ZM9.16175 91.7379C9.16175 91.7379 9.01466 91.8557 9.01466 91.8597C8.78585 92.018 8.63875 92.0789 8.43445 92.1358C8.14026 92.221 8.17704 92.221 7.87468 92.1967C8.08715 92.2129 7.76027 92.152 7.76027 92.1682C7.70715 92.1398 7.65404 92.1195 7.59684 92.0952C7.57232 92.0708 7.41296 91.8841 7.40071 91.876C7.34759 91.8029 7.29447 91.7298 7.24544 91.6568C6.92673 91.1899 6.65707 90.6906 6.40782 90.1832C5.88073 89.1034 5.3986 87.8084 5.27602 86.6799C5.24742 86.4161 5.22289 86.1319 5.25149 85.868C5.27601 85.6651 5.3373 85.5149 5.45171 85.389C5.70095 85.1089 6.06051 84.9587 6.45276 84.8451C6.54674 85.3525 6.68567 85.8559 6.85319 86.3471C7.14329 87.2036 7.45382 88.052 7.75618 88.9045C8.01768 89.6392 8.2465 90.4308 8.70413 91.0722C8.86756 91.3036 9.04326 91.4944 9.23938 91.6568C9.21487 91.6852 9.19035 91.7095 9.16175 91.7339V91.7379ZM12.2099 85.1698C12.1486 85.1414 12.1445 85.1455 12.2099 85.1698ZM19.9568 89.3713C18.2857 87.9302 16.7698 86.3349 15.1436 84.8491C14.1752 83.9642 12.8922 82.8194 11.4581 83.1361C9.77056 83.5095 9.19852 85.316 9.7869 86.7814C10.1138 87.5933 10.5959 88.3077 11.1271 89.0019C11.3804 89.3307 11.646 89.6595 11.8993 89.9802C11.8789 89.9965 11.8585 90.0086 11.8381 90.0208C11.6419 90.171 10.9718 90.2563 10.5959 90.1791C10.5469 90.1304 10.4938 90.0817 10.4488 90.0249C10.3794 89.9356 10.3222 89.8219 10.2691 89.7245C10.1097 89.4363 10.0075 89.1318 9.89723 88.8233C9.61121 88.0236 9.3252 87.2239 9.04327 86.4242C8.76951 85.657 8.46715 84.8613 8.37725 84.0494C8.26693 83.063 8.55703 81.626 9.74196 81.4393C11.0413 81.2363 12.4714 82.3445 13.3866 83.1442C13.7339 83.4487 14.2242 83.5217 14.6165 83.3025C15.1477 83.201 15.6216 82.7383 15.4378 82.0685C14.8371 79.8399 14.2692 77.6031 13.7339 75.3542C13.3376 73.6858 12.9576 72.0133 12.6512 70.3287C12.5245 69.6386 12.2998 69.0053 12.5572 68.437C12.6512 68.23 12.8841 68.1204 13.1701 67.9864C13.4111 67.8768 13.3131 67.958 13.2681 67.9702C13.1496 67.9986 13.3907 68.0311 13.2845 67.9702C13.3744 68.0229 13.4643 68.1041 13.5296 68.1934C14.0772 68.916 14.2365 69.9958 14.5021 70.8889C14.8453 72.0417 15.1885 73.1906 15.5277 74.3434C16.2345 76.7547 16.9169 79.1741 17.5502 81.6097C17.8648 82.8194 18.2448 83.9561 18.7351 85.1049C19.1764 86.1319 19.6504 87.1508 19.965 88.2266C20.1162 88.7502 20.1938 89.2861 20.2306 89.83C20.1897 89.6555 20.108 89.4972 19.965 89.3754L19.9568 89.3713Z" fill="var(--fill-0, #323232)"/>
</g>
<g id="Group_4">
<path id="Vector_50" d="M27.315 15.9288C27.0657 15.6803 26.8587 15.4128 26.6799 15.1309C26.5105 15.3889 26.3177 15.6326 26.1013 15.8667C25.739 16.2537 25.3297 16.5642 24.8828 16.8127C25.4003 17.1758 25.8566 17.644 26.2189 18.2652C26.3929 18.5614 26.5341 18.8767 26.6658 19.1921C26.7834 18.934 26.9151 18.6808 27.0704 18.4371C27.5032 17.773 28.0865 17.2809 28.7451 16.8843C28.223 16.655 27.7384 16.3492 27.3197 15.9288H27.315Z" fill="var(--fill-0, #FAD264)"/>
<path id="Vector_51" d="M32.8498 15.3125C31.6266 15.1644 29.9142 15.1787 28.9828 14.2375C28.0513 13.301 27.976 11.8151 27.9007 10.5585C27.9196 10.0855 27.929 9.6173 27.929 9.15385C27.929 7.61538 25.5768 7.61538 25.5768 9.15385C25.5768 9.46918 25.5768 9.79886 25.5768 10.1333C25.5532 10.2384 25.5391 10.3531 25.5485 10.4821C25.5532 10.5585 25.5579 10.6398 25.5626 10.7162C25.5109 11.9728 25.2945 13.2628 24.4477 14.1706C23.3892 15.3029 21.6157 15.3841 20.1761 15.4463C19.541 15.4749 19 15.9766 19 16.6407C19 17.3526 19.541 17.754 20.1761 17.8352C21.7991 18.0406 23.6338 18.1696 24.4007 19.861C25.1392 21.4902 25.2616 23.4013 25.5721 25.1453C25.7791 26.311 27.5996 26.2585 27.8396 25.1453C28.0325 24.2614 28.1313 23.3536 28.2771 22.4601C28.4135 21.6097 28.5546 20.6254 28.9592 19.8801C29.6837 18.5375 31.8195 18.1505 33.165 17.6536C34.4587 17.1758 34.167 15.4654 32.8545 15.3077L32.8498 15.3125ZM27.0728 18.4372C26.9175 18.6761 26.7858 18.9293 26.6682 19.1921C26.5365 18.8767 26.3953 18.5614 26.2213 18.2652C25.859 17.6441 25.4027 17.1758 24.8852 16.8127C25.3274 16.5643 25.7367 16.2537 26.1036 15.8667C26.32 15.6326 26.5129 15.3889 26.6823 15.1309C26.8611 15.4128 27.0728 15.6804 27.3174 15.9288C27.7361 16.3493 28.2206 16.655 28.7428 16.8844C28.0842 17.2762 27.5009 17.7683 27.0681 18.4372H27.0728Z" fill="var(--fill-0, #323232)"/>
</g>
<path id="Vector_52" d="M78.8472 2.84821H77.1518V1.15275C77.1518 0.549212 76.622 -0.0266865 76 0.000956606C75.378 0.0285997 74.8482 0.507747 74.8482 1.15275V2.84821H73.1528C72.5492 2.84821 71.9733 3.37804 72.001 4.00001C72.0286 4.62198 72.5077 5.1518 73.1528 5.1518H74.8482V6.84725C74.8482 7.45079 75.378 8.02669 76 7.99904C76.622 7.9714 77.1518 7.49225 77.1518 6.84725V5.1518H78.8472C79.4508 5.1518 80.0267 4.62198 79.999 4.00001C79.9714 3.37804 79.4923 2.84821 78.8472 2.84821Z" fill="var(--fill-0, #323232)"/>
</g>
</svg>
