<svg preserveAspectRatio="none" width="100%" height="100%" overflow="visible" style="display: block;" viewBox="0 0 96 245.615" fill="none" xmlns="http://www.w3.org/2000/svg">
<g id="Group">
<path id="Vector" d="M40.7359 59.6854C41.1059 59.7216 41.4758 59.7578 41.8457 59.8031C44.1917 60.12 44.5616 62.3749 45.0488 64.2766C45.4909 66.0062 45.924 67.7359 46.3662 69.4655C46.7722 69.4021 47.1872 69.4021 47.6203 69.4927C48.4955 69.6738 49.2805 70.1719 50.1106 70.4797C50.9407 70.7876 51.7527 71.014 52.5107 71.4396C52.7001 71.1318 53.034 70.9235 53.4129 70.9235H60.8928V66.8031C60.6492 66.459 60.4056 66.1149 60.162 65.7708C58.213 62.9726 56.3363 60.1291 54.5678 57.2222C52.8265 54.3697 51.0851 51.4084 49.894 48.2661C48.2429 48.6193 46.5917 48.9634 44.9586 49.38C43.0367 49.878 41.0517 50.4304 39.3464 51.4537C37.587 52.5042 36.6667 54.5508 35.5839 56.2261C34.9975 57.1316 34.429 58.0372 33.8516 58.9518C33.9237 58.9518 33.9869 58.9699 34.0591 58.9699C36.2877 59.1963 38.5163 59.4318 40.745 59.6582L40.7359 59.6854Z" fill="var(--fill-0, white)"/>
<path id="Vector_2" d="M36.407 91.1539C36.019 91.8512 34.7288 91.9599 34.422 90.9456C34.3679 90.7736 34.2957 90.6015 34.2325 90.4385C34.1874 90.357 34.1603 90.2665 34.1333 90.1759C33.619 88.8357 32.9333 87.586 32.446 86.2367C32.2295 85.639 31.9227 84.6248 31.2099 84.3984C30.9031 84.3078 30.5873 84.8149 30.5422 85.0232C31.1467 86.3906 31.7152 87.7671 32.3017 89.1254C32.825 90.348 31.1467 91.4346 30.47 90.2031C29.9377 89.2341 29.4504 88.2289 29.0354 87.2056C28.8549 86.7619 28.7016 86.3363 28.6023 85.9197C28.3948 85.4579 28.1963 84.9961 27.9797 84.5342C27.7271 83.9909 27.4384 82.8951 26.9602 82.5057C26.2113 81.8899 26.1662 83.1577 26.2654 83.6467C26.6805 84.67 27.0775 85.7024 27.4654 86.7347C27.8354 87.5769 28.2143 88.4372 28.4219 89.3066C28.7377 90.6649 26.8429 91.1449 26.3737 89.8771C26.0218 88.9172 25.6609 87.9573 25.3 87.0064C25.1195 86.608 24.9481 86.2095 24.7947 85.8111C24.6233 85.3583 24.4338 84.8783 24.2894 84.3803C24.1992 84.1539 24.118 83.9275 24.0278 83.7011C23.7481 83.031 23.5044 82.1797 23.0623 81.5911C22.8729 81.3375 23.0172 81.3738 22.6653 81.3828C22.0969 81.3919 22.2232 81.6545 22.3134 82.1707C22.4759 83.1034 22.8097 84.0271 23.1255 84.9145C23.6037 86.2729 24.1451 87.6403 24.6955 88.9172C24.7406 89.0168 24.7857 89.1164 24.8218 89.2251C25.2819 90.348 23.3601 91.1358 22.8819 90.0491C22.8458 89.9676 22.8097 89.8771 22.7736 89.7956C22.6924 89.5963 22.6022 89.379 22.5119 89.1707C22.5029 89.1436 22.4939 89.1254 22.4849 89.0983C21.7901 87.4501 20.9059 85.5394 20.0217 83.9003C19.7149 83.3208 19.3901 82.7502 19.0382 82.2069C18.7495 81.7541 18.3795 81.0749 17.9194 80.7852C17.7479 80.6765 17.6667 80.6855 17.3238 80.8576C17.2426 80.8938 17.2066 80.921 17.1795 80.9391C17.1795 81.0297 17.2156 81.1474 17.2246 81.2017C17.396 81.8899 17.7118 82.5329 17.9825 83.1849C19.0562 85.7658 20.3645 88.1927 21.6458 90.6649C22.0879 91.5161 22.3766 92.3674 23.3601 92.6934C25.0203 93.2458 26.8519 92.4579 28.5482 92.467C30.1813 92.4851 31.7603 92.9017 33.4024 92.8655C34.1784 92.8473 35.8837 92.9288 36.2987 92.1048C36.6596 91.3894 37.4356 91.4618 37.8868 91.8874C37.9589 91.6973 38.0221 91.5071 38.0943 91.3169C37.5349 91.2626 36.9754 91.2083 36.4251 91.1539H36.407Z" fill="var(--fill-0, white)"/>
<path id="Vector_3" d="M17.8873 88.084C17.8873 88.084 17.8873 88.1383 17.8873 88.1655C17.8873 88.6817 17.4001 89.3065 16.8226 89.2341C16.6602 89.216 16.4888 89.1888 16.3264 89.1707C16.3173 89.1797 16.2993 89.1888 16.2813 89.1978C16.3444 89.2884 16.4256 89.4786 16.4707 89.542C16.5158 89.5872 16.561 89.6416 16.6061 89.6778C16.6331 89.7049 16.6602 89.7321 16.6873 89.7593C16.7324 89.7864 16.7865 89.8136 16.8136 89.8317C16.8226 89.8317 16.8316 89.8408 16.8407 89.8498C16.9128 89.877 16.985 89.9042 17.0662 89.9313C17.7429 90.1758 18.4377 90.3298 19.1324 90.4928C18.6993 89.6959 18.2753 88.8899 17.8693 88.084H17.8873Z" fill="var(--fill-0, white)"/>
<path id="Vector_4" d="M52.0703 47.4691C55.5711 49.7059 59.072 51.9426 62.5818 54.1703C64.4044 52.6218 66.4707 51.3087 68.4647 50.0138C69.4843 49.3527 70.5129 48.7007 71.5415 48.0577C71.5956 47.8585 71.6497 47.6502 71.7039 47.4419C71.2347 47.4419 70.8286 47.0978 70.6753 46.6541C70.2873 45.5946 69.8452 44.5532 69.4843 43.4846C69.1685 42.5609 68.979 41.601 68.7985 40.6502C66.3895 42.3526 63.439 43.1948 60.3622 42.6696C58.5757 42.3617 56.8795 41.601 55.3907 40.5415C55.2373 41.8365 54.9576 43.1133 54.4523 44.3268C53.938 45.5493 53.2072 46.7084 52.0793 47.4419C52.0793 47.4419 52.0793 47.442 52.0793 47.451L52.0703 47.4691Z" fill="var(--fill-0, white)"/>
<path id="Vector_5" d="M54.6406 73.0698C54.8121 73.2147 54.9925 73.3506 55.173 73.4864C56.7971 74.6817 58.8633 75.5239 60.74 76.2303C62.5446 76.9094 64.4484 77.4709 66.3792 77.4347C66.2439 77.2717 66.1627 77.0634 66.1627 76.8008C66.1627 76.2755 66.6499 75.6598 67.2274 75.7322C68.0394 75.8409 68.8425 75.9495 69.6545 76.0582C69.7628 76.0763 69.8801 76.0854 69.9884 76.1035V73.0698H54.6406Z" fill="var(--fill-0, white)"/>
<path id="Vector_6" d="M70.348 51.3363C70.1315 51.4721 69.924 51.6079 69.7074 51.7438C67.56 53.1293 65.3043 54.5058 63.4095 56.2354C63.0667 56.5433 62.5343 56.661 62.1193 56.3984C59.2049 54.5329 56.2815 52.6765 53.3672 50.811C53.5657 51.2004 53.7732 51.5898 53.9807 51.9702C56.4439 56.5252 59.2861 60.9081 62.2907 65.1281C62.3719 65.0104 62.4531 64.8926 62.5253 64.7749C64.3479 62.0401 66.0893 59.2419 67.6954 56.3803C68.6067 54.7503 69.554 53.0659 70.339 51.3182L70.348 51.3363Z" fill="var(--fill-0, white)"/>
<path id="Vector_7" d="M71.5515 38.5134C71.3891 38.5406 71.362 38.5406 71.4793 38.5134C71.5244 38.5134 71.5695 38.4953 71.6146 38.4863C71.6868 38.4681 71.75 38.45 71.8222 38.4319C71.9124 38.4048 72.0026 38.3776 72.0838 38.3504C72.0929 38.3504 72.1019 38.3504 72.1109 38.3414C72.1831 38.3051 72.4808 38.1512 72.5079 38.1331C72.562 38.0969 72.6252 38.0606 72.6793 38.0244C72.7154 37.9973 72.7515 37.9701 72.7876 37.9429C72.8778 37.8795 72.8598 37.8886 72.7335 37.9882C72.7966 38.0335 73.2748 37.4539 73.3741 37.3452C73.3921 37.3271 73.4012 37.309 73.4192 37.2909C73.4643 37.2185 73.5094 37.1551 73.5545 37.0826C73.6357 36.9468 73.717 36.811 73.7891 36.6751C73.8252 36.6117 73.9155 36.485 73.9155 36.4125C73.8613 36.5393 73.8523 36.5665 73.8794 36.494C73.8974 36.4578 73.9064 36.4216 73.9245 36.3944C73.9876 36.2314 74.0418 36.0593 74.0869 35.8963C74.132 35.7243 74.1771 35.5522 74.2132 35.3711C74.2313 35.2986 74.2403 35.2262 74.2493 35.1538C74.2493 35.1175 74.2493 35.0723 74.2583 35.036C74.2944 34.6648 74.2944 34.2844 74.2583 33.9041C74.2132 33.3064 74.7816 32.8627 75.323 32.8355C75.9275 32.8083 76.3426 33.3426 76.3877 33.9041C76.4599 34.9998 76.2975 36.1046 75.8914 37.1189C76.4509 36.9196 76.9742 36.6117 77.3621 36.1499C77.9306 35.4707 78.102 34.547 78.1471 33.6867C78.2193 31.939 77.8584 30.2003 77.5155 28.4888C77.3892 28.7061 77.2449 28.9053 77.0734 29.0864C77.2358 29.4215 77.317 29.8018 77.317 30.1731C77.317 30.2546 77.317 30.3271 77.29 30.3995C77.2358 30.9338 77.0283 31.4228 76.6764 31.8394C76.3606 32.2197 75.8554 32.5185 75.3681 32.6091C74.9621 32.6815 74.5741 32.6634 74.1952 32.5638C73.9515 33.5509 73.6357 34.5199 73.1666 35.4798C72.6162 36.6027 71.9214 37.635 71.1094 38.5678C71.3349 38.5768 71.5334 38.5678 71.5425 38.5315L71.5515 38.5134Z" fill="var(--fill-0, white)"/>
<path id="Vector_8" d="M49.8594 37.9425C50.6353 38.0512 51.4564 37.9878 52.2504 37.7161C52.2955 37.698 52.3406 37.698 52.3858 37.689C51.9797 37.1909 51.6008 36.6657 51.2579 36.1133C50.906 36.8106 50.4278 37.4264 49.8594 37.9425Z" fill="var(--fill-0, white)"/>
<path id="Vector_9" d="M77.8034 218.495H70.7566C70.7566 218.495 70.7566 218.576 70.7566 218.613C70.7205 220.306 70.6934 221.954 70.3235 223.62C70.0708 224.743 69.746 225.857 69.5024 226.98C69.5024 227.016 69.4934 227.053 69.4844 227.089C70.6122 227.84 71.6408 228.773 72.5972 229.697C73.2378 230.313 73.8604 230.965 74.4559 231.644C74.492 231.526 74.5281 231.399 74.5822 231.291C74.9071 230.53 75.5206 230.131 76.2695 229.842C77.1808 229.489 78.3628 229.063 79.5177 228.909C78.5432 225.613 77.5146 222.235 77.7853 218.748C77.7853 218.658 77.8034 218.576 77.8124 218.486L77.8034 218.495Z" fill="var(--fill-0, white)"/>
<path id="Vector_10" d="M93.5397 82.5423C93.0434 78.3947 92.2043 74.3016 91.3201 70.2265C90.8599 68.1256 90.4178 66.0337 90.0388 63.9147C89.723 62.1126 89.4162 60.3105 88.92 58.5537C88.4147 56.7607 87.7019 55.0582 86.7004 53.4916C86.0056 52.4049 85.5816 51.9521 84.4988 51.3906C82.2522 50.2315 79.7438 49.5252 77.3167 48.846C76.4325 48.6015 75.5392 48.366 74.646 48.1396C74.637 48.4475 74.4926 48.7645 74.1407 48.9728C73.87 49.1358 73.5993 49.3078 73.3286 49.4708C72.9316 50.639 72.4444 51.78 71.9211 52.8939C69.5301 58.0194 66.4623 62.9004 63.2322 67.546C63.169 67.6456 63.0878 67.7181 63.0156 67.7905V70.9419H71.0549C71.6324 70.9419 72.1196 71.4309 72.1196 72.0105V76.3934C75.1693 76.8009 78.21 77.2084 81.2597 77.616C82.1078 71.6482 81.6657 65.6262 81.8101 59.6223C81.8461 58.2549 83.9665 58.2549 83.9304 59.6223C83.8853 61.5602 83.8943 63.4891 83.9033 65.4179C85.0582 63.6249 86.2222 61.8319 87.3771 60.0388C87.6929 59.5589 88.3155 59.3506 88.8298 59.6585C89.308 59.9392 89.5245 60.6365 89.2087 61.1165C89.0102 61.4334 88.8027 61.7413 88.6042 62.0583C87.1876 64.2497 85.762 66.4503 84.3455 68.6418C84.2282 68.8229 84.0748 68.9587 83.8943 69.0493C83.8672 72.0014 83.7409 74.9536 83.3349 77.8967C84.544 78.0597 85.762 78.2227 86.9711 78.3857C87.5395 78.4581 88.0358 78.8113 88.0358 79.4543C88.0358 79.9704 87.5485 80.5953 86.9711 80.5228C86.159 80.4142 85.356 80.3055 84.544 80.1968C79.031 79.4543 73.5091 78.7207 67.9962 77.9782C68.0142 78.0053 68.0233 78.0144 68.0413 78.0416C68.9887 79.8708 68.9436 81.9989 68.5917 83.9821C68.312 85.5759 67.7706 87.1788 66.9856 88.6096C71.2173 89.7959 75.449 90.9822 79.7168 92.0055C81.2326 92.3677 82.7665 92.6394 84.3094 92.8295C84.3274 92.8295 84.3455 92.8114 84.3635 92.8024C84.6342 92.7299 84.95 92.7842 85.2026 92.9291C85.5725 92.9654 85.9425 93.0106 86.3124 93.0378C87.7109 93.1374 89.1546 93.2008 90.5441 93.0016C91.4193 92.8748 92.5111 92.6756 93.0073 91.8606C93.7291 90.6652 93.7833 88.9265 93.8374 87.5682C93.9096 85.8838 93.7382 84.2357 93.5397 82.5604V82.5423Z" fill="var(--fill-0, white)"/>
<path id="Vector_11" d="M66.4893 83.692C66.6607 82.8498 66.7329 81.9895 66.6968 81.1292C66.6698 80.604 66.5795 80.0425 66.4081 79.5535C62.5734 79.6803 58.6756 77.8239 55.3732 76.0761C54.48 75.6052 53.704 74.908 52.91 74.256C52.7657 74.1926 52.6393 74.093 52.5491 73.9662C51.9897 73.5315 51.4032 73.1421 50.7446 72.9066C49.8423 72.5716 48.94 72.2818 48.0558 71.8924C47.6317 71.7113 47.2618 71.5755 46.8828 71.5664C47.1535 72.644 47.4152 73.7217 47.6768 74.7993C47.8934 74.6997 48.1009 74.6091 48.3174 74.5276C48.8498 74.3103 49.4182 74.102 49.9866 74.0024C50.2844 73.9481 50.537 73.9662 50.8077 74.1111C51.0513 74.2378 51.2137 74.4914 51.2949 74.745C51.3762 74.9985 51.322 75.3336 51.1867 75.569C51.0694 75.7773 50.7987 76.0128 50.5551 76.058C49.9867 76.1577 49.4182 76.3569 48.8769 76.5833C48.6423 76.6829 48.4167 76.8006 48.1911 76.9183C48.3355 77.516 48.4708 78.1227 48.6152 78.7204C49.716 77.9145 50.8077 77.0994 51.9085 76.2935C52.3867 75.9403 53.0724 76.2301 53.3612 76.6738C53.5055 76.9002 53.5416 77.2353 53.4694 77.4979C53.3882 77.7877 53.2078 77.9688 52.9822 78.1318C52.7927 78.2676 52.6033 78.4125 52.4138 78.5484C51.322 79.3543 50.2303 80.1603 49.1385 80.9572C49.2378 81.3919 49.346 81.8265 49.4453 82.2612C49.4904 82.234 49.5265 82.1978 49.5716 82.1706C51.1506 81.0477 52.7296 79.9248 54.3085 78.7929C54.7958 78.4487 55.4725 78.7295 55.7612 79.1732C56.0951 79.6894 55.8334 80.3052 55.3823 80.6312C55.1567 80.7942 54.9311 80.9481 54.7146 81.1111C53.1356 82.234 51.5566 83.3569 49.9776 84.4889C49.9686 84.4889 49.9596 84.498 49.9506 84.507C50.0408 84.9145 50.131 85.313 50.2122 85.7205C50.2303 85.7205 50.2483 85.7295 50.2664 85.7386C50.2664 85.7386 50.2754 85.7386 50.2844 85.7386C50.3476 85.7386 50.4017 85.7386 50.4649 85.7386C50.4919 85.7295 50.5821 85.6842 50.5912 85.6842C50.7355 85.6027 50.8619 85.4941 50.9972 85.3945C51.2859 85.1771 51.5747 84.9688 51.8634 84.7606C53.0724 83.8822 54.1913 83.0943 55.292 82.1254C55.7432 81.736 56.3477 81.7178 56.7898 82.1254C57.1958 82.4966 57.2049 83.2664 56.7898 83.6286C56.5282 83.8641 56.2484 84.0814 55.9778 84.3078C57.0334 84.6881 58.0801 85.0866 59.1718 85.3401C60.5523 85.6661 61.9057 85.4941 63.2862 84.9598C63.8276 84.7515 64.4502 85.1952 64.5945 85.7024C64.6306 85.8472 64.6396 85.9831 64.6216 86.1099C64.9374 86.2185 65.2712 86.3815 65.6051 86.5626C66.0021 85.6299 66.2998 84.6609 66.4983 83.6648L66.4893 83.692Z" fill="var(--fill-0, white)"/>
<path id="Vector_12" d="M83.7669 94.885C81.9533 94.6405 80.1578 94.3055 78.3713 93.8617C74.0584 92.7841 69.7726 91.5887 65.4868 90.3934C64.9995 90.2576 64.774 89.8863 64.7379 89.4969C64.4762 89.198 64.386 88.7724 64.6747 88.3377C65.0356 87.7854 65.3244 87.1967 65.586 86.59C65.2612 86.3998 64.9183 86.2459 64.6025 86.1372C64.5484 86.5447 64.2416 86.8798 63.8356 87.0337C62.2205 87.6586 60.5513 87.8216 58.855 87.4684C58.6656 87.4322 58.4761 87.3688 58.2866 87.3235C58.0249 87.5137 57.7723 87.7039 57.5106 87.9031C55.5347 89.361 53.5587 90.8281 51.5917 92.286C51.3752 92.449 51.1045 92.4672 50.8609 92.4038C50.7165 92.4853 50.536 92.5215 50.3105 92.5034C49.6699 92.44 49.0383 92.3766 48.3977 92.3223C45.6818 92.0596 42.975 91.797 40.2591 91.5344C39.7899 92.8475 39.3207 94.1696 38.8516 95.4827C39.42 95.8721 39.9794 96.2796 40.5117 96.7143C41.4321 97.4659 42.6231 98.4892 42.975 99.7027H60.2085C62.1484 98.7971 64.0161 97.7919 65.7484 96.5332C67.5259 95.2473 69.3124 93.9976 71.2072 92.8928C72.3892 92.2045 73.4629 94.0428 72.2809 94.7311C70.3862 95.8449 68.5996 97.0856 66.8222 98.3715C66.1635 98.8514 65.4687 99.2861 64.774 99.7027H77.4149C78.3984 98.9691 79.5262 98.5254 80.6631 98.0636C80.8165 98.0002 80.9608 97.9458 81.1142 97.8825C81.1413 97.8734 81.2135 97.8372 81.2405 97.8281C81.3217 97.7919 81.4029 97.7557 81.4932 97.7195C81.818 97.5655 82.1428 97.4025 82.4586 97.2304C83.018 96.9135 83.5233 96.5513 84.0015 96.1438C83.9293 95.7272 83.8481 95.3106 83.7759 94.8941L83.7669 94.885Z" fill="var(--fill-0, white)"/>
<path id="Vector_13" d="M42.3533 221.801C42.1097 224.336 41.1081 226.691 39.9081 228.91C39.8811 228.955 39.854 229.009 39.8359 229.064C41.1984 228.656 42.615 228.611 44.0406 228.919C45.7188 229.281 47.1895 230.051 48.3625 231.291C48.57 231.518 48.7685 231.753 48.967 231.989C49.1565 231.472 49.373 230.974 49.6166 230.494C49.6076 230.322 49.5986 230.15 49.5896 229.996C49.5805 228.647 49.2828 227.325 49.2828 225.976C49.2828 224.835 49.4181 223.712 49.5264 222.58C49.6798 220.932 49.7429 219.247 49.8512 217.572C47.406 217.527 44.9609 217.481 42.5247 217.436C42.5247 218.894 42.4977 220.352 42.3623 221.792L42.3533 221.801Z" fill="var(--fill-0, white)"/>
<path id="Vector_14" d="M75.9152 23.7613C75.8069 23.4987 75.6445 23.227 75.4099 23.064C75.1753 22.901 74.8956 22.8467 74.6159 22.8557C74.2821 22.8557 74.1467 23.0821 74.4625 22.738C73.5873 23.6889 72.2068 22.403 72.8204 21.4159C71.6203 20.0122 70.7181 18.4275 70.0323 16.7069C69.3827 15.0678 68.9406 13.3473 68.3722 11.681C68.2458 11.3007 68.3992 10.8931 68.6789 10.6215C68.3451 10.1144 67.9661 9.70686 67.4969 9.47141C67.4518 10.2593 66.4142 10.9384 65.6834 10.214C64.6457 9.18162 62.9856 9.11824 61.6141 9.21785C60.1885 9.32652 58.7268 9.72497 57.5087 10.5038C52.6364 13.6189 52.1673 20.3745 52.0319 25.5905C51.9958 26.9761 51.9688 28.3616 51.9688 29.7471C51.9688 30.3267 51.9958 30.9062 51.9958 31.4949C52.05 31.6216 52.0861 31.7756 52.077 31.9567C52.0139 33.4871 52.8981 34.7549 53.7372 35.9503C54.6124 37.1909 55.6952 38.2866 56.9764 39.1107C59.4035 40.6773 62.3088 41.1845 65.0698 40.2608C67.7766 39.3643 69.897 37.1728 71.1873 34.6734C71.8459 33.4056 72.1707 32.1107 72.4053 30.7614C72.3422 30.5169 72.3241 30.2724 72.3422 30.0278C72.3692 29.7833 72.3963 29.5479 72.4865 29.3215C72.6129 29.0046 72.7482 28.7782 72.9647 28.5155C73.5151 27.8545 74.4896 27.5375 75.3377 27.7277C75.7077 27.3292 75.9693 26.8221 76.0776 26.1792C76.2039 25.4094 76.2039 24.4948 75.8971 23.7704L75.9152 23.7613ZM62.4713 28.5336C63.8427 28.5336 63.8337 30.6617 62.4713 30.6617C61.1088 30.6617 61.1088 28.5336 62.4713 28.5336ZM55.0455 19.3331C54.8651 18.7716 55.2621 18.1921 55.7854 18.02C56.3267 17.8479 56.8862 17.7302 57.4546 17.6849C58.1313 17.6306 58.808 17.7121 59.4667 17.8208C59.7374 17.866 59.9629 18.0924 60.0983 18.3098C60.2517 18.5543 60.2697 18.8622 60.2065 19.1338C60.1524 19.3874 59.9359 19.641 59.7193 19.7677C59.4576 19.9217 59.187 19.9217 58.8982 19.8764C58.8531 19.8764 58.808 19.8674 58.7629 19.8583C58.2757 19.7949 57.7884 19.7859 57.3012 19.8402C56.9764 19.8945 56.6516 19.976 56.3358 20.0756C55.7673 20.2567 55.1989 19.8583 55.0275 19.3331H55.0455ZM57.6531 23.9967C56.2816 23.9967 56.2907 21.8687 57.6531 21.8687C59.0155 21.8687 59.0155 23.9967 57.6531 23.9967ZM65.8548 34.0395C64.0954 35.9684 60.7479 36.0227 58.9253 34.1482C58.5103 33.7226 58.5283 33.0706 58.9253 32.6449C59.3133 32.2284 60.0351 32.2465 60.4231 32.6449C60.5043 32.7264 60.5855 32.7989 60.6757 32.8804C60.7208 32.9076 60.7569 32.9347 60.8021 32.9619C60.8923 33.0253 60.9915 33.0796 61.0908 33.1249C61.0908 33.1249 61.1269 33.1339 61.1539 33.1521C61.172 33.1521 61.2171 33.1702 61.2351 33.1883C61.4427 33.2607 61.6502 33.3151 61.8577 33.3603C61.8938 33.3603 61.9389 33.3603 61.9479 33.3694C61.966 33.3694 61.9931 33.3694 62.0021 33.3694C62.1194 33.3785 62.2367 33.3875 62.354 33.3875C62.4713 33.3875 62.5795 33.3785 62.6968 33.3694C62.7058 33.3694 62.7239 33.3694 62.7329 33.3694C62.7871 33.3603 62.8592 33.3513 62.8683 33.3513C62.9856 33.3241 63.0938 33.297 63.2111 33.2698C63.2653 33.2517 63.5269 33.1973 63.545 33.1521C63.545 33.1702 63.3375 33.2517 63.4818 33.1702C63.545 33.134 63.6081 33.1068 63.6713 33.0706C63.7705 33.0162 63.8788 32.9528 63.969 32.8804C64.0051 32.8532 64.1405 32.7174 64.0322 32.8351C63.9149 32.9528 64.0773 32.7898 64.0863 32.7808C64.1766 32.6993 64.2578 32.6087 64.348 32.5272C64.745 32.0925 65.4398 32.1469 65.8458 32.5272C66.2789 32.9257 66.2247 33.623 65.8458 34.0305L65.8548 34.0395ZM67.1541 23.9967C65.7826 23.9967 65.7916 21.8687 67.1541 21.8687C68.5165 21.8687 68.5165 23.9967 67.1541 23.9967ZM69.7707 19.3331C69.6444 19.8764 68.9947 20.2477 68.4624 20.0756C68.1466 19.976 67.8218 19.8945 67.4969 19.8402C67.0097 19.7859 66.5225 19.804 66.0352 19.8583C65.9901 19.8583 65.945 19.8673 65.8999 19.8764C65.6022 19.9217 65.3495 19.9126 65.0788 19.7677C64.8352 19.641 64.6728 19.3874 64.5916 19.1338C64.5104 18.8803 64.5645 18.5452 64.6999 18.3098C64.8172 18.1015 65.0879 17.857 65.3315 17.8208C65.9992 17.7121 66.6759 17.6306 67.3436 17.6849C67.912 17.7302 68.4714 17.8479 69.0128 18.02C69.5812 18.2011 69.888 18.7444 69.7526 19.3331H69.7707Z" fill="var(--fill-0, white)"/>
<path id="Vector_15" d="M68.6974 10.6122C68.8237 10.4945 68.9681 10.4039 69.1305 10.3587C69.7079 10.1957 70.2493 10.5579 70.4388 11.1012C70.9711 12.6769 71.3952 14.2888 71.9907 15.8464C72.6133 17.4764 73.4794 18.9978 74.6614 20.2837C74.7787 20.4105 74.8599 20.5554 74.905 20.6912C75.3381 20.7456 75.7802 20.8723 76.1592 21.0534C76.0419 20.4195 75.9246 19.7947 75.8163 19.1608C75.302 16.0547 74.7697 12.9124 73.705 9.9421C72.9832 7.91362 71.9636 4.73508 69.4192 4.54491C68.3184 4.46341 68.1109 3.05977 68.7876 2.57076C68.5711 2.48021 68.3545 2.37154 68.138 2.24476C68.1109 2.93299 67.353 3.64839 66.5319 3.23183C62.6611 1.30297 58.4565 1.9912 55.0098 4.44529C49.145 8.61997 48.2788 15.8917 46.7901 22.4028C45.9871 25.9254 44.8141 29.602 45.2382 33.2515C45.4277 34.8543 46.3119 36.1855 47.539 37.0187C48.2969 36.6111 48.9465 36.0316 49.3616 35.2347C50.2187 33.5865 49.8939 31.5128 49.8849 29.7288C49.8488 24.1143 49.7315 17.6847 52.6459 12.686C54.0624 10.2409 56.273 8.33019 58.9979 7.53329C61.6145 6.77261 65.1334 6.61865 67.2176 8.68335C67.4613 8.9188 67.5425 9.19048 67.5334 9.45309C68.0026 9.67949 68.3816 10.0961 68.7154 10.6032L68.6974 10.6122Z" fill="var(--fill-0, white)"/>
<path id="Vector_16" d="M75.2116 30.1552C75.2026 30.1099 75.1845 30.0646 75.1755 30.0193C75.1575 29.9922 75.1394 29.965 75.1214 29.9378C75.1033 29.9197 75.0853 29.9016 75.0763 29.8925C75.0492 29.8744 75.0221 29.8563 74.995 29.8382C74.968 29.8291 74.9319 29.8201 74.9048 29.811C74.8687 29.811 74.8417 29.811 74.8056 29.811C74.7785 29.811 74.7424 29.8291 74.7153 29.8382C74.6883 29.8563 74.6612 29.8744 74.6341 29.8925C74.6161 29.9106 74.5981 29.9288 74.589 29.9378C74.571 29.965 74.5529 29.9922 74.5349 30.0193C74.5259 30.0465 74.5168 30.0827 74.5078 30.1099C74.5078 30.1461 74.5078 30.1733 74.5078 30.2095C74.5078 30.2367 74.5259 30.2729 74.5349 30.3001C74.5529 30.3272 74.571 30.3544 74.589 30.3815C74.6071 30.3997 74.6161 30.4178 74.6341 30.4268C74.6612 30.4449 74.6883 30.4631 74.7153 30.4812C74.7424 30.4902 74.7785 30.4993 74.8056 30.5083C74.8417 30.5083 74.8687 30.5083 74.9048 30.5083C74.9319 30.5083 74.968 30.4902 74.995 30.4812C75.0221 30.4631 75.0492 30.4449 75.0763 30.4268C75.0943 30.4087 75.1123 30.3906 75.1214 30.3815C75.1394 30.3544 75.1575 30.3272 75.1755 30.3001C75.1935 30.2548 75.2026 30.2095 75.2116 30.1642V30.1552Z" fill="var(--fill-0, white)"/>
<path id="Vector_17" d="M24.1877 74.6454C24.1877 74.6454 24.2689 74.6906 24.305 74.7088C24.3501 74.7269 24.4043 74.7359 24.4494 74.745C24.5035 74.745 24.5667 74.745 24.6298 74.745C24.6749 74.7359 24.7291 74.7178 24.7742 74.7088C24.8103 74.6906 24.8554 74.6635 24.8915 74.6454C24.9095 74.6273 24.9276 74.6091 24.9547 74.591C24.9547 74.582 24.9817 74.5548 25.0178 74.5186C25.0449 74.4824 25.0629 74.4371 25.081 74.3918C25.108 74.3103 25.1351 74.2197 25.1532 74.1382C25.1532 74.1201 25.1532 74.102 25.1532 74.0839C25.1532 74.0658 25.1532 74.0477 25.1532 74.0296C25.1351 73.939 25.108 73.8575 25.081 73.776C25.0539 73.7307 25.0359 73.6855 25.0088 73.6402C24.9908 73.613 24.9637 73.5949 24.9637 73.5858C24.9456 73.5677 24.9186 73.5406 24.9005 73.5225C24.8644 73.4953 24.8193 73.4772 24.7832 73.4591C24.7381 73.441 24.684 73.4319 24.6389 73.4229C24.5847 73.4229 24.5216 73.4229 24.4584 73.4229C24.4133 73.4319 24.3592 73.45 24.314 73.4591C24.278 73.4772 24.2328 73.5044 24.1967 73.5225C24.1787 73.5406 24.1607 73.5587 24.1336 73.5768C24.1336 73.5859 24.1065 73.613 24.0704 73.6492C24.0434 73.6855 24.0253 73.7307 24.0073 73.776C23.9802 73.8485 23.9621 73.9119 23.9531 73.9843C23.9531 74.0567 23.9531 74.1201 23.9531 74.1926C23.9712 74.265 23.9892 74.3375 24.0073 74.4009C24.0343 74.4461 24.0524 74.4914 24.0794 74.5367C24.0975 74.5639 24.1246 74.582 24.1246 74.591C24.1426 74.6091 24.1697 74.6363 24.1877 74.6544V74.6454Z" fill="var(--fill-0, white)"/>
<path id="Vector_18" d="M24.9375 74.5911C24.9375 74.5911 24.9557 74.5911 24.992 74.5366C24.9738 74.5548 24.9557 74.5729 24.9375 74.5911Z" fill="var(--fill-0, white)"/>
<path id="Vector_19" d="M25.061 74.473C25.0429 74.4911 25.0338 74.5093 25.0156 74.5183C25.0338 74.5002 25.0519 74.482 25.061 74.4639V74.473Z" fill="var(--fill-0, white)"/>
<path id="Vector_20" d="M24.0156 73.6948C24.0338 73.6766 24.0429 73.6585 24.061 73.6494C24.0429 73.6676 24.0247 73.6857 24.0156 73.7039V73.6948Z" fill="var(--fill-0, white)"/>
<path id="Vector_21" d="M24.1326 73.5767C24.1326 73.5767 24.1144 73.5767 24.0781 73.6311C24.0963 73.613 24.1144 73.5948 24.1326 73.5767Z" fill="var(--fill-0, white)"/>
<path id="Vector_22" d="M82.1094 235.421C82.1911 235.411 82.1729 235.421 82.1094 235.421Z" fill="var(--fill-0, white)"/>
<path id="Vector_23" d="M38.5468 237.358C38.5468 237.358 38.5746 237.377 38.5468 237.34C38.5468 237.34 38.5468 237.349 38.5468 237.358Z" fill="var(--fill-0, white)"/>
<path id="Vector_24" d="M16.8384 87.0967C17.1001 87.133 17.3527 87.2326 17.5422 87.3865C17.3527 86.9881 17.1632 86.5896 16.9828 86.1912C16.5587 85.2403 16.1527 84.2804 15.7557 83.3205C15.4399 82.5508 15.0519 81.7539 15.0699 80.9026C15.106 79.2636 17.2083 78.0592 18.6881 78.7474C19.3738 79.0734 19.9422 79.6892 20.4295 80.3774C20.5197 80.2235 20.628 80.0786 20.7723 79.9518C21.4761 79.3088 22.7573 79.0553 23.6416 79.3813C24.3273 79.6348 24.7333 80.2053 25.0491 80.8302C25.6085 80.4046 26.3394 80.1872 27.0161 80.2778C27.9996 80.4046 28.6763 81.1019 29.1094 81.9531C29.2628 82.2519 29.3981 82.5508 29.5425 82.8496C30.95 81.5999 32.7726 82.5417 33.7832 83.9906C34.4238 84.9143 34.6674 86.1368 35.1456 87.1601C35.4343 87.7669 35.714 88.3736 35.9667 88.9894C36.3186 89.0256 36.6795 89.0618 37.0314 89.089C41.4525 89.5146 45.8827 89.9493 50.3039 90.3749C50.3851 90.3749 50.4663 90.4021 50.5475 90.4202C50.8182 90.221 51.0798 90.0217 51.3505 89.8316C52.8393 88.7358 54.319 87.631 55.8077 86.5353C55.2213 86.3179 54.6348 86.1097 54.0483 85.9195C54.0122 85.9104 53.9851 85.8923 53.9581 85.8833C53.516 86.2093 53.0738 86.5262 52.6317 86.8522C52.0092 87.305 51.4317 87.785 50.6828 87.8846C50.755 88.2197 50.8272 88.5457 50.8994 88.8807C51.1791 90.221 49.1309 90.7915 48.8512 89.4512C48.7068 88.7811 48.5625 88.111 48.4181 87.4409C47.967 85.4124 47.5068 83.3839 47.0376 81.3554C46.9925 81.3011 46.9474 81.2468 46.9113 81.1924C46.7669 80.966 46.7308 80.631 46.803 80.3684C46.1263 77.4343 45.4225 74.5093 44.7007 71.5843C44.3939 71.2764 44.2496 70.8146 44.421 70.4342C43.8436 68.116 43.2571 65.7977 42.6435 63.4795C42.418 62.6192 42.2104 61.9943 41.3442 61.9038C40.6946 61.8404 40.045 61.7679 39.3953 61.7046C36.8419 61.4419 34.2884 61.1793 31.744 60.9076C24.9228 60.2013 18.0926 59.495 11.2713 58.7886C8.88031 58.5441 6.48928 58.2906 4.09825 58.0461C3.57493 57.9917 3.04258 57.8921 2.51926 57.883C2.31174 57.883 2.18542 57.8015 2.09519 58.0642C2.02301 58.2724 2.20346 58.7796 2.24858 58.9969C2.31174 59.3591 2.38392 59.7123 2.44708 60.0745C4.13434 68.7408 6.31785 77.3166 8.14045 85.9557C11.0368 86.3451 13.9331 86.7345 16.8384 87.1239V87.0967ZM22.4867 72.2273C23.1634 71.3942 24.3995 71.0319 25.41 71.4123C26.5289 71.8379 27.2597 72.8702 27.2777 74.0837C27.2777 74.1561 27.2777 74.2286 27.2597 74.301C27.1514 75.4783 26.3394 76.5831 25.1484 76.8276C23.9844 77.0721 22.7934 76.565 22.1889 75.5326C21.9182 75.0617 21.7648 74.4822 21.81 73.9388C21.8641 73.2959 22.0806 72.7344 22.4867 72.2363V72.2273Z" fill="var(--fill-0, #ECECEC)"/>
<path id="Vector_25" d="M16.2813 89.1978C16.3176 89.3339 16.3085 89.2613 16.2813 89.1978Z" fill="var(--fill-0, #78C8E6)"/>
<path id="Vector_26" d="M62.709 33.3784C62.709 33.3784 62.709 33.3784 62.7 33.3784C62.682 33.3784 62.673 33.3784 62.6641 33.3874C62.6641 33.3874 62.682 33.3874 62.709 33.3784Z" fill="var(--fill-0, #78C8E6)"/>
<path id="Vector_27" d="M61.2434 33.2063C61.2434 33.2063 61.2435 33.2063 61.2344 33.1973L61.2525 33.2063H61.2434Z" fill="var(--fill-0, #78C8E6)"/>
<path id="Vector_28" d="M61.2052 33.1887C61.2052 33.1887 61.2143 33.1887 61.2233 33.1887C61.2052 33.1796 61.1779 33.1614 61.1507 33.1523C61.1326 33.1523 61.1326 33.1523 61.2052 33.1796V33.1887Z" fill="var(--fill-0, #78C8E6)"/>
<path id="Vector_29" d="M69.5742 235.167C69.2854 234.985 68.9786 234.813 68.6719 234.65C68.6899 234.714 68.708 234.777 68.726 234.841C68.726 234.859 68.726 234.859 68.726 234.868C68.726 234.868 68.726 234.868 68.726 234.877C68.7711 234.967 68.8072 235.049 68.8613 235.139C68.9065 235.23 68.9696 235.311 69.0238 235.402C69.0238 235.402 69.0238 235.411 69.0328 235.42C69.0328 235.42 69.0328 235.42 69.0418 235.429C69.0959 235.484 69.141 235.538 69.1952 235.592C69.2132 235.601 69.2223 235.619 69.2403 235.628C69.2493 235.628 69.2403 235.628 69.2674 235.647C69.3666 235.701 69.529 235.855 69.6463 235.855C69.502 235.791 69.4839 235.791 69.5922 235.828C69.6283 235.837 69.6644 235.855 69.7005 235.864C69.7817 235.891 69.8629 235.918 69.9531 235.936C70.0975 235.973 70.2509 236.009 70.4042 236.036C70.4223 236.036 70.4403 236.036 70.4493 236.036C70.2057 235.692 69.926 235.384 69.5561 235.148L69.5742 235.167Z" fill="var(--fill-0, #D5D5D5)"/>
<path id="Vector_30" d="M61.9476 33.3784C61.9476 33.3784 61.9022 33.3784 61.875 33.3784C61.9385 33.3966 61.9567 33.3875 61.9476 33.3784Z" fill="var(--fill-0, #78C8E6)"/>
<path id="Vector_31" d="M80.3336 111.013C80.0358 109.328 79.7922 107.517 79.1606 105.914C79.0704 105.688 79.0613 105.48 79.1155 105.308C79.0884 104.149 79.0613 102.998 79.0343 101.839H43.5026C43.5297 102.238 43.5477 102.645 43.5748 103.044C43.656 104.375 43.9808 105.905 43.6289 107.209C43.1146 109.138 42.6906 111.085 42.3206 113.05C40.886 120.485 40.1101 128.264 41.1026 135.807C41.274 137.093 41.2108 138.406 41.2289 139.701C41.274 142.69 41.3191 145.687 41.3552 148.675C41.4905 157.849 41.6259 167.022 41.7522 176.196C41.8875 185.378 42.0229 194.552 42.1492 203.734C42.2033 207.592 42.2575 211.459 42.3206 215.316C45.7042 215.38 49.0787 215.443 52.4622 215.497C52.5073 214.682 52.6337 213.858 52.6878 213.061C52.8592 210.671 53.0307 208.28 53.2021 205.889C53.7254 198.69 54.2397 191.482 54.763 184.282C55.3676 175.96 55.9631 167.629 56.5676 159.307C57.0638 152.424 57.5601 145.551 58.0563 138.669C58.2278 136.342 58.3902 134.014 58.5616 131.678L58.3721 131.759C57.8488 131.995 57.2353 131.913 56.9195 131.379C56.6488 130.917 56.7751 130.157 57.2984 129.921C57.7405 129.722 58.1827 129.514 58.6248 129.314C59.5 128.916 60.3662 128.517 61.2414 128.128C61.2414 127.739 61.2414 127.34 61.2414 126.951C61.2414 121.282 61.2324 115.613 61.2233 109.935C61.2233 109.845 61.2324 109.763 61.2504 109.682L45.7583 109.763C44.3868 109.763 44.3959 107.635 45.7583 107.635C46.832 107.635 47.9057 107.626 48.9884 107.617C56.6849 107.581 64.3813 107.535 72.0777 107.499C73.4492 107.499 73.4402 109.627 72.0777 109.627C71.004 109.627 69.9303 109.636 68.8476 109.645C67.0069 109.654 65.1663 109.663 63.3166 109.673C63.3347 109.754 63.3527 109.845 63.3527 109.935C63.3527 110.732 63.3527 111.529 63.3527 112.326C63.3527 117.27 63.3527 122.215 63.3617 127.159C64.8776 126.471 66.4024 125.774 67.9182 125.085C68.4416 124.85 69.0551 124.931 69.3709 125.466C69.6416 125.928 69.5153 126.688 68.9919 126.924C68.5498 127.123 68.1077 127.331 67.6656 127.53C66.8535 127.902 66.0505 128.264 65.2385 128.635C65.5001 132.203 65.5994 135.789 65.7798 139.357C66.1498 146.765 66.5197 154.181 66.8987 161.589C67.3317 170.165 67.7558 178.731 68.1889 187.307C68.5408 194.398 68.9017 201.479 69.2536 208.57C69.3799 211.169 69.5153 213.759 69.6416 216.358H79.1696C79.1696 215.063 79.305 213.741 79.3591 212.464C79.4764 209.222 79.5937 205.971 79.72 202.729C80.0629 193.501 80.3967 184.273 80.7396 175.046C81.0734 166.035 81.4073 157.016 81.7321 148.005C81.8855 143.731 81.9306 139.439 82.2013 135.173C82.5351 129.975 82.1562 124.805 81.5607 119.634C81.2268 116.745 80.8208 113.865 80.3155 111.004L80.3336 111.013ZM46.9222 186.066C47.1568 175.272 47.2651 164.469 47.4185 153.674C47.5809 142.364 47.8155 131.062 48.2396 119.761C48.2937 118.393 50.4141 118.393 50.3599 119.761C50.1163 126.335 49.9268 132.909 49.7915 139.484C49.5569 150.278 49.4486 161.082 49.2952 171.876C49.1328 183.187 48.8982 194.488 48.4742 205.79C48.42 207.157 46.2997 207.157 46.3538 205.79C46.5974 199.215 46.7869 192.641 46.9222 186.066ZM75.9034 118.23C76.3545 124.633 76.6432 131.053 76.8057 137.474C77.3741 159.941 76.4357 182.417 76.3545 204.884C76.3545 206.261 74.2251 206.252 74.2342 204.884C74.2612 198.455 74.3515 192.034 74.4597 185.605C74.8387 163.146 75.371 140.661 73.783 118.23C73.6838 116.863 75.8131 116.872 75.9034 118.23ZM67.9724 131.877C67.3949 131.723 67.1062 131.125 67.2325 130.564C67.3588 130.003 67.9994 129.677 68.5408 129.821C68.6942 129.867 68.8476 129.903 68.9919 129.948C70.0566 130.238 71.1123 130.528 72.177 130.809C72.7544 130.962 73.0432 131.56 72.9168 132.122C72.7905 132.683 72.1499 133.009 71.6085 132.864C71.4552 132.819 71.3018 132.783 71.1574 132.737C70.0927 132.448 69.0371 132.158 67.9724 131.877Z" fill="var(--fill-0, #78C8E6)"/>
<path id="Vector_32" d="M71.6235 132.864C72.1559 133.009 72.8055 132.683 72.9318 132.122C73.0582 131.56 72.7604 130.962 72.192 130.809C71.1273 130.519 70.0716 130.229 69.0069 129.948C68.8535 129.903 68.7002 129.867 68.5558 129.821C68.0235 129.677 67.3738 130.003 67.2475 130.564C67.1212 131.125 67.4189 131.723 67.9874 131.877C69.052 132.167 70.1077 132.457 71.1724 132.737C71.3258 132.783 71.4792 132.819 71.6235 132.864Z" fill="var(--fill-0, #323232)"/>
<path id="Vector_33" d="M69.7773 19.3334C69.9126 18.7538 69.6059 18.2014 69.0374 18.0203C68.4961 17.8483 67.9366 17.7305 67.3682 17.6853C66.6915 17.6309 66.0148 17.7124 65.3561 17.8211C65.1125 17.8664 64.8418 18.1018 64.7245 18.3101C64.5892 18.5365 64.5351 18.8716 64.6163 19.1342C64.6975 19.3877 64.8599 19.6413 65.1035 19.7681C65.3742 19.913 65.6268 19.922 65.9246 19.8767C65.9697 19.8767 66.0148 19.8677 66.0599 19.8586C66.5471 19.7952 67.0344 19.7862 67.5216 19.8405C67.8464 19.8949 68.1712 19.9764 68.487 20.076C69.0194 20.248 69.669 19.8767 69.7953 19.3334H69.7773Z" fill="var(--fill-0, #323232)"/>
<path id="Vector_34" d="M58.7856 19.8586C58.7856 19.8586 58.8759 19.8677 58.921 19.8767C59.2097 19.922 59.4804 19.922 59.7421 19.7681C59.9586 19.6413 60.1752 19.3877 60.2293 19.1342C60.2925 18.8625 60.2744 18.5546 60.121 18.3101C59.9766 18.0928 59.7511 17.8664 59.4894 17.8211C58.8217 17.7124 58.145 17.6309 57.4773 17.6853C56.9089 17.7305 56.3495 17.8483 55.8081 18.0203C55.2758 18.1924 54.8878 18.772 55.0683 19.3334C55.2397 19.8677 55.8081 20.2571 56.3766 20.076C56.6924 19.9764 57.0172 19.8949 57.342 19.8405C57.8292 19.7862 58.3165 19.8043 58.8037 19.8586H58.7856Z" fill="var(--fill-0, #323232)"/>
<path id="Vector_35" d="M67.1536 23.9967C68.516 23.9967 68.5251 21.8687 67.1536 21.8687C65.7821 21.8687 65.7821 23.9967 67.1536 23.9967Z" fill="var(--fill-0, #323232)"/>
<path id="Vector_36" d="M62.4627 28.5332C61.1003 28.5332 61.0913 30.6613 62.4627 30.6613C63.8342 30.6613 63.8342 28.5332 62.4627 28.5332Z" fill="var(--fill-0, #323232)"/>
<path id="Vector_37" d="M61.8775 33.3695C61.8775 33.3695 61.9229 33.3695 61.9501 33.3695C61.9411 33.3695 61.8957 33.3514 61.8594 33.3605C61.8594 33.3605 61.8684 33.3605 61.8775 33.3605V33.3695Z" fill="var(--fill-0, #323232)"/>
<path id="Vector_38" d="M61.2301 33.1887C61.2301 33.1887 61.1757 33.1523 61.1484 33.1523C61.1757 33.1614 61.2029 33.1796 61.2211 33.1887H61.2301Z" fill="var(--fill-0, #323232)"/>
<path id="Vector_39" d="M65.8578 34.0397C66.2368 33.6322 66.2909 32.9349 65.8578 32.5364C65.4518 32.1561 64.7571 32.1018 64.36 32.5364C64.2788 32.627 64.1976 32.7176 64.0984 32.79C64.0803 32.8081 63.927 32.9621 64.0443 32.8443C64.1525 32.7266 64.0172 32.8624 63.9811 32.8896C63.8818 32.953 63.7826 33.0164 63.6833 33.0798C63.6202 33.116 63.557 33.1432 63.4939 33.1794C63.3495 33.2609 63.548 33.1794 63.557 33.1613C63.539 33.2065 63.2773 33.2609 63.2232 33.279C63.1149 33.3152 62.9976 33.3424 62.8803 33.3605C62.8803 33.3605 62.7991 33.3696 62.745 33.3786C62.8533 33.3786 62.7991 33.3786 62.745 33.3786C62.736 33.3786 62.7269 33.3786 62.7179 33.3786C62.6908 33.3786 62.6728 33.3786 62.6728 33.3877C62.6728 33.3877 62.6908 33.3877 62.7089 33.3786C62.5916 33.3786 62.4833 33.3967 62.366 33.3967C62.2487 33.3967 62.1314 33.3967 62.0141 33.3786C62.0051 33.3786 61.978 33.3786 61.96 33.3786C61.96 33.3786 61.96 33.3786 61.8878 33.3786C61.8698 33.3786 61.8427 33.3786 61.8427 33.3786C61.8427 33.3786 61.8607 33.3786 61.8698 33.3786C61.6532 33.3333 61.4547 33.279 61.2472 33.2066C61.2472 33.2066 61.2562 33.2066 61.2562 33.2156C61.2562 33.2156 61.2562 33.2156 61.2382 33.2066C61.2382 33.2066 61.2292 33.2066 61.2201 33.2066C61.1389 33.1794 61.1389 33.1703 61.166 33.1794C61.1389 33.1703 61.1119 33.1613 61.1028 33.1522C61.0036 33.0979 60.9043 33.0436 60.8141 32.9892C60.769 32.9621 60.7329 32.9349 60.6878 32.9077C60.6066 32.8262 60.5164 32.7538 60.4352 32.6723C60.0472 32.2738 59.3163 32.2557 58.9374 32.6723C58.5404 33.0979 58.5223 33.7499 58.9374 34.1755C60.76 36.05 64.1074 35.9957 65.8669 34.0668L65.8578 34.0397Z" fill="var(--fill-0, #323232)"/>
<path id="Vector_40" d="M57.6536 23.9972C59.016 23.9972 59.0251 21.8691 57.6536 21.8691C56.2821 21.8691 56.2821 23.9972 57.6536 23.9972Z" fill="var(--fill-0, #323232)"/>
<path id="Vector_41" d="M95.9639 85.6841C95.8015 81.5185 94.9624 77.2986 94.1233 73.2326C93.6541 70.9777 93.1398 68.7319 92.6706 66.468C92.2556 64.4576 91.9488 62.4201 91.5428 60.4097C91.1548 58.508 90.6315 56.6425 89.8465 54.8676C89.1968 53.4006 88.3397 51.6076 87.1036 50.548C86.1291 49.7149 84.902 49.1987 83.729 48.7278C82.2854 48.1392 80.8057 47.6593 79.3169 47.2065C77.386 46.6269 75.4371 46.1017 73.4701 45.6579C73.1273 45.5764 72.8386 45.658 72.613 45.821C72.2521 44.8611 71.8551 43.9011 71.5303 42.9322C71.2776 42.1896 71.1062 41.4289 70.9528 40.6592C72.1077 40.6954 73.2356 40.297 74.1288 39.5816C74.1739 39.5816 74.21 39.5816 74.2551 39.5816C76.7995 39.328 79.1455 38.2776 79.9665 35.6695C80.6793 33.4146 80.138 30.87 79.7049 28.6151C79.1455 25.6992 78.5319 22.8014 78.0627 19.8764C77.4853 16.3446 76.9529 12.7495 75.7439 9.37176C74.6341 6.26566 73.1363 2.68865 69.4099 2.41698C69.1482 2.39887 68.9407 2.46226 68.7783 2.57998C69.2024 2.76109 69.6535 2.87883 70.2219 2.87883C69.6625 2.87883 69.2114 2.76109 68.7783 2.57998C68.1016 3.05993 68.3091 4.47262 69.4099 4.55412C71.9543 4.73524 72.9739 7.92285 73.6957 9.95133C74.7514 12.9216 75.2927 16.0639 75.807 19.17C75.9153 19.8039 76.0326 20.4378 76.1499 21.0627C75.7619 20.8815 75.3288 20.7548 74.8957 20.7004C74.8506 20.5555 74.7694 20.4197 74.6521 20.2929C73.4792 19.007 72.604 17.4766 71.9814 15.8556C71.3859 14.2981 70.9708 12.6861 70.4295 11.1105C70.249 10.5671 69.6986 10.2049 69.1212 10.3679C68.9588 10.4132 68.8144 10.5037 68.6881 10.6214C68.9858 11.0742 69.2475 11.5904 69.5001 12.1156C69.2385 11.5904 68.9768 11.0742 68.6881 10.6214C68.4084 10.8841 68.246 11.3006 68.3813 11.681C68.9497 13.3563 69.3919 15.0678 70.0415 16.7069C70.7272 18.4365 71.6295 20.0122 72.8295 21.4158C72.216 22.4029 73.5965 23.6798 74.4717 22.738C74.1559 23.0821 74.2912 22.8557 74.6251 22.8557C74.9048 22.8557 75.1845 22.91 75.4191 23.064C75.6537 23.227 75.8161 23.4987 75.9243 23.7613C76.2311 24.4948 76.2311 25.4004 76.1048 26.1701C75.9965 26.813 75.7349 27.3202 75.3649 27.7186C74.5168 27.5284 73.5423 27.8363 72.9919 28.5064C72.7754 28.7691 72.6401 28.9955 72.5137 29.3124C72.4235 29.5388 72.3874 29.7743 72.3694 30.0188C72.3423 30.2542 72.3694 30.5078 72.4325 30.7523C72.1889 32.1016 71.8731 33.3965 71.2145 34.6643C69.9152 37.1637 67.8039 39.3461 65.097 40.2517C62.3361 41.1663 59.4307 40.6592 57.0036 39.1016C55.7314 38.2776 54.6396 37.1818 53.7644 35.9412C52.9163 34.7458 52.0411 33.478 52.1042 31.9476C52.1042 31.7756 52.0772 31.6216 52.023 31.4858C52.023 30.9062 51.996 30.3266 51.996 29.738C51.996 28.3525 52.023 26.967 52.0591 25.5815C52.1945 20.3563 52.6636 13.6098 57.5359 10.4947C58.745 9.71587 60.2157 9.31742 61.6413 9.20875C63.0128 9.10914 64.6729 9.17254 65.7106 10.2049C66.4414 10.9293 67.479 10.2592 67.5241 9.46231C67.5422 9.1997 67.452 8.92803 67.2083 8.69258C65.1241 6.61883 61.6052 6.78183 58.9886 7.54251C56.2637 8.33941 54.0532 10.2502 52.6366 12.6952C49.7312 17.703 49.8485 24.1325 49.8756 29.738C49.8846 31.522 50.2095 33.5958 49.3523 35.2439C48.9372 36.0408 48.2876 36.6294 47.5297 37.0279C46.3116 36.1947 45.4184 34.8635 45.2289 33.2607C44.8048 29.6022 45.9778 25.9256 46.7808 22.412C48.2695 15.91 49.1357 8.63824 55.0005 4.45451C58.4563 2.00041 62.6609 1.30313 66.5226 3.24105C67.3527 3.65761 68.1106 2.94221 68.1287 2.25398C67.6956 2.01853 67.2444 1.7378 66.685 1.44802C67.2535 1.72874 67.7046 2.00948 68.1287 2.25398C68.1377 1.92798 67.9843 1.60197 67.5963 1.40274C63.6534 -0.5714 59.2954 -0.444625 55.4336 1.67441C52.0952 3.50366 49.5057 6.51921 47.9447 9.97849C46.2845 13.6551 45.68 17.6577 44.7958 21.5607C43.8935 25.5815 42.5491 29.7833 43.1897 33.9489C43.4153 35.4069 44.092 36.6838 45.0484 37.698C44.7958 37.707 44.5341 37.698 44.2905 37.6799C42.9281 37.5622 42.9371 39.6993 44.2905 39.808C45.3552 39.8985 46.4199 39.7536 47.4034 39.4095C49.0636 40.1883 51.0035 40.3875 52.817 39.7808C53.2411 39.6359 53.4667 39.319 53.5298 38.9748C53.5298 38.9748 53.5388 38.9839 53.5479 38.993C53.584 39.0292 53.611 39.0563 53.6471 39.0835C53.4847 39.2646 53.3855 39.5001 53.3584 39.7808C53.3404 39.9529 53.3313 40.1249 53.3133 40.297C53.3133 40.3785 53.2952 40.4509 53.2862 40.5234C53.2862 40.5596 53.2772 40.5958 53.2682 40.632C53.214 40.958 53.1599 41.275 53.0877 41.5919C52.9433 42.2349 52.7539 42.8688 52.5193 43.4846C52.5193 43.5027 52.5103 43.5117 52.5103 43.5208C52.4832 43.5842 52.4561 43.6476 52.4291 43.711C52.3659 43.8468 52.3027 43.9826 52.2306 44.1185C52.0952 44.372 51.9418 44.6165 51.7794 44.852C51.7614 44.8792 51.7614 44.8792 51.7523 44.8882C51.7163 44.9335 51.6802 44.9788 51.635 45.0241C51.5629 45.1146 51.4817 45.1961 51.4005 45.2776C51.3193 45.3591 51.229 45.4406 51.1388 45.5131C51.1298 45.5131 51.1208 45.5312 51.1027 45.5402C51.0486 45.5765 50.9944 45.6127 50.9313 45.6489C50.805 45.7213 50.7057 45.821 50.6245 45.9296C48.4681 46.3915 46.2936 46.8261 44.1642 47.3876C42.098 47.9309 39.9415 48.5739 38.1189 49.7149C36.17 50.9374 35.1324 53.0293 33.9233 54.9129C33.1113 56.1716 32.2993 57.4394 31.5052 58.7072C25.3337 58.0643 19.1531 57.4304 12.9815 56.7874C10.2656 56.5067 7.54979 56.226 4.83393 55.9452C3.16472 55.7732 0.719548 55.1212 0.0879539 57.3579C-0.137615 58.1548 0.124051 59.0604 0.277438 59.8573C0.439848 60.7266 0.61128 61.5869 0.791736 62.4472C1.26092 64.7112 1.76619 66.9751 2.26245 69.2299C3.36322 74.1744 4.50912 79.1097 5.59185 84.0632C5.81742 85.0865 6.03396 86.1098 6.25051 87.1421C6.35878 87.6402 6.82797 87.8666 7.27009 87.9209C9.57089 88.2288 11.8717 88.5367 14.1725 88.8446C14.1635 88.9804 14.1545 89.1163 14.1725 89.2521C14.2808 90.1758 14.8221 90.9908 15.5891 91.516C16.2838 91.996 17.2222 92.1952 18.0252 92.3763C18.8192 92.5574 19.6042 92.7295 20.3711 93.0193C20.4253 93.0374 20.4794 93.0464 20.5336 93.0555C20.7321 93.3543 20.9486 93.626 21.2193 93.8524C22.7802 95.1926 24.8284 95.0115 26.7232 94.7308C29.0871 94.3867 31.3519 95.0477 33.7158 94.9572C34.7625 94.921 36.0617 94.8032 37.0452 94.2508C36.8828 94.6946 36.7294 95.1474 36.567 95.5911C36.4046 96.0348 36.6753 96.56 37.0542 96.7955C37.2618 96.9223 37.4693 97.0672 37.6768 97.203C37.8934 97.3479 38.1099 97.5018 38.3265 97.6558C38.4528 97.7463 38.5701 97.8369 38.6964 97.9275C38.7054 97.9275 38.7776 97.9909 38.8227 98.018C38.8588 98.0452 38.9581 98.1267 38.949 98.1176C39.4633 98.5251 39.9596 98.9689 40.4017 99.4579C40.4558 99.5213 40.51 99.5756 40.5551 99.639C40.5551 99.639 40.6092 99.7114 40.6453 99.7477C40.6724 99.7839 40.7085 99.8382 40.7175 99.8473C40.7536 99.9107 40.7987 99.965 40.8348 100.028C40.8709 100.083 40.8979 100.146 40.934 100.2C40.9701 100.318 41.0062 100.427 41.0243 100.545C41.0604 100.762 41.1776 100.943 41.3491 101.07C41.4303 102.781 41.4303 104.547 41.6559 106.241C41.6559 106.277 41.6559 106.295 41.6649 106.322C41.6107 106.467 41.5837 106.639 41.5476 106.775C41.3401 107.554 41.1596 108.332 40.9792 109.12C39.4363 115.912 38.4708 122.93 38.5881 129.903C38.6332 132.692 39.0663 135.427 39.1114 138.207C39.1475 140.806 39.1836 143.414 39.2287 146.013C39.3551 154.843 39.4814 163.663 39.6167 172.492C39.7521 181.955 39.8964 191.428 40.0318 200.891C40.1039 205.944 40.0588 211.015 40.2483 216.068C40.2483 216.141 40.2483 216.222 40.2483 216.295C40.2483 216.448 40.2844 216.602 40.3476 216.729C40.3566 218.069 40.3476 219.401 40.3115 220.741C40.3024 221.04 40.2844 221.339 40.2664 221.637C40.2664 221.656 40.2664 221.71 40.2573 221.764C40.2393 221.855 40.1942 222.181 40.1851 222.217C40.1491 222.416 40.113 222.615 40.0678 222.815C39.8062 224.001 39.4272 225.142 38.9039 226.238C38.4438 227.207 37.9024 228.139 37.4061 229.099C37.0272 229.833 36.3775 230.802 36.2061 231.68C36.0076 231.997 35.8362 232.332 35.6828 232.676C35.2316 233.736 34.7895 234.786 34.2933 235.828C33.8151 236.833 33.3369 237.874 33.1654 238.997C32.7684 241.678 34.6813 243.48 37.0903 244.213C39.4994 244.938 42.2063 244.766 44.6604 244.349C45.7793 244.159 46.8891 243.806 47.8004 243.108C48.838 242.312 49.2621 241.279 49.7312 240.102C50.9313 237.141 52.3478 233.944 51.7433 230.684C51.7433 230.05 51.7523 229.416 51.6802 228.782C51.5358 227.496 51.3914 226.247 51.4636 224.952C51.5809 222.787 51.8155 220.623 51.9779 218.459C51.996 218.16 52.023 217.852 52.0411 217.553C52.5373 217.562 53.0426 217.571 53.5389 217.58C54.1434 217.589 54.5584 217.082 54.6035 216.512C54.8111 213.65 55.0186 210.789 55.2261 207.918C55.7224 201.036 56.2186 194.162 56.7149 187.28C57.3194 178.958 57.9149 170.627 58.5194 162.304C59.0427 155.105 59.557 147.897 60.0804 140.698C60.2518 138.307 60.4232 135.916 60.5947 133.525C60.6578 132.62 60.8022 131.678 60.8293 130.754C61.2533 130.6 61.6684 130.437 62.0924 130.283C62.5075 130.374 62.9857 130.247 63.2383 129.894C63.3646 132.33 63.4819 134.766 63.6083 137.202C63.9602 144.293 64.3211 151.374 64.6729 158.465C65.106 167.041 65.5301 175.607 65.9632 184.183C66.3331 191.591 66.7031 199.007 67.082 206.415C67.2625 210.01 67.3617 213.623 67.6234 217.209C67.6234 217.263 67.6234 217.309 67.6234 217.363C67.6505 217.934 68.0745 218.414 68.661 218.423C68.6159 220.306 68.5167 222.154 68.0475 224.019C67.8309 224.879 67.6414 225.721 67.4971 226.564C67.3166 226.7 67.1723 226.89 67.073 227.125C66.4865 228.565 65.9271 230.403 66.2068 231.97C66.2068 232.015 66.2249 232.07 66.2249 232.115C66.2249 232.133 66.2249 232.151 66.2249 232.178C66.2339 232.287 66.2519 232.396 66.261 232.504C66.279 232.713 66.2971 232.921 66.3151 233.129C66.3512 233.591 66.3963 234.053 66.4775 234.515C66.6219 235.375 66.9828 236.226 67.5693 236.878C68.6971 238.155 70.4836 238.028 71.9904 238.399C72.0446 238.418 72.1077 238.418 72.1619 238.427C72.4686 238.834 72.7754 239.242 73.1002 239.64C74.3363 241.171 75.6537 242.764 77.3048 243.86C78.7665 244.838 80.4628 245.255 82.1861 245.454C84.4058 245.707 86.6975 245.762 88.7818 244.847C90.4149 244.123 91.8946 242.583 91.1367 240.682C90.442 238.925 89.0254 237.512 87.6991 236.208C85.9486 234.487 84.6223 232.287 83.1877 230.304C82.8268 229.67 82.3395 229.271 81.7711 229.045C81.4824 228.384 81.338 227.551 81.1215 226.853C80.8688 226.029 80.6252 225.205 80.4357 224.363C80.0477 222.652 79.768 220.822 79.8763 219.066C79.8853 218.857 79.9124 218.649 79.9305 218.441H80.2643C80.8508 218.441 81.3019 217.952 81.329 217.372C81.4734 213.351 81.6267 209.331 81.7711 205.301C82.0959 196.381 82.4298 187.452 82.7546 178.532L83.7832 150.632C83.9727 145.56 84.117 140.489 84.3426 135.427C84.3877 134.449 84.496 133.471 84.514 132.484C84.5772 129.55 84.3877 126.607 84.126 123.691C83.6388 118.185 82.9982 112.598 81.7531 107.21C81.6087 106.594 81.4643 105.978 81.2478 105.389C81.2117 103.832 81.1756 102.265 81.1395 100.708C81.1395 100.508 81.0764 100.327 80.9771 100.164C81.8613 99.811 82.7546 99.4488 83.5847 98.9779C84.1441 98.661 84.6584 98.2987 85.1637 97.9003C85.4163 97.7011 85.696 97.4928 85.9126 97.2573C86.3096 96.8227 86.2103 96.3518 86.111 95.8356C86.0659 95.582 86.0208 95.3285 85.9757 95.0749C87.284 95.1926 88.6104 95.2379 89.9187 95.1383C91.1999 95.0387 92.6165 94.8304 93.7082 94.0878C94.8902 93.2909 95.3684 91.9054 95.6301 90.5471C95.9459 88.9352 96.0451 87.2598 95.982 85.6208L95.9639 85.6841ZM74.4987 30.1093C74.4987 30.1093 74.5168 30.0459 74.5258 30.0188C74.5439 29.9916 74.5619 29.9644 74.5799 29.9373C74.598 29.9191 74.607 29.901 74.6251 29.892C74.6521 29.8739 74.6792 29.8557 74.7063 29.8376C74.7333 29.8286 74.7694 29.8195 74.7965 29.8105C74.8326 29.8105 74.8597 29.8105 74.8957 29.8105C74.9228 29.8105 74.9589 29.8286 74.986 29.8376C75.013 29.8557 75.0401 29.8739 75.0672 29.892C75.0852 29.9101 75.1033 29.9282 75.1123 29.9373C75.1303 29.9644 75.1484 29.9916 75.1664 30.0188C75.1845 30.064 75.1935 30.1093 75.2025 30.1546C75.1935 30.1999 75.1755 30.2451 75.1664 30.2904C75.1484 30.3176 75.1303 30.3448 75.1123 30.3719C75.0943 30.39 75.0762 30.4081 75.0672 30.4172C75.0401 30.4353 75.013 30.4534 74.986 30.4715C74.9589 30.4806 74.9228 30.4897 74.8957 30.4987C74.8597 30.4987 74.8326 30.4987 74.7965 30.4987C74.7694 30.4987 74.7333 30.4806 74.7063 30.4715C74.6792 30.4534 74.6521 30.4353 74.6251 30.4172C74.607 30.3991 74.589 30.381 74.5799 30.3719C74.5619 30.3448 74.5439 30.3176 74.5258 30.2904C74.5168 30.2633 74.5078 30.227 74.4987 30.1999C74.4987 30.1637 74.4987 30.1365 74.4987 30.1003V30.1093ZM73.1814 35.4703C73.6506 34.5013 73.9664 33.5414 74.21 32.5543C74.589 32.654 74.9769 32.6721 75.383 32.5996C75.8702 32.5091 76.3755 32.2102 76.6913 31.8299C77.0432 31.4133 77.2507 30.9243 77.3048 30.39C77.3229 30.3176 77.3319 30.2451 77.3319 30.1636C77.3319 29.8014 77.2507 29.4211 77.0883 29.077C77.2507 28.8868 77.4041 28.6876 77.5304 28.4793C77.8733 30.1908 78.2342 31.9295 78.162 33.6773C78.1259 34.5376 77.9454 35.4612 77.377 36.1404C76.989 36.6023 76.4747 36.9101 75.9063 37.1094C76.3123 36.0951 76.4747 34.9903 76.4025 33.8946C76.3665 33.3422 75.9424 32.7989 75.3379 32.826C74.7965 32.8532 74.2371 33.2969 74.2732 33.8946C74.3002 34.2749 74.3002 34.6462 74.2732 35.0266C74.2732 35.0628 74.2732 35.1081 74.2642 35.1443C74.2551 35.2167 74.2371 35.2892 74.2281 35.3616C74.192 35.5337 74.1559 35.7148 74.1017 35.8869C74.0566 36.0589 74.0025 36.2219 73.9393 36.3849C73.9303 36.4211 73.9123 36.4574 73.8942 36.4845C73.8672 36.557 73.8762 36.5298 73.9303 36.403C73.9303 36.4755 73.8401 36.6023 73.804 36.6656C73.7318 36.8015 73.6596 36.9464 73.5694 37.0731C73.5243 37.1456 73.4792 37.209 73.4341 37.2814C73.416 37.2995 73.407 37.3176 73.3889 37.3358C73.2897 37.4444 72.8115 38.024 72.7483 37.9787C72.8746 37.8791 72.8927 37.87 72.8025 37.9334C72.7664 37.9606 72.7303 37.9878 72.6942 38.0149C72.6401 38.0512 72.5769 38.0874 72.5228 38.1236C72.4957 38.1417 72.207 38.2866 72.1258 38.3319C72.1167 38.3319 72.1077 38.3319 72.0987 38.3409C72.0085 38.3681 71.9273 38.4043 71.837 38.4225C71.7739 38.4406 71.7017 38.4587 71.6295 38.4768C71.5844 38.4858 71.5393 38.4949 71.4942 38.5039C71.3769 38.5221 71.4039 38.5221 71.5663 38.5039C71.5573 38.5492 71.3588 38.5492 71.1333 38.5402C71.9453 37.6165 72.6491 36.5751 73.1904 35.4522L73.1814 35.4703ZM52.2486 37.7161C51.4546 37.9787 50.6335 38.0421 49.8576 37.9425C50.426 37.4263 50.9042 36.8105 51.2561 36.1132C51.599 36.6656 51.9779 37.1909 52.3839 37.6889C52.3388 37.698 52.2937 37.7071 52.2486 37.7161ZM52.0772 47.451C53.205 46.7175 53.9358 45.5583 54.4501 44.3358C54.9554 43.1314 55.2351 41.8546 55.3885 40.5505C56.8683 41.61 58.5645 42.3707 60.3601 42.6786C63.4368 43.2039 66.3873 42.3617 68.7964 40.6592C68.9858 41.6101 69.1753 42.57 69.4821 43.4936C69.843 44.5622 70.2851 45.6036 70.6731 46.6631C70.8355 47.0978 71.2415 47.451 71.7017 47.451C71.6566 47.6593 71.6024 47.8585 71.5393 48.0668C70.5107 48.7097 69.4821 49.3617 68.4625 50.0228C66.4685 51.3178 64.4023 52.6308 62.5797 54.1794C59.0788 51.9426 55.569 49.7059 52.0681 47.4782C52.0681 47.4782 52.0681 47.4781 52.0681 47.4691L52.0772 47.451ZM66.3873 77.4254C64.4474 77.4706 62.5436 76.9092 60.748 76.2209C58.8713 75.5146 56.8051 74.6724 55.181 73.4771C55.0005 73.3412 54.8201 73.2054 54.6486 73.0605H69.9964V76.0942C69.8881 76.0761 69.7708 76.067 69.6625 76.0489C68.8505 75.9402 68.0475 75.8315 67.2354 75.7229C66.658 75.6504 66.1798 76.2662 66.1707 76.7915C66.1707 77.0541 66.2519 77.2623 66.3873 77.4254ZM62.2909 65.1458C59.2864 60.9259 56.4442 56.5429 53.981 51.9879C53.7734 51.5985 53.5659 51.2182 53.3674 50.8288C56.2818 52.6942 59.2051 54.5507 62.1195 56.4161C62.5255 56.6787 63.0669 56.561 63.4098 56.2531C65.3045 54.5235 67.5602 53.147 69.7077 51.7615C69.9152 51.6257 70.1317 51.4898 70.3483 51.354C69.5633 53.1017 68.6249 54.7861 67.7046 56.4161C66.0895 59.2777 64.3481 62.0759 62.5346 64.8108C62.4534 64.9285 62.3721 65.0462 62.3 65.1639L62.2909 65.1458ZM51.1659 45.504C51.1659 45.504 51.1568 45.504 51.1388 45.5312C51.1568 45.5131 51.1749 45.504 51.1659 45.504ZM35.5745 56.2531C36.6572 54.5778 37.5776 52.5312 39.337 51.4808C41.0513 50.4575 43.0363 49.9051 44.9492 49.407C46.5823 48.9814 48.2335 48.6373 49.8846 48.2932C51.0847 51.4355 52.8261 54.3876 54.5584 57.2492C56.3269 60.1561 58.2126 62.9996 60.1525 65.7978C60.3962 66.142 60.6398 66.4861 60.8834 66.8302V70.9505H53.4035C53.0336 70.9505 52.6907 71.1588 52.5012 71.4667C51.7433 71.0411 50.9313 70.8147 50.1012 70.5068C49.2711 70.1989 48.4861 69.7008 47.6109 69.5197C47.1778 69.4292 46.7627 69.4292 46.3567 69.4926C45.9236 67.7629 45.4815 66.0333 45.0394 64.3036C44.5522 62.4019 44.1822 60.1471 41.8363 59.8301C41.4664 59.7758 41.0965 59.7486 40.7265 59.7124C38.4979 59.486 36.2693 59.2506 34.0406 59.0242C33.9685 59.0242 33.9053 59.0061 33.8331 59.0061C34.4106 58.1005 34.988 57.1859 35.5655 56.2803L35.5745 56.2531ZM16.2838 89.1525C16.2838 89.1525 16.2838 89.1706 16.2838 89.1796C16.2838 89.1796 16.2838 89.1706 16.2838 89.1615V89.1525ZM16.2838 89.1978C16.3199 89.3427 16.3109 89.2612 16.2838 89.1978ZM17.0869 89.9313C17.0147 89.9041 16.9425 89.8769 16.8613 89.8498C16.8613 89.8498 16.8523 89.8407 16.8342 89.8317C16.8072 89.8135 16.753 89.7864 16.7079 89.7592C16.6808 89.732 16.6538 89.7049 16.6267 89.6777C16.5816 89.6324 16.5365 89.5781 16.4914 89.5419C16.4553 89.4785 16.3741 89.2883 16.3019 89.1978C16.3199 89.1978 16.3289 89.1797 16.347 89.1706C16.5094 89.1887 16.6808 89.2159 16.8432 89.234C17.4207 89.3064 17.8989 88.6906 17.9079 88.1654C17.9079 88.1382 17.9079 88.1111 17.9079 88.0839C18.314 88.8899 18.738 89.6958 19.1711 90.4927C18.4764 90.3297 17.7816 90.1758 17.1049 89.9313H17.0869ZM37.8843 91.8873C37.4242 91.4617 36.6482 91.3802 36.2963 92.1046C35.8813 92.9378 34.176 92.8563 33.4 92.8653C31.7579 92.9015 30.1789 92.4759 28.5458 92.4669C26.8495 92.4488 25.0179 93.2457 23.3577 92.6933C22.3742 92.3673 22.0764 91.507 21.6434 90.6648C20.3621 88.1926 19.0538 85.7657 17.9801 83.1848C17.7094 82.5328 17.4027 81.8898 17.2222 81.2016C17.2042 81.1472 17.1771 81.0205 17.1771 80.939C17.2042 80.9209 17.2402 80.8937 17.3215 80.8575C17.6643 80.6854 17.7455 80.6764 17.917 80.785C18.3861 81.0748 18.747 81.754 19.0358 82.2068C19.3877 82.7592 19.7125 83.3297 20.0193 83.9002C20.8945 85.5393 21.7787 87.45 22.4825 89.0981C22.4915 89.1253 22.5005 89.1434 22.5095 89.1706C22.5998 89.3879 22.69 89.5962 22.7712 89.7954C22.8073 89.8769 22.8434 89.9675 22.8795 90.049C23.3577 91.1447 25.2795 90.3478 24.8194 89.2249C24.7743 89.1253 24.7291 89.0257 24.6931 88.917C24.1427 87.6402 23.6013 86.2728 23.1231 84.9144C22.8073 84.027 22.4825 83.1033 22.311 82.1705C22.2208 81.6544 22.1035 81.3917 22.6629 81.3827C23.0148 81.3827 22.8705 81.3374 23.0599 81.591C23.5021 82.1796 23.7457 83.0308 24.0254 83.701C24.1156 83.9274 24.1968 84.1537 24.287 84.3801C24.4314 84.8782 24.6209 85.3581 24.7923 85.8109C24.9457 86.2094 25.1171 86.6078 25.2976 87.0063C25.6585 87.9662 26.0194 88.917 26.3713 89.8769C26.8405 91.1538 28.7353 90.6648 28.4195 89.3064C28.221 88.4371 27.842 87.5768 27.463 86.7346C27.0751 85.7023 26.6781 84.6699 26.263 83.6466C26.1638 83.1576 26.2089 81.8898 26.9578 82.5056C27.436 82.895 27.7247 83.9817 27.9773 84.5341C28.1849 84.9959 28.3924 85.4578 28.5999 85.9196C28.6992 86.3362 28.8435 86.7618 29.033 87.2055C29.4571 88.2288 29.9353 89.2249 30.4676 90.2029C31.1443 91.4345 32.8226 90.3478 32.2992 89.1253C31.7218 87.7579 31.1443 86.3814 30.5398 85.0231C30.5849 84.8148 30.9007 84.3077 31.2075 84.3982C31.9293 84.6156 32.2361 85.6389 32.4436 86.2365C32.9308 87.5858 33.6256 88.8446 34.1309 90.1758C34.1579 90.2663 34.185 90.3569 34.2301 90.4384C34.2933 90.6104 34.3655 90.7735 34.4196 90.9455C34.7264 91.9507 36.0076 91.8511 36.4046 91.1538C36.964 91.2081 37.5234 91.2625 38.0738 91.3168C38.0016 91.507 37.9385 91.6971 37.8663 91.8873H37.8843ZM37.0362 89.08C36.6843 89.0438 36.3234 89.0076 35.9715 88.9804C35.7189 88.3646 35.4392 87.7579 35.1504 87.1512C34.6722 86.1279 34.4286 84.9054 33.788 83.9817C32.7775 82.5328 30.9549 81.591 29.5473 82.8407C29.4029 82.5418 29.2676 82.243 29.1142 81.9442C28.6811 81.0929 28.0044 80.3956 27.0209 80.2688C26.3442 80.1783 25.6134 80.3956 25.054 80.8212C24.7382 80.2055 24.3231 79.6259 23.6464 79.3723C22.7622 79.0463 21.481 79.2999 20.7772 79.9428C20.6328 80.0696 20.5336 80.2145 20.4343 80.3685C19.9471 79.6802 19.3786 79.0644 18.6929 78.7384C17.2132 78.0502 15.1109 79.2455 15.0748 80.8937C15.0567 81.7449 15.4447 82.5509 15.7605 83.3116C16.1575 84.2715 16.5635 85.2314 16.9876 86.1822C17.1681 86.5897 17.3575 86.9882 17.547 87.3776C17.3575 87.2236 17.1049 87.124 16.8432 87.0878C13.9469 86.6984 11.0506 86.309 8.14529 85.9196C6.32269 77.2805 4.1482 68.7047 2.45192 60.0384C2.37974 59.6762 2.31658 59.323 2.25342 58.9608C2.21733 58.7434 2.02785 58.2363 2.10003 58.028C2.19026 57.7745 2.31658 57.8469 2.52411 57.8469C3.04743 57.8469 3.58879 57.9556 4.10309 58.0099C6.49413 58.2544 8.88516 58.508 11.2762 58.7525C18.0974 59.4588 24.9276 60.1652 31.7489 60.8715C34.3023 61.1341 36.8558 61.3968 39.4002 61.6684C40.0498 61.7318 40.6994 61.8043 41.3491 61.8677C42.2153 61.9582 42.4228 62.5921 42.6484 63.4433C43.2619 65.7526 43.8484 68.0708 44.4258 70.3981C44.2634 70.7785 44.3988 71.2403 44.7056 71.5482C45.4274 74.4732 46.1221 77.3982 46.8079 80.3322C46.7357 80.5858 46.7718 80.9299 46.9161 81.1563C46.9522 81.2106 46.9973 81.265 47.0425 81.3193C47.5116 83.3478 47.9718 85.3763 48.4229 87.4047C48.5673 88.0749 48.7207 88.745 48.856 89.4151C49.1357 90.7553 51.1839 90.1848 50.9042 88.8446C50.832 88.5095 50.7598 88.1835 50.6877 87.8485C51.4365 87.7488 52.014 87.2689 52.6366 86.8161C53.0787 86.4901 53.5208 86.1732 53.9629 85.8472C53.99 85.8562 54.0261 85.8743 54.0531 85.8834C54.6396 86.0735 55.2261 86.2909 55.8126 86.4992C54.3238 87.5949 52.8441 88.6997 51.3553 89.7954C51.0847 89.9947 50.823 90.1939 50.5523 90.3841C50.4801 90.3569 50.3989 90.3478 50.3087 90.3388C45.8875 89.9132 41.4574 89.4785 37.0362 89.0529V89.08ZM50.2997 85.7566H50.3177C50.3177 85.7566 50.3177 85.7566 50.2997 85.7566ZM48.3327 237.974C48.0891 238.553 47.8274 239.133 47.6019 239.722C47.4214 240.174 47.277 240.636 46.9612 241.026C46.4469 241.66 45.689 241.976 44.9221 242.176C43.0995 242.656 40.9521 242.773 39.0934 242.529C37.4603 242.321 34.97 241.596 35.1956 239.513C35.2948 238.59 35.7369 237.702 36.1339 236.869C36.6211 235.855 37.0452 234.841 37.4783 233.808C37.9385 232.767 38.4889 231.97 39.5175 231.445C40.907 230.738 42.495 230.675 43.9747 231.092C45.2559 231.445 46.1763 232.033 47.0515 233.011C47.5387 233.546 47.9899 234.116 48.3959 234.723C48.6305 235.067 48.9733 235.221 49.3162 235.221C49.0455 236.19 48.6846 237.123 48.3327 237.983V237.974ZM49.5237 222.579C49.4245 223.711 49.2801 224.843 49.2801 225.975C49.2801 227.324 49.5779 228.646 49.5869 229.996C49.5869 230.15 49.5959 230.313 49.6139 230.494C49.3703 230.974 49.1538 231.481 48.9643 231.988C48.7658 231.753 48.5673 231.508 48.3598 231.291C47.1868 230.041 45.7161 229.271 44.0379 228.918C42.6123 228.61 41.1957 228.665 39.8333 229.063C39.8603 229.018 39.8784 228.963 39.9054 228.909C41.0965 226.69 42.107 224.336 42.3506 221.8C42.486 220.361 42.522 218.903 42.513 217.445C44.9582 217.49 47.4034 217.535 49.8395 217.58C49.7312 219.256 49.6681 220.94 49.5147 222.588L49.5237 222.579ZM70.4114 236.045C70.258 236.018 70.1137 235.982 69.9603 235.945C69.8791 235.918 69.7889 235.9 69.7077 235.873C69.6716 235.864 69.6355 235.846 69.5994 235.837C69.4911 235.791 69.5092 235.801 69.6535 235.864C69.5362 235.864 69.3738 235.71 69.2746 235.656C69.2565 235.637 69.2565 235.647 69.2475 235.638C69.2295 235.628 69.2204 235.61 69.2024 235.601C69.1482 235.547 69.0941 235.493 69.049 235.438C69.049 235.438 69.049 235.438 69.04 235.429C69.04 235.429 69.04 235.429 69.0309 235.411C68.9768 235.321 68.9227 235.239 68.8685 235.148C68.8234 235.067 68.7783 234.976 68.7332 234.886C68.7332 234.886 68.7332 234.886 68.7332 234.877C68.7332 234.868 68.7332 234.859 68.7332 234.85C68.7151 234.786 68.6971 234.723 68.6791 234.659C68.9858 234.832 69.2926 234.995 69.5813 235.176C69.9513 235.411 70.222 235.719 70.4746 236.063C70.4566 236.063 70.4385 236.063 70.4295 236.063L70.4114 236.045ZM87.5727 239.205C87.9607 239.658 88.3216 240.138 88.6465 240.645C89.1156 241.397 89.5036 241.886 88.7006 242.511C87.2209 243.67 85.1366 243.579 83.3771 243.48C81.8343 243.389 80.2553 243.172 78.8928 242.411C77.4221 241.587 76.3304 240.238 75.2386 238.97C74.0566 237.603 73.0822 236.108 72.0536 234.623C71.5754 233.935 70.9347 233.473 70.2129 233.075C69.6716 232.776 68.6791 232.459 68.3542 231.897C68.3001 231.798 68.264 231.689 68.2369 231.562C68.2369 231.526 68.2369 231.49 68.2279 231.463C68.2279 231.454 68.2279 231.445 68.2279 231.436C68.1648 230.829 68.3993 230.041 68.5166 229.552C68.5527 229.398 68.6069 229.244 68.643 229.099C69.5182 229.724 70.3212 230.467 71.0881 231.209C72.3243 232.405 73.5333 233.691 74.4085 235.185C74.5078 235.348 74.6341 235.456 74.7784 235.538C76.4747 237.403 78.1439 239.848 80.6703 240.455C81.6358 240.691 82.5741 240.618 83.5215 240.346C84.7306 240.002 85.9035 239.64 87.1487 239.441C87.3201 239.414 87.4645 239.323 87.5818 239.205H87.5727ZM79.4974 228.909C78.3425 229.063 77.1605 229.489 76.2492 229.842C75.5003 230.132 74.8867 230.53 74.5619 231.291C74.5168 231.408 74.4717 231.526 74.4356 231.644C73.8491 230.965 73.2175 230.313 72.5769 229.697C71.6205 228.773 70.5919 227.841 69.464 227.089C69.464 227.053 69.4731 227.016 69.4821 226.98C69.7257 225.848 70.0505 224.743 70.3032 223.621C70.6731 221.954 70.7002 220.306 70.7363 218.613C70.7363 218.577 70.7363 218.531 70.7363 218.495H77.783C77.783 218.586 77.765 218.667 77.756 218.758C77.4763 222.244 78.5049 225.622 79.4883 228.918L79.4974 228.909ZM84.1621 235.348C84.2524 235.465 84.3336 235.592 84.4238 235.71C84.902 236.362 85.4253 236.942 85.9667 237.503C85.0193 237.693 84.099 237.956 83.1606 238.227C82.9711 238.282 82.7816 238.336 82.5922 238.39C82.529 238.409 82.2042 238.454 82.1952 238.463C82.0237 238.481 81.8523 238.481 81.6809 238.472C81.6448 238.472 81.5726 238.463 81.5455 238.463C81.4373 238.445 81.329 238.427 81.2297 238.399C80.1831 238.146 79.4252 237.421 78.6763 236.652C78.6402 236.606 78.6041 236.57 78.559 236.525C78.6943 236.443 78.8297 236.362 78.974 236.29C79.0462 236.253 79.1094 236.226 79.1816 236.19C79.1996 236.19 79.2086 236.181 79.2176 236.172C79.3259 236.127 79.4342 236.081 79.5425 236.045C80.0929 235.846 80.6523 235.683 81.2207 235.565C81.5004 235.502 81.7801 235.456 82.0688 235.411C82.0779 235.411 82.0869 235.411 82.0959 235.411C82.1591 235.411 82.2222 235.393 82.2854 235.393C82.4298 235.375 82.5831 235.366 82.7275 235.357C83.2057 235.321 83.6839 235.321 84.1531 235.357L84.1621 235.348ZM82.1049 235.42H82.1591C82.1591 235.42 82.141 235.42 82.1049 235.42ZM81.338 231.436C81.3831 231.517 81.4373 231.581 81.4914 231.644C81.8703 232.169 82.2583 232.703 82.6373 233.229C81.9786 233.283 81.3109 233.383 80.6703 233.518C79.4883 233.772 78.2883 234.17 77.2597 234.813C77.2056 234.85 77.1514 234.886 77.1063 234.931C76.8627 234.659 76.6191 234.397 76.3755 234.134C76.3574 233.528 76.3394 232.894 76.4657 232.314C76.5018 232.133 76.601 232.006 76.5559 232.06C76.5559 232.06 76.7635 231.934 76.8266 231.897C77.7921 231.472 80.6523 230.186 81.347 231.436H81.338ZM81.5726 119.634C82.1681 124.805 82.5471 129.976 82.2132 135.174C81.9335 139.439 81.8974 143.731 81.744 148.005C81.4102 157.016 81.0764 166.035 80.7515 175.046C80.4087 184.274 80.0748 193.501 79.732 202.729C79.6147 205.971 79.4974 209.222 79.371 212.464C79.3259 213.741 79.1906 215.063 79.1816 216.358H69.6535C69.5272 213.759 69.3919 211.169 69.2655 208.57C68.9136 201.479 68.5527 194.398 68.2009 187.307C67.7678 178.731 67.3437 170.165 66.9106 161.589C66.5407 154.181 66.1707 146.765 65.7918 139.357C65.6113 135.789 65.5211 132.203 65.2504 128.635C66.0625 128.264 66.8655 127.902 67.6775 127.531C68.1196 127.331 68.5618 127.123 69.0039 126.924C69.5272 126.688 69.6535 125.928 69.3828 125.466C69.067 124.922 68.4535 124.841 67.9302 125.085C66.4143 125.774 64.8895 126.471 63.3737 127.159C63.3737 122.215 63.3737 117.27 63.3646 112.326C63.3646 111.529 63.3646 110.732 63.3646 109.935C63.3646 109.836 63.3556 109.754 63.3285 109.673C65.1692 109.664 67.0098 109.655 68.8595 109.646C69.9332 109.646 71.0069 109.636 72.0897 109.627C73.4521 109.627 73.4611 107.49 72.0897 107.499C64.3932 107.536 56.6968 107.581 49.0004 107.617C47.9267 107.617 46.853 107.626 45.7702 107.635C44.4078 107.635 44.3988 109.772 45.7702 109.763L61.2623 109.682C61.2443 109.763 61.2353 109.845 61.2353 109.935C61.2353 115.604 61.2443 121.273 61.2533 126.951C61.2533 127.34 61.2533 127.739 61.2533 128.128C60.3781 128.527 59.5119 128.925 58.6367 129.315C58.1946 129.514 57.7525 129.722 57.3104 129.921C56.787 130.157 56.6607 130.917 56.9314 131.379C57.2472 131.923 57.8608 132.004 58.3841 131.76L58.5736 131.678C58.4021 134.005 58.2397 136.333 58.0683 138.669C57.572 145.551 57.0758 152.425 56.5795 159.307C55.975 167.629 55.3795 175.96 54.775 184.283C54.2516 191.482 53.7374 198.69 53.214 205.89C53.0426 208.28 52.8712 210.671 52.6997 213.062C52.6456 213.849 52.5193 214.683 52.4742 215.498C49.0906 215.434 45.7161 215.371 42.3326 215.317C42.2784 211.459 42.2243 207.592 42.1611 203.734C42.0258 194.552 41.8905 185.378 41.7641 176.196C41.6288 167.022 41.4934 157.849 41.3671 148.676C41.322 145.687 41.2769 142.69 41.2408 139.701C41.2228 138.406 41.2859 137.093 41.1145 135.807C40.113 128.264 40.898 120.485 42.3326 113.05C42.7115 111.094 43.1356 109.138 43.6409 107.21C43.9928 105.896 43.6589 104.375 43.5867 103.044C43.5597 102.645 43.5416 102.238 43.5146 101.84H79.0462C79.0733 102.999 79.1004 104.149 79.1274 105.308C79.0733 105.48 79.0823 105.688 79.1725 105.915C79.8041 107.517 80.0477 109.329 80.3455 111.013C80.8508 113.875 81.2568 116.754 81.5906 119.643L81.5726 119.634ZM82.4568 97.2211C82.141 97.4022 81.8162 97.5562 81.4914 97.7101C81.4102 97.7464 81.329 97.7826 81.2388 97.8188C81.2117 97.8278 81.1395 97.8641 81.1124 97.8731C80.959 97.9365 80.8147 97.9999 80.6613 98.0542C79.5154 98.5161 78.3966 98.9598 77.4131 99.6933H64.7722C65.467 99.2768 66.1527 98.8421 66.8204 98.3621C68.5979 97.0762 70.3844 95.8265 72.2792 94.7217C73.4611 94.0335 72.3874 92.1862 71.2054 92.8834C69.3107 93.9973 67.5241 95.2379 65.7467 96.5238C64.0053 97.7826 62.1466 98.7877 60.2067 99.6933H42.9732C42.6303 98.4799 41.4393 97.4566 40.51 96.7049C39.9776 96.2703 39.4182 95.8628 38.8498 95.4734C39.319 94.1603 39.7881 92.8382 40.2573 91.5251C42.9732 91.7877 45.68 92.0503 48.3959 92.3129C49.0365 92.3763 49.6681 92.4397 50.3087 92.494C50.5252 92.5121 50.7057 92.4759 50.8591 92.3944C51.1117 92.4578 51.3734 92.4397 51.5899 92.2767C53.5659 90.8187 55.5419 89.3517 57.5089 87.8937C57.7705 87.7036 58.0232 87.5134 58.2848 87.3142C58.4743 87.3595 58.6638 87.4228 58.8533 87.4591C60.5495 87.8032 62.2188 87.6492 63.8338 87.0244C64.2399 86.8705 64.5466 86.5354 64.6008 86.1279C64.312 86.0283 64.0414 85.9558 63.8338 85.9558C64.0414 85.9558 64.312 86.0192 64.6008 86.1279C64.6188 86.0011 64.6098 85.8562 64.5737 85.7204C64.4293 85.2042 63.8068 84.7695 63.2654 84.9778C61.8939 85.5121 60.5315 85.6841 59.151 85.3581C58.0593 85.1046 57.0126 84.7061 55.9569 84.3258C56.2276 84.1085 56.5073 83.8821 56.769 83.6466C57.1841 83.2753 57.175 82.5147 56.769 82.1434C56.3179 81.7359 55.7133 81.754 55.2712 82.1434C54.1704 83.1123 53.0516 83.9002 51.8426 84.7786C51.5538 84.9869 51.2651 85.2042 50.9764 85.4125C50.841 85.5121 50.7147 85.6117 50.5704 85.7023C50.5704 85.7023 50.4621 85.7475 50.444 85.7566C50.3899 85.7566 50.3267 85.7566 50.2636 85.7566C50.2636 85.7566 50.2636 85.7566 50.2455 85.7566C50.2275 85.7566 50.2094 85.7475 50.1914 85.7385C50.1012 85.331 50.02 84.9325 49.9297 84.525C49.9388 84.525 49.9478 84.525 49.9568 84.5069C51.5358 83.384 53.1148 82.2611 54.6938 81.1291C54.9193 80.9661 55.1449 80.8122 55.3615 80.6492C55.8126 80.3232 56.0743 79.7074 55.7404 79.1912C55.4517 78.7384 54.775 78.4668 54.2877 78.8109C52.7088 79.9338 51.1298 81.0567 49.5508 82.1886C49.5057 82.2158 49.4696 82.252 49.4245 82.2792C49.3252 81.8445 49.2169 81.4099 49.1177 80.9752C50.2094 80.1692 51.3012 79.3633 52.393 78.5664C52.5824 78.4305 52.7719 78.2856 52.9614 78.1498C53.187 77.9778 53.3674 77.7966 53.4486 77.5159C53.5208 77.2624 53.4847 76.9182 53.3404 76.6918C53.0516 76.2481 52.3659 75.9583 51.8877 76.3115C50.7869 77.1175 49.6952 77.9325 48.5944 78.7384C48.45 78.1407 48.3147 77.534 48.1703 76.9363C48.3959 76.8096 48.6214 76.7009 48.856 76.6013C49.3974 76.3839 49.9568 76.1757 50.5343 76.076C50.7779 76.0308 51.0486 75.7953 51.1659 75.587C51.3012 75.3607 51.3553 75.0256 51.2741 74.763C51.1929 74.5094 51.0305 74.2559 50.7869 74.1291C50.5162 73.9842 50.2636 73.9661 49.9658 74.0204C49.3974 74.12 48.829 74.3283 48.2966 74.5456C48.0801 74.6271 47.8725 74.7177 47.656 74.8173C47.3943 73.7397 47.1327 72.6621 46.862 71.5844C47.241 71.6025 47.6109 71.7293 48.035 71.9104C48.9192 72.2998 49.8215 72.5896 50.7238 72.9247C51.3824 73.1692 51.9599 73.5495 52.5283 73.9842C52.6276 74.111 52.7539 74.2106 52.8892 74.274C53.6922 74.926 54.4682 75.6233 55.3524 76.0942C58.6548 77.8419 62.5436 79.6983 66.3873 79.5715C66.5587 80.0606 66.6489 80.622 66.676 81.1472C66.7121 82.0075 66.6399 82.8678 66.4685 83.71C66.27 84.6971 65.9722 85.6751 65.5752 86.6078C65.3136 87.2146 65.0248 87.8032 64.6639 88.3556C64.3752 88.7903 64.4654 89.2159 64.7271 89.5147C64.7542 89.9041 64.9887 90.2663 65.476 90.4112C69.7618 91.6066 74.0476 92.8019 78.3605 93.8796C80.138 94.3233 81.9335 94.6584 83.7561 94.9029C83.8283 95.3194 83.9095 95.736 83.9817 96.1525C83.5035 96.5601 82.9982 96.9313 82.4388 97.2392L82.4568 97.2211ZM93.8345 87.5587C93.7714 88.917 93.7263 90.6557 93.0044 91.8511C92.5082 92.6661 91.4164 92.8653 90.5412 92.9921C89.1517 93.1913 87.7081 93.1279 86.3095 93.0283C85.9396 93.0012 85.5697 92.9649 85.1998 92.9197C84.9471 92.7748 84.6313 92.7204 84.3606 92.7929C84.3426 92.7929 84.3245 92.811 84.3065 92.82C82.7636 92.6299 81.2207 92.3582 79.7139 91.996C75.4461 90.9727 71.2054 89.7864 66.9828 88.6001C67.7678 87.1693 68.3091 85.5664 68.5888 83.9726C68.9407 81.9985 68.9949 79.8613 68.0384 78.0321C68.0294 78.0049 68.0114 77.9868 67.9933 77.9687C73.5062 78.7113 79.0282 79.4448 84.5411 80.1873C85.3531 80.296 86.1562 80.4047 86.9682 80.5133C87.5457 80.5858 88.0239 79.97 88.0329 79.4448C88.0329 78.8109 87.5367 78.4577 86.9682 78.3762C85.7592 78.2132 84.5411 78.0502 83.332 77.8872C83.7381 74.9441 83.8644 71.9919 83.8915 69.0398C84.0719 68.9492 84.2253 68.8134 84.3426 68.6323C85.7592 66.4408 87.1848 64.2403 88.6013 62.0488C88.7998 61.7409 89.0074 61.4239 89.2059 61.107C89.5217 60.627 89.3051 59.9297 88.8269 59.649C88.3126 59.3502 87.69 59.5494 87.3742 60.0294C86.2193 61.8224 85.0554 63.6154 83.9005 65.4084C83.9005 63.4796 83.8824 61.5417 83.9275 59.6128C83.9636 58.2454 81.8343 58.2454 81.8072 59.6128C81.6628 65.6167 82.1049 71.6388 81.2568 77.6065C78.2071 77.199 75.1664 76.7915 72.1167 76.384V72.001C72.1167 71.4214 71.6295 70.9324 71.0521 70.9324H63.0128V67.781C63.094 67.7086 63.1661 67.6361 63.2293 67.5365C66.4504 62.891 69.5182 58.0099 71.9182 52.8844C72.4416 51.7706 72.9288 50.6295 73.3258 49.4613C73.5965 49.2983 73.8672 49.1263 74.1378 48.9633C74.4807 48.755 74.6251 48.4471 74.6431 48.1302C75.5364 48.3566 76.4296 48.592 77.3138 48.8365C79.741 49.5157 82.2493 50.222 84.496 51.3812C85.5787 51.9426 86.0118 52.3954 86.6975 53.4821C87.6991 55.0578 88.4119 56.7512 88.9171 58.5442C89.4134 60.301 89.7202 62.1122 90.036 63.9052C90.4059 66.0242 90.857 68.1161 91.3172 70.217C92.2104 74.3011 93.0405 78.3853 93.5368 82.5328C93.7353 84.2081 93.9067 85.8562 93.8345 87.5406V87.5587Z" fill="var(--fill-0, #323232)"/>
<path id="Vector_42" d="M25.1431 76.8276C26.3341 76.5831 27.1462 75.4692 27.2544 74.301C27.2725 74.2286 27.2725 74.1561 27.2725 74.0837C27.2544 72.8793 26.5326 71.8379 25.4048 71.4123C24.3942 71.0319 23.1491 71.3941 22.4814 72.2273C22.0754 72.7344 21.8588 73.2868 21.8047 73.9297C21.7596 74.4731 21.913 75.0617 22.1836 75.5236C22.7882 76.565 23.9792 77.063 25.1431 76.8185V76.8276ZM24.0694 74.5365C24.0694 74.5365 24.0243 74.4459 23.9972 74.4006C23.9701 74.3282 23.9521 74.2648 23.9431 74.1924C23.9431 74.1199 23.9431 74.0565 23.9431 73.9841C23.9611 73.9116 23.9792 73.8392 23.9972 73.7758C24.0153 73.7305 24.0423 73.6943 24.0604 73.649C24.0423 73.6671 24.0333 73.6762 24.0153 73.6943C24.0333 73.6762 24.0514 73.6581 24.0604 73.64C24.0965 73.5856 24.1326 73.5494 24.1145 73.5856C24.1326 73.5675 24.1506 73.5494 24.1777 73.5313C24.2138 73.5041 24.2589 73.486 24.295 73.4679C24.3401 73.4498 24.3942 73.4407 24.4393 73.4317C24.4935 73.4317 24.5566 73.4317 24.6198 73.4317C24.6649 73.4407 24.719 73.4588 24.7642 73.4679C24.8002 73.486 24.8454 73.5132 24.8814 73.5313C24.9085 73.5494 24.9266 73.5766 24.9446 73.5947C24.9446 73.5947 24.9717 73.6218 24.9897 73.649C25.0168 73.6943 25.0348 73.7396 25.0619 73.7848C25.089 73.8663 25.116 73.9569 25.1341 74.0384C25.1341 74.0565 25.1341 74.0746 25.1341 74.0927C25.1341 74.1109 25.1341 74.129 25.1341 74.1471C25.116 74.2376 25.089 74.3191 25.0619 74.4006C25.0439 74.4459 25.0168 74.4821 24.9987 74.5274C25.0168 74.5093 25.0258 74.5002 25.0439 74.4821C25.0258 74.5002 25.0078 74.5184 24.9987 74.5365C24.9627 74.5908 24.9266 74.627 24.9446 74.5908C24.9266 74.6089 24.9085 74.627 24.8814 74.6451C24.8454 74.6723 24.8002 74.6904 24.7642 74.7085C24.719 74.7266 24.6649 74.7357 24.6198 74.7448C24.5657 74.7448 24.5025 74.7448 24.4393 74.7448C24.3942 74.7357 24.3401 74.7176 24.295 74.7085C24.2589 74.6904 24.2138 74.6633 24.1777 74.6451C24.1506 74.627 24.1326 74.5999 24.1145 74.5817C24.1145 74.5817 24.0874 74.5546 24.0694 74.5274V74.5365Z" fill="var(--fill-0, #323232)"/>
<path id="Vector_43" d="M24.9466 74.5818C24.9466 74.5818 24.9829 74.5455 25.001 74.5273C24.9647 74.5637 24.9466 74.5909 24.9375 74.6L24.9466 74.5818Z" fill="var(--fill-0, #323232)"/>
<path id="Vector_44" d="M24.1326 73.5768C24.1326 73.5768 24.0963 73.6131 24.0781 73.6312C24.1144 73.5949 24.1326 73.5677 24.1417 73.5586L24.1326 73.5768Z" fill="var(--fill-0, #323232)"/>
<path id="Vector_45" d="M48.4729 205.79C48.888 194.489 49.1316 183.187 49.294 171.876C49.4474 161.082 49.5557 150.279 49.7903 139.484C49.9346 132.91 50.1151 126.335 50.3587 119.761C50.4128 118.393 48.2835 118.393 48.2383 119.761C47.8233 131.062 47.5797 142.364 47.4173 153.674C47.2639 164.469 47.1556 175.272 46.921 186.067C46.7767 192.641 46.5962 199.216 46.3526 205.79C46.2984 207.157 48.4278 207.157 48.4729 205.79Z" fill="var(--fill-0, #323232)"/>
<path id="Vector_46" d="M74.4691 185.605C74.3609 192.034 74.2706 198.455 74.2436 204.884C74.2436 206.252 76.3639 206.261 76.3639 204.884C76.4451 182.417 77.3925 159.941 76.8151 137.474C76.6527 131.053 76.3639 124.642 75.9128 118.23C75.8135 116.872 73.6932 116.863 73.7924 118.23C75.3804 140.661 74.8481 163.146 74.4691 185.605Z" fill="var(--fill-0, #323232)"/>
<path id="Vector_47" d="M87.5701 239.206C87.4528 239.323 87.3084 239.414 87.137 239.441C85.8918 239.64 84.7189 240.003 83.5098 240.347C82.5625 240.618 81.6241 240.682 80.6586 240.455C78.1323 239.849 76.4631 237.395 74.7668 235.538C74.6224 235.457 74.4961 235.348 74.3968 235.185C73.5216 233.691 72.3126 232.405 71.0765 231.21C70.3095 230.476 69.5065 229.734 68.6313 229.1C68.5862 229.254 68.5411 229.408 68.505 229.552C68.3877 230.032 68.1441 230.82 68.2163 231.436C68.2163 231.445 68.2163 231.454 68.2163 231.463C68.2163 231.499 68.2162 231.536 68.2253 231.563C68.2523 231.68 68.2794 231.798 68.3426 231.898C68.6674 232.459 69.6599 232.776 70.2013 233.075C70.9231 233.473 71.5637 233.935 72.0419 234.624C73.0705 236.109 74.045 237.594 75.2269 238.97C76.3097 240.229 77.4104 241.578 78.8812 242.411C80.2526 243.181 81.8316 243.399 83.3655 243.48C85.1249 243.58 87.2092 243.67 88.6889 242.511C89.4919 241.886 89.104 241.397 88.6348 240.646C88.31 240.139 87.949 239.659 87.5611 239.206H87.5701Z" fill="var(--fill-0, #898989)"/>
<path id="Vector_48" d="M76.3577 234.134C76.6013 234.396 76.845 234.659 77.0886 234.931C77.1337 234.885 77.1878 234.849 77.242 234.813C78.2706 234.17 79.4706 233.763 80.6526 233.518C81.2932 233.382 81.9609 233.283 82.6195 233.228C82.2406 232.694 81.8526 232.169 81.4736 231.644C81.4195 231.58 81.3654 231.517 81.3203 231.435C80.6255 230.195 77.7653 231.481 76.7998 231.897C76.7367 231.924 76.5201 232.06 76.5291 232.06C76.5833 232.006 76.484 232.142 76.4389 232.314C76.3126 232.893 76.3307 233.527 76.3487 234.134H76.3577Z" fill="var(--fill-0, #898989)"/>
<path id="Vector_49" d="M82.731 235.357C82.5867 235.366 82.4333 235.384 82.2889 235.393C82.2257 235.393 82.1626 235.411 82.0994 235.411C82.0994 235.411 82.0814 235.411 82.0724 235.411C81.7927 235.456 81.5039 235.501 81.2242 235.565C80.6558 235.683 80.0874 235.846 79.546 236.045C79.4377 236.081 79.3294 236.126 79.2212 236.172C79.2121 236.172 79.2031 236.181 79.1851 236.19C79.1129 236.226 79.0497 236.253 78.9776 236.289C78.8332 236.362 78.6978 236.443 78.5625 236.525C78.5986 236.57 78.6347 236.606 78.6798 236.652C79.4287 237.421 80.1866 238.146 81.2332 238.399C81.3415 238.426 81.4408 238.445 81.549 238.463C81.5761 238.463 81.6483 238.472 81.6844 238.472C81.8558 238.481 82.0273 238.472 82.1987 238.463C82.2077 238.463 82.5325 238.399 82.5957 238.39C82.7852 238.345 82.9746 238.291 83.1641 238.227C84.0935 237.947 85.0138 237.684 85.9702 237.503C85.4288 236.941 84.9055 236.362 84.4273 235.71C84.3371 235.592 84.2559 235.465 84.1656 235.348C83.6874 235.32 83.2092 235.32 82.74 235.348L82.731 235.357Z" fill="var(--fill-0, #898989)"/>
<path id="Vector_50" d="M49.3214 235.221C48.9785 235.221 48.6356 235.067 48.401 234.723C47.995 234.125 47.5439 233.555 47.0567 233.011C46.1724 232.033 45.2521 231.445 43.9799 231.091C42.4911 230.675 40.9121 230.747 39.5226 231.445C38.485 231.97 37.9437 232.767 37.4835 233.808C37.0504 234.84 36.6263 235.855 36.1391 236.869C35.7421 237.693 35.3 238.59 35.2007 239.513C34.9842 241.596 37.4745 242.321 39.0986 242.529C40.9663 242.764 43.1047 242.647 44.9273 242.176C45.6942 241.976 46.4521 241.659 46.9664 241.026C47.2822 240.636 47.4266 240.183 47.607 239.722C47.8416 239.133 48.1033 238.562 48.3379 237.974C48.6898 237.123 49.0507 236.181 49.3214 235.212V235.221ZM46.0641 239.459C44.6205 240.5 42.5453 240.401 40.858 240.201C39.27 240.011 36.2113 239.486 36.4368 237.249C36.491 236.67 36.879 236.181 37.5015 236.181C38.0339 236.181 38.6204 236.67 38.5662 237.249C38.5662 237.286 38.5662 237.322 38.5662 237.34C38.5933 237.367 38.6204 237.394 38.6474 237.421C38.6745 237.439 38.6925 237.458 38.7196 237.467C38.8008 237.512 38.873 237.548 38.9542 237.593C38.9813 237.603 38.9993 237.621 39.0083 237.621C39.0083 237.621 39.0264 237.621 39.0444 237.63C39.1437 237.666 39.2339 237.702 39.3332 237.729C39.7031 237.847 40.0911 237.938 40.4791 238.001C40.5873 238.019 40.6956 238.037 40.7948 238.055C40.8309 238.055 40.8761 238.064 40.9121 238.073C41.1016 238.092 41.2911 238.11 41.4806 238.128C42.1032 238.173 42.7438 238.209 43.3663 238.164C43.646 238.146 43.9528 238.092 44.3318 237.965C44.3769 237.947 44.5213 237.892 44.5393 237.883C44.6025 237.856 44.6656 237.82 44.7288 237.784C44.7919 237.747 44.8461 237.711 44.9092 237.666C44.9363 237.648 44.9904 237.602 45.0175 237.575C45.0897 237.503 45.1619 237.43 45.225 237.358C45.2521 237.322 45.2701 237.295 45.2972 237.258C45.3784 237.123 45.5228 236.851 45.5498 236.797C45.613 236.661 45.6671 236.471 45.7213 236.271C45.6401 236.244 45.5589 236.208 45.4777 236.181C45.207 236.081 44.9363 236 44.6656 235.918C44.0701 235.746 43.4656 235.61 42.852 235.511C42.7708 235.502 42.6806 235.483 42.5994 235.474C42.5723 235.474 42.5362 235.474 42.5182 235.465C42.3648 235.447 42.2204 235.429 42.0671 235.42C41.7603 235.393 41.4445 235.384 41.1377 235.384C40.858 235.384 40.5783 235.402 40.3076 235.429C40.2806 235.429 40.1633 235.447 40.1633 235.447C40.1272 235.447 40.0911 235.456 40.055 235.465C39.9287 235.493 39.8114 235.52 39.6941 235.547C39.1347 235.692 38.5392 235.366 38.3858 234.804C38.2324 234.252 38.5753 233.636 39.1256 233.491C40.4971 233.138 41.9227 233.229 43.3122 233.437C44.6386 233.645 45.9288 234.026 47.1559 234.569C47.192 234.569 47.2281 234.569 47.2642 234.587C47.8416 234.75 48.1213 235.33 48.004 235.9C47.7334 237.258 47.2371 238.617 46.0732 239.45L46.0641 239.459Z" fill="var(--fill-0, #898989)"/>
<path id="Vector_51" d="M47.9843 235.909C48.0926 235.348 47.8219 234.759 47.2445 234.596C47.2084 234.587 47.1723 234.587 47.1362 234.578C45.9091 234.026 44.6188 233.646 43.2925 233.446C41.912 233.238 40.4774 233.147 39.1059 233.501C38.5465 233.646 38.2127 234.261 38.366 234.814C38.5194 235.375 39.1149 235.701 39.6744 235.556C39.7917 235.529 39.918 235.493 40.0353 235.475C40.0714 235.475 40.1074 235.466 40.1435 235.457C40.1435 235.457 40.2608 235.439 40.2879 235.439C40.5676 235.411 40.8383 235.393 41.118 235.393C41.4248 235.393 41.7406 235.402 42.0473 235.429C42.2007 235.439 42.3451 235.457 42.4985 235.475C42.5165 235.475 42.5616 235.475 42.5797 235.484C42.6609 235.493 42.7511 235.511 42.8323 235.52C43.4459 235.62 44.0504 235.756 44.6459 235.928C44.9166 236.009 45.1873 236.091 45.4579 236.19C45.5392 236.217 45.6204 236.254 45.7016 236.281C45.6474 236.48 45.5843 236.661 45.5301 236.806C45.5031 236.869 45.3587 237.132 45.2775 237.268C45.2594 237.304 45.2324 237.34 45.2053 237.367C45.1421 237.44 45.07 237.512 44.9978 237.585C44.9707 237.612 44.9166 237.657 44.8895 237.675C44.8264 237.712 44.7722 237.757 44.7091 237.793C44.6459 237.829 44.5827 237.856 44.5196 237.893C44.5015 237.893 44.3572 237.956 44.3121 237.974C43.9331 238.101 43.6263 238.146 43.3466 238.173C42.724 238.219 42.0834 238.192 41.4609 238.137C41.2714 238.119 41.0819 238.101 40.8924 238.083C40.8563 238.083 40.8112 238.074 40.7751 238.065C40.6669 238.047 40.5586 238.028 40.4593 238.01C40.0714 237.947 39.6924 237.856 39.3134 237.739C39.2142 237.712 39.124 237.666 39.0247 237.639C39.0067 237.639 38.9976 237.639 38.9886 237.63C38.9796 237.63 38.9616 237.612 38.9345 237.603C38.8533 237.558 38.7811 237.521 38.6999 237.476C38.6728 237.458 38.6458 237.44 38.6277 237.431C38.6006 237.404 38.5736 237.376 38.5465 237.349C38.5465 237.322 38.5465 237.295 38.5465 237.259C38.6007 236.688 38.0142 236.19 37.4818 236.19C36.8592 236.19 36.4803 236.679 36.4171 237.259C36.2006 239.496 39.2503 240.021 40.8383 240.211C42.5255 240.41 44.5918 240.51 46.0444 239.468C47.2084 238.635 47.7046 237.277 47.9753 235.919L47.9843 235.909ZM38.5465 237.358C38.5465 237.358 38.5465 237.349 38.5465 237.34C38.5736 237.376 38.5646 237.376 38.5465 237.358Z" fill="var(--fill-0, #323232)"/>
</g>
</svg>
