<svg preserveAspectRatio="none" width="100%" height="100%" overflow="visible" style="display: block;" viewBox="0 0 125 142" fill="none" xmlns="http://www.w3.org/2000/svg">
<g id="Group">
<path id="Vector" d="M63.7749 58.3814C63.7749 58.3814 63.7936 58.4001 63.8029 58.4094C63.7936 58.4001 63.775 58.3814 63.7656 58.3721L63.7749 58.3814Z" fill="var(--fill-0, #C783B8)"/>
<path id="Vector_2" d="M62.3206 60.7285C62.3206 60.7285 62.3391 60.7285 62.3484 60.7377C62.3114 60.7099 62.265 60.6914 62.2188 60.6636C62.2188 60.6636 62.2465 60.7007 62.3113 60.7285H62.3206Z" fill="var(--fill-0, #C783B8)"/>
<path id="Vector_3" d="M64.25 58.9494C64.2593 58.9864 64.2685 59.0327 64.287 59.0698C64.3055 59.0976 64.3055 59.042 64.2592 58.9494H64.25Z" fill="var(--fill-0, #C783B8)"/>
<path id="Vector_4" d="M64.3495 59.7195C64.3495 59.7195 64.3495 59.6643 64.3495 59.6367C64.3403 59.6735 64.3218 59.7196 64.3125 59.7564C64.3125 59.8116 64.3403 59.8024 64.3403 59.7195H64.3495Z" fill="var(--fill-0, #C783B8)"/>
<path id="Vector_5" d="M62.4091 60.7736C62.4091 60.7736 62.3811 60.7549 62.3624 60.7456C62.3624 60.7456 62.3531 60.7456 62.3438 60.7456C62.3624 60.7549 62.3904 60.7643 62.3997 60.7829L62.4091 60.7736Z" fill="var(--fill-0, #C783B8)"/>
<path id="Vector_6" d="M63.237 60.8287C63.237 60.8287 63.1903 60.8287 63.1623 60.8287C63.153 60.8287 63.1343 60.8287 63.125 60.838C63.1623 60.838 63.209 60.8287 63.237 60.838V60.8287Z" fill="var(--fill-0, #C783B8)"/>
<path id="Vector_7" d="M64.378 59.5729C64.378 59.5916 64.3687 59.6102 64.3594 59.6289C64.3594 59.6289 64.3594 59.6289 64.3594 59.6382C64.3594 59.6196 64.3594 59.5916 64.378 59.5729Z" fill="var(--fill-0, #C783B8)"/>
<path id="Vector_8" d="M62.4091 58.1987C62.4091 58.1987 62.3624 58.2174 62.3438 58.2361C62.3438 58.2361 62.3438 58.2361 62.3531 58.2361C62.3718 58.2267 62.3811 58.2174 62.3997 58.2081L62.4091 58.1987Z" fill="var(--fill-0, #C783B8)"/>
<path id="Vector_9" d="M62.6797 58.1433C62.6797 58.1433 62.7544 58.1433 62.7824 58.1433C62.7637 58.1433 62.7264 58.1433 62.6797 58.1433Z" fill="var(--fill-0, #C783B8)"/>
<path id="Vector_10" d="M63.814 58.4182C63.814 58.4182 63.814 58.4182 63.8047 58.4182C63.8327 58.4462 63.8607 58.4835 63.898 58.5115C63.926 58.5209 63.898 58.4835 63.814 58.4182Z" fill="var(--fill-0, #C783B8)"/>
<path id="Vector_11" d="M64.2281 58.8853C64.2281 58.8853 64.2281 58.9227 64.2374 58.9413C64.2374 58.9227 64.2281 58.904 64.2188 58.876L64.2281 58.8853Z" fill="var(--fill-0, #C783B8)"/>
<path id="Vector_12" d="M61.551 58.9863C61.5047 59.0603 61.5139 59.1066 61.5232 59.0881C61.5417 59.0418 61.551 58.9955 61.5602 58.9585C61.5602 58.9585 61.551 58.977 61.5417 58.9863H61.551Z" fill="var(--fill-0, #C783B8)"/>
<path id="Vector_13" d="M61.589 58.8859C61.589 58.8859 61.5703 58.9326 61.5703 58.9606C61.5703 58.9606 61.5703 58.9606 61.5703 58.9513C61.5703 58.9326 61.5703 58.9233 61.5796 58.8953L61.589 58.8859Z" fill="var(--fill-0, #C783B8)"/>
<path id="Vector_14" d="M62.0078 58.4188C62.0078 58.4188 62.0451 58.4002 62.0638 58.3908C62.0638 58.3908 62.0358 58.4002 62.0078 58.4188Z" fill="var(--fill-0, #C783B8)"/>
<path id="Vector_15" d="M61.564 60.0136C61.5827 60.0789 61.6107 60.1069 61.6107 60.0789C61.592 60.0416 61.5734 60.0042 61.5547 59.9669C61.5547 59.9856 61.564 60.0043 61.5734 60.0136H61.564Z" fill="var(--fill-0, #C783B8)"/>
<path id="Vector_16" d="M63.0156 60.8375C63.0156 60.8375 63.0903 60.8375 63.1276 60.8375C63.0903 60.8375 63.053 60.8375 63.0156 60.8375Z" fill="var(--fill-0, #C783B8)"/>
<path id="Vector_17" d="M61.5156 59.8848C61.5156 59.8848 61.5436 59.9408 61.5623 59.9688C61.5623 59.9688 61.5623 59.9594 61.5623 59.9501C61.5529 59.9314 61.5436 59.9128 61.5249 59.8848H61.5156Z" fill="var(--fill-0, #C783B8)"/>
<path id="Vector_18" d="M62.012 58.4182C61.9746 58.4462 61.928 58.4835 61.8906 58.5022C61.928 58.4835 61.9373 58.4742 61.9559 58.4649C61.9746 58.4462 61.9933 58.4275 62.012 58.4182Z" fill="var(--fill-0, #C783B8)"/>
<path id="Vector_19" d="M61.4609 59.3257C61.4609 59.4357 61.4609 59.5548 61.4609 59.674C61.4794 59.7656 61.5071 59.8664 61.5348 59.9581C61.5717 60.0223 61.5994 60.0681 61.5994 60.0864C61.6363 60.1597 61.6732 60.233 61.7285 60.2972C61.8116 60.3797 61.9131 60.4622 61.9961 60.5538C62.0607 60.5997 62.1346 60.6455 62.2176 60.673C62.2176 60.673 62.273 60.6913 62.3652 60.7463C62.476 60.783 62.5867 60.8105 62.6974 60.838C62.7989 60.838 62.9097 60.838 63.0112 60.838C63.0112 60.8288 63.0481 60.8196 63.1588 60.8196C63.2696 60.7921 63.3895 60.7646 63.5002 60.728C63.6294 60.673 63.7401 60.5905 63.8601 60.508C63.9339 60.4438 64.0077 60.3705 64.0723 60.2972C64.1369 60.1964 64.2107 60.0956 64.2661 59.9856C64.303 59.9031 64.3122 59.8389 64.3307 59.7565C64.3307 59.729 64.3399 59.6831 64.3676 59.619C64.3676 59.5732 64.3676 59.5273 64.3676 59.4815C64.3676 59.4173 64.3676 59.3624 64.3584 59.2982C64.3399 59.2249 64.3122 59.1424 64.2845 59.0691C64.2845 59.0507 64.2661 59.0141 64.2477 58.9407C64.2015 58.8491 64.1462 58.7666 64.0816 58.6749C64.0262 58.6199 63.9616 58.565 63.897 58.5008C63.8786 58.5008 63.8509 58.4641 63.7955 58.4C63.694 58.3358 63.6017 58.2808 63.491 58.235C63.3618 58.1984 63.2419 58.1617 63.1127 58.1342C63.0019 58.1342 62.8912 58.125 62.7805 58.1342C62.8174 58.1342 62.7805 58.1525 62.6421 58.1342C62.5406 58.1525 62.4483 58.18 62.356 58.2167C62.3006 58.2533 62.2638 58.2717 62.2361 58.2808C62.1807 58.3083 62.1253 58.345 62.07 58.3725C62.07 58.3725 62.0423 58.4 61.95 58.455C61.8762 58.5283 61.8024 58.6108 61.7285 58.6841C61.6732 58.7666 61.627 58.8491 61.5809 58.9316C61.5624 59.0141 61.544 59.069 61.5348 59.0782C61.5071 59.1607 61.4794 59.2249 61.4702 59.3073L61.4609 59.3257Z" fill="var(--fill-0, white)"/>
<path id="Vector_20" d="M62.6793 58.1433C62.6793 58.1433 62.6139 58.1433 62.5859 58.1433C62.6139 58.1433 62.6233 58.1433 62.6419 58.1433C62.6513 58.1433 62.6699 58.1433 62.6793 58.1433Z" fill="var(--fill-0, #C783B8)"/>
<path id="Vector_21" d="M68.1462 81.0095C68.1462 81.0095 68.1555 81.0095 68.1649 81.0095C68.1369 80.9815 68.1369 80.9815 68.1462 81.0095Z" fill="var(--fill-0, #C783B8)"/>
<path id="Vector_22" d="M37.5625 85.5276C39.002 86.0776 40.4507 86.6366 41.881 87.2141C41.3273 86.1784 40.7921 85.1335 40.3031 84.0704C39.4172 84.602 38.5037 85.0877 37.5625 85.5276Z" fill="var(--fill-0, white)"/>
<path id="Vector_23" d="M49.4786 91.3652C49.534 92.1351 48.8696 92.7858 48.1406 92.7675C49.0726 94.4998 49.9861 96.2411 50.8627 98.0009C50.4475 95.7737 50.0138 93.5557 49.4786 91.3652Z" fill="var(--fill-0, #C783B8)"/>
<path id="Vector_24" d="M68.1499 81.0278C68.1499 81.0278 68.1499 81.0278 68.1591 81.0278C68.1591 81.0278 68.1499 81.0278 68.1406 81.0186L68.1499 81.0278Z" fill="var(--fill-0, #C783B8)"/>
<path id="Vector_25" d="M68.1823 81.0369H68.1719H68.1823Z" fill="var(--fill-0, #C783B8)"/>
<path id="Vector_26" d="M68.1813 81.0371C68.1813 81.0371 68.1813 81.0371 68.1813 81.0465C68.1813 81.0465 68.1908 81.056 68.2003 81.0465C68.2003 81.0465 68.1814 81.0371 68.1719 81.0276L68.1813 81.0371Z" fill="var(--fill-0, #C783B8)"/>
<path id="Vector_27" d="M62.2841 58.2531C62.21 58.2809 62.2007 58.3087 62.247 58.2902C62.2841 58.2716 62.3211 58.2531 62.3489 58.2346C62.3304 58.2346 62.3026 58.2438 62.2841 58.2531Z" fill="var(--fill-0, #C783B8)"/>
<path id="Vector_28" d="M69.5061 92.6479C69.5061 92.6479 69.4781 92.6946 69.4688 92.7133C69.4874 92.676 69.4968 92.6573 69.5061 92.6479Z" fill="var(--fill-0, #C783B8)"/>
<path id="Vector_29" d="M76.3589 137.344H64.963C64.6677 138.857 62.4715 138.884 62.1763 137.344H59.3711C58.8175 137.344 58.4299 137.079 58.2177 136.721C57.2673 138.499 56.2615 140.241 55.2188 141.973H77.3555V137.344H76.3681H76.3589Z" fill="var(--fill-0, white)"/>
<path id="Vector_30" d="M83.2816 77.4995C86.2252 79.8915 89.8239 81.4495 93.2842 82.9709C87.2033 76.3998 94.7791 65.7962 84.3982 61.8921C83.1986 61.3972 83.2447 59.8483 83.9922 59.2801C83.1617 58.8677 82.3128 58.5011 81.4638 58.217C80.6241 60.9206 79.4615 63.5326 77.9297 65.8512L78.7509 71.3775C79.9044 73.687 81.2701 75.8224 83.2816 77.4904V77.4995Z" fill="var(--fill-0, #5A5A5A)"/>
<path id="Vector_31" d="M69.0355 103.041C69.8106 106.45 69.9582 109.786 68.7125 113.095C66.7286 118.383 63.785 123.268 61.2198 128.29C61.0075 128.702 60.6938 128.913 60.3524 128.977C60.4262 129.399 60.3339 129.848 60.0663 130.169C61.6627 131.277 59.8356 133.23 59.3281 134.522C60.2878 134.513 61.2474 134.522 62.2163 134.522C62.2625 132.744 62.2994 130.966 62.3455 129.197C62.3455 128.876 62.4655 128.592 62.6408 128.363C62.3178 127.96 62.1794 127.401 62.4747 126.814C67.5037 116.806 72.4496 106.753 77.128 96.5708C75.7069 97.3956 74.2951 98.2479 72.911 99.1278C72.3481 99.4852 71.8129 99.3935 71.4161 99.0819L68.4449 100.64C68.6479 101.437 68.8509 102.235 69.0355 103.032V103.041Z" fill="var(--fill-0, #C783B8)"/>
<path id="Vector_32" d="M122.161 141.973C121.284 132.771 120.204 123.579 118.691 114.451C117.51 108.21 116.855 101.538 113.681 95.9109C108.135 91.1728 100.421 89.0283 93.6662 86.1689L91.9314 87.2045C91.996 87.6902 91.8207 88.2126 91.2763 88.5425C88.0005 90.5405 84.614 92.3734 81.2645 94.2338C76.1617 105.754 70.5698 117.091 64.8672 128.326C65.0702 128.574 65.1901 128.876 65.1809 129.197C65.144 130.975 65.0979 132.753 65.0517 134.522H78.7638C79.5297 134.522 80.1848 135.172 80.1848 135.933V141.964H107.295C107.48 126.961 107.249 111.949 106.834 96.9466C106.778 95.1319 109.621 95.1319 109.676 96.9466C110.017 111.94 110.451 126.961 110.137 141.964H122.161V141.973Z" fill="var(--fill-0, #C783B8)"/>
<path id="Vector_33" d="M85.79 82.4943C81.5361 80.3497 78.1035 76.913 76.1749 72.5597C75.3352 70.7451 78.1312 69.4712 78.7494 71.3867L77.9282 65.8604C76.7009 67.7391 75.2338 69.4437 73.499 70.8459C73.176 71.1117 72.8162 71.1942 72.4747 71.1759C75.0123 73.3846 73.2683 78.0219 69.7157 77.8294C69.7711 78.1502 69.8172 78.4893 69.8541 78.81C71.0168 79.6624 71.6904 81.312 71.3582 82.7325C72.7423 83.8231 72.6962 85.7661 72.7146 87.3699C72.7331 88.7996 72.6777 90.2201 72.5947 91.6498C72.6685 94.5458 69.6788 97.0019 66.9844 95.334C67.5196 97.0936 67.9902 98.8624 68.4423 100.65L71.4136 99.0915C70.7215 98.5416 70.5 97.3319 71.4782 96.7087C73.9604 95.1232 76.5072 93.6568 79.0816 92.2272C80.3181 89.4228 81.6007 86.6092 82.4773 83.6673C82.9941 81.926 85.7346 82.6684 85.2179 84.4188C84.655 86.3068 83.926 88.1489 83.1509 89.9726C85.4117 88.7171 87.654 87.4523 89.8593 86.1143C90.8744 85.4911 91.8248 86.3068 91.9447 87.2141L93.6795 86.1785C90.9851 85.0879 88.3368 83.9148 85.7992 82.4943H85.79Z" fill="var(--fill-0, white)"/>
<path id="Vector_34" d="M52.896 72.0461C50.8844 70.9189 49.1127 69.4525 47.5625 67.7754C47.5717 68.2611 47.5625 68.7377 47.5348 69.2142C48.4114 68.8568 49.5741 69.2601 49.4356 70.4331C49.0665 73.65 48.0054 76.6468 45.9938 79.2221C45.0249 80.4593 43.8991 81.5224 42.6719 82.4664C43.6869 84.6934 44.9049 86.8288 46.0861 88.9733C46.9904 89.3674 47.8946 89.7706 48.7897 90.1922C49.0388 90.3114 49.2142 90.5038 49.3249 90.7421C48.9835 89.0925 48.3376 87.507 47.9408 85.8757C47.3964 83.0438 49.3526 80.4685 50.626 78.0857C51.8625 75.8953 53.4127 73.934 54.7507 71.7987C54.7045 71.7803 54.6676 71.7712 54.6215 71.7529C54.2247 72.2019 53.5788 72.4219 52.896 72.0461Z" fill="var(--fill-0, white)"/>
<path id="Vector_35" d="M88.4823 38.9521C88.3347 39.3187 88.1778 39.6853 88.0025 40.0336C87.7442 40.0336 87.4212 40.0336 87.0798 39.9969C86.8214 40.5468 86.2493 40.9317 85.4926 40.6934C81.774 39.5295 78.5074 37.11 76.2928 33.9665C73.3031 32.8851 71.0978 30.1999 70.2673 27.1938C67.7943 32.5369 62.3685 36.2852 56.3338 34.9655C55.4479 34.7822 55.1896 34.0307 55.3649 33.3617C55.1342 33.3525 54.9035 33.3342 54.682 33.3159C51.8031 34.9747 48.149 35.4237 45.0485 33.8199C43.7659 35.1763 42.2711 36.3402 40.6286 37.2292C40.85 38.0357 40.1303 39.0346 39.2445 38.9613C38.8846 38.9246 38.5247 38.9246 38.1556 38.9521C37.9341 38.9888 37.6296 39.053 37.4174 39.1354C37.2974 39.1996 37.1221 39.3004 37.0206 39.3829C36.9007 39.4929 36.7715 39.6028 36.67 39.7311C36.5869 39.8594 36.4946 39.9969 36.4301 40.1344C36.4116 40.1802 36.3839 40.226 36.3655 40.2718C36.2455 40.6109 36.1717 40.8859 36.1163 41.225C36.0333 41.8665 36.0517 42.5172 36.1348 43.1496C36.2824 44.0752 36.5408 44.9642 36.9007 45.8256C37.1129 46.3022 37.3621 46.7513 37.6296 47.2004C39.7889 46.7421 41.9942 48.4101 42.2065 50.5546C42.917 50.5546 43.646 51.0037 43.6829 51.911C43.7567 53.7531 43.932 55.5402 44.5226 57.2998C45.0947 59.0228 45.9436 60.6725 46.8848 62.2213C48.7303 65.2456 51.2033 67.8484 54.3129 69.5989C55.2265 70.1121 55.1434 71.1385 54.599 71.7434C54.6451 71.7617 54.682 71.7709 54.7282 71.7892C56.9612 68.2242 59.019 68.4075 62.8207 68.9482C65.5889 69.3881 68.4864 69.5255 71.1716 70.3412C70.904 69.8738 70.9224 69.2873 71.4853 68.8382C77.4463 64.0359 79.9838 55.5585 80.3714 48.2268C80.4544 46.5588 82.8628 46.4305 83.1765 47.8327C84.1177 47.1912 85.3542 46.9621 86.4431 47.2737C86.4615 47.2279 86.5261 47.0904 86.5538 47.0354C87.2274 45.3491 87.6519 43.5895 87.9287 41.8024C88.0394 41.0692 88.8976 40.7117 89.562 40.8034C89.359 40.061 89.0175 39.4195 88.4916 38.943L88.4823 38.9521ZM53.4548 41.0509C51.6277 41.0509 51.6277 38.2281 53.4548 38.2281C55.2818 38.2281 55.2818 41.0509 53.4548 41.0509ZM61.5842 40.5468C61.6857 38.6955 64.3801 38.6955 64.4263 40.5468C64.2786 42.4622 64.3248 44.3959 64.5647 46.3022C64.7123 47.4478 65.3767 49.1249 63.8357 49.6015C63.1437 49.8214 62.2301 49.3449 62.0917 48.6209C61.575 45.9631 61.3812 43.2504 61.5842 40.5468ZM67.1668 59.7835C66.8623 63.8434 61.3535 65.0532 59.222 61.6347C57.1458 58.3355 60.6707 54.2205 64.2879 55.5402C66.0595 56.1726 67.3514 57.8772 67.1576 59.7926L67.1668 59.7835ZM71.9282 41.0509C70.1012 41.0509 70.1012 38.2281 71.9282 38.2281C73.7553 38.2281 73.7553 41.0509 71.9282 41.0509Z" fill="var(--fill-0, white)"/>
<path id="Vector_36" d="M42.7875 117.512C42.8059 116.751 43.6641 116.137 44.3838 116.257C45.6849 116.412 45.6388 117.879 45.8049 118.887C46.0448 118.777 46.2755 118.667 46.4877 118.529C46.0725 118.025 45.9802 117.311 46.6169 116.751C48.6931 114.909 50.7877 112.994 52.2457 110.62C52.421 107.843 52.015 105.085 51.6182 102.335C50.9907 102.812 50.068 102.83 49.6435 101.932C47.9087 98.2755 45.9802 94.7104 44.0516 91.1453C41.1081 89.8806 38.1091 88.7259 35.1194 87.5894C34.7596 87.452 34.455 87.2228 34.2705 86.9204C28.5494 89.0924 22.487 90.2014 16.7844 92.4101C15.6771 92.8408 14.9758 91.8327 15.0958 90.8979C12.8904 92.3367 11.4694 94.2888 10.4451 96.47C11.1926 96.6075 11.8108 97.2399 11.4878 98.1563C7.10478 112.417 5.99746 127.428 2.90625 141.973H16.4984C16.4153 141.597 16.4984 141.194 16.8398 140.845C16.4891 125.55 15.5479 110.199 15.9724 94.8937C16.0277 93.0791 18.8698 93.0791 18.8144 94.8937C18.6114 109.356 19.2574 123.817 19.608 138.279C26.3072 132.093 32.8864 125.788 39.6224 119.648C40.0654 119.244 40.5821 119.189 41.025 119.345C41.5787 118.694 42.16 118.09 42.7875 117.521V117.512Z" fill="var(--fill-0, #C783B8)"/>
<path id="Vector_37" d="M54.2119 130.452C46.2485 130.104 43.4065 124.706 42.7882 117.512C42.1608 118.08 41.5702 118.694 41.0258 119.335C41.9301 119.647 42.5299 120.811 41.6256 121.627C34.2712 128.335 27.1015 135.236 19.7656 141.963H51.8866C54.1842 138.297 56.288 134.512 58.152 130.599C56.8417 130.571 55.5314 130.553 54.2211 130.443L54.2119 130.452Z" fill="var(--fill-0, #C783B8)"/>
<path id="Vector_38" d="M55.1195 78.0858C57.8416 76.6561 60.7575 75.6846 63.6549 74.6948C65.2605 74.1175 67.106 73.6959 68.4347 75.0889C69.2006 75.0614 70.2433 75.1714 70.6217 74.649C71.0092 74.0991 70.9169 73.3201 70.3264 72.981C69.7174 72.6328 68.6747 72.6328 67.9918 72.5228C65.5281 72.1379 63.0736 71.753 60.5822 71.5513C59.7517 71.4872 58.9581 71.2947 58.3122 71.8721C57.9892 72.1562 57.7124 72.4861 57.4448 72.8344C57.5279 72.8711 57.6109 72.9077 57.6939 72.9535C57.6017 72.9077 57.5279 72.8802 57.4448 72.8344C55.4517 75.8129 53.3663 78.6815 51.816 81.9166C51.1793 82.998 50.478 83.9878 50.7087 85.3167C52.7849 92.0069 54.1506 98.9629 54.898 105.937C55.0733 107.715 55.5808 110.263 54.7411 111.922C53.4032 114.57 50.8102 116.834 48.6049 118.75C47.8667 119.391 46.9531 119.107 46.4641 118.53C46.2611 118.667 46.0304 118.786 45.7812 118.887C46.1503 121.123 46.7132 123.222 48.0512 124.991C48.3096 125.321 48.8356 125.825 49.0847 126.026C49.3523 126.237 50.0905 126.677 50.5611 126.879C51.4008 127.209 52.2959 127.41 53.1909 127.538C54.9903 127.758 56.8081 127.749 58.6259 127.804C58.5613 127.52 58.589 127.199 58.7643 126.869C61.3849 121.563 64.6884 116.495 66.4785 110.831C67.6043 106.808 65.9341 102.684 65.0206 98.798C64.55 96.7818 63.8118 94.8297 63.2766 92.8318C63.0643 92.0528 62.686 91.0171 62.9167 90.2106C63.2581 89.0284 65.2789 88.2952 66.2755 87.7178C67.9826 86.7556 69.3206 89.4591 67.5397 90.2473C67.6873 91.063 67.8442 92.0161 68.2225 92.7401C68.2871 92.8043 68.3702 92.8959 68.4532 92.9601C68.2317 92.7676 68.73 93.0425 68.6193 93.0242C68.647 93.0242 68.6747 93.0425 68.6931 93.0425C68.7485 93.0425 68.8131 93.0425 68.8684 93.0425C68.9792 93.0425 68.6193 93.0059 68.933 93.0334C68.9515 93.0334 68.9884 93.0334 69.0253 93.015C69.1176 92.9692 69.2099 92.9142 69.2929 92.8593C69.2468 92.8593 69.5051 92.5751 69.4774 92.6485C69.5236 92.5568 69.5974 92.401 69.6066 92.3918C69.6343 92.3002 69.662 92.1994 69.6897 92.0986C69.8281 89.9815 69.9942 87.7178 69.7912 85.6283C69.6712 84.6568 69.0438 84.611 68.1672 84.8676C65.1221 85.8299 62.1693 87.0855 59.1704 88.1669C58.4506 88.4419 57.6109 87.8645 57.4263 87.1863C57.2049 86.3981 57.7032 85.7199 58.4137 85.4542C60.1669 84.7943 61.9294 84.1436 63.6826 83.4929C65.1128 82.9706 66.903 82.0816 68.5916 81.9533C68.5824 81.8158 68.5824 81.7883 68.5916 81.8799C68.5916 81.9533 68.5916 81.9533 68.5824 81.8616C68.5547 81.7608 68.527 81.6508 68.4901 81.55C68.4255 81.4126 68.3517 81.2843 68.2686 81.156C68.121 80.9452 68.4255 81.4217 68.1948 81.0734C68.1948 81.0643 68.1856 81.0643 68.1764 81.0551C68.1671 81.0551 68.1579 81.0551 68.1487 81.0368C68.1395 81.0368 68.1302 81.0368 68.121 81.0368C67.106 80.6244 66.1556 81.0368 65.2236 81.4401C62.8429 82.2924 60.4437 83.1264 58.0723 83.9878C56.2637 84.4277 55.5255 81.88 57.3156 81.2659C59.5302 80.4594 61.754 79.6896 63.9686 78.9014C64.9191 78.5532 65.8787 78.0949 66.9122 78.0583C66.6631 76.6194 65.8972 76.8394 64.8545 77.2793C62.0401 78.2416 59.1888 79.1489 56.5497 80.5327C54.9349 81.385 53.5047 78.9472 55.1195 78.0949V78.0858Z" fill="var(--fill-0, white)"/>
<path id="Vector_39" d="M88.9748 30.4477C88.9194 31.4008 88.8364 32.3539 88.7072 33.2979C88.4765 35.0758 85.6345 35.0942 85.8651 33.2979C86.3634 29.3937 86.3911 25.4071 85.5053 21.5579C83.1615 11.3393 74.3123 3.55846 63.6177 3.41183C62.1413 3.3935 61.8552 1.54224 62.7687 0.845723C61.7629 0.497465 60.7479 0.30501 59.6867 0.534127C60.2773 1.2673 60.2035 2.51368 59.0316 2.74279C52.1756 4.08084 46.1962 8.01251 41.6931 13.2455C37.1624 18.5061 37.0794 25.6362 37.7622 32.1889C37.8822 33.3712 36.7103 33.7653 35.8244 33.3987C35.6953 34.3427 35.5938 35.2866 35.5938 36.2398C40.6689 34.8467 45.0335 31.0709 46.3438 25.902C46.8052 24.1424 49.5457 24.8939 49.0844 26.6535C48.623 28.4131 47.8571 30.0719 46.8513 31.5658C50.0071 32.8946 53.5505 31.2817 55.6543 28.853C58.1458 25.9845 58.9024 22.062 59.2438 18.3961C59.3638 16.5173 62.0305 16.554 62.0859 18.3961C61.6153 24.0141 59.9082 30.2735 54.6854 33.2979C54.9161 33.3162 55.1468 33.3254 55.3683 33.3437C55.5436 32.6472 56.1895 32.0423 57.0938 32.2348C63.8207 33.6278 68.2499 27.0109 69.2649 21.1913C69.7909 18.9551 70.2614 16.4898 69.5694 14.2353C69.0342 12.494 71.7748 11.7517 72.31 13.4838C73.5003 18.0295 71.9962 22.9601 70.2707 27.1759C71.1012 30.1819 73.3065 32.8671 76.2962 33.9486C75.1151 32.2714 74.22 30.4018 73.7218 28.3856C73.2881 26.6168 76.0286 25.8745 76.4623 27.6341C77.099 30.2094 78.4831 32.5372 80.3563 34.3793C82.0911 36.1848 84.3703 37.2845 86.6772 38.1735C87.4523 38.2651 88.0336 38.5309 88.4857 38.9342C89.5377 36.2581 89.6945 33.2246 88.9748 30.4293V30.4477Z" fill="var(--fill-0, #5A5A5A)"/>
<path id="Vector_40" d="M68.1657 81.0371C68.1657 81.0371 68.1657 81.0371 68.1562 81.0371C68.1657 81.0466 68.1752 81.0561 68.1847 81.0561C68.1847 81.0561 68.1847 81.0561 68.1847 81.0466L68.1657 81.0371Z" fill="var(--fill-0, #323232)"/>
<path id="Vector_41" d="M39.6173 119.638C32.8813 125.779 26.3021 132.084 19.6029 138.27C19.243 123.817 18.5971 109.355 18.8093 94.8844C18.8647 93.0698 16.0226 93.0698 15.9673 94.8844C15.5428 110.189 16.484 125.54 16.8346 140.836C16.4932 141.194 16.4102 141.597 16.4932 141.963H19.769C27.1048 135.237 34.2746 128.336 41.6289 121.627C42.5332 120.802 41.9242 119.647 41.0291 119.336C40.5862 119.18 40.0695 119.235 39.6266 119.638H39.6173Z" fill="var(--fill-0, #323232)"/>
<path id="Vector_42" d="M63.0173 39.136C62.196 39.1727 61.6608 39.7593 61.5962 40.5475C61.3932 43.2512 61.5778 45.9642 62.1037 48.6221C62.2421 49.3461 63.1557 49.8319 63.8477 49.6028C65.3887 49.1262 64.7244 47.4489 64.5767 46.3033C64.346 44.3969 64.2906 42.463 64.4383 40.5475C64.4936 39.8142 63.7462 39.1085 63.0173 39.136Z" fill="var(--fill-0, #323232)"/>
<path id="Vector_43" d="M71.9328 41.051C73.7598 41.051 73.7598 38.2281 71.9328 38.2281C70.1057 38.2281 70.1057 41.051 71.9328 41.051Z" fill="var(--fill-0, #323232)"/>
<path id="Vector_44" d="M53.464 41.0509C55.2911 41.0509 55.2911 38.228 53.464 38.228C51.637 38.228 51.637 41.0509 53.464 41.0509Z" fill="var(--fill-0, #323232)"/>
<path id="Vector_45" d="M121.807 116.018C120.912 110.364 119.98 104.608 118.208 99.1462C117.636 97.3866 116.99 95.4987 115.8 94.0415C111.906 90.2931 106.545 88.3777 101.626 86.2881C102.78 86.0132 103.887 85.4175 104.884 84.4827C106.213 83.2363 104.201 81.2384 102.872 82.4848C100.464 84.7485 97.5849 83.3921 95.5917 81.2934C91.3932 76.6377 94.8812 69.5901 91.7439 64.3845C90.3136 61.8093 87.8222 60.2421 85.1462 59.1515C84.6756 58.9591 84.2788 59.0415 83.9928 59.2615C86.5119 60.5262 88.9018 62.24 90.8488 63.5231C88.911 62.24 86.5211 60.5262 83.9928 59.2615C83.2453 59.8297 83.19 61.3785 84.3988 61.8734C94.7889 65.7868 87.2039 76.372 93.2849 82.9522C87.3054 80.4319 81.446 77.6458 78.7516 71.368C78.1241 69.4526 75.3466 70.7265 76.1771 72.5411C78.1056 76.8943 81.5383 80.3311 85.7921 82.4756C94.6967 87.5712 105.428 89.3125 113.558 95.7461C114.167 96.4885 114.656 97.5974 114.988 98.5047C116.898 103.591 117.802 109.099 118.688 114.433C120.201 123.561 121.281 132.744 122.158 141.954H125C124.215 133.276 123.163 124.606 121.807 116V116.018Z" fill="var(--fill-0, #323232)"/>
<path id="Vector_46" d="M109.882 105.369C109.826 102.564 109.762 99.7599 109.679 96.9555C109.623 95.1409 106.781 95.1409 106.837 96.9555C107.252 111.958 107.483 126.97 107.298 141.972H110.14C110.426 129.783 110.122 117.558 109.873 105.369H109.882Z" fill="var(--fill-0, #323232)"/>
<path id="Vector_47" d="M85.0868 12.8975C82.1433 8.02187 77.6033 4.30102 72.2791 2.24812C69.5293 1.18502 66.5765 0.635142 63.6237 0.589318C63.2731 0.589318 62.9962 0.680964 62.7748 0.845928C61.8612 1.54244 62.1381 3.38454 63.6237 3.41203C74.3276 3.56783 83.1767 11.3395 85.5113 21.5581C86.3971 25.4073 86.3695 29.3939 85.8712 33.2981C85.6405 35.0944 88.4825 35.076 88.7132 33.2981C88.8332 32.3541 88.9255 31.401 88.9808 30.4479C88.7501 29.5406 88.4364 28.6516 88.012 27.8084C88.4364 28.6424 88.7501 29.5314 88.9808 30.4479C89.3315 24.3625 88.2795 18.1855 85.0868 12.8975Z" fill="var(--fill-0, #323232)"/>
<path id="Vector_48" d="M59.6907 0.543328C59.054 0.680798 58.3988 0.974067 57.716 1.48729C58.3988 0.974067 59.054 0.689963 59.6907 0.543328C59.3769 0.158411 58.8879 -0.0890335 58.2789 0.0301075C50.8876 1.46896 44.2808 5.82221 39.4732 11.5043C34.5642 17.3147 34.1674 24.9489 34.9241 32.1982C34.9887 32.8122 35.367 33.2155 35.8284 33.4079C36.0683 31.6116 36.3451 29.797 35.9391 27.8175C36.3359 29.8062 36.059 31.6208 35.8284 33.4079C36.705 33.7745 37.8861 33.3804 37.7661 32.1982C37.0833 25.6454 37.1664 18.5153 41.6971 13.2547C46.2001 8.02171 52.1795 4.0809 59.0355 2.75202C60.2074 2.5229 60.2812 1.2765 59.6907 0.543328Z" fill="var(--fill-0, #323232)"/>
<path id="Vector_49" d="M72.3214 13.5024C71.7862 11.7703 69.0457 12.5126 69.5809 14.2539C70.2729 16.5084 69.8024 18.9737 69.2764 21.2099C68.2614 27.0203 63.8322 33.6464 57.1053 32.2533C56.201 32.0609 55.5643 32.6749 55.3798 33.3622C56.8654 33.4447 58.3326 33.4539 59.6152 33.4539C58.3418 33.4539 56.8654 33.4539 55.3798 33.3622C55.2045 34.0313 55.4628 34.7828 56.3487 34.9661C62.3834 36.2766 67.8092 32.5283 70.2822 27.1944C69.9131 25.8564 69.8023 24.4542 70.033 23.107C69.8116 24.4542 69.9131 25.8564 70.2822 27.1944C72.0077 22.9787 73.5118 18.0481 72.3214 13.5024Z" fill="var(--fill-0, #323232)"/>
<path id="Vector_50" d="M80.3684 34.3982C78.4953 32.556 77.1111 30.228 76.4744 27.6526C76.0407 25.8929 73.3002 26.6352 73.7339 28.4041C74.2321 30.4205 75.1272 32.2902 76.3083 33.9674C77.5448 34.4165 78.9105 34.5998 80.3684 34.3982Z" fill="var(--fill-0, #323232)"/>
<path id="Vector_51" d="M86.6778 38.192C86.4933 38.1737 86.3087 38.1553 86.1149 38.1553C86.3179 38.1553 86.5025 38.1737 86.6778 38.192C84.3709 37.303 82.0917 36.2123 80.357 34.3976C78.8898 34.59 77.5241 34.4067 76.2969 33.9668C78.5207 37.1105 81.778 39.5301 85.4967 40.6941C86.2533 40.9324 86.8254 40.5475 87.0838 39.9976C87.3606 39.4018 87.2684 38.6228 86.6778 38.192Z" fill="var(--fill-0, #323232)"/>
<path id="Vector_52" d="M86.2934 50.3364C86.2934 50.3364 86.2468 50.2711 86.2188 50.2617C86.2281 50.2617 86.2561 50.2991 86.2934 50.3364Z" fill="var(--fill-0, white)"/>
<path id="Vector_53" d="M84.5625 51.6089C84.5625 51.6089 84.6092 51.6742 84.6372 51.6836C84.6279 51.6836 84.5998 51.6462 84.5625 51.6089Z" fill="var(--fill-0, white)"/>
<path id="Vector_54" d="M84.4193 50.5908C84.3822 50.6649 84.3637 50.739 84.3823 50.7112C84.3823 50.6742 84.4008 50.6279 84.4193 50.5908Z" fill="var(--fill-0, white)"/>
<path id="Vector_55" d="M86.4297 51.3629C86.4667 51.2888 86.4853 51.2147 86.4667 51.2425C86.4667 51.2795 86.4482 51.3258 86.4297 51.3629Z" fill="var(--fill-0, white)"/>
<path id="Vector_56" d="M84.9932 50.0417C84.901 50.0875 84.8179 50.1425 84.7349 50.1975C84.6795 50.2433 84.6241 50.2984 84.5688 50.3625C84.5226 50.4358 84.4765 50.5 84.4396 50.5733C84.4211 50.6558 84.4027 50.6925 84.3934 50.7108C84.3934 50.7383 84.3842 50.7658 84.375 50.7841C84.375 50.9124 84.375 51.0316 84.375 51.1599C84.3935 51.224 84.4027 51.2974 84.4211 51.3615C84.4396 51.3982 84.4765 51.4715 84.5134 51.5448C84.5872 51.609 84.6426 51.6731 84.7164 51.7464C84.8087 51.8014 84.901 51.8564 84.9932 51.9023C85.067 51.9298 85.1409 51.9481 85.2147 51.9573C85.3531 51.9664 85.4915 51.9664 85.6299 51.9573C85.7037 51.9389 85.7868 51.9298 85.8606 51.9023C85.9529 51.8564 86.0359 51.8014 86.119 51.7464C86.1743 51.7006 86.2297 51.6456 86.2851 51.5815C86.3312 51.5082 86.3774 51.444 86.4143 51.3707C86.4327 51.2882 86.4512 51.2424 86.4604 51.2332C86.4696 51.1874 86.4789 51.1324 86.4973 51.0865C86.4973 51.0499 86.4973 51.0041 86.4973 50.9674C86.4973 50.9308 86.4973 50.8941 86.4973 50.8574C86.4789 50.7658 86.4604 50.6741 86.4327 50.5916C86.4143 50.555 86.3774 50.4816 86.3405 50.4083C86.2666 50.3442 86.2113 50.28 86.1375 50.2067C86.0452 50.1517 85.9529 50.0967 85.8606 50.0509C85.7868 50.0234 85.713 50.0051 85.6392 49.9959C85.5007 49.9867 85.3623 49.9867 85.2239 49.9959C85.1501 50.0142 85.067 50.0234 84.9932 50.0509V50.0417Z" fill="var(--fill-0, white)"/>
<path id="Vector_57" d="M86.3906 51.4552C86.3906 51.4552 86.4093 51.3898 86.4279 51.3618C86.4279 51.3618 86.428 51.3711 86.4186 51.3805C86.4186 51.4085 86.4093 51.4178 86.3999 51.4552H86.3906Z" fill="var(--fill-0, white)"/>
<path id="Vector_58" d="M84.4592 50.4905C84.4592 50.4905 84.4405 50.5558 84.4219 50.5838C84.4219 50.5838 84.4219 50.5745 84.4312 50.5651C84.4312 50.5371 84.4405 50.5278 84.4499 50.4905H84.4592Z" fill="var(--fill-0, white)"/>
<path id="Vector_59" d="M84.4198 50.5915C84.4198 50.5915 84.3921 50.6656 84.3828 50.7119C84.3828 50.7026 84.4106 50.6563 84.4291 50.573C84.4291 50.573 84.4291 50.5823 84.4198 50.5915Z" fill="var(--fill-0, #323232)"/>
<path id="Vector_60" d="M86.4311 51.3631C86.4311 51.3631 86.4589 51.289 86.4682 51.2427C86.4682 51.2519 86.4404 51.2982 86.4219 51.3816C86.4219 51.3816 86.4219 51.3723 86.4311 51.3631Z" fill="var(--fill-0, #323232)"/>
<path id="Vector_61" d="M37.4609 51.609C37.4609 51.609 37.5076 51.6744 37.5356 51.6837C37.5263 51.6837 37.4983 51.6464 37.4609 51.609Z" fill="var(--fill-0, white)"/>
<path id="Vector_62" d="M39.1997 50.3366C39.1997 50.3366 39.153 50.2713 39.125 50.262C39.1343 50.262 39.1623 50.2993 39.1997 50.3366Z" fill="var(--fill-0, white)"/>
<path id="Vector_63" d="M39.3359 51.3629C39.373 51.2888 39.3915 51.2147 39.373 51.2425C39.373 51.2795 39.3545 51.3258 39.3359 51.3629Z" fill="var(--fill-0, white)"/>
<path id="Vector_64" d="M39.2969 51.4552C39.2969 51.4552 39.3155 51.3898 39.3342 51.3618C39.3342 51.3618 39.3342 51.3711 39.3249 51.3805C39.3249 51.4085 39.3156 51.4178 39.3062 51.4552H39.2969Z" fill="var(--fill-0, white)"/>
<path id="Vector_65" d="M37.3654 50.4902C37.3654 50.4902 37.3468 50.5556 37.3281 50.5836C37.3281 50.5836 37.3281 50.5743 37.3374 50.5649C37.3374 50.5369 37.3468 50.5276 37.3561 50.4902H37.3654Z" fill="var(--fill-0, white)"/>
<path id="Vector_66" d="M37.3256 50.5908C37.2885 50.6649 37.27 50.739 37.2885 50.7112C37.2885 50.6742 37.307 50.6279 37.3256 50.5908Z" fill="var(--fill-0, white)"/>
<path id="Vector_67" d="M37.2812 51.1601C37.2997 51.2243 37.3089 51.2976 37.3274 51.3617C37.3459 51.3984 37.3827 51.4717 37.4197 51.545C37.4935 51.6092 37.5488 51.6734 37.6227 51.7467C37.7149 51.8017 37.8072 51.8567 37.8995 51.9025C37.9733 51.93 38.0471 51.9483 38.121 51.9575C38.2594 51.9667 38.3978 51.9667 38.5362 51.9575C38.61 51.9392 38.6931 51.93 38.7669 51.9025C38.8592 51.8567 38.9422 51.8017 39.0253 51.7467C39.0806 51.7008 39.136 51.6459 39.1913 51.5817C39.2375 51.5084 39.2836 51.4442 39.3205 51.3709C39.339 51.2884 39.3574 51.2426 39.3667 51.2334C39.3759 51.1876 39.3851 51.1326 39.4036 51.0868C39.4036 51.0501 39.4036 51.0043 39.4036 50.9676C39.4036 50.931 39.4036 50.8943 39.4036 50.8576C39.3851 50.766 39.3667 50.6744 39.339 50.5919C39.3205 50.5552 39.2836 50.4819 39.2467 50.4086C39.1729 50.3444 39.1175 50.2802 39.0437 50.2069C38.9514 50.1519 38.8592 50.0969 38.7669 50.0511C38.6931 50.0236 38.6192 50.0053 38.5454 49.9961C38.407 49.987 38.2686 49.987 38.1302 49.9961C38.0564 50.0145 37.9733 50.0236 37.8995 50.0511C37.8072 50.0969 37.7242 50.1519 37.6411 50.2069C37.5858 50.2527 37.5304 50.3077 37.475 50.3719C37.4289 50.4452 37.3828 50.5094 37.3458 50.5827C37.3274 50.6652 37.3089 50.711 37.2997 50.7202C37.2997 50.7477 37.2905 50.7752 37.2812 50.7935C37.2812 50.9218 37.2812 51.041 37.2812 51.1693V51.1601Z" fill="var(--fill-0, white)"/>
<path id="Vector_68" d="M45.2549 33.9491C48.3738 35.3604 51.8434 34.9663 54.6854 33.3167C59.899 30.2832 61.6061 24.0237 62.0859 18.4149C62.0305 16.5728 59.3638 16.5361 59.2438 18.4149C58.9024 22.0716 58.1458 26.0033 55.6543 28.8718C53.5505 31.2913 50.0071 32.9043 46.8513 31.5845C47.8571 30.0815 48.623 28.4319 49.0844 26.6723C49.5457 24.9127 46.8052 24.1612 46.3438 25.9208C45.0427 31.0805 40.6781 34.8563 35.5938 36.2585C35.5938 37.5141 35.7968 38.7972 36.4427 40.1535C36.5073 40.0069 36.5996 39.8786 36.6826 39.7503C36.7841 39.622 36.9133 39.512 37.0332 39.402C37.1347 39.3195 37.3101 39.2279 37.43 39.1546C37.6423 39.0721 37.956 38.9988 38.1682 38.9713C38.5281 38.9438 38.888 38.953 39.2571 38.9805C40.1429 39.0538 40.8534 38.0548 40.6412 37.2483C42.2837 36.3502 43.7785 35.1955 45.0612 33.8391C45.1258 33.8849 45.1904 33.9307 45.2642 33.9674L45.2549 33.9491Z" fill="var(--fill-0, #323232)"/>
<path id="Vector_69" d="M52.9723 71.0658C53.5997 71.3774 54.1165 71.579 54.6055 71.7532C55.1407 71.1483 55.233 70.1219 54.3195 69.6086C51.2006 67.8582 48.7276 65.2554 46.8914 62.2311C45.9502 60.6822 45.1012 59.0326 44.5291 57.3096C43.9386 55.55 43.754 53.7629 43.6894 51.9208C43.6525 51.0135 42.9235 50.5553 42.213 50.5644C41.9916 48.4199 39.7862 46.7519 37.6362 47.2101C37.3686 46.7702 37.1194 46.312 36.9072 45.8354C36.5473 44.974 36.2889 44.085 36.1413 43.1593C36.0583 42.5178 36.0398 41.8671 36.1229 41.2347C36.1782 40.8956 36.252 40.6207 36.372 40.2816C36.3904 40.2358 36.4181 40.19 36.4366 40.1442C35.7907 38.7878 35.5877 37.5047 35.5877 36.2492C35.1724 36.515 34.9971 36.9548 35.0156 37.4039C32.0074 40.4099 33.1978 45.3955 35.2093 48.6948C32.4134 52.489 37.5254 56.833 40.9673 53.8087C41.3641 59.0417 44.0862 63.9174 47.5465 67.7849C49.0967 69.462 50.8776 70.9283 52.88 72.0556C53.5536 72.4405 54.1995 72.2114 54.6055 71.7624C54.1165 71.5882 53.5997 71.3866 52.9723 71.075V71.0658ZM39.1956 50.3353C39.1956 50.3353 39.1403 50.2711 39.1218 50.262C39.131 50.262 39.1587 50.2986 39.1956 50.3353ZM37.4609 51.6092C37.4609 51.6092 37.5162 51.6733 37.5347 51.6825C37.5254 51.6825 37.4978 51.6458 37.4609 51.6092ZM39.3986 51.096C39.3894 51.1418 39.3802 51.1968 39.3617 51.2426C39.3802 51.2151 39.3617 51.2884 39.3248 51.3617C39.3156 51.3892 39.2971 51.4259 39.2879 51.4534C39.2879 51.4167 39.2971 51.4076 39.3064 51.3801C39.2694 51.4534 39.2233 51.5267 39.1772 51.5909C39.1218 51.6458 39.0757 51.7008 39.0111 51.7558C38.928 51.8108 38.8358 51.8658 38.7527 51.9116C38.6789 51.9391 38.5958 51.9574 38.522 51.9666C38.3836 51.9758 38.2452 51.9758 38.1068 51.9666C38.0329 51.9483 37.9499 51.9391 37.8853 51.9116C37.793 51.8566 37.7008 51.8108 37.6085 51.7558C37.5347 51.6825 37.4793 51.6092 37.4055 51.5542C37.3686 51.4809 37.3317 51.4076 37.3132 51.3709C37.2855 51.3068 37.2763 51.2426 37.2671 51.1693C37.2671 51.041 37.2671 50.9218 37.2671 50.7935C37.2671 50.766 37.2763 50.7385 37.2855 50.7202C37.2671 50.7477 37.2855 50.6744 37.3225 50.6011C37.3317 50.5736 37.3501 50.5369 37.3593 50.5094C37.3593 50.5461 37.3501 50.5552 37.3409 50.5827C37.3778 50.5094 37.4239 50.4361 37.4701 50.3719C37.5254 50.317 37.5716 50.262 37.6362 50.207C37.7192 50.152 37.8115 50.097 37.8946 50.0512C37.9684 50.0237 38.0514 50.0054 38.1252 49.9962C38.2637 49.987 38.402 49.987 38.5405 49.9962C38.6143 50.0145 38.6973 50.0237 38.7619 50.0512C38.8542 50.1062 38.9465 50.152 39.0388 50.207C39.1126 50.2803 39.1679 50.3536 39.2418 50.4086C39.2787 50.4819 39.3156 50.5553 39.334 50.5919C39.3709 50.6836 39.3802 50.7752 39.3986 50.8577C39.3986 50.8943 39.3986 50.931 39.3986 50.9677C39.3986 51.0043 39.3986 51.0501 39.3986 51.0868V51.096Z" fill="var(--fill-0, #323232)"/>
<path id="Vector_70" d="M37.3339 50.5915C37.3339 50.5915 37.3061 50.6656 37.2969 50.7119C37.2969 50.7026 37.3247 50.6563 37.3432 50.573C37.3432 50.573 37.3432 50.5823 37.3339 50.5915Z" fill="var(--fill-0, #323232)"/>
<path id="Vector_71" d="M39.3296 51.3632C39.3296 51.3632 39.3573 51.2892 39.3666 51.2429C39.3666 51.2521 39.3388 51.2984 39.3203 51.3817C39.3203 51.3817 39.3203 51.3725 39.3296 51.3632Z" fill="var(--fill-0, #323232)"/>
<path id="Vector_72" d="M53.4484 78.8373C54.7402 76.7935 56.1244 74.8506 57.4623 72.8252C56.3919 72.3212 55.6076 72.1012 54.7495 71.7988C53.4115 73.9342 51.8705 75.8954 50.6248 78.0858C49.3514 80.4594 47.3952 83.0439 47.9396 85.8758C48.3364 87.5071 48.9823 89.0926 49.3237 90.7422C49.213 90.5039 49.0284 90.3115 48.7885 90.1923C47.8934 89.7708 46.9891 89.3767 46.0849 88.9734C44.9037 86.8289 43.6857 84.6844 42.6707 82.4665C43.8979 81.5225 45.0237 80.4594 45.9926 79.2222C48.0042 76.6469 49.0561 73.6501 49.4344 70.4333C49.5728 69.2602 48.4102 68.8661 47.5336 69.2143C47.3306 72.3212 46.3617 75.2081 46.3617 78.5898C46.3617 75.2172 47.3306 72.3212 47.5336 69.2143C47.063 69.4068 46.6662 69.8101 46.5924 70.4333C45.3097 81.5225 33.0833 84.6111 24.0035 87.168C21.3183 87.9287 18.6238 88.6802 16.0217 89.6883C15.4311 89.9174 15.1451 90.394 15.0897 90.898C15.671 90.5223 16.2985 90.1648 17.009 89.8716C16.3077 90.174 15.6803 90.5223 15.0897 90.898C14.979 91.8328 15.671 92.8409 16.7783 92.4102C22.4809 90.2015 28.5434 89.0926 34.2644 86.9205C34.449 87.223 34.7535 87.4521 35.1134 87.5896C38.1123 88.726 41.102 89.8807 44.0456 91.1455C45.9741 94.7014 47.9027 98.2664 49.6374 101.932C50.0619 102.83 50.9846 102.803 51.6121 102.336C52.0089 105.076 52.4149 107.844 52.2396 110.62C50.7816 113.003 48.687 114.91 46.6108 116.752C45.9741 117.311 46.0664 118.026 46.4816 118.53C46.9615 118.209 47.2937 117.796 47.2937 117.146C47.2937 117.787 46.9522 118.209 46.4816 118.53C46.9615 119.107 47.8842 119.391 48.6224 118.75C50.8186 116.834 53.4207 114.57 54.7587 111.922C55.5984 110.263 55.0909 107.715 54.9156 105.937C54.2789 99.8061 53.0885 93.7024 51.4829 87.7454C51.2523 86.948 50.8739 86.1324 50.7263 85.3167C50.4956 83.9878 51.2061 82.9889 51.8336 81.9166C52.4149 80.9177 52.8763 79.8454 53.4484 78.8464V78.8373ZM37.5679 85.5275C38.5091 85.0876 39.4226 84.6019 40.3084 84.0703C40.7975 85.1334 41.3327 86.1782 41.8863 87.2138C40.4561 86.6364 39.0074 86.0774 37.5679 85.5275ZM50.8647 98.0098C49.9788 96.2502 49.0653 94.5089 48.1426 92.7768C48.8715 92.7951 49.5359 92.1444 49.4806 91.3746C50.0158 93.5741 50.4587 95.792 50.8647 98.0098Z" fill="var(--fill-0, #323232)"/>
<path id="Vector_73" d="M44.2023 116.239C43.5471 116.239 42.7997 116.816 42.7812 117.513C43.2795 117.064 43.8055 116.642 44.3776 116.257C44.3223 116.257 44.2669 116.239 44.2023 116.239Z" fill="var(--fill-0, #323232)"/>
<path id="Vector_74" d="M89.8436 86.1046C87.6382 87.4518 85.3867 88.7165 83.1352 89.9629C83.9103 88.1391 84.6485 86.297 85.2021 84.4091C85.7189 82.6678 82.9783 81.9163 82.4616 83.6576C81.585 86.5903 80.3023 89.413 79.0659 92.2174C76.5006 93.6471 73.9446 95.1134 71.4624 96.6989C69.9306 97.6796 71.3517 100.127 72.8927 99.1368C74.2768 98.2478 75.6886 97.4046 77.1096 96.5798C72.4221 106.753 67.4854 116.806 62.4564 126.823C62.1611 127.41 62.2995 127.969 62.6225 128.372C62.4471 128.601 62.3364 128.885 62.3272 129.206C62.281 130.984 62.2441 132.762 62.198 134.531C61.2383 134.531 60.2695 134.531 59.3098 134.531C59.8173 133.239 61.6443 131.286 60.048 130.178C60.3063 129.857 60.4078 129.408 60.334 128.986C60.6754 128.922 60.9892 128.711 61.2014 128.299C63.7667 123.277 66.7103 118.392 68.6942 113.104C70.9272 107.229 68.5188 101.089 66.9594 95.3426C68.1313 96.1216 69.7738 96.0116 70.8903 95.1868C73.2617 93.363 72.5051 89.9995 72.6897 87.3876C72.6712 85.793 72.7173 83.85 71.3332 82.7503C71.6654 81.3298 70.9918 79.6801 69.8291 78.8278C69.7922 78.4979 69.7461 78.1679 69.6907 77.8472C73.2525 78.0305 74.9965 73.4023 72.4497 71.1936C72.7911 71.2119 73.151 71.1295 73.474 70.8637C75.218 69.4615 76.6759 67.7568 77.9032 65.8781C79.4257 63.5503 80.5976 60.9475 81.4373 58.2439C81.0959 58.1339 80.7452 58.0148 80.4038 57.9231C80.7452 58.0056 81.0959 58.1248 81.4373 58.2439C81.9079 56.7226 82.2863 55.1646 82.5631 53.6249C84.833 55.9986 89.0408 54.6238 89.2899 51.3062C89.4099 50.4906 89.1146 49.6566 88.7086 49.0059C89.7697 46.9897 90.3419 44.5518 90.6371 42.5906C90.7571 41.8299 90.3972 40.9318 89.5298 40.8401C88.8654 40.7485 88.0073 41.1059 87.8966 41.8391C87.6197 43.6262 87.2045 45.3858 86.5217 47.0721C86.494 47.1271 86.4386 47.2646 86.4109 47.3104C85.3221 46.9988 84.0764 47.2279 83.1444 47.8695C82.8307 46.4673 80.4315 46.6047 80.3393 48.2635C79.9609 55.5953 77.4141 64.0726 71.4532 68.8749C70.8903 69.324 70.8718 69.9105 71.1394 70.3779C68.4542 69.5531 65.5568 69.4248 62.7885 68.9849C58.996 68.4442 56.9199 68.2609 54.696 71.826C55.5634 72.1284 56.3385 72.3483 57.4089 72.8524C57.6765 72.5041 57.9534 72.1742 58.2763 71.8901C58.9315 71.3127 59.7158 71.5052 60.5463 71.5693C63.0285 71.771 65.4922 72.165 67.9559 72.5408C68.6388 72.6508 69.6815 72.6508 70.2905 72.999C70.8811 73.3381 70.9826 74.1171 70.5858 74.667C70.2075 75.1986 69.1648 75.0886 68.3989 75.1069C67.0701 73.7231 65.2246 74.1355 63.619 74.7128C60.7124 75.7026 57.7965 76.6741 55.0836 78.1038C53.4688 78.9561 54.8991 81.3939 56.5139 80.5416C59.1529 79.1486 62.0042 78.2413 64.8186 77.279C65.8521 76.8391 66.6272 76.6191 66.8763 78.058C65.8429 78.0946 64.8832 78.562 63.9328 78.9011C61.7182 79.6893 59.4943 80.4683 57.2797 81.2656C55.4988 81.8796 56.2186 84.4183 58.0364 83.9875C60.4171 83.126 62.807 82.2921 65.1877 81.4397C66.1197 81.0365 67.0793 80.6149 68.0851 81.0365C68.0944 81.0365 68.1036 81.0365 68.1128 81.0365C68.1128 81.0365 68.122 81.0365 68.1313 81.0456C68.1313 81.0456 68.1497 81.0548 68.159 81.064C68.159 81.064 68.1497 81.064 68.1405 81.064C68.1405 81.0731 68.1405 81.064 68.159 81.0823C68.3896 81.4306 68.0944 80.954 68.2328 81.1648C68.3158 81.2931 68.3989 81.4214 68.4542 81.5589C68.4911 81.6597 68.5188 81.7697 68.5465 81.8705C68.565 81.953 68.565 81.9621 68.5557 81.8888C68.5557 81.7972 68.5557 81.8246 68.5557 81.9621C66.8763 82.0904 65.077 82.9702 63.6467 83.5018C61.8843 84.1433 60.131 84.8032 58.3778 85.463C56.5877 86.0862 57.3259 88.6157 59.1345 88.1849C62.1334 87.1035 65.0862 85.8479 68.1313 84.8856C69.0079 84.629 69.6261 84.6657 69.7553 85.6463C69.9583 87.7359 69.8014 89.9996 69.6538 92.1166C69.6353 92.2174 69.6077 92.3091 69.5708 92.4099C69.5615 92.4099 69.4877 92.5657 69.4416 92.6665C69.4416 92.6756 69.4324 92.694 69.4047 92.7306C69.5431 92.5198 69.2109 92.8589 69.2478 92.8864C69.1647 92.9414 69.0725 92.9964 68.9802 93.0422C68.9433 93.0514 68.9156 93.0606 68.8879 93.0606C68.5742 93.0422 68.9341 93.0789 68.8233 93.0697C68.768 93.0697 68.7034 93.0697 68.648 93.0697C68.6296 93.0697 68.6111 93.0605 68.5742 93.0514C68.6849 93.0697 68.1866 92.7856 68.4081 92.9872C68.3343 92.9231 68.2512 92.8314 68.1774 92.7673C67.7991 92.0433 67.6422 91.0901 67.4946 90.2745C69.2755 89.4863 67.9283 86.7736 66.2304 87.745C65.2338 88.3224 63.2038 89.0556 62.8716 90.2378C62.6409 91.0535 63.0192 92.0799 63.2315 92.8589C63.7667 94.8568 64.5049 96.8089 64.9755 98.8252C65.8798 102.72 67.5592 106.844 66.4334 110.858C64.6433 116.522 61.3306 121.59 58.7192 126.897C58.5531 127.227 58.5254 127.538 58.5808 127.831C56.7722 127.776 54.9544 127.786 53.1458 127.566C52.2508 127.437 51.3557 127.236 50.516 126.906C50.0454 126.704 49.3072 126.264 49.0396 126.053C48.7904 125.852 48.2645 125.348 48.0061 125.018C46.6681 123.249 46.1053 121.15 45.7362 118.914C44.8965 119.281 43.9276 119.51 43.4477 119.996C43.9276 119.519 44.8965 119.281 45.7362 118.914C45.5701 117.906 45.6162 116.449 44.3151 116.284C43.743 116.669 43.217 117.09 42.7188 117.539C43.6876 127.676 48.0523 130.865 58.0733 130.636C56.2094 134.549 54.1055 138.334 51.8078 142H55.1482C56.1909 140.277 57.1967 138.527 58.1471 136.749C58.3686 137.115 58.7469 137.372 59.3006 137.372H62.1057C62.401 138.912 64.6064 138.884 64.8924 137.372H77.2757V142H80.1178V135.97C80.1178 135.209 79.4626 134.558 78.6968 134.558H64.9847C65.0308 132.78 65.0678 131.002 65.1139 129.234C65.1139 128.922 64.9939 128.61 64.8002 128.363C70.512 117.127 76.0946 105.79 81.1974 94.2703C84.5562 92.4099 87.9335 90.5769 91.2092 88.579C92.7595 87.6259 91.3384 85.1881 89.779 86.1412L89.8436 86.1046ZM84.5562 51.6087C84.5562 51.6087 84.6116 51.6728 84.63 51.682C84.6208 51.682 84.5931 51.6453 84.5562 51.6087ZM86.291 50.3348C86.291 50.3348 86.2356 50.2706 86.2172 50.2614C86.2264 50.2614 86.2541 50.2981 86.291 50.3348ZM84.3717 50.7838C84.3717 50.7838 84.3809 50.7289 84.3901 50.7105C84.3717 50.738 84.3901 50.6647 84.427 50.5914C84.4363 50.5639 84.4547 50.5272 84.4639 50.4997C84.4639 50.5364 84.4455 50.5455 84.4455 50.573C84.4824 50.4997 84.5285 50.4264 84.5747 50.3623C84.63 50.3073 84.6762 50.2523 84.7408 50.1973C84.8238 50.1423 84.9161 50.0873 84.9991 50.0415C85.0729 50.014 85.156 49.9957 85.2298 49.9865C85.3682 49.9773 85.5066 49.9773 85.6451 49.9865C85.7189 50.0048 85.8019 50.014 85.8665 50.0415C85.9588 50.0965 86.0511 50.1423 86.1433 50.1973C86.2171 50.2706 86.2725 50.3439 86.3463 50.3989C86.3832 50.4722 86.4202 50.5456 86.4386 50.5822C86.4755 50.6739 86.4848 50.7655 86.5032 50.848C86.5032 50.8847 86.5032 50.9213 86.5032 50.958C86.5032 50.9946 86.5032 51.0405 86.5032 51.0771C86.494 51.1229 86.4847 51.1779 86.4663 51.2238C86.4847 51.1963 86.4663 51.2696 86.4294 51.3429C86.4201 51.3704 86.4017 51.407 86.3925 51.4345C86.3925 51.3979 86.4017 51.3887 86.4109 51.3612C86.374 51.4345 86.3279 51.5078 86.2818 51.572C86.2264 51.627 86.1802 51.682 86.1156 51.737C86.0326 51.792 85.9403 51.8469 85.8573 51.8928C85.7835 51.9202 85.7004 51.9386 85.6266 51.9477C85.4882 51.9569 85.3498 51.9569 85.2114 51.9477C85.1375 51.9294 85.0545 51.9202 84.9899 51.8928C84.8976 51.8378 84.8054 51.792 84.7131 51.737C84.6393 51.6637 84.5839 51.5903 84.5101 51.5353C84.4732 51.462 84.4362 51.3887 84.4178 51.352C84.3901 51.2879 84.3809 51.2237 84.3717 51.1504C84.3717 51.0221 84.3717 50.903 84.3717 50.7747V50.7838ZM68.1405 81.009C68.1405 81.009 68.1405 80.9815 68.159 81.009C68.1313 80.9815 68.1313 80.9815 68.1405 81.009Z" fill="var(--fill-0, #323232)"/>
<path id="Vector_75" d="M69.5061 92.6479C69.5061 92.6479 69.4781 92.6946 69.4688 92.7133C69.4874 92.676 69.4968 92.6573 69.5061 92.6479Z" fill="var(--fill-0, #323232)"/>
<path id="Vector_76" d="M62.2188 60.6634C62.2188 60.6634 62.3021 60.7097 62.3484 60.7375C62.3484 60.7375 62.3576 60.7375 62.3669 60.7375C62.2836 60.682 62.228 60.6542 62.2188 60.6634Z" fill="var(--fill-0, #323232)"/>
<path id="Vector_77" d="M63.898 58.5115C63.898 58.5115 63.8327 58.4462 63.8047 58.4182C63.8607 58.4835 63.8887 58.5115 63.9074 58.5209L63.898 58.5115Z" fill="var(--fill-0, #323232)"/>
<path id="Vector_78" d="M63.0156 60.8379C63.0156 60.8379 63.0897 60.8379 63.1267 60.8379C63.136 60.8379 63.1545 60.8379 63.1638 60.8287C63.0527 60.8287 63.0156 60.8287 63.0156 60.8472V60.8379Z" fill="var(--fill-0, #323232)"/>
<path id="Vector_79" d="M59.2339 61.6356C61.3655 65.0542 66.8743 63.8444 67.1788 59.7842C67.3633 57.8778 66.0807 56.1731 64.3091 55.5315C60.6919 54.2209 57.167 58.3361 59.2432 61.6356H59.2339ZM61.5593 58.9868C61.5593 58.9868 61.5685 58.9685 61.5777 58.9593C61.5777 58.9318 61.5962 58.9135 61.5962 58.886C61.5962 58.9135 61.5962 58.9227 61.5869 58.941C61.6331 58.8585 61.6792 58.7669 61.7346 58.6935C61.8084 58.6202 61.8822 58.5377 61.956 58.4644C61.9284 58.4736 61.9191 58.4827 61.8915 58.5011C61.9284 58.4827 61.9745 58.4369 62.0114 58.4186C62.0391 58.4002 62.0668 58.3819 62.0668 58.3911C62.1222 58.3636 62.1775 58.3269 62.2329 58.2994C62.1498 58.3086 62.2882 58.2445 62.3344 58.2445C62.3528 58.2353 62.3805 58.2261 62.399 58.2078C62.3805 58.2261 62.3713 58.2261 62.3528 58.2353C62.4451 58.1986 62.5466 58.1711 62.6389 58.1528C62.6204 58.1528 62.6112 58.1528 62.5835 58.1528C62.6112 58.1528 62.6481 58.1528 62.6758 58.1528C62.7219 58.1528 62.7588 58.1528 62.7773 58.1528C62.888 58.1345 62.9987 58.1436 63.1095 58.1528C63.2387 58.1803 63.3586 58.2169 63.4878 58.2536C63.5985 58.3086 63.7001 58.3544 63.7923 58.4186C63.7831 58.4094 63.7739 58.4002 63.7646 58.3911C63.7739 58.4002 63.7923 58.4186 63.8015 58.4277C63.8754 58.4736 63.9307 58.5377 63.8938 58.5194C63.9584 58.5744 64.023 58.6386 64.0784 58.6935C64.143 58.776 64.1891 58.8677 64.2445 58.9593C64.2445 58.941 64.2445 58.9318 64.2352 58.9043C64.2352 58.9227 64.2445 58.941 64.2537 58.9685C64.2998 59.051 64.309 59.1243 64.2906 59.0876C64.3183 59.1701 64.3367 59.2435 64.3644 59.3168C64.3644 59.3809 64.3737 59.4451 64.3737 59.5001C64.3737 59.5459 64.3737 59.5917 64.3737 59.6376C64.3737 59.6192 64.3737 59.6101 64.3921 59.5826C64.3921 59.6009 64.3829 59.6284 64.3737 59.6467C64.3737 59.7017 64.3552 59.8758 64.3367 59.7659C64.3183 59.8484 64.3091 59.9217 64.2721 59.995C64.2168 60.105 64.143 60.2058 64.0784 60.3066C64.0138 60.38 63.94 60.4441 63.8661 60.5174C63.7462 60.5999 63.6355 60.6732 63.5063 60.7374C63.3955 60.774 63.2756 60.8015 63.1649 60.829C63.1925 60.829 63.2018 60.829 63.2387 60.829C63.2018 60.829 63.1649 60.829 63.1279 60.829C63.091 60.8382 63.0172 60.8474 63.0172 60.829C62.9157 60.829 62.805 60.829 62.7035 60.829C62.5928 60.8015 62.4728 60.7832 62.3713 60.7374C62.3897 60.7465 62.399 60.7557 62.4174 60.7649C62.399 60.7557 62.3805 60.7466 62.362 60.7282C62.3067 60.7191 62.2144 60.6641 62.2329 60.6549C62.1498 60.6182 62.0852 60.5816 62.0114 60.5358C61.9284 60.4441 61.8361 60.3616 61.7438 60.2791C61.6977 60.215 61.6515 60.1417 61.6146 60.0683C61.6146 60.1142 61.5593 59.995 61.5593 59.9584C61.5408 59.9309 61.5316 59.9034 61.5131 59.8759C61.5316 59.9034 61.5408 59.9125 61.5501 59.94C61.5131 59.8484 61.4947 59.7567 61.4762 59.6559C61.4762 59.5459 61.467 59.4267 61.4762 59.3076C61.4854 59.2251 61.5131 59.161 61.5408 59.0785C61.5224 59.0968 61.5224 59.0418 61.5685 58.9777L61.5593 58.9868Z" fill="var(--fill-0, #323232)"/>
<path id="Vector_80" d="M62.0745 58.3906C62.0745 58.3906 61.9905 58.4373 61.9531 58.4747C62.0465 58.428 62.0838 58.3906 62.0745 58.3906Z" fill="var(--fill-0, #323232)"/>
<path id="Vector_81" d="M62.7795 58.1433C62.7795 58.1433 62.7054 58.1433 62.6777 58.1433C62.6684 58.1433 62.6499 58.1433 62.6406 58.1433C62.7795 58.1526 62.8166 58.1433 62.7795 58.1433Z" fill="var(--fill-0, #323232)"/>
<path id="Vector_82" d="M62.3527 58.2344C62.3527 58.2344 62.2873 58.2718 62.25 58.2904C62.2687 58.2904 62.3153 58.2624 62.3713 58.2251C62.3713 58.2251 62.3713 58.2251 62.362 58.2251L62.3527 58.2344Z" fill="var(--fill-0, #323232)"/>
<path id="Vector_83" d="M61.5683 58.9595C61.5683 58.9595 61.5498 59.052 61.5312 59.0891C61.5405 59.0798 61.559 59.0335 61.5775 58.9409C61.5775 58.9409 61.5775 58.9409 61.5775 58.9502L61.5683 58.9595Z" fill="var(--fill-0, #323232)"/>
<path id="Vector_84" d="M61.5561 59.9678C61.5561 59.9678 61.5932 60.0419 61.6117 60.079C61.6117 60.0605 61.5839 60.0142 61.5469 59.9493C61.5469 59.9493 61.5469 59.9586 61.5469 59.9678H61.5561Z" fill="var(--fill-0, #323232)"/>
<path id="Vector_85" d="M64.25 58.9494C64.2685 59.0235 64.2778 59.0605 64.287 59.079C64.2778 59.042 64.2593 58.9957 64.25 58.9587V58.9494Z" fill="var(--fill-0, #323232)"/>
<path id="Vector_86" d="M64.3574 59.6368C64.3574 59.6368 64.3574 59.6368 64.3574 59.6276C64.3388 59.6924 64.3203 59.7387 64.3203 59.7665C64.3203 59.7202 64.3388 59.6832 64.3574 59.6461V59.6368Z" fill="var(--fill-0, #323232)"/>
<path id="Vector_87" d="M8.73844 97.4056C4.25388 111.895 3.10044 127.173 0 141.973H2.88821C5.97942 127.429 7.09594 112.417 11.4698 98.1571C11.7927 97.2498 11.1653 96.6174 10.4271 96.4708C9.7719 96.3425 9.01526 96.5991 8.73844 97.4056Z" fill="var(--fill-0, #323232)"/>
</g>
</svg>
