<svg preserveAspectRatio="none" width="100%" height="100%" overflow="visible" style="display: block;" viewBox="0 0 308.666 88.0002" fill="none" xmlns="http://www.w3.org/2000/svg">
<g id="Group">
<path id="Vector" d="M272.536 2.44648H35.467C16.5281 2.44648 1.17188 16.9908 1.17188 34.9283C1.17188 52.8659 16.5281 67.4102 35.467 67.4102H142.894C142.761 67.8076 142.787 68.2554 143.034 68.6653L152.557 84.2882C153.196 85.3415 154.801 85.3415 155.44 84.2882L164.963 68.6653C165.216 68.2554 165.236 67.8076 165.103 67.4102H272.53C291.469 67.4102 306.825 52.8659 306.825 34.9283C306.825 16.9908 291.469 2.44648 272.53 2.44648H272.536Z" fill="var(--fill-0, white)"/>
<path id="Vector_2" d="M41.0226 1.5H35.7951C16.8562 1.5 1.5 16.0443 1.5 33.9819C1.5 51.9194 16.8562 66.4637 35.7951 66.4637H141.691L153.857 86.4196C153.924 86.5268 154.083 86.5268 154.143 86.4196L166.31 66.4637H272.871C291.81 66.4637 307.166 51.9194 307.166 33.9819C307.166 16.0443 291.81 1.5 272.871 1.5H52.9893" stroke="var(--stroke-0, #853173)" stroke-width="3" stroke-miterlimit="10" stroke-linecap="round"/>
</g>
</svg>
