<svg preserveAspectRatio="none" width="100%" height="100%" overflow="visible" style="display: block;" viewBox="0 0 242.738 69.0002" fill="none" xmlns="http://www.w3.org/2000/svg">
<g id="Group">
<path id="Vector" d="M214.069 2.23438H28.1325C13.2785 2.23438 1.23438 13.5276 1.23438 27.4556C1.23438 41.3836 13.2785 52.6768 28.1325 52.6768H112.389C112.285 52.9853 112.305 53.333 112.499 53.6514L119.968 65.782C120.469 66.5999 121.728 66.5999 122.229 65.782L129.698 53.6514C129.896 53.333 129.912 52.9853 129.808 52.6768H214.064C228.918 52.6768 240.962 41.3836 240.962 27.4556C240.962 13.5276 228.918 2.23438 214.064 2.23438H214.069Z" fill="var(--fill-0, white)"/>
<path id="Vector_2" d="M32.4982 1.5H28.3982C13.5441 1.5 1.5 12.7932 1.5 26.7212C1.5 40.6492 13.5441 51.9424 28.3982 51.9424H111.453L120.996 67.4376C121.048 67.5208 121.173 67.5208 121.22 67.4376L130.763 51.9424H214.34C229.194 51.9424 241.238 40.6492 241.238 26.7212C241.238 12.7932 229.194 1.5 214.34 1.5H41.8838" stroke="var(--stroke-0, #853173)" stroke-width="3" stroke-miterlimit="10" stroke-linecap="round"/>
</g>
</svg>
