<svg preserveAspectRatio="none" width="100%" height="100%" overflow="visible" style="display: block;" viewBox="0 0 33 58.0001" fill="none" xmlns="http://www.w3.org/2000/svg">
<g id="Group">
<path id="Vector" d="M5.69683 8.41142C4.17724 10.4724 3.23237 12.9594 3.01807 15.5355C2.72584 17.6559 3.00832 18.191 5.15134 17.9234C7.04109 17.9432 7.75218 18.191 7.84959 15.9219C8.62886 9.02574 15.808 5.32002 21.5649 9.14464C25.0814 11.701 26.0652 16.6353 24.0196 20.45C21.8668 24.4728 18.1166 28.0101 17.5419 32.7364C17.3957 33.965 17.4347 35.2135 17.5419 36.4421C17.61 37.1753 17.5224 38.83 18.3309 39.2065C18.9933 39.5236 20.5616 38.9291 21.3895 38.7805C22.6948 38.4436 21.974 36.6006 21.9545 35.59C21.8474 31.5573 24.9255 28.4758 26.825 25.2061C29.796 20.886 31.15 15.6346 28.7829 10.6903C24.7015 1.60439 11.5122 0.504565 5.69683 8.41142Z" fill="var(--fill-0, white)"/>
<path id="Vector_2" d="M23.8309 54.7029C24.0744 54.5741 24.3082 54.4453 24.5322 54.2867C24.7563 54.0886 24.9803 53.8805 25.1654 53.6427C25.4869 53.1671 25.7109 52.632 25.7888 52.0573C25.8083 51.7997 25.7986 51.5421 25.7888 51.2845C25.7888 51.2647 25.7888 51.2548 25.7791 51.2251C25.7304 50.9575 25.6524 50.7098 25.5745 50.4522C25.5648 50.4225 25.555 50.4027 25.5453 50.3828C25.4284 50.1153 25.2726 49.8775 25.1167 49.6298C24.9219 49.4317 24.7173 49.2137 24.5128 49.0254C24.2887 48.8867 24.0647 48.7381 23.8211 48.6291C23.5874 48.5597 23.3536 48.4705 23.1101 48.421C23.0321 48.4012 22.6717 48.3913 23.0126 48.4012C22.7399 48.3814 22.4672 48.3814 22.1944 48.3913C21.8924 48.4507 21.5905 48.5201 21.2982 48.639C21.045 48.7678 20.8014 48.9065 20.5677 49.075C20.5482 49.0849 20.5482 49.0948 20.5092 49.1245C20.3144 49.3028 20.1293 49.4911 19.9637 49.6992C19.8079 49.9271 19.6715 50.155 19.5643 50.4126C19.4767 50.6801 19.389 50.9377 19.35 51.2152C19.3208 51.4827 19.3208 51.8394 19.35 52.1168C19.3987 52.3942 19.4767 52.6618 19.5643 52.9194C19.691 53.1968 19.8468 53.4743 20.0222 53.722C20.2072 53.9201 20.3826 54.1282 20.5969 54.2966C20.5969 54.2966 20.5969 54.2967 20.6164 54.3066C20.8599 54.4552 21.0937 54.6236 21.3567 54.7326C21.873 54.9308 22.4282 55.0001 22.9834 54.9407C23.2757 54.901 23.5484 54.7921 23.8309 54.7128V54.7029Z" fill="var(--fill-0, white)"/>
<path id="Vector_3" d="M21.3047 48.6295C21.4216 48.5895 21.3729 48.5995 21.3047 48.6295Z" fill="var(--fill-0, white)"/>
<path id="Vector_4" d="M24.5469 54.2777C24.6735 54.1577 24.6053 54.2277 24.5469 54.2777Z" fill="var(--fill-0, white)"/>
<path id="Vector_5" d="M19.3483 52.0772C19.3383 51.9979 19.3083 51.879 19.3483 52.0772Z" fill="var(--fill-0, white)"/>
<path id="Vector_6" d="M23.8239 48.6196C23.7557 48.5796 23.5901 48.5496 23.8239 48.6196Z" fill="var(--fill-0, white)"/>
<path id="Vector_7" d="M19.5576 50.4326C19.5276 50.5026 19.5176 50.5326 19.5576 50.4326Z" fill="var(--fill-0, white)"/>
<g id="Group_2">
<path id="Vector_8" d="M24.2075 1.76266C13.9697 -3.34014 1.24804 3.12011 0.0888678 14.911C-0.203361 17.4476 0.0888693 20.3705 3.06961 20.9353C7.30693 21.3019 10.5409 21.1632 10.8721 16.0208C11.5248 11.1359 17.1063 8.83722 20.6521 12.325C22.2106 14.0094 22.5418 16.7738 21.558 18.6861C18.811 23.6601 14.3886 28.099 14.4665 34.2026C14.2328 40.6133 15.9082 43.8335 22.6587 41.5546C25.4349 40.4647 25.2498 38.1263 24.9673 35.5897C24.9089 33.0631 26.7207 30.9526 28.026 28.9512C30.919 24.5519 33.5881 19.8949 32.8867 14.3958C32.1951 8.98584 29.039 4.21993 24.2075 1.76266ZM29.5943 19.459C29.039 21.5199 27.9286 23.4025 26.8376 25.2058C24.9381 28.4657 21.8599 31.5471 21.9671 35.5897C21.9866 36.6004 22.7074 38.4433 21.4021 38.7802C20.5741 38.9288 19.0058 39.5233 18.3434 39.2063C17.5447 38.8198 17.6226 37.1751 17.5544 36.4419C17.4473 35.2132 17.3986 33.9549 17.5544 32.7361C18.1389 28.0098 21.8892 24.4726 24.0322 20.4498C26.068 16.6351 25.0842 11.7007 21.5774 9.14438C15.8205 5.32967 8.64144 9.02548 7.86216 15.9217C7.74527 16.7044 7.85242 17.6755 6.92703 17.8736C5.91397 17.9727 4.82298 17.943 3.80992 17.9628C2.63126 17.8142 2.95271 16.4468 3.03064 15.5353C5.14443 -3.33022 33.4809 0.543943 29.604 19.4689L29.5943 19.459Z" fill="var(--fill-0, #323232)"/>
<path id="Vector_9" d="M23.7259 45.4387C17.8813 44.3785 14.0141 51.354 17.93 55.9019C22.1283 60.6579 29.8919 56.6847 28.6645 50.4127C28.197 47.9653 26.1708 45.8549 23.7259 45.4486V45.4387ZM22.9855 54.9309C22.4303 54.9903 21.8751 54.9309 21.3588 54.7228C21.0958 54.6138 20.8523 54.4454 20.6185 54.2967C20.599 54.2868 20.6087 54.2967 20.599 54.2868C20.3847 54.1184 20.2094 53.9103 20.0243 53.7122C19.8392 53.4645 19.6931 53.187 19.5665 52.9096C19.4788 52.6421 19.4009 52.3745 19.3522 52.107C19.3229 51.8296 19.3229 51.463 19.3522 51.2054C19.4009 50.9279 19.4788 50.6604 19.5665 50.4028C19.6736 50.1452 19.81 49.9173 19.9658 49.6894C20.1314 49.4813 20.3165 49.293 20.5113 49.1147C20.5503 49.085 20.5503 49.085 20.5698 49.0651C20.7938 48.8967 21.0471 48.758 21.3004 48.6292C21.5926 48.5103 21.8946 48.4508 22.1965 48.3815C22.4693 48.3815 22.742 48.3716 23.0148 48.3914C22.6738 48.3914 23.0342 48.3914 23.1122 48.4112C23.3557 48.4607 23.5797 48.5499 23.8233 48.6193C24.0668 48.7283 24.2908 48.8769 24.5149 49.0156C24.7292 49.2039 24.924 49.4119 25.1188 49.62C25.2747 49.8578 25.4305 50.1055 25.5474 50.3731C25.5474 50.3929 25.5572 50.4127 25.5766 50.4424C25.6546 50.7 25.7228 50.9477 25.7812 51.2153C25.7812 51.245 25.7812 51.2549 25.7909 51.2747C25.8007 51.5323 25.8007 51.7899 25.7909 52.0476C25.713 52.6223 25.489 53.1573 25.1675 53.6329C24.9824 53.8707 24.7584 54.0788 24.5343 54.2769C24.3103 54.4355 24.0765 54.5742 23.833 54.6931C23.5505 54.7723 23.2778 54.8813 22.9855 54.921V54.9309ZM21.3004 48.6292C21.4172 48.5895 21.3685 48.5995 21.3004 48.6292ZM19.5567 50.4325C19.5275 50.5019 19.5178 50.5316 19.5567 50.4325ZM19.3424 52.0773C19.3327 51.998 19.3035 51.8791 19.3424 52.0773ZM23.8233 48.6193C23.7453 48.5796 23.5797 48.5499 23.8233 48.6193ZM24.5441 54.2769C24.6707 54.158 24.6025 54.2274 24.5441 54.2769Z" fill="var(--fill-0, #323232)"/>
</g>
</g>
</svg>
