<svg preserveAspectRatio="none" width="100%" height="100%" overflow="visible" style="display: block;" viewBox="0 0 125.999 154" fill="none" xmlns="http://www.w3.org/2000/svg">
<g id="Group">
<path id="Vector" d="M84.6782 90.4943C84.5899 90.2546 84.3957 89.9793 84.3339 89.7395C83.601 89.9171 82.9741 89.2867 82.8593 88.5497C82.3206 90.0592 79.8836 89.3311 80.2898 87.6795C80.8549 85.7616 79.3273 85.1844 77.8086 85.3975C78.1265 85.3531 77.2082 85.5929 77.7291 85.3975C76.7931 85.7438 75.7512 85.6373 75.451 84.4918C75.1684 83.4174 76.7667 80.6737 75.6894 79.99C74.8859 79.475 73.2789 80.6293 72.6519 81.0999C73.7557 82.3164 73.9234 84.4297 74.4709 85.8859C74.7446 86.4719 74.93 86.6673 75.4598 86.8271C77.0669 87.1823 78.7092 87.573 79.8483 88.8782C81.0668 89.997 84.0513 94.3213 81.5348 95.2803C80.8814 95.4579 79.9807 95.0583 79.8659 94.3213C79.6187 92.7763 78.6739 91.4089 77.4995 90.4055C76.5283 89.5797 74.983 89.7129 73.8086 89.0825C71.8219 88.0081 71.61 85.6018 71.0361 83.6483C70.886 83.2043 70.674 82.8314 70.4091 82.6538C69.4467 82.0766 69.5526 80.5316 70.6652 80.1942C70.5416 79.7591 70.6122 79.2885 71.0184 78.9511C73.2524 77.0953 75.4775 75.1862 77.4995 73.0995C77.941 72.6467 78.6386 72.034 78.8328 71.4036C78.824 71.1727 78.8152 70.9418 78.8064 70.711C78.0293 69.2459 76.6872 70.2936 75.7689 71.0395C69.8264 75.4259 64.1223 80.132 58.3564 84.7404C57.0054 85.8326 55.0717 83.9147 56.4315 82.8047C57.129 82.2364 57.8266 81.677 58.533 81.1176C57.8619 78.7912 57.1467 76.4648 56.193 74.2361C55.7957 73.3393 55.3101 72.1494 54.1975 72.0162C51.5309 71.4835 54.6478 78.8978 54.7185 80.2297C55.7516 85.433 52.8289 90.4144 53.6589 95.6443C54.171 99.5957 56.4933 103.44 55.937 107.543C55.4513 111.041 54.2946 114.46 53.235 117.816C52.8024 119.184 50.9746 118.953 50.6126 117.905C50.1887 118.544 49.862 119.299 49.5 120.036C49.9768 119.548 50.798 119.352 51.4602 119.921C56.2813 124.085 61.0053 128.578 66.5063 131.846C67.0538 132.174 67.2216 132.689 67.1421 133.178C67.6366 132.174 68.184 131.171 68.6343 130.105C67.5571 130.487 66.1708 129.368 66.9655 128.187C69.0229 125.142 70.6564 121.839 72.2193 118.518C75.089 112.418 77.579 106.024 81.2434 100.342C82.8593 97.7665 84.2456 94.8186 85.0049 91.8884C85.0226 91.5421 84.846 90.9471 84.6871 90.4943H84.6782Z" fill="var(--fill-0, white)"/>
<path id="Vector_2" d="M65.4866 62.7466C65.4866 62.7466 65.4688 62.7911 65.4688 62.8178C65.4688 62.8178 65.4688 62.8178 65.4688 62.8089C65.4688 62.7911 65.4688 62.7822 65.4777 62.7555L65.4866 62.7466Z" fill="var(--fill-0, #6EC878)"/>
<path id="Vector_3" d="M66.1409 62.134C66.0697 62.1607 66.0608 62.1874 66.1053 62.1696C66.1409 62.1518 66.1765 62.134 66.2032 62.1162C66.1854 62.1162 66.1587 62.1251 66.1409 62.134Z" fill="var(--fill-0, #6EC878)"/>
<path id="Vector_4" d="M66.2654 62.0806C66.2654 62.0806 66.2209 62.0984 66.2031 62.1162C66.2031 62.1162 66.2031 62.1162 66.212 62.1162C66.2298 62.1073 66.2387 62.0984 66.2565 62.0895L66.2654 62.0806Z" fill="var(--fill-0, #6EC878)"/>
<path id="Vector_5" d="M65.8906 62.285C65.8906 62.285 65.9262 62.2672 65.944 62.2583C65.944 62.2583 65.9173 62.2672 65.8906 62.285Z" fill="var(--fill-0, #6EC878)"/>
<path id="Vector_6" d="M66.2654 64.5667C66.2654 64.5667 66.2387 64.5489 66.2209 64.54C66.2209 64.54 66.212 64.54 66.2031 64.54C66.2209 64.5489 66.2476 64.5579 66.2565 64.5757L66.2654 64.5667Z" fill="var(--fill-0, #6EC878)"/>
<path id="Vector_7" d="M66.176 64.5223C66.176 64.5223 66.1938 64.5223 66.2027 64.5312C66.1671 64.5045 66.1226 64.4867 66.0781 64.46C66.0781 64.46 66.1048 64.4956 66.1671 64.5223H66.176Z" fill="var(--fill-0, #6EC878)"/>
<path id="Vector_8" d="M67.0599 64.6196C67.0599 64.6196 67.0154 64.6196 66.9887 64.6196C66.9798 64.6196 66.962 64.6196 66.9531 64.6285C66.9887 64.6285 67.0332 64.6196 67.0599 64.6285V64.6196Z" fill="var(--fill-0, #6EC878)"/>
<path id="Vector_9" d="M65.4558 62.8358C65.4113 62.907 65.4202 62.9515 65.4291 62.9337C65.4469 62.8892 65.4558 62.8447 65.4647 62.8091C65.4647 62.8091 65.4558 62.8269 65.4469 62.8358H65.4558Z" fill="var(--fill-0, #6EC878)"/>
<path id="Vector_10" d="M65.4062 63.7056C65.4062 63.7056 65.4329 63.759 65.4507 63.7857C65.4507 63.7857 65.4507 63.7768 65.4507 63.7679C65.4418 63.7501 65.433 63.7323 65.4151 63.7056H65.4062Z" fill="var(--fill-0, #6EC878)"/>
<path id="Vector_11" d="M65.462 63.8297C65.4798 63.892 65.5065 63.9187 65.5065 63.892C65.4887 63.8564 65.4709 63.8208 65.4531 63.7852C65.4531 63.803 65.462 63.8208 65.4709 63.8297H65.462Z" fill="var(--fill-0, #6EC878)"/>
<path id="Vector_12" d="M66.5234 62.0269C66.5234 62.0269 66.5947 62.0269 66.6214 62.0269C66.6036 62.0269 66.5679 62.0269 66.5234 62.0269Z" fill="var(--fill-0, #6EC878)"/>
<path id="Vector_13" d="M68.1476 63.3234C68.1476 63.2612 68.1476 63.208 68.1388 63.1458C68.1211 63.0748 68.0946 62.9949 68.0681 62.9238C68.0681 62.9061 68.0505 62.8705 68.0328 62.7995C67.9887 62.7107 67.9357 62.6308 67.8739 62.542C67.8209 62.4887 67.7591 62.4354 67.6973 62.3733C67.6796 62.3733 67.6531 62.3378 67.6001 62.2756C67.503 62.2135 67.4147 62.1602 67.3087 62.1158C67.1851 62.0803 67.0703 62.0447 66.9467 62.0181C66.8408 62.0181 66.7348 62.0092 66.6288 62.0181C66.6642 62.0181 66.6288 62.0359 66.4964 62.0181C66.3993 62.0359 66.311 62.0625 66.2227 62.098C66.1697 62.1335 66.1344 62.1513 66.1079 62.1602C66.0549 62.1868 66.0019 62.2223 65.949 62.249C65.949 62.249 65.9225 62.2756 65.8342 62.3289C65.7635 62.3999 65.6929 62.4798 65.6222 62.5509C65.5693 62.6308 65.5251 62.7107 65.481 62.7906C65.4633 62.8705 65.4456 62.9238 65.4368 62.9327C65.4103 63.0126 65.3838 63.0748 65.375 63.1547C65.375 63.2612 65.375 63.3767 65.375 63.4921C65.3927 63.5809 65.4192 63.6786 65.4456 63.7674C65.481 63.8295 65.5075 63.8739 65.5075 63.8917C65.5428 63.9627 65.5781 64.0337 65.6311 64.0959C65.7105 64.1758 65.8077 64.2557 65.8871 64.3445C65.9489 64.3889 66.0196 64.4333 66.0991 64.4599C66.0991 64.4599 66.152 64.4777 66.2403 64.531C66.3463 64.5665 66.4522 64.5931 66.5582 64.6198C66.6553 64.6198 66.7613 64.6198 66.8584 64.6198C66.8584 64.6109 66.9026 64.602 66.9997 64.602C67.1057 64.5754 67.2205 64.5487 67.3264 64.5132C67.45 64.4599 67.556 64.38 67.6708 64.3001C67.7414 64.238 67.812 64.1669 67.8739 64.0959C67.9357 63.9982 68.0063 63.9005 68.0593 63.794C68.0946 63.7141 68.1034 63.6519 68.1211 63.572C68.1211 63.5454 68.1299 63.501 68.1564 63.4388C68.1564 63.3944 68.1564 63.35 68.1564 63.3056L68.1476 63.3234Z" fill="var(--fill-0, white)"/>
<path id="Vector_14" d="M68.1428 63.4033C68.1428 63.4211 68.1339 63.4389 68.125 63.4567C68.125 63.4567 68.125 63.4567 68.125 63.4656C68.125 63.4478 68.125 63.4211 68.1428 63.4033Z" fill="var(--fill-0, #6EC878)"/>
<path id="Vector_15" d="M66.8438 64.6289C66.8438 64.6289 66.915 64.6289 66.9506 64.6289C66.915 64.6289 66.8794 64.6289 66.8438 64.6289Z" fill="var(--fill-0, #6EC878)"/>
<path id="Vector_16" d="M68.1016 63.5903C68.1194 63.6883 68.1372 63.5191 68.1372 63.4746C68.1283 63.5102 68.1105 63.5547 68.1016 63.5903Z" fill="var(--fill-0, #6EC878)"/>
<path id="Vector_17" d="M67.5714 62.2491C67.5714 62.2491 67.5892 62.2669 67.5981 62.2758C67.5892 62.2669 67.5714 62.2491 67.5625 62.2402L67.5714 62.2491Z" fill="var(--fill-0, #6EC878)"/>
<path id="Vector_18" d="M65.8892 62.2847C65.8535 62.3114 65.809 62.347 65.7734 62.3648C65.809 62.347 65.8179 62.3381 65.8357 62.3292C65.8535 62.3114 65.8713 62.2936 65.8892 62.2847Z" fill="var(--fill-0, #6EC878)"/>
<path id="Vector_19" d="M67.6183 62.2939C67.6183 62.2939 67.6183 62.2939 67.6094 62.2939C67.6361 62.3207 67.6628 62.3563 67.6984 62.383C67.7251 62.3919 67.6984 62.3563 67.6183 62.2939Z" fill="var(--fill-0, #6EC878)"/>
<path id="Vector_20" d="M68.0089 62.7467C68.0089 62.7467 68.0089 62.7823 68.0178 62.8001C68.0178 62.7823 68.0089 62.7645 68 62.7378L68.0089 62.7467Z" fill="var(--fill-0, #6EC878)"/>
<path id="Vector_21" d="M66.5265 62.0269C66.5265 62.0269 66.4642 62.0269 66.4375 62.0269C66.4642 62.0269 66.4731 62.0269 66.4909 62.0269C66.4998 62.0269 66.5176 62.0269 66.5265 62.0269Z" fill="var(--fill-0, #6EC878)"/>
<path id="Vector_22" d="M68.0312 62.8091C68.0402 62.8447 68.049 62.8892 68.0669 62.9248C68.0847 62.9515 68.0847 62.8981 68.0401 62.8091H68.0312Z" fill="var(--fill-0, #6EC878)"/>
<path id="Vector_23" d="M78.1251 83.8706C78.1696 84.0931 78.0361 84.1555 78.1251 83.8706Z" fill="var(--fill-0, #6EC878)"/>
<path id="Vector_24" d="M60.0625 76.8999C60.3274 77.6902 60.5746 78.4804 60.813 79.2796C61.4929 78.7291 62.1817 78.1874 62.8704 77.6458C61.9256 77.4682 60.9896 77.2107 60.0625 76.8999Z" fill="var(--fill-0, white)"/>
<path id="Vector_25" d="M82.9493 83.9149C80.7506 81.473 79.6822 78.4274 79.1789 75.2485C78.4107 76.021 77.616 76.7758 76.8125 77.5128C78.7639 78.383 78.9846 80.8071 78.4195 82.6274C81.2716 82.5386 83.5144 84.6785 83.0464 87.5288C83.1523 87.3778 83.2936 87.218 83.4702 87.1114C83.532 86.2857 83.223 85.3444 83.638 84.5986C83.3996 84.3766 83.1612 84.1546 82.9404 83.9149H82.9493Z" fill="var(--fill-0, white)"/>
<path id="Vector_26" d="M38.4958 16.0405C38.3015 16.2359 38.1072 16.3868 37.9218 16.52C38.1249 16.7065 38.2838 16.9462 38.3545 17.2215C38.69 17.1593 39.0344 17.0705 39.4052 16.9551C39.4052 16.9551 39.4052 16.0405 38.4958 16.0405Z" fill="var(--fill-0, #6EC878)"/>
<path id="Vector_27" d="M57.5444 0.874849C59.2132 1.39873 58.498 4.03592 56.8203 3.51204C52.3612 2.22452 45.9419 6.31792 43.2135 9.71874C40.3173 13.7944 36.388 17.0087 31.2578 14.8067C31.2843 15.7479 31.4168 16.9466 32.1585 16.9466C33.4565 16.9466 34.5425 17.1508 35.6286 17.2662C36.0524 16.1297 37.059 15.7479 37.9244 16.5115C38.1098 16.3694 38.3041 16.2274 38.4983 16.032C39.4078 16.032 39.4078 16.9466 39.4078 16.9466C39.0458 17.0709 38.6926 17.1508 38.357 17.213C38.4277 17.506 38.41 17.8345 38.2246 18.1808C36.2732 21.8391 33.8361 25.2932 34.3306 29.6619C34.728 33.1604 36.4763 36.4813 38.6749 39.2073C39.8934 38.8343 42.0303 39.2694 41.5711 40.9476C41.6771 41.0098 41.783 41.0808 41.889 41.1519C41.8007 40.4593 41.4916 39.6246 41.889 39.0031C41.2532 38.3371 41.6241 36.9874 42.56 36.8098C43.6991 36.6056 44.8382 36.2238 45.9331 35.6999C45.8713 35.5312 45.8095 35.3625 45.7565 35.1671C45.8006 35.3536 45.8624 35.5312 45.9331 35.6999C49.7652 33.8885 52.9881 30.3456 53.3148 26.048C53.3678 25.311 53.8888 24.6806 54.6746 24.6806C55.3722 24.6806 56.0874 25.311 56.0344 26.048C55.902 27.7528 55.487 29.36 54.7365 30.8961C53.3502 33.7642 50.816 36.206 47.911 37.7777C48.7233 38.1417 49.6769 38.2483 50.6394 38.1506C50.6394 37.458 51.0721 36.7299 51.9374 36.6411C54.5245 36.3925 57.2883 35.6733 59.0896 33.8263C61.4383 31.4378 61.5708 27.7351 62.2242 24.5918C62.5421 23.0201 63.0454 21.4396 64.1138 20.2142C65.3323 18.8113 67.1336 18.2963 68.9349 18.2163C70.0475 18.1631 70.4448 19.2552 70.1446 20.0721C70.8068 20.1077 71.522 20.7203 71.4426 21.4307C71.0541 27.4332 81.0583 27.7528 81.7206 33.7642C83.098 34.0394 82.8331 35.7354 82.9832 36.8009L83.4336 35.8242C83.3894 35.3802 83.5483 34.9096 84.0075 34.59C84.2547 33.7198 85.3408 33.4268 86.0472 33.8796C86.2679 29.2978 88.0692 24.281 85.4997 20.0278C84.8198 18.6958 83.8574 17.0798 82.215 16.9288C81.2261 16.84 80.8022 15.9077 80.9435 15.1529C80.7493 14.9931 80.5992 14.7623 80.5197 14.4426C78.9833 7.712 75.3012 3.46762 68.2197 2.8283C66.2506 2.6152 64.3257 2.80168 62.4714 3.51204C60.8997 4.11584 60.2021 1.71838 61.5619 0.972509C59.8313 0.564056 57.9682 0.555176 55.7696 0.555176C56.37 0.599573 56.9792 0.688381 57.562 0.874849H57.5444Z" fill="var(--fill-0, white)"/>
<path id="Vector_28" d="M48.6514 75.0798C48.722 79.12 47.3887 83.3022 44.2188 85.9482C45.1724 86.188 45.1282 87.2624 45.0752 88.1237L47.2915 89.1182C47.3798 88.9672 47.4858 88.8429 47.6271 88.7541C47.7595 88.6298 47.9096 88.5499 48.0862 88.5055C48.2628 88.4522 48.4483 88.4434 48.6249 88.4789C48.8015 88.4789 48.9781 88.541 49.1282 88.6387C49.1458 88.6476 49.1723 88.6565 49.19 88.6653C49.8169 88.985 50.6292 89.0205 51.1237 89.5533C51.6094 86.8628 52.5542 84.0836 52.1391 81.3309C51.6712 78.0633 49.6226 74.627 50.7087 71.2972C49.3842 70.0985 48.2363 68.6955 47.2739 67.186C47.1061 69.4148 47.0355 71.6257 46.8677 73.8101C47.6536 73.5881 48.6425 74.0054 48.6337 75.071L48.6514 75.0798Z" fill="var(--fill-0, white)"/>
<path id="Vector_29" d="M68.719 21.4307C68.7367 21.262 68.7808 21.1021 68.8338 20.9512C68.6837 20.9512 68.5601 20.9689 68.4453 20.9778C68.4806 21.3241 68.5601 21.5994 68.6925 21.8214C68.6925 21.6882 68.6925 21.5639 68.719 21.4307Z" fill="var(--fill-0, #6EC878)"/>
<path id="Vector_30" d="M87.0709 38.0088C86.9208 37.5826 86.6294 37.0143 86.3115 36.7391C86.1261 36.597 86.1614 36.6059 86.0378 36.6236C85.093 38.6392 84.1571 40.6549 83.2123 42.6705C82.9474 43.2299 82.2321 43.4253 81.6759 43.301C80.6869 43.0612 80.6516 41.9513 80.6074 41.1255C80.4485 39.172 80.2807 37.2185 80.1218 35.2651C79.6273 35.1585 79.177 34.8122 79.0799 34.3061C79.0269 34.0397 78.9386 33.7822 78.8415 33.5336C77.9938 31.4736 75.7598 30.5235 73.9939 29.4135C71.3626 27.7531 68.5193 25.2047 68.6871 21.8128C68.5547 21.5908 68.4752 21.3155 68.4399 20.9692C68.122 20.9781 67.5481 21.1468 67.1684 21.2889C66.9565 21.3777 66.6916 21.5553 66.5061 21.6529C66.3737 21.795 66.1353 22.017 66.0028 22.1768C65.7821 22.4965 65.5878 22.8339 65.4377 23.1891C64.3958 26.1015 64.4753 29.307 63.2744 32.1751C62.4885 34.1196 61.2788 35.7535 59.5659 36.9699C57.3407 38.5416 54.5946 39.1099 51.9368 39.3674C51.0715 39.4473 50.6388 38.8169 50.6388 38.142C49.6764 38.2397 48.7316 38.1243 47.9104 37.7691C46.7537 38.3995 45.5263 38.8879 44.2902 39.2075C44.661 41.1344 44.9347 43.0879 45.2703 45.0236C45.3939 45.7783 45.0848 46.4531 44.3255 46.7018C43.6809 46.9149 42.7714 46.4531 42.6566 45.7517C42.4006 44.2155 42.1445 42.6794 41.8973 41.1521C41.7913 41.0811 41.6853 41.0101 41.5794 40.9479C41.4028 41.6139 40.8024 42.1555 39.9635 41.898C39.628 41.7914 39.3454 41.8181 39.0982 41.9335C38.9922 42.0312 38.8774 42.1111 38.7538 42.1733C38.2152 42.6794 37.9503 43.6472 37.8973 44.3132C37.4382 48.1313 39.3013 52.0028 42.5948 53.9207C42.3741 53.015 42.171 52.1093 41.9856 51.1859C41.65 49.4633 44.2725 48.7352 44.608 50.4578C45.2173 53.6011 46.065 56.6201 47.0981 59.648C48.1488 63.3596 49.7647 66.9735 52.7845 69.4952C55.6277 68.5806 58.0824 70.9781 58.9389 73.5975C61.2612 74.4943 63.504 75.3112 66.047 75.1425C68.5988 73.118 71.1418 71.0935 73.7555 69.1489C75.2124 67.968 77.1108 66.6094 79.0269 67.4885C79.0445 67.3109 79.1064 67.1155 79.2211 66.9291C80.9165 64.061 81.7023 60.6336 81.8701 57.3216C82.0467 53.7609 81.4463 50.2269 81.5522 46.6663C81.6052 44.9081 84.3248 44.9081 84.2718 46.6663C84.2453 47.5187 84.2718 48.3622 84.2983 49.2147C87.8656 46.8527 88.4572 41.8625 87.0886 37.9999L87.0709 38.0088ZM54.7271 44.9348C52.9788 44.9348 52.9788 42.1999 54.7271 42.1999C56.4754 42.1999 56.4754 44.9348 54.7271 44.9348ZM63.2126 42.0134C63.8925 41.7914 64.7225 42.2709 64.8814 42.9635C65.473 45.4498 66.0646 47.9271 66.6562 50.4133C66.8328 51.1592 66.4267 51.8607 65.7114 52.0916C65.0315 52.3136 64.2015 51.8341 64.0426 51.1415C63.451 48.6552 62.8594 46.1779 62.2678 43.6917C62.0912 42.9458 62.4974 42.2443 63.2126 42.0134ZM70.8239 63.6082C70.5326 67.5418 65.2611 68.7138 63.2214 65.4018C61.2347 62.2052 64.6077 58.2184 68.069 59.4881C69.7643 60.1008 71.0005 61.7524 70.8151 63.6082H70.8239ZM71.7952 42.9724C70.0469 42.9724 70.0469 40.2375 71.7952 40.2375C73.5435 40.2375 73.5435 42.9724 71.7952 42.9724Z" fill="var(--fill-0, white)"/>
<path id="Vector_31" d="M45.2122 99.8709C45.4506 105.944 46.1746 112 46.7662 118.056C46.8634 119.077 45.9892 119.494 45.2034 119.326L45.3888 121.066C46.4042 120.249 47.7464 121.288 47.5874 122.354C47.6845 122.371 47.7817 122.398 47.87 122.434C48.3821 121.963 48.7618 121.395 49.0973 120.809C49.1415 120.533 49.2828 120.267 49.4859 120.054C49.8479 119.308 50.1746 118.562 50.5984 117.923C50.5189 117.692 50.5101 117.417 50.5984 117.106C51.6138 113.323 53.6006 108.955 53.1944 105.101C52.1878 100.67 50.3247 96.2836 50.8633 91.6486C50.8633 91.6486 50.8545 91.6575 50.8456 91.6663C50.6867 91.764 50.5189 91.8173 50.3424 91.8262C49.4417 91.8794 48.594 91.32 47.764 91.0181C47.5609 90.8938 47.3932 90.734 47.2784 90.5298C47.2342 90.4232 47.1901 90.3078 47.1371 90.2012C47.0223 89.8461 47.1018 89.4376 47.296 89.1268L45.0797 88.1323C45.0091 92.0481 45.0532 95.9729 45.2034 99.8798L45.2122 99.8709Z" fill="var(--fill-0, white)"/>
<path id="Vector_32" d="M46.1628 124.307C46.1274 124.263 46.1098 124.21 46.0833 124.165C45.9773 124.272 45.8714 124.379 45.7566 124.485C41.7831 128.392 37.8009 132.29 33.8274 136.197C33.9069 137.156 33.0504 137.769 32.2734 137.715C28.0527 141.853 23.8408 146 19.6202 150.138C18.3663 151.372 16.4414 149.436 17.6952 148.202C22.0925 143.887 26.4898 139.571 30.8871 135.256C29.4743 128.321 28.2028 121.36 26.8253 114.416C26.5516 113.075 26.322 111.814 27.0902 110.58C27.7083 109.585 28.7149 108.964 29.8451 108.733C32.9444 108.094 36.079 107.57 39.196 106.993C40.909 106.673 41.633 109.31 39.92 109.63C36.8296 110.216 33.7303 110.758 30.6398 111.361C29.854 111.521 29.1917 111.876 29.2624 112.782C30.578 119.504 31.8937 126.261 33.2093 132.992C37.2799 129.031 41.2887 124.991 45.3857 121.066L45.2003 119.326C44.6352 119.202 44.1142 118.785 44.0436 118.056C42.9222 107.872 42.048 97.6337 42.3747 87.3691C31.823 94.2862 1.48358 97.4561 3.27605 114.052C3.09062 127.362 2.89636 140.672 2.71094 153.982H53.9419C54.1361 152.908 55.1516 152.144 55.7167 151.248C58.7365 147.332 61.7475 143.425 64.7673 139.509C57.8005 135.575 50.8426 130.958 46.1539 124.307H46.1628ZM31.9996 104.87C33.0592 101.292 34.11 97.7225 35.1696 94.1441C35.664 92.457 38.2865 93.1851 37.792 94.8722C36.7325 98.4506 35.6817 102.02 34.6221 105.599C34.1276 107.286 31.5052 106.558 31.9996 104.87ZM13.5629 137.405C10.3488 128.223 6.76386 119.14 5.06852 109.514C4.73298 107.792 7.35545 107.064 7.69099 108.786C8.67993 113.839 9.94261 118.82 11.5938 123.695C13.0684 128.046 14.7284 132.317 16.1853 136.677C16.7416 138.355 14.1191 139.065 13.5629 137.405Z" fill="var(--fill-0, #5A5A5A)"/>
<path id="Vector_33" d="M47.8682 122.425C48.1066 122.514 48.3274 122.682 48.504 122.931C52.8218 129.058 59.3647 133.302 65.7752 136.943C65.943 135.895 66.305 134.909 66.7465 133.941C66.3668 134.377 65.7487 134.59 65.1041 134.208C59.4089 130.834 54.4995 126.172 49.5106 121.857C49.1397 121.537 49.0249 121.155 49.0867 120.791C48.76 121.386 48.3715 121.945 47.8594 122.416L47.8682 122.425Z" fill="var(--fill-0, white)"/>
<path id="Vector_34" d="M66.753 133.942C66.3115 134.909 65.9406 135.895 65.7817 136.943C66.2938 137.191 66.9119 137.591 66.9295 138.159C69.1547 139.109 66.8766 141.089 66.0819 142.235C63.0621 146.151 60.0511 150.067 57.0312 153.982H77.7991C79.8653 136.836 82.2759 119.699 83.1589 102.446C77.7903 111.068 75 121.137 69.2959 129.573C69.1105 129.848 68.8721 130.026 68.6161 130.115C68.1657 131.171 67.6183 132.183 67.1238 133.187C67.0797 133.471 66.9472 133.737 66.7618 133.95L66.753 133.942Z" fill="var(--fill-0, white)"/>
<path id="Vector_35" d="M115.758 130.079C114.857 132.307 113.912 134.581 112.685 136.649C112.544 136.889 112.358 137.058 112.164 137.156C112.137 142.767 112.164 148.477 111.263 153.973H123.29C122.936 138.665 122.698 123.348 122.345 108.04C116.111 97.5623 103.873 94.49 93.3651 90.1125C94.2393 95.0317 95.1223 99.9508 95.9964 104.861C96.3673 106.646 93.9038 107.303 93.374 105.589C92.4733 100.528 91.5638 95.4579 90.6632 90.3966C90.5749 89.9171 90.7073 89.4465 91.0076 89.118C89.3387 88.3899 87.6964 87.5818 86.1776 86.5962C86.1864 86.978 86.1953 87.3598 86.2041 87.7505C88.959 91.0803 87.0518 95.0228 85.4359 98.4147C85.7891 98.6189 86.0452 99.0008 86.0187 99.5513C85.4006 117.798 82.6368 135.868 80.5 153.973H87.5463C91.6698 140.761 95.343 127.397 98.4776 113.918C99.4136 111.361 97.7094 111.343 95.7227 111.05C93.1709 110.571 90.619 110.1 88.0672 109.621C86.3454 109.301 87.0783 106.664 88.7913 106.983C91.7493 107.534 94.6984 108.084 97.6565 108.635C102.213 109.558 101.815 112.835 100.676 116.484C97.63 129.075 94.2834 141.613 90.3983 153.973H108.835C108.703 153.68 108.65 153.334 108.703 152.988C109.268 147.864 109.462 138.825 109.409 132.37C109.409 130.789 111.59 130.629 112.04 131.89C114.972 125.302 116.959 118.322 118.274 111.237C118.592 109.505 121.215 110.242 120.897 111.965C119.749 118.145 118.098 124.236 115.74 130.061L115.758 130.079Z" fill="var(--fill-0, #5A5A5A)"/>
<path id="Vector_36" d="M45.2645 121.146C41.2469 125.089 37.2205 129.04 33.2029 132.983C31.8872 126.252 30.5716 119.495 29.2559 112.773C29.1853 111.868 29.8475 111.512 30.6334 111.353C33.7238 110.749 36.8231 110.216 39.9136 109.621C41.6354 109.301 40.9025 106.664 39.1895 106.984C36.0726 107.561 32.9468 108.085 29.8387 108.724C28.7085 108.955 27.7019 109.577 27.0838 110.571C26.3156 111.805 26.554 113.075 26.8189 114.407C28.1963 121.351 29.459 128.312 30.8806 135.247C26.4833 139.562 22.0861 143.878 17.6888 148.193C16.4349 149.427 18.3599 151.354 19.6137 150.129C23.8344 145.991 28.0462 141.844 32.2669 137.707C33.0351 137.751 33.9004 137.147 33.821 136.188C37.7944 132.281 41.7767 128.383 45.7501 124.476L45.3793 121.049C45.3793 121.049 45.2998 121.093 45.2557 121.138L45.2645 121.146Z" fill="var(--fill-0, #323232)"/>
<path id="Vector_37" d="M67.483 138.479C67.3417 138.337 67.1386 138.231 66.9267 138.16C66.909 137.591 66.2909 137.192 65.7788 136.943C59.3595 133.303 52.8254 129.058 48.5076 122.931C48.331 122.674 48.1102 122.514 47.8718 122.425C47.3332 122.923 46.6533 123.322 45.7527 123.544C46.6533 123.313 47.3332 122.923 47.8718 122.425C47.7747 122.39 47.6864 122.363 47.5893 122.345C47.757 121.28 46.4061 120.241 45.3906 121.058L45.7615 124.485C45.8674 124.379 45.9734 124.272 46.0882 124.166C50.7327 130.905 57.7789 135.54 64.781 139.509C61.7612 143.425 58.7502 147.332 55.7304 151.248C55.1565 152.145 54.141 152.908 53.9556 153.983H57.0372C60.0571 150.067 63.068 146.151 66.0879 142.235C66.7501 141.134 68.675 139.829 67.4918 138.479H67.483Z" fill="var(--fill-0, #323232)"/>
<path id="Vector_38" d="M66.75 133.942C66.9354 133.729 67.0679 133.462 67.112 133.178C66.9884 133.436 66.8648 133.684 66.75 133.942Z" fill="var(--fill-0, #323232)"/>
<path id="Vector_39" d="M49.0938 120.8C49.235 120.552 49.3586 120.303 49.4823 120.045C49.2703 120.259 49.1379 120.525 49.0938 120.8Z" fill="var(--fill-0, #323232)"/>
<path id="Vector_40" d="M66.4858 131.855C60.9848 128.596 56.2608 124.103 51.4397 119.93C50.7774 119.353 49.9651 119.557 49.4794 120.045C49.3558 120.303 49.2234 120.551 49.0909 120.8C49.0379 121.164 49.1439 121.546 49.5147 121.865C54.5036 126.181 59.413 130.834 65.1083 134.217C65.7529 134.599 66.371 134.385 66.7507 133.95C66.8655 133.693 66.9891 133.444 67.1127 133.187C67.1922 132.698 67.0332 132.183 66.4769 131.855H66.4858Z" fill="var(--fill-0, #323232)"/>
<path id="Vector_41" d="M35.1713 94.1528C34.1117 97.7312 33.0609 101.301 32.0013 104.879C31.498 106.566 34.1205 107.294 34.6238 105.607C35.6834 102.029 36.7342 98.4593 37.7937 94.8809C38.297 93.1938 35.6746 92.4657 35.1713 94.1528Z" fill="var(--fill-0, #323232)"/>
<path id="Vector_42" d="M97.5505 128.96C98.6454 124.813 99.705 120.666 100.685 116.493C101.038 114.993 101.771 113.075 101.339 111.547C100.844 109.78 99.3165 108.946 97.6653 108.644C94.7073 108.093 91.7581 107.543 88.8001 106.992C87.0871 106.672 86.3542 109.31 88.0761 109.629L95.7316 111.059C96.5439 111.21 98.2039 111.245 98.6366 112.089C98.9192 112.639 98.6101 113.368 98.4865 113.927C95.3519 127.415 91.6787 140.778 87.5551 153.982H90.4072C93.0296 145.715 95.3342 137.342 97.5417 128.96H97.5505Z" fill="var(--fill-0, #323232)"/>
<path id="Vector_43" d="M108.685 153.228C108.667 153.388 108.667 153.334 108.685 153.228Z" fill="var(--fill-0, #323232)"/>
<path id="Vector_44" d="M37.0234 17.3458C37.4561 17.3458 37.8888 17.3103 38.3567 17.2215C38.2861 16.9462 38.136 16.7065 37.9241 16.52C37.5709 16.7864 37.2442 16.9995 37.0234 17.3369V17.3458Z" fill="var(--fill-0, #323232)"/>
<path id="Vector_45" d="M125.805 143.505C125.646 136.117 125.496 128.729 125.337 121.342C125.24 116.867 125.337 112.347 125.054 107.881C125.028 107.401 124.842 107.028 124.595 106.62C116.975 93.1052 100.287 91.5513 87.9689 84.5011C83.3773 81.8284 81.6467 76.7848 81.5319 71.6525C81.6997 70.7113 81.373 69.6636 80.8078 68.9088C81.0904 68.82 81.3465 68.6424 81.5407 68.3139C84.331 63.5368 84.8961 57.7829 84.4546 52.3487C88.1985 50.484 90.556 46.5061 90.4324 42.3061C90.4147 39.7399 90.1145 36.4901 88.0483 34.6964C88.428 34.4567 88.6576 34.0127 88.7106 33.5243C88.8695 32.1924 89.1609 30.3011 89.3287 28.7206C89.8673 24.9202 89.5582 20.9067 87.2801 17.6835C86.2647 16.0408 84.9226 14.8065 83.1213 14.3537C83.1654 14.1583 83.1654 13.9452 83.1124 13.7144C82.044 9.33682 79.8984 4.87934 75.9426 2.46414C71.6778 0.0933338 66.1414 -0.883377 61.5234 0.963541C60.1636 1.70941 60.8612 4.10684 62.4329 3.50304C64.2871 2.79269 66.2121 2.60623 68.1811 2.81934C75.2627 3.45865 78.9447 7.71188 80.4811 14.4336C80.5606 14.7533 80.7107 14.9841 80.905 15.1351C80.7637 15.8898 81.1875 16.8222 82.1765 16.911C83.8188 17.0619 84.7813 18.6868 85.4612 20.0099C88.0307 24.2631 86.2294 29.28 86.0086 33.8618C85.3022 33.4089 84.2162 33.7019 83.9689 34.5721C83.5098 34.8918 83.3508 35.3535 83.395 35.8064L82.9447 36.7831C82.7946 35.7176 83.0595 34.0216 81.682 33.7463C81.0109 27.7261 71.0067 27.4064 71.404 21.4128C71.4835 20.7025 70.7683 20.0898 70.106 20.0543C70.9979 16.6623 65.1171 18.6513 64.0841 20.2052C63.0156 21.4306 62.5212 23.0111 62.1945 24.5828C61.1172 31.8017 60.0311 35.8419 51.8988 36.6321C51.0335 36.7209 50.592 37.449 50.6008 38.1416C51.7575 38.0262 52.9319 37.6177 53.8767 36.9873C52.9319 37.6266 51.7575 38.0262 50.6008 38.1416C50.6008 38.8165 51.0335 39.4469 51.8988 39.367C54.5566 39.1095 57.3027 38.5412 59.5278 36.9696C61.2408 35.762 62.4593 34.1193 63.2364 32.1747C64.4372 29.3066 64.3578 26.1012 65.3997 23.1887C65.5586 22.8335 65.7441 22.4961 65.9648 22.1764C66.1061 22.0166 66.3445 21.7946 66.4681 21.6526C66.6535 21.5549 66.9273 21.3773 67.1304 21.2885C67.51 21.1464 68.084 20.9866 68.4019 20.9689C68.3665 20.6048 68.3577 20.1786 68.3577 19.6724C68.3577 20.1786 68.3577 20.6048 68.4019 20.9689C68.5166 20.96 68.6403 20.9511 68.7904 20.9422C68.6756 21.2086 68.6579 21.5194 68.6491 21.8124C68.4813 25.2043 71.3334 27.7527 73.9559 29.4132C75.7307 30.5231 77.9558 31.4643 78.8035 33.5332C78.9006 33.7818 78.9889 34.0393 79.0419 34.3057C79.139 34.8119 79.5893 35.1581 80.0838 35.2647C80.2427 37.2182 80.4105 39.1716 80.5694 41.1251C80.6136 41.9509 80.6489 43.0697 81.6379 43.3006C82.1853 43.4249 82.9093 43.2296 83.1742 42.6702C84.119 40.6545 85.055 38.6389 85.9998 36.6232C86.0086 36.6232 86.0086 36.6232 85.9998 36.6232C86.1234 36.6055 86.0881 36.5877 86.2735 36.7387C86.5914 37.0228 86.8828 37.5822 87.0329 38.0085C88.4015 41.871 87.8099 46.8612 84.2427 49.2231C84.2073 48.3707 84.1897 47.5272 84.2162 46.6747C84.2692 44.9166 81.5495 44.9166 81.4966 46.6747C81.3906 50.2354 81.991 53.7783 81.8144 57.33C81.6467 60.6421 80.8608 64.0695 79.1655 66.9376C79.0507 67.124 78.9889 67.3194 78.9712 67.497C77.0551 66.6179 75.1567 67.9765 73.6998 69.1574C71.0861 71.0931 68.5343 73.1265 65.9913 75.151C63.4483 75.3197 61.2055 74.5029 58.8833 73.606C58.0179 70.9866 55.5721 68.5891 52.7288 69.5037C49.709 66.982 48.0931 63.368 47.0424 59.6565C46.0181 56.6286 45.1616 53.6007 44.5524 50.4663C44.2168 48.7437 41.5944 49.4718 41.9299 51.1944C42.1065 52.1178 42.3184 53.0324 42.5392 53.9292C39.2456 52.0202 37.3913 48.1399 37.8417 44.3217C37.8946 43.6558 38.1595 42.6879 38.6982 42.1818C38.8218 42.1196 38.9366 42.0397 39.0425 41.942C39.2898 41.8266 39.5723 41.8 39.9078 41.9065C40.7555 42.1729 41.3559 41.6312 41.5237 40.9564C40.7379 40.4947 39.899 40.2727 39.3604 39.7399C39.8902 40.2727 40.729 40.5036 41.5237 40.9564C41.9829 39.2782 39.846 38.8431 38.6275 39.216C36.4289 36.4901 34.6806 33.1692 34.2832 29.6707C33.7887 25.3109 36.2258 21.8568 38.1772 18.1896C38.3626 17.8522 38.3803 17.5236 38.3096 17.2217C37.8505 17.3105 37.409 17.3372 36.9763 17.346C36.7644 17.6657 36.6408 18.0919 36.6408 18.7756C36.6408 18.0919 36.7732 17.6657 36.9763 17.346C36.4995 17.346 36.0404 17.3283 35.5812 17.275C33.3826 21.3329 31.0162 25.1777 31.6078 30.017C32.0934 33.9683 33.9389 37.6266 36.3759 40.7344C34.6629 42.8122 34.8748 45.9733 35.4134 48.4506C36.3671 52.6417 39.5547 55.936 43.5016 57.4277C45.0115 62.4535 46.5214 67.7811 50.6803 71.2974C49.6031 74.6272 51.6428 78.0635 52.1107 81.3311C52.5257 84.0837 51.5809 86.863 51.0953 89.5535C50.6008 89.0207 49.7885 88.9852 49.1616 88.6655C49.1439 88.6566 49.1174 88.6478 49.0998 88.6389C48.9408 88.5412 48.7731 88.4879 48.5965 88.479C48.4199 88.4347 48.2344 88.4435 48.0578 88.5057C47.8812 88.5501 47.7311 88.63 47.5987 88.7543C47.4574 88.8431 47.3514 88.9674 47.2631 89.1184C47.0689 89.4291 46.9982 89.8376 47.1042 90.1928C47.1484 90.2993 47.1925 90.4147 47.2455 90.5213C47.3691 90.7255 47.528 90.8942 47.7311 91.0097C48.5611 91.3116 49.4088 91.8798 50.3094 91.8177C50.486 91.8177 50.6626 91.7555 50.8127 91.6579C50.8127 91.6579 50.8216 91.649 50.8304 91.6401C50.2918 96.2752 52.1549 100.662 53.1615 105.092C53.5677 108.955 51.581 113.324 50.5655 117.097C50.4684 117.408 50.4772 117.683 50.5655 117.914C50.9275 118.962 52.7553 119.193 53.188 117.826C54.2476 114.469 55.4131 111.051 55.8899 107.552C56.4462 103.45 54.1151 99.6049 53.6118 95.6536C52.7818 90.4236 55.7045 85.4423 54.6714 80.239C54.5919 78.8626 51.4838 71.4927 54.1504 72.0255C55.263 72.1587 55.7486 73.3485 56.146 74.2453C57.0996 76.4741 57.8148 78.8005 58.4859 81.1269C57.7884 81.6863 57.082 82.2457 56.3844 82.814C55.0246 83.915 56.9583 85.8419 58.3093 84.7497C64.0841 80.1413 69.7882 75.4352 75.7218 71.0488C76.6225 70.3118 77.9911 69.2551 78.7593 70.7202C78.7593 70.9511 78.777 71.1819 78.7858 71.4128C78.5915 72.0433 77.894 72.6559 77.4525 73.1088C75.4216 75.1866 73.2053 77.1045 70.9714 78.9603C70.5652 79.2977 70.4945 79.7683 70.6182 80.2034C69.5056 80.5497 69.3996 82.0859 70.3621 82.663C70.627 82.8406 70.8477 83.2224 70.989 83.6575C71.563 85.611 71.7837 88.0173 73.7616 89.0917C74.936 89.731 76.4812 89.589 77.4525 90.4148C78.6269 91.4181 79.5717 92.7767 79.8189 94.3306C79.9337 95.0587 80.8343 95.4671 81.4877 95.2895C84.0043 94.3039 81.0109 90.0152 79.8012 88.8875C78.6622 87.5822 77.0198 87.1915 75.404 86.8364C74.8742 86.6765 74.6887 86.4723 74.415 85.8951C73.8676 84.43 73.7086 82.3256 72.5961 81.1091C73.223 80.6385 74.83 79.4842 75.6335 79.9992C76.7108 80.6918 75.1214 83.4267 75.3951 84.5011C75.6953 85.6554 76.7373 85.753 77.6732 85.4068C77.1434 85.6021 78.0706 85.3535 77.7527 85.4068C79.2714 85.1936 80.799 85.7619 80.2339 87.6888C79.8189 89.3403 82.2648 90.0685 82.8034 88.559C82.9182 89.296 83.5451 89.9264 84.278 89.7488C84.5605 90.3526 84.9755 91.2938 84.9491 91.9065C84.1897 94.8367 82.8034 97.7935 81.1875 100.36C77.5231 106.043 75.0331 112.436 72.1634 118.536C70.6005 121.857 68.9581 125.16 66.9096 128.206C66.1149 129.387 67.5012 130.505 68.5785 130.123C68.8522 129.475 69.0994 128.809 69.2672 128.108C69.0906 128.809 68.8522 129.475 68.5785 130.123C68.8345 130.035 69.0641 129.857 69.2584 129.582C74.9625 121.146 77.7527 111.077 83.1213 102.455C82.2383 119.708 79.8277 136.845 77.7615 153.991H80.4723C82.6003 135.886 85.3729 117.808 85.991 99.5694C86.0086 99.0189 85.7614 98.646 85.4082 98.4329C87.0241 95.0409 88.9313 91.0896 86.1764 87.7687C86.1764 87.3869 86.1587 87.0051 86.1499 86.6144C87.6598 87.6 89.311 88.408 90.9799 89.1361C90.6796 89.4735 90.556 89.9441 90.6355 90.4148C91.5361 95.476 92.4456 100.546 93.3463 105.607C93.8672 107.312 96.3396 106.673 95.9687 104.879C95.0946 99.9601 94.2116 95.0409 93.3374 90.1306C103.836 94.5082 116.083 97.5893 122.317 108.058C122.679 123.366 122.909 138.683 123.262 153.991H125.999C125.929 150.502 125.849 147.012 125.778 143.514L125.805 143.505ZM61.5234 78.7028C61.285 78.8982 61.0466 79.0846 60.8082 79.28C60.5698 78.4808 60.3225 77.6906 60.0576 76.9003C60.9759 77.2022 61.9119 77.4686 62.8655 77.6462C62.424 78.0013 61.9737 78.3476 61.5322 78.7028H61.5234ZM78.1236 83.8706C78.1677 84.0926 78.0353 84.1548 78.1236 83.8706ZM80.6577 83.0715C79.9513 82.7785 79.1743 82.6364 78.4149 82.6364C78.98 80.8072 78.7593 78.3832 76.8079 77.5219C77.6203 76.7849 78.4149 76.039 79.1743 75.2576C79.7218 78.7206 80.9844 82.1747 83.6422 84.6076C83.2184 85.3624 83.5363 86.2947 83.4745 87.1205C83.2979 87.2271 83.1478 87.3869 83.0506 87.5378C83.2714 85.6465 82.5915 83.8706 80.6666 83.0715H80.6577Z" fill="var(--fill-0, #323232)"/>
<path id="Vector_46" d="M37.0201 17.3464C37.2497 17.0001 37.5676 16.787 37.9208 16.5295C37.0554 15.7659 36.0488 16.1477 35.625 17.2843C36.0842 17.3375 36.5521 17.3553 37.0201 17.3553V17.3464Z" fill="var(--fill-0, #323232)"/>
<path id="Vector_47" d="M45.0853 88.1147C45.1383 87.2534 45.1825 86.179 44.2288 85.9392C47.3899 83.2932 48.7321 79.111 48.6614 75.0708C48.6614 73.3127 45.9507 73.3127 45.9418 75.0708C46.2067 83.2843 40.0965 86.1879 33.3681 88.5054C23.0636 92.661 5.58932 96.5501 1.25385 107.925C0.0883038 111.823 0.732882 115.898 0.485646 119.903C0.326708 131.26 0.167768 142.625 0 153.982H2.7196C2.90503 140.672 3.09929 127.362 3.28471 114.051C1.48342 97.4647 31.814 94.2859 42.3834 87.3688C42.0567 97.6334 42.9309 107.863 44.0522 118.056C44.1229 118.784 44.6438 119.202 45.209 119.326C45.9948 119.495 46.869 119.077 46.7719 118.056C46.1803 112.009 45.4562 105.953 45.2178 99.871C45.0589 95.9552 45.0147 92.0394 45.0942 88.1236L45.0853 88.1147Z" fill="var(--fill-0, #323232)"/>
<path id="Vector_48" d="M11.5939 123.704C9.94274 118.829 8.68006 113.848 7.69111 108.796C7.35558 107.073 4.73311 107.801 5.06865 109.524C6.05759 114.576 7.32026 119.557 8.97145 124.432C10.446 128.783 12.1061 133.054 13.563 137.414C14.1193 139.074 16.7417 138.364 16.1855 136.686C14.7285 132.335 13.0685 128.055 11.5939 123.704Z" fill="var(--fill-0, #323232)"/>
<path id="Vector_49" d="M111.336 153.725C112.096 148.281 112.175 142.696 112.166 137.164C112.37 137.058 112.546 136.898 112.687 136.658C113.915 134.581 114.86 132.316 115.76 130.088C118.109 124.263 119.769 118.171 120.917 111.991C121.235 110.269 118.612 109.532 118.294 111.263C116.979 118.349 114.992 125.328 112.061 131.917C111.61 130.656 109.42 130.807 109.429 132.396C109.429 139.349 109.412 146.328 108.688 153.245C108.688 153.192 108.705 153.121 108.723 153.014C108.67 153.369 108.723 153.707 108.855 154H111.266C111.301 153.92 111.328 153.831 111.345 153.742L111.336 153.725Z" fill="var(--fill-0, #323232)"/>
<path id="Vector_50" d="M71.7956 40.2368C70.0473 40.2368 70.0473 42.9717 71.7956 42.9717C73.5439 42.9717 73.5439 40.2368 71.7956 40.2368Z" fill="var(--fill-0, #323232)"/>
<path id="Vector_51" d="M54.7253 44.9341C56.4736 44.9341 56.4736 42.1992 54.7253 42.1992C52.977 42.1992 52.977 44.9341 54.7253 44.9341Z" fill="var(--fill-0, #323232)"/>
<path id="Vector_52" d="M64.8771 42.9722C64.7093 42.2796 63.8881 41.8001 63.2082 42.0221C62.4842 42.253 62.078 42.9544 62.2635 43.7003C62.8551 46.1865 63.4467 48.6639 64.0383 51.1501C64.5592 52.8727 67.0581 52.1801 66.6607 50.422C66.0691 47.9358 65.4775 45.4584 64.8859 42.9722H64.8771Z" fill="var(--fill-0, #323232)"/>
<path id="Vector_53" d="M45.9233 35.7091C44.8284 36.2241 43.6894 36.6059 42.5503 36.819C41.6143 36.9966 41.2435 38.3462 41.8792 39.0122C41.4907 39.6338 41.7998 40.4684 41.8792 41.161C42.3207 41.4629 42.7269 41.8625 43.0271 42.4663C42.7269 41.8536 42.3207 41.4629 41.8792 41.161C42.1353 42.6972 42.3914 44.2333 42.6386 45.7606C42.7534 46.4709 43.6629 46.9238 44.3075 46.7107C45.0668 46.462 45.3847 45.7872 45.2523 45.0324C44.9167 43.0967 44.643 41.1433 44.2721 39.2164C45.5083 38.8968 46.7268 38.3995 47.8924 37.778C47.0182 37.3873 46.303 36.7213 45.9145 35.7002L45.9233 35.7091Z" fill="var(--fill-0, #323232)"/>
<path id="Vector_54" d="M54.7252 30.905C55.467 29.3689 55.8908 27.7617 56.0232 26.0569C56.0762 25.3199 55.361 24.6895 54.6634 24.6895C53.8776 24.6895 53.3566 25.3199 53.3036 26.0569C52.9769 30.3456 49.754 33.8974 45.9219 35.7088C46.3104 36.721 47.0256 37.3959 47.8998 37.7866C50.8136 36.2149 53.339 33.7731 54.7252 30.905Z" fill="var(--fill-0, #323232)"/>
<path id="Vector_55" d="M57.5455 0.874947C56.9539 0.688479 56.3535 0.599671 55.7531 0.555274C53.4132 0.386565 51.0291 1.16796 48.9276 2.11806C46.5877 3.18359 44.1153 4.63981 42.3405 6.53113C40.9012 8.05839 39.8152 9.87867 38.2258 11.2727C36.1861 13.0664 33.8638 13.1729 31.4886 11.9209C29.9434 11.104 28.5659 13.4571 30.12 14.2829C30.4996 14.4871 30.8793 14.6558 31.2678 14.8067C36.4157 17 40.3096 13.7945 43.2235 9.71884C45.9431 6.3269 52.3712 2.22462 56.8303 3.51213C58.4992 4.0449 59.2144 1.39883 57.5544 0.874947H57.5455Z" fill="var(--fill-0, #323232)"/>
<path id="Vector_56" d="M66.0781 64.4689C66.0781 64.4689 66.1582 64.5134 66.2027 64.5401C66.2027 64.5401 66.2117 64.5401 66.2206 64.5401C66.1404 64.4778 66.087 64.46 66.0781 64.4689Z" fill="var(--fill-0, #323232)"/>
<path id="Vector_57" d="M66.8438 64.6285C66.8438 64.6285 66.915 64.6285 66.9506 64.6285C66.9595 64.6285 66.9773 64.6285 66.9862 64.6196C66.8794 64.6196 66.8438 64.6196 66.8438 64.6374V64.6285Z" fill="var(--fill-0, #323232)"/>
<path id="Vector_58" d="M65.9439 62.2583C65.9439 62.2583 65.8637 62.3028 65.8281 62.3384C65.9171 62.2939 65.9528 62.2583 65.9439 62.2583Z" fill="var(--fill-0, #323232)"/>
<path id="Vector_59" d="M68.0798 59.4964C64.6185 58.2266 61.2454 62.2135 63.2322 65.4101C65.2719 68.7221 70.5433 67.55 70.8347 63.6164C71.0113 61.7695 69.7839 60.1179 68.0886 59.4964H68.0798ZM68.1063 63.5898C68.0886 63.6697 68.0798 63.7408 68.0444 63.8118C67.9915 63.9183 67.9208 64.016 67.859 64.1137C67.7972 64.1847 67.7266 64.2469 67.6559 64.3179C67.5411 64.3978 67.4352 64.4689 67.3116 64.531C67.2056 64.5665 67.0908 64.5932 66.9849 64.6198C67.0114 64.6198 67.0202 64.6198 67.0555 64.6198C67.0202 64.6198 66.9849 64.6198 66.9495 64.6198C66.9142 64.6287 66.8436 64.6375 66.8436 64.6198C66.7465 64.6198 66.6405 64.6198 66.5434 64.6198C66.4374 64.5932 66.3226 64.5754 66.2255 64.531C66.2432 64.5399 66.252 64.5488 66.2696 64.5577C66.252 64.5488 66.2343 64.5399 66.2167 64.5221C66.1637 64.5133 66.0754 64.46 66.093 64.4511C66.0136 64.4156 65.9518 64.3801 65.8811 64.3357C65.8017 64.2469 65.7134 64.167 65.6251 64.087C65.5809 64.0249 65.5368 63.9538 65.5014 63.8828C65.5014 63.9272 65.4485 63.8118 65.4485 63.7763C65.4308 63.7496 65.422 63.723 65.4043 63.6964C65.422 63.723 65.4308 63.7319 65.4396 63.7585C65.4043 63.6697 65.3867 63.5809 65.369 63.4832C65.369 63.3767 65.3602 63.2613 65.369 63.1458C65.3778 63.0659 65.4043 63.0038 65.4308 62.9238C65.4043 62.9505 65.4308 62.8439 65.4661 62.7995C65.4661 62.7729 65.4838 62.7551 65.4838 62.7285C65.4838 62.7551 65.4838 62.764 65.475 62.7818C65.5191 62.7019 65.5632 62.613 65.6162 62.542C65.6869 62.471 65.7575 62.3911 65.8282 62.32C65.8017 62.3289 65.7928 62.3378 65.7663 62.3556C65.8017 62.3378 65.8458 62.2934 65.8811 62.2756C65.9076 62.2579 65.9341 62.2401 65.9429 62.2401C65.9959 62.2135 66.0489 62.178 66.1019 62.1513C66.0224 62.1602 66.1549 62.098 66.199 62.098C66.2167 62.0892 66.2432 62.0803 66.2608 62.0625C66.2432 62.0803 66.2343 62.0803 66.2167 62.0892C66.305 62.0537 66.4021 62.027 66.4904 62.0093C66.4727 62.0093 66.4639 62.0093 66.4374 62.0093C66.4639 62.0093 66.4992 62.0093 66.5257 62.0093C66.5699 62.0093 66.6052 62.0093 66.6228 62.0093C66.7288 61.9915 66.8348 62.0004 66.9407 62.0093C67.0643 62.0359 67.1791 62.0714 67.3027 62.1069C67.4087 62.1602 67.5058 62.2046 67.5941 62.2668C67.5853 62.2579 67.5765 62.249 67.5676 62.2401C67.5765 62.249 67.5941 62.2668 67.603 62.2756C67.6736 62.32 67.7266 62.3822 67.6913 62.3644C67.7531 62.4177 67.8149 62.4799 67.8678 62.5332C67.9297 62.6131 67.9738 62.7018 68.0268 62.7906C68.0268 62.7729 68.0268 62.764 68.018 62.7374C68.018 62.7551 68.0268 62.7729 68.0356 62.7995C68.0798 62.8794 68.0886 62.9505 68.0709 62.915C68.0974 62.9949 68.1151 63.0659 68.1416 63.1369C68.1416 63.1991 68.1504 63.2613 68.1504 63.3145C68.1504 63.3589 68.1504 63.4033 68.1504 63.4477C68.1504 63.43 68.1504 63.4211 68.1681 63.3945C68.1681 63.4122 68.1592 63.4388 68.1504 63.4566C68.1504 63.5099 68.1327 63.6786 68.1151 63.572L68.1063 63.5898Z" fill="var(--fill-0, #323232)"/>
<path id="Vector_60" d="M68.1294 63.457C68.1116 63.5193 68.0938 63.5639 68.0938 63.5906C68.0938 63.5461 68.1116 63.5105 68.1294 63.4749C68.1294 63.4749 68.1294 63.4748 68.1294 63.4659V63.457Z" fill="var(--fill-0, #323232)"/>
<path id="Vector_61" d="M65.4653 62.8088C65.4653 62.8088 65.4475 62.8889 65.4297 62.9334C65.4386 62.9245 65.4564 62.88 65.4742 62.791C65.4742 62.791 65.4742 62.791 65.4742 62.7999L65.4653 62.8088Z" fill="var(--fill-0, #323232)"/>
<path id="Vector_62" d="M65.4464 63.7854C65.4464 63.7854 65.482 63.8566 65.4998 63.8922C65.4998 63.8744 65.4731 63.8299 65.4375 63.7676C65.4375 63.7676 65.4375 63.7765 65.4375 63.7854H65.4464Z" fill="var(--fill-0, #323232)"/>
<path id="Vector_63" d="M66.6335 62.0181C66.6335 62.0181 66.5623 62.0181 66.5356 62.0181C66.5267 62.0181 66.5089 62.0181 66.5 62.0181C66.6335 62.027 66.6691 62.0181 66.6335 62.0181Z" fill="var(--fill-0, #323232)"/>
<path id="Vector_64" d="M66.2073 62.1071C66.2073 62.1071 66.145 62.1427 66.1094 62.1605C66.1272 62.1605 66.1717 62.1338 66.2251 62.0981C66.2251 62.0981 66.2251 62.0981 66.2162 62.0981L66.2073 62.1071Z" fill="var(--fill-0, #323232)"/>
<path id="Vector_65" d="M67.6984 62.3737C67.6984 62.3737 67.6361 62.3114 67.6094 62.2847C67.6628 62.347 67.6895 62.3737 67.7073 62.3826L67.6984 62.3737Z" fill="var(--fill-0, #323232)"/>
<path id="Vector_66" d="M68.0234 62.7998C68.0412 62.871 68.0501 62.9066 68.059 62.9244C68.0501 62.8888 68.0323 62.8443 68.0234 62.8087V62.7998Z" fill="var(--fill-0, #323232)"/>
</g>
</svg>
