<svg preserveAspectRatio="none" width="100%" height="100%" overflow="visible" style="display: block;" viewBox="0 0 28 33.9541" fill="none" xmlns="http://www.w3.org/2000/svg">
<g id="Group">
<path id="Vector" d="M12.3278 31.3522C11.6463 31.3707 10.9648 31.3892 10.2833 31.4077C8.57708 31.454 8.56742 33.9998 10.2833 33.9535C15.078 33.8239 19.8727 33.6943 24.6722 33.56C25.3537 33.5415 26.0352 33.523 26.7167 33.5045C28.4229 33.4582 28.4326 30.9125 26.7167 30.9588C21.922 31.0884 17.1273 31.218 12.3278 31.3522Z" fill="var(--fill-0, #BDA6DA)"/>
<path id="Vector_2" d="M5.98692 20.2354C5.31368 20.5166 4.84046 21.1544 5.05023 21.9327C5.22586 22.5905 6.02594 23.1781 6.69918 22.8969L21.8665 16.6048C22.5837 16.3085 23.2959 16.0123 24.0131 15.716C24.6863 15.4398 25.1595 14.797 24.9498 14.0187C24.7741 13.3609 23.9741 12.7733 23.3008 13.0546C18.2467 15.1536 13.1876 17.2526 8.13347 19.3466C7.41632 19.6429 6.70406 19.9391 5.98692 20.2354Z" fill="var(--fill-0, #BDA6DA)"/>
<path id="Vector_3" d="M2.24785 12.5948C5.27448 9.56543 8.30111 6.54077 11.3277 3.5114C11.7594 3.082 12.1863 2.6526 12.618 2.22321C13.8076 1.02939 11.9465 -0.806169 10.7522 0.38765C7.72553 3.41702 4.69889 6.44168 1.67226 9.47105C1.24057 9.90045 0.813673 10.3298 0.381983 10.7592C-0.807564 11.9531 1.05351 13.7886 2.24785 12.5948Z" fill="var(--fill-0, #BDA6DA)"/>
</g>
</svg>
