<svg preserveAspectRatio="none" width="100%" height="100%" overflow="visible" style="display: block;" viewBox="0 0 163 193.738" fill="none" xmlns="http://www.w3.org/2000/svg">
<g id="Group">
<path id="Vector" d="M48.8081 147.553C48.7447 147.582 48.6618 147.612 48.8081 147.553Z" fill="var(--fill-0, #BDA6DA)"/>
<path id="Vector_2" d="M121.675 143.696C120.763 143.349 120.31 142.211 121.085 141.45C121.153 141.381 121.222 141.308 121.29 141.235C121.08 141.235 120.861 141.196 120.631 141.083C120.617 141.074 120.612 141.074 120.597 141.064C120.544 141.054 120.49 141.025 120.441 141.01C120.266 140.956 120.09 140.908 119.914 140.864C119.466 140.756 119.012 140.678 118.554 140.615C118.5 140.61 118.3 140.58 118.29 140.58C118.193 140.571 118.09 140.556 117.993 140.546C117.681 140.512 117.369 140.483 117.056 140.458C116.442 140.405 115.827 140.37 115.213 140.341C113.077 140.243 110.916 140.234 108.789 140.439C108.658 140.453 108.521 140.468 108.39 140.483C108.37 140.483 108.229 140.502 108.165 140.512C108.009 140.536 107.858 140.561 107.707 140.585C107.029 140.698 106.346 140.781 105.663 140.839C104.215 140.961 102.766 140.995 101.318 141.113C100.547 141.176 99.6934 141.288 98.8594 141.308C99.9811 141.674 101.098 142.045 102.22 142.412C109.521 144.814 116.827 147.217 124.128 149.614C126.787 150.488 129.445 151.362 132.103 152.236C132.425 152.344 132.751 152.451 133.073 152.554C133.112 152.568 133.254 152.593 133.361 152.632C133.454 152.407 133.556 152.183 133.649 151.958C133.937 151.274 134.219 150.596 134.507 149.912C134.736 149.37 135.166 148.96 135.731 148.931C134.585 148.511 133.439 148.091 132.293 147.666C128.752 146.357 125.211 145.029 121.68 143.691L121.675 143.696Z" fill="var(--fill-0, #DCDCDC)"/>
<path id="Vector_3" d="M99.4141 144.321C99.4921 144.438 99.5653 144.565 99.6091 144.721C100.199 146.728 100.258 148.926 100.35 151.001C100.468 153.706 100.487 156.411 100.57 159.122C100.609 160.318 100.658 161.519 100.736 162.716C100.775 163.292 100.819 163.868 100.872 164.439C100.897 164.713 100.926 164.986 100.96 165.26C100.975 165.382 100.989 165.499 101.004 165.621C101.009 165.675 101.014 165.704 101.019 165.728C101.019 165.753 101.028 165.777 101.033 165.826C101.16 166.7 101.316 167.574 101.57 168.419C101.633 168.624 101.701 168.824 101.775 169.029C101.784 169.059 101.819 169.137 101.838 169.186C101.862 169.235 101.882 169.283 101.906 169.332C102.14 169.806 102.438 170.245 102.784 170.641C103.774 171.774 105.023 172.599 106.325 173.336C106.857 173.639 107.398 173.927 107.954 174.186C107.974 174.196 107.983 174.201 107.998 174.206C108.003 174.206 108.008 174.206 108.018 174.21C108.11 174.25 108.203 174.284 108.3 174.323C108.496 174.396 108.691 174.464 108.886 174.528C110.91 175.187 112.729 175.407 114.777 175.544C119.265 175.846 123.791 175.544 128.253 175.05C129.165 174.948 130.077 174.835 130.985 174.718C131.097 174.704 131.37 174.665 131.438 174.655C131.609 174.63 131.775 174.606 131.945 174.582C132.248 174.538 132.55 174.494 132.853 174.445C133.018 174.42 133.189 174.391 133.355 174.362C131.394 168.878 129.487 163.375 127.668 157.842C127.312 156.753 128.317 156.084 129.199 156.221L128.365 153.843C122.64 151.958 116.914 150.078 111.188 148.193C107.266 146.904 103.34 145.615 99.4189 144.321H99.4141Z" fill="var(--fill-0, #BDA6DA)"/>
<path id="Vector_4" d="M91.0156 122.219C91.0595 122.161 91.04 122.185 91.0156 122.219Z" fill="var(--fill-0, #BDA6DA)"/>
<path id="Vector_5" d="M101.847 111.125C101.73 111.379 101.657 111.633 101.594 111.887C101.75 111.936 101.911 111.98 102.072 112.009C102.238 112.038 102.399 112.058 102.564 112.077C102.213 111.877 101.93 111.53 101.847 111.125Z" fill="var(--fill-0, #BDA6DA)"/>
<path id="Vector_6" d="M80.0525 143.661C80.0525 143.627 80.0427 143.593 80.0379 143.559C79.7062 141.044 79.3843 138.524 79.0673 136.004C78.3942 130.687 77.7407 125.369 77.1018 120.046C76.3214 113.522 75.5703 106.994 74.8728 100.465C74.2242 94.4097 73.6145 88.3497 73.1365 82.275C72.9024 79.2573 72.6196 76.1955 72.5805 73.1533C71.2929 74.0665 69.9371 74.8673 68.508 75.5607C68.508 75.5656 68.508 75.5705 68.508 75.5754C67.8593 78.4125 67.2692 81.2642 66.6352 84.1062C67.7667 83.7497 68.9031 83.3982 70.0346 83.0417C71.688 82.5241 72.3903 85.117 70.7467 85.6298C69.4152 86.0448 68.0788 86.4648 66.7473 86.8798C66.0694 87.0947 65.3719 87.2754 64.7038 87.5195C64.338 87.6514 64.2014 87.8174 64.3038 88.2227C64.4111 88.6524 64.6257 89.0821 64.7818 89.4972C65.1622 90.5178 65.5475 91.5384 65.928 92.5589C67.0497 95.5572 68.1715 98.5506 69.2981 101.549C70.9174 105.866 72.5366 110.187 74.151 114.504C74.4046 115.187 73.8633 115.979 73.2146 116.154C72.4732 116.359 71.8197 115.896 71.5661 115.217C70.9125 113.469 70.259 111.72 69.6005 109.977C67.3229 103.902 65.05 97.8327 62.7724 91.7581C62.0457 89.8195 60.6849 87.4609 62.5822 85.6835C62.9431 85.3465 63.3625 85.1561 63.8015 84.9998C63.7722 84.8192 63.7771 84.6287 63.8161 84.4432C64.3916 81.9283 64.9232 79.3989 65.4744 76.8792C63.782 77.5726 62.0749 78.2367 60.402 78.9838C58.8413 79.6821 57.3001 80.4292 55.7881 81.23C54.52 81.899 53.1788 82.5973 52.0278 83.4372C52.574 83.4177 53.1105 83.7009 53.2812 84.3894C53.5153 85.327 53.7104 86.2695 53.8811 87.2217C54.7103 91.8411 55.1102 96.5241 55.6662 101.178C55.9247 103.321 56.2076 105.465 56.6075 107.584C57.0172 109.733 57.6122 111.838 58.2365 113.937C59.6802 118.796 61.2604 123.635 61.8847 128.689C62.192 131.175 62.2066 133.67 61.7969 136.146C61.5921 137.372 61.2116 138.529 60.8312 139.706C59.6314 143.402 58.5243 147.133 57.383 150.844C55.6272 156.538 53.8762 162.227 52.1058 167.916C51.4376 170.059 50.7694 172.208 50.0866 174.347C49.9988 174.63 49.911 174.918 49.8281 175.216C50.2622 175.187 50.7012 175.157 51.1304 175.113C53.0715 174.933 55.0127 174.747 56.9538 174.567C61.1239 174.176 65.289 173.785 69.4591 173.395C70.5077 173.297 71.5612 173.199 72.6098 173.097C74.7558 172.892 76.7311 171.9 78.1894 170.308C79.1258 169.288 79.7891 168.033 80.1403 166.695C80.4476 165.518 80.4037 164.39 80.3207 163.189C80.2281 161.841 80.2232 160.479 80.1695 159.126C80.0476 155.805 79.9257 152.48 79.8038 149.159C79.7696 148.173 80.6231 147.753 81.3791 147.895L81.3255 145.004C80.5744 144.97 80.1403 144.364 80.0476 143.666L80.0525 143.661Z" fill="var(--fill-0, #BDA6DA)"/>
<path id="Vector_7" d="M130.793 193.738H52.7813V177.643C53.7274 177.551 54.6736 177.463 55.6198 177.375C59.9703 176.965 64.3208 176.559 68.6714 176.149C69.9151 176.032 71.1588 175.915 72.4025 175.798C74.5875 175.597 76.6701 174.982 78.4503 173.654C81.1376 171.652 82.8203 168.629 83.0642 165.274C83.1666 163.853 82.9666 162.315 82.913 160.884C82.8447 158.892 82.7715 156.905 82.6984 154.912C82.7569 154.912 82.8154 154.927 82.8788 154.922C86.9464 154.737 91.0141 154.551 95.0866 154.37C95.6767 154.341 96.2669 154.317 96.857 154.287C97.2472 154.268 97.5447 154.116 97.7593 153.892C97.7935 155.264 97.8179 156.631 97.852 158.003C97.9203 160.445 97.9983 162.901 98.2812 165.328C98.5007 167.189 98.7592 169.166 99.6663 170.841C101.086 173.468 103.944 175.299 106.592 176.501C108.533 177.38 110.616 177.78 112.718 178.034C117.342 178.596 122.068 178.342 126.691 177.892C127.837 177.78 128.984 177.653 130.13 177.512C130.115 177.595 130.105 177.682 130.105 177.775C130.11 183.049 130.344 188.337 130.778 193.592C130.778 193.641 130.788 193.689 130.793 193.738Z" fill="var(--fill-0, #BDA6DA)"/>
<path id="Vector_8" d="M101.402 107.224C100.656 107.018 100.339 106.286 100.466 105.573C100.919 103.005 101.353 100.436 101.768 97.8626C102.431 93.7314 103.046 89.5905 103.553 85.4399C103.153 85.7914 102.753 86.1381 102.353 86.4897C99.0072 89.4196 95.6614 92.3544 92.3108 95.2843C91.8621 95.6798 91.2231 95.8165 90.6866 95.4943C90.0624 95.1231 89.4332 94.7471 88.8089 94.376C84.6096 91.8758 80.4103 89.3757 76.2109 86.8755C76.684 92.2225 77.2352 97.5598 77.8156 102.897C78.5179 109.372 79.2739 115.837 80.0493 122.308C80.659 127.371 81.2882 132.43 81.932 137.494C82.1953 139.555 82.4587 141.611 82.727 143.671C82.8245 144.394 82.0393 145.014 81.3857 145.014C81.3613 145.014 81.3418 145.009 81.3223 145.009L81.376 147.9C81.9466 148.008 82.4538 148.428 82.4831 149.165C82.4831 149.253 82.488 149.346 82.4928 149.433L82.5953 152.285C82.6831 152.266 82.7757 152.251 82.8733 152.246C83.4634 152.217 84.0584 152.192 84.6486 152.163C88.7162 151.978 92.7839 151.792 96.8515 151.606C97.2027 151.592 97.4807 151.694 97.6904 151.86C97.6758 151.475 97.666 151.084 97.6465 150.698C97.5977 149.668 97.5392 148.642 97.427 147.617C97.4124 147.48 97.3977 147.344 97.3782 147.207C97.3685 147.143 97.3539 147.041 97.3539 147.016C97.3246 146.836 97.2953 146.655 97.2612 146.474C97.1978 146.123 97.1197 145.781 97.0173 145.439C96.7735 144.609 97.2953 144.018 97.9391 143.842L96.154 143.256C94.8372 142.822 95.0372 141.054 96.0272 140.668C95.6176 140.385 95.2615 139.989 94.9933 139.433C94.5641 138.549 94.4568 137.421 94.8469 136.503C93.6569 136.054 92.7107 135.199 92.4571 133.729C92.301 132.816 92.4132 131.893 92.8375 131.131C91.9596 130.55 91.2865 129.618 91.1061 128.597C90.9793 127.884 91.0232 127.103 91.2622 126.405C88.9698 126.121 87.7457 123.807 88.3895 121.619C89.0674 119.309 92.2571 119.046 94.2031 118.479C94.8323 118.294 95.4664 118.128 96.1004 117.962C95.7297 117.708 95.3883 117.42 95.1103 117.068C93.6618 115.261 94.725 112.458 96.6808 111.491C97.5928 111.042 98.5585 110.94 99.5486 111.164C99.9486 111.252 100.319 111.404 100.695 111.555C101.07 110.158 101.534 108.742 101.88 107.268C101.719 107.282 101.558 107.277 101.407 107.238L101.402 107.224Z" fill="var(--fill-0, white)"/>
<path id="Vector_9" d="M125.131 124.359C124.746 125.018 123.946 125.159 123.297 124.842C122.576 124.49 121.912 123.997 121.249 123.548C119.074 122.068 116.947 120.515 114.865 118.909C113.309 117.708 111.568 116.502 110.295 114.968C108.836 114.314 107.066 114.578 105.529 114.695C103.637 114.841 101.701 114.91 99.9255 114.138C99.3012 113.87 98.6428 113.523 97.9697 113.826C97.5991 113.992 97.4186 114.255 97.2528 114.612C97.1845 114.753 97.126 114.89 97.1065 115.051C97.1065 115.071 97.126 115.222 97.1162 115.217C97.1796 115.383 97.2918 115.491 97.5064 115.647C97.9161 115.945 98.4087 116.184 98.8769 116.379C99.2525 116.536 99.6475 116.663 100.043 116.765C100.189 116.804 100.34 116.838 100.491 116.868C100.511 116.868 100.53 116.873 100.55 116.878C100.73 116.834 100.911 116.795 101.091 116.751C102.774 116.345 103.481 118.938 101.803 119.339C101.633 119.378 101.462 119.422 101.291 119.461C101.13 119.549 100.95 119.597 100.76 119.588C100.028 119.763 99.3012 119.939 98.5696 120.115C97.6283 120.34 96.6675 120.535 95.7311 120.799C94.7117 121.082 93.6924 121.375 92.673 121.668C92.2243 121.795 91.6683 121.951 91.3025 122.117C91.2879 122.122 91.0977 122.254 90.9806 122.312C90.966 122.356 90.9514 122.405 90.9416 122.449C90.9416 122.464 90.9221 122.547 90.9172 122.576C90.9026 122.728 90.9026 122.879 90.9172 123.03C90.9319 123.152 91.0782 123.514 91.1123 123.553C91.3415 123.831 91.1123 123.553 91.3415 123.709C91.3562 123.719 91.3854 123.724 91.4147 123.729C91.4245 123.729 91.4293 123.729 91.4391 123.729C91.7561 123.729 92.0731 123.748 92.395 123.738C93.2047 123.709 94.0192 123.631 94.8239 123.538C94.9897 123.519 95.1507 123.499 95.3165 123.48C95.4189 123.465 95.5945 123.44 95.5848 123.445C95.6482 123.436 95.7067 123.431 95.7701 123.421C97.4576 123.172 98.1404 125.418 96.4822 126.009C95.8042 126.253 95.1263 126.502 94.463 126.785C93.7948 127.069 93.6046 127.318 93.7265 128.05C93.7753 128.348 93.9655 128.622 94.2045 128.807C94.2874 128.871 94.3947 128.939 94.4971 128.983C94.4776 128.963 94.7507 129.037 94.7117 129.041C95.497 129.144 96.331 129.041 96.9992 128.875C98.6769 128.465 99.3841 131.039 97.7112 131.463C97.0284 131.639 96.3359 131.83 95.6872 132.098C95.6043 132.132 95.1995 132.333 95.1312 132.45C95.019 132.65 95.0434 133.021 95.0873 133.212C95.3799 134.564 97.4918 134.305 98.6233 134.198C100.14 134.052 100.438 136.527 98.9793 136.835C98.6526 136.903 98.3258 137.001 98.0234 137.138C97.8234 137.226 97.5015 137.367 97.3455 137.533C97.3113 137.567 97.3016 137.65 97.2918 137.787C97.282 137.89 97.4332 138.359 97.5113 138.427C97.8185 138.676 98.1258 138.681 98.5648 138.681C99.6231 138.691 100.677 138.476 101.73 138.402C103.042 138.31 104.354 138.271 105.666 138.158C107.539 138.002 109.363 137.67 111.251 137.621C113.294 137.567 115.347 137.621 117.381 137.807C118.903 137.948 120.6 138.061 121.99 138.769C122.424 138.993 122.624 139.335 122.658 139.696C123.185 139.057 123.57 138.534 124.141 137.68C124.941 136.483 125.697 135.16 126.233 133.866C127.38 131.097 127.833 127.977 126.487 125.174C126.243 124.666 126.302 124.173 126.536 123.802L125.238 123.265C125.346 123.631 125.317 124.046 125.131 124.363V124.359Z" fill="var(--fill-0, white)"/>
<path id="Vector_10" d="M28.9531 73.2167C28.9873 73.246 29.0117 73.2606 29.0068 73.2362C29.0068 73.2509 29.1482 72.929 28.9531 73.2167Z" fill="var(--fill-0, #BDA6DA)"/>
<path id="Vector_11" d="M24.7669 109.47C24.7912 109.553 24.8107 109.636 24.8351 109.719C24.8693 109.831 24.8985 109.949 24.9327 110.061C24.9473 110.085 24.9619 110.105 24.9766 110.134C25.4692 111.135 26.0057 112.034 26.7909 112.791C27.2981 113.279 27.8932 113.64 28.4882 113.806C28.6491 113.85 28.8101 113.884 28.971 113.909C29.0247 113.909 29.2198 113.928 29.2783 113.933C29.4539 113.938 29.6295 113.933 29.8002 113.923C29.8685 113.923 29.9367 113.914 30.005 113.904C30.0148 113.904 30.0148 113.904 30.0294 113.899C30.3903 113.831 30.7366 113.743 31.0829 113.621C31.5267 113.464 31.4243 113.503 31.8681 113.274C33.3264 112.517 34.3555 111.609 35.4968 110.383C36.6235 109.167 37.5063 107.951 38.35 106.457C38.9353 105.427 39.3352 104.631 39.6327 103.61C39.5937 103.532 39.5596 103.454 39.5352 103.361C38.9792 101.418 38.4281 99.4742 37.872 97.5307C37.8038 97.2865 37.716 97.0375 37.6623 96.7884C37.477 95.9729 37.9257 95.0403 38.0135 94.215C38.1988 92.4717 37.9891 90.7089 37.3258 89.0828C36.2187 86.3531 33.7751 84.5903 32.1169 82.2318C31.3707 81.1672 30.9122 79.9318 30.5562 78.6866C30.3318 77.9151 30.1123 77.1338 29.9758 76.3378C29.8538 75.6298 29.766 74.8875 29.4685 74.2234C29.371 74.0086 29.2442 73.7888 29.1076 73.5984C29.0442 73.5056 28.9223 73.4079 28.8394 73.3151C28.7223 73.3884 28.5126 73.4665 28.4394 73.5202C27.8054 73.95 27.6054 74.1502 27.4981 74.7947C27.225 76.4697 27.8883 78.4571 28.4297 80.093C29.3612 80.7864 30.2782 81.5042 31.117 82.2904C32.3803 83.477 30.4781 85.3716 29.2198 84.1899C27.8054 82.8617 26.1666 81.7483 24.6108 80.5959C21.8746 78.5743 19.0995 76.5966 16.3585 74.5799C15.9341 74.2674 15.5098 73.95 15.0904 73.6277C15.0611 73.6033 15.0465 73.5935 15.0221 73.574C15.0123 73.5691 15.0075 73.5642 14.9879 73.5495C14.9245 73.5007 14.8611 73.4568 14.7977 73.4079C14.6612 73.3103 14.5246 73.2126 14.3832 73.1149C14.0564 72.8903 13.715 72.6803 13.3687 72.4899C12.7785 72.1676 12.047 71.816 11.3837 71.9088C11.3983 71.9088 11.3837 71.9088 11.3593 71.9186C14.2954 73.95 17.2412 75.9716 20.1774 78.0079C20.7724 78.4229 21.0504 79.1798 20.6602 79.8439C20.3139 80.4348 19.4214 80.7375 18.8263 80.3273C15.5001 78.0176 12.1543 75.7323 8.82797 73.4226C8.75969 73.3737 8.70116 73.3249 8.64263 73.2712C8.04273 72.9782 7.50135 72.5924 6.95022 72.2067C6.34057 71.7818 5.7553 71.23 5.07736 71.3228C4.83349 71.357 4.72132 71.4254 4.66767 71.4986C4.71644 71.4644 4.70669 71.6695 4.66767 71.5474C4.7457 71.7574 4.73595 71.7965 4.80911 71.9479C4.87739 72.0846 4.95543 72.2116 5.03346 72.3434C5.05297 72.3776 5.23343 72.6315 5.25294 72.6657C5.29196 72.7145 5.33097 72.7585 5.36999 72.8024C5.65775 72.9929 5.95039 73.1882 6.23814 73.3786C9.39861 75.4735 12.5591 77.5684 15.7147 79.6632C16.3194 80.0637 16.5779 80.845 16.1975 81.4993C15.8463 82.0999 14.9684 82.3832 14.3637 81.9827C13.9003 81.6751 13.437 81.3675 12.9688 81.0598C11.0179 79.7658 9.06695 78.4718 7.11605 77.1777C6.29179 76.6308 5.46754 76.0839 4.64328 75.537C4.46282 75.4198 4.28724 75.2977 4.10678 75.1805C3.92632 75.117 3.75074 75.0096 3.58492 74.8338C3.58492 74.8338 3.58004 74.824 3.57516 74.824C3.56053 74.8143 3.5459 74.8045 3.53127 74.7947C3.47762 74.7606 3.41909 74.7264 3.36056 74.6971C3.35081 74.6922 3.34105 74.6873 3.3313 74.6824C3.28253 74.6678 3.22888 74.6531 3.20449 74.6482C3.20449 74.6482 3.20449 74.6482 3.19961 74.6482C3.18986 74.6482 3.17035 74.6482 3.15572 74.6482C3.12645 74.658 3.09231 74.6678 3.05817 74.6775C3.03866 74.6873 3.02403 74.6922 3.0094 74.702C2.98989 74.7215 2.94599 74.7459 2.92649 74.7508C2.84845 74.824 2.75578 74.9217 2.7509 74.9266C2.74603 74.9315 2.73627 74.9412 2.7314 74.951C2.7314 74.951 2.7314 74.9608 2.72652 74.9656C2.7314 74.9901 2.70213 75.0975 2.6875 75.117C2.6875 75.1219 2.6875 75.1268 2.6875 75.1317C2.69725 75.1805 2.70701 75.2342 2.72164 75.2831C2.7314 75.3172 2.74603 75.3563 2.75578 75.3905C2.78505 75.4442 2.80943 75.4979 2.83869 75.5516C2.92161 75.703 3.01915 75.8495 3.1167 75.9911C3.1167 75.996 3.12645 76.0058 3.13133 76.0106C3.18986 76.0741 3.24351 76.1425 3.30203 76.2109C3.41909 76.3427 3.5459 76.4745 3.67271 76.6015C4.12141 77.041 4.6823 77.3877 4.99932 77.9346C6.10158 77.6758 7.36967 77.9053 8.36951 78.3838C9.50591 78.9259 10.4326 79.8097 11.3885 80.6106C12.1396 81.2405 12.9054 81.8509 13.7004 82.4271C15.0172 83.3793 16.3877 84.2534 17.7143 85.1958C20.548 84.9126 23.4402 85.1763 26.2008 85.8355C29.1515 86.5387 32.3851 87.8034 34.3409 90.2352C34.7945 90.8017 34.8969 91.5732 34.3409 92.1348C33.8678 92.6085 32.8972 92.7012 32.4437 92.1348C30.7756 90.0546 28.0785 89.0438 25.4887 88.4236C24.0596 88.0818 22.6111 87.8718 21.143 87.7937C20.4749 87.7595 19.8067 87.7497 19.1385 87.7693C18.802 87.779 18.4654 87.7986 18.1289 87.8279C17.9826 87.8425 17.8314 87.8572 17.6851 87.8718C17.6265 87.8767 17.568 87.8865 17.5095 87.8913C17.4851 87.8913 17.4558 87.9011 17.4071 87.906C16.7438 88.0036 16.0853 87.7741 15.822 87.1345C13.7735 85.6939 11.6909 84.3315 9.75953 82.725C8.69628 81.846 7.3404 80.4006 5.96014 80.4641C5.97477 80.469 5.7553 80.5129 5.64312 80.5373C5.61386 80.552 5.55045 80.5813 5.53582 80.591C5.46754 80.6252 5.36024 80.7424 5.36999 80.6887C5.30171 80.9377 5.8821 81.4309 6.07232 81.6116C9.0133 84.4048 12.1494 87.0026 15.2562 89.6102C18.0899 91.9883 20.9382 94.3469 23.8012 96.6908C24.3572 97.1449 24.9522 97.4916 25.1863 98.1997C25.5667 99.3472 25.8642 100.524 26.2008 101.686C26.986 104.387 27.7761 107.087 28.5614 109.787C29.0491 111.453 26.4593 112.156 25.9764 110.5C25.835 110.017 25.6935 109.533 25.5521 109.045C25.3424 108.332 25.1326 107.614 24.9278 106.901C24.5132 107.468 24.0499 107.976 23.6304 108.503C24.1328 108.528 24.6157 108.816 24.7864 109.45L24.7669 109.47Z" fill="var(--fill-0, white)"/>
<path id="Vector_12" d="M43.3647 102.062C43.6817 102.975 43.9987 103.888 44.3157 104.801C45.6814 108.722 47.0421 112.639 48.4077 116.56C49.2661 119.031 50.1245 121.497 50.9829 123.968C51.2219 124.656 50.7098 125.437 50.0465 125.618C49.3149 125.818 48.637 125.364 48.398 124.681C48.081 123.767 47.7639 122.854 47.4469 121.941C46.0813 118.025 44.7205 114.104 43.3549 110.183C42.8233 108.659 42.2965 107.135 41.7649 105.612C41.3455 106.637 40.809 107.624 40.2383 108.547C38.2777 111.711 35.4928 114.856 31.9177 116.169C30.2595 116.78 28.4549 116.77 26.8405 116.042C26.743 115.998 26.6552 115.945 26.5625 115.896C27.3087 118.625 28.0403 121.36 28.7865 124.085C30.2253 129.315 31.6641 134.545 33.1029 139.77C33.2687 140.365 33.376 140.961 33.5223 141.562C33.9662 143.363 34.766 144.931 36.0439 146.142C36.634 146.699 37.1657 147.075 38.0046 147.504C38.5118 147.763 38.4776 147.749 38.98 147.924C39.3409 148.051 39.7116 148.164 40.0823 148.256C41.5503 148.623 42.9696 148.701 44.6718 148.549C44.8669 148.53 45.0619 148.51 45.257 148.486C45.3058 148.476 45.5692 148.442 45.6277 148.432C45.9886 148.374 46.3447 148.3 46.7007 148.217C47.3543 148.066 47.9981 147.871 48.6223 147.631C48.6906 147.607 48.7589 147.578 48.8272 147.548C48.9637 147.485 49.1003 147.426 49.2369 147.358C49.4612 147.246 49.6612 147.114 49.8709 146.977C49.9392 146.918 50.0075 146.865 50.0709 146.801C50.1587 146.718 50.2465 146.635 50.3343 146.547C50.5489 146.328 50.7488 146.098 50.939 145.859C50.9488 145.844 50.9585 145.829 50.9732 145.81C51.022 145.737 51.0756 145.668 51.1244 145.595C51.217 145.463 51.3048 145.327 51.3926 145.19C51.5877 144.887 51.7682 144.579 51.9438 144.262C52.3144 143.588 52.6461 142.89 52.9485 142.182C52.9777 142.118 53.0314 141.991 53.0314 141.986C53.0753 141.884 53.1143 141.781 53.1533 141.679C53.2265 141.493 53.2996 141.303 53.3728 141.117C53.5191 140.731 53.6605 140.346 53.7922 139.955C54.0946 139.086 54.3678 138.207 54.6262 137.323C55.5968 133.983 56.3235 130.57 56.9283 127.142C57.1283 125.989 57.3185 124.837 57.4843 123.684C57.5136 123.484 57.5428 123.284 57.5721 123.084C57.5819 123.025 57.5867 122.967 57.5965 122.903C57.6111 122.805 57.6209 122.713 57.6355 122.615C57.6599 122.405 57.7233 122.205 57.8111 122.024C56.8259 118.357 55.6017 114.753 54.6506 111.076C52.4461 102.575 52.8119 93.6189 50.7001 85.0978C50.6562 84.9171 50.6513 84.7462 50.6708 84.5899C46.7641 88.4671 46.1203 94.4881 44.9937 99.7277C44.7449 100.875 43.4768 100.909 42.7989 100.289C42.6916 100.572 42.5892 100.861 42.4867 101.144C42.8916 101.285 43.2135 101.627 43.3647 102.057V102.062Z" fill="var(--fill-0, #BDA6DA)"/>
<path id="Vector_13" d="M85.2211 66.1656C82.4313 66.0875 79.8074 65.1792 77.4516 63.768C77.3346 66.7028 76.6761 69.6571 75.4861 72.3135C75.4373 72.4258 75.3642 72.5137 75.2813 72.5967C75.3105 76.4202 75.647 80.2535 75.9641 84.0526C76.2665 83.9598 76.6176 83.9842 76.9737 84.1991C77.5979 84.5702 78.2271 84.9462 78.8514 85.3173C82.9727 87.7735 87.094 90.2249 91.2153 92.6811C91.4299 92.4907 91.6493 92.3002 91.8639 92.1098C95.2097 89.1799 98.5555 86.2451 101.906 83.3152C102.452 82.8367 103.262 82.7732 103.803 83.3152C103.823 83.1492 103.842 82.9832 103.862 82.8171C104.311 78.7446 104.73 74.6037 104.564 70.497C103.53 69.4276 102.54 68.3191 101.716 67.0788C100.702 65.5601 100.004 63.8315 99.6675 62.0345C99.531 61.2922 99.8675 60.6233 100.604 60.384C100.692 60.3547 100.78 60.34 100.872 60.3351C100.628 59.5538 100.453 58.7481 100.345 57.9131C99.8382 58.6114 99.292 59.2804 98.7165 59.9152C95.3219 63.6313 90.3422 66.3121 85.2162 66.1705L85.2211 66.1656Z" fill="var(--fill-0, white)"/>
<path id="Vector_14" d="M135.332 82.3195C134.761 82.6565 133.786 82.5051 133.498 81.8361C132.654 79.8926 131.186 78.7109 129.264 77.9003C127.323 77.0799 125.241 76.5965 123.226 75.9959C121.046 75.3415 118.822 74.946 116.569 74.6677C114.618 74.4235 112.638 74.2233 110.745 73.6568C109.511 73.2857 108.365 72.7632 107.287 72.1089C107.287 73.6666 107.209 75.2292 107.107 76.7869C106.434 86.6802 104.781 96.5295 103.064 106.286C102.966 106.838 102.425 107.199 101.888 107.253C101.542 108.732 101.079 110.149 100.703 111.54C101.001 111.662 101.298 111.789 101.605 111.887C101.669 111.633 101.742 111.379 101.859 111.125C101.801 110.852 101.83 110.549 101.991 110.236C102.088 110.046 102.186 109.851 102.288 109.66C104.098 106.125 105.907 102.589 107.717 99.0492C109.989 94.6104 112.262 90.1668 114.535 85.728C115.096 84.6342 115.667 83.5501 116.213 82.4514C116.764 81.3429 117.817 80.63 119.1 80.9132C119.281 80.9523 119.456 81.0109 119.637 81.0646C122.68 81.9533 125.728 82.8469 128.772 83.7357C129.655 83.9945 130.532 84.2533 131.415 84.5072C132.103 83.5599 133.283 83.1253 134.488 83.428C135.546 83.6966 136.59 84.0335 137.634 84.3412C137.083 83.4329 136.536 82.4953 135.922 81.5724C135.839 81.8654 135.654 82.1291 135.341 82.3098L135.332 82.3195Z" fill="var(--fill-0, #BDA6DA)"/>
<path id="Vector_15" d="M159.826 95.6214C159.319 95.4749 158.806 95.3235 158.299 95.177C156.646 94.6936 154.992 94.2102 153.344 93.7267C152.803 93.5705 152.261 93.4093 151.725 93.2531C151.7 93.3361 151.671 93.4191 151.647 93.4972C151.203 95.0257 149.974 95.9828 148.413 95.7777C148.311 95.7728 148.208 95.7533 148.101 95.724C144.716 94.7376 141.331 93.756 137.942 92.7696C136.342 92.3057 134.747 91.8418 133.147 91.3779C132.845 91.2901 132.538 91.2119 132.235 91.1143C130.699 90.6064 129.918 89.1268 130.318 87.5691C130.362 87.3933 130.411 87.2175 130.46 87.0417C128.655 86.5143 126.846 85.987 125.041 85.4547C123.476 84.9957 121.915 84.5415 120.349 84.0825C119.784 83.9165 119.174 83.7895 118.613 83.5844C118.603 83.6089 118.593 83.6382 118.579 83.6772C118.545 83.7749 118.481 83.8677 118.433 83.9605C118.203 84.4097 117.974 84.8541 117.745 85.3033C116.891 86.9734 116.033 88.6434 115.179 90.3134C112.838 94.8841 110.502 99.4596 108.161 104.03C106.869 106.555 105.581 109.074 104.288 111.599C104.157 111.858 103.976 112.029 103.781 112.136C104.937 112.117 106.113 111.941 107.244 111.897C108.176 111.858 109.112 111.897 110.029 112.082C110.517 112.18 110.975 112.346 111.429 112.546C111.648 112.644 111.868 112.747 112.043 112.918C112.507 113.381 112.229 113.142 112.112 113.01C112.131 113.035 112.151 113.059 112.17 113.084C112.765 113.704 113.375 114.285 114.033 114.841C116.018 116.521 117.979 117.967 120.135 119.515C121.573 120.545 123.042 121.746 124.636 122.532C124.939 122.679 125.129 122.957 125.227 123.27L126.524 123.807C126.865 123.27 127.582 123.001 128.309 123.343C128.348 123.363 128.504 123.426 128.543 123.446C128.621 123.48 128.704 123.509 128.782 123.538C129.021 123.626 129.26 123.709 129.499 123.792C130.055 123.978 130.616 124.139 131.182 124.3C132.64 124.705 134.108 125.072 135.576 125.453C138.956 126.336 142.307 127.323 145.604 128.475L146.15 127.088C145.574 126.747 145.189 126.024 145.57 125.252C145.653 125.081 145.74 124.911 145.823 124.74C147.467 121.424 149.11 118.113 150.749 114.798C153.007 110.237 155.27 105.676 157.529 101.115C158.289 99.5768 159.055 98.0337 159.816 96.4955C159.938 96.2562 160.055 96.0121 160.172 95.7679C160.04 95.7191 159.909 95.6605 159.816 95.6361L159.826 95.6214Z" fill="var(--fill-0, #DCDCDC)"/>
<path id="Vector_16" d="M147.917 129.286C148.599 129.544 149.058 130.184 148.853 130.936C148.673 131.59 147.882 132.128 147.204 131.874C146.356 131.551 145.497 131.254 144.639 130.956C141.371 129.828 138.055 128.856 134.704 127.982C133.075 127.557 131.397 127.191 129.773 126.693C129.988 127.757 130.056 128.851 129.954 129.955C129.646 133.324 128.188 136.488 126.301 139.257C125.701 140.141 125.052 141.01 124.359 141.84C127.686 143.1 131.017 144.345 134.358 145.576C136.918 146.518 139.489 147.456 142.064 148.359C144.62 149.258 147.151 149.922 149.877 149.541C154.184 148.935 157.871 145.791 158.715 141.479C159.1 139.521 158.739 137.226 157.725 135.321C157.417 134.74 157.066 134.179 156.666 133.656C156.281 133.148 155.754 132.714 155.403 132.181C155.184 131.854 155.008 131.488 154.813 131.146C153.223 128.358 151.633 125.57 150.043 122.786C149.989 122.693 149.95 122.605 149.921 122.513C149.248 123.87 148.575 125.233 147.902 126.59C147.517 127.367 146.746 127.41 146.166 127.069L145.619 128.455C146.385 128.724 147.156 128.993 147.917 129.281V129.286Z" fill="var(--fill-0, #BDA6DA)"/>
<path id="Vector_17" d="M22.1879 110.182C22.2757 110.505 22.3635 110.827 22.4513 111.149C22.5294 110.08 23.022 109.279 23.617 108.527C22.7927 108.483 21.9002 109.147 22.1879 110.187V110.182Z" fill="var(--fill-0, #323232)"/>
<path id="Vector_18" d="M160.481 95.8311C160.52 95.8603 160.559 95.875 160.613 95.8555C160.603 95.8555 160.579 95.8408 160.564 95.8408C160.54 95.8408 160.506 95.836 160.477 95.8311H160.481Z" fill="var(--fill-0, #BDA6DA)"/>
<path id="Vector_19" d="M160.453 95.2158C160.414 95.2451 160.39 95.3036 160.375 95.3719C160.395 95.328 160.419 95.2402 160.453 95.2158Z" fill="var(--fill-0, #BDA6DA)"/>
<path id="Vector_20" d="M84.3671 53.6117C84.328 53.563 84.3037 53.5288 84.3671 53.6117Z" fill="var(--fill-0, #BDA6DA)"/>
<path id="Vector_21" d="M83.2513 51.6287C83.2269 51.4726 83.183 51.4287 83.1879 51.4726C83.2074 51.5165 83.2269 51.5604 83.2415 51.6043C83.2415 51.6141 83.2513 51.619 83.2513 51.6287Z" fill="var(--fill-0, #BDA6DA)"/>
<path id="Vector_22" d="M84.0549 53.1471C84.133 53.2692 84.211 53.3864 84.2939 53.5036C84.3232 53.5475 84.3573 53.5866 84.3866 53.6305C84.4012 53.6452 84.411 53.6647 84.4256 53.6745C84.6451 53.9186 84.8743 54.1384 85.1084 54.3679C85.1133 54.3728 85.1182 54.3777 85.123 54.3825C85.1621 54.407 85.2011 54.4314 85.2352 54.4509C85.3474 54.5242 85.4742 54.5779 85.5864 54.6511C85.6547 54.6707 85.7229 54.7 85.7961 54.7195C85.8498 54.7341 85.9034 54.7439 85.9522 54.7585C85.9814 54.7683 86.001 54.7732 86.0205 54.7781C86.1375 54.7781 86.318 54.7634 86.3472 54.7634C86.396 54.7537 86.4448 54.7439 86.4887 54.7341C86.5667 54.7146 86.6448 54.6804 86.7228 54.6609C86.8252 54.5974 86.9325 54.5437 87.0349 54.4851C87.0496 54.4753 87.0544 54.4753 87.0642 54.4704C87.0935 54.446 87.1227 54.4167 87.1325 54.407C87.2349 54.3044 87.3422 54.2068 87.4397 54.0944C87.4544 54.0798 87.4739 54.0554 87.4983 54.0358C87.5178 54.0065 87.5422 53.9724 87.5568 53.9479C87.6397 53.821 87.7275 53.694 87.8007 53.5671C87.9421 53.3327 88.1226 53.0494 88.1957 52.7809C88.0835 53.1862 88.2396 52.6637 88.2738 52.5611C88.3176 52.4342 88.3615 52.3023 88.4054 52.1754C88.4835 51.9263 88.5566 51.6773 88.62 51.4282C88.62 51.4234 88.62 51.4136 88.62 51.4087C86.8789 51.5894 85.1426 51.7749 83.4063 51.9556C83.4697 52.0875 83.5282 52.2242 83.5965 52.356C83.7379 52.6246 83.8891 52.8932 84.0501 53.152L84.0549 53.1471Z" fill="var(--fill-0, white)"/>
<path id="Vector_23" d="M88.8905 28.3754C88.8515 28.39 88.8125 28.4095 88.7734 28.4193C88.8076 28.4095 88.8271 28.3998 88.8515 28.3949C88.8612 28.3949 88.8661 28.3851 88.8759 28.3803C88.8759 28.3803 88.8807 28.3803 88.8856 28.3803L88.8905 28.3754Z" fill="var(--fill-0, #BDA6DA)"/>
<path id="Vector_24" d="M88.9345 28.3555C88.9345 28.3555 88.9687 28.3457 88.9882 28.3408C88.9735 28.3408 88.9296 28.3555 88.8906 28.375C88.9053 28.3701 88.9199 28.3603 88.9394 28.3555H88.9345Z" fill="var(--fill-0, #BDA6DA)"/>
<path id="Vector_25" d="M111.575 33.7172C110.619 29.1954 108.62 24.9715 106.942 20.6889C105.484 16.9533 103.903 13.0712 101.084 10.1316C99.8211 8.81312 98.6067 7.93904 97.0362 6.94288C96.2851 6.46433 95.4999 5.99555 94.6756 5.64884C94.422 5.54142 94.0221 5.41445 93.6953 5.33144C93.6368 5.31679 93.5782 5.30702 93.5148 5.29726C93.5051 5.29726 93.4953 5.29726 93.4807 5.29726C93.3588 5.29726 93.0564 5.33144 93.3393 5.28261C92.6223 5.40957 91.8956 5.10193 91.6908 4.34504C91.5493 3.82255 91.7834 3.15844 92.2516 2.8508C91.7542 2.54316 91.2372 2.30389 90.7104 2.17204C90.6519 2.94846 90.0227 3.67117 89.0765 3.36353C83.8286 1.64955 78.3953 3.38795 73.8595 6.18599C70.0845 8.51525 66.4851 11.4744 64.5781 15.5665C62.7052 19.5853 62.1882 24.1902 61.4761 28.5166C61.0372 31.1779 60.4958 33.81 59.9447 36.4469C59.4423 38.8445 59.0131 41.4179 59.6716 43.8302C60.1593 45.6125 60.9884 47.2874 62.0321 48.8305C62.5345 49.5776 63.11 50.2759 63.788 50.8717C64.3098 51.3307 64.8463 51.6383 65.5145 51.7555C66.2315 51.8825 66.6314 52.7566 66.4509 53.406C66.4217 53.5183 66.3729 53.6209 66.3193 53.7137C67.0167 54.1238 67.7678 54.3192 68.5433 54.412C68.1336 53.6453 67.7971 52.8493 67.5825 52.0192C67.0411 49.8999 66.7728 47.6927 66.3924 45.5442C65.773 42.0771 65.0073 38.6296 64.2269 35.1968C64.0172 34.2787 64.6951 33.6488 65.4121 33.5414C65.4267 33.1556 65.4511 32.7698 65.4706 32.3841C64.9195 32.2669 64.4318 31.8518 64.4074 31.1242C64.3245 28.4629 64.7488 25.7674 65.7096 23.277C67.3288 19.0677 70.1869 15.503 73.7619 12.788C76.7712 10.5027 80.356 8.80336 84.1408 8.44201C84.8675 8.37364 85.482 9.111 85.482 9.78487C85.482 9.94601 85.4479 10.0925 85.3991 10.2292C85.9892 10.4441 86.5257 10.7566 87.0037 11.1961C87.667 10.698 88.8522 10.7859 89.2034 11.826C90.4763 15.5714 92.2175 19.1654 94.6171 22.3248C96.9777 25.4354 99.9577 28.0234 103.216 30.1525C103.435 30.2941 103.582 30.4699 103.684 30.6603C105.05 30.089 106.576 29.9816 107.908 30.8117C109.132 31.5735 109.907 32.8284 110.444 34.1371C111.692 37.1647 110.81 40.2264 109.039 42.7363C109.064 42.7852 109.088 42.834 109.107 42.8877C109.683 44.548 108.932 46.4671 107.43 47.3509C106.791 47.722 106.001 47.9271 105.264 47.8588C104.942 47.8295 104.64 47.7562 104.347 47.6586C104.064 50.5933 103.06 53.45 101.567 56.0087C102.406 55.6816 103.074 55.1884 103.494 54.4461C103.128 53.9676 103.045 53.2839 103.591 52.7322C106.142 50.1294 109.161 47.7513 110.819 44.5382C112.463 41.3447 112.326 37.2477 111.58 33.7074L111.575 33.7172Z" fill="var(--fill-0, white)"/>
<path id="Vector_26" d="M107.97 35.1433C107.955 35.1091 107.946 35.0798 107.936 35.0554C107.892 34.9577 107.843 34.8552 107.794 34.7575C107.687 34.5378 107.57 34.3229 107.438 34.113C107.38 34.0153 107.312 33.9176 107.248 33.82C107.214 33.7809 107.204 33.7614 107.204 33.7516C107.19 33.737 107.165 33.7174 107.126 33.6735C107.034 33.5758 106.936 33.4733 106.843 33.3756C106.819 33.3512 106.722 33.2731 106.682 33.2389C106.609 33.1852 106.531 33.1363 106.453 33.0875C106.414 33.068 106.322 33.024 106.278 33.0045C106.165 32.9654 106.048 32.9312 105.931 32.9068C105.858 32.9019 105.785 32.8971 105.712 32.8971C105.707 32.8971 105.497 32.9166 105.458 32.9117C105.327 32.9361 105.195 32.9703 105.063 33.0094C104.702 33.1168 104.385 33.3024 104.063 33.5026C103.166 34.0495 102.327 33.4098 102.122 32.6236C102.039 32.5894 101.952 32.5455 101.864 32.4918C98.2546 30.1332 95.0356 27.2863 92.4165 23.8486C89.8316 20.4548 87.988 16.5873 86.6223 12.5588C86.4175 11.963 86.6321 11.4991 87.0076 11.2159C86.5297 10.7764 85.9932 10.4639 85.403 10.249C85.2177 10.7666 84.7153 11.0938 84.1447 11.1475C84.0374 11.1573 83.9349 11.1719 83.8277 11.1817C83.7789 11.1866 83.7106 11.1964 83.6862 11.2012C83.4911 11.2354 83.296 11.2696 83.1058 11.3087C82.662 11.3966 82.223 11.504 81.789 11.631C80.8818 11.8995 80.0673 12.212 79.3162 12.5636C72.2051 15.9135 66.8304 23.0575 67.0889 31.144C67.123 32.1499 66.2305 32.565 65.4696 32.4039C65.4453 32.7896 65.4258 33.1754 65.4063 33.5612C66.0062 33.4733 66.6353 33.737 66.8109 34.5036C67.6449 38.1757 68.3814 41.8625 69.0983 45.5591C69.5031 47.6344 69.6934 49.783 70.303 51.8095C70.5664 52.6885 71.1419 53.5821 71.7418 54.4855C72.4197 55.5011 73.1611 56.468 73.9756 57.3763C77.1361 60.9068 81.4963 63.7878 86.4126 63.4607C95.377 62.8552 102.366 53.3135 101.703 44.6703C101.693 44.5482 101.713 44.4311 101.742 44.3187C101.708 43.8255 101.761 43.3226 101.932 42.8636C102.234 42.0627 102.717 41.4377 103.415 40.9396C104.015 40.5099 104.819 40.2901 105.551 40.2999C106.112 40.3097 106.692 40.4464 107.204 40.7003C108.238 39.0498 108.721 37.1503 107.97 35.1433ZM76.4776 36.5301C74.7511 36.5301 74.756 33.8444 76.4776 33.8444C78.1993 33.8444 78.2042 36.5301 76.4776 36.5301ZM78.9358 29.4544C78.7846 30.1186 77.9408 30.641 77.2824 30.392C77.1409 30.3383 76.9458 30.265 76.7703 30.2309H76.6922L76.5166 30.2162C76.3947 30.2113 76.2777 30.2064 76.1557 30.2113C76.0338 30.2113 75.907 30.2211 75.7851 30.2309C75.7314 30.2309 75.6778 30.2406 75.629 30.2455C75.39 30.2846 75.151 30.3285 74.9169 30.392C74.673 30.4604 74.4292 30.5385 74.1902 30.6313C74.1609 30.641 74.1268 30.6557 74.1122 30.6655C74.0097 30.7094 73.9073 30.7631 73.8098 30.8168C73.7073 30.8754 73.6049 30.934 73.5074 30.9975C73.4879 31.0122 73.4684 31.0268 73.4488 31.0415C73.3854 31.0952 73.3269 31.144 73.2733 31.2026C73.2489 31.227 73.2245 31.2563 73.2001 31.2759C73.2001 31.2856 73.1904 31.2856 73.1855 31.2905C72.7514 31.8032 72.093 31.979 71.4589 31.6421C70.8541 31.3198 70.5713 30.3822 70.9761 29.806C71.7125 28.7513 72.9221 28.1604 74.1317 27.8235C75.3461 27.4865 76.7946 27.3498 77.9945 27.8039C78.7017 28.0676 79.1065 28.6927 78.9358 29.4544ZM83.2277 43.5667C83.2814 43.4007 83.3741 43.2542 83.5058 43.137C83.6277 43.0052 83.7691 42.9124 83.935 42.8587C84.0959 42.7757 84.2715 42.7366 84.4519 42.7415C84.4763 42.7415 84.4958 42.7366 84.5153 42.7366C84.6665 42.722 84.8129 42.7073 84.9592 42.6927C85.203 42.6927 85.4274 42.7561 85.6371 42.8782C85.7249 42.9466 85.8176 43.0149 85.9054 43.0882C86.0761 43.2542 86.1882 43.4495 86.2516 43.679C86.2663 43.7962 86.2858 43.9183 86.3004 44.0355C86.3004 44.2211 86.2712 44.392 86.1834 44.5531C86.1297 44.7192 86.0371 44.8657 85.9054 44.9877C85.7883 45.1147 85.642 45.2075 85.4762 45.2612C85.3152 45.3491 85.1445 45.3833 84.9592 45.3784C84.9397 45.3784 84.9153 45.3833 84.8958 45.3833C84.7495 45.3979 84.6031 45.4126 84.4519 45.4272C84.213 45.4272 83.9837 45.3637 83.7789 45.2465C83.6862 45.1733 83.5935 45.1049 83.5058 45.0317C83.3399 44.8657 83.2229 44.6703 83.1595 44.4408C83.1448 44.3236 83.1302 44.2015 83.1107 44.0844C83.1058 43.8988 83.1448 43.7279 83.2277 43.5667ZM91.5484 50.2322C91.4557 51.077 91.285 51.9218 91.0411 52.7324C90.6217 54.0997 89.973 55.5353 88.8415 56.4534C87.4515 57.5814 85.5688 57.7718 84.0081 56.8538C82.0523 55.7111 80.8379 53.2793 80.238 51.16C79.9795 50.2518 80.6867 49.5486 81.5305 49.4607C81.8963 49.4216 82.2621 49.3874 82.6278 49.3484C85.1689 49.0798 87.7051 48.8161 90.2461 48.5524C90.6022 48.5134 90.9192 48.6696 91.1533 48.9138C91.4313 49.1677 91.6215 49.5242 91.5874 49.8953C91.5922 50.0174 91.5776 50.1248 91.5484 50.2322ZM91.1338 34.7478C89.4024 34.7478 89.4072 32.062 91.1338 32.062C92.8603 32.062 92.8603 34.7478 91.1338 34.7478ZM94.6991 28.6634C94.2113 29.1956 93.2993 29.1663 92.8018 28.6634C92.7872 28.6487 92.7677 28.6341 92.753 28.6145C92.6896 28.5755 92.6262 28.5364 92.5628 28.5022C92.5287 28.4827 92.4897 28.4632 92.4555 28.4485C92.3726 28.4143 92.2897 28.385 92.2068 28.3557C91.9678 28.2825 91.7239 28.2239 91.4801 28.1799C91.4313 28.1702 91.3874 28.1653 91.3435 28.1555C91.2265 28.1458 91.1143 28.1311 91.0021 28.1262C90.729 28.1067 90.4558 28.1018 90.1876 28.1165C90.0462 28.1213 89.9145 28.136 89.7779 28.1458C89.7389 28.1506 89.7047 28.1604 89.6657 28.1653C89.4365 28.2092 89.2073 28.2678 88.9829 28.3411H88.978C88.978 28.3411 88.9585 28.3557 88.9341 28.3655C88.9146 28.3753 88.8854 28.385 88.8512 28.3948C88.7537 28.4485 88.6561 28.4973 88.5635 28.5559C87.9294 28.9612 87.1101 28.6683 86.7296 28.0774C86.3248 27.4475 86.6174 26.6173 87.2076 26.2364C88.3196 25.5284 89.7877 25.3477 91.0801 25.4454C92.3385 25.5382 93.7773 25.8311 94.6991 26.7638C95.2258 27.2961 95.1917 28.1262 94.6991 28.6634Z" fill="var(--fill-0, white)"/>
<path id="Vector_27" d="M158.594 105.002C159.979 102.208 161.423 99.4396 162.749 96.622C163.393 95.245 162.754 93.7507 161.32 93.2624C161.125 93.1941 160.92 93.1452 160.72 93.0866C159.53 92.7351 158.335 92.3884 157.14 92.0416C155.536 91.568 153.926 91.0992 152.317 90.6304C152.263 89.3559 151.38 88.3744 150.181 88.0033C149.776 87.8763 149.366 87.764 148.956 87.6468C145.24 86.5628 141.519 85.4836 137.797 84.3995C137.739 84.3849 137.68 84.3653 137.622 84.3458C136.578 84.0382 135.534 83.7012 134.476 83.4327C133.271 83.1299 132.086 83.5645 131.398 84.5118C130.52 84.253 129.638 83.9942 128.755 83.7403C125.711 82.8467 122.668 81.9579 119.62 81.0692C119.444 81.0155 119.269 80.9569 119.088 80.9178C117.805 80.6346 116.752 81.3476 116.201 82.456C115.655 83.5547 115.084 84.6388 114.523 85.7326C112.25 90.1714 109.977 94.6151 107.705 99.0538C105.895 102.589 104.086 106.13 102.276 109.665C102.179 109.855 102.076 110.051 101.979 110.241C101.823 110.554 101.793 110.856 101.852 111.13C101.935 111.54 102.213 111.882 102.569 112.082C102.403 112.063 102.237 112.043 102.071 112.014C101.91 111.984 101.749 111.94 101.593 111.892C101.286 111.794 100.989 111.667 100.691 111.545C100.32 111.394 99.9449 111.242 99.5449 111.149C98.5549 110.93 97.5892 111.032 96.6771 111.481C94.7262 112.448 93.663 115.251 95.1115 117.058C95.3895 117.405 95.7309 117.698 96.1016 117.952C95.4676 118.113 94.8335 118.284 94.2043 118.464C92.2534 119.036 89.0637 119.299 88.3858 121.609C87.7469 123.797 88.9711 126.111 91.2634 126.395C91.0244 127.093 90.9805 127.874 91.1073 128.587C91.2878 129.608 91.9608 130.54 92.8387 131.121C92.4144 131.883 92.3022 132.806 92.4583 133.719C92.7119 135.194 93.6581 136.044 94.8482 136.498C94.458 137.416 94.5653 138.539 94.9945 139.428C95.2627 139.98 95.6188 140.375 96.0284 140.663C95.0384 141.044 94.8335 142.812 96.1553 143.246C96.7503 143.442 97.3453 143.642 97.9403 143.837C97.2965 144.018 96.7795 144.604 97.0234 145.434C97.1209 145.776 97.199 146.122 97.2624 146.469C97.2965 146.65 97.3258 146.835 97.3551 147.016C97.3599 147.036 97.3746 147.143 97.3794 147.207C97.399 147.343 97.4136 147.475 97.4282 147.612C97.5404 148.637 97.6038 149.668 97.6526 150.693C97.6672 151.084 97.6818 151.47 97.6965 151.855C97.4867 151.689 97.2136 151.587 96.8576 151.601C92.7899 151.787 88.7223 151.973 84.6547 152.158C84.0645 152.182 83.4695 152.212 82.8794 152.236C82.7818 152.241 82.6891 152.256 82.6014 152.28C82.5672 151.328 82.5282 150.376 82.4941 149.428C82.4941 149.336 82.4892 149.248 82.4843 149.155C82.4599 148.418 81.9478 147.993 81.3772 147.89C80.6212 147.749 79.7677 148.169 79.8018 149.155C79.9237 152.48 80.0457 155.801 80.1676 159.121C80.2164 160.474 80.2261 161.836 80.3188 163.189C80.4017 164.39 80.4456 165.513 80.1383 166.695C79.7872 168.033 79.1239 169.288 78.1874 170.309C76.7291 171.896 74.7587 172.887 72.6127 173.097C71.5592 173.195 70.5106 173.292 69.4571 173.39C65.292 173.781 61.1219 174.171 56.9519 174.562C55.0107 174.748 53.0696 174.928 51.1284 175.109C50.6992 175.153 50.2651 175.182 49.8311 175.211C49.914 174.918 50.0018 174.625 50.0895 174.342C50.7724 172.203 51.4405 170.06 52.1087 167.911C53.8792 162.227 55.635 156.533 57.3908 150.84C58.5321 147.128 59.6392 143.398 60.839 139.701C61.2195 138.524 61.6048 137.372 61.8047 136.141C62.2144 133.67 62.1998 131.17 61.8925 128.685C61.2682 123.636 59.6929 118.796 58.2492 113.938C57.6249 111.838 57.025 109.733 56.6153 107.585C56.2154 105.461 55.9325 103.322 55.674 101.178C55.1131 96.5244 54.7181 91.8366 53.8889 87.2171C53.7182 86.2698 53.5231 85.3224 53.289 84.3898C53.1183 83.7012 52.5818 83.418 52.0356 83.4375C53.1866 82.5976 54.5279 81.8994 55.7959 81.2304C57.3079 80.4295 58.8442 79.6775 60.4098 78.9841C62.0827 78.237 63.7898 77.5729 65.4822 76.8795C64.931 79.3992 64.3994 81.9287 63.8239 84.4435C63.78 84.629 63.7751 84.8195 63.8044 85.0002C63.3654 85.1564 62.946 85.3469 62.59 85.6838C60.6927 87.4564 62.0535 89.8198 62.7802 91.7584C65.053 97.8282 67.3307 103.903 69.6035 109.973C70.2619 111.721 70.9154 113.469 71.569 115.217C71.8226 115.896 72.4762 116.36 73.2175 116.155C73.8711 115.974 74.4124 115.183 74.1539 114.499C72.5396 110.183 70.9203 105.866 69.3011 101.544C68.1793 98.5509 67.0575 95.5526 65.9358 92.5593C65.5505 91.5387 65.17 90.5181 64.7847 89.4975C64.6287 89.0825 64.4189 88.6527 64.3068 88.223C64.2043 87.8177 64.3458 87.6517 64.7067 87.5199C65.3749 87.2708 66.0723 87.0901 66.7551 86.8802C68.0866 86.4602 69.423 86.0451 70.7545 85.6252C72.3981 85.1125 71.6958 82.5195 70.0424 83.0371C68.906 83.3887 67.7745 83.7452 66.643 84.1017C67.277 81.2597 67.8672 78.4079 68.5158 75.5708V75.5561C69.9449 74.8627 71.2959 74.0619 72.5883 73.1488C72.6274 76.1958 72.9054 79.2576 73.1395 82.2754C73.6174 88.3451 74.2271 94.41 74.8758 100.465C75.5732 106.994 76.3243 113.523 77.1047 120.046C77.7387 125.369 78.3923 130.687 79.0653 136.005C79.3824 138.524 79.7043 141.039 80.0359 143.559C80.0408 143.593 80.0457 143.627 80.0505 143.661C80.1383 144.36 80.5773 144.965 81.3284 144.999C81.3479 144.999 81.3674 145.004 81.3918 145.004C82.0405 145.004 82.8257 144.384 82.733 143.661C82.4599 141.606 82.1965 139.545 81.938 137.484C81.2942 132.425 80.6651 127.366 80.0554 122.303C79.2751 115.837 78.524 109.367 77.8216 102.892C77.2364 97.5596 76.6901 92.2174 76.2121 86.8704C80.4115 89.3706 84.6108 91.8707 88.8101 94.3758C89.4344 94.7469 90.0636 95.118 90.6879 95.494C91.2292 95.8163 91.8633 95.6747 92.3169 95.2841C95.6627 92.3493 99.0085 89.4194 102.354 86.4846C102.754 86.1379 103.154 85.7863 103.554 85.4396C103.047 89.5903 102.432 93.7312 101.769 97.8575C101.354 100.436 100.92 103.004 100.467 105.573C100.34 106.286 100.657 107.018 101.403 107.223C101.554 107.267 101.715 107.272 101.876 107.258C102.418 107.199 102.954 106.838 103.052 106.286C104.773 96.5293 106.427 86.68 107.1 76.7867C107.207 75.229 107.28 73.6713 107.28 72.1086C108.358 72.763 109.504 73.2904 110.738 73.6566C112.631 74.223 114.611 74.4233 116.562 74.6674C118.82 74.9458 121.044 75.3413 123.224 75.9956C125.238 76.6011 127.316 77.0797 129.262 77.9001C131.184 78.7155 132.652 79.8973 133.496 81.8359C133.783 82.5049 134.759 82.6562 135.329 82.3193C135.646 82.1337 135.827 81.8749 135.91 81.5819C136.012 81.2352 135.968 80.8446 135.812 80.4832C134.047 76.4058 129.74 75.0825 125.814 73.9545C123.522 73.2953 121.263 72.6458 118.898 72.2942C116.893 71.9963 114.903 71.8498 112.928 71.4397C110.743 70.9855 108.753 70.1114 107.032 68.6758C106.783 68.4707 106.485 68.3437 106.188 68.3144C105.915 68.0312 105.646 67.7431 105.388 67.4501C105.125 67.1523 104.871 66.8495 104.622 66.5419C104.608 66.5174 104.598 66.5077 104.583 66.493C104.583 66.493 104.578 66.4849 104.569 66.4686C104.505 66.3905 104.447 66.3075 104.383 66.2245C104.266 66.0584 104.149 65.8924 104.037 65.7215C103.822 65.3992 103.617 65.0672 103.432 64.7253C103.335 64.5495 103.237 64.364 103.149 64.1784C103.105 64.0856 103.061 63.9929 103.018 63.8952C103.003 63.8708 102.993 63.8464 102.988 63.8317C102.652 63.026 102.418 62.1763 102.257 61.3218C102.145 60.7212 101.476 60.3012 100.876 60.3354C100.784 60.3403 100.696 60.3549 100.608 60.3842C99.8668 60.6235 99.5303 61.2925 99.6718 62.0347C100.008 63.8317 100.706 65.5555 101.72 67.079C102.544 68.3144 103.535 69.4278 104.569 70.4972C104.734 74.6039 104.315 78.7448 103.866 82.8174C103.847 82.9834 103.822 83.1494 103.808 83.3155C103.266 82.7734 102.457 82.8369 101.91 83.3155C98.5646 86.2502 95.2139 89.1801 91.8681 92.1149C91.6535 92.3053 91.4341 92.4909 91.2195 92.6813C87.0982 90.23 82.9769 87.7738 78.8556 85.3176C78.2313 84.9464 77.6022 84.5704 76.9779 84.1993C76.617 83.9845 76.2707 83.96 75.9683 84.0528C75.6464 80.2537 75.3098 76.4205 75.2806 72.597C75.3635 72.514 75.4367 72.4261 75.4854 72.3137C76.6755 69.6573 77.329 66.703 77.451 63.7682C79.8067 65.1795 82.4355 66.0877 85.2204 66.1659C90.3464 66.3075 95.3261 63.6315 98.7207 59.9154C99.3011 59.2806 99.8425 58.6116 100.35 57.9133C100.789 57.3078 101.193 56.673 101.569 56.0236C103.066 53.4648 104.071 50.6082 104.349 47.6734C104.642 47.771 104.944 47.8443 105.266 47.8736C106.002 47.9468 106.797 47.7417 107.431 47.3657C108.939 46.4868 109.69 44.5677 109.114 42.9025C109.095 42.8537 109.07 42.8049 109.046 42.7512C110.816 40.2461 111.694 37.1844 110.45 34.1568C109.909 32.8481 109.139 31.5932 107.909 30.8314C106.578 30.0013 105.056 30.1087 103.686 30.68C103.588 30.4896 103.442 30.3138 103.222 30.1722C99.9644 28.0431 96.9844 25.4551 94.6189 22.3445C92.2242 19.1851 90.483 15.5911 89.21 11.8457C88.8589 10.8056 87.6737 10.7177 87.0104 11.2158C86.6348 11.499 86.4202 11.9629 86.6251 12.5587C87.9907 16.5873 89.8343 20.4547 92.4193 23.8485C95.0384 27.2862 98.2574 30.1331 101.867 32.4917C101.954 32.5454 102.042 32.5893 102.125 32.6235C102.33 33.4097 103.169 34.0494 104.066 33.5025C104.388 33.3023 104.705 33.1167 105.066 33.0093C105.198 32.9702 105.329 32.936 105.461 32.9116C105.5 32.9165 105.71 32.897 105.715 32.897C105.788 32.897 105.861 32.9019 105.934 32.9067C106.051 32.9312 106.168 32.9653 106.28 33.0044C106.324 33.0239 106.417 33.0679 106.456 33.0874C106.534 33.1363 106.612 33.1851 106.685 33.2388C106.724 33.273 106.822 33.3511 106.846 33.3755C106.939 33.4732 107.036 33.5757 107.129 33.6734C107.168 33.7173 107.192 33.7369 107.207 33.7515C107.207 33.7613 107.217 33.7808 107.251 33.8199C107.314 33.9176 107.383 34.0152 107.441 34.1129C107.573 34.3229 107.69 34.5377 107.797 34.7575C107.846 34.8551 107.895 34.9577 107.939 35.0553C107.948 35.0797 107.958 35.109 107.973 35.1432C108.724 37.1502 108.241 39.0497 107.207 40.7002C106.695 40.4463 106.115 40.3096 105.554 40.2998C104.822 40.2901 104.017 40.5098 103.417 40.9395C102.72 41.4376 102.237 42.0626 101.935 42.8635C101.764 43.3225 101.71 43.8255 101.745 44.3187C101.715 44.431 101.696 44.5482 101.706 44.6702C102.369 53.3134 95.3798 62.8551 86.4154 63.4606C81.4991 63.7878 77.1388 60.9067 73.9784 57.3762C73.1639 56.4679 72.4225 55.5011 71.7446 54.4854C71.1447 53.582 70.5692 52.6884 70.3058 51.8094C69.6961 49.7829 69.5059 47.6343 69.1011 45.559C68.3841 41.8624 67.6477 38.1757 66.8137 34.5035C66.6381 33.7369 66.0089 33.4732 65.409 33.5611C64.6921 33.6685 64.0141 34.2984 64.2238 35.2165C65.0091 38.6493 65.7748 42.0968 66.3942 45.5639C66.7795 47.7124 67.0429 49.9245 67.5843 52.0389C67.7989 52.8691 68.1354 53.665 68.5451 54.4317C69.3401 55.9308 70.418 57.3078 71.4763 58.5726C72.4615 59.7543 73.5687 60.8676 74.7734 61.8638C74.8709 64.2273 74.5978 66.6932 73.9101 68.959C73.4516 68.9932 73.0029 69.2276 72.7786 69.6671C72.6908 69.7159 72.6079 69.7745 72.5249 69.8429C68.628 73.1048 64.0044 74.4867 59.4002 76.5132C57.8639 77.1871 56.3519 77.9147 54.8644 78.6862C53.3573 79.4724 51.8259 80.2537 50.4602 81.2694C48.202 82.9541 46.4853 85.1369 45.3586 87.7201C43.8028 91.3141 43.2272 95.2157 42.4079 99.0197C42.2908 99.5617 42.481 100.001 42.798 100.294C43.476 100.914 44.7441 100.88 44.9928 99.7326C46.1243 94.493 46.7633 88.4721 50.6699 84.5948C50.6553 84.7511 50.6553 84.922 50.7041 85.1027C52.8159 93.6189 52.4501 102.579 54.6547 111.081C55.6057 114.758 56.8299 118.362 57.8151 122.029C57.7273 122.21 57.6688 122.405 57.6395 122.615C57.6298 122.713 57.6152 122.81 57.6054 122.903C57.5956 122.962 57.5859 123.025 57.581 123.084C57.5518 123.284 57.5225 123.484 57.4932 123.684C57.3274 124.842 57.1421 125.994 56.9372 127.142C56.3373 130.57 55.6106 133.983 54.64 137.328C54.3815 138.207 54.1035 139.086 53.806 139.955C53.6695 140.346 53.528 140.732 53.3817 141.117C53.3134 141.308 53.2403 141.493 53.1671 141.679C53.1232 141.781 53.0842 141.884 53.0403 141.986C53.0403 141.991 52.9866 142.118 52.9574 142.182C52.655 142.89 52.3233 143.588 51.9527 144.262C51.7771 144.575 51.5966 144.882 51.4015 145.185C51.3137 145.322 51.2259 145.458 51.1333 145.59C51.0845 145.663 51.0309 145.732 50.9821 145.805C50.9675 145.825 50.9577 145.839 50.9479 145.854C50.7577 146.093 50.5578 146.328 50.3432 146.547C50.2603 146.63 50.1725 146.713 50.0798 146.796C50.0164 146.855 49.9481 146.914 49.8798 146.972C49.6701 147.104 49.4701 147.241 49.2458 147.353C49.1141 147.421 48.9775 147.48 48.841 147.543C48.841 147.543 48.8393 147.545 48.8361 147.548C48.8361 147.548 48.8117 147.558 48.802 147.563H48.7922C48.7922 147.563 48.7922 147.563 48.7922 147.568H48.7727L48.7385 147.587C48.7044 147.602 48.6703 147.617 48.6361 147.627C48.007 147.871 47.3632 148.061 46.7096 148.212C46.3536 148.295 45.9975 148.369 45.6366 148.427C45.5781 148.437 45.3147 148.476 45.2659 148.486C45.0708 148.505 44.8758 148.53 44.6807 148.545C42.9785 148.696 41.5592 148.618 40.0912 148.252C39.7205 148.159 39.3547 148.051 38.9889 147.924C38.4914 147.744 38.5207 147.758 38.0183 147.5C37.1746 147.07 36.6429 146.699 36.0528 146.137C34.775 144.926 33.9751 143.364 33.5313 141.562C33.3849 140.961 33.2776 140.365 33.1118 139.77C31.673 134.54 30.2391 129.31 28.8003 124.08C28.0492 121.355 27.3176 118.621 26.5714 115.896C26.6641 115.94 26.7519 115.998 26.8494 116.042C28.4638 116.77 30.2684 116.78 31.9266 116.169C35.5017 114.856 38.2866 111.711 40.2472 108.542C40.8179 107.619 41.3544 106.637 41.7738 105.612C42.3054 107.135 42.8322 108.659 43.3638 110.183C44.7294 114.104 46.0902 118.02 47.4558 121.941C47.7728 122.854 48.0899 123.767 48.4069 124.681C48.6459 125.364 49.3238 125.818 50.0554 125.618C50.7236 125.437 51.2357 124.656 50.9967 123.968C50.1334 121.497 49.275 119.026 48.4166 116.56C47.0559 112.639 45.6903 108.718 44.3295 104.801C44.0076 103.888 43.6906 102.975 43.3736 102.062C43.2224 101.632 42.9005 101.29 42.4957 101.149C42.2615 101.066 41.9933 101.046 41.725 101.124C41.7153 101.124 41.7104 101.129 41.7055 101.129C41.252 99.5373 40.7935 97.9405 40.3399 96.3486C41.0569 93.3015 40.8276 90.1763 39.4815 87.3294C38.3793 85.005 36.4527 83.3594 34.853 81.4062C34.614 81.1132 34.5067 80.9862 34.2189 80.5321C34.1019 80.3465 33.9946 80.161 33.8922 79.9656C33.858 79.8924 33.819 79.8191 33.7849 79.7459C33.7556 79.6873 33.7263 79.6287 33.6971 79.5652C33.6922 79.5506 33.6873 79.5408 33.6825 79.5261C33.6727 79.5115 33.6678 79.492 33.6581 79.4724C33.1947 78.3102 32.8436 77.0504 32.6143 75.8198C32.3656 74.5258 32.1559 73.2708 31.3804 72.1575C30.839 71.3859 30.1659 70.6632 29.1759 70.5705C28.3516 70.4972 27.5859 70.8488 26.9274 71.3225C26.2836 71.7815 25.6496 72.2893 25.2936 73.012C24.9375 73.7299 24.8107 74.5307 24.7961 75.3266C24.7815 76.0689 24.8595 76.816 24.9912 77.5582C23.8011 76.6842 22.6111 75.8101 21.4113 74.9409C20.0456 73.9496 18.6751 72.9632 17.3144 71.9573C17.129 71.8157 16.9437 71.6789 16.7584 71.5373C16.6803 71.4787 16.534 71.3615 16.4755 71.3225C16.3097 71.1955 16.1389 71.0685 15.9682 70.9465C15.1684 70.38 14.3149 69.9063 13.3931 69.5645C12.3981 69.1983 11.2568 69.0762 10.2521 69.4717C9.73999 69.672 9.3303 69.9991 9.0084 70.4044C8.45239 70.0235 7.84761 69.5401 7.32575 69.2422C6.10155 68.5391 4.51157 68.3682 3.28738 69.1836C2.11683 69.9601 1.86809 71.0783 2.10708 72.1917C1.14138 72.5628 0.312248 73.3685 0.0781392 74.394C-0.165724 75.4341 0.185439 76.5035 0.795096 77.3531C1.31209 78.0759 1.92174 78.6325 2.58017 79.2136C2.62407 79.2527 2.66309 79.2966 2.70698 79.3357C2.72649 79.3797 2.74112 79.4236 2.76063 79.4675C2.79477 79.5359 2.84354 79.5945 2.88744 79.6531C2.10708 81.4062 3.5605 82.9785 4.77494 84.0968C9.30591 88.2816 14.1051 92.1881 18.8605 96.1142C20.1334 97.1641 21.4064 98.2091 22.6842 99.2541C23.4256 101.808 24.1718 104.367 24.918 106.921C25.1277 107.638 25.3375 108.351 25.5472 109.069C25.6886 109.553 25.8252 110.036 25.9666 110.519C26.4495 112.175 29.0393 111.472 28.5565 109.807C27.7663 107.106 26.9811 104.406 26.191 101.705C25.8545 100.548 25.5569 99.3664 25.1765 98.2237C24.9424 97.5108 24.3474 97.1641 23.7914 96.7099C20.9284 94.366 18.0801 92.0075 15.2464 89.6294C12.1396 87.0218 9.0084 84.4239 6.06254 81.6308C5.87232 81.4501 5.29193 80.952 5.36021 80.7079H5.36509C5.35533 80.7567 5.45776 80.6395 5.53091 80.6053C5.54555 80.6004 5.60407 80.5711 5.63821 80.5565C5.74551 80.5272 5.95524 80.493 5.95524 80.4832C7.34038 80.4198 8.69626 81.8603 9.7595 82.7441C11.6909 84.3458 13.7735 85.7131 15.8219 87.1487C16.0853 87.7884 16.7437 88.0179 17.407 87.9203C17.4558 87.9154 17.49 87.9105 17.5095 87.9056C17.568 87.9007 17.6265 87.891 17.685 87.8861C17.8362 87.8714 17.9826 87.8568 18.1289 87.8421C18.4654 87.8128 18.8019 87.7933 19.1385 87.7835C19.8066 87.764 20.4748 87.7738 21.143 87.808C22.6062 87.8861 24.0596 88.0961 25.4887 88.4379C28.0785 89.0532 30.7756 90.0689 32.4436 92.1491C32.8972 92.7106 33.8678 92.6227 34.3409 92.1491C34.8969 91.5875 34.7945 90.816 34.3409 90.2495C32.3851 87.8128 29.1515 86.5481 26.2007 85.8449C23.4353 85.1857 20.548 84.922 17.7143 85.2101C16.3877 84.2677 15.0172 83.3936 13.7003 82.4365C12.9053 81.8652 12.1396 81.2499 11.3885 80.62C10.4326 79.8191 9.50588 78.9353 8.36948 78.3933C7.36476 77.9147 6.10155 77.6852 4.99929 77.944C4.68227 77.3971 4.12139 77.0504 3.67268 76.6109C3.54099 76.4839 3.41906 76.357 3.30201 76.2203C3.24348 76.1568 3.18983 76.0884 3.1313 76.0249C3.1313 76.0249 3.12155 76.0054 3.11667 76.0005C3.01425 75.8589 2.92158 75.7124 2.83867 75.5561C2.8094 75.5073 2.78014 75.4487 2.75575 75.395C2.74112 75.3608 2.72649 75.3218 2.71674 75.2876C2.7021 75.2387 2.69235 75.1899 2.6826 75.1362V75.1215C2.6826 75.1215 2.72649 74.9897 2.72161 74.9702C2.72161 74.9653 2.72649 74.9604 2.72649 74.9555C2.73137 74.9458 2.74112 74.936 2.746 74.9311C2.75088 74.9262 2.84842 74.8286 2.92158 74.7553C2.92646 74.7455 2.93134 74.7455 2.94109 74.7407C2.9606 74.7211 2.97035 74.7114 2.98499 74.7016C2.99474 74.7016 3.00449 74.6967 3.01913 74.6918C3.01425 74.6967 3.01425 74.7016 3.00937 74.7065C3.024 74.6967 3.04351 74.6918 3.05814 74.6821C3.09228 74.6723 3.12643 74.6625 3.15569 74.6528C3.17032 74.6528 3.18983 74.6479 3.19958 74.6479H3.20446C3.20446 74.6479 3.27762 74.6674 3.33127 74.6821C3.34103 74.6869 3.35078 74.6918 3.36053 74.6967C3.41906 74.726 3.47759 74.7602 3.53124 74.7993C3.54587 74.8041 3.5605 74.8139 3.57513 74.8237C3.58001 74.8286 3.58001 74.8334 3.58489 74.8383C3.74584 75.0092 3.9263 75.1167 4.10675 75.185C4.28234 75.3022 4.46279 75.4194 4.64325 75.5366L7.11602 77.1774C9.06693 78.4763 11.0178 79.7703 12.9687 81.0643C13.4321 81.372 13.9003 81.6796 14.3636 81.9873C14.9684 82.3877 15.8463 82.1045 16.1975 81.5038C16.5828 80.8495 16.3243 80.0682 15.7146 79.6678C12.559 77.5729 9.39858 75.478 6.23812 73.3832C5.95036 73.1878 5.6626 72.9974 5.36996 72.8069C5.33095 72.7581 5.29193 72.7142 5.25291 72.6653C5.2334 72.636 5.05294 72.3772 5.03343 72.3479C4.9554 72.221 4.87736 72.0891 4.80908 71.9524C4.73592 71.801 4.74568 71.7619 4.66764 71.552C4.71153 71.6692 4.72129 71.4641 4.67252 71.5031C4.73104 71.425 4.83834 71.3566 5.08708 71.3225C5.76502 71.2297 6.35029 71.7815 6.95995 72.2063C7.51108 72.5921 8.05246 72.9827 8.65236 73.2757C8.71089 73.3294 8.77429 73.3783 8.8377 73.4271C12.1689 75.7368 15.5098 78.0221 18.841 80.3319C19.436 80.7469 20.3285 80.4442 20.6748 79.8533C21.065 79.1843 20.7919 78.4274 20.192 78.0124C17.2607 75.9761 14.3149 73.9594 11.3787 71.928C11.3983 71.9231 11.408 71.9182 11.408 71.9133C12.0762 71.8205 12.8029 72.1721 13.3931 72.4944C13.7442 72.6849 14.0807 72.8948 14.4075 73.1195C14.549 73.2122 14.6855 73.3099 14.8221 73.4076C14.8855 73.4564 14.944 73.5052 15.0074 73.5492C15.0269 73.5638 15.0318 73.5687 15.0416 73.5736C15.066 73.5931 15.0806 73.6029 15.1098 73.6273C15.5293 73.9496 15.9536 74.267 16.3828 74.5795C19.1238 76.5963 21.8941 78.5739 24.6303 80.5956C26.191 81.748 27.8249 82.8613 29.2393 84.1896C30.4976 85.3713 32.3997 83.4766 31.1365 82.29C30.2976 81.5038 29.3807 80.786 28.4492 80.0926C27.9078 78.4567 27.2445 76.4693 27.5176 74.7944C27.6249 74.1498 27.8249 73.9496 28.4589 73.5199C28.5321 73.4662 28.7418 73.388 28.8588 73.3148C28.9418 73.4125 29.0637 73.5101 29.1271 73.598C29.2637 73.7885 29.3905 74.0082 29.488 74.223C29.7855 74.8872 29.8733 75.6294 29.9952 76.3375C30.1318 77.1334 30.3562 77.9147 30.5756 78.6862C30.9366 79.9266 31.3901 81.1669 32.1364 82.2314C33.7946 84.59 36.2381 86.3528 37.3453 89.0825C38.0037 90.7134 38.2134 92.4714 38.033 94.2147C37.9452 95.0399 37.4965 95.9726 37.6818 96.7881C37.7355 97.0371 37.8232 97.2862 37.8915 97.5303C38.4475 99.4738 39.0035 101.417 39.5547 103.361C39.5839 103.454 39.6181 103.532 39.6522 103.61C39.3596 104.63 38.9548 105.426 38.3695 106.457C37.5257 107.951 36.6429 109.167 35.5163 110.383C34.375 111.613 33.3459 112.522 31.8876 113.274C31.4438 113.503 31.5413 113.464 31.1024 113.62C30.7561 113.742 30.4049 113.83 30.0489 113.899C30.0343 113.899 30.0294 113.903 30.0245 113.903C29.9562 113.908 29.8879 113.918 29.8197 113.923C29.6441 113.933 29.4685 113.938 29.2978 113.933C29.2393 113.933 29.0442 113.913 28.9905 113.908C28.8247 113.884 28.6638 113.85 28.5028 113.806C27.9078 113.64 27.3176 113.278 26.8104 112.79C26.0252 112.033 25.4887 111.135 24.9961 110.134C24.9814 110.104 24.9668 110.085 24.9522 110.06C24.918 109.948 24.8888 109.836 24.8546 109.719C24.8302 109.636 24.8107 109.553 24.7863 109.47C24.6107 108.84 24.1328 108.552 23.6255 108.522C23.0305 109.279 22.5428 110.08 22.4648 111.149C23.5524 115.1 24.6351 119.05 25.7228 122.996C27.2835 128.665 28.8393 134.33 30.3952 139.994C31.039 142.319 31.4682 144.662 32.9509 146.65C35.2773 149.756 38.9596 151.181 42.7639 151.294C44.3978 151.338 46.0609 151.147 47.646 150.752C48.9288 150.429 50.309 149.985 51.382 149.189C53.9621 147.26 55.279 143.866 56.3129 140.932C57.6347 137.191 58.576 133.294 59.2978 129.368C59.4051 130.409 59.4685 131.449 59.4588 132.499C59.4393 134.657 59.0539 136.678 58.3565 138.72C57.2835 141.855 56.3812 145.053 55.4058 148.222C53.6646 153.857 51.9332 159.497 50.1822 165.128C49.0409 168.795 47.9484 172.487 46.6999 176.115C46.6803 176.173 46.656 176.232 46.6364 176.291C46.6267 176.325 46.6267 176.335 46.6364 176.335C46.4121 177.145 46.9145 178.195 47.8899 178.102C48.6312 178.034 49.3775 177.961 50.1188 177.892V193.738H52.8013V177.643C53.7475 177.55 54.6937 177.463 55.6399 177.375C59.9904 176.964 64.3409 176.559 68.6914 176.149C69.9351 176.032 71.1788 175.915 72.4225 175.797C74.6075 175.597 76.6901 174.982 78.4703 173.654C81.1577 171.652 82.8403 168.629 83.0842 165.274C83.1866 163.853 82.9867 162.315 82.933 160.884C82.8647 158.892 82.7916 156.904 82.7184 154.912C82.7769 154.912 82.8355 154.927 82.8989 154.922C86.9665 154.736 91.0341 154.551 95.1066 154.37C95.6968 154.341 96.2869 154.316 96.8771 154.287C97.2673 154.268 97.5648 154.116 97.7794 153.892C97.8135 155.264 97.8379 156.631 97.8721 158.003C97.9403 160.445 98.0184 162.901 98.3013 165.328C98.5207 167.188 98.7792 169.166 99.6864 170.841C101.106 173.468 103.964 175.299 106.612 176.501C108.553 177.38 110.636 177.78 112.738 178.034C117.362 178.595 122.088 178.342 126.711 177.892C127.857 177.78 129.004 177.653 130.15 177.511C130.135 177.594 130.125 177.682 130.125 177.775C130.13 183.049 130.364 188.337 130.798 193.592C130.798 193.64 130.808 193.689 130.813 193.738H133.481C133.481 193.689 133.481 193.64 133.481 193.592C133.047 188.337 132.813 183.049 132.808 177.775C132.808 177.541 132.759 177.345 132.676 177.174C133.627 177.033 134.578 176.886 135.52 176.711C136.198 176.588 136.69 175.7 136.456 175.06C134.32 169.107 132.242 163.13 130.272 157.124C130.086 156.568 129.667 156.289 129.213 156.216C128.335 156.079 127.326 156.748 127.682 157.837C129.501 163.37 131.408 168.873 133.369 174.357C133.198 174.386 133.032 174.415 132.866 174.44C132.564 174.489 132.262 174.533 131.954 174.577C131.789 174.601 131.618 174.625 131.447 174.65C131.384 174.66 131.106 174.694 130.998 174.713C130.086 174.831 129.179 174.943 128.267 175.045C123.804 175.539 119.273 175.841 114.786 175.539C112.743 175.402 110.924 175.182 108.9 174.523C108.7 174.459 108.504 174.391 108.309 174.318C108.217 174.284 108.124 174.245 108.031 174.205C108.022 174.205 108.017 174.205 108.012 174.205C107.997 174.196 107.987 174.196 107.968 174.186C107.412 173.927 106.875 173.634 106.339 173.336C105.037 172.599 103.788 171.774 102.798 170.641C102.452 170.245 102.154 169.801 101.92 169.332C101.896 169.283 101.871 169.234 101.852 169.186C101.832 169.137 101.798 169.059 101.788 169.029C101.715 168.824 101.647 168.624 101.584 168.419C101.33 167.574 101.174 166.7 101.047 165.826C101.042 165.782 101.037 165.758 101.033 165.733C101.033 165.704 101.028 165.675 101.023 165.621C101.003 165.504 100.989 165.382 100.979 165.26C100.945 164.986 100.915 164.713 100.891 164.439C100.837 163.868 100.794 163.292 100.755 162.715C100.676 161.519 100.628 160.323 100.589 159.126C100.501 156.421 100.481 153.711 100.369 151.006C100.277 148.93 100.218 146.733 99.6279 144.726C99.5791 144.57 99.5108 144.438 99.4328 144.326C103.354 145.615 107.28 146.904 111.202 148.193C116.928 150.078 122.658 151.963 128.384 153.843C129.355 154.165 130.325 154.482 131.301 154.805C131.803 154.971 132.306 155.166 132.818 155.303C133.939 155.61 135.115 155.147 135.661 154.097C135.827 153.774 135.949 153.403 136.09 153.071C136.432 152.261 136.773 151.45 137.11 150.639C137.31 150.166 137.075 149.629 136.695 149.292C137.958 149.746 139.221 150.205 140.49 150.654C143.182 151.606 145.855 152.456 148.756 152.334C154.063 152.104 158.911 148.955 160.823 143.925C161.691 141.64 161.779 139.066 161.145 136.713C160.798 135.404 160.218 134.134 159.477 133.001C159.077 132.381 158.618 131.79 158.135 131.229C158.072 131.156 157.716 130.75 157.687 130.75C157.672 130.731 157.662 130.711 157.653 130.692C155.911 127.596 154.131 124.524 152.371 121.438C151.98 120.755 151.288 120.667 150.732 120.916C151.024 120.32 151.317 119.729 151.615 119.133C153.946 114.426 156.282 109.714 158.613 105.006L158.594 105.002ZM29.0003 73.2367C29.0003 73.2367 28.9808 73.2415 28.9466 73.2171C29.1417 72.929 29.0052 73.2513 29.0003 73.2367ZM160.564 95.8407C160.564 95.8407 160.598 95.8505 160.608 95.8505C160.555 95.8749 160.516 95.8603 160.481 95.831C160.511 95.831 160.54 95.8407 160.564 95.8407ZM160.408 95.2792C160.408 95.2792 160.423 95.2548 160.433 95.245C160.418 95.2694 160.408 95.3036 160.394 95.3329C160.394 95.3231 160.394 95.3134 160.399 95.3036C160.403 95.2938 160.403 95.2841 160.408 95.2792ZM132.998 87.974C133.115 87.5736 133.227 87.178 133.344 86.7776C133.388 86.6214 133.432 86.1721 133.564 86.05C133.666 85.9524 133.9 86.0647 134.091 86.1184C134.569 86.26 135.051 86.3967 135.529 86.5383C138.982 87.5394 142.431 88.5453 145.879 89.5464C146.654 89.771 147.43 90.0005 148.205 90.2251C148.596 90.3374 149.108 90.4009 149.469 90.5914C149.493 90.606 149.595 90.6109 149.615 90.6304C149.727 90.7525 149.517 91.2066 149.469 91.3775C149.381 91.6803 149.117 93.199 148.81 93.1355C146.337 92.4128 143.865 91.6949 141.392 90.9771C139.617 90.4595 137.836 89.9419 136.056 89.4243C135.393 89.229 134.73 89.0385 134.061 88.8432C133.759 88.7553 133.31 88.7065 133.032 88.5453C132.793 88.4037 132.905 88.2865 132.998 87.974ZM134.505 149.922C134.217 150.6 133.935 151.284 133.647 151.968C133.554 152.187 133.452 152.412 133.359 152.637C133.247 152.602 133.105 152.573 133.071 152.563C132.744 152.456 132.423 152.349 132.101 152.246C129.443 151.372 126.784 150.498 124.126 149.624C116.82 147.221 109.519 144.819 102.218 142.416C101.096 142.05 99.979 141.679 98.8573 141.313C99.6961 141.293 100.55 141.176 101.315 141.117C102.764 140.995 104.217 140.966 105.661 140.844C106.349 140.785 107.032 140.702 107.709 140.59C107.861 140.565 108.017 140.536 108.168 140.512C108.231 140.512 108.373 140.487 108.392 140.482C108.524 140.473 108.661 140.458 108.792 140.443C110.924 140.238 113.084 140.248 115.22 140.346C115.835 140.37 116.45 140.409 117.059 140.463C117.371 140.487 117.688 140.517 117.996 140.551C118.098 140.561 118.196 140.575 118.298 140.585C118.308 140.585 118.503 140.614 118.557 140.619C119.015 140.683 119.469 140.761 119.917 140.868C120.098 140.912 120.268 140.961 120.444 141.015C120.493 141.029 120.551 141.054 120.6 141.068C120.615 141.073 120.62 141.078 120.634 141.088C120.859 141.2 121.083 141.244 121.293 141.239C121.219 141.313 121.156 141.386 121.088 141.454C120.312 142.216 120.766 143.349 121.678 143.696C125.209 145.038 128.75 146.367 132.291 147.675C133.437 148.1 134.583 148.52 135.729 148.94C135.168 148.969 134.734 149.38 134.505 149.922ZM145.83 124.729C145.747 124.9 145.664 125.071 145.577 125.237C145.196 126.009 145.581 126.736 146.157 127.078C146.737 127.415 147.508 127.371 147.893 126.595C148.566 125.237 149.239 123.875 149.912 122.517C149.947 122.61 149.986 122.698 150.034 122.791C151.629 125.579 153.219 128.362 154.809 131.151C155.004 131.493 155.18 131.859 155.399 132.186C155.75 132.723 156.277 133.158 156.663 133.666C157.062 134.188 157.414 134.75 157.721 135.331C158.73 137.235 159.096 139.53 158.711 141.484C157.862 145.795 154.175 148.94 149.869 149.546C147.142 149.926 144.611 149.262 142.055 148.364C139.475 147.46 136.91 146.523 134.349 145.58C131.008 144.35 127.677 143.105 124.351 141.845C125.043 141.02 125.692 140.146 126.292 139.267C128.184 136.493 129.643 133.334 129.945 129.959C130.047 128.861 129.979 127.767 129.764 126.697C131.393 127.195 133.071 127.562 134.7 127.986C138.046 128.861 141.367 129.827 144.635 130.96L145.616 128.465C142.319 127.313 138.968 126.326 135.588 125.442C134.12 125.061 132.652 124.695 131.193 124.29C130.628 124.129 130.067 123.968 129.511 123.782C129.272 123.704 129.028 123.621 128.794 123.528C128.711 123.499 128.633 123.465 128.555 123.435C128.511 123.416 128.36 123.352 128.316 123.333C127.589 122.991 126.872 123.264 126.531 123.797C126.297 124.168 126.238 124.661 126.482 125.169C127.828 127.972 127.375 131.092 126.228 133.861C125.692 135.155 124.936 136.478 124.136 137.675C123.565 138.534 123.18 139.057 122.653 139.696C122.619 139.335 122.424 138.988 121.99 138.768C120.6 138.056 118.903 137.943 117.381 137.802C115.342 137.616 113.294 137.562 111.25 137.616C109.363 137.665 107.534 137.997 105.661 138.158C104.354 138.266 103.037 138.305 101.73 138.397C100.676 138.475 99.6181 138.685 98.5597 138.676C98.1257 138.671 97.8135 138.666 97.5063 138.422C97.4233 138.353 97.277 137.885 97.2868 137.782C97.2965 137.645 97.3063 137.562 97.3404 137.528C97.4965 137.362 97.8184 137.221 98.0184 137.133C98.3208 137.001 98.6524 136.898 98.9743 136.83C100.433 136.522 100.135 134.046 98.6183 134.193C97.4867 134.305 95.3749 134.559 95.0823 133.207C95.0432 133.021 95.014 132.65 95.1262 132.45C95.1944 132.332 95.5944 132.132 95.6822 132.098C96.3308 131.83 97.0234 131.639 97.7062 131.468C99.3791 131.038 98.6719 128.465 96.9941 128.875C96.326 129.041 95.4871 129.144 94.7067 129.041C94.6921 129.031 94.6628 129.022 94.6336 129.012C94.6092 129.007 94.5848 128.997 94.5653 128.992C94.5604 128.992 94.5506 128.992 94.5458 128.988C94.536 128.983 94.5262 128.983 94.5165 128.983C94.497 128.978 94.4872 128.978 94.4921 128.983C94.3946 128.934 94.2824 128.865 94.2043 128.807C93.9605 128.616 93.7703 128.348 93.7215 128.05C93.5996 127.313 93.7947 127.064 94.4628 126.78C95.1262 126.502 95.8041 126.248 96.482 126.009C98.1354 125.413 97.4526 123.172 95.7651 123.416C95.7065 123.426 95.6431 123.435 95.5846 123.445C95.5651 123.445 95.4042 123.465 95.3115 123.479C95.1505 123.499 94.9847 123.518 94.8189 123.538C94.0141 123.631 93.2045 123.714 92.39 123.743C92.073 123.753 91.756 123.728 91.4341 123.733H91.4146C91.3853 123.728 91.356 123.724 91.3414 123.714C91.117 123.557 91.3414 123.836 91.1122 123.557C91.078 123.518 90.9268 123.157 90.9171 123.035C90.8976 122.888 90.9024 122.732 90.9122 122.581C90.922 122.552 90.9366 122.469 90.9366 122.454C90.9512 122.41 90.9658 122.361 90.9805 122.317C91.0927 122.259 91.2829 122.127 91.3024 122.122C91.6633 121.956 92.2242 121.8 92.668 121.673C93.6874 121.384 94.7067 121.091 95.7309 120.803C96.6625 120.545 97.6233 120.349 98.5646 120.125C99.2962 119.949 100.023 119.773 100.755 119.597C100.94 119.597 101.12 119.558 101.286 119.47C101.452 119.426 101.623 119.387 101.793 119.348C103.471 118.943 102.764 116.355 101.081 116.755C100.901 116.799 100.72 116.843 100.54 116.887C100.52 116.882 100.501 116.877 100.481 116.872C100.33 116.838 100.179 116.809 100.033 116.77C99.6376 116.667 99.2426 116.54 98.867 116.384C98.3988 116.189 97.9062 115.95 97.4965 115.652C97.2819 115.495 97.1648 115.388 97.1063 115.222C97.1161 115.222 97.0917 115.075 97.0966 115.056C97.121 114.895 97.1746 114.758 97.2429 114.616C97.4136 114.26 97.5892 113.996 97.9647 113.83C98.6378 113.527 99.2962 113.874 99.9205 114.143C101.696 114.914 103.632 114.846 105.524 114.699C107.061 114.577 108.831 114.314 110.29 114.968C111.567 116.501 113.309 117.707 114.864 118.909C116.942 120.515 119.069 122.068 121.244 123.548C121.907 123.997 122.57 124.49 123.292 124.842C123.941 125.159 124.741 125.018 125.126 124.358C125.312 124.041 125.346 123.626 125.233 123.26C125.141 122.947 124.946 122.669 124.648 122.522C123.048 121.741 121.58 120.54 120.142 119.504C117.991 117.961 116.025 116.516 114.04 114.836C113.387 114.28 112.772 113.698 112.182 113.078C112.182 113.083 112.187 113.083 112.192 113.083L112.201 113.093L112.216 113.108C112.216 113.108 112.245 113.137 112.26 113.147C112.27 113.156 112.279 113.161 112.284 113.171C112.289 113.171 112.294 113.176 112.294 113.176V113.166C112.294 113.166 112.289 113.166 112.284 113.156C112.279 113.156 112.279 113.151 112.275 113.147C112.26 113.132 112.24 113.112 112.216 113.083C112.201 113.064 112.182 113.044 112.158 113.025C112.128 112.99 112.094 112.956 112.05 112.912C111.88 112.741 111.655 112.639 111.436 112.541C110.982 112.341 110.524 112.175 110.036 112.077C109.119 111.897 108.183 111.857 107.251 111.897C106.119 111.94 104.944 112.116 103.788 112.136C103.983 112.028 104.164 111.857 104.295 111.599C105.588 109.074 106.88 106.549 108.168 104.03C110.509 99.4591 112.85 94.8836 115.186 90.313C116.045 88.643 116.898 86.9729 117.752 85.3029C117.981 84.8537 118.21 84.4044 118.439 83.96C118.488 83.8673 118.552 83.7745 118.586 83.6768C118.6 83.6378 118.61 83.6036 118.62 83.584C119.181 83.7891 119.786 83.9161 120.356 84.0821C121.917 84.5363 123.483 84.9953 125.043 85.4494C126.853 85.9817 128.657 86.509 130.467 87.0364C130.418 87.2122 130.369 87.388 130.32 87.5638C129.925 89.1215 130.706 90.6011 132.237 91.109C132.54 91.2115 132.847 91.2896 133.149 91.3775C134.749 91.8414 136.344 92.3053 137.944 92.7692C141.328 93.7556 144.713 94.7371 148.098 95.7235C148.21 95.7528 148.313 95.7724 148.41 95.7773C149.976 95.9824 151.205 95.0253 151.649 93.4968C151.668 93.4187 151.697 93.3357 151.722 93.2527C152.263 93.4089 152.805 93.5701 153.341 93.7263C154.995 94.2098 156.648 94.6932 158.301 95.1766C158.809 95.3231 159.316 95.4745 159.828 95.621C159.921 95.6503 160.052 95.7089 160.184 95.7577C160.062 95.997 159.945 96.2412 159.828 96.4853C159.062 98.0235 158.301 99.5617 157.54 101.105C155.277 105.666 153.019 110.226 150.756 114.787C149.117 118.098 147.474 121.414 145.83 124.729Z" fill="var(--fill-0, #323232)"/>
<path id="Vector_28" d="M148.855 130.936C149.059 130.184 148.596 129.54 147.918 129.286C147.157 128.998 146.387 128.729 145.621 128.46L144.641 130.956C145.499 131.254 146.357 131.551 147.206 131.874C147.884 132.128 148.674 131.591 148.855 130.936Z" fill="var(--fill-0, #323232)"/>
<path id="Vector_29" d="M149.613 90.6308C149.613 90.6308 149.496 90.6064 149.471 90.5917C149.11 90.4013 148.598 90.3378 148.208 90.2255C147.433 90.0008 146.657 89.7762 145.882 89.5467C142.434 88.5457 138.985 87.5397 135.537 86.5387C135.059 86.3971 134.576 86.2604 134.098 86.1188C133.908 86.065 133.674 85.9527 133.572 86.0504C133.44 86.1725 133.401 86.6217 133.352 86.778C133.235 87.1784 133.123 87.5739 133.006 87.9743C132.918 88.2869 132.801 88.4041 133.04 88.5457C133.318 88.7068 133.762 88.7557 134.069 88.8435C134.732 89.0389 135.396 89.2293 136.059 89.4246C137.839 89.9422 139.619 90.4599 141.4 90.9775C143.872 91.6953 146.345 92.418 148.818 93.1358C149.12 93.2042 149.384 91.6855 149.471 91.3828C149.52 91.2119 149.73 90.7577 149.618 90.6308H149.613Z" fill="var(--fill-0, white)"/>
<path id="Vector_30" d="M91.1569 48.9137C90.9228 48.6695 90.6058 48.5133 90.2497 48.5523C87.7087 48.816 85.1725 49.0797 82.6314 49.3483C82.2656 49.3874 81.8998 49.4215 81.5341 49.4606C80.6903 49.5485 79.9831 50.2517 80.2416 51.1599C80.8415 53.2792 82.0559 55.711 84.0117 56.8537C85.5724 57.7717 87.455 57.5813 88.8451 56.4533C89.9766 55.5352 90.6253 54.0996 91.0447 52.7323C91.2886 51.9217 91.4593 51.0769 91.5519 50.2321C91.5812 50.1247 91.5958 50.0173 91.591 49.8952C91.6251 49.5241 91.4349 49.1676 91.1569 48.9137ZM83.246 51.6043C83.2313 51.5604 83.2118 51.5164 83.1923 51.4725C83.1874 51.4285 83.2313 51.4725 83.2557 51.6336C83.2508 51.6238 83.2508 51.6141 83.246 51.6043ZM88.6207 51.4236C88.5573 51.6776 88.489 51.9266 88.4061 52.1708C88.3671 52.3026 88.3232 52.4296 88.2744 52.5565C88.2598 52.6005 88.2257 52.7128 88.1964 52.8056C88.1915 52.8251 88.1866 52.8446 88.1769 52.8593V52.8397C88.1769 52.8397 88.1671 52.8642 88.1622 52.8788C88.1427 52.9276 88.1232 52.9765 88.0988 53.0253C88.0842 53.0644 88.0696 53.1034 88.0452 53.1376C88.0452 53.1425 88.0403 53.1425 88.0403 53.1474C88.0354 53.162 88.0257 53.1718 88.0208 53.1864C87.9867 53.245 87.9574 53.2988 87.9233 53.3525C87.8842 53.4257 87.8403 53.4941 87.8013 53.5624C87.7233 53.6943 87.6404 53.8213 87.5575 53.9482C87.538 53.9726 87.5184 54.0019 87.4989 54.0312C87.4746 54.0556 87.455 54.0752 87.4404 54.0898C87.3429 54.2021 87.2356 54.2998 87.1283 54.4024C87.1136 54.417 87.0893 54.4463 87.06 54.4707C87.0502 54.4756 87.0405 54.4756 87.0258 54.4854C86.9283 54.544 86.821 54.5977 86.7186 54.6612C86.6405 54.6807 86.5625 54.7149 86.4845 54.7344C86.4406 54.7442 86.3918 54.7539 86.343 54.7637C86.3138 54.7637 86.1333 54.7784 86.0163 54.7784C85.9967 54.7784 85.9772 54.7637 85.948 54.7588C85.8943 54.7442 85.8407 54.7344 85.7919 54.7198C85.7187 54.7002 85.6505 54.6709 85.5822 54.6514C85.47 54.5781 85.3432 54.5244 85.231 54.4512C85.1969 54.4316 85.1579 54.4072 85.1188 54.3828C85.1091 54.3779 85.1091 54.3731 85.1042 54.3633C84.8701 54.1387 84.6409 53.9189 84.4214 53.6748C84.4116 53.6601 84.397 53.6455 84.3824 53.6259C84.3531 53.5869 84.3238 53.5429 84.2897 53.5039C84.2068 53.3867 84.1288 53.2646 84.0556 53.1474C83.8898 52.8886 83.7386 52.6249 83.5971 52.3514C83.5289 52.2196 83.4703 52.0877 83.4069 51.951C85.1481 51.7703 86.8844 51.5897 88.6256 51.4041C88.6256 51.4139 88.6256 51.4187 88.6256 51.4236H88.6207Z" fill="var(--fill-0, #323232)"/>
<path id="Vector_31" d="M84.5193 42.7369C84.5193 42.7369 84.4754 42.7369 84.4559 42.7418C84.2706 42.7369 84.0999 42.7711 83.9389 42.859C83.7731 42.9127 83.6268 43.0055 83.5048 43.1373C83.3732 43.2594 83.2805 43.401 83.2268 43.567C83.1439 43.7282 83.1049 43.8991 83.1098 44.0847C83.1244 44.2018 83.1439 44.3239 83.1586 44.4411C83.222 44.6706 83.339 44.866 83.5048 45.032C83.5975 45.1003 83.6853 45.1736 83.778 45.242C83.9877 45.364 84.212 45.4226 84.4559 45.4275C84.6022 45.4129 84.7485 45.3982 84.8997 45.3836C84.9192 45.3836 84.9436 45.3836 84.9631 45.3787C85.1485 45.3836 85.3192 45.3494 85.4801 45.2615C85.646 45.2078 85.7923 45.115 85.9142 44.9831C86.0459 44.8611 86.1386 44.7195 86.1922 44.5534C86.2751 44.3923 86.3141 44.2214 86.3093 44.0358C86.2946 43.9186 86.2751 43.7965 86.2605 43.6793C86.1971 43.4498 86.08 43.2545 85.9142 43.0885C85.8215 43.0201 85.7337 42.9469 85.6411 42.8785C85.4314 42.7564 85.207 42.6978 84.9631 42.693C84.8168 42.7076 84.6705 42.7223 84.5193 42.7369Z" fill="var(--fill-0, #323232)"/>
<path id="Vector_32" d="M76.4824 33.8441C74.7559 33.8441 74.7559 36.5298 76.4824 36.5298C78.209 36.5298 78.209 33.8441 76.4824 33.8441Z" fill="var(--fill-0, #323232)"/>
<path id="Vector_33" d="M91.1387 32.0618C89.4121 32.0618 89.4121 34.7475 91.1387 34.7475C92.8652 34.7475 92.8652 32.0618 91.1387 32.0618Z" fill="var(--fill-0, #323232)"/>
<path id="Vector_34" d="M88.8935 28.375C88.8935 28.375 88.8886 28.375 88.8838 28.375C88.874 28.375 88.8691 28.3847 88.8594 28.3896C88.9813 28.3506 89.0106 28.3359 88.9959 28.3359C88.9764 28.3408 88.9618 28.3457 88.9423 28.3506C88.9277 28.3554 88.913 28.3603 88.8935 28.3701V28.375Z" fill="var(--fill-0, #323232)"/>
<path id="Vector_35" d="M78.941 29.4539C79.1166 28.6921 78.7069 28.0671 78.0046 27.8034C76.7999 27.3493 75.3514 27.486 74.1418 27.8229C72.9323 28.1599 71.7227 28.7507 70.9862 29.8055C70.5814 30.3817 70.8643 31.3242 71.4691 31.6416C72.1031 31.9785 72.7615 31.8027 73.1956 31.29C73.2005 31.29 73.2054 31.2851 73.2103 31.2753C73.2346 31.2509 73.2542 31.2216 73.2785 31.1972C73.3322 31.1386 73.3956 31.0898 73.4541 31.036C73.4736 31.0214 73.4931 31.0067 73.5175 30.9921C73.6151 30.9286 73.7175 30.8651 73.8199 30.8114C73.9175 30.7577 74.0199 30.704 74.1223 30.66C74.1369 30.6503 74.1711 30.6405 74.2003 30.6259C74.4393 30.5331 74.6832 30.455 74.9271 30.3915C75.1612 30.328 75.4002 30.284 75.6391 30.2401C75.6928 30.2352 75.7464 30.2303 75.7952 30.2254C75.9171 30.2157 76.0391 30.2108 76.1659 30.2059C76.2878 30.2059 76.4097 30.2059 76.5268 30.2108C76.5853 30.2108 76.6438 30.2206 76.7024 30.2254C76.7463 30.2254 76.7658 30.2254 76.7804 30.2254C76.956 30.2596 77.1511 30.3329 77.2925 30.3866C77.951 30.6356 78.7898 30.1131 78.941 29.449V29.4539Z" fill="var(--fill-0, #323232)"/>
<path id="Vector_36" d="M92.5642 28.4973C92.6276 28.5315 92.691 28.5755 92.7544 28.6145C92.7739 28.6292 92.7886 28.6487 92.8081 28.6634C93.3007 29.1615 94.2176 29.1956 94.7053 28.6634C95.1979 28.1262 95.2321 27.2961 94.7053 26.7638C93.7786 25.8312 92.3447 25.5382 91.0864 25.4454C89.7939 25.3477 88.3259 25.5284 87.2139 26.2365C86.6237 26.6125 86.3311 27.4475 86.731 28.0725C87.1114 28.6634 87.9357 28.9612 88.5649 28.5559C88.6575 28.4973 88.7551 28.4436 88.8526 28.3948C88.8282 28.4046 88.8038 28.4095 88.7746 28.4192C88.8136 28.4095 88.8526 28.3899 88.8916 28.3753C88.9307 28.3557 88.9794 28.3411 88.9892 28.3411C89.2135 28.263 89.4428 28.2044 89.672 28.1653C89.7061 28.1604 89.7452 28.1506 89.7793 28.1458C89.9159 28.136 90.0524 28.1213 90.189 28.1165C90.4621 28.1067 90.7352 28.1067 91.0084 28.1262C91.1205 28.136 91.2327 28.1458 91.3449 28.1555C91.3888 28.1653 91.4376 28.1702 91.4815 28.1799C91.7253 28.2239 91.9692 28.2825 92.2082 28.3606C92.2911 28.385 92.374 28.4192 92.4569 28.4485C92.4911 28.468 92.5301 28.4827 92.5642 28.5022V28.4973Z" fill="var(--fill-0, #323232)"/>
<path id="Vector_37" d="M84.1498 8.46142C80.3602 8.82766 76.7754 10.527 73.771 12.8074C70.196 15.5225 67.3379 19.0872 65.7186 23.2964C64.7578 25.7868 64.3335 28.4774 64.4164 31.1436C64.4408 31.8663 64.9236 32.2863 65.4796 32.4035C66.2454 32.5646 67.133 32.1496 67.0989 31.1436C66.8404 23.0572 72.2151 15.9131 79.3262 12.5633C80.0773 12.2117 80.8869 11.8943 81.7941 11.6306C82.2282 11.5036 82.6671 11.3913 83.1109 11.3034C83.3011 11.2644 83.4962 11.2302 83.6913 11.2009C83.7206 11.2009 83.7889 11.1862 83.8376 11.1813C83.9449 11.1667 84.0474 11.1569 84.1547 11.1472C84.7253 11.0934 85.2277 10.7663 85.413 10.2487C84.857 10.0484 84.2571 9.93613 83.6035 9.93613C84.262 9.93613 84.857 10.0484 85.413 10.2487C85.4618 10.1119 85.4959 9.96543 85.4959 9.80429C85.4959 9.13041 84.8814 8.39306 84.1547 8.46142H84.1498Z" fill="var(--fill-0, #323232)"/>
<path id="Vector_38" d="M114.479 34.7626C113.772 29.855 111.635 25.3479 109.845 20.7724C108.192 16.5485 106.529 12.2269 103.486 8.77938C102.037 7.13864 100.237 5.80066 98.3937 4.62871C96.7305 3.57395 94.6821 2.33851 92.6336 2.69498C92.4922 2.7194 92.3703 2.77799 92.2581 2.85612C93.0043 3.32491 93.7066 3.94018 94.326 4.56523C93.7066 3.94507 93.0043 3.32491 92.2581 2.85612C91.7899 3.16376 91.5558 3.82299 91.6972 4.35037C91.902 5.10726 92.6288 5.41489 93.3457 5.28793C93.0628 5.33676 93.3652 5.30258 93.4872 5.30258C93.5067 5.30258 93.5115 5.30258 93.5213 5.30258C93.5798 5.31235 93.6432 5.32211 93.7018 5.33676C94.0285 5.41489 94.4285 5.54674 94.6821 5.65417C95.5063 6.00087 96.2867 6.46965 97.0427 6.9482C98.6132 7.94436 99.8276 8.81845 101.091 10.1369C103.91 13.0717 105.49 16.9538 106.948 20.6943C108.621 24.9768 110.626 29.2007 111.582 33.7225C112.328 37.2579 112.465 41.3549 110.821 44.5533C109.168 47.7664 106.149 50.1494 103.593 52.7472C103.051 53.299 103.134 53.9827 103.495 54.4612C103.803 53.9094 103.983 53.2307 103.983 52.3712C103.983 53.2307 103.807 53.9094 103.495 54.4612C103.944 55.0521 104.817 55.3255 105.49 54.6468C107.977 52.1124 110.826 49.7783 112.689 46.7068C114.874 43.103 115.069 38.84 114.479 34.7626Z" fill="var(--fill-0, #323232)"/>
<path id="Vector_39" d="M104.513 44.5629C104.752 45.0512 105.317 45.3149 105.844 45.1488C106.854 44.8656 106.864 43.3225 105.825 43.01C106.205 43.2151 105.942 43.0637 105.8 43.0247C105.6 42.9758 105.386 42.9807 105.186 43.0393C104.654 43.1907 104.259 43.8548 104.459 44.4212C104.459 44.4066 104.479 44.4408 104.513 44.5629Z" fill="var(--fill-0, white)"/>
<path id="Vector_40" d="M89.7937 0.780197C84.5897 -0.919138 79.0735 0.335831 74.3474 2.82624C71.9429 4.09097 69.7091 5.68776 67.6412 7.45058C65.8268 8.99853 64.2125 10.6979 63.0127 12.7781C60.6082 16.9483 59.8717 21.8363 59.106 26.5193C58.6524 29.2782 58.1744 32.0226 57.5745 34.7571C56.9258 37.7163 56.3406 40.7732 56.9112 43.7958C57.3258 45.9981 58.3939 48.1907 59.6181 50.056C60.813 51.8726 62.5298 53.9625 64.8026 54.3678C65.4074 54.4753 66.0219 54.2604 66.3194 53.7379C66.3731 53.6451 66.4219 53.5426 66.4511 53.4303C66.6316 52.7808 66.2317 51.9067 65.5147 51.7798C64.8465 51.6626 64.31 51.3549 63.7881 50.8959C63.1102 50.3002 62.5347 49.6019 62.0323 48.8548C60.9935 47.3068 60.1595 45.6368 59.6717 43.8544C59.0133 41.4422 59.4425 38.8687 59.9449 36.4711C60.496 33.8293 61.0422 31.2022 61.4763 28.5409C62.1884 24.2095 62.7103 19.6096 64.5783 15.5908C66.4853 11.4987 70.0798 8.53952 73.8597 6.21026C78.3955 3.41221 83.8288 1.67381 89.0767 3.3878C90.0229 3.69544 90.6521 2.97273 90.7106 2.19631C89.9644 2.01075 89.1938 2.04982 88.4183 2.43558C89.1889 2.04982 89.9644 2.01563 90.7106 2.19631C90.7545 1.62498 90.4863 1.02435 89.7888 0.79973L89.7937 0.780197Z" fill="var(--fill-0, #323232)"/>
</g>
</svg>
