<svg preserveAspectRatio="none" width="100%" height="100%" overflow="visible" style="display: block;" viewBox="0 0 57 49.1735" fill="none" xmlns="http://www.w3.org/2000/svg">
<g id="Group">
<path id="Vector" d="M12.4383 31.1574C15.808 31.1574 18.5485 28.4169 18.5485 25.0472C18.5485 21.6775 15.808 18.937 12.4383 18.937C9.06865 18.937 6.32812 21.6775 6.32812 25.0472C6.32812 28.4169 9.06865 31.1574 12.4383 31.1574ZM12.4383 20.5753C14.9045 20.5753 16.9128 22.5835 16.9128 25.0497C16.9128 27.516 14.9045 29.5242 12.4383 29.5242C9.9721 29.5242 7.96389 27.516 7.96389 25.0497C7.96389 22.5835 9.9721 20.5753 12.4383 20.5753Z" fill="var(--fill-0, white)"/>
<path id="Vector_2" d="M50.0493 32.9467H40.363C38.9362 31.706 37.0764 30.9536 35.0405 30.9536H21.9595C19.9236 30.9536 18.0638 31.706 16.637 32.9467H6.95073C3.11801 32.9467 0 36.0647 0 39.8974V47.817H1.63576V39.8974C1.63576 36.9681 4.01894 34.5824 6.95073 34.5824H15.1975C14.3393 35.8709 13.836 37.4161 13.836 39.077V49.1734H15.4718V39.077C15.4718 35.501 18.3834 32.5893 21.9595 32.5893H35.0405C38.6191 32.5893 41.5282 35.501 41.5282 39.077V49.1734H43.164V39.077C43.164 37.4161 42.6632 35.8709 41.8025 34.5824H50.0493C52.9785 34.5824 55.3642 36.9656 55.3642 39.8974V47.817H57V39.8974C57 36.0647 53.882 32.9467 50.0493 32.9467Z" fill="var(--fill-0, white)"/>
<path id="Vector_3" d="M51.542 41.1831H49.9062V47.8142H51.542V41.1831Z" fill="var(--fill-0, white)"/>
<path id="Vector_4" d="M7.08912 41.1833H5.45336V47.8145H7.08912V41.1833Z" fill="var(--fill-0, white)"/>
<path id="Vector_5" d="M37.1904 40.3125H35.5547V49.1708H37.1904V40.3125Z" fill="var(--fill-0, white)"/>
<path id="Vector_6" d="M21.4483 40.3125H19.8125V49.1708H21.4483V40.3125Z" fill="var(--fill-0, white)"/>
<path id="Vector_7" d="M44.5633 31.1574C47.933 31.1574 50.6735 28.4169 50.6735 25.0472C50.6735 21.6775 47.933 18.937 44.5633 18.937C41.1937 18.937 38.4531 21.6775 38.4531 25.0472C38.4531 28.4169 41.1937 31.1574 44.5633 31.1574ZM44.5633 20.5753C47.0296 20.5753 49.0378 22.5835 49.0378 25.0497C49.0378 27.516 47.0296 29.5242 44.5633 29.5242C42.0971 29.5242 40.0889 27.516 40.0889 25.0497C40.0889 22.5835 42.0971 20.5753 44.5633 20.5753Z" fill="var(--fill-0, white)"/>
<path id="Vector_8" d="M28.4969 29.1265C32.4252 29.1265 35.6187 25.9305 35.6187 22.0047C35.6187 18.0788 32.4227 14.8828 28.4969 14.8828C24.571 14.8828 21.375 18.0788 21.375 22.0047C21.375 25.9305 24.571 29.1265 28.4969 29.1265ZM28.4969 16.5161C31.5218 16.5161 33.9829 18.9772 33.9829 22.0022C33.9829 25.0271 31.5218 27.4882 28.4969 27.4882C25.472 27.4882 23.0108 25.0271 23.0108 22.0022C23.0108 18.9772 25.472 16.5161 28.4969 16.5161Z" fill="var(--fill-0, white)"/>
<path id="Vector_9" d="M39.5379 12.0011L41.1938 13.204L40.5622 15.1518C40.3533 15.7911 40.5723 16.4605 41.1158 16.8556C41.6594 17.2507 42.364 17.2507 42.9076 16.8556L44.5635 15.6526L46.2194 16.8556C46.4912 17.0544 46.8032 17.1525 47.1153 17.1525C47.4274 17.1525 47.7394 17.0544 48.0112 16.8556C48.5548 16.4605 48.7737 15.7911 48.5648 15.1518L47.9332 13.204L49.5891 12.0011C50.1327 11.606 50.3516 10.9366 50.1427 10.2974C49.9338 9.65821 49.3651 9.24297 48.6932 9.24297H46.6447L46.0131 7.29516C45.8042 6.65595 45.2354 6.24072 44.5635 6.24072C43.8916 6.24072 43.3203 6.65344 43.114 7.29516L42.4823 9.24297H40.4338C39.7619 9.24297 39.1907 9.65569 38.9843 10.2974C38.7754 10.9366 38.9944 11.606 39.5379 12.0011ZM42.7717 10.8787C43.3078 10.8787 43.7809 10.5365 43.9495 10.0231L44.566 8.12562L45.1826 10.0231C45.3487 10.534 45.8218 10.8762 46.3578 10.8762H48.3534L46.7403 12.0489C46.305 12.366 46.1238 12.9197 46.2899 13.433L46.9064 15.3305L45.2933 14.1578C45.0769 13.9993 44.8202 13.9213 44.566 13.9213C44.3119 13.9213 44.0577 13.9993 43.8387 14.1578L42.2256 15.3305L42.8422 13.433C43.0083 12.9222 42.8271 12.366 42.3917 12.0489L40.7786 10.8762H42.7742L42.7717 10.8787Z" fill="var(--fill-0, #FFEB3B)"/>
<path id="Vector_10" d="M7.41295 12.0011L9.06884 13.204L8.43719 15.1518C8.22831 15.7911 8.44725 16.4605 8.99083 16.8556C9.26262 17.0544 9.57467 17.1525 9.88672 17.1525C10.1988 17.1525 10.5108 17.0544 10.7826 16.8556L12.4385 15.6526L14.0944 16.8556C14.638 17.2507 15.3426 17.2507 15.8862 16.8556C16.4298 16.4605 16.6487 15.7911 16.4398 15.1518L15.8082 13.204L17.4641 12.0011C18.0077 11.606 18.2266 10.9366 18.0177 10.2974C17.8088 9.65821 17.2401 9.24297 16.5682 9.24297H14.5197L13.888 7.29516C13.6792 6.65595 13.1104 6.24072 12.4385 6.24072C11.7666 6.24072 11.1953 6.65344 10.989 7.29516L10.3573 9.24297H8.30884C7.63692 9.24297 7.06566 9.65569 6.85931 10.2974C6.65043 10.9366 6.86937 11.606 7.41295 12.0011ZM10.6467 10.8787C11.1853 10.8787 11.6559 10.5365 11.8245 10.0231L12.441 8.12562L13.0576 10.0231C13.2237 10.534 13.6968 10.8787 14.2353 10.8787H16.231L14.6178 12.0515C14.1825 12.3685 14.0013 12.9247 14.1674 13.4356L14.7839 15.333L13.1708 14.1603C12.9544 14.0018 12.6977 13.9238 12.4435 13.9238C12.1894 13.9238 11.9327 14.0018 11.7163 14.1603L10.1031 15.333L10.7197 13.4356C10.8858 12.9247 10.7046 12.3685 10.2692 12.0515L8.65613 10.8787H10.6518H10.6467Z" fill="var(--fill-0, #FFEB3B)"/>
<path id="Vector_11" d="M23.133 6.07497L24.9474 7.39364L24.2554 9.52768C24.0415 10.1895 24.2654 10.8816 24.8291 11.2918C25.111 11.4956 25.4331 11.5988 25.7552 11.5988C26.0774 11.5988 26.3995 11.4956 26.6813 11.2918L28.4958 9.97311L30.3102 11.2918C30.8739 11.6995 31.6012 11.702 32.1624 11.2918C32.7261 10.8816 32.9501 10.1895 32.7362 9.52768L32.0441 7.39364L33.8585 6.07497C34.4223 5.66728 34.6462 4.97272 34.4323 4.31338C34.2184 3.65152 33.6295 3.22371 32.9325 3.22371H30.6902L29.9981 1.08967C29.7842 0.427815 29.1954 0 28.4983 0C27.8012 0 27.2148 0.427815 26.9984 1.08967L26.3064 3.22371H24.0641C23.367 3.22371 22.7807 3.65152 22.5642 4.31338C22.3503 4.97523 22.5743 5.66728 23.138 6.07748L23.133 6.07497ZM26.5706 4.85947C27.1217 4.85947 27.6074 4.50715 27.776 3.98371L28.4958 1.76914L29.2155 3.98371C29.3866 4.50715 29.8698 4.85947 30.4209 4.85947H32.7487L30.8638 6.22848C30.4184 6.55311 30.2322 7.12185 30.4033 7.6453L31.123 9.85987L29.2381 8.49086C28.7927 8.16623 28.1938 8.16623 27.7483 8.49086L25.8634 9.85987L26.5832 7.6453C26.7543 7.12185 26.5681 6.5506 26.1226 6.22848L24.2377 4.85947H26.5656H26.5706Z" fill="var(--fill-0, #FFEB3B)"/>
</g>
</svg>
