<svg preserveAspectRatio="none" width="100%" height="100%" overflow="visible" style="display: block;" viewBox="0 0 45.0059 45" fill="none" xmlns="http://www.w3.org/2000/svg">
<g id="Group">
<path id="Vector" d="M36.8258 32.7153H35.5156V44.9983H36.8258V32.7153Z" fill="var(--fill-0, white)"/>
<path id="Vector_2" d="M31.8462 21.2483H19.1681L11.1824 20.8069L12.0854 19.2428C14.5323 19.7366 17.0296 19.1723 19.0089 17.7916C20.7 19.1158 22.8264 19.91 25.1363 19.91C30.6267 19.91 35.0913 15.4434 35.0913 9.95499C35.0913 4.46654 30.6267 0 25.1383 0C22.5281 0 20.1538 1.01384 18.376 2.66259C18.3679 2.65856 18.3619 2.65453 18.3538 2.6505C14.0627 0.171325 8.55607 1.64673 6.0769 5.93792C4.14596 9.28379 4.58536 13.5024 7.11694 16.3726L5.64355 18.9243C4.80305 18.8719 3.96456 19.2851 3.51509 20.0632L0.306271 25.6221C-0.324608 26.7166 0.0502909 28.1195 1.14475 28.7523L3.35787 30.0302C3.88394 30.3346 4.46846 30.4898 5.05903 30.4898C5.35532 30.4898 5.65362 30.4515 5.9479 30.3729C6.45986 30.2358 6.92143 29.9839 7.30842 29.6453L16.3806 31.3021V45H17.6907V30.2096L8.19729 28.4742L10.1061 25.1666C10.5616 24.3765 10.6825 23.4574 10.4467 22.5766C10.4185 22.4678 10.3842 22.3629 10.3439 22.2581L10.4467 22.0787L19.1117 22.5585H31.8421C38.3787 22.5585 43.6958 27.8776 43.6958 34.4141V44.998H45.0059V34.4141C45.0059 27.156 39.1003 21.2503 31.8421 21.2503L31.8462 21.2483ZM25.1383 1.31013C29.9052 1.31013 33.7832 5.18812 33.7832 9.95499C33.7832 14.7218 29.9052 18.5998 25.1383 18.5998C23.2396 18.5998 21.484 17.9811 20.055 16.939C20.6677 16.3565 21.2059 15.6833 21.6453 14.9254C22.8466 12.8474 23.165 10.4246 22.5442 8.10468C22.0424 6.2322 20.9761 4.60763 19.4886 3.42045C21.0043 2.10629 22.9796 1.30812 25.1403 1.30812L25.1383 1.31013ZM8.39281 15.8224C5.97612 13.3714 5.49036 9.57807 7.21167 6.595C9.32804 2.92865 14.0344 1.66891 17.6988 3.78527C19.4745 4.81121 20.7443 6.466 21.2764 8.44733C21.8065 10.4286 21.5344 12.4966 20.5085 14.2724C18.7872 17.2554 15.2579 18.7329 11.9261 17.8641C11.6419 17.7896 11.3416 17.9145 11.1945 18.1705L9.54371 21.0286C9.34013 20.8291 9.11237 20.6497 8.85841 20.5026L6.89926 19.3718L8.49359 16.6105C8.64072 16.3545 8.60041 16.032 8.39281 15.8224ZM8.9733 24.5116L6.88716 28.1235C6.607 28.6113 6.15147 28.9579 5.60928 29.1031C5.06709 29.2482 4.49869 29.1736 4.01294 28.8934L1.79982 27.6156C1.3322 27.3455 1.17096 26.7448 1.44105 26.2752L4.64986 20.7162C4.83126 20.4018 5.16182 20.2264 5.50044 20.2264C5.66773 20.2264 5.83503 20.2687 5.99023 20.3574L8.20334 21.6353C8.6891 21.9155 9.0378 22.371 9.18292 22.9132C9.32804 23.4554 9.25346 24.0238 8.9733 24.5095V24.5116Z" fill="var(--fill-0, white)"/>
<path id="Vector_3" d="M13.8173 16.7696C17.3104 16.7696 20.1523 13.9276 20.1523 10.4346C20.1523 6.94159 17.3104 4.09961 13.8173 4.09961C10.3243 4.09961 7.48438 6.94159 7.48438 10.4346C7.48438 13.9276 10.3264 16.7696 13.8173 16.7696ZM13.8173 5.41176C16.5868 5.41176 18.8422 7.66518 18.8422 10.4366C18.8422 13.208 16.5888 15.4615 13.8173 15.4615C11.0459 15.4615 8.79451 13.208 8.79451 10.4366C8.79451 7.66518 11.0479 5.41176 13.8173 5.41176Z" fill="var(--fill-0, #FFEB3B)"/>
</g>
</svg>
