<svg preserveAspectRatio="none" width="100%" height="100%" overflow="visible" style="display: block;" viewBox="0 0 61 46.4761" fill="none" xmlns="http://www.w3.org/2000/svg">
<g id="Group">
<path id="Vector" d="M61 37.7485H52.2354V33.4108C52.2354 29.6167 49.1161 26.5282 45.2842 26.5282H38.5326C34.7007 26.5282 31.5814 29.6167 31.5814 33.4108V37.7485H28.6229C27.4583 35.5577 25.1375 34.0587 22.4674 34.0587H15.7158C13.0457 34.0587 10.7249 35.5577 9.56036 37.7485H0V39.533H8.91155C8.8145 39.9887 8.76459 40.4581 8.76459 40.9413V46.476H10.5669V40.9413C10.5669 38.1301 12.8765 35.8432 15.7158 35.8432H22.4674C25.3067 35.8432 27.6164 38.1301 27.6164 40.9413V46.476H29.4186V40.9413C29.4186 40.4581 29.3687 39.9887 29.2717 39.533H61V37.7485ZM33.3836 33.4108C33.3836 30.5995 35.6933 28.3127 38.5326 28.3127H45.2842C48.1235 28.3127 50.4331 30.5995 50.4331 33.4108V37.7485H33.3836V33.4108Z" fill="var(--fill-0, white)"/>
<path id="Vector_2" d="M9.6279 24.1836H6.45312V25.9681H9.6279V24.1836Z" fill="var(--fill-0, white)"/>
<path id="Vector_3" d="M19.087 20.0767C15.463 20.0767 12.5156 22.995 12.5156 26.5832C12.5156 30.1714 15.463 33.0897 19.087 33.0897C22.7109 33.0897 25.6584 30.1714 25.6584 26.5832C25.6584 22.995 22.7109 20.0767 19.087 20.0767ZM19.087 31.3079C16.4557 31.3079 14.3179 29.1885 14.3179 26.5859C14.3179 23.9833 16.4584 21.8639 19.087 21.8639C21.7155 21.8639 23.8561 23.9833 23.8561 26.5859C23.8561 29.1885 21.7155 31.3079 19.087 31.3079Z" fill="var(--fill-0, white)"/>
<path id="Vector_4" d="M8.47145 18.7593L7.57031 20.3047L10.3197 21.8764L11.2209 20.331L8.47145 18.7593Z" fill="var(--fill-0, white)"/>
<path id="Vector_5" d="M32.6356 7.73105C33.4175 7.73105 34.0525 7.10237 34.0525 6.32817C34.0525 5.55398 33.4175 4.92529 32.6356 4.92529C31.8537 4.92529 31.2188 5.55398 31.2188 6.32817C31.2188 7.10237 31.8537 7.73105 32.6356 7.73105Z" fill="var(--fill-0, #FFEB3B)"/>
<path id="Vector_6" d="M26.6356 7.73105C27.4175 7.73105 28.0525 7.10237 28.0525 6.32817C28.0525 5.55398 27.4175 4.92529 26.6356 4.92529C25.8537 4.92529 25.2188 5.55398 25.2188 6.32817C25.2188 7.10237 25.8537 7.73105 26.6356 7.73105Z" fill="var(--fill-0, #FFEB3B)"/>
<path id="Vector_7" d="M20.6278 7.73105C21.4097 7.73105 22.0447 7.10237 22.0447 6.32817C22.0447 5.55398 21.4097 4.92529 20.6278 4.92529C19.8459 4.92529 19.2109 5.55398 19.2109 6.32817C19.2109 7.10237 19.8459 7.73105 20.6278 7.73105Z" fill="var(--fill-0, #FFEB3B)"/>
<path id="Vector_8" d="M17.4502 12.6534H23.9246L29.4922 16.4228C29.6447 16.5271 29.8221 16.5792 29.9996 16.5792C30.166 16.5792 30.3323 16.5353 30.4793 16.442C30.7843 16.2525 30.9451 15.9039 30.8924 15.5525L30.4488 12.6506H35.814C37.583 12.6506 39.0221 11.2258 39.0221 9.47425V3.17638C39.0221 1.42484 37.583 0 35.814 0H17.4502C15.6812 0 14.2422 1.42484 14.2422 3.17638V9.47425C14.2422 11.2258 15.6812 12.6506 17.4502 12.6506V12.6534ZM16.0445 3.17638C16.0445 2.40768 16.6766 1.78449 17.4502 1.78449H35.814C36.5904 1.78449 37.2198 2.41043 37.2198 3.17638V9.47425C37.2198 10.2429 36.5876 10.8661 35.814 10.8661H29.4007C29.1373 10.8661 28.8877 10.9787 28.7186 11.1764C28.5467 11.374 28.4718 11.6348 28.5106 11.8929L28.8018 13.7927L24.7148 11.0226C24.5651 10.9211 24.3876 10.8661 24.2074 10.8661H17.453C16.6766 10.8661 16.0472 10.2402 16.0472 9.47425V3.17638H16.0445Z" fill="var(--fill-0, #FFEB3B)"/>
<path id="Vector_9" d="M12.9514 15.0599L11.3906 15.9521L12.978 18.6744L14.5388 17.7822L12.9514 15.0599Z" fill="var(--fill-0, white)"/>
<path id="Vector_10" d="M35.3358 19.0523C35.3358 22.6405 38.2832 25.5588 41.9072 25.5588C45.5312 25.5588 48.4786 22.6405 48.4786 19.0523C48.4786 15.4641 45.5312 12.5458 41.9072 12.5458C38.2832 12.5458 35.3358 15.4641 35.3358 19.0523ZM41.91 14.3303C44.5413 14.3303 46.6791 16.4497 46.6791 19.0523C46.6791 21.6549 44.5385 23.7744 41.91 23.7744C39.2814 23.7744 37.1409 21.6549 37.1409 19.0523C37.1409 16.4497 39.2814 14.3303 41.91 14.3303Z" fill="var(--fill-0, white)"/>
</g>
</svg>
