<svg preserveAspectRatio="none" width="100%" height="100%" overflow="visible" style="display: block;" viewBox="0 0 35 47.8116" fill="none" xmlns="http://www.w3.org/2000/svg">
<g id="Group">
<path id="Vector" d="M32.1628 2.82458H27.544L27.3013 4.19671H32.165C32.9735 4.19671 33.63 4.85323 33.63 5.66173V44.9766C33.63 45.7851 32.9735 46.4416 32.165 46.4416H2.83715C2.02865 46.4416 1.37214 45.7851 1.37214 44.9766V5.65962C1.37214 4.85111 2.02865 4.1946 2.83715 4.1946H7.70084L7.45808 2.82247H2.83715C1.27292 2.82458 0 4.09538 0 5.65962V44.9745C0 46.5387 1.27292 47.8116 2.83715 47.8116H32.1628C33.7271 47.8116 35 46.5387 35 44.9745V5.65962C35 4.09538 33.7271 2.82247 32.1628 2.82247V2.82458Z" fill="var(--fill-0, white)"/>
<path id="Vector_2" d="M28.0262 39.4648H17.5156V40.837H28.0262V39.4648Z" fill="var(--fill-0, white)"/>
<path id="Vector_3" d="M24.2982 35.3398H17.5156V36.712H24.2982V35.3398Z" fill="var(--fill-0, white)"/>
<path id="Vector_4" d="M14.4656 33.541H5.68607C5.3082 33.541 5 33.8492 5 34.2271V41.6303C5 42.0081 5.3082 42.3163 5.68607 42.3163H14.4635C14.8414 42.3163 15.1496 42.0081 15.1496 41.6303V34.2271C15.1496 33.8492 14.8414 33.541 14.4635 33.541H14.4656ZM6.37214 40.9442V34.9132H13.7774V35.1475L10.2732 38.6517L8.55488 36.9334L7.58384 37.9044L10.2732 40.5938L13.7774 37.0896V40.9463H6.37214V40.9442Z" fill="var(--fill-0, #FFEB3B)"/>
<path id="Vector_5" d="M25.1173 28.3145H17.5156V29.6866H25.1173V28.3145Z" fill="var(--fill-0, white)"/>
<path id="Vector_6" d="M27.3908 24.1899H17.5156V25.5621H27.3908V24.1899Z" fill="var(--fill-0, white)"/>
<path id="Vector_7" d="M15.1517 23.0796C15.1517 22.7018 14.8435 22.3936 14.4656 22.3936H5.68607C5.3082 22.3936 5 22.7018 5 23.0796V30.4828C5 30.8607 5.3082 31.1689 5.68607 31.1689H14.4635C14.8414 31.1689 15.1496 30.8607 15.1496 30.4828V23.0796H15.1517ZM6.37214 29.7968V23.7657H13.7774V23.9979L10.2732 27.5021L8.55488 25.7838L7.58384 26.7548L10.2732 29.4442L13.7774 25.94V29.7968H6.37214Z" fill="var(--fill-0, #FFEB3B)"/>
<path id="Vector_8" d="M29.8501 17.1665H17.5156V18.5386H29.8501V17.1665Z" fill="var(--fill-0, white)"/>
<path id="Vector_9" d="M23.4242 13.0415H17.5156V14.4136H23.4242V13.0415Z" fill="var(--fill-0, white)"/>
<path id="Vector_10" d="M15.1517 11.9312C15.1517 11.5533 14.8435 11.2451 14.4656 11.2451H5.68607C5.3082 11.2451 5 11.5533 5 11.9312V19.3344C5 19.7122 5.3082 20.0204 5.68607 20.0204H14.4635C14.8414 20.0204 15.1496 19.7122 15.1496 19.3344V11.9312H15.1517ZM6.37214 18.6462V12.6151H13.7774V12.8495L10.2732 16.3537L8.55488 14.6353L7.58384 15.6064L10.2732 18.2958L13.7774 14.7916V18.6483H6.37214V18.6462Z" fill="var(--fill-0, #FFEB3B)"/>
<path id="Vector_11" d="M9.49035 4.94813C9.71622 6.21472 10.9005 7.20899 12.1861 7.20899H22.8022C24.0899 7.20899 25.2741 6.21683 25.4979 4.94813L25.9327 2.4994C26.0467 1.85555 25.8863 1.21381 25.4894 0.743064C25.0926 0.272316 24.491 0 23.8365 0H11.1475C10.4931 0 9.89143 0.270205 9.49457 0.743064C9.09982 1.21592 8.93727 1.85555 9.05127 2.4994L9.48613 4.94813H9.49035ZM10.5501 1.62334C10.6873 1.4608 10.9005 1.37002 11.1517 1.37002H23.8408C24.092 1.37002 24.3052 1.45869 24.4424 1.62123C24.5796 1.78378 24.6303 2.00965 24.5859 2.25663L24.1511 4.70537C24.0455 5.307 23.4165 5.83263 22.8064 5.83263H12.1903C11.5802 5.83263 10.9511 5.30489 10.8456 4.70537L10.4107 2.25663C10.3664 2.00965 10.4171 1.78378 10.5543 1.62123L10.5501 1.62334Z" fill="var(--fill-0, white)"/>
</g>
</svg>
